<?xml version="1.0" encoding="utf-8"?>
<!-- Generator: Adobe Illustrator 22.0.1, SVG Export Plug-In . SVG Version: 6.00 Build 0)  -->
<!DOCTYPE svg PUBLIC "-//W3C//DTD SVG 1.1//EN" "http://www.w3.org/Graphics/SVG/1.1/DTD/svg11.dtd">
<svg version="1.1" id="Layer_1" xmlns="http://www.w3.org/2000/svg" xmlns:xlink="http://www.w3.org/1999/xlink" x="0px" y="0px"
	 viewBox="0 0 611.8 611.8" style="enable-background:new 0 0 611.8 611.8;" xml:space="preserve">
<style type="text/css">
	.st0{fill:#F5FAF8;stroke:#A967AA;stroke-width:11.8;stroke-linecap:round;stroke-linejoin:round;}
	.st1{enable-background:new    ;}
	.st2{fill:#A967AA;}
</style>
<title>std web mockupsasfd</title>
<path class="st0" d="M305.9,5.9L305.9,5.9c165.7,0,300,134.3,300,300v0c0,165.7-134.3,300-300,300h0c-165.7,0-300-134.3-300-300v0
	C5.9,140.2,140.2,5.9,305.9,5.9z"/>
<g class="st1">
	<path class="st2" d="M162,123.2L162,123.2l-6.2,16.8h-3.1l-6.1-16.8l-0.1,0l0.4,10v3.6l2.4,0.5v2.7h-9.4v-2.7l2.4-0.5v-16.3
		l-2.4-0.5v-2.8h2.4h6l5.8,16.8h0.1l5.8-16.8h8.4v2.8l-2.4,0.5v16.3l2.4,0.5v2.7h-9.4v-2.7l2.4-0.5v-3.6L162,123.2z"/>
</g>
<g class="st1">
	<path class="st2" d="M180.8,140c-0.1-0.3-0.2-0.6-0.3-0.9s-0.2-0.6-0.2-0.9c-0.5,0.6-1.2,1.1-2,1.5c-0.8,0.4-1.7,0.6-2.7,0.6
		c-1.7,0-3-0.5-3.9-1.4c-1-0.9-1.5-2.1-1.5-3.7c0-1.6,0.6-2.8,1.9-3.7c1.3-0.9,3.1-1.3,5.6-1.3h2.3v-1.7c0-0.8-0.2-1.4-0.7-1.9
		c-0.5-0.4-1.2-0.7-2.1-0.7c-0.5,0-1,0.1-1.4,0.2c-0.4,0.1-0.7,0.3-1,0.4l-0.3,1.8h-3.4l0-3.8c0.8-0.6,1.8-1,2.9-1.4
		c1.1-0.4,2.3-0.6,3.5-0.6c2.1,0,3.8,0.5,5.1,1.5c1.3,1,2,2.5,2,4.4v7c0,0.3,0,0.5,0,0.7c0,0.2,0,0.4,0.1,0.7l1.4,0.2v2.7H180.8z
		 M176.9,137c0.7,0,1.3-0.1,1.9-0.4s1-0.7,1.3-1.1v-2.6h-2.3c-1,0-1.7,0.2-2.2,0.7s-0.8,1-0.8,1.6c0,0.6,0.2,1,0.6,1.3
		C175.7,136.8,176.2,137,176.9,137z"/>
</g>
<g class="st1">
	<path class="st2" d="M187.3,118.4v-2.8h7v14.1h1l2.6-3.7l-1.5-0.2v-2.8h8.3v2.8l-2,0.5l-3,4.2l4.3,6.4l1.7,0.4v2.7h-7.8v-2.7
		l0.9-0.2l-2.6-4.2h-2v3.9l2,0.5v2.7h-8.7v-2.7l2.2-0.5v-18L187.3,118.4z"/>
</g>
<g class="st1">
	<path class="st2" d="M214.7,140.4c-2.4,0-4.4-0.8-5.8-2.3c-1.5-1.6-2.2-3.5-2.2-6v-0.6c0-2.5,0.7-4.6,2.1-6.2
		c1.4-1.6,3.2-2.4,5.6-2.4c2.3,0,4.1,0.7,5.3,2.1c1.3,1.4,1.9,3.2,1.9,5.6v2.5h-10.1l0,0.1c0.1,1.1,0.5,2,1.1,2.8
		c0.7,0.7,1.6,1.1,2.7,1.1c1,0,1.8-0.1,2.5-0.3c0.7-0.2,1.4-0.5,2.2-1l1.2,2.8c-0.7,0.6-1.6,1-2.7,1.4S216.1,140.4,214.7,140.4z
		 M214.3,126.3c-0.8,0-1.5,0.3-2,1c-0.5,0.6-0.8,1.5-0.9,2.5l0,0.1h5.6v-0.4c0-1-0.2-1.7-0.7-2.3S215.3,126.3,214.3,126.3z"/>
</g>
<g class="st1">
	<path class="st2" d="M242.3,140c-0.1-0.3-0.2-0.6-0.3-0.9s-0.2-0.6-0.2-0.9c-0.5,0.6-1.2,1.1-2,1.5c-0.8,0.4-1.7,0.6-2.7,0.6
		c-1.7,0-3-0.5-3.9-1.4c-1-0.9-1.5-2.1-1.5-3.7c0-1.6,0.6-2.8,1.9-3.7c1.3-0.9,3.1-1.3,5.6-1.3h2.3v-1.7c0-0.8-0.2-1.4-0.7-1.9
		c-0.5-0.4-1.2-0.7-2.1-0.7c-0.5,0-1,0.1-1.4,0.2c-0.4,0.1-0.7,0.3-1,0.4l-0.3,1.8h-3.4l0-3.8c0.8-0.6,1.8-1,2.9-1.4
		c1.1-0.4,2.3-0.6,3.5-0.6c2.1,0,3.8,0.5,5.1,1.5c1.3,1,2,2.5,2,4.4v7c0,0.3,0,0.5,0,0.7c0,0.2,0,0.4,0.1,0.7l1.4,0.2v2.7H242.3z
		 M238.4,137c0.7,0,1.3-0.1,1.9-0.4s1-0.7,1.3-1.1v-2.6h-2.3c-1,0-1.7,0.2-2.2,0.7s-0.8,1-0.8,1.6c0,0.6,0.2,1,0.6,1.3
		C237.2,136.8,237.7,137,238.4,137z"/>
</g>
<g class="st1">
	<path class="st2" d="M249,137.3l2.2-0.5v-10.5l-2.4-0.5v-2.8h6.7l0.2,2.4c0.6-0.9,1.3-1.5,2.1-2c0.8-0.5,1.7-0.7,2.8-0.7
		c1.7,0,3,0.5,4,1.6c1,1.1,1.4,2.8,1.4,5v7.4l2.2,0.5v2.7h-8.7v-2.7l2-0.5v-7.3c0-1.1-0.2-1.9-0.7-2.4c-0.5-0.5-1.2-0.7-2.1-0.7
		c-0.6,0-1.1,0.1-1.6,0.4c-0.5,0.2-0.9,0.6-1.2,1v9.1l1.8,0.5v2.7H249V137.3z"/>
</g>
<g class="st1">
	<path class="st2" d="M277.1,137.3l1.6-0.2l6.9-19.8h4.7l6.9,19.8l1.6,0.2v2.7h-7.8v-2.7l1.6-0.3l-1-3.1h-7.4l-1,3.1l1.6,0.3v2.7
		h-7.8V137.3z M285.4,130.5h5.2l-2.6-8h-0.1L285.4,130.5z"/>
</g>
<g class="st1">
	<path class="st2" d="M299,125.9v-2.8h6.6l0.2,2c0.5-0.7,1.1-1.3,1.8-1.7c0.7-0.4,1.5-0.6,2.4-0.6c2.1,0,3.7,0.8,4.9,2.5
		c1.2,1.6,1.7,3.8,1.7,6.5v0.3c0,2.5-0.6,4.5-1.7,6c-1.2,1.5-2.8,2.3-4.8,2.3c-0.9,0-1.7-0.2-2.4-0.5s-1.3-0.8-1.8-1.4v4.9l2.2,0.5
		v2.8h-9v-2.8l2.2-0.5v-17L299,125.9z M312.1,131.7c0-1.6-0.3-2.9-0.8-3.9c-0.5-1-1.3-1.5-2.4-1.5c-0.7,0-1.3,0.1-1.8,0.4
		c-0.5,0.3-0.9,0.7-1.1,1.2v7.4c0.3,0.5,0.7,0.8,1.1,1.1c0.5,0.2,1.1,0.4,1.8,0.4c1.1,0,1.9-0.4,2.4-1.3c0.5-0.9,0.8-2,0.8-3.5
		V131.7z"/>
</g>
<g class="st1">
	<path class="st2" d="M317.8,125.9v-2.8h6.6l0.2,2c0.5-0.7,1.1-1.3,1.8-1.7c0.7-0.4,1.5-0.6,2.4-0.6c2.1,0,3.7,0.8,4.9,2.5
		c1.2,1.6,1.7,3.8,1.7,6.5v0.3c0,2.5-0.6,4.5-1.7,6c-1.2,1.5-2.8,2.3-4.8,2.3c-0.9,0-1.7-0.2-2.4-0.5s-1.3-0.8-1.8-1.4v4.9l2.2,0.5
		v2.8h-9v-2.8l2.2-0.5v-17L317.8,125.9z M330.9,131.7c0-1.6-0.3-2.9-0.8-3.9c-0.5-1-1.3-1.5-2.4-1.5c-0.7,0-1.3,0.1-1.8,0.4
		s-0.9,0.7-1.1,1.2v7.4c0.3,0.5,0.7,0.8,1.1,1.1s1.1,0.4,1.8,0.4c1.1,0,1.9-0.4,2.4-1.3c0.5-0.9,0.8-2,0.8-3.5V131.7z"/>
</g>
<g class="st1">
	<path class="st2" d="M337.3,131.4c0-2.5,0.7-4.6,2.1-6.2s3.4-2.4,5.9-2.4c2.5,0,4.5,0.8,5.9,2.4c1.4,1.6,2.1,3.7,2.1,6.2v0.3
		c0,2.5-0.7,4.6-2.1,6.2c-1.4,1.6-3.4,2.4-5.8,2.4c-2.5,0-4.5-0.8-5.9-2.4c-1.4-1.6-2.1-3.7-2.1-6.2V131.4z M341.9,131.8
		c0,1.5,0.3,2.8,0.8,3.7c0.5,0.9,1.4,1.4,2.6,1.4c1.2,0,2-0.5,2.6-1.4s0.8-2.2,0.8-3.7v-0.3c0-1.5-0.3-2.7-0.8-3.7
		c-0.6-0.9-1.4-1.4-2.6-1.4s-2.1,0.5-2.6,1.4c-0.5,0.9-0.8,2.2-0.8,3.7V131.8z"/>
</g>
<g class="st1">
	<path class="st2" d="M354.5,137.3l2.2-0.5v-10.5l-2.4-0.5v-2.8h7v13.7l2.2,0.5v2.7h-9V137.3z M361.3,119.1h-4.6v-3.4h4.6V119.1z"/>
</g>
<g class="st1">
	<path class="st2" d="M364.9,137.3l2.2-0.5v-10.5l-2.4-0.5v-2.8h6.7l0.2,2.4c0.6-0.9,1.3-1.5,2.1-2c0.8-0.5,1.7-0.7,2.8-0.7
		c1.7,0,3,0.5,4,1.6c1,1.1,1.4,2.8,1.4,5v7.4l2.2,0.5v2.7h-8.7v-2.7l2-0.5v-7.3c0-1.1-0.2-1.9-0.7-2.4c-0.5-0.5-1.2-0.7-2.1-0.7
		c-0.6,0-1.1,0.1-1.6,0.4c-0.5,0.2-0.9,0.6-1.2,1v9.1l1.8,0.5v2.7h-8.6V137.3z"/>
</g>
<g class="st1">
	<path class="st2" d="M391.2,119v4.1h3v3.2h-3v8.6c0,0.7,0.1,1.1,0.4,1.4s0.6,0.4,1.1,0.4c0.3,0,0.6,0,0.8,0c0.2,0,0.5-0.1,0.8-0.1
		l0.4,3.3c-0.5,0.2-1,0.3-1.5,0.4s-1,0.1-1.6,0.1c-1.6,0-2.8-0.4-3.6-1.3c-0.8-0.9-1.3-2.2-1.3-4.1v-8.6h-2.5v-3.2h2.5V119H391.2z"
		/>
</g>
<g class="st1">
	<path class="st2" d="M396,125.9v-2.8h6.7l0.2,2.2c0.5-0.8,1.2-1.4,2-1.9c0.8-0.4,1.8-0.7,2.8-0.7c1.1,0,2,0.2,2.8,0.7
		c0.8,0.5,1.4,1.2,1.8,2.2c0.5-0.9,1.2-1.6,2-2.1c0.8-0.5,1.8-0.8,2.9-0.8c1.7,0,3,0.6,3.9,1.7c1,1.2,1.4,2.9,1.4,5.3v7l2.2,0.5v2.7
		h-8.7v-2.7l2-0.5v-7c0-1.3-0.2-2.2-0.6-2.7c-0.4-0.5-1-0.8-1.9-0.8c-0.6,0-1.2,0.1-1.7,0.4c-0.5,0.3-0.9,0.7-1.1,1.2
		c0,0.2,0,0.4,0,0.5c0,0.1,0,0.3,0,0.4v7.9l1.8,0.5v2.7h-8.2v-2.7l1.8-0.5v-7c0-1.2-0.2-2.1-0.6-2.6c-0.4-0.5-1-0.8-1.9-0.8
		c-0.6,0-1.2,0.1-1.6,0.4c-0.5,0.2-0.8,0.6-1.1,1v9.1l2,0.5v2.7h-8.7v-2.7l2.2-0.5v-10.5L396,125.9z"/>
</g>
<g class="st1">
	<path class="st2" d="M433.8,140.4c-2.4,0-4.4-0.8-5.8-2.3s-2.2-3.5-2.2-6v-0.6c0-2.5,0.7-4.6,2.1-6.2s3.2-2.4,5.6-2.4
		c2.3,0,4.1,0.7,5.3,2.1s1.9,3.2,1.9,5.6v2.5h-10.1l0,0.1c0.1,1.1,0.5,2,1.1,2.8s1.6,1.1,2.7,1.1c1,0,1.8-0.1,2.5-0.3s1.4-0.5,2.2-1
		l1.2,2.8c-0.7,0.6-1.6,1-2.7,1.4S435.1,140.4,433.8,140.4z M433.4,126.3c-0.8,0-1.5,0.3-2,1c-0.5,0.6-0.8,1.5-0.9,2.5l0,0.1h5.6
		v-0.4c0-1-0.2-1.7-0.7-2.3S434.3,126.3,433.4,126.3z"/>
</g>
<g class="st1">
	<path class="st2" d="M442.1,137.3l2.2-0.5v-10.5l-2.4-0.5v-2.8h6.7l0.2,2.4c0.6-0.9,1.3-1.5,2.1-2c0.8-0.5,1.7-0.7,2.8-0.7
		c1.7,0,3,0.5,4,1.6c1,1.1,1.4,2.8,1.4,5v7.4l2.2,0.5v2.7h-8.7v-2.7l2-0.5v-7.3c0-1.1-0.2-1.9-0.7-2.4c-0.5-0.5-1.2-0.7-2.1-0.7
		c-0.6,0-1.1,0.1-1.6,0.4c-0.5,0.2-0.9,0.6-1.2,1v9.1l1.8,0.5v2.7h-8.6V137.3z"/>
</g>
<g class="st1">
	<path class="st2" d="M468.4,119v4.1h3v3.2h-3v8.6c0,0.7,0.1,1.1,0.4,1.4s0.6,0.4,1.1,0.4c0.3,0,0.6,0,0.8,0c0.2,0,0.5-0.1,0.8-0.1
		l0.4,3.3c-0.5,0.2-1,0.3-1.5,0.4s-1,0.1-1.6,0.1c-1.6,0-2.8-0.4-3.6-1.3c-0.8-0.9-1.3-2.2-1.3-4.1v-8.6h-2.5v-3.2h2.5V119H468.4z"
		/>
</g>
<g class="st1">
	<path class="st2" d="M149,179V177h7.1v2.1l-1.8,0.4v12.2l1.8,0.4v2.1H149V192l1.8-0.4v-12.2L149,179z"/>
</g>
<g class="st1">
	<path class="st2" d="M157.5,192l1.7-0.4v-7.9h-1.9v-2.4h1.9V180c0-1.4,0.4-2.5,1.2-3.3s2-1.2,3.5-1.2c0.3,0,0.6,0,0.9,0.1
		s0.6,0.1,1,0.2l-0.3,2.5c-0.2,0-0.4-0.1-0.5-0.1s-0.4,0-0.6,0c-0.6,0-1,0.2-1.3,0.5s-0.4,0.7-0.4,1.3v1.4h2.5v2.4h-2.5v7.9l1.7,0.4
		v2.1h-6.7V192z"/>
</g>
<g class="st1">
	<path class="st2" d="M185.3,183.4l-1.2,0.2l-4.7,12.3c-0.4,0.9-0.9,1.7-1.5,2.3s-1.5,0.9-2.8,0.9c-0.3,0-0.6,0-0.8-0.1
		s-0.6-0.1-0.9-0.2l0.4-2.5c0.1,0,0.2,0,0.3,0s0.2,0,0.3,0c0.6,0,1-0.1,1.3-0.4s0.5-0.6,0.7-1l0.4-1l-4-10.4l-1.2-0.2v-2.1h6.2v2.1
		l-1.4,0.2l1.7,5.1l0.2,0.9l0.1,0l2-6l-1.4-0.2v-2.1h6.2V183.4z"/>
</g>
<g class="st1">
	<path class="st2" d="M185.9,187.6c0-1.9,0.5-3.4,1.6-4.6s2.5-1.8,4.4-1.8c1.9,0,3.3,0.6,4.4,1.8s1.6,2.8,1.6,4.7v0.2
		c0,1.9-0.5,3.5-1.6,4.7s-2.5,1.8-4.4,1.8c-1.9,0-3.4-0.6-4.4-1.8s-1.6-2.8-1.6-4.7V187.6z M189.4,187.8c0,1.2,0.2,2.1,0.6,2.8
		s1.1,1,2,1c0.9,0,1.5-0.4,1.9-1.1s0.6-1.6,0.6-2.8v-0.2c0-1.1-0.2-2-0.6-2.8s-1.1-1.1-2-1.1s-1.5,0.4-1.9,1.1s-0.6,1.6-0.6,2.8
		V187.8z"/>
</g>
<g class="st1">
	<path class="st2" d="M207.9,192.4c-0.4,0.6-0.9,1.1-1.5,1.4s-1.3,0.5-2,0.5c-1.3,0-2.4-0.4-3.1-1.3s-1.1-2.2-1.1-4v-5.2l-1.4-0.4
		v-2.1h1.4h3.4v7.7c0,0.9,0.2,1.6,0.5,2s0.8,0.6,1.4,0.6c0.5,0,1-0.1,1.4-0.3s0.7-0.4,1-0.8v-6.8l-1.5-0.4v-2.1h1.5h3.4v10.3
		l1.5,0.4v2.1h-4.5L207.9,192.4z"/>
</g>
<g class="st1">
	<path class="st2" d="M228,194c-0.1-0.2-0.2-0.4-0.2-0.7s-0.1-0.4-0.2-0.7c-0.4,0.5-0.9,0.8-1.5,1.1s-1.2,0.4-2,0.4
		c-1.2,0-2.2-0.3-3-1s-1.1-1.6-1.1-2.8c0-1.2,0.5-2.1,1.4-2.8s2.4-1,4.2-1h1.7v-1.2c0-0.6-0.2-1.1-0.5-1.4s-0.9-0.5-1.6-0.5
		c-0.4,0-0.7,0-1,0.1s-0.6,0.2-0.7,0.3l-0.2,1.4h-2.6l0-2.8c0.6-0.4,1.3-0.8,2.2-1.1s1.7-0.4,2.6-0.4c1.6,0,2.8,0.4,3.8,1.2
		s1.5,1.9,1.5,3.3v5.2c0,0.2,0,0.4,0,0.6s0,0.3,0,0.5l1,0.1v2.1H228z M225,191.8c0.5,0,1-0.1,1.4-0.3s0.8-0.5,1-0.8v-1.9h-1.7
		c-0.7,0-1.3,0.2-1.7,0.5s-0.6,0.7-0.6,1.2c0,0.4,0.1,0.8,0.4,1S224.5,191.8,225,191.8z"/>
</g>
<g class="st1">
	<path class="st2" d="M233.3,192l1.6-0.4v-7.9l-1.8-0.4v-2.1h5l0.2,1.9c0.3-0.7,0.7-1.2,1.1-1.5s1-0.6,1.6-0.6c0.2,0,0.4,0,0.6,0
		s0.4,0.1,0.5,0.1l-0.4,3.1l-1.4,0c-0.5,0-0.9,0.1-1.2,0.3s-0.6,0.5-0.8,0.8v6.2l1.6,0.4v2.1h-6.7V192z"/>
</g>
<g class="st1">
	<path class="st2" d="M248.9,194.3c-1.8,0-3.3-0.6-4.4-1.8s-1.6-2.7-1.6-4.5v-0.5c0-1.9,0.5-3.4,1.6-4.7s2.4-1.8,4.2-1.8
		c1.7,0,3,0.5,4,1.5s1.4,2.4,1.4,4.2v1.9h-7.6l0,0.1c0.1,0.8,0.3,1.5,0.8,2.1s1.2,0.8,2,0.8c0.8,0,1.4-0.1,1.9-0.2s1-0.4,1.6-0.7
		l0.9,2.1c-0.5,0.4-1.2,0.8-2,1S249.9,194.3,248.9,194.3z M248.6,183.8c-0.6,0-1.1,0.2-1.5,0.7s-0.6,1.1-0.7,1.9l0,0.1h4.2v-0.3
		c0-0.7-0.2-1.3-0.5-1.7S249.3,183.8,248.6,183.8z"/>
</g>
<g class="st1">
	<path class="st2" d="M271.8,185.7h-2.3l-0.4-1.6c-0.2-0.2-0.5-0.3-0.9-0.5s-0.7-0.2-1.2-0.2c-0.6,0-1.1,0.1-1.4,0.4s-0.5,0.6-0.5,1
		c0,0.4,0.2,0.7,0.5,1s1,0.5,2,0.7c1.6,0.3,2.7,0.8,3.5,1.4s1.1,1.4,1.1,2.5c0,1.1-0.5,2.1-1.5,2.8s-2.3,1.1-3.9,1.1
		c-1,0-1.9-0.1-2.7-0.4s-1.5-0.7-2.2-1.2l0-2.8h2.4l0.5,1.7c0.2,0.2,0.5,0.3,0.8,0.4s0.7,0.1,1.1,0.1c0.7,0,1.2-0.1,1.6-0.4
		s0.5-0.6,0.5-1c0-0.4-0.2-0.7-0.6-1s-1-0.5-2-0.7c-1.5-0.3-2.6-0.8-3.4-1.4s-1.1-1.4-1.1-2.4c0-1.1,0.4-2,1.3-2.7s2.1-1.2,3.7-1.2
		c1,0,1.9,0.1,2.8,0.4s1.6,0.6,2.1,1L271.8,185.7z"/>
</g>
<g class="st1">
	<path class="st2" d="M279.7,194.3c-1.8,0-3.3-0.6-4.4-1.8s-1.6-2.7-1.6-4.5v-0.5c0-1.9,0.5-3.4,1.6-4.7s2.4-1.8,4.2-1.8
		c1.7,0,3,0.5,4,1.5s1.4,2.4,1.4,4.2v1.9h-7.6l0,0.1c0.1,0.8,0.3,1.5,0.8,2.1s1.2,0.8,2,0.8c0.8,0,1.4-0.1,1.9-0.2s1-0.4,1.6-0.7
		l0.9,2.1c-0.5,0.4-1.2,0.8-2,1S280.7,194.3,279.7,194.3z M279.4,183.8c-0.6,0-1.1,0.2-1.5,0.7s-0.6,1.1-0.7,1.9l0,0.1h4.2v-0.3
		c0-0.7-0.2-1.3-0.5-1.7S280.1,183.8,279.4,183.8z"/>
</g>
<g class="st1">
	<path class="st2" d="M286,192l1.2-0.2l3.4-4.2l-3.3-4l-1.2-0.2v-2.1h5.7v2l-1.2,0.1l1.9,2.4l1.9-2.4l-1.2-0.1v-2h5.7v2.1l-1.1,0.2
		l-3.3,4l3.4,4.2l1.2,0.2v2.1h-5.8v-2l1.2-0.1l-2-2.6l-2,2.6l1,0.1v2H286V192z"/>
</g>
<g class="st1">
	<path class="st2" d="M309.3,192.4c-0.4,0.6-0.9,1.1-1.5,1.4s-1.3,0.5-2,0.5c-1.3,0-2.4-0.4-3.1-1.3s-1.1-2.2-1.1-4v-5.2l-1.4-0.4
		v-2.1h1.4h3.4v7.7c0,0.9,0.2,1.6,0.5,2s0.8,0.6,1.4,0.6c0.5,0,1-0.1,1.4-0.3s0.7-0.4,1-0.8v-6.8l-1.5-0.4v-2.1h1.5h3.4v10.3
		l1.5,0.4v2.1h-4.5L309.3,192.4z"/>
</g>
<g class="st1">
	<path class="st2" d="M323.4,194c-0.1-0.2-0.2-0.4-0.2-0.7s-0.1-0.4-0.2-0.7c-0.4,0.5-0.9,0.8-1.5,1.1s-1.2,0.4-2,0.4
		c-1.2,0-2.2-0.3-3-1s-1.1-1.6-1.1-2.8c0-1.2,0.5-2.1,1.4-2.8s2.4-1,4.2-1h1.7v-1.2c0-0.6-0.2-1.1-0.5-1.4s-0.9-0.5-1.6-0.5
		c-0.4,0-0.7,0-1,0.1s-0.6,0.2-0.7,0.3l-0.2,1.4h-2.6l0-2.8c0.6-0.4,1.3-0.8,2.2-1.1s1.7-0.4,2.6-0.4c1.6,0,2.8,0.4,3.8,1.2
		s1.5,1.9,1.5,3.3v5.2c0,0.2,0,0.4,0,0.6s0,0.3,0,0.5l1,0.1v2.1H323.4z M320.4,191.8c0.5,0,1-0.1,1.4-0.3s0.8-0.5,1-0.8v-1.9H321
		c-0.7,0-1.3,0.2-1.7,0.5s-0.6,0.7-0.6,1.2c0,0.4,0.1,0.8,0.4,1S319.9,191.8,320.4,191.8z"/>
</g>
<g class="st1">
	<path class="st2" d="M328.3,177.8v-2.1h5.2v15.9l1.7,0.4v2.1h-6.7V192l1.7-0.4v-13.5L328.3,177.8z"/>
</g>
<g class="st1">
	<path class="st2" d="M336.1,177.8v-2.1h5.2v15.9l1.7,0.4v2.1h-6.7V192l1.7-0.4v-13.5L336.1,177.8z"/>
</g>
<g class="st1">
	<path class="st2" d="M356.8,183.4l-1.2,0.2l-4.7,12.3c-0.4,0.9-0.9,1.7-1.5,2.3s-1.5,0.9-2.8,0.9c-0.3,0-0.6,0-0.8-0.1
		s-0.6-0.1-0.9-0.2l0.4-2.5c0.1,0,0.2,0,0.3,0s0.2,0,0.3,0c0.6,0,1-0.1,1.3-0.4s0.5-0.6,0.7-1l0.4-1l-4-10.4l-1.2-0.2v-2.1h6.2v2.1
		l-1.4,0.2l1.7,5.1l0.2,0.9l0.1,0l2-6l-1.4-0.2v-2.1h6.2V183.4z"/>
</g>
<g class="st1">
	<path class="st2" d="M371.8,194c-0.1-0.2-0.2-0.4-0.2-0.7s-0.1-0.4-0.2-0.7c-0.4,0.5-0.9,0.8-1.5,1.1s-1.2,0.4-2,0.4
		c-1.2,0-2.2-0.3-3-1s-1.1-1.6-1.1-2.8c0-1.2,0.5-2.1,1.4-2.8s2.4-1,4.2-1h1.7v-1.2c0-0.6-0.2-1.1-0.5-1.4s-0.9-0.5-1.6-0.5
		c-0.4,0-0.7,0-1,0.1s-0.6,0.2-0.7,0.3l-0.2,1.4h-2.6l0-2.8c0.6-0.4,1.3-0.8,2.2-1.1s1.7-0.4,2.6-0.4c1.6,0,2.8,0.4,3.8,1.2
		s1.5,1.9,1.5,3.3v5.2c0,0.2,0,0.4,0,0.6s0,0.3,0,0.5l1,0.1v2.1H371.8z M368.8,191.8c0.5,0,1-0.1,1.4-0.3s0.8-0.5,1-0.8v-1.9h-1.7
		c-0.7,0-1.3,0.2-1.7,0.5s-0.6,0.7-0.6,1.2c0,0.4,0.1,0.8,0.4,1S368.3,191.8,368.8,191.8z"/>
</g>
<g class="st1">
	<path class="st2" d="M382.6,191.7c0.6,0,1.1-0.2,1.5-0.5s0.6-0.8,0.6-1.4h3.1l0,0.1c0,1.3-0.4,2.4-1.4,3.2s-2.2,1.3-3.7,1.3
		c-1.9,0-3.3-0.6-4.4-1.8s-1.5-2.7-1.5-4.6v-0.4c0-1.9,0.5-3.4,1.6-4.6s2.5-1.8,4.5-1.8c1,0,1.9,0.2,2.8,0.5s1.5,0.7,2,1.3l0,3.4
		h-2.8l-0.6-2c-0.2-0.1-0.4-0.3-0.6-0.4s-0.5-0.1-0.9-0.1c-1,0-1.7,0.4-2.1,1.1s-0.6,1.6-0.6,2.7v0.4c0,1.1,0.2,2,0.6,2.7
		S381.7,191.7,382.6,191.7z"/>
</g>
<g class="st1">
	<path class="st2" d="M394.2,178.3v3.1h2.2v2.4h-2.2v6.5c0,0.5,0.1,0.8,0.3,1.1s0.5,0.3,0.8,0.3c0.2,0,0.4,0,0.6,0s0.4-0.1,0.6-0.1
		l0.3,2.5c-0.4,0.1-0.8,0.2-1.1,0.3s-0.8,0.1-1.2,0.1c-1.2,0-2.1-0.3-2.7-1s-1-1.7-1-3.1v-6.5H389v-2.4h1.9v-3.1H394.2z"/>
</g>
<g class="st1">
	<path class="st2" d="M398.1,192l1.7-0.4v-7.9l-1.8-0.4v-2.1h5.2v10.3l1.6,0.4v2.1h-6.7V192z M403.2,178.3h-3.4v-2.6h3.4V178.3z"/>
</g>
<g class="st1">
	<path class="st2" d="M410.8,183.4l-1.2,0.2l1.7,5.7l0.2,1.2h0.1l0.2-1.2l1.7-5.7l-1.2-0.2v-2.1h5.8v2.1l-1.1,0.2l-3.7,10.4h-3.3
		l-3.8-10.4l-1.1-0.2v-2.1h5.8V183.4z"/>
</g>
<g class="st1">
	<path class="st2" d="M424.7,194.3c-1.8,0-3.3-0.6-4.4-1.8s-1.6-2.7-1.6-4.5v-0.5c0-1.9,0.5-3.4,1.6-4.7s2.4-1.8,4.2-1.8
		c1.7,0,3,0.5,4,1.5s1.4,2.4,1.4,4.2v1.9h-7.6l0,0.1c0.1,0.8,0.3,1.5,0.8,2.1s1.2,0.8,2,0.8c0.8,0,1.4-0.1,1.9-0.2s1-0.4,1.6-0.7
		l0.9,2.1c-0.5,0.4-1.2,0.8-2,1S425.8,194.3,424.7,194.3z M424.4,183.8c-0.6,0-1.1,0.2-1.5,0.7s-0.6,1.1-0.7,1.9l0,0.1h4.2v-0.3
		c0-0.7-0.2-1.3-0.5-1.7S425.1,183.8,424.4,183.8z"/>
</g>
<g class="st1">
	<path class="st2" d="M435,193.6c0,0.8-0.2,1.6-0.7,2.5s-1,1.6-1.6,2.2l-1.7-0.9c0.3-0.5,0.5-1.1,0.7-1.7s0.2-1.2,0.2-2v-2.6h3.1
		L435,193.6z"/>
</g>
<g class="st1">
	<path class="st2" d="M135.2,223.1c-1.8,0-3.3-0.6-4.4-1.8s-1.6-2.7-1.6-4.5v-0.5c0-1.9,0.5-3.4,1.6-4.7s2.4-1.8,4.2-1.8
		c1.7,0,3,0.5,4,1.5s1.4,2.4,1.4,4.2v1.9h-7.6l0,0.1c0.1,0.8,0.3,1.5,0.8,2.1s1.2,0.8,2,0.8c0.8,0,1.4-0.1,1.9-0.2s1-0.4,1.6-0.7
		l0.9,2.1c-0.5,0.4-1.2,0.8-2,1S136.2,223.1,135.2,223.1z M134.9,212.6c-0.6,0-1.1,0.2-1.5,0.7s-0.6,1.1-0.7,1.9l0,0.1h4.2V215
		c0-0.7-0.2-1.3-0.5-1.7S135.6,212.6,134.9,212.6z"/>
</g>
<g class="st1">
	<path class="st2" d="M151.9,214.5h-2.3l-0.4-1.6c-0.2-0.2-0.5-0.3-0.9-0.5s-0.7-0.2-1.2-0.2c-0.6,0-1.1,0.1-1.4,0.4s-0.5,0.6-0.5,1
		c0,0.4,0.2,0.7,0.5,1s1,0.5,2,0.7c1.6,0.3,2.7,0.8,3.5,1.4s1.1,1.4,1.1,2.5c0,1.1-0.5,2.1-1.5,2.8s-2.3,1.1-3.9,1.1
		c-1,0-1.9-0.1-2.7-0.4s-1.5-0.7-2.2-1.2l0-2.8h2.4l0.5,1.7c0.2,0.2,0.5,0.3,0.8,0.4s0.7,0.1,1.1,0.1c0.7,0,1.2-0.1,1.6-0.4
		s0.5-0.6,0.5-1c0-0.4-0.2-0.7-0.6-1s-1-0.5-2-0.7c-1.5-0.3-2.6-0.8-3.4-1.4s-1.1-1.4-1.1-2.4c0-1.1,0.4-2,1.3-2.7s2.1-1.2,3.7-1.2
		c1,0,1.9,0.1,2.8,0.4s1.6,0.6,2.1,1L151.9,214.5z"/>
</g>
<g class="st1">
	<path class="st2" d="M153.4,212.2v-2.1h5l0.2,1.5c0.4-0.5,0.8-1,1.3-1.3s1.1-0.4,1.8-0.4c1.6,0,2.8,0.6,3.7,1.8s1.3,2.8,1.3,4.8
		v0.2c0,1.9-0.4,3.4-1.3,4.5s-2.1,1.7-3.6,1.7c-0.7,0-1.3-0.1-1.8-0.4s-1-0.6-1.3-1.1v3.7l1.7,0.4v2.1h-6.7v-2.1l1.7-0.4v-12.7
		L153.4,212.2z M163.3,216.6c0-1.2-0.2-2.2-0.6-2.9s-1-1.1-1.8-1.1c-0.5,0-1,0.1-1.3,0.3s-0.7,0.5-0.9,0.9v5.6
		c0.2,0.4,0.5,0.6,0.9,0.8s0.8,0.3,1.3,0.3c0.8,0,1.4-0.3,1.8-1s0.6-1.5,0.6-2.6V216.6z"/>
</g>
<g class="st1">
	<path class="st2" d="M174.2,223.1c-1.8,0-3.3-0.6-4.4-1.8s-1.6-2.7-1.6-4.5v-0.5c0-1.9,0.5-3.4,1.6-4.7s2.4-1.8,4.2-1.8
		c1.7,0,3,0.5,4,1.5s1.4,2.4,1.4,4.2v1.9h-7.6l0,0.1c0.1,0.8,0.3,1.5,0.8,2.1s1.2,0.8,2,0.8c0.8,0,1.4-0.1,1.9-0.2s1-0.4,1.6-0.7
		l0.9,2.1c-0.5,0.4-1.2,0.8-2,1S175.2,223.1,174.2,223.1z M173.9,212.6c-0.6,0-1.1,0.2-1.5,0.7s-0.6,1.1-0.7,1.9l0,0.1h4.2V215
		c0-0.7-0.2-1.3-0.5-1.7S174.6,212.6,173.9,212.6z"/>
</g>
<g class="st1">
	<path class="st2" d="M186.8,220.5c0.6,0,1.1-0.2,1.5-0.5s0.6-0.8,0.6-1.4h3.1l0,0.1c0,1.3-0.4,2.4-1.4,3.2s-2.2,1.3-3.7,1.3
		c-1.9,0-3.3-0.6-4.4-1.8s-1.5-2.7-1.5-4.6v-0.4c0-1.9,0.5-3.4,1.6-4.6s2.5-1.8,4.5-1.8c1,0,1.9,0.2,2.8,0.5s1.5,0.7,2,1.3l0,3.4
		H189l-0.6-2c-0.2-0.1-0.4-0.3-0.6-0.4s-0.5-0.1-0.9-0.1c-1,0-1.7,0.4-2.1,1.1s-0.6,1.6-0.6,2.7v0.4c0,1.1,0.2,2,0.6,2.7
		S185.8,220.5,186.8,220.5z"/>
</g>
<g class="st1">
	<path class="st2" d="M193.3,220.8l1.7-0.4v-7.9l-1.8-0.4v-2.1h5.2v10.3l1.6,0.4v2.1h-6.7V220.8z M198.3,207.1h-3.4v-2.6h3.4V207.1z
		"/>
</g>
<g class="st1">
	<path class="st2" d="M209.2,222.8c-0.1-0.2-0.2-0.4-0.2-0.7s-0.1-0.4-0.2-0.7c-0.4,0.5-0.9,0.8-1.5,1.1s-1.2,0.4-2,0.4
		c-1.2,0-2.2-0.3-3-1s-1.1-1.6-1.1-2.8c0-1.2,0.5-2.1,1.4-2.8s2.4-1,4.2-1h1.7v-1.2c0-0.6-0.2-1.1-0.5-1.4s-0.9-0.5-1.6-0.5
		c-0.4,0-0.7,0-1,0.1s-0.6,0.2-0.7,0.3l-0.2,1.4h-2.6l0-2.8c0.6-0.4,1.3-0.8,2.2-1.1s1.7-0.4,2.6-0.4c1.6,0,2.8,0.4,3.8,1.2
		s1.5,1.9,1.5,3.3v5.2c0,0.2,0,0.4,0,0.6s0,0.3,0,0.5l1,0.1v2.1H209.2z M206.2,220.6c0.5,0,1-0.1,1.4-0.3s0.8-0.5,1-0.8v-1.9h-1.7
		c-0.7,0-1.3,0.2-1.7,0.5s-0.6,0.7-0.6,1.2c0,0.4,0.1,0.8,0.4,1S205.7,220.6,206.2,220.6z"/>
</g>
<g class="st1">
	<path class="st2" d="M214.1,206.6v-2.1h5.2v15.9l1.7,0.4v2.1h-6.7v-2.1l1.7-0.4V207L214.1,206.6z"/>
</g>
<g class="st1">
	<path class="st2" d="M221.9,206.6v-2.1h5.2v15.9l1.7,0.4v2.1h-6.7v-2.1l1.7-0.4V207L221.9,206.6z"/>
</g>
<g class="st1">
	<path class="st2" d="M242.5,212.2l-1.2,0.2l-4.7,12.3c-0.4,0.9-0.9,1.7-1.5,2.3s-1.5,0.9-2.8,0.9c-0.3,0-0.6,0-0.8-0.1
		s-0.6-0.1-0.9-0.2l0.4-2.5c0.1,0,0.2,0,0.3,0s0.2,0,0.3,0c0.6,0,1-0.1,1.3-0.4s0.5-0.6,0.7-1l0.4-1l-4-10.4l-1.2-0.2v-2.1h6.2v2.1
		l-1.4,0.2l1.7,5.1l0.2,0.9l0.1,0l2-6l-1.4-0.2v-2.1h6.2V212.2z"/>
</g>
<g class="st1">
	<path class="st2" d="M267.6,212.2l-1.3,0.2l-2.6,10.5h-2.9l-2.4-7.5h-0.1l-2.4,7.5h-2.8l-2.7-10.5l-1.3-0.2v-2.1h5.7v2.1l-1.3,0.3
		l1.2,5.8h0.1l2.4-8.1h2.3l2.4,8.1h0.1l1.2-5.8l-1.4-0.3v-2.1h5.7V212.2z"/>
</g>
<g class="st1">
	<path class="st2" d="M268.9,220.8l1.7-0.4v-7.9l-1.8-0.4v-2.1h5.2v10.3l1.6,0.4v2.1h-6.7V220.8z M273.9,207.1h-3.4v-2.6h3.4V207.1z
		"/>
</g>
<g class="st1">
	<path class="st2" d="M281.1,207.1v3.1h2.2v2.4h-2.2v6.5c0,0.5,0.1,0.8,0.3,1.1s0.5,0.3,0.8,0.3c0.2,0,0.4,0,0.6,0s0.4-0.1,0.6-0.1
		l0.3,2.5c-0.4,0.1-0.8,0.2-1.1,0.3s-0.8,0.1-1.2,0.1c-1.2,0-2.1-0.3-2.7-1s-1-1.7-1-3.1v-6.5h-1.9v-2.4h1.9v-3.1H281.1z"/>
</g>
<g class="st1">
	<path class="st2" d="M285,220.8l1.7-0.4V207l-1.8-0.4v-2.1h5.2v7.2c0.4-0.6,0.9-1,1.5-1.4s1.2-0.5,1.9-0.5c1.3,0,2.4,0.4,3.1,1.3
		s1.1,2.2,1.1,4.1v5.1l1.6,0.4v2.1h-6.5v-2.1l1.5-0.4v-5.1c0-1-0.2-1.7-0.5-2.1s-0.9-0.6-1.6-0.6c-0.5,0-0.9,0.1-1.2,0.3
		s-0.7,0.4-0.9,0.7v6.9l1.5,0.4v2.1H285V220.8z"/>
</g>
<g class="st1">
	<path class="st2" d="M305.9,212.2v-2.1h5l0.1,1.7c0.4-0.6,0.9-1.1,1.5-1.4s1.3-0.5,2.1-0.5c0.8,0,1.5,0.2,2.1,0.5s1,0.9,1.3,1.6
		c0.4-0.7,0.9-1.2,1.5-1.6s1.4-0.6,2.2-0.6c1.2,0,2.2,0.4,3,1.3s1.1,2.2,1.1,3.9v5.3l1.7,0.4v2.1H321v-2.1l1.5-0.4v-5.3
		c0-1-0.2-1.6-0.5-2s-0.8-0.6-1.4-0.6c-0.5,0-0.9,0.1-1.3,0.3s-0.6,0.5-0.8,0.9c0,0.1,0,0.3,0,0.4s0,0.2,0,0.3v5.9l1.4,0.4v2.1h-6.2
		v-2.1l1.4-0.4v-5.3c0-0.9-0.2-1.6-0.5-2s-0.8-0.6-1.4-0.6c-0.5,0-0.9,0.1-1.2,0.3s-0.6,0.4-0.9,0.7v6.8l1.5,0.4v2.1h-6.5v-2.1
		l1.7-0.4v-7.9L305.9,212.2z"/>
</g>
<g class="st1">
	<path class="st2" d="M328.2,216.4c0-1.9,0.5-3.4,1.6-4.6s2.5-1.8,4.4-1.8c1.9,0,3.3,0.6,4.4,1.8s1.6,2.8,1.6,4.7v0.2
		c0,1.9-0.5,3.5-1.6,4.7s-2.5,1.8-4.4,1.8c-1.9,0-3.4-0.6-4.4-1.8s-1.6-2.8-1.6-4.7V216.4z M331.7,216.6c0,1.2,0.2,2.1,0.6,2.8
		s1.1,1,2,1c0.9,0,1.5-0.4,1.9-1.1s0.6-1.6,0.6-2.8v-0.2c0-1.1-0.2-2-0.6-2.8s-1.1-1.1-2-1.1s-1.5,0.4-1.9,1.1s-0.6,1.6-0.6,2.8
		V216.6z"/>
</g>
<g class="st1">
	<path class="st2" d="M341.4,220.8l1.6-0.4v-7.9l-1.8-0.4v-2.1h5l0.2,1.9c0.3-0.7,0.7-1.2,1.1-1.5s1-0.6,1.6-0.6c0.2,0,0.4,0,0.6,0
		s0.4,0.1,0.5,0.1l-0.4,3.1l-1.4,0c-0.5,0-0.9,0.1-1.2,0.3s-0.6,0.5-0.8,0.8v6.2l1.6,0.4v2.1h-6.7V220.8z"/>
</g>
<g class="st1">
	<path class="st2" d="M357,223.1c-1.8,0-3.3-0.6-4.4-1.8s-1.6-2.7-1.6-4.5v-0.5c0-1.9,0.5-3.4,1.6-4.7s2.4-1.8,4.2-1.8
		c1.7,0,3,0.5,4,1.5s1.4,2.4,1.4,4.2v1.9h-7.6l0,0.1c0.1,0.8,0.3,1.5,0.8,2.1s1.2,0.8,2,0.8c0.8,0,1.4-0.1,1.9-0.2s1-0.4,1.6-0.7
		l0.9,2.1c-0.5,0.4-1.2,0.8-2,1S358,223.1,357,223.1z M356.7,212.6c-0.6,0-1.1,0.2-1.5,0.7s-0.6,1.1-0.7,1.9l0,0.1h4.2V215
		c0-0.7-0.2-1.3-0.5-1.7S357.4,212.6,356.7,212.6z"/>
</g>
<g class="st1">
	<path class="st2" d="M374.6,207.1v3.1h2.2v2.4h-2.2v6.5c0,0.5,0.1,0.8,0.3,1.1s0.5,0.3,0.8,0.3c0.2,0,0.4,0,0.6,0s0.4-0.1,0.6-0.1
		l0.3,2.5c-0.4,0.1-0.8,0.2-1.1,0.3s-0.8,0.1-1.2,0.1c-1.2,0-2.1-0.3-2.7-1s-1-1.7-1-3.1v-6.5h-1.9v-2.4h1.9v-3.1H374.6z"/>
</g>
<g class="st1">
	<path class="st2" d="M378.4,220.8l1.7-0.4V207l-1.8-0.4v-2.1h5.2v7.2c0.4-0.6,0.9-1,1.5-1.4s1.2-0.5,1.9-0.5c1.3,0,2.4,0.4,3.1,1.3
		s1.1,2.2,1.1,4.1v5.1l1.6,0.4v2.1h-6.5v-2.1l1.5-0.4v-5.1c0-1-0.2-1.7-0.5-2.1s-0.9-0.6-1.6-0.6c-0.5,0-0.9,0.1-1.2,0.3
		s-0.7,0.4-0.9,0.7v6.9l1.5,0.4v2.1h-6.5V220.8z"/>
</g>
<g class="st1">
	<path class="st2" d="M401.9,222.8c-0.1-0.2-0.2-0.4-0.2-0.7s-0.1-0.4-0.2-0.7c-0.4,0.5-0.9,0.8-1.5,1.1s-1.2,0.4-2,0.4
		c-1.2,0-2.2-0.3-3-1s-1.1-1.6-1.1-2.8c0-1.2,0.5-2.1,1.4-2.8s2.4-1,4.2-1h1.7v-1.2c0-0.6-0.2-1.1-0.5-1.4s-0.9-0.5-1.6-0.5
		c-0.4,0-0.7,0-1,0.1s-0.6,0.2-0.7,0.3l-0.2,1.4h-2.6l0-2.8c0.6-0.4,1.3-0.8,2.2-1.1s1.7-0.4,2.6-0.4c1.6,0,2.8,0.4,3.8,1.2
		s1.5,1.9,1.5,3.3v5.2c0,0.2,0,0.4,0,0.6s0,0.3,0,0.5l1,0.1v2.1H401.9z M399,220.6c0.5,0,1-0.1,1.4-0.3s0.8-0.5,1-0.8v-1.9h-1.7
		c-0.7,0-1.3,0.2-1.7,0.5s-0.6,0.7-0.6,1.2c0,0.4,0.1,0.8,0.4,1S398.5,220.6,399,220.6z"/>
</g>
<g class="st1">
	<path class="st2" d="M407,220.8l1.6-0.4v-7.9l-1.8-0.4v-2.1h5l0.2,1.8c0.4-0.6,0.9-1.2,1.6-1.5s1.3-0.5,2.1-0.5
		c1.3,0,2.3,0.4,3,1.2s1.1,2.1,1.1,3.8v5.5l1.6,0.4v2.1h-6.5v-2.1l1.5-0.4v-5.5c0-0.9-0.2-1.5-0.5-1.8s-0.9-0.5-1.6-0.5
		c-0.5,0-0.9,0.1-1.2,0.3s-0.7,0.4-0.9,0.8v6.8l1.4,0.4v2.1H407V220.8z"/>
</g>
<g class="st1">
	<path class="st2" d="M428.3,216.4c0-1.9,0.5-3.4,1.6-4.6s2.5-1.8,4.4-1.8c1.9,0,3.3,0.6,4.4,1.8s1.6,2.8,1.6,4.7v0.2
		c0,1.9-0.5,3.5-1.6,4.7s-2.5,1.8-4.4,1.8c-1.9,0-3.4-0.6-4.4-1.8s-1.6-2.8-1.6-4.7V216.4z M431.8,216.6c0,1.2,0.2,2.1,0.6,2.8
		s1.1,1,2,1c0.9,0,1.5-0.4,1.9-1.1s0.6-1.6,0.6-2.8v-0.2c0-1.1-0.2-2-0.6-2.8s-1.1-1.1-2-1.1s-1.5,0.4-1.9,1.1s-0.6,1.6-0.6,2.8
		V216.6z"/>
</g>
<g class="st1">
	<path class="st2" d="M441.3,220.8l1.6-0.4v-7.9l-1.8-0.4v-2.1h5l0.2,1.8c0.4-0.6,0.9-1.2,1.6-1.5s1.3-0.5,2.1-0.5
		c1.3,0,2.3,0.4,3,1.2s1.1,2.1,1.1,3.8v5.5l1.6,0.4v2.1h-6.5v-2.1l1.5-0.4v-5.5c0-0.9-0.2-1.5-0.5-1.8s-0.9-0.5-1.6-0.5
		c-0.5,0-0.9,0.1-1.2,0.3s-0.7,0.4-0.9,0.8v6.8l1.4,0.4v2.1h-6.4V220.8z"/>
</g>
<g class="st1">
	<path class="st2" d="M462.4,223.1c-1.8,0-3.3-0.6-4.4-1.8s-1.6-2.7-1.6-4.5v-0.5c0-1.9,0.5-3.4,1.6-4.7s2.4-1.8,4.2-1.8
		c1.7,0,3,0.5,4,1.5s1.4,2.4,1.4,4.2v1.9h-7.6l0,0.1c0.1,0.8,0.3,1.5,0.8,2.1s1.2,0.8,2,0.8c0.8,0,1.4-0.1,1.9-0.2s1-0.4,1.6-0.7
		l0.9,2.1c-0.5,0.4-1.2,0.8-2,1S463.4,223.1,462.4,223.1z M462.1,212.6c-0.6,0-1.1,0.2-1.5,0.7s-0.6,1.1-0.7,1.9l0,0.1h4.2V215
		c0-0.7-0.2-1.3-0.5-1.7S462.8,212.6,462.1,212.6z"/>
</g>
<g class="st1">
	<path class="st2" d="M128.8,241V239h5l0.2,1.5c0.4-0.5,0.8-1,1.3-1.3s1.1-0.4,1.8-0.4c1.6,0,2.8,0.6,3.7,1.8s1.3,2.8,1.3,4.8v0.2
		c0,1.9-0.4,3.4-1.3,4.5s-2.1,1.7-3.6,1.7c-0.7,0-1.3-0.1-1.8-0.4s-1-0.6-1.3-1.1v3.7l1.7,0.4v2.1H129v-2.1l1.7-0.4v-12.7L128.8,241
		z M138.7,245.4c0-1.2-0.2-2.2-0.6-2.9s-1-1.1-1.8-1.1c-0.5,0-1,0.1-1.3,0.3s-0.7,0.5-0.9,0.9v5.6c0.2,0.4,0.5,0.6,0.9,0.8
		s0.8,0.3,1.3,0.3c0.8,0,1.4-0.3,1.8-1s0.6-1.5,0.6-2.6V245.4z"/>
</g>
<g class="st1">
	<path class="st2" d="M151.5,251.6c-0.1-0.2-0.2-0.4-0.2-0.7s-0.1-0.4-0.2-0.7c-0.4,0.5-0.9,0.8-1.5,1.1s-1.2,0.4-2,0.4
		c-1.2,0-2.2-0.3-3-1s-1.1-1.6-1.1-2.8c0-1.2,0.5-2.1,1.4-2.8s2.4-1,4.2-1h1.7v-1.2c0-0.6-0.2-1.1-0.5-1.4s-0.9-0.5-1.6-0.5
		c-0.4,0-0.7,0-1,0.1s-0.6,0.2-0.7,0.3l-0.2,1.4h-2.6l0-2.8c0.6-0.4,1.3-0.8,2.2-1.1s1.7-0.4,2.6-0.4c1.6,0,2.8,0.4,3.8,1.2
		s1.5,1.9,1.5,3.3v5.2c0,0.2,0,0.4,0,0.6s0,0.3,0,0.5l1,0.1v2.1H151.5z M148.5,249.4c0.5,0,1-0.1,1.4-0.3s0.8-0.5,1-0.8v-1.9h-1.7
		c-0.7,0-1.3,0.2-1.7,0.5s-0.6,0.7-0.6,1.2c0,0.4,0.1,0.8,0.4,1S148,249.4,148.5,249.4z"/>
</g>
<g class="st1">
	<path class="st2" d="M156.8,249.6l1.6-0.4v-7.9l-1.8-0.4V239h5l0.2,1.9c0.3-0.7,0.7-1.2,1.1-1.5s1-0.6,1.6-0.6c0.2,0,0.4,0,0.6,0
		s0.4,0.1,0.5,0.1l-0.4,3.1l-1.4,0c-0.5,0-0.9,0.1-1.2,0.3s-0.6,0.5-0.8,0.8v6.2l1.6,0.4v2.1h-6.7V249.6z"/>
</g>
<g class="st1">
	<path class="st2" d="M171.9,235.9v3.1h2.2v2.4h-2.2v6.5c0,0.5,0.1,0.8,0.3,1.1s0.5,0.3,0.8,0.3c0.2,0,0.4,0,0.6,0s0.4-0.1,0.6-0.1
		l0.3,2.5c-0.4,0.1-0.8,0.2-1.1,0.3s-0.8,0.1-1.2,0.1c-1.2,0-2.1-0.3-2.7-1s-1-1.7-1-3.1v-6.5h-1.9V239h1.9v-3.1H171.9z"/>
</g>
<g class="st1">
	<path class="st2" d="M175.8,249.6l1.6-0.4v-7.9l-1.8-0.4V239h5l0.2,1.8c0.4-0.6,0.9-1.2,1.6-1.5s1.3-0.5,2.1-0.5
		c1.3,0,2.3,0.4,3,1.2s1.1,2.1,1.1,3.8v5.5l1.6,0.4v2.1h-6.5v-2.1l1.5-0.4v-5.5c0-0.9-0.2-1.5-0.5-1.8s-0.9-0.5-1.6-0.5
		c-0.5,0-0.9,0.1-1.2,0.3s-0.7,0.4-0.9,0.8v6.8l1.4,0.4v2.1h-6.4V249.6z"/>
</g>
<g class="st1">
	<path class="st2" d="M196.9,251.9c-1.8,0-3.3-0.6-4.4-1.8s-1.6-2.7-1.6-4.5v-0.5c0-1.9,0.5-3.4,1.6-4.7s2.4-1.8,4.2-1.8
		c1.7,0,3,0.5,4,1.5s1.4,2.4,1.4,4.2v1.9h-7.6l0,0.1c0.1,0.8,0.3,1.5,0.8,2.1s1.2,0.8,2,0.8c0.8,0,1.4-0.1,1.9-0.2s1-0.4,1.6-0.7
		l0.9,2.1c-0.5,0.4-1.2,0.8-2,1S197.9,251.9,196.9,251.9z M196.6,241.4c-0.6,0-1.1,0.2-1.5,0.7s-0.6,1.1-0.7,1.9l0,0.1h4.2v-0.3
		c0-0.7-0.2-1.3-0.5-1.7S197.3,241.4,196.6,241.4z"/>
</g>
<g class="st1">
	<path class="st2" d="M203.4,249.6l1.6-0.4v-7.9l-1.8-0.4V239h5l0.2,1.9c0.3-0.7,0.7-1.2,1.1-1.5s1-0.6,1.6-0.6c0.2,0,0.4,0,0.6,0
		s0.4,0.1,0.5,0.1l-0.4,3.1l-1.4,0c-0.5,0-0.9,0.1-1.2,0.3s-0.6,0.5-0.8,0.8v6.2l1.6,0.4v2.1h-6.7V249.6z"/>
</g>
<g class="st1">
	<path class="st2" d="M216.1,251.2c0,0.8-0.2,1.6-0.7,2.5s-1,1.6-1.6,2.2l-1.7-0.9c0.3-0.5,0.5-1.1,0.7-1.7s0.2-1.2,0.2-2v-2.6h3.1
		L216.1,251.2z"/>
</g>
<g class="st1">
	<path class="st2" d="M237.1,241l-1.2,0.2l-4.7,12.3c-0.4,0.9-0.9,1.7-1.5,2.3s-1.5,0.9-2.8,0.9c-0.3,0-0.6,0-0.8-0.1
		s-0.6-0.1-0.9-0.2l0.4-2.5c0.1,0,0.2,0,0.3,0s0.2,0,0.3,0c0.6,0,1-0.1,1.3-0.4s0.5-0.6,0.7-1l0.4-1l-4-10.4l-1.2-0.2V239h6.2v2.1
		l-1.4,0.2l1.7,5.1l0.2,0.9l0.1,0l2-6l-1.4-0.2V239h6.2V241z"/>
</g>
<g class="st1">
	<path class="st2" d="M237.7,245.2c0-1.9,0.5-3.4,1.6-4.6s2.5-1.8,4.4-1.8c1.9,0,3.3,0.6,4.4,1.8s1.6,2.8,1.6,4.7v0.2
		c0,1.9-0.5,3.5-1.6,4.7s-2.5,1.8-4.4,1.8c-1.9,0-3.4-0.6-4.4-1.8s-1.6-2.8-1.6-4.7V245.2z M241.2,245.4c0,1.2,0.2,2.1,0.6,2.8
		s1.1,1,2,1c0.9,0,1.5-0.4,1.9-1.1s0.6-1.6,0.6-2.8v-0.2c0-1.1-0.2-2-0.6-2.8s-1.1-1.1-2-1.1s-1.5,0.4-1.9,1.1s-0.6,1.6-0.6,2.8
		V245.4z"/>
</g>
<g class="st1">
	<path class="st2" d="M259.7,250c-0.4,0.6-0.9,1.1-1.5,1.4s-1.3,0.5-2,0.5c-1.3,0-2.4-0.4-3.1-1.3s-1.1-2.2-1.1-4v-5.2l-1.4-0.4V239
		h1.4h3.4v7.7c0,0.9,0.2,1.6,0.5,2s0.8,0.6,1.4,0.6c0.5,0,1-0.1,1.4-0.3s0.7-0.4,1-0.8v-6.8L258,241V239h1.5h3.4v10.3l1.5,0.4v2.1
		h-4.5L259.7,250z"/>
</g>
<g class="st1">
	<path class="st2" d="M282.1,243.3h-2.3l-0.4-1.6c-0.2-0.2-0.5-0.3-0.9-0.5s-0.7-0.2-1.2-0.2c-0.6,0-1.1,0.1-1.4,0.4s-0.5,0.6-0.5,1
		c0,0.4,0.2,0.7,0.5,1s1,0.5,2,0.7c1.6,0.3,2.7,0.8,3.5,1.4s1.1,1.4,1.1,2.5c0,1.1-0.5,2.1-1.5,2.8s-2.3,1.1-3.9,1.1
		c-1,0-1.9-0.1-2.7-0.4s-1.5-0.7-2.2-1.2l0-2.8h2.4l0.5,1.7c0.2,0.2,0.5,0.3,0.8,0.4s0.7,0.1,1.1,0.1c0.7,0,1.2-0.1,1.6-0.4
		s0.5-0.6,0.5-1c0-0.4-0.2-0.7-0.6-1s-1-0.5-2-0.7c-1.5-0.3-2.6-0.8-3.4-1.4s-1.1-1.4-1.1-2.4c0-1.1,0.4-2,1.3-2.7s2.1-1.2,3.7-1.2
		c1,0,1.9,0.1,2.8,0.4s1.6,0.6,2.1,1L282.1,243.3z"/>
</g>
<g class="st1">
	<path class="st2" d="M283.8,249.6l1.7-0.4v-13.5l-1.8-0.4v-2.1h5.2v7.2c0.4-0.6,0.9-1,1.5-1.4s1.2-0.5,1.9-0.5
		c1.3,0,2.4,0.4,3.1,1.3s1.1,2.2,1.1,4.1v5.1l1.6,0.4v2.1h-6.5v-2.1l1.5-0.4v-5.1c0-1-0.2-1.7-0.5-2.1s-0.9-0.6-1.6-0.6
		c-0.5,0-0.9,0.1-1.2,0.3s-0.7,0.4-0.9,0.7v6.9l1.5,0.4v2.1h-6.5V249.6z"/>
</g>
<g class="st1">
	<path class="st2" d="M298.8,245.2c0-1.9,0.5-3.4,1.6-4.6s2.5-1.8,4.4-1.8c1.9,0,3.3,0.6,4.4,1.8s1.6,2.8,1.6,4.7v0.2
		c0,1.9-0.5,3.5-1.6,4.7s-2.5,1.8-4.4,1.8c-1.9,0-3.4-0.6-4.4-1.8s-1.6-2.8-1.6-4.7V245.2z M302.2,245.4c0,1.2,0.2,2.1,0.6,2.8
		s1.1,1,2,1c0.9,0,1.5-0.4,1.9-1.1s0.6-1.6,0.6-2.8v-0.2c0-1.1-0.2-2-0.6-2.8s-1.1-1.1-2-1.1s-1.5,0.4-1.9,1.1s-0.6,1.6-0.6,2.8
		V245.4z"/>
</g>
<g class="st1">
	<path class="st2" d="M320.8,250c-0.4,0.6-0.9,1.1-1.5,1.4s-1.3,0.5-2,0.5c-1.3,0-2.4-0.4-3.1-1.3s-1.1-2.2-1.1-4v-5.2l-1.4-0.4V239
		h1.4h3.4v7.7c0,0.9,0.2,1.6,0.5,2s0.8,0.6,1.4,0.6c0.5,0,1-0.1,1.4-0.3s0.7-0.4,1-0.8v-6.8l-1.5-0.4V239h1.5h3.4v10.3l1.5,0.4v2.1
		H321L320.8,250z"/>
</g>
<g class="st1">
	<path class="st2" d="M326.6,235.4v-2.1h5.2v15.9l1.7,0.4v2.1h-6.7v-2.1l1.7-0.4v-13.5L326.6,235.4z"/>
</g>
<g class="st1">
	<path class="st2" d="M342.6,250.1c-0.4,0.6-0.9,1-1.4,1.3s-1.2,0.5-1.9,0.5c-1.6,0-2.8-0.6-3.6-1.7s-1.3-2.6-1.3-4.5v-0.2
		c0-2,0.4-3.6,1.3-4.8s2.1-1.8,3.7-1.8c0.6,0,1.2,0.1,1.7,0.4s1,0.7,1.3,1.2v-4.5l-1.8-0.4v-2.1h1.8h3.4v15.9l1.6,0.4v2.1h-4.6
		L342.6,250.1z M337.8,245.7c0,1.1,0.2,2,0.6,2.6s1,1,1.8,1c0.5,0,0.9-0.1,1.3-0.3s0.7-0.5,0.9-0.9v-5.4c-0.2-0.4-0.5-0.7-0.9-0.9
		s-0.8-0.3-1.3-0.3c-0.8,0-1.4,0.4-1.8,1.1s-0.6,1.7-0.6,2.9V245.7z"/>
</g>
<g class="st1">
	<path class="st2" d="M354.6,245.4c0-2,0.4-3.6,1.3-4.8s2.1-1.8,3.7-1.8c0.7,0,1.3,0.2,1.9,0.5s1,0.8,1.4,1.4l0.2-1.6h3v12.3
		c0,1.7-0.5,3-1.6,4s-2.5,1.5-4.3,1.5c-0.6,0-1.3-0.1-2-0.3s-1.4-0.4-2-0.7l0.6-2.4c0.5,0.2,1.1,0.4,1.6,0.6s1.1,0.2,1.7,0.2
		c0.8,0,1.5-0.3,1.9-0.8s0.6-1.2,0.6-2.1v-0.8c-0.4,0.5-0.8,0.8-1.3,1.1s-1.1,0.4-1.7,0.4c-1.6,0-2.8-0.6-3.6-1.7s-1.3-2.7-1.3-4.5
		V245.4z M358.1,245.7c0,1.1,0.2,2,0.6,2.6s1,1,1.8,1c0.5,0,1-0.1,1.3-0.3s0.7-0.5,0.9-0.8v-5.5c-0.2-0.4-0.5-0.7-0.9-0.9
		s-0.8-0.3-1.3-0.3c-0.8,0-1.4,0.4-1.8,1.1s-0.6,1.7-0.6,2.9V245.7z"/>
</g>
<g class="st1">
	<path class="st2" d="M374.1,251.9c-1.8,0-3.3-0.6-4.4-1.8s-1.6-2.7-1.6-4.5v-0.5c0-1.9,0.5-3.4,1.6-4.7s2.4-1.8,4.2-1.8
		c1.7,0,3,0.5,4,1.5s1.4,2.4,1.4,4.2v1.9h-7.6l0,0.1c0.1,0.8,0.3,1.5,0.8,2.1s1.2,0.8,2,0.8c0.8,0,1.4-0.1,1.9-0.2s1-0.4,1.6-0.7
		l0.9,2.1c-0.5,0.4-1.2,0.8-2,1S375.1,251.9,374.1,251.9z M373.8,241.4c-0.6,0-1.1,0.2-1.5,0.7s-0.6,1.1-0.7,1.9l0,0.1h4.2v-0.3
		c0-0.7-0.2-1.3-0.5-1.7S374.5,241.4,373.8,241.4z"/>
</g>
<g class="st1">
	<path class="st2" d="M385.6,235.9v3.1h2.2v2.4h-2.2v6.5c0,0.5,0.1,0.8,0.3,1.1s0.5,0.3,0.8,0.3c0.2,0,0.4,0,0.6,0s0.4-0.1,0.6-0.1
		l0.3,2.5c-0.4,0.1-0.8,0.2-1.1,0.3s-0.8,0.1-1.2,0.1c-1.2,0-2.1-0.3-2.7-1s-1-1.7-1-3.1v-6.5h-1.9V239h1.9v-3.1H385.6z"/>
</g>
<g class="st1">
	<path class="st2" d="M400.4,235.9v3.1h2.2v2.4h-2.2v6.5c0,0.5,0.1,0.8,0.3,1.1s0.5,0.3,0.8,0.3c0.2,0,0.4,0,0.6,0s0.4-0.1,0.6-0.1
		l0.3,2.5c-0.4,0.1-0.8,0.2-1.1,0.3s-0.8,0.1-1.2,0.1c-1.2,0-2.1-0.3-2.7-1s-1-1.7-1-3.1v-6.5h-1.9V239h1.9v-3.1H400.4z"/>
</g>
<g class="st1">
	<path class="st2" d="M409.9,251.9c-1.8,0-3.3-0.6-4.4-1.8s-1.6-2.7-1.6-4.5v-0.5c0-1.9,0.5-3.4,1.6-4.7s2.4-1.8,4.2-1.8
		c1.7,0,3,0.5,4,1.5s1.4,2.4,1.4,4.2v1.9h-7.6l0,0.1c0.1,0.8,0.3,1.5,0.8,2.1s1.2,0.8,2,0.8c0.8,0,1.4-0.1,1.9-0.2s1-0.4,1.6-0.7
		l0.9,2.1c-0.5,0.4-1.2,0.8-2,1S410.9,251.9,409.9,251.9z M409.6,241.4c-0.6,0-1.1,0.2-1.5,0.7s-0.6,1.1-0.7,1.9l0,0.1h4.2v-0.3
		c0-0.7-0.2-1.3-0.5-1.7S410.3,241.4,409.6,241.4z"/>
</g>
<g class="st1">
	<path class="st2" d="M426.7,243.3h-2.3l-0.4-1.6c-0.2-0.2-0.5-0.3-0.9-0.5s-0.7-0.2-1.2-0.2c-0.6,0-1.1,0.1-1.4,0.4s-0.5,0.6-0.5,1
		c0,0.4,0.2,0.7,0.5,1s1,0.5,2,0.7c1.6,0.3,2.7,0.8,3.5,1.4s1.1,1.4,1.1,2.5c0,1.1-0.5,2.1-1.5,2.8s-2.3,1.1-3.9,1.1
		c-1,0-1.9-0.1-2.7-0.4s-1.5-0.7-2.2-1.2l0-2.8h2.4l0.5,1.7c0.2,0.2,0.5,0.3,0.8,0.4s0.7,0.1,1.1,0.1c0.7,0,1.2-0.1,1.6-0.4
		s0.5-0.6,0.5-1c0-0.4-0.2-0.7-0.6-1s-1-0.5-2-0.7c-1.5-0.3-2.6-0.8-3.4-1.4s-1.1-1.4-1.1-2.4c0-1.1,0.4-2,1.3-2.7s2.1-1.2,3.7-1.2
		c1,0,1.9,0.1,2.8,0.4s1.6,0.6,2.1,1L426.7,243.3z"/>
</g>
<g class="st1">
	<path class="st2" d="M433.5,235.9v3.1h2.2v2.4h-2.2v6.5c0,0.5,0.1,0.8,0.3,1.1s0.5,0.3,0.8,0.3c0.2,0,0.4,0,0.6,0s0.4-0.1,0.6-0.1
		l0.3,2.5c-0.4,0.1-0.8,0.2-1.1,0.3s-0.8,0.1-1.2,0.1c-1.2,0-2.1-0.3-2.7-1s-1-1.7-1-3.1v-6.5h-1.9V239h1.9v-3.1H433.5z"/>
</g>
<g class="st1">
	<path class="st2" d="M443,251.9c-1.8,0-3.3-0.6-4.4-1.8s-1.6-2.7-1.6-4.5v-0.5c0-1.9,0.5-3.4,1.6-4.7s2.4-1.8,4.2-1.8
		c1.7,0,3,0.5,4,1.5s1.4,2.4,1.4,4.2v1.9h-7.6l0,0.1c0.1,0.8,0.3,1.5,0.8,2.1s1.2,0.8,2,0.8c0.8,0,1.4-0.1,1.9-0.2s1-0.4,1.6-0.7
		l0.9,2.1c-0.5,0.4-1.2,0.8-2,1S444,251.9,443,251.9z M442.7,241.4c-0.6,0-1.1,0.2-1.5,0.7s-0.6,1.1-0.7,1.9l0,0.1h4.2v-0.3
		c0-0.7-0.2-1.3-0.5-1.7S443.3,241.4,442.7,241.4z"/>
</g>
<g class="st1">
	<path class="st2" d="M457.9,250.1c-0.4,0.6-0.9,1-1.4,1.3s-1.2,0.5-1.9,0.5c-1.6,0-2.8-0.6-3.6-1.7s-1.3-2.6-1.3-4.5v-0.2
		c0-2,0.4-3.6,1.3-4.8s2.1-1.8,3.7-1.8c0.6,0,1.2,0.1,1.7,0.4s1,0.7,1.3,1.2v-4.5l-1.8-0.4v-2.1h1.8h3.4v15.9l1.6,0.4v2.1h-4.6
		L457.9,250.1z M453.1,245.7c0,1.1,0.2,2,0.6,2.6s1,1,1.8,1c0.5,0,0.9-0.1,1.3-0.3s0.7-0.5,0.9-0.9v-5.4c-0.2-0.4-0.5-0.7-0.9-0.9
		s-0.8-0.3-1.3-0.3c-0.8,0-1.4,0.4-1.8,1.1s-0.6,1.7-0.6,2.9V245.7z"/>
</g>
<g class="st1">
	<path class="st2" d="M468.2,251.6h-3.4v-3h3.4V251.6z"/>
</g>
<g class="st1">
	<path class="st2" d="M149,294.2v-2.1h7.1v2.1l-1.8,0.4v12.2l1.8,0.4v2.1H149v-2.1l1.8-0.4v-12.2L149,294.2z"/>
</g>
<g class="st1">
	<path class="st2" d="M157.5,307.2l1.7-0.4V299h-1.9v-2.4h1.9v-1.4c0-1.4,0.4-2.5,1.2-3.3s2-1.2,3.5-1.2c0.3,0,0.6,0,0.9,0.1
		s0.6,0.1,1,0.2l-0.3,2.5c-0.2,0-0.4-0.1-0.5-0.1s-0.4,0-0.6,0c-0.6,0-1,0.2-1.3,0.5s-0.4,0.7-0.4,1.3v1.4h2.5v2.4h-2.5v7.9l1.7,0.4
		v2.1h-6.7V307.2z"/>
</g>
<g class="st1">
	<path class="st2" d="M185.3,298.6l-1.2,0.2l-4.7,12.3c-0.4,0.9-0.9,1.7-1.5,2.3s-1.5,0.9-2.8,0.9c-0.3,0-0.6,0-0.8-0.1
		s-0.6-0.1-0.9-0.2l0.4-2.5c0.1,0,0.2,0,0.3,0s0.2,0,0.3,0c0.6,0,1-0.1,1.3-0.4s0.5-0.6,0.7-1l0.4-1l-4-10.4l-1.2-0.2v-2.1h6.2v2.1
		l-1.4,0.2l1.7,5.1l0.2,0.9l0.1,0l2-6l-1.4-0.2v-2.1h6.2V298.6z"/>
</g>
<g class="st1">
	<path class="st2" d="M185.9,302.8c0-1.9,0.5-3.4,1.6-4.6s2.5-1.8,4.4-1.8c1.9,0,3.3,0.6,4.4,1.8s1.6,2.8,1.6,4.7v0.2
		c0,1.9-0.5,3.5-1.6,4.7s-2.5,1.8-4.4,1.8c-1.9,0-3.4-0.6-4.4-1.8s-1.6-2.8-1.6-4.7V302.8z M189.4,303c0,1.2,0.2,2.1,0.6,2.8
		s1.1,1,2,1c0.9,0,1.5-0.4,1.9-1.1s0.6-1.6,0.6-2.8v-0.2c0-1.1-0.2-2-0.6-2.8s-1.1-1.1-2-1.1s-1.5,0.4-1.9,1.1s-0.6,1.6-0.6,2.8V303
		z"/>
</g>
<g class="st1">
	<path class="st2" d="M207.9,307.6c-0.4,0.6-0.9,1.1-1.5,1.4s-1.3,0.5-2,0.5c-1.3,0-2.4-0.4-3.1-1.3s-1.1-2.2-1.1-4V299l-1.4-0.4
		v-2.1h1.4h3.4v7.7c0,0.9,0.2,1.6,0.5,2s0.8,0.6,1.4,0.6c0.5,0,1-0.1,1.4-0.3s0.7-0.4,1-0.8V299l-1.5-0.4v-2.1h1.5h3.4v10.3l1.5,0.4
		v2.1h-4.5L207.9,307.6z"/>
</g>
<g class="st1">
	<path class="st2" d="M228,309.2c-0.1-0.2-0.2-0.4-0.2-0.7s-0.1-0.4-0.2-0.7c-0.4,0.5-0.9,0.8-1.5,1.1s-1.2,0.4-2,0.4
		c-1.2,0-2.2-0.3-3-1s-1.1-1.6-1.1-2.8c0-1.2,0.5-2.1,1.4-2.8s2.4-1,4.2-1h1.7v-1.2c0-0.6-0.2-1.1-0.5-1.4s-0.9-0.5-1.6-0.5
		c-0.4,0-0.7,0-1,0.1s-0.6,0.2-0.7,0.3l-0.2,1.4h-2.6l0-2.8c0.6-0.4,1.3-0.8,2.2-1.1s1.7-0.4,2.6-0.4c1.6,0,2.8,0.4,3.8,1.2
		s1.5,1.9,1.5,3.3v5.2c0,0.2,0,0.4,0,0.6s0,0.3,0,0.5l1,0.1v2.1H228z M225,307c0.5,0,1-0.1,1.4-0.3s0.8-0.5,1-0.8v-1.9h-1.7
		c-0.7,0-1.3,0.2-1.7,0.5s-0.6,0.7-0.6,1.2c0,0.4,0.1,0.8,0.4,1S224.5,307,225,307z"/>
</g>
<g class="st1">
	<path class="st2" d="M233.3,307.2l1.6-0.4V299l-1.8-0.4v-2.1h5l0.2,1.9c0.3-0.7,0.7-1.2,1.1-1.5s1-0.6,1.6-0.6c0.2,0,0.4,0,0.6,0
		s0.4,0.1,0.5,0.1l-0.4,3.1l-1.4,0c-0.5,0-0.9,0.1-1.2,0.3s-0.6,0.5-0.8,0.8v6.2l1.6,0.4v2.1h-6.7V307.2z"/>
</g>
<g class="st1">
	<path class="st2" d="M248.9,309.5c-1.8,0-3.3-0.6-4.4-1.8s-1.6-2.7-1.6-4.5v-0.5c0-1.9,0.5-3.4,1.6-4.7s2.4-1.8,4.2-1.8
		c1.7,0,3,0.5,4,1.5s1.4,2.4,1.4,4.2v1.9h-7.6l0,0.1c0.1,0.8,0.3,1.5,0.8,2.1s1.2,0.8,2,0.8c0.8,0,1.4-0.1,1.9-0.2s1-0.4,1.6-0.7
		l0.9,2.1c-0.5,0.4-1.2,0.8-2,1S249.9,309.5,248.9,309.5z M248.6,299c-0.6,0-1.1,0.2-1.5,0.7s-0.6,1.1-0.7,1.9l0,0.1h4.2v-0.3
		c0-0.7-0.2-1.3-0.5-1.7S249.3,299,248.6,299z"/>
	<path class="st2" d="M269.6,309.2c-0.1-0.2-0.2-0.4-0.2-0.7s-0.1-0.4-0.2-0.7c-0.4,0.5-0.9,0.8-1.5,1.1s-1.2,0.4-2,0.4
		c-1.2,0-2.2-0.3-3-1s-1.1-1.6-1.1-2.8c0-1.2,0.5-2.1,1.4-2.8s2.4-1,4.2-1h1.7v-1.2c0-0.6-0.2-1.1-0.5-1.4s-0.9-0.5-1.6-0.5
		c-0.4,0-0.7,0-1,0.1s-0.6,0.2-0.7,0.3l-0.2,1.4h-2.6l0-2.8c0.6-0.4,1.3-0.8,2.2-1.1s1.7-0.4,2.6-0.4c1.6,0,2.8,0.4,3.8,1.2
		s1.5,1.9,1.5,3.3v5.2c0,0.2,0,0.4,0,0.6s0,0.3,0,0.5l1,0.1v2.1H269.6z M266.6,307c0.5,0,1-0.1,1.4-0.3s0.8-0.5,1-0.8v-1.9h-1.7
		c-0.7,0-1.3,0.2-1.7,0.5s-0.6,0.7-0.6,1.2c0,0.4,0.1,0.8,0.4,1S266.1,307,266.6,307z"/>
</g>
<g class="st1">
	<path class="st2" d="M287.3,292.2v2.1l-1.8,0.4v8.9c0,1.1,0.3,2,0.9,2.5s1.4,0.8,2.5,0.8c1.1,0,1.9-0.3,2.5-0.8s0.9-1.4,0.9-2.5
		v-8.9l-1.8-0.4v-2.1h7.1v2.1l-1.8,0.4v8.9c0,1.9-0.6,3.4-1.9,4.4s-2.9,1.6-5,1.6c-2,0-3.7-0.5-4.9-1.6s-1.9-2.5-1.9-4.4v-8.9
		l-1.8-0.4v-2.1h1.8h3.4H287.3z"/>
</g>
<g class="st1">
	<path class="st2" d="M315.2,296.6L315.2,296.6l-4.6,12.6h-2.3l-4.5-12.6l-0.1,0l0.3,7.5v2.7l1.8,0.4v2.1h-7.1v-2.1l1.8-0.4v-12.2
		l-1.8-0.4v-2.1h1.8h4.5l4.3,12.6h0.1l4.4-12.6h6.3v2.1l-1.8,0.4v12.2l1.8,0.4v2.1h-7.1v-2.1l1.8-0.4v-2.7L315.2,296.6z"/>
</g>
<g class="st1">
	<path class="st2" d="M338.8,292.2v2.1l-1.8,0.4v14.6h-3.4l-6.9-11.5l-0.1,0v9.1l1.8,0.4v2.1h-7.1v-2.1l1.8-0.4v-12.2l-1.8-0.4v-2.1
		h1.8h3.4l6.9,11.5l0.1,0v-9.1l-1.8-0.4v-2.1h5.2H338.8z"/>
</g>
<g class="st1">
	<path class="st2" d="M356.3,300.9H354l-0.4-1.6c-0.2-0.2-0.5-0.3-0.9-0.5s-0.7-0.2-1.2-0.2c-0.6,0-1.1,0.1-1.4,0.4s-0.5,0.6-0.5,1
		c0,0.4,0.2,0.7,0.5,1s1,0.5,2,0.7c1.6,0.3,2.7,0.8,3.5,1.4s1.1,1.4,1.1,2.5c0,1.1-0.5,2.1-1.5,2.8s-2.3,1.1-3.9,1.1
		c-1,0-1.9-0.1-2.7-0.4s-1.5-0.7-2.2-1.2l0-2.8h2.4l0.5,1.7c0.2,0.2,0.5,0.3,0.8,0.4s0.7,0.1,1.1,0.1c0.7,0,1.2-0.1,1.6-0.4
		s0.5-0.6,0.5-1c0-0.4-0.2-0.7-0.6-1s-1-0.5-2-0.7c-1.5-0.3-2.6-0.8-3.4-1.4s-1.1-1.4-1.1-2.4c0-1.1,0.4-2,1.3-2.7s2.1-1.2,3.7-1.2
		c1,0,1.9,0.1,2.8,0.4s1.6,0.6,2.1,1L356.3,300.9z"/>
</g>
<g class="st1">
	<path class="st2" d="M363.1,293.5v3.1h2.2v2.4h-2.2v6.5c0,0.5,0.1,0.8,0.3,1.1s0.5,0.3,0.8,0.3c0.2,0,0.4,0,0.6,0s0.4-0.1,0.6-0.1
		l0.3,2.5c-0.4,0.1-0.8,0.2-1.1,0.3s-0.8,0.1-1.2,0.1c-1.2,0-2.1-0.3-2.7-1s-1-1.7-1-3.1V299h-1.9v-2.4h1.9v-3.1H363.1z"/>
</g>
<g class="st1">
	<path class="st2" d="M375.8,307.6c-0.4,0.6-0.9,1.1-1.5,1.4s-1.3,0.5-2,0.5c-1.3,0-2.4-0.4-3.1-1.3s-1.1-2.2-1.1-4V299l-1.4-0.4
		v-2.1h1.4h3.4v7.7c0,0.9,0.2,1.6,0.5,2s0.8,0.6,1.4,0.6c0.5,0,1-0.1,1.4-0.3s0.7-0.4,1-0.8V299l-1.5-0.4v-2.1h1.5h3.4v10.3l1.5,0.4
		v2.1H376L375.8,307.6z"/>
</g>
<g class="st1">
	<path class="st2" d="M389.8,307.7c-0.4,0.6-0.9,1-1.4,1.3s-1.2,0.5-1.9,0.5c-1.6,0-2.8-0.6-3.6-1.7s-1.3-2.6-1.3-4.5V303
		c0-2,0.4-3.6,1.3-4.8s2.1-1.8,3.7-1.8c0.6,0,1.2,0.1,1.7,0.4s1,0.7,1.3,1.2v-4.5l-1.8-0.4V291h1.8h3.4v15.9l1.6,0.4v2.1H390
		L389.8,307.7z M385,303.3c0,1.1,0.2,2,0.6,2.6s1,1,1.8,1c0.5,0,0.9-0.1,1.3-0.3s0.7-0.5,0.9-0.9v-5.4c-0.2-0.4-0.5-0.7-0.9-0.9
		s-0.8-0.3-1.3-0.3c-0.8,0-1.4,0.4-1.8,1.1s-0.6,1.7-0.6,2.9V303.3z"/>
</g>
<g class="st1">
	<path class="st2" d="M401.4,309.5c-1.8,0-3.3-0.6-4.4-1.8s-1.6-2.7-1.6-4.5v-0.5c0-1.9,0.5-3.4,1.6-4.7s2.4-1.8,4.2-1.8
		c1.7,0,3,0.5,4,1.5s1.4,2.4,1.4,4.2v1.9h-7.6l0,0.1c0.1,0.8,0.3,1.5,0.8,2.1s1.2,0.8,2,0.8c0.8,0,1.4-0.1,1.9-0.2s1-0.4,1.6-0.7
		l0.9,2.1c-0.5,0.4-1.2,0.8-2,1S402.4,309.5,401.4,309.5z M401.1,299c-0.6,0-1.1,0.2-1.5,0.7s-0.6,1.1-0.7,1.9l0,0.1h4.2v-0.3
		c0-0.7-0.2-1.3-0.5-1.7S401.8,299,401.1,299z"/>
</g>
<g class="st1">
	<path class="st2" d="M407.7,307.2l1.6-0.4V299l-1.8-0.4v-2.1h5l0.2,1.8c0.4-0.6,0.9-1.2,1.6-1.5s1.3-0.5,2.1-0.5
		c1.3,0,2.3,0.4,3,1.2s1.1,2.1,1.1,3.8v5.5l1.6,0.4v2.1h-6.5v-2.1l1.5-0.4v-5.5c0-0.9-0.2-1.5-0.5-1.8s-0.9-0.5-1.6-0.5
		c-0.5,0-0.9,0.1-1.2,0.3s-0.7,0.4-0.9,0.8v6.8l1.4,0.4v2.1h-6.4V307.2z"/>
</g>
<g class="st1">
	<path class="st2" d="M427.5,293.5v3.1h2.2v2.4h-2.2v6.5c0,0.5,0.1,0.8,0.3,1.1s0.5,0.3,0.8,0.3c0.2,0,0.4,0,0.6,0s0.4-0.1,0.6-0.1
		l0.3,2.5c-0.4,0.1-0.8,0.2-1.1,0.3s-0.8,0.1-1.2,0.1c-1.2,0-2.1-0.3-2.7-1s-1-1.7-1-3.1V299h-1.9v-2.4h1.9v-3.1H427.5z"/>
</g>
<g class="st1">
	<path class="st2" d="M435.2,308.8c0,0.8-0.2,1.6-0.7,2.5s-1,1.6-1.6,2.2l-1.7-0.9c0.3-0.5,0.5-1.1,0.7-1.7s0.2-1.2,0.2-2v-2.6h3.1
		L435.2,308.8z"/>
</g>
<g class="st1">
	<path class="st2" d="M135.1,335.7c0.6,0,1.1-0.2,1.5-0.5s0.6-0.8,0.6-1.4h3.1l0,0.1c0,1.3-0.4,2.4-1.4,3.2s-2.2,1.3-3.7,1.3
		c-1.9,0-3.3-0.6-4.4-1.8s-1.5-2.7-1.5-4.6v-0.4c0-1.9,0.5-3.4,1.6-4.6s2.5-1.8,4.5-1.8c1,0,1.9,0.2,2.8,0.5s1.5,0.7,2,1.3l0,3.4
		h-2.8l-0.6-2c-0.2-0.1-0.4-0.3-0.6-0.4s-0.5-0.1-0.9-0.1c-1,0-1.7,0.4-2.1,1.1s-0.6,1.6-0.6,2.7v0.4c0,1.1,0.2,2,0.6,2.7
		S134.1,335.7,135.1,335.7z"/>
</g>
<g class="st1">
	<path class="st2" d="M149.6,338c-0.1-0.2-0.2-0.4-0.2-0.7s-0.1-0.4-0.2-0.7c-0.4,0.5-0.9,0.8-1.5,1.1s-1.2,0.4-2,0.4
		c-1.2,0-2.2-0.3-3-1s-1.1-1.6-1.1-2.8c0-1.2,0.5-2.1,1.4-2.8s2.4-1,4.2-1h1.7v-1.2c0-0.6-0.2-1.1-0.5-1.4s-0.9-0.5-1.6-0.5
		c-0.4,0-0.7,0-1,0.1s-0.6,0.2-0.7,0.3l-0.2,1.4h-2.6l0-2.8c0.6-0.4,1.3-0.8,2.2-1.1s1.7-0.4,2.6-0.4c1.6,0,2.8,0.4,3.8,1.2
		s1.5,1.9,1.5,3.3v5.2c0,0.2,0,0.4,0,0.6s0,0.3,0,0.5l1,0.1v2.1H149.6z M146.7,335.8c0.5,0,1-0.1,1.4-0.3s0.8-0.5,1-0.8v-1.9h-1.7
		c-0.7,0-1.3,0.2-1.7,0.5s-0.6,0.7-0.6,1.2c0,0.4,0.1,0.8,0.4,1S146.2,335.8,146.7,335.8z"/>
</g>
<g class="st1">
	<path class="st2" d="M154.6,321.8v-2.1h5.2v15.9l1.7,0.4v2.1h-6.7V336l1.7-0.4v-13.5L154.6,321.8z"/>
</g>
<g class="st1">
	<path class="st2" d="M162.4,321.8v-2.1h5.2v15.9l1.7,0.4v2.1h-6.7V336l1.7-0.4v-13.5L162.4,321.8z"/>
</g>
<g class="st1">
	<path class="st2" d="M183.5,320.7c0.6,0,1.2,0.1,1.8,0.2s1.1,0.3,1.6,0.5l-0.6,2.5c-0.5-0.2-0.9-0.3-1.4-0.4s-0.9-0.1-1.4-0.1
		c-1,0-1.8,0.4-2.4,1.1s-0.9,1.8-0.9,3.3l0,0.1c0.4-0.4,0.9-0.7,1.5-0.9s1.2-0.3,2-0.3c1.5,0,2.7,0.5,3.6,1.6s1.3,2.5,1.3,4.1
		c0,1.7-0.5,3.1-1.6,4.3s-2.5,1.7-4.1,1.7c-1.8,0-3.3-0.6-4.4-1.8s-1.7-2.9-1.7-5.1v-3c0-2.4,0.6-4.3,1.9-5.6
		S181.5,320.7,183.5,320.7z M182.7,329.2c-0.6,0-1.2,0.1-1.6,0.3s-0.8,0.5-1,0.8v1.1c0,1.4,0.2,2.4,0.7,3.1s1.1,1.1,2,1.1
		c0.7,0,1.3-0.3,1.7-1s0.6-1.4,0.6-2.3c0-0.9-0.2-1.7-0.6-2.3S183.4,329.2,182.7,329.2z"/>
</g>
<g class="st1">
	<path class="st2" d="M189.4,336l2.9-0.4v-11.6h-2.9v-2l6.3-1.1v14.7l2.9,0.4v2.1h-9.2V336z"/>
</g>
<g class="st1">
	<path class="st2" d="M200,338v-2.2l5.5-5.9c0.8-0.9,1.4-1.7,1.7-2.3s0.5-1.2,0.5-1.8c0-0.7-0.2-1.3-0.6-1.8s-0.9-0.7-1.6-0.7
		c-0.8,0-1.4,0.3-1.8,0.8s-0.6,1.2-0.6,2.1h-3.3l0-0.1c0-1.5,0.5-2.8,1.5-3.9s2.5-1.6,4.2-1.6c1.8,0,3.1,0.5,4.1,1.4
		s1.5,2.1,1.5,3.7c0,1-0.3,2-0.8,2.9s-1.5,2-2.8,3.4l-3,3.3l0,0.1h4.4l0.1-1.7h2.6v4.3H200z"/>
</g>
<g class="st1">
	<path class="st2" d="M219.9,332.1h-6.6v-2.6h6.6V332.1z"/>
</g>
<g class="st1">
	<path class="st2" d="M229.3,320.7c0.6,0,1.2,0.1,1.8,0.2s1.1,0.3,1.6,0.5l-0.6,2.5c-0.5-0.2-0.9-0.3-1.4-0.4s-0.9-0.1-1.4-0.1
		c-1,0-1.8,0.4-2.4,1.1s-0.9,1.8-0.9,3.3l0,0.1c0.4-0.4,0.9-0.7,1.5-0.9s1.2-0.3,2-0.3c1.5,0,2.7,0.5,3.6,1.6s1.3,2.5,1.3,4.1
		c0,1.7-0.5,3.1-1.6,4.3s-2.5,1.7-4.1,1.7c-1.8,0-3.3-0.6-4.4-1.8s-1.7-2.9-1.7-5.1v-3c0-2.4,0.6-4.3,1.9-5.6
		S227.3,320.7,229.3,320.7z M228.6,329.2c-0.6,0-1.2,0.1-1.6,0.3s-0.8,0.5-1,0.8v1.1c0,1.4,0.2,2.4,0.7,3.1s1.1,1.1,2,1.1
		c0.7,0,1.3-0.3,1.7-1s0.6-1.4,0.6-2.3c0-0.9-0.2-1.7-0.6-2.3S229.3,329.2,228.6,329.2z"/>
</g>
<g class="st1">
	<path class="st2" d="M235.3,338v-2.2l5.5-5.9c0.8-0.9,1.4-1.7,1.7-2.3s0.5-1.2,0.5-1.8c0-0.7-0.2-1.3-0.6-1.8s-0.9-0.7-1.6-0.7
		c-0.8,0-1.4,0.3-1.8,0.8s-0.6,1.2-0.6,2.1h-3.3l0-0.1c0-1.5,0.5-2.8,1.5-3.9s2.5-1.6,4.2-1.6c1.8,0,3.1,0.5,4.1,1.4
		s1.5,2.1,1.5,3.7c0,1-0.3,2-0.8,2.9s-1.5,2-2.8,3.4l-3,3.3l0,0.1h4.4l0.1-1.7h2.6v4.3H235.3z"/>
</g>
<g class="st1">
	<path class="st2" d="M257.5,324.9l-0.3-1.1h-4.6l-0.5,3.9c0.3-0.2,0.7-0.4,1.1-0.6s0.9-0.2,1.5-0.2c1.6,0,2.9,0.5,3.8,1.5
		s1.3,2.4,1.3,4.2c0,1.6-0.5,3-1.5,4.1s-2.4,1.6-4.3,1.6c-1.6,0-2.9-0.4-4-1.3s-1.7-2-1.6-3.5l0-0.1l3.3-0.2c0,0.8,0.2,1.3,0.6,1.8
		s1,0.6,1.7,0.6c0.8,0,1.4-0.3,1.8-0.9s0.6-1.3,0.6-2.2c0-1-0.2-1.8-0.6-2.4s-1-0.9-1.8-0.9c-0.6,0-1.1,0.1-1.5,0.4s-0.6,0.6-0.7,1
		l-3-0.2l1-9.5h9.8v3.9H257.5z"/>
</g>
<g class="st1">
	<path class="st2" d="M268.8,332.1h-6.6v-2.6h6.6V332.1z"/>
</g>
<g class="st1">
	<path class="st2" d="M274,328.1h1.9c0.8,0,1.4-0.2,1.8-0.6s0.6-1,0.6-1.8c0-0.7-0.2-1.2-0.6-1.7s-1-0.6-1.7-0.6
		c-0.6,0-1.2,0.2-1.6,0.6s-0.7,0.9-0.7,1.5h-3.3l0-0.1c0-1.3,0.5-2.4,1.5-3.3s2.4-1.3,4-1.3c1.8,0,3.2,0.4,4.2,1.3s1.6,2,1.6,3.6
		c0,0.7-0.2,1.4-0.7,2.1s-1.1,1.2-1.9,1.6c0.9,0.3,1.7,0.9,2.2,1.5s0.7,1.5,0.7,2.4c0,1.6-0.6,2.8-1.7,3.7s-2.6,1.3-4.4,1.3
		c-1.6,0-2.9-0.4-4.1-1.3s-1.7-2-1.6-3.6l0-0.1h3.3c0,0.7,0.2,1.2,0.7,1.6s1.1,0.6,1.8,0.6c0.8,0,1.4-0.2,1.9-0.7s0.7-1,0.7-1.8
		c0-0.9-0.2-1.6-0.7-2s-1.1-0.6-2-0.6H274V328.1z"/>
</g>
<g class="st1">
	<path class="st2" d="M283.4,338v-2.2l5.5-5.9c0.8-0.9,1.4-1.7,1.7-2.3s0.5-1.2,0.5-1.8c0-0.7-0.2-1.3-0.6-1.8s-0.9-0.7-1.6-0.7
		c-0.8,0-1.4,0.3-1.8,0.8s-0.6,1.2-0.6,2.1h-3.3l0-0.1c0-1.5,0.5-2.8,1.5-3.9s2.5-1.6,4.2-1.6c1.8,0,3.1,0.5,4.1,1.4
		s1.5,2.1,1.5,3.7c0,1-0.3,2-0.8,2.9s-1.5,2-2.8,3.4l-3,3.3l0,0.1h4.4l0.1-1.7h2.6v4.3H283.4z"/>
	<path class="st2" d="M296.5,338v-2.2l5.5-5.9c0.8-0.9,1.4-1.7,1.7-2.3s0.5-1.2,0.5-1.8c0-0.7-0.2-1.3-0.6-1.8s-0.9-0.7-1.6-0.7
		c-0.8,0-1.4,0.3-1.8,0.8s-0.6,1.2-0.6,2.1h-3.3l0-0.1c0-1.5,0.5-2.8,1.5-3.9s2.5-1.6,4.2-1.6c1.8,0,3.1,0.5,4.1,1.4
		s1.5,2.1,1.5,3.7c0,1-0.3,2-0.8,2.9s-1.5,2-2.8,3.4l-3,3.3l0,0.1h4.4l0.1-1.7h2.6v4.3H296.5z"/>
</g>
<g class="st1">
	<path class="st2" d="M309.7,338v-2.2l5.5-5.9c0.8-0.9,1.4-1.7,1.7-2.3s0.5-1.2,0.5-1.8c0-0.7-0.2-1.3-0.6-1.8s-0.9-0.7-1.6-0.7
		c-0.8,0-1.4,0.3-1.8,0.8s-0.6,1.2-0.6,2.1h-3.3l0-0.1c0-1.5,0.5-2.8,1.5-3.9s2.5-1.6,4.2-1.6c1.8,0,3.1,0.5,4.1,1.4
		s1.5,2.1,1.5,3.7c0,1-0.3,2-0.8,2.9s-1.5,2-2.8,3.4l-3,3.3l0,0.1h4.4l0.1-1.7h2.6v4.3H309.7z"/>
</g>
<g class="st1">
	<path class="st2" d="M328.7,331.6c0-1.9,0.5-3.4,1.6-4.6s2.5-1.8,4.4-1.8c1.9,0,3.3,0.6,4.4,1.8s1.6,2.8,1.6,4.7v0.2
		c0,1.9-0.5,3.5-1.6,4.7s-2.5,1.8-4.4,1.8c-1.9,0-3.4-0.6-4.4-1.8s-1.6-2.8-1.6-4.7V331.6z M332.2,331.8c0,1.2,0.2,2.1,0.6,2.8
		s1.1,1,2,1c0.9,0,1.5-0.4,1.9-1.1s0.6-1.6,0.6-2.8v-0.2c0-1.1-0.2-2-0.6-2.8s-1.1-1.1-2-1.1s-1.5,0.4-1.9,1.1s-0.6,1.6-0.6,2.8
		V331.8z"/>
</g>
<g class="st1">
	<path class="st2" d="M341.9,336l1.6-0.4v-7.9l-1.8-0.4v-2.1h5l0.2,1.9c0.3-0.7,0.7-1.2,1.1-1.5s1-0.6,1.6-0.6c0.2,0,0.4,0,0.6,0
		s0.4,0.1,0.5,0.1l-0.4,3.1l-1.4,0c-0.5,0-0.9,0.1-1.2,0.3s-0.6,0.5-0.8,0.8v6.2l1.6,0.4v2.1h-6.7V336z"/>
</g>
<g class="st1">
	<path class="st2" d="M365.7,338c-0.1-0.2-0.2-0.4-0.2-0.7s-0.1-0.4-0.2-0.7c-0.4,0.5-0.9,0.8-1.5,1.1s-1.2,0.4-2,0.4
		c-1.2,0-2.2-0.3-3-1s-1.1-1.6-1.1-2.8c0-1.2,0.5-2.1,1.4-2.8s2.4-1,4.2-1h1.7v-1.2c0-0.6-0.2-1.1-0.5-1.4s-0.9-0.5-1.6-0.5
		c-0.4,0-0.7,0-1,0.1s-0.6,0.2-0.7,0.3l-0.2,1.4h-2.6l0-2.8c0.6-0.4,1.3-0.8,2.2-1.1s1.7-0.4,2.6-0.4c1.6,0,2.8,0.4,3.8,1.2
		s1.5,1.9,1.5,3.3v5.2c0,0.2,0,0.4,0,0.6s0,0.3,0,0.5l1,0.1v2.1H365.7z M362.7,335.8c0.5,0,1-0.1,1.4-0.3s0.8-0.5,1-0.8v-1.9h-1.7
		c-0.7,0-1.3,0.2-1.7,0.5s-0.6,0.7-0.6,1.2c0,0.4,0.1,0.8,0.4,1S362.2,335.8,362.7,335.8z"/>
</g>
<g class="st1">
	<path class="st2" d="M376.5,335.7c0.6,0,1.1-0.2,1.5-0.5s0.6-0.8,0.6-1.4h3.1l0,0.1c0,1.3-0.4,2.4-1.4,3.2s-2.2,1.3-3.7,1.3
		c-1.9,0-3.3-0.6-4.4-1.8s-1.5-2.7-1.5-4.6v-0.4c0-1.9,0.5-3.4,1.6-4.6s2.5-1.8,4.5-1.8c1,0,1.9,0.2,2.8,0.5s1.5,0.7,2,1.3l0,3.4
		h-2.8l-0.6-2c-0.2-0.1-0.4-0.3-0.6-0.4s-0.5-0.1-0.9-0.1c-1,0-1.7,0.4-2.1,1.1s-0.6,1.6-0.6,2.7v0.4c0,1.1,0.2,2,0.6,2.7
		S375.6,335.7,376.5,335.7z"/>
	<path class="st2" d="M388.9,335.7c0.6,0,1.1-0.2,1.5-0.5s0.6-0.8,0.6-1.4h3.1l0,0.1c0,1.3-0.4,2.4-1.4,3.2s-2.2,1.3-3.7,1.3
		c-1.9,0-3.3-0.6-4.4-1.8s-1.5-2.7-1.5-4.6v-0.4c0-1.9,0.5-3.4,1.6-4.6s2.5-1.8,4.5-1.8c1,0,1.9,0.2,2.8,0.5s1.5,0.7,2,1.3l0,3.4
		h-2.8l-0.6-2c-0.2-0.1-0.4-0.3-0.6-0.4s-0.5-0.1-0.9-0.1c-1,0-1.7,0.4-2.1,1.1s-0.6,1.6-0.6,2.7v0.4c0,1.1,0.2,2,0.6,2.7
		S388,335.7,388.9,335.7z"/>
</g>
<g class="st1">
	<path class="st2" d="M401.5,338.3c-1.8,0-3.3-0.6-4.4-1.8s-1.6-2.7-1.6-4.5v-0.5c0-1.9,0.5-3.4,1.6-4.7s2.4-1.8,4.2-1.8
		c1.7,0,3,0.5,4,1.5s1.4,2.4,1.4,4.2v1.9h-7.6l0,0.1c0.1,0.8,0.3,1.5,0.8,2.1s1.2,0.8,2,0.8c0.8,0,1.4-0.1,1.9-0.2s1-0.4,1.6-0.7
		l0.9,2.1c-0.5,0.4-1.2,0.8-2,1S402.6,338.3,401.5,338.3z M401.2,327.8c-0.6,0-1.1,0.2-1.5,0.7s-0.6,1.1-0.7,1.9l0,0.1h4.2v-0.3
		c0-0.7-0.2-1.3-0.5-1.7S401.9,327.8,401.2,327.8z"/>
</g>
<g class="st1">
	<path class="st2" d="M418.3,329.7H416l-0.4-1.6c-0.2-0.2-0.5-0.3-0.9-0.5s-0.7-0.2-1.2-0.2c-0.6,0-1.1,0.1-1.4,0.4s-0.5,0.6-0.5,1
		c0,0.4,0.2,0.7,0.5,1s1,0.5,2,0.7c1.6,0.3,2.7,0.8,3.5,1.4s1.1,1.4,1.1,2.5c0,1.1-0.5,2.1-1.5,2.8s-2.3,1.1-3.9,1.1
		c-1,0-1.9-0.1-2.7-0.4s-1.5-0.7-2.2-1.2l0-2.8h2.4l0.5,1.7c0.2,0.2,0.5,0.3,0.8,0.4s0.7,0.1,1.1,0.1c0.7,0,1.2-0.1,1.6-0.4
		s0.5-0.6,0.5-1c0-0.4-0.2-0.7-0.6-1s-1-0.5-2-0.7c-1.5-0.3-2.6-0.8-3.4-1.4s-1.1-1.4-1.1-2.4c0-1.1,0.4-2,1.3-2.7s2.1-1.2,3.7-1.2
		c1,0,1.9,0.1,2.8,0.4s1.6,0.6,2.1,1L418.3,329.7z"/>
</g>
<g class="st1">
	<path class="st2" d="M430.4,329.7h-2.3l-0.4-1.6c-0.2-0.2-0.5-0.3-0.9-0.5s-0.7-0.2-1.2-0.2c-0.6,0-1.1,0.1-1.4,0.4s-0.5,0.6-0.5,1
		c0,0.4,0.2,0.7,0.5,1s1,0.5,2,0.7c1.6,0.3,2.7,0.8,3.5,1.4s1.1,1.4,1.1,2.5c0,1.1-0.5,2.1-1.5,2.8s-2.3,1.1-3.9,1.1
		c-1,0-1.9-0.1-2.7-0.4s-1.5-0.7-2.2-1.2l0-2.8h2.4l0.5,1.7c0.2,0.2,0.5,0.3,0.8,0.4s0.7,0.1,1.1,0.1c0.7,0,1.2-0.1,1.6-0.4
		s0.5-0.6,0.5-1c0-0.4-0.2-0.7-0.6-1s-1-0.5-2-0.7c-1.5-0.3-2.6-0.8-3.4-1.4s-1.1-1.4-1.1-2.4c0-1.1,0.4-2,1.3-2.7s2.1-1.2,3.7-1.2
		c1,0,1.9,0.1,2.8,0.4s1.6,0.6,2.1,1L430.4,329.7z"/>
</g>
<g class="st1">
	<path class="st2" d="M142.2,356.2l-1.2,0.2l-4.7,12.3c-0.4,0.9-0.9,1.7-1.5,2.3s-1.5,0.9-2.8,0.9c-0.3,0-0.6,0-0.8-0.1
		s-0.6-0.1-0.9-0.2l0.4-2.5c0.1,0,0.2,0,0.3,0s0.2,0,0.3,0c0.6,0,1-0.1,1.3-0.4s0.5-0.6,0.7-1l0.4-1l-4-10.4l-1.2-0.2v-2.1h6.2v2.1
		l-1.4,0.2l1.7,5.1l0.2,0.9l0.1,0l2-6l-1.4-0.2v-2.1h6.2V356.2z"/>
</g>
<g class="st1">
	<path class="st2" d="M142.9,360.4c0-1.9,0.5-3.4,1.6-4.6s2.5-1.8,4.4-1.8c1.9,0,3.3,0.6,4.4,1.8s1.6,2.8,1.6,4.7v0.2
		c0,1.9-0.5,3.5-1.6,4.7s-2.5,1.8-4.4,1.8c-1.9,0-3.4-0.6-4.4-1.8s-1.6-2.8-1.6-4.7V360.4z M146.3,360.6c0,1.2,0.2,2.1,0.6,2.8
		s1.1,1,2,1c0.9,0,1.5-0.4,1.9-1.1s0.6-1.6,0.6-2.8v-0.2c0-1.1-0.2-2-0.6-2.8s-1.1-1.1-2-1.1s-1.5,0.4-1.9,1.1s-0.6,1.6-0.6,2.8
		V360.6z"/>
</g>
<g class="st1">
	<path class="st2" d="M164.9,365.2c-0.4,0.6-0.9,1.1-1.5,1.4s-1.3,0.5-2,0.5c-1.3,0-2.4-0.4-3.1-1.3s-1.1-2.2-1.1-4v-5.2l-1.4-0.4
		v-2.1h1.4h3.4v7.7c0,0.9,0.2,1.6,0.5,2s0.8,0.6,1.4,0.6c0.5,0,1-0.1,1.4-0.3s0.7-0.4,1-0.8v-6.8l-1.5-0.4v-2.1h1.5h3.4v10.3
		l1.5,0.4v2.1h-4.5L164.9,365.2z"/>
</g>
<g class="st1">
	<path class="st2" d="M171.1,364.8l1.6-0.4v-7.9l-1.8-0.4v-2.1h5l0.2,1.9c0.3-0.7,0.7-1.2,1.1-1.5s1-0.6,1.6-0.6c0.2,0,0.4,0,0.6,0
		s0.4,0.1,0.5,0.1l-0.4,3.1l-1.4,0c-0.5,0-0.9,0.1-1.2,0.3s-0.6,0.5-0.8,0.8v6.2l1.6,0.4v2.1h-6.7V364.8z"/>
</g>
<g class="st1">
	<path class="st2" d="M194.3,349.8c2,0,3.6,0.4,4.7,1.2s1.7,1.9,1.7,3.5c0,0.8-0.2,1.5-0.6,2.1s-1,1.1-1.8,1.4
		c1,0.2,1.8,0.7,2.3,1.4s0.8,1.6,0.8,2.5c0,1.6-0.5,2.9-1.6,3.7s-2.6,1.3-4.6,1.3h-8.4v-2.1l1.8-0.4v-12.2l-1.8-0.4v-2.1h1.8H194.3z
		 M192,356.9h2.5c0.9,0,1.6-0.2,2.1-0.6s0.7-0.9,0.7-1.6c0-0.8-0.2-1.4-0.7-1.7s-1.2-0.6-2.2-0.6H192V356.9z M192,359.3v4.9h3.2
		c0.9,0,1.6-0.2,2.1-0.6s0.7-1,0.7-1.8c0-0.8-0.2-1.5-0.6-1.9s-1-0.7-1.9-0.7H192z"/>
</g>
<g class="st1">
	<path class="st2" d="M202.7,360.4c0-1.9,0.5-3.4,1.6-4.6s2.5-1.8,4.4-1.8c1.9,0,3.3,0.6,4.4,1.8s1.6,2.8,1.6,4.7v0.2
		c0,1.9-0.5,3.5-1.6,4.7s-2.5,1.8-4.4,1.8c-1.9,0-3.4-0.6-4.4-1.8s-1.6-2.8-1.6-4.7V360.4z M206.1,360.6c0,1.2,0.2,2.1,0.6,2.8
		s1.1,1,2,1c0.9,0,1.5-0.4,1.9-1.1s0.6-1.6,0.6-2.8v-0.2c0-1.1-0.2-2-0.6-2.8s-1.1-1.1-2-1.1s-1.5,0.4-1.9,1.1s-0.6,1.6-0.6,2.8
		V360.6z"/>
</g>
<g class="st1">
	<path class="st2" d="M228.9,356.2l-1.2,0.2l-4.7,12.3c-0.4,0.9-0.9,1.7-1.5,2.3s-1.5,0.9-2.8,0.9c-0.3,0-0.6,0-0.8-0.1
		s-0.6-0.1-0.9-0.2l0.4-2.5c0.1,0,0.2,0,0.3,0s0.2,0,0.3,0c0.6,0,1-0.1,1.3-0.4s0.5-0.6,0.7-1l0.4-1l-4-10.4l-1.2-0.2v-2.1h6.2v2.1
		l-1.4,0.2l1.7,5.1l0.2,0.9l0.1,0l2-6l-1.4-0.2v-2.1h6.2V356.2z"/>
</g>
<g class="st1">
	<path class="st2" d="M230.1,364.8l1.6-0.4v-7.9l-1.8-0.4v-2.1h5l0.2,1.8c0.4-0.6,0.9-1.2,1.6-1.5s1.3-0.5,2.1-0.5
		c1.3,0,2.3,0.4,3,1.2s1.1,2.1,1.1,3.8v5.5l1.6,0.4v2.1h-6.5v-2.1l1.5-0.4v-5.5c0-0.9-0.2-1.5-0.5-1.8s-0.9-0.5-1.6-0.5
		c-0.5,0-0.9,0.1-1.2,0.3s-0.7,0.4-0.9,0.8v6.8l1.4,0.4v2.1h-6.4V364.8z"/>
</g>
<g class="st1">
	<path class="st2" d="M249.9,351.1v3.1h2.2v2.4h-2.2v6.5c0,0.5,0.1,0.8,0.3,1.1s0.5,0.3,0.8,0.3c0.2,0,0.4,0,0.6,0s0.4-0.1,0.6-0.1
		l0.3,2.5c-0.4,0.1-0.8,0.2-1.1,0.3s-0.8,0.1-1.2,0.1c-1.2,0-2.1-0.3-2.7-1s-1-1.7-1-3.1v-6.5h-1.9v-2.4h1.9v-3.1H249.9z"/>
</g>
<g class="st1">
	<path class="st2" d="M253.3,360.4c0-1.9,0.5-3.4,1.6-4.6s2.5-1.8,4.4-1.8c1.9,0,3.3,0.6,4.4,1.8s1.6,2.8,1.6,4.7v0.2
		c0,1.9-0.5,3.5-1.6,4.7s-2.5,1.8-4.4,1.8c-1.9,0-3.4-0.6-4.4-1.8s-1.6-2.8-1.6-4.7V360.4z M256.7,360.6c0,1.2,0.2,2.1,0.6,2.8
		s1.1,1,2,1c0.9,0,1.5-0.4,1.9-1.1s0.6-1.6,0.6-2.8v-0.2c0-1.1-0.2-2-0.6-2.8s-1.1-1.1-2-1.1s-1.5,0.4-1.9,1.1s-0.6,1.6-0.6,2.8
		V360.6z"/>
</g>
<g class="st1">
	<path class="st2" d="M266.2,364.8l1.6-0.4v-7.9l-1.8-0.4v-2.1h5l0.2,1.8c0.4-0.6,0.9-1.2,1.6-1.5s1.3-0.5,2.1-0.5
		c1.3,0,2.3,0.4,3,1.2s1.1,2.1,1.1,3.8v5.5l1.6,0.4v2.1H274v-2.1l1.5-0.4v-5.5c0-0.9-0.2-1.5-0.5-1.8s-0.9-0.5-1.6-0.5
		c-0.5,0-0.9,0.1-1.2,0.3s-0.7,0.4-0.9,0.8v6.8l1.4,0.4v2.1h-6.4V364.8z"/>
</g>
<g class="st1">
	<path class="st2" d="M287.4,351.8v-2.1h7.1v2.1l-1.8,0.4v4.9h7v-4.9l-1.8-0.4v-2.1h1.8h3.4h1.8v2.1l-1.8,0.4v12.2l1.8,0.4v2.1h-7.1
		v-2.1l1.8-0.4v-4.7h-7v4.7l1.8,0.4v2.1h-7.1v-2.1l1.8-0.4v-12.2L287.4,351.8z"/>
</g>
<g class="st1">
	<path class="st2" d="M311.9,367.1c-1.8,0-3.3-0.6-4.4-1.8c-1.1-1.2-1.6-2.7-1.6-4.5v-0.5c0-1.9,0.5-3.4,1.6-4.7
		c1-1.2,2.4-1.8,4.2-1.8c1.7,0,3,0.5,4,1.5s1.4,2.4,1.4,4.2v1.9h-7.6l0,0.1c0.1,0.8,0.3,1.5,0.8,2.1s1.2,0.8,2,0.8
		c0.8,0,1.4-0.1,1.9-0.2s1-0.4,1.6-0.7l0.9,2.1c-0.5,0.4-1.2,0.8-2,1S312.9,367.1,311.9,367.1z M311.6,356.6c-0.6,0-1.1,0.2-1.5,0.7
		s-0.6,1.1-0.7,1.9l0,0.1h4.2V359c0-0.7-0.2-1.3-0.5-1.7S312.3,356.6,311.6,356.6z"/>
</g>
<g class="st1">
	<path class="st2" d="M326.4,366.8c-0.1-0.2-0.2-0.4-0.2-0.7s-0.1-0.4-0.2-0.7c-0.4,0.5-0.9,0.8-1.5,1.1s-1.2,0.4-2,0.4
		c-1.2,0-2.2-0.3-3-1s-1.1-1.6-1.1-2.8c0-1.2,0.5-2.1,1.4-2.8s2.4-1,4.2-1h1.7v-1.2c0-0.6-0.2-1.1-0.5-1.4s-0.9-0.5-1.6-0.5
		c-0.4,0-0.7,0-1,0.1s-0.6,0.2-0.7,0.3l-0.2,1.4h-2.6l0-2.8c0.6-0.4,1.3-0.8,2.2-1.1s1.7-0.4,2.6-0.4c1.6,0,2.8,0.4,3.8,1.2
		s1.5,1.9,1.5,3.3v5.2c0,0.2,0,0.4,0,0.6s0,0.3,0,0.5l1,0.1v2.1H326.4z M323.5,364.6c0.5,0,1-0.1,1.4-0.3s0.8-0.5,1-0.8v-1.9h-1.7
		c-0.7,0-1.3,0.2-1.7,0.5s-0.6,0.7-0.6,1.2c0,0.4,0.1,0.8,0.4,1S323,364.6,323.5,364.6z"/>
</g>
<g class="st1">
	<path class="st2" d="M331.3,350.6v-2.1h5.2v15.9l1.7,0.4v2.1h-6.7v-2.1l1.7-0.4V351L331.3,350.6z"/>
</g>
<g class="st1">
	<path class="st2" d="M343.8,351.1v3.1h2.2v2.4h-2.2v6.5c0,0.5,0.1,0.8,0.3,1.1s0.5,0.3,0.8,0.3c0.2,0,0.4,0,0.6,0s0.4-0.1,0.6-0.1
		l0.3,2.5c-0.4,0.1-0.8,0.2-1.1,0.3s-0.8,0.1-1.2,0.1c-1.2,0-2.1-0.3-2.7-1s-1-1.7-1-3.1v-6.5h-1.9v-2.4h1.9v-3.1H343.8z"/>
</g>
<g class="st1">
	<path class="st2" d="M347.6,364.8l1.7-0.4V351l-1.8-0.4v-2.1h5.2v7.2c0.4-0.6,0.9-1,1.5-1.4s1.2-0.5,1.9-0.5c1.3,0,2.4,0.4,3.1,1.3
		s1.1,2.2,1.1,4.1v5.1l1.6,0.4v2.1h-6.5v-2.1l1.5-0.4v-5.1c0-1-0.2-1.7-0.5-2.1s-0.9-0.6-1.6-0.6c-0.5,0-0.9,0.1-1.2,0.3
		s-0.7,0.4-0.9,0.7v6.9l1.5,0.4v2.1h-6.5V364.8z"/>
</g>
<g class="st1">
	<path class="st2" d="M377,349.8c2,0,3.5,0.5,4.6,1.5s1.7,2.3,1.7,3.9c0,1.6-0.6,2.9-1.7,3.9s-2.7,1.5-4.6,1.5h-2.9v3.8l1.8,0.4v2.1
		h-7.1v-2.1l1.8-0.4v-12.2l-1.8-0.4v-2.1h1.8H377z M374.1,358h2.9c1,0,1.7-0.3,2.2-0.8s0.7-1.2,0.7-2c0-0.8-0.2-1.5-0.7-2
		s-1.2-0.8-2.2-0.8h-2.9V358z"/>
</g>
<g class="st1">
	<path class="st2" d="M384.2,360.4c0-1.9,0.5-3.4,1.6-4.6s2.5-1.8,4.4-1.8c1.9,0,3.3,0.6,4.4,1.8s1.6,2.8,1.6,4.7v0.2
		c0,1.9-0.5,3.5-1.6,4.7s-2.5,1.8-4.4,1.8c-1.9,0-3.4-0.6-4.4-1.8s-1.6-2.8-1.6-4.7V360.4z M387.6,360.6c0,1.2,0.2,2.1,0.6,2.8
		s1.1,1,2,1c0.9,0,1.5-0.4,1.9-1.1s0.6-1.6,0.6-2.8v-0.2c0-1.1-0.2-2-0.6-2.8s-1.1-1.1-2-1.1s-1.5,0.4-1.9,1.1s-0.6,1.6-0.6,2.8
		V360.6z"/>
</g>
<g class="st1">
	<path class="st2" d="M397.3,364.8l1.6-0.4v-7.9l-1.8-0.4v-2.1h5l0.2,1.9c0.3-0.7,0.7-1.2,1.1-1.5s1-0.6,1.6-0.6c0.2,0,0.4,0,0.6,0
		s0.4,0.1,0.5,0.1l-0.4,3.1l-1.4,0c-0.5,0-0.9,0.1-1.2,0.3s-0.6,0.5-0.8,0.8v6.2l1.6,0.4v2.1h-6.7V364.8z"/>
</g>
<g class="st1">
	<path class="st2" d="M412.5,351.1v3.1h2.2v2.4h-2.2v6.5c0,0.5,0.1,0.8,0.3,1.1s0.5,0.3,0.8,0.3c0.2,0,0.4,0,0.6,0s0.4-0.1,0.6-0.1
		l0.3,2.5c-0.4,0.1-0.8,0.2-1.1,0.3s-0.8,0.1-1.2,0.1c-1.2,0-2.1-0.3-2.7-1s-1-1.7-1-3.1v-6.5h-1.9v-2.4h1.9v-3.1H412.5z"/>
</g>
<g class="st1">
	<path class="st2" d="M424.3,366.8c-0.1-0.2-0.2-0.4-0.2-0.7s-0.1-0.4-0.2-0.7c-0.4,0.5-0.9,0.8-1.5,1.1s-1.2,0.4-2,0.4
		c-1.2,0-2.2-0.3-3-1s-1.1-1.6-1.1-2.8c0-1.2,0.5-2.1,1.4-2.8s2.4-1,4.2-1h1.7v-1.2c0-0.6-0.2-1.1-0.5-1.4s-0.9-0.5-1.6-0.5
		c-0.4,0-0.7,0-1,0.1s-0.6,0.2-0.7,0.3l-0.2,1.4H417l0-2.8c0.6-0.4,1.3-0.8,2.2-1.1s1.7-0.4,2.6-0.4c1.6,0,2.8,0.4,3.8,1.2
		s1.5,1.9,1.5,3.3v5.2c0,0.2,0,0.4,0,0.6s0,0.3,0,0.5l1,0.1v2.1H424.3z M421.3,364.6c0.5,0,1-0.1,1.4-0.3s0.8-0.5,1-0.8v-1.9h-1.7
		c-0.7,0-1.3,0.2-1.7,0.5s-0.6,0.7-0.6,1.2c0,0.4,0.1,0.8,0.4,1S420.8,364.6,421.3,364.6z"/>
</g>
<g class="st1">
	<path class="st2" d="M429.2,350.6v-2.1h5.2v15.9l1.7,0.4v2.1h-6.7v-2.1l1.7-0.4V351L429.2,350.6z"/>
</g>
<g class="st1">
	<path class="st2" d="M441.6,366.8h-3.4v-3h3.4V366.8z"/>
</g>
<g class="st1">
	<path class="st2" d="M164,407.4v4.5h-2.6l-0.1-1.9h-3.1v12l1.8,0.4v2.1h-7.1v-2.1l1.8-0.4v-12h-3.1l-0.1,1.9h-2.6v-4.5H164z"/>
</g>
<g class="st1">
	<path class="st2" d="M164,418c0-1.9,0.5-3.4,1.6-4.6s2.5-1.8,4.4-1.8c1.9,0,3.3,0.6,4.4,1.8s1.6,2.8,1.6,4.7v0.2
		c0,1.9-0.5,3.5-1.6,4.7s-2.5,1.8-4.4,1.8c-1.9,0-3.4-0.6-4.4-1.8s-1.6-2.8-1.6-4.7V418z M167.4,418.2c0,1.2,0.2,2.1,0.6,2.8
		s1.1,1,2,1c0.9,0,1.5-0.4,1.9-1.1s0.6-1.6,0.6-2.8V418c0-1.1-0.2-2-0.6-2.8s-1.1-1.1-2-1.1s-1.5,0.4-1.9,1.1s-0.6,1.6-0.6,2.8
		V418.2z"/>
</g>
<g class="st1">
	<path class="st2" d="M183,414.2v-2.4h1.9v-0.9c0-1.6,0.5-2.8,1.5-3.7s2.3-1.3,4.1-1.3c0.6,0,1.2,0.1,1.8,0.2s1.3,0.3,2.1,0.5
		l-0.5,2.7c-0.6-0.2-1.1-0.3-1.6-0.4s-1-0.1-1.6-0.1c-0.8,0-1.4,0.2-1.8,0.5s-0.6,0.9-0.6,1.6v0.9h7.7V422l1.8,0.4v2.1h-6.9v-2.1
		l1.7-0.4v-7.9h-4.3v7.9l1.7,0.4v2.1H183v-2.1l1.8-0.4v-7.9H183z"/>
</g>
<g class="st1">
	<path class="st2" d="M198.9,422.4l1.6-0.4v-7.9l-1.8-0.4v-2.1h5l0.2,1.8c0.4-0.6,0.9-1.2,1.6-1.5s1.3-0.5,2.1-0.5
		c1.3,0,2.3,0.4,3,1.2s1.1,2.1,1.1,3.8v5.5l1.6,0.4v2.1h-6.5v-2.1l1.5-0.4v-5.5c0-0.9-0.2-1.5-0.5-1.8s-0.9-0.5-1.6-0.5
		c-0.5,0-0.9,0.1-1.2,0.3s-0.7,0.4-0.9,0.8v6.8l1.4,0.4v2.1h-6.4V422.4z"/>
</g>
<g class="st1">
	<path class="st2" d="M222.3,422.9c-0.4,0.6-0.9,1-1.4,1.3s-1.2,0.5-1.9,0.5c-1.6,0-2.8-0.6-3.6-1.7s-1.3-2.6-1.3-4.5v-0.2
		c0-2,0.4-3.6,1.3-4.8s2.1-1.8,3.7-1.8c0.6,0,1.2,0.1,1.7,0.4s1,0.7,1.3,1.2v-4.5l-1.8-0.4v-2.1h1.8h3.4V422l1.6,0.4v2.1h-4.6
		L222.3,422.9z M217.6,418.5c0,1.1,0.2,2,0.6,2.6s1,1,1.8,1c0.5,0,0.9-0.1,1.3-0.3s0.7-0.5,0.9-0.9v-5.4c-0.2-0.4-0.5-0.7-0.9-0.9
		s-0.8-0.3-1.3-0.3c-0.8,0-1.4,0.4-1.8,1.1s-0.6,1.7-0.6,2.9V418.5z"/>
</g>
<g class="st1">
	<path class="st2" d="M234.2,418c0-1.9,0.5-3.4,1.6-4.6s2.5-1.8,4.4-1.8c1.9,0,3.3,0.6,4.4,1.8s1.6,2.8,1.6,4.7v0.2
		c0,1.9-0.5,3.5-1.6,4.7s-2.5,1.8-4.4,1.8c-1.9,0-3.4-0.6-4.4-1.8s-1.6-2.8-1.6-4.7V418z M237.6,418.2c0,1.2,0.2,2.1,0.6,2.8
		s1.1,1,2,1c0.9,0,1.5-0.4,1.9-1.1s0.6-1.6,0.6-2.8V418c0-1.1-0.2-2-0.6-2.8s-1.1-1.1-2-1.1s-1.5,0.4-1.9,1.1s-0.6,1.6-0.6,2.8
		V418.2z"/>
</g>
<g class="st1">
	<path class="st2" d="M252.3,408.7v3.1h2.2v2.4h-2.2v6.5c0,0.5,0.1,0.8,0.3,1.1s0.5,0.3,0.8,0.3c0.2,0,0.4,0,0.6,0s0.4-0.1,0.6-0.1
		l0.3,2.5c-0.4,0.1-0.8,0.2-1.1,0.3s-0.8,0.1-1.2,0.1c-1.2,0-2.1-0.3-2.7-1s-1-1.7-1-3.1v-6.5h-1.9v-2.4h1.9v-3.1H252.3z"/>
</g>
<g class="st1">
	<path class="st2" d="M256.2,422.4l1.7-0.4v-13.5l-1.8-0.4v-2.1h5.2v7.2c0.4-0.6,0.9-1,1.5-1.4s1.2-0.5,1.9-0.5
		c1.3,0,2.4,0.4,3.1,1.3s1.1,2.2,1.1,4.1v5.1l1.6,0.4v2.1H264v-2.1l1.5-0.4v-5.1c0-1-0.2-1.7-0.5-2.1s-0.9-0.6-1.6-0.6
		c-0.5,0-0.9,0.1-1.2,0.3s-0.7,0.4-0.9,0.7v6.9l1.5,0.4v2.1h-6.5V422.4z"/>
</g>
<g class="st1">
	<path class="st2" d="M277.3,424.7c-1.8,0-3.3-0.6-4.4-1.8s-1.6-2.7-1.6-4.5V418c0-1.9,0.5-3.4,1.6-4.7s2.4-1.8,4.2-1.8
		c1.7,0,3,0.5,4,1.5s1.4,2.4,1.4,4.2v1.9h-7.6l0,0.1c0.1,0.8,0.3,1.5,0.8,2.1s1.2,0.8,2,0.8c0.8,0,1.4-0.1,1.9-0.2s1-0.4,1.6-0.7
		l0.9,2.1c-0.5,0.4-1.2,0.8-2,1S278.3,424.7,277.3,424.7z M277,414.2c-0.6,0-1.1,0.2-1.5,0.7s-0.6,1.1-0.7,1.9l0,0.1h4.2v-0.3
		c0-0.7-0.2-1.3-0.5-1.7S277.7,414.2,277,414.2z"/>
</g>
<g class="st1">
	<path class="st2" d="M283.8,422.4l1.6-0.4v-7.9l-1.8-0.4v-2.1h5l0.2,1.9c0.3-0.7,0.7-1.2,1.1-1.5s1-0.6,1.6-0.6c0.2,0,0.4,0,0.6,0
		s0.4,0.1,0.5,0.1l-0.4,3.1l-1.4,0c-0.5,0-0.9,0.1-1.2,0.3s-0.6,0.5-0.8,0.8v6.2l1.6,0.4v2.1h-6.7V422.4z"/>
</g>
<g class="st1">
	<path class="st2" d="M299.5,418c0-1.9,0.5-3.4,1.6-4.6s2.5-1.8,4.4-1.8c1.9,0,3.3,0.6,4.4,1.8s1.6,2.8,1.6,4.7v0.2
		c0,1.9-0.5,3.5-1.6,4.7s-2.5,1.8-4.4,1.8c-1.9,0-3.4-0.6-4.4-1.8s-1.6-2.8-1.6-4.7V418z M303,418.2c0,1.2,0.2,2.1,0.6,2.8
		s1.1,1,2,1c0.9,0,1.5-0.4,1.9-1.1s0.6-1.6,0.6-2.8V418c0-1.1-0.2-2-0.6-2.8s-1.1-1.1-2-1.1s-1.5,0.4-1.9,1.1s-0.6,1.6-0.6,2.8
		V418.2z"/>
</g>
<g class="st1">
	<path class="st2" d="M312.3,413.8v-2.1h5l0.2,1.5c0.4-0.5,0.8-1,1.3-1.3s1.1-0.4,1.8-0.4c1.6,0,2.8,0.6,3.7,1.8s1.3,2.8,1.3,4.8
		v0.2c0,1.9-0.4,3.4-1.3,4.5s-2.1,1.7-3.6,1.7c-0.7,0-1.3-0.1-1.8-0.4s-1-0.6-1.3-1.1v3.7l1.7,0.4v2.1h-6.7v-2.1l1.7-0.4v-12.7
		L312.3,413.8z M322.1,418.2c0-1.2-0.2-2.2-0.6-2.9s-1-1.1-1.8-1.1c-0.5,0-1,0.1-1.3,0.3s-0.7,0.5-0.9,0.9v5.6
		c0.2,0.4,0.5,0.6,0.9,0.8s0.8,0.3,1.3,0.3c0.8,0,1.4-0.3,1.8-1s0.6-1.5,0.6-2.6V418.2z"/>
</g>
<g class="st1">
	<path class="st2" d="M331.8,408.7v3.1h2.2v2.4h-2.2v6.5c0,0.5,0.1,0.8,0.3,1.1s0.5,0.3,0.8,0.3c0.2,0,0.4,0,0.6,0s0.4-0.1,0.6-0.1
		l0.3,2.5c-0.4,0.1-0.8,0.2-1.1,0.3s-0.8,0.1-1.2,0.1c-1.2,0-2.1-0.3-2.7-1s-1-1.7-1-3.1v-6.5h-1.9v-2.4h1.9v-3.1H331.8z"/>
</g>
<g class="st1">
	<path class="st2" d="M335.6,422.4l1.7-0.4v-7.9l-1.8-0.4v-2.1h5.2V422l1.6,0.4v2.1h-6.7V422.4z M340.7,408.7h-3.4v-2.6h3.4V408.7z"
		/>
</g>
<g class="st1">
	<path class="st2" d="M343.1,418c0-1.9,0.5-3.4,1.6-4.6s2.5-1.8,4.4-1.8c1.9,0,3.3,0.6,4.4,1.8s1.6,2.8,1.6,4.7v0.2
		c0,1.9-0.5,3.5-1.6,4.7s-2.5,1.8-4.4,1.8c-1.9,0-3.4-0.6-4.4-1.8s-1.6-2.8-1.6-4.7V418z M346.5,418.2c0,1.2,0.2,2.1,0.6,2.8
		s1.1,1,2,1c0.9,0,1.5-0.4,1.9-1.1s0.6-1.6,0.6-2.8V418c0-1.1-0.2-2-0.6-2.8s-1.1-1.1-2-1.1s-1.5,0.4-1.9,1.1s-0.6,1.6-0.6,2.8
		V418.2z"/>
</g>
<g class="st1">
	<path class="st2" d="M356,422.4l1.6-0.4v-7.9l-1.8-0.4v-2.1h5l0.2,1.8c0.4-0.6,0.9-1.2,1.6-1.5s1.3-0.5,2.1-0.5
		c1.3,0,2.3,0.4,3,1.2s1.1,2.1,1.1,3.8v5.5l1.6,0.4v2.1h-6.5v-2.1l1.5-0.4v-5.5c0-0.9-0.2-1.5-0.5-1.8s-0.9-0.5-1.6-0.5
		c-0.5,0-0.9,0.1-1.2,0.3s-0.7,0.4-0.9,0.8v6.8l1.4,0.4v2.1H356V422.4z"/>
</g>
<g class="st1">
	<path class="st2" d="M381.6,416.1h-2.3l-0.4-1.6c-0.2-0.2-0.5-0.3-0.9-0.5s-0.7-0.2-1.2-0.2c-0.6,0-1.1,0.1-1.4,0.4s-0.5,0.6-0.5,1
		c0,0.4,0.2,0.7,0.5,1s1,0.5,2,0.7c1.6,0.3,2.7,0.8,3.5,1.4s1.1,1.4,1.1,2.5c0,1.1-0.5,2.1-1.5,2.8s-2.3,1.1-3.9,1.1
		c-1,0-1.9-0.1-2.7-0.4s-1.5-0.7-2.2-1.2l0-2.8h2.4l0.5,1.7c0.2,0.2,0.5,0.3,0.8,0.4s0.7,0.1,1.1,0.1c0.7,0,1.2-0.1,1.6-0.4
		s0.5-0.6,0.5-1c0-0.4-0.2-0.7-0.6-1s-1-0.5-2-0.7c-1.5-0.3-2.6-0.8-3.4-1.4s-1.1-1.4-1.1-2.4c0-1.1,0.4-2,1.3-2.7s2.1-1.2,3.7-1.2
		c1,0,1.9,0.1,2.8,0.4s1.6,0.6,2.1,1L381.6,416.1z"/>
</g>
<g class="st1">
	<path class="st2" d="M389.7,422.4l1.7-0.4v-7.9h-1.9v-2.4h1.9v-1.4c0-1.4,0.4-2.5,1.2-3.3s2-1.2,3.5-1.2c0.3,0,0.6,0,0.9,0.1
		s0.6,0.1,1,0.2l-0.3,2.5c-0.2,0-0.4-0.1-0.5-0.1s-0.4,0-0.6,0c-0.6,0-1,0.2-1.3,0.5s-0.4,0.7-0.4,1.3v1.4h2.5v2.4h-2.5v7.9l1.7,0.4
		v2.1h-6.7V422.4z"/>
</g>
<g class="st1">
	<path class="st2" d="M398.1,418c0-1.9,0.5-3.4,1.6-4.6s2.5-1.8,4.4-1.8c1.9,0,3.3,0.6,4.4,1.8s1.6,2.8,1.6,4.7v0.2
		c0,1.9-0.5,3.5-1.6,4.7s-2.5,1.8-4.4,1.8c-1.9,0-3.4-0.6-4.4-1.8s-1.6-2.8-1.6-4.7V418z M401.5,418.2c0,1.2,0.2,2.1,0.6,2.8
		s1.1,1,2,1c0.9,0,1.5-0.4,1.9-1.1s0.6-1.6,0.6-2.8V418c0-1.1-0.2-2-0.6-2.8s-1.1-1.1-2-1.1s-1.5,0.4-1.9,1.1s-0.6,1.6-0.6,2.8
		V418.2z"/>
</g>
<g class="st1">
	<path class="st2" d="M411.3,422.4l1.6-0.4v-7.9l-1.8-0.4v-2.1h5l0.2,1.9c0.3-0.7,0.7-1.2,1.1-1.5s1-0.6,1.6-0.6c0.2,0,0.4,0,0.6,0
		s0.4,0.1,0.5,0.1l-0.4,3.1l-1.4,0c-0.5,0-0.9,0.1-1.2,0.3s-0.6,0.5-0.8,0.8v6.2l1.6,0.4v2.1h-6.7V422.4z"/>
</g>
<g class="st1">
	<path class="st2" d="M134.1,437.5v3.1h2.2v2.4h-2.2v6.5c0,0.5,0.1,0.8,0.3,1.1s0.5,0.3,0.8,0.3c0.2,0,0.4,0,0.6,0s0.4-0.1,0.6-0.1
		l0.3,2.5c-0.4,0.1-0.8,0.2-1.1,0.3s-0.8,0.1-1.2,0.1c-1.2,0-2.1-0.3-2.7-1s-1-1.7-1-3.1V443h-1.9v-2.4h1.9v-3.1H134.1z"/>
</g>
<g class="st1">
	<path class="st2" d="M143.6,453.5c-1.8,0-3.3-0.6-4.4-1.8s-1.6-2.7-1.6-4.5v-0.5c0-1.9,0.5-3.4,1.6-4.7s2.4-1.8,4.2-1.8
		c1.7,0,3,0.5,4,1.5s1.4,2.4,1.4,4.2v1.9h-7.6l0,0.1c0.1,0.8,0.3,1.5,0.8,2.1s1.2,0.8,2,0.8c0.8,0,1.4-0.1,1.9-0.2s1-0.4,1.6-0.7
		l0.9,2.1c-0.5,0.4-1.2,0.8-2,1S144.7,453.5,143.6,453.5z M143.3,443c-0.6,0-1.1,0.2-1.5,0.7s-0.6,1.1-0.7,1.9l0,0.1h4.2v-0.3
		c0-0.7-0.2-1.3-0.5-1.7S144,443,143.3,443z"/>
</g>
<g class="st1">
	<path class="st2" d="M160.4,444.9h-2.3l-0.4-1.6c-0.2-0.2-0.5-0.3-0.9-0.5s-0.7-0.2-1.2-0.2c-0.6,0-1.1,0.1-1.4,0.4s-0.5,0.6-0.5,1
		c0,0.4,0.2,0.7,0.5,1s1,0.5,2,0.7c1.6,0.3,2.7,0.8,3.5,1.4s1.1,1.4,1.1,2.5c0,1.1-0.5,2.1-1.5,2.8s-2.3,1.1-3.9,1.1
		c-1,0-1.9-0.1-2.7-0.4s-1.5-0.7-2.2-1.2l0-2.8h2.4l0.5,1.7c0.2,0.2,0.5,0.3,0.8,0.4s0.7,0.1,1.1,0.1c0.7,0,1.2-0.1,1.6-0.4
		s0.5-0.6,0.5-1c0-0.4-0.2-0.7-0.6-1s-1-0.5-2-0.7c-1.5-0.3-2.6-0.8-3.4-1.4s-1.1-1.4-1.1-2.4c0-1.1,0.4-2,1.3-2.7s2.1-1.2,3.7-1.2
		c1,0,1.9,0.1,2.8,0.4s1.6,0.6,2.1,1L160.4,444.9z"/>
</g>
<g class="st1">
	<path class="st2" d="M167.2,437.5v3.1h2.2v2.4h-2.2v6.5c0,0.5,0.1,0.8,0.3,1.1s0.5,0.3,0.8,0.3c0.2,0,0.4,0,0.6,0s0.4-0.1,0.6-0.1
		l0.3,2.5c-0.4,0.1-0.8,0.2-1.1,0.3s-0.8,0.1-1.2,0.1c-1.2,0-2.1-0.3-2.7-1s-1-1.7-1-3.1V443h-1.9v-2.4h1.9v-3.1H167.2z"/>
</g>
<g class="st1">
	<path class="st2" d="M171.1,451.2l1.7-0.4V443l-1.8-0.4v-2.1h5.2v10.3l1.6,0.4v2.1h-6.7V451.2z M176.1,437.5h-3.4V435h3.4V437.5z"
		/>
</g>
<g class="st1">
	<path class="st2" d="M178.9,451.2l1.6-0.4V443l-1.8-0.4v-2.1h5l0.2,1.8c0.4-0.6,0.9-1.2,1.6-1.5s1.3-0.5,2.1-0.5
		c1.3,0,2.3,0.4,3,1.2s1.1,2.1,1.1,3.8v5.5l1.6,0.4v2.1h-6.5v-2.1l1.5-0.4v-5.5c0-0.9-0.2-1.5-0.5-1.8s-0.9-0.5-1.6-0.5
		c-0.5,0-0.9,0.1-1.2,0.3s-0.7,0.4-0.9,0.8v6.8l1.4,0.4v2.1h-6.4V451.2z"/>
</g>
<g class="st1">
	<path class="st2" d="M194.2,447c0-2,0.4-3.6,1.3-4.8s2.1-1.8,3.7-1.8c0.7,0,1.3,0.2,1.9,0.5s1,0.8,1.4,1.4l0.2-1.6h3v12.3
		c0,1.7-0.5,3-1.6,4s-2.5,1.5-4.3,1.5c-0.6,0-1.3-0.1-2-0.3s-1.4-0.4-2-0.7l0.6-2.4c0.5,0.2,1.1,0.4,1.6,0.6s1.1,0.2,1.7,0.2
		c0.8,0,1.5-0.3,1.9-0.8s0.6-1.2,0.6-2.1V452c-0.4,0.5-0.8,0.8-1.3,1.1s-1.1,0.4-1.7,0.4c-1.6,0-2.8-0.6-3.6-1.7s-1.3-2.7-1.3-4.5
		V447z M197.6,447.3c0,1.1,0.2,2,0.6,2.6s1,1,1.8,1c0.5,0,1-0.1,1.3-0.3s0.7-0.5,0.9-0.8v-5.5c-0.2-0.4-0.5-0.7-0.9-0.9
		s-0.8-0.3-1.3-0.3c-0.8,0-1.4,0.4-1.8,1.1s-0.6,1.7-0.6,2.9V447.3z"/>
</g>
<g class="st1">
	<path class="st2" d="M211.4,452.8c0,0.8-0.2,1.6-0.7,2.5s-1,1.6-1.6,2.2l-1.7-0.9c0.3-0.5,0.5-1.1,0.7-1.7s0.2-1.2,0.2-2v-2.6h3.1
		L211.4,452.8z"/>
</g>
<g class="st1">
	<path class="st2" d="M224.6,442.6l-1.2,0.2l1.7,5.7l0.2,1.2h0.1l0.2-1.2l1.7-5.7l-1.2-0.2v-2.1h5.8v2.1l-1.1,0.2l-3.7,10.4h-3.3
		l-3.8-10.4l-1.1-0.2v-2.1h5.8V442.6z"/>
</g>
<g class="st1">
	<path class="st2" d="M233.1,451.2l1.7-0.4V443l-1.8-0.4v-2.1h5.2v10.3l1.6,0.4v2.1h-6.7V451.2z M238.2,437.5h-3.4V435h3.4V437.5z"
		/>
</g>
<g class="st1">
	<path class="st2" d="M251.1,444.9h-2.3l-0.4-1.6c-0.2-0.2-0.5-0.3-0.9-0.5s-0.7-0.2-1.2-0.2c-0.6,0-1.1,0.1-1.4,0.4s-0.5,0.6-0.5,1
		c0,0.4,0.2,0.7,0.5,1s1,0.5,2,0.7c1.6,0.3,2.7,0.8,3.5,1.4s1.1,1.4,1.1,2.5c0,1.1-0.5,2.1-1.5,2.8s-2.3,1.1-3.9,1.1
		c-1,0-1.9-0.1-2.7-0.4s-1.5-0.7-2.2-1.2l0-2.8h2.4l0.5,1.7c0.2,0.2,0.5,0.3,0.8,0.4s0.7,0.1,1.1,0.1c0.7,0,1.2-0.1,1.6-0.4
		s0.5-0.6,0.5-1c0-0.4-0.2-0.7-0.6-1s-1-0.5-2-0.7c-1.5-0.3-2.6-0.8-3.4-1.4s-1.1-1.4-1.1-2.4c0-1.1,0.4-2,1.3-2.7s2.1-1.2,3.7-1.2
		c1,0,1.9,0.1,2.8,0.4s1.6,0.6,2.1,1L251.1,444.9z"/>
</g>
<g class="st1">
	<path class="st2" d="M252.8,451.2l1.7-0.4V443l-1.8-0.4v-2.1h5.2v10.3l1.6,0.4v2.1h-6.7V451.2z M257.9,437.5h-3.4V435h3.4V437.5z"
		/>
</g>
<g class="st1">
	<path class="st2" d="M265.1,437.5v3.1h2.2v2.4h-2.2v6.5c0,0.5,0.1,0.8,0.3,1.1s0.5,0.3,0.8,0.3c0.2,0,0.4,0,0.6,0s0.4-0.1,0.6-0.1
		l0.3,2.5c-0.4,0.1-0.8,0.2-1.1,0.3s-0.8,0.1-1.2,0.1c-1.2,0-2.1-0.3-2.7-1s-1-1.7-1-3.1V443h-1.9v-2.4h1.9v-3.1H265.1z"/>
</g>
<g class="st1">
	<path class="st2" d="M275.1,447c0-2,0.4-3.6,1.3-4.8s2.1-1.8,3.7-1.8c0.7,0,1.3,0.2,1.9,0.5s1,0.8,1.4,1.4l0.2-1.6h3v12.3
		c0,1.7-0.5,3-1.6,4s-2.5,1.5-4.3,1.5c-0.6,0-1.3-0.1-2-0.3s-1.4-0.4-2-0.7l0.6-2.4c0.5,0.2,1.1,0.4,1.6,0.6s1.1,0.2,1.7,0.2
		c0.8,0,1.5-0.3,1.9-0.8s0.6-1.2,0.6-2.1V452c-0.4,0.5-0.8,0.8-1.3,1.1s-1.1,0.4-1.7,0.4c-1.6,0-2.8-0.6-3.6-1.7s-1.3-2.7-1.3-4.5
		V447z M278.5,447.3c0,1.1,0.2,2,0.6,2.6s1,1,1.8,1c0.5,0,1-0.1,1.3-0.3s0.7-0.5,0.9-0.8v-5.5c-0.2-0.4-0.5-0.7-0.9-0.9
		s-0.8-0.3-1.3-0.3c-0.8,0-1.4,0.4-1.8,1.1s-0.6,1.7-0.6,2.9V447.3z"/>
</g>
<g class="st1">
	<path class="st2" d="M294.5,453.5c-1.8,0-3.3-0.6-4.4-1.8s-1.6-2.7-1.6-4.5v-0.5c0-1.9,0.5-3.4,1.6-4.7s2.4-1.8,4.2-1.8
		c1.7,0,3,0.5,4,1.5s1.4,2.4,1.4,4.2v1.9h-7.6l0,0.1c0.1,0.8,0.3,1.5,0.8,2.1s1.2,0.8,2,0.8c0.8,0,1.4-0.1,1.9-0.2s1-0.4,1.6-0.7
		l0.9,2.1c-0.5,0.4-1.2,0.8-2,1S295.6,453.5,294.5,453.5z M294.2,443c-0.6,0-1.1,0.2-1.5,0.7s-0.6,1.1-0.7,1.9l0,0.1h4.2v-0.3
		c0-0.7-0.2-1.3-0.5-1.7S294.9,443,294.2,443z"/>
</g>
<g class="st1">
	<path class="st2" d="M306,437.5v3.1h2.2v2.4H306v6.5c0,0.5,0.1,0.8,0.3,1.1s0.5,0.3,0.8,0.3c0.2,0,0.4,0,0.6,0s0.4-0.1,0.6-0.1
		l0.3,2.5c-0.4,0.1-0.8,0.2-1.1,0.3s-0.8,0.1-1.2,0.1c-1.2,0-2.1-0.3-2.7-1s-1-1.7-1-3.1V443h-1.9v-2.4h1.9v-3.1H306z"/>
</g>
<g class="st1">
	<path class="st2" d="M314.9,437.5v3.1h2.2v2.4h-2.2v6.5c0,0.5,0.1,0.8,0.3,1.1s0.5,0.3,0.8,0.3c0.2,0,0.4,0,0.6,0s0.4-0.1,0.6-0.1
		l0.3,2.5c-0.4,0.1-0.8,0.2-1.1,0.3s-0.8,0.1-1.2,0.1c-1.2,0-2.1-0.3-2.7-1s-1-1.7-1-3.1V443h-1.9v-2.4h1.9v-3.1H314.9z"/>
</g>
<g class="st1">
	<path class="st2" d="M324.4,453.5c-1.8,0-3.3-0.6-4.4-1.8s-1.6-2.7-1.6-4.5v-0.5c0-1.9,0.5-3.4,1.6-4.7s2.4-1.8,4.2-1.8
		c1.7,0,3,0.5,4,1.5s1.4,2.4,1.4,4.2v1.9h-7.6l0,0.1c0.1,0.8,0.3,1.5,0.8,2.1s1.2,0.8,2,0.8c0.8,0,1.4-0.1,1.9-0.2s1-0.4,1.6-0.7
		l0.9,2.1c-0.5,0.4-1.2,0.8-2,1S325.4,453.5,324.4,453.5z M324.1,443c-0.6,0-1.1,0.2-1.5,0.7s-0.6,1.1-0.7,1.9l0,0.1h4.2v-0.3
		c0-0.7-0.2-1.3-0.5-1.7S324.8,443,324.1,443z"/>
</g>
<g class="st1">
	<path class="st2" d="M341.1,444.9h-2.3l-0.4-1.6c-0.2-0.2-0.5-0.3-0.9-0.5s-0.7-0.2-1.2-0.2c-0.6,0-1.1,0.1-1.4,0.4s-0.5,0.6-0.5,1
		c0,0.4,0.2,0.7,0.5,1s1,0.5,2,0.7c1.6,0.3,2.7,0.8,3.5,1.4s1.1,1.4,1.1,2.5c0,1.1-0.5,2.1-1.5,2.8s-2.3,1.1-3.9,1.1
		c-1,0-1.9-0.1-2.7-0.4s-1.5-0.7-2.2-1.2l0-2.8h2.4l0.5,1.7c0.2,0.2,0.5,0.3,0.8,0.4s0.7,0.1,1.1,0.1c0.7,0,1.2-0.1,1.6-0.4
		s0.5-0.6,0.5-1c0-0.4-0.2-0.7-0.6-1s-1-0.5-2-0.7c-1.5-0.3-2.6-0.8-3.4-1.4s-1.1-1.4-1.1-2.4c0-1.1,0.4-2,1.3-2.7s2.1-1.2,3.7-1.2
		c1,0,1.9,0.1,2.8,0.4s1.6,0.6,2.1,1L341.1,444.9z"/>
</g>
<g class="st1">
	<path class="st2" d="M347.9,437.5v3.1h2.2v2.4h-2.2v6.5c0,0.5,0.1,0.8,0.3,1.1s0.5,0.3,0.8,0.3c0.2,0,0.4,0,0.6,0s0.4-0.1,0.6-0.1
		l0.3,2.5c-0.4,0.1-0.8,0.2-1.1,0.3s-0.8,0.1-1.2,0.1c-1.2,0-2.1-0.3-2.7-1s-1-1.7-1-3.1V443h-1.9v-2.4h1.9v-3.1H347.9z"/>
</g>
<g class="st1">
	<path class="st2" d="M357.4,453.5c-1.8,0-3.3-0.6-4.4-1.8s-1.6-2.7-1.6-4.5v-0.5c0-1.9,0.5-3.4,1.6-4.7s2.4-1.8,4.2-1.8
		c1.7,0,3,0.5,4,1.5s1.4,2.4,1.4,4.2v1.9H355l0,0.1c0.1,0.8,0.3,1.5,0.8,2.1s1.2,0.8,2,0.8c0.8,0,1.4-0.1,1.9-0.2s1-0.4,1.6-0.7
		l0.9,2.1c-0.5,0.4-1.2,0.8-2,1S358.5,453.5,357.4,453.5z M357.1,443c-0.6,0-1.1,0.2-1.5,0.7s-0.6,1.1-0.7,1.9l0,0.1h4.2v-0.3
		c0-0.7-0.2-1.3-0.5-1.7S357.8,443,357.1,443z"/>
</g>
<g class="st1">
	<path class="st2" d="M372.3,451.7c-0.4,0.6-0.9,1-1.4,1.3s-1.2,0.5-1.9,0.5c-1.6,0-2.8-0.6-3.6-1.7s-1.3-2.6-1.3-4.5V447
		c0-2,0.4-3.6,1.3-4.8s2.1-1.8,3.7-1.8c0.6,0,1.2,0.1,1.7,0.4s1,0.7,1.3,1.2v-4.5l-1.8-0.4V435h1.8h3.4v15.9l1.6,0.4v2.1h-4.6
		L372.3,451.7z M367.5,447.3c0,1.1,0.2,2,0.6,2.6s1,1,1.8,1c0.5,0,0.9-0.1,1.3-0.3s0.7-0.5,0.9-0.9v-5.4c-0.2-0.4-0.5-0.7-0.9-0.9
		s-0.8-0.3-1.3-0.3c-0.8,0-1.4,0.4-1.8,1.1s-0.6,1.7-0.6,2.9V447.3z"/>
</g>
<g class="st1">
	<path class="st2" d="M382.7,453.2h-3.4v-3h3.4V453.2z"/>
</g>
<g class="st1">
	<path class="st2" d="M390.2,450.9c0.6,0,1.1-0.2,1.5-0.5s0.6-0.8,0.6-1.4h3.1l0,0.1c0,1.3-0.4,2.4-1.4,3.2s-2.2,1.3-3.7,1.3
		c-1.9,0-3.3-0.6-4.4-1.8s-1.5-2.7-1.5-4.6v-0.4c0-1.9,0.5-3.4,1.6-4.6s2.5-1.8,4.5-1.8c1,0,1.9,0.2,2.8,0.5s1.5,0.7,2,1.3l0,3.4
		h-2.8l-0.6-2c-0.2-0.1-0.4-0.3-0.6-0.4s-0.5-0.1-0.9-0.1c-1,0-1.7,0.4-2.1,1.1s-0.6,1.6-0.6,2.7v0.4c0,1.1,0.2,2,0.6,2.7
		S389.3,450.9,390.2,450.9z"/>
</g>
<g class="st1">
	<path class="st2" d="M405,451.7c-0.4,0.6-0.9,1-1.4,1.3s-1.2,0.5-1.9,0.5c-1.6,0-2.8-0.6-3.6-1.7s-1.3-2.6-1.3-4.5V447
		c0-2,0.4-3.6,1.3-4.8s2.1-1.8,3.7-1.8c0.6,0,1.2,0.1,1.7,0.4s1,0.7,1.3,1.2v-4.5L403,437V435h1.8h3.4v15.9l1.6,0.4v2.1h-4.6
		L405,451.7z M400.3,447.3c0,1.1,0.2,2,0.6,2.6s1,1,1.8,1c0.5,0,0.9-0.1,1.3-0.3s0.7-0.5,0.9-0.9v-5.4c-0.2-0.4-0.5-0.7-0.9-0.9
		s-0.8-0.3-1.3-0.3c-0.8,0-1.4,0.4-1.8,1.1s-0.6,1.7-0.6,2.9V447.3z"/>
</g>
<g class="st1">
	<path class="st2" d="M416.6,450.9c0.6,0,1.1-0.2,1.5-0.5s0.6-0.8,0.6-1.4h3.1l0,0.1c0,1.3-0.4,2.4-1.4,3.2s-2.2,1.3-3.7,1.3
		c-1.9,0-3.3-0.6-4.4-1.8s-1.5-2.7-1.5-4.6v-0.4c0-1.9,0.5-3.4,1.6-4.6s2.5-1.8,4.5-1.8c1,0,1.9,0.2,2.8,0.5s1.5,0.7,2,1.3l0,3.4
		h-2.8l-0.6-2c-0.2-0.1-0.4-0.3-0.6-0.4s-0.5-0.1-0.9-0.1c-1,0-1.7,0.4-2.1,1.1s-0.6,1.6-0.6,2.7v0.4c0,1.1,0.2,2,0.6,2.7
		S415.7,450.9,416.6,450.9z"/>
</g>
<g class="st1">
	<path class="st2" d="M427.2,453.2h-3.4v-3h3.4V453.2z"/>
</g>
<g class="st1">
	<path class="st2" d="M429,447c0-2,0.4-3.6,1.3-4.8s2.1-1.8,3.7-1.8c0.7,0,1.3,0.2,1.9,0.5s1,0.8,1.4,1.4l0.2-1.6h3v12.3
		c0,1.7-0.5,3-1.6,4s-2.5,1.5-4.3,1.5c-0.6,0-1.3-0.1-2-0.3s-1.4-0.4-2-0.7l0.6-2.4c0.5,0.2,1.1,0.4,1.6,0.6s1.1,0.2,1.7,0.2
		c0.8,0,1.5-0.3,1.9-0.8s0.6-1.2,0.6-2.1V452c-0.4,0.5-0.8,0.8-1.3,1.1s-1.1,0.4-1.7,0.4c-1.6,0-2.8-0.6-3.6-1.7s-1.3-2.7-1.3-4.5
		V447z M432.5,447.3c0,1.1,0.2,2,0.6,2.6s1,1,1.8,1c0.5,0,1-0.1,1.3-0.3s0.7-0.5,0.9-0.8v-5.5c-0.2-0.4-0.5-0.7-0.9-0.9
		s-0.8-0.3-1.3-0.3c-0.8,0-1.4,0.4-1.8,1.1s-0.6,1.7-0.6,2.9V447.3z"/>
</g>
<g class="st1">
	<path class="st2" d="M442.4,446.8c0-1.9,0.5-3.4,1.6-4.6s2.5-1.8,4.4-1.8c1.9,0,3.3,0.6,4.4,1.8s1.6,2.8,1.6,4.7v0.2
		c0,1.9-0.5,3.5-1.6,4.7s-2.5,1.8-4.4,1.8c-1.9,0-3.4-0.6-4.4-1.8s-1.6-2.8-1.6-4.7V446.8z M445.8,447c0,1.2,0.2,2.1,0.6,2.8
		s1.1,1,2,1c0.9,0,1.5-0.4,1.9-1.1s0.6-1.6,0.6-2.8v-0.2c0-1.1-0.2-2-0.6-2.8s-1.1-1.1-2-1.1s-1.5,0.4-1.9,1.1s-0.6,1.6-0.6,2.8V447
		z"/>
</g>
<g class="st1">
	<path class="st2" d="M460.8,442.6l-1.2,0.2l1.7,5.7l0.2,1.2h0.1l0.2-1.2l1.7-5.7l-1.2-0.2v-2.1h5.8v2.1l-1.1,0.2l-3.7,10.4h-3.3
		l-3.8-10.4l-1.1-0.2v-2.1h5.8V442.6z"/>
</g>
</svg>
