<svg id="Layer_1" data-name="Layer 1" xmlns="http://www.w3.org/2000/svg" viewBox="0 0 611.8 611.8"><defs><style>.cls-1{fill:#f5faf8;stroke:#a967aa;stroke-linecap:round;stroke-linejoin:round;stroke-width:11.8px;}.cls-2{font-size:32px;fill:#a967aa;font-family:RobotoSlab-Bold, Roboto Slab;font-weight:700;}.cls-3{letter-spacing:-0.01em;}.cls-4{letter-spacing:0.01em;}.cls-5{letter-spacing:-0.02em;}.cls-6{letter-spacing:-0.03em;}.cls-7{letter-spacing:-0.02em;}.cls-8{letter-spacing:0em;}.cls-9{letter-spacing:-0.02em;}.cls-10{letter-spacing:0.01em;}.cls-11{letter-spacing:-0.03em;}.cls-12{letter-spacing:0em;}.cls-13{letter-spacing:-0.02em;}.cls-14{letter-spacing:-0.01em;}.cls-15{letter-spacing:-0.03em;}.cls-16{font-size:21px;letter-spacing:-0.22em;}.cls-17{font-size:24px;}.cls-18{letter-spacing:-0.01em;}.cls-19{letter-spacing:-0.02em;}.cls-20{letter-spacing:-0.01em;}.cls-21{letter-spacing:0em;}.cls-22{letter-spacing:-0.01em;}.cls-23{letter-spacing:-0.01em;}.cls-24{letter-spacing:0em;}.cls-25{letter-spacing:0.01em;}.cls-26{letter-spacing:-0.01em;}.cls-27{letter-spacing:0.01em;}.cls-28{letter-spacing:0.01em;}.cls-29{letter-spacing:-0.02em;}.cls-30{letter-spacing:-0.01em;}.cls-31{letter-spacing:0em;}.cls-32{letter-spacing:0em;}.cls-33{letter-spacing:-0.02em;}.cls-34{letter-spacing:-0.02em;}.cls-35{letter-spacing:-0.02em;}.cls-36{letter-spacing:-0.01em;}.cls-37{letter-spacing:-0.01em;}.cls-38{letter-spacing:0em;}.cls-39{letter-spacing:-0.01em;}.cls-40{letter-spacing:0em;}.cls-41{letter-spacing:0em;}.cls-42{letter-spacing:0.01em;}.cls-43{letter-spacing:-0.02em;}.cls-44{letter-spacing:0.01em;}.cls-45{letter-spacing:-0.03em;}.cls-46{letter-spacing:0em;}.cls-47{letter-spacing:-0.02em;}.cls-48{letter-spacing:-0.02em;}.cls-49{letter-spacing:-0.01em;}.cls-50{letter-spacing:0em;}.cls-51{letter-spacing:-0.01em;}.cls-52{letter-spacing:-0.01em;}.cls-53{letter-spacing:0em;}.cls-54{letter-spacing:0.01em;}.cls-55{letter-spacing:-0.02em;}.cls-56{letter-spacing:-0.05em;}.cls-57{letter-spacing:-0.01em;}.cls-58{letter-spacing:-0.02em;}.cls-59{letter-spacing:-0.01em;}.cls-60{letter-spacing:-0.01em;}.cls-61{letter-spacing:0em;}.cls-62{letter-spacing:-0.01em;}.cls-63{letter-spacing:-0.02em;}.cls-64{letter-spacing:0em;}.cls-65{letter-spacing:0.01em;}.cls-66{letter-spacing:0.01em;}.cls-67{letter-spacing:0em;}.cls-68{letter-spacing:0em;}.cls-69{letter-spacing:-0.02em;}.cls-70{letter-spacing:-0.01em;}.cls-71{letter-spacing:-0.03em;}.cls-72{letter-spacing:-0.01em;}.cls-73{letter-spacing:-0.01em;}.cls-74{letter-spacing:-0.02em;}.cls-75{letter-spacing:0em;}.cls-76{letter-spacing:-0.03em;}.cls-77{letter-spacing:0.01em;}.cls-78{letter-spacing:-0.02em;}.cls-79{letter-spacing:0em;}.cls-80{letter-spacing:0.01em;}.cls-81{letter-spacing:-0.03em;}.cls-82{letter-spacing:0em;}.cls-83{letter-spacing:-0.01em;}.cls-84{letter-spacing:-0.01em;}.cls-85{letter-spacing:-0.01em;}.cls-86{letter-spacing:-0.01em;}.cls-87{letter-spacing:-0.01em;}.cls-88{letter-spacing:0em;}.cls-89{letter-spacing:-0.02em;}.cls-90{letter-spacing:0.01em;}.cls-91{letter-spacing:-0.03em;}.cls-92{letter-spacing:-0.02em;}.cls-93{letter-spacing:-0.02em;}.cls-94{letter-spacing:-0.01em;}.cls-95{letter-spacing:-0.03em;}.cls-96{letter-spacing:-0.01em;}.cls-97{letter-spacing:-0.02em;}.cls-98{letter-spacing:-0.01em;}.cls-99{letter-spacing:0.01em;}.cls-100{letter-spacing:-0.05em;}.cls-101{letter-spacing:0.01em;}.cls-102{letter-spacing:-0.01em;}.cls-103{letter-spacing:-0.01em;}.cls-104{letter-spacing:-0.02em;}.cls-105{letter-spacing:-0.02em;}.cls-106{letter-spacing:-0.01em;}.cls-107{letter-spacing:0em;}.cls-108{letter-spacing:-0.02em;}.cls-109{letter-spacing:-0.01em;}.cls-110{letter-spacing:-0.01em;}.cls-111{letter-spacing:-0.02em;}.cls-112{letter-spacing:-0.01em;}.cls-113{letter-spacing:0.01em;}.cls-114{letter-spacing:-0.01em;}.cls-115{letter-spacing:-0.01em;}.cls-116{letter-spacing:-0.03em;}.cls-117{letter-spacing:-0.02em;}.cls-118{letter-spacing:-0.01em;}.cls-119{letter-spacing:0.01em;}.cls-120{letter-spacing:-0.01em;}.cls-121{letter-spacing:-0.01em;}.cls-122{letter-spacing:-0.01em;}.cls-123{letter-spacing:0em;}.cls-124{letter-spacing:-0.02em;}</style></defs><title>std web mockupsasfd</title><rect class="cls-1" x="5.9" y="5.9" width="600" height="600" rx="300" ry="300"/><text class="cls-2" transform="translate(139.19 140.04)"><tspan class="cls-3">M</tspan><tspan class="cls-4" x="29.9" y="0">a</tspan><tspan class="cls-5" x="47.65" y="0">k</tspan><tspan x="66.48" y="0">e </tspan><tspan class="cls-4" x="91.37" y="0">a</tspan><tspan x="109.11" y="0">n </tspan><tspan class="cls-6" x="137.27" y="0">A</tspan><tspan class="cls-7" x="159.17" y="0">p</tspan><tspan class="cls-8" x="177.92" y="0">p</tspan><tspan class="cls-9" x="197.15" y="0">o</tspan><tspan class="cls-10" x="214.49" y="0">i</tspan><tspan class="cls-11" x="225" y="0">n</tspan><tspan class="cls-12" x="244.28" y="0">t</tspan><tspan class="cls-13" x="256.33" y="0">m</tspan><tspan class="cls-14" x="285.49" y="0">e</tspan><tspan class="cls-15" x="302.2" y="0">n</tspan><tspan x="321.48" y="0">t</tspan><tspan class="cls-16"><tspan x="9.17" y="25.2">	</tspan></tspan><tspan class="cls-17"><tspan class="cls-18" x="9.17" y="54">I</tspan><tspan x="17.4" y="54">f </tspan><tspan class="cls-19" x="32.21" y="54">y</tspan><tspan class="cls-20" x="46.02" y="54">o</tspan><tspan x="59.12" y="54">u </tspan><tspan class="cls-21" x="79.98" y="54">a</tspan><tspan class="cls-22" x="93.1" y="54">r</tspan><tspan x="102.88" y="54">e </tspan><tspan class="cls-23" x="121.55" y="54">s</tspan><tspan class="cls-24" x="133.71" y="54">e</tspan><tspan class="cls-25" x="146.39" y="54">x</tspan><tspan class="cls-26" x="160.53" y="54">u</tspan><tspan class="cls-27" x="175.36" y="54">a</tspan><tspan class="cls-28" x="188.71" y="54">l</tspan><tspan class="cls-29" x="196.57" y="54">l</tspan><tspan x="203.7" y="54">y </tspan><tspan class="cls-30" x="223.79" y="54">a</tspan><tspan class="cls-31" x="236.73" y="54">c</tspan><tspan class="cls-32" x="249.27" y="54">t</tspan><tspan class="cls-33" x="258.29" y="54">i</tspan><tspan class="cls-34" x="265.46" y="54">v</tspan><tspan class="cls-35" x="278.73" y="54">e</tspan><tspan x="291.1" y="54">, </tspan><tspan class="cls-36" x="-10.83" y="82.8">e</tspan><tspan class="cls-37" x="1.65" y="82.8">s</tspan><tspan class="cls-38" x="13.76" y="82.8">p</tspan><tspan class="cls-39" x="28.21" y="82.8">e</tspan><tspan class="cls-40" x="40.88" y="82.8">c</tspan><tspan class="cls-41" x="53.44" y="82.8">i</tspan><tspan class="cls-27" x="61.15" y="82.8">a</tspan><tspan class="cls-42" x="74.5" y="82.8">l</tspan><tspan class="cls-43" x="82.36" y="82.8">l</tspan><tspan x="89.49" y="82.8">y </tspan><tspan class="cls-44" x="109.58" y="82.8">w</tspan><tspan class="cls-45" x="129.03" y="82.8">i</tspan><tspan class="cls-46" x="136.15" y="82.8">t</tspan><tspan x="145.22" y="82.8">h </tspan><tspan class="cls-47" x="166.36" y="82.8">m</tspan><tspan class="cls-48" x="188.31" y="82.8">o</tspan><tspan class="cls-49" x="201.19" y="82.8">r</tspan><tspan x="210.97" y="82.8">e </tspan><tspan class="cls-46" x="229.64" y="82.8">t</tspan><tspan class="cls-50" x="238.7" y="82.8">h</tspan><tspan class="cls-27" x="253.94" y="82.8">a</tspan><tspan x="267.29" y="82.8">n </tspan><tspan class="cls-51" x="288.41" y="82.8">o</tspan><tspan class="cls-19" x="301.52" y="82.8">n</tspan><tspan x="316.37" y="82.8">e </tspan><tspan class="cls-52" x="-10.83" y="111.6">p</tspan><tspan class="cls-53" x="3.46" y="111.6">a</tspan><tspan class="cls-54" x="16.59" y="111.6">r</tspan><tspan class="cls-46" x="26.96" y="111.6">t</tspan><tspan class="cls-19" x="36.02" y="111.6">n</tspan><tspan class="cls-55" x="50.87" y="111.6">e</tspan><tspan class="cls-56" x="63.22" y="111.6">r</tspan><tspan x="72.24" y="111.6">, </tspan><tspan class="cls-19" x="84.01" y="111.6">y</tspan><tspan class="cls-20" x="97.82" y="111.6">o</tspan><tspan x="110.92" y="111.6">u </tspan><tspan class="cls-57" x="131.78" y="111.6">s</tspan><tspan class="cls-58" x="144.01" y="111.6">h</tspan><tspan class="cls-59" x="158.88" y="111.6">o</tspan><tspan class="cls-12" x="171.99" y="111.6">u</tspan><tspan class="cls-60" x="187.04" y="111.6">l</tspan><tspan x="194.41" y="111.6">d </tspan><tspan class="cls-61" x="214.49" y="111.6">g</tspan><tspan class="cls-62" x="228.12" y="111.6">e</tspan><tspan x="240.62" y="111.6">t </tspan><tspan class="cls-63" x="255.46" y="111.6">t</tspan><tspan class="cls-36" x="263.92" y="111.6">e</tspan><tspan class="cls-37" x="276.4" y="111.6">s</tspan><tspan class="cls-63" x="288.5" y="111.6">t</tspan><tspan class="cls-64" x="296.96" y="111.6">e</tspan><tspan class="cls-65" x="309.68" y="111.6">d</tspan><tspan x="324.09" y="111.6">.</tspan><tspan class="cls-18" x="9.17" y="169.2">I</tspan><tspan x="17.4" y="169.2">f </tspan><tspan class="cls-19" x="32.21" y="169.2">y</tspan><tspan class="cls-20" x="46.02" y="169.2">o</tspan><tspan x="59.12" y="169.2">u </tspan><tspan class="cls-21" x="79.98" y="169.2">a</tspan><tspan class="cls-22" x="93.1" y="169.2">r</tspan><tspan x="102.88" y="169.2">e a </tspan><tspan class="cls-66" x="140.62" y="169.2">U</tspan><tspan class="cls-67" x="158.9" y="169.2">M</tspan><tspan x="181.56" y="169.2">N </tspan><tspan class="cls-37" x="205.98" y="169.2">s</tspan><tspan class="cls-68" x="218.09" y="169.2">t</tspan><tspan class="cls-69" x="227.02" y="169.2">u</tspan><tspan class="cls-19" x="241.59" y="169.2">d</tspan><tspan class="cls-70" x="255.4" y="169.2">e</tspan><tspan class="cls-71" x="267.98" y="169.2">n</tspan><tspan class="cls-72" x="282.51" y="169.2">t</tspan><tspan x="291.33" y="169.2">, </tspan><tspan class="cls-73" x="-10.83" y="198">c</tspan><tspan class="cls-27" x="1.64" y="198">a</tspan><tspan class="cls-42" x="15" y="198">l</tspan><tspan x="22.85" y="198">l </tspan><tspan class="cls-74" x="36.39" y="198">6</tspan><tspan class="cls-75" x="49.4" y="198">1</tspan><tspan class="cls-76" x="59.91" y="198">2</tspan><tspan class="cls-77" x="72.52" y="198">-</tspan><tspan class="cls-78" x="82.24" y="198">6</tspan><tspan class="cls-79" x="95.28" y="198">2</tspan><tspan class="cls-80" x="108.56" y="198">5</tspan><tspan class="cls-81" x="121.5" y="198">-</tspan><tspan class="cls-82" x="130.39" y="198">3</tspan><tspan class="cls-83" x="143.39" y="198">22</tspan><tspan x="169.65" y="198">2 </tspan><tspan class="cls-48" x="188.8" y="198">o</tspan><tspan x="201.68" y="198">r </tspan><tspan class="cls-84" x="217.66" y="198">a</tspan><tspan class="cls-85" x="230.6" y="198">cc</tspan><tspan class="cls-36" x="255.53" y="198">e</tspan><tspan class="cls-86" x="268.01" y="198">s</tspan><tspan x="280.09" y="198">s </tspan><tspan class="cls-19" x="-10.83" y="226.8">y</tspan><tspan class="cls-59" x="2.98" y="226.8">o</tspan><tspan class="cls-87" x="16.08" y="226.8">u</tspan><tspan x="30.9" y="226.8">r </tspan><tspan class="cls-88" x="46.89" y="226.8">B</tspan><tspan class="cls-89" x="62.77" y="226.8">o</tspan><tspan class="cls-90" x="75.85" y="226.8">y</tspan><tspan class="cls-91" x="90.36" y="226.8">n</tspan><tspan class="cls-92" x="104.88" y="226.8">t</tspan><tspan class="cls-51" x="113.36" y="226.8">o</tspan><tspan x="126.47" y="226.8">n </tspan><tspan class="cls-93" x="147.59" y="226.8">H</tspan><tspan class="cls-94" x="165.92" y="226.8">e</tspan><tspan class="cls-27" x="178.43" y="226.8">a</tspan><tspan class="cls-95" x="191.78" y="226.8">l</tspan><tspan class="cls-46" x="198.83" y="226.8">t</tspan><tspan x="207.9" y="226.8">h </tspan><tspan class="cls-96" x="229.04" y="226.8">P</tspan><tspan class="cls-97" x="244.25" y="226.8">o</tspan><tspan class="cls-54" x="257.13" y="226.8">r</tspan><tspan class="cls-98" x="267.5" y="226.8">t</tspan><tspan class="cls-27" x="276.25" y="226.8">a</tspan><tspan class="cls-99" x="289.6" y="226.8">l</tspan><tspan x="297.46" y="226.8">.</tspan><tspan class="cls-100" x="9.17" y="284.4">T</tspan><tspan x="24.04" y="284.4">o </tspan><tspan class="cls-101" x="43.38" y="284.4">fi</tspan><tspan class="cls-102" x="59.2" y="284.4">n</tspan><tspan x="74.17" y="284.4">d </tspan><tspan class="cls-103" x="94.25" y="284.4">o</tspan><tspan class="cls-46" x="107.35" y="284.4">t</tspan><tspan class="cls-104" x="116.42" y="284.4">h</tspan><tspan class="cls-55" x="131.27" y="284.4">e</tspan><tspan x="143.63" y="284.4">r </tspan><tspan class="cls-105" x="159.61" y="284.4">o</tspan><tspan class="cls-106" x="172.59" y="284.4">p</tspan><tspan class="cls-107" x="186.8" y="284.4">t</tspan><tspan class="cls-108" x="195.82" y="284.4">i</tspan><tspan class="cls-51" x="203.17" y="284.4">o</tspan><tspan class="cls-109" x="216.28" y="284.4">n</tspan><tspan x="231.33" y="284.4">s </tspan><tspan class="cls-110" x="249.57" y="284.4">f</tspan><tspan class="cls-97" x="258.2" y="284.4">o</tspan><tspan x="271.08" y="284.4">r </tspan><tspan class="cls-63" x="-10.83" y="313.2">t</tspan><tspan class="cls-36" x="-2.37" y="313.2">e</tspan><tspan class="cls-37" x="10.11" y="313.2">s</tspan><tspan class="cls-107" x="22.22" y="313.2">t</tspan><tspan class="cls-99" x="31.24" y="313.2">i</tspan><tspan class="cls-111" x="39.17" y="313.2">n</tspan><tspan class="cls-112" x="54.04" y="313.2">g</tspan><tspan x="67.55" y="313.2">, </tspan><tspan class="cls-113" x="79.33" y="313.2">v</tspan><tspan class="cls-114" x="93.26" y="313.2">i</tspan><tspan class="cls-115" x="100.79" y="313.2">s</tspan><tspan class="cls-116" x="112.97" y="313.2">i</tspan><tspan x="120.09" y="313.2">t </tspan><tspan class="cls-61" x="134.92" y="313.2">g</tspan><tspan class="cls-62" x="148.55" y="313.2">e</tspan><tspan class="cls-38" x="161.05" y="313.2">t</tspan><tspan class="cls-117" x="169.93" y="313.2">t</tspan><tspan class="cls-36" x="178.39" y="313.2">e</tspan><tspan class="cls-118" x="190.87" y="313.2">s</tspan><tspan class="cls-117" x="202.97" y="313.2">t</tspan><tspan class="cls-64" x="211.43" y="313.2">e</tspan><tspan class="cls-119" x="224.15" y="313.2">d</tspan><tspan class="cls-120" x="238.56" y="313.2">.</tspan><tspan class="cls-57" x="244.34" y="313.2">c</tspan><tspan class="cls-120" x="256.86" y="313.2">d</tspan><tspan class="cls-121" x="270.72" y="313.2">c</tspan><tspan class="cls-122" x="283.1" y="313.2">.</tspan><tspan class="cls-123" x="288.89" y="313.2">g</tspan><tspan class="cls-124" x="302.5" y="313.2">o</tspan><tspan x="315.54" y="313.2">v</tspan></tspan></text></svg>