<svg id="Layer_1" data-name="Layer 1" xmlns="http://www.w3.org/2000/svg" viewBox="0 0 611.8 611.8"><defs><style>.cls-1{fill:#f5faf8;stroke:#a967aa;stroke-linecap:round;stroke-linejoin:round;stroke-width:11.8px;}.cls-2{font-size:32px;fill:#a967aa;font-family:RobotoSlab-Bold, Roboto Slab;font-weight:700;}.cls-3{letter-spacing:-0.01em;}.cls-4{letter-spacing:-0.02em;}.cls-5{letter-spacing:-0.01em;}.cls-6{letter-spacing:0em;}.cls-7{letter-spacing:-0.06em;}.cls-8{letter-spacing:-0.02em;}.cls-9{letter-spacing:-0.01em;}.cls-10{font-size:24px;}.cls-11{letter-spacing:0em;}.cls-12{letter-spacing:0em;}.cls-13{letter-spacing:0.01em;}.cls-14{letter-spacing:0.01em;}.cls-15{letter-spacing:0.01em;}.cls-16{letter-spacing:-0.02em;}.cls-17{letter-spacing:-0.01em;}.cls-18{letter-spacing:0em;}.cls-19{letter-spacing:-0.03em;}.cls-20{letter-spacing:-0.02em;}.cls-21{letter-spacing:-0.02em;}.cls-22{letter-spacing:0em;}.cls-23{letter-spacing:0em;}.cls-24{letter-spacing:0.01em;}.cls-25{letter-spacing:0.01em;}.cls-26{letter-spacing:0em;}.cls-27{letter-spacing:0em;}.cls-28{letter-spacing:-0.01em;}.cls-29{letter-spacing:-0.02em;}.cls-30{letter-spacing:0.01em;}.cls-31{letter-spacing:0em;}.cls-32{letter-spacing:-0.02em;}.cls-33{letter-spacing:-0.01em;}.cls-34{letter-spacing:0.01em;}.cls-35{letter-spacing:-0.02em;}.cls-36{letter-spacing:-0.02em;}.cls-37{letter-spacing:0.01em;}.cls-38{letter-spacing:-0.02em;}.cls-39{letter-spacing:0.01em;}.cls-40{letter-spacing:-0.02em;}.cls-41{letter-spacing:-0.01em;}.cls-42{letter-spacing:-0.02em;}.cls-43{letter-spacing:0em;}.cls-44{letter-spacing:0em;}.cls-45{letter-spacing:-0.01em;}.cls-46{letter-spacing:0em;}.cls-47{letter-spacing:-0.02em;}.cls-48{letter-spacing:-0.01em;}.cls-49{letter-spacing:-0.01em;}.cls-50{letter-spacing:-0.01em;}.cls-51{letter-spacing:0em;}.cls-52{letter-spacing:-0.02em;}.cls-53{letter-spacing:-0.01em;}.cls-54{letter-spacing:-0.02em;}.cls-55{letter-spacing:0.01em;}.cls-56{letter-spacing:0.01em;}.cls-57{letter-spacing:-0.02em;}.cls-58{letter-spacing:-0.01em;}.cls-59{letter-spacing:-0.01em;}.cls-60{letter-spacing:0.01em;}.cls-61{letter-spacing:0em;}.cls-62{letter-spacing:-0.02em;}.cls-63{letter-spacing:0.01em;}.cls-64{letter-spacing:-0.1em;}.cls-65{letter-spacing:-0.01em;}.cls-66{letter-spacing:-0.02em;}.cls-67{letter-spacing:0em;}.cls-68{letter-spacing:-0.03em;}.cls-69{letter-spacing:-0.01em;}.cls-70{letter-spacing:-0.01em;}.cls-71{letter-spacing:0.01em;}.cls-72{letter-spacing:-0.02em;}.cls-73{letter-spacing:0.01em;}.cls-74{letter-spacing:-0.01em;}.cls-75{letter-spacing:-0.02em;}.cls-76{letter-spacing:0.01em;}.cls-77{letter-spacing:0em;}.cls-78{letter-spacing:-0.01em;}</style></defs><title>std web mockupsasfd</title><rect class="cls-1" x="5.9" y="5.9" width="600" height="600" rx="300" ry="300"/><text class="cls-2" transform="translate(227.4 190)"><tspan class="cls-3">B</tspan><tspan class="cls-4" x="20.77" y="0">l</tspan><tspan class="cls-5" x="30.39" y="0">o</tspan><tspan class="cls-6" x="48.14" y="0">o</tspan><tspan x="65.93" y="0">d </tspan><tspan class="cls-7" x="92.71" y="0">T</tspan><tspan class="cls-8" x="112.43" y="0">e</tspan><tspan class="cls-9" x="129" y="0">s</tspan><tspan x="145.07" y="0">t</tspan><tspan class="cls-10"><tspan x="-79.04" y="57.6">A </tspan><tspan class="cls-11" x="-55.91" y="57.6">s</tspan><tspan class="cls-12" x="-43.68" y="57.6">m</tspan><tspan class="cls-13" x="-21.37" y="57.6">a</tspan><tspan class="cls-14" x="-8.01" y="57.6">l</tspan><tspan x="-0.16" y="57.6">l </tspan><tspan class="cls-15" x="13.38" y="57.6">a</tspan><tspan class="cls-16" x="26.75" y="57.6">m</tspan><tspan class="cls-17" x="48.7" y="57.6">o</tspan><tspan class="cls-18" x="61.8" y="57.6">u</tspan><tspan class="cls-19" x="76.85" y="57.6">n</tspan><tspan x="91.38" y="57.6">t </tspan><tspan class="cls-4" x="106.21" y="57.6">o</tspan><tspan x="119.23" y="57.6">f </tspan><tspan class="cls-20" x="134.04" y="57.6">b</tspan><tspan class="cls-21" x="147.48" y="57.6">l</tspan><tspan class="cls-22" x="154.75" y="57.6">o</tspan><tspan class="cls-23" x="168.12" y="57.6">o</tspan><tspan x="181.52" y="57.6">d </tspan><tspan class="cls-24" x="201.61" y="57.6">w</tspan><tspan class="cls-25" x="221.05" y="57.6">il</tspan><tspan x="236.84" y="57.6">l </tspan><tspan class="cls-26" x="-99.04" y="86.4">b</tspan><tspan x="-85.3" y="86.4">e </tspan><tspan class="cls-27" x="-66.64" y="86.4">d</tspan><tspan class="cls-28" x="-52.45" y="86.4">r</tspan><tspan class="cls-29" x="-42.68" y="86.4">a</tspan><tspan class="cls-30" x="-30.02" y="86.4">w</tspan><tspan class="cls-31" x="-10.52" y="86.4">n</tspan><tspan x="4.69" y="86.4">, </tspan><tspan class="cls-32" x="16.46" y="86.4">o</tspan><tspan x="29.34" y="86.4">r </tspan><tspan class="cls-20" x="45.33" y="86.4">y</tspan><tspan class="cls-17" x="59.14" y="86.4">o</tspan><tspan class="cls-33" x="72.24" y="86.4">u</tspan><tspan x="87.06" y="86.4">r </tspan><tspan class="cls-34" x="103.04" y="86.4">fi</tspan><tspan class="cls-35" x="118.87" y="86.4">n</tspan><tspan class="cls-22" x="133.74" y="86.4">g</tspan><tspan class="cls-36" x="147.36" y="86.4">e</tspan><tspan x="159.72" y="86.4">r </tspan><tspan class="cls-37" x="175.7" y="86.4">w</tspan><tspan class="cls-25" x="195.15" y="86.4">il</tspan><tspan x="210.94" y="86.4">l </tspan><tspan class="cls-26" x="224.47" y="86.4">b</tspan><tspan x="238.2" y="86.4">e </tspan><tspan class="cls-38" x="-99.04" y="115.2">p</tspan><tspan class="cls-39" x="-84.96" y="115.2">r</tspan><tspan class="cls-40" x="-74.57" y="115.2">i</tspan><tspan class="cls-41" x="-67.2" y="115.2">c</tspan><tspan class="cls-42" x="-54.76" y="115.2">k</tspan><tspan class="cls-43" x="-40.58" y="115.2">e</tspan><tspan class="cls-44" x="-27.87" y="115.2">d</tspan><tspan x="-13.63" y="115.2">, </tspan><tspan class="cls-45" x="-1.85" y="115.2">f</tspan><tspan class="cls-32" x="6.78" y="115.2">o</tspan><tspan x="19.65" y="115.2">r </tspan><tspan class="cls-13" x="35.64" y="115.2">a</tspan><tspan class="cls-46" x="49" y="115.2">n</tspan><tspan class="cls-13" x="64.22" y="115.2">a</tspan><tspan class="cls-47" x="77.57" y="115.2">l</tspan><tspan class="cls-48" x="84.71" y="115.2">y</tspan><tspan class="cls-49" x="98.69" y="115.2">s</tspan><tspan class="cls-50" x="110.87" y="115.2">i</tspan><tspan x="118.4" y="115.2">s </tspan><tspan class="cls-25" x="136.63" y="115.2">i</tspan><tspan x="144.57" y="115.2">n </tspan><tspan class="cls-51" x="165.68" y="115.2">t</tspan><tspan class="cls-52" x="174.75" y="115.2">h</tspan><tspan x="189.61" y="115.2">e </tspan><tspan class="cls-31" x="208.27" y="115.2">l</tspan><tspan class="cls-53" x="215.9" y="115.2">a</tspan><tspan class="cls-54" x="228.84" y="115.2">b</tspan><tspan x="242.24" y="115.2">.</tspan><tspan class="cls-55" x="-79.04" y="172.8">T</tspan><tspan class="cls-56" x="-62.65" y="172.8">h</tspan><tspan class="cls-50" x="-47.24" y="172.8">i</tspan><tspan x="-39.71" y="172.8">s </tspan><tspan class="cls-57" x="-21.47" y="172.8">t</tspan><tspan class="cls-58" x="-13.01" y="172.8">e</tspan><tspan class="cls-53" x="-0.53" y="172.8">s</tspan><tspan class="cls-59" x="11.58" y="172.8">t</tspan><tspan x="20.18" y="172.8">s </tspan><tspan class="cls-38" x="38.42" y="172.8">p</tspan><tspan class="cls-39" x="52.49" y="172.8">r</tspan><tspan class="cls-60" x="62.88" y="172.8">i</tspan><tspan class="cls-12" x="70.83" y="172.8">m</tspan><tspan class="cls-61" x="93.13" y="172.8">a</tspan><tspan class="cls-39" x="106.26" y="172.8">r</tspan><tspan class="cls-25" x="116.65" y="172.8">i</tspan><tspan class="cls-47" x="124.58" y="172.8">l</tspan><tspan x="131.72" y="172.8">y </tspan><tspan class="cls-45" x="151.8" y="172.8">f</tspan><tspan class="cls-62" x="160.43" y="172.8">o</tspan><tspan x="173.31" y="172.8">r H</tspan><tspan class="cls-63" x="208.06" y="172.8">I</tspan><tspan class="cls-64" x="216.56" y="172.8">V</tspan><tspan x="231.47" y="172.8">, </tspan><tspan class="cls-52" x="-99.04" y="201.6">h</tspan><tspan class="cls-21" x="-84.18" y="201.6">e</tspan><tspan class="cls-65" x="-71.78" y="201.6">p</tspan><tspan class="cls-66" x="-57.49" y="201.6">a</tspan><tspan class="cls-67" x="-44.76" y="201.6">t</tspan><tspan class="cls-68" x="-35.74" y="201.6">i</tspan><tspan class="cls-67" x="-28.62" y="201.6">t</tspan><tspan class="cls-50" x="-19.6" y="201.6">i</tspan><tspan class="cls-69" x="-12.07" y="201.6">s</tspan><tspan x="0.03" y="201.6">, </tspan><tspan class="cls-70" x="11.8" y="201.6">s</tspan><tspan class="cls-71" x="24.01" y="201.6">y</tspan><tspan class="cls-72" x="38.45" y="201.6">p</tspan><tspan class="cls-73" x="52.61" y="201.6">h</tspan><tspan class="cls-25" x="68.02" y="201.6">i</tspan><tspan class="cls-56" x="75.95" y="201.6">l</tspan><tspan class="cls-50" x="83.76" y="201.6">i</tspan><tspan class="cls-69" x="91.29" y="201.6">s</tspan><tspan x="103.39" y="201.6">, </tspan><tspan class="cls-13" x="115.16" y="201.6">a</tspan><tspan class="cls-74" x="128.52" y="201.6">n</tspan><tspan x="143.48" y="201.6">d </tspan><tspan class="cls-75" x="163.57" y="201.6">h</tspan><tspan class="cls-36" x="178.42" y="201.6">e</tspan><tspan class="cls-76" x="190.78" y="201.6">r</tspan><tspan class="cls-77" x="201.16" y="201.6">p</tspan><tspan class="cls-58" x="215.61" y="201.6">e</tspan><tspan class="cls-78" x="228.09" y="201.6">s</tspan><tspan x="240.28" y="201.6">.</tspan></tspan></text></svg>