<?xml version="1.0" encoding="utf-8"?>
<!-- Generator: Adobe Illustrator 22.0.1, SVG Export Plug-In . SVG Version: 6.00 Build 0)  -->
<!DOCTYPE svg PUBLIC "-//W3C//DTD SVG 1.1//EN" "http://www.w3.org/Graphics/SVG/1.1/DTD/svg11.dtd">
<svg version="1.1" id="Layer_1" xmlns="http://www.w3.org/2000/svg" xmlns:xlink="http://www.w3.org/1999/xlink" x="0px" y="0px"
	 viewBox="0 0 611.8 611.8" style="enable-background:new 0 0 611.8 611.8;" xml:space="preserve">
<style type="text/css">
	.st0{fill:#F5FAF8;stroke:#A967AA;stroke-width:11.8;stroke-linecap:round;stroke-linejoin:round;}
	.st1{enable-background:new    ;}
	.st2{fill:#A967AA;}
</style>
<title>std web mockupsasfd</title>
<path class="st0" d="M305.9,5.9L305.9,5.9c165.7,0,300,134.3,300,300v0c0,165.7-134.3,300-300,300h0c-165.7,0-300-134.3-300-300v0
	C5.9,140.2,140.2,5.9,305.9,5.9z"/>
<g class="st1">
	<path class="st2" d="M238.4,167.2c2.7,0,4.8,0.5,6.3,1.6c1.5,1,2.2,2.6,2.2,4.7c0,1.1-0.3,2-0.8,2.8c-0.6,0.8-1.4,1.5-2.4,1.9
		c1.4,0.3,2.4,0.9,3.1,1.9c0.7,1,1,2.1,1,3.3c0,2.2-0.7,3.8-2.2,4.9c-1.4,1.1-3.5,1.7-6.1,1.7h-11.2v-2.7l2.4-0.5v-16.3l-2.4-0.5
		v-2.8h2.4H238.4z M235.3,176.8h3.3c1.2,0,2.2-0.2,2.8-0.8s1-1.2,1-2.2c0-1.1-0.3-1.8-1-2.3c-0.7-0.5-1.6-0.8-3-0.8h-3.1V176.8z
		 M235.3,179.9v6.6h4.2c1.2,0,2.1-0.3,2.8-0.8c0.6-0.5,1-1.3,1-2.3c0-1.1-0.3-2-0.8-2.6c-0.5-0.6-1.4-0.9-2.6-0.9H235.3z"/>
</g>
<g class="st1">
	<path class="st2" d="M248.7,168.4v-2.8h7v21.2l2.2,0.5v2.7h-9v-2.7l2.2-0.5v-18L248.7,168.4z"/>
</g>
<g class="st1">
	<path class="st2" d="M258.8,181.4c0-2.5,0.7-4.6,2.1-6.2c1.4-1.6,3.4-2.4,5.9-2.4c2.5,0,4.5,0.8,5.9,2.4c1.4,1.6,2.1,3.7,2.1,6.2
		v0.3c0,2.5-0.7,4.6-2.1,6.2c-1.4,1.6-3.4,2.4-5.8,2.4c-2.5,0-4.5-0.8-5.9-2.4c-1.4-1.6-2.1-3.7-2.1-6.2V181.4z M263.3,181.7
		c0,1.5,0.3,2.8,0.8,3.7c0.5,0.9,1.4,1.4,2.6,1.4c1.2,0,2-0.5,2.6-1.4s0.8-2.2,0.8-3.7v-0.3c0-1.5-0.3-2.7-0.8-3.7
		c-0.6-0.9-1.4-1.4-2.6-1.4s-2.1,0.5-2.6,1.4c-0.5,0.9-0.8,2.2-0.8,3.7V181.7z"/>
</g>
<g class="st1">
	<path class="st2" d="M276.5,181.4c0-2.5,0.7-4.6,2.1-6.2c1.4-1.6,3.4-2.4,5.9-2.4c2.5,0,4.5,0.8,5.9,2.4c1.4,1.6,2.1,3.7,2.1,6.2
		v0.3c0,2.5-0.7,4.6-2.1,6.2c-1.4,1.6-3.4,2.4-5.8,2.4c-2.5,0-4.5-0.8-5.9-2.4c-1.4-1.6-2.1-3.7-2.1-6.2V181.4z M281.1,181.7
		c0,1.5,0.3,2.8,0.8,3.7c0.5,0.9,1.4,1.4,2.6,1.4c1.2,0,2-0.5,2.6-1.4s0.8-2.2,0.8-3.7v-0.3c0-1.5-0.3-2.7-0.8-3.7
		c-0.6-0.9-1.4-1.4-2.6-1.4s-2.1,0.5-2.6,1.4c-0.5,0.9-0.8,2.2-0.8,3.7V181.7z"/>
</g>
<g class="st1">
	<path class="st2" d="M305.3,187.9c-0.5,0.8-1.2,1.4-1.9,1.8c-0.7,0.4-1.5,0.6-2.5,0.6c-2.1,0-3.7-0.8-4.9-2.3
		c-1.2-1.5-1.7-3.5-1.7-6v-0.3c0-2.7,0.6-4.8,1.7-6.5c1.2-1.6,2.8-2.5,4.9-2.5c0.8,0,1.6,0.2,2.3,0.6c0.7,0.4,1.3,0.9,1.8,1.6v-6.1
		l-2.4-0.5v-2.8h2.4h4.6v21.2l2.2,0.5v2.7h-6.1L305.3,187.9z M298.9,182c0,1.5,0.2,2.6,0.7,3.5c0.5,0.8,1.3,1.3,2.4,1.3
		c0.7,0,1.2-0.1,1.7-0.4c0.5-0.3,0.9-0.7,1.2-1.2V178c-0.3-0.5-0.7-1-1.2-1.3s-1.1-0.4-1.7-0.4c-1.1,0-1.9,0.5-2.4,1.5
		c-0.5,1-0.8,2.3-0.8,3.9V182z"/>
</g>
<g class="st1">
	<path class="st2" d="M341,167.2v6.1h-3.5l-0.2-2.5h-4.2v16l2.4,0.5v2.7h-9.4v-2.7l2.4-0.5v-16h-4.2l-0.2,2.5h-3.5v-6.1H341z"/>
</g>
<g class="st1">
	<path class="st2" d="M348.9,190.3c-2.4,0-4.4-0.8-5.8-2.3c-1.5-1.6-2.2-3.5-2.2-6v-0.6c0-2.5,0.7-4.6,2.1-6.2
		c1.4-1.6,3.2-2.4,5.6-2.4c2.3,0,4.1,0.7,5.3,2.1c1.3,1.4,1.9,3.2,1.9,5.6v2.5h-10.1l0,0.1c0.1,1.1,0.5,2,1.1,2.8
		c0.7,0.7,1.6,1.1,2.7,1.1c1,0,1.8-0.1,2.5-0.3c0.7-0.2,1.4-0.5,2.2-1l1.2,2.8c-0.7,0.6-1.6,1-2.7,1.4S350.3,190.3,348.9,190.3z
		 M348.5,176.3c-0.8,0-1.5,0.3-2,1c-0.5,0.6-0.8,1.5-0.9,2.5l0,0.1h5.6v-0.4c0-1-0.2-1.7-0.7-2.3S349.4,176.3,348.5,176.3z"/>
</g>
<g class="st1">
	<path class="st2" d="M371.2,178.9h-3.1l-0.5-2.1c-0.3-0.2-0.7-0.5-1.2-0.6c-0.5-0.2-1-0.2-1.6-0.2c-0.8,0-1.4,0.2-1.9,0.5
		s-0.7,0.8-0.7,1.4c0,0.5,0.2,0.9,0.7,1.3c0.4,0.3,1.3,0.6,2.7,0.9c2.1,0.4,3.6,1,4.7,1.8c1,0.8,1.5,1.9,1.5,3.3
		c0,1.5-0.7,2.8-2,3.7c-1.3,1-3,1.4-5.2,1.4c-1.3,0-2.5-0.2-3.6-0.6c-1.1-0.4-2.1-0.9-2.9-1.6l0-3.8h3.2l0.6,2.2
		c0.3,0.2,0.6,0.4,1.1,0.5s1,0.2,1.5,0.2c0.9,0,1.6-0.2,2.1-0.5c0.5-0.3,0.7-0.8,0.7-1.4c0-0.5-0.2-0.9-0.7-1.3
		c-0.5-0.4-1.4-0.7-2.7-1c-2-0.4-3.5-1-4.5-1.8s-1.5-1.9-1.5-3.3c0-1.4,0.6-2.6,1.8-3.7c1.2-1,2.8-1.5,5-1.5c1.3,0,2.6,0.2,3.7,0.5
		c1.2,0.4,2.1,0.8,2.8,1.4L371.2,178.9z"/>
</g>
<g class="st1">
	<path class="st2" d="M380.2,169v4.1h3v3.2h-3v8.6c0,0.7,0.1,1.1,0.4,1.4s0.6,0.4,1.1,0.4c0.3,0,0.6,0,0.8,0c0.2,0,0.5-0.1,0.8-0.1
		l0.4,3.3c-0.5,0.2-1,0.3-1.5,0.4s-1,0.1-1.6,0.1c-1.6,0-2.8-0.4-3.6-1.3c-0.8-0.9-1.3-2.2-1.3-4.1v-8.6h-2.5v-3.2h2.5V169H380.2z"
		/>
</g>
<g class="st1">
	<path class="st2" d="M148.8,245.5l1.2-0.2l5.2-14.8h3.5l5.2,14.8l1.2,0.2v2.1h-5.8v-2.1l1.2-0.2l-0.8-2.3h-5.5l-0.8,2.3l1.2,0.2
		v2.1h-5.8V245.5z M155,240.5h3.9l-1.9-6h-0.1L155,240.5z"/>
</g>
<g class="st1">
	<path class="st2" d="M182.6,239.3h-2.3l-0.4-1.6c-0.2-0.2-0.5-0.3-0.9-0.5s-0.7-0.2-1.2-0.2c-0.6,0-1.1,0.1-1.4,0.4s-0.5,0.6-0.5,1
		c0,0.4,0.2,0.7,0.5,1s1,0.5,2,0.7c1.6,0.3,2.7,0.8,3.5,1.4s1.1,1.4,1.1,2.5c0,1.1-0.5,2.1-1.5,2.8s-2.3,1.1-3.9,1.1
		c-1,0-1.9-0.1-2.7-0.4s-1.5-0.7-2.2-1.2l0-2.8h2.4l0.5,1.7c0.2,0.2,0.5,0.3,0.8,0.4s0.7,0.1,1.1,0.1c0.7,0,1.2-0.1,1.6-0.4
		s0.5-0.6,0.5-1c0-0.4-0.2-0.7-0.6-1s-1-0.5-2-0.7c-1.5-0.3-2.6-0.8-3.4-1.4s-1.1-1.4-1.1-2.4c0-1.1,0.4-2,1.3-2.7s2.1-1.2,3.7-1.2
		c1,0,1.9,0.1,2.8,0.4s1.6,0.6,2.1,1L182.6,239.3z"/>
</g>
<g class="st1">
	<path class="st2" d="M184.1,237v-2.1h5l0.1,1.7c0.4-0.6,0.9-1.1,1.5-1.4s1.3-0.5,2.1-0.5c0.8,0,1.5,0.2,2.1,0.5s1,0.9,1.3,1.6
		c0.4-0.7,0.9-1.2,1.5-1.6s1.4-0.6,2.2-0.6c1.2,0,2.2,0.4,3,1.3s1.1,2.2,1.1,3.9v5.3l1.7,0.4v2.1h-6.6v-2.1l1.5-0.4v-5.3
		c0-1-0.2-1.6-0.5-2s-0.8-0.6-1.4-0.6c-0.5,0-0.9,0.1-1.3,0.3s-0.6,0.5-0.8,0.9c0,0.1,0,0.3,0,0.4s0,0.2,0,0.3v5.9l1.4,0.4v2.1h-6.2
		v-2.1l1.4-0.4v-5.3c0-0.9-0.2-1.6-0.5-2s-0.8-0.6-1.4-0.6c-0.5,0-0.9,0.1-1.2,0.3s-0.6,0.4-0.9,0.7v6.8l1.5,0.4v2.1h-6.5v-2.1
		l1.7-0.4v-7.9L184.1,237z"/>
</g>
<g class="st1">
	<path class="st2" d="M214.8,247.6c-0.1-0.2-0.2-0.4-0.2-0.7s-0.1-0.4-0.2-0.7c-0.4,0.5-0.9,0.8-1.5,1.1s-1.2,0.4-2,0.4
		c-1.2,0-2.2-0.3-3-1s-1.1-1.6-1.1-2.8c0-1.2,0.5-2.1,1.4-2.8s2.4-1,4.2-1h1.7v-1.2c0-0.6-0.2-1.1-0.5-1.4s-0.9-0.5-1.6-0.5
		c-0.4,0-0.7,0-1,0.1s-0.6,0.2-0.7,0.3l-0.2,1.4h-2.6l0-2.8c0.6-0.4,1.3-0.8,2.2-1.1s1.7-0.4,2.6-0.4c1.6,0,2.8,0.4,3.8,1.2
		s1.5,1.9,1.5,3.3v5.2c0,0.2,0,0.4,0,0.6s0,0.3,0,0.5l1,0.1v2.1H214.8z M211.9,245.3c0.5,0,1-0.1,1.4-0.3s0.8-0.5,1-0.8v-1.9h-1.7
		c-0.7,0-1.3,0.2-1.7,0.5s-0.6,0.7-0.6,1.2c0,0.4,0.1,0.8,0.4,1S211.4,245.3,211.9,245.3z"/>
</g>
<g class="st1">
	<path class="st2" d="M219.8,231.4v-2.1h5.2v15.9l1.7,0.4v2.1h-6.7v-2.1l1.7-0.4v-13.5L219.8,231.4z"/>
</g>
<g class="st1">
	<path class="st2" d="M227.6,231.4v-2.1h5.2v15.9l1.7,0.4v2.1h-6.7v-2.1l1.7-0.4v-13.5L227.6,231.4z"/>
</g>
<g class="st1">
	<path class="st2" d="M249.6,247.6c-0.1-0.2-0.2-0.4-0.2-0.7s-0.1-0.4-0.2-0.7c-0.4,0.5-0.9,0.8-1.5,1.1s-1.2,0.4-2,0.4
		c-1.2,0-2.2-0.3-3-1s-1.1-1.6-1.1-2.8c0-1.2,0.5-2.1,1.4-2.8s2.4-1,4.2-1h1.7v-1.2c0-0.6-0.2-1.1-0.5-1.4s-0.9-0.5-1.6-0.5
		c-0.4,0-0.7,0-1,0.1s-0.6,0.2-0.7,0.3l-0.2,1.4h-2.6l0-2.8c0.6-0.4,1.3-0.8,2.2-1.1s1.7-0.4,2.6-0.4c1.6,0,2.8,0.4,3.8,1.2
		s1.5,1.9,1.5,3.3v5.2c0,0.2,0,0.4,0,0.6s0,0.3,0,0.5l1,0.1v2.1H249.6z M246.6,245.3c0.5,0,1-0.1,1.4-0.3s0.8-0.5,1-0.8v-1.9h-1.7
		c-0.7,0-1.3,0.2-1.7,0.5s-0.6,0.7-0.6,1.2c0,0.4,0.1,0.8,0.4,1S246.1,245.3,246.6,245.3z"/>
</g>
<g class="st1">
	<path class="st2" d="M254.5,237v-2.1h5l0.1,1.7c0.4-0.6,0.9-1.1,1.5-1.4s1.3-0.5,2.1-0.5c0.8,0,1.5,0.2,2.1,0.5s1,0.9,1.3,1.6
		c0.4-0.7,0.9-1.2,1.5-1.6s1.4-0.6,2.2-0.6c1.2,0,2.2,0.4,3,1.3s1.1,2.2,1.1,3.9v5.3l1.7,0.4v2.1h-6.6v-2.1l1.5-0.4v-5.3
		c0-1-0.2-1.6-0.5-2s-0.8-0.6-1.4-0.6c-0.5,0-0.9,0.1-1.3,0.3s-0.6,0.5-0.8,0.9c0,0.1,0,0.3,0,0.4s0,0.2,0,0.3v5.9l1.4,0.4v2.1h-6.2
		v-2.1l1.4-0.4v-5.3c0-0.9-0.2-1.6-0.5-2s-0.8-0.6-1.4-0.6c-0.5,0-0.9,0.1-1.2,0.3s-0.6,0.4-0.9,0.7v6.8l1.5,0.4v2.1h-6.5v-2.1
		l1.7-0.4v-7.9L254.5,237z"/>
</g>
<g class="st1">
	<path class="st2" d="M276.8,241.1c0-1.9,0.5-3.4,1.6-4.6s2.5-1.8,4.4-1.8c1.9,0,3.3,0.6,4.4,1.8s1.6,2.8,1.6,4.7v0.2
		c0,1.9-0.5,3.5-1.6,4.7s-2.5,1.8-4.4,1.8c-1.9,0-3.4-0.6-4.4-1.8s-1.6-2.8-1.6-4.7V241.1z M280.3,241.4c0,1.2,0.2,2.1,0.6,2.8
		s1.1,1,2,1c0.9,0,1.5-0.4,1.9-1.1s0.6-1.6,0.6-2.8v-0.2c0-1.1-0.2-2-0.6-2.8s-1.1-1.1-2-1.1s-1.5,0.4-1.9,1.1s-0.6,1.6-0.6,2.8
		V241.4z"/>
</g>
<g class="st1">
	<path class="st2" d="M298.8,246c-0.4,0.6-0.9,1.1-1.5,1.4s-1.3,0.5-2,0.5c-1.3,0-2.4-0.4-3.1-1.3s-1.1-2.2-1.1-4v-5.2l-1.4-0.4
		v-2.1h1.4h3.4v7.7c0,0.9,0.2,1.6,0.5,2s0.8,0.6,1.4,0.6c0.5,0,1-0.1,1.4-0.3s0.7-0.4,1-0.8v-6.8l-1.5-0.4v-2.1h1.5h3.4v10.3
		l1.5,0.4v2.1H299L298.8,246z"/>
</g>
<g class="st1">
	<path class="st2" d="M304.8,245.5l1.6-0.4v-7.9l-1.8-0.4v-2.1h5l0.2,1.8c0.4-0.6,0.9-1.2,1.6-1.5s1.3-0.5,2.1-0.5
		c1.3,0,2.3,0.4,3,1.2s1.1,2.1,1.1,3.8v5.5l1.6,0.4v2.1h-6.5v-2.1l1.5-0.4v-5.5c0-0.9-0.2-1.5-0.5-1.8s-0.9-0.5-1.6-0.5
		c-0.5,0-0.9,0.1-1.2,0.3s-0.7,0.4-0.9,0.8v6.8l1.4,0.4v2.1h-6.4V245.5z"/>
</g>
<g class="st1">
	<path class="st2" d="M324.6,231.8v3.1h2.2v2.4h-2.2v6.5c0,0.5,0.1,0.8,0.3,1.1s0.5,0.3,0.8,0.3c0.2,0,0.4,0,0.6,0s0.4-0.1,0.6-0.1
		l0.3,2.5c-0.4,0.1-0.8,0.2-1.1,0.3s-0.8,0.1-1.2,0.1c-1.2,0-2.1-0.3-2.7-1s-1-1.7-1-3.1v-6.5h-1.9v-2.4h1.9v-3.1H324.6z"/>
</g>
<g class="st1">
	<path class="st2" d="M334.3,241.1c0-1.9,0.5-3.4,1.6-4.6s2.5-1.8,4.4-1.8c1.9,0,3.3,0.6,4.4,1.8s1.6,2.8,1.6,4.7v0.2
		c0,1.9-0.5,3.5-1.6,4.7s-2.5,1.8-4.4,1.8c-1.9,0-3.4-0.6-4.4-1.8s-1.6-2.8-1.6-4.7V241.1z M337.8,241.4c0,1.2,0.2,2.1,0.6,2.8
		s1.1,1,2,1c0.9,0,1.5-0.4,1.9-1.1s0.6-1.6,0.6-2.8v-0.2c0-1.1-0.2-2-0.6-2.8s-1.1-1.1-2-1.1s-1.5,0.4-1.9,1.1s-0.6,1.6-0.6,2.8
		V241.4z"/>
</g>
<g class="st1">
	<path class="st2" d="M347.6,245.5l1.7-0.4v-7.9h-1.9v-2.4h1.9v-1.4c0-1.4,0.4-2.5,1.2-3.3s2-1.2,3.5-1.2c0.3,0,0.6,0,0.9,0.1
		s0.6,0.1,1,0.2l-0.3,2.5c-0.2,0-0.4-0.1-0.5-0.1s-0.4,0-0.6,0c-0.6,0-1,0.2-1.3,0.5s-0.4,0.7-0.4,1.3v1.4h2.5v2.4h-2.5v7.9l1.7,0.4
		v2.1h-6.7V245.5z"/>
</g>
<g class="st1">
	<path class="st2" d="M374.4,241.6c0,1.9-0.4,3.4-1.3,4.5s-2.1,1.7-3.7,1.7c-0.7,0-1.4-0.2-1.9-0.5s-1-0.8-1.4-1.3l-0.2,1.6h-3
		v-15.9l-1.8-0.4v-2.1h5.2v6.9c0.4-0.5,0.8-0.9,1.3-1.2s1.1-0.4,1.8-0.4c1.6,0,2.8,0.6,3.7,1.8s1.3,2.8,1.3,4.9V241.6z M371,241.4
		c0-1.2-0.2-2.2-0.5-2.9s-1-1.1-1.9-1.1c-0.5,0-1,0.1-1.3,0.3s-0.7,0.5-0.9,1v5.4c0.2,0.4,0.5,0.7,0.9,0.9s0.8,0.3,1.4,0.3
		c0.9,0,1.5-0.3,1.9-0.9s0.5-1.5,0.5-2.6V241.4z"/>
</g>
<g class="st1">
	<path class="st2" d="M375.3,231.4v-2.1h5.2v15.9l1.7,0.4v2.1h-6.7v-2.1l1.7-0.4v-13.5L375.3,231.4z"/>
</g>
<g class="st1">
	<path class="st2" d="M382.9,241.1c0-1.9,0.5-3.4,1.6-4.6s2.5-1.8,4.4-1.8c1.9,0,3.3,0.6,4.4,1.8s1.6,2.8,1.6,4.7v0.2
		c0,1.9-0.5,3.5-1.6,4.7s-2.5,1.8-4.4,1.8c-1.9,0-3.4-0.6-4.4-1.8s-1.6-2.8-1.6-4.7V241.1z M386.3,241.4c0,1.2,0.2,2.1,0.6,2.8
		s1.1,1,2,1c0.9,0,1.5-0.4,1.9-1.1s0.6-1.6,0.6-2.8v-0.2c0-1.1-0.2-2-0.6-2.8s-1.1-1.1-2-1.1s-1.5,0.4-1.9,1.1s-0.6,1.6-0.6,2.8
		V241.4z"/>
</g>
<g class="st1">
	<path class="st2" d="M396.3,241.1c0-1.9,0.5-3.4,1.6-4.6s2.5-1.8,4.4-1.8c1.9,0,3.3,0.6,4.4,1.8s1.6,2.8,1.6,4.7v0.2
		c0,1.9-0.5,3.5-1.6,4.7s-2.5,1.8-4.4,1.8c-1.9,0-3.4-0.6-4.4-1.8s-1.6-2.8-1.6-4.7V241.1z M399.7,241.4c0,1.2,0.2,2.1,0.6,2.8
		s1.1,1,2,1c0.9,0,1.5-0.4,1.9-1.1s0.6-1.6,0.6-2.8v-0.2c0-1.1-0.2-2-0.6-2.8s-1.1-1.1-2-1.1s-1.5,0.4-1.9,1.1s-0.6,1.6-0.6,2.8
		V241.4z"/>
</g>
<g class="st1">
	<path class="st2" d="M417.9,246.1c-0.4,0.6-0.9,1-1.4,1.3s-1.2,0.5-1.9,0.5c-1.6,0-2.8-0.6-3.6-1.7s-1.3-2.6-1.3-4.5v-0.2
		c0-2,0.4-3.6,1.3-4.8s2.1-1.8,3.7-1.8c0.6,0,1.2,0.1,1.7,0.4s1,0.7,1.3,1.2v-4.5l-1.8-0.4v-2.1h1.8h3.4v15.9l1.6,0.4v2.1h-4.6
		L417.9,246.1z M413.1,241.6c0,1.1,0.2,2,0.6,2.6s1,1,1.8,1c0.5,0,0.9-0.1,1.3-0.3s0.7-0.5,0.9-0.9v-5.4c-0.2-0.4-0.5-0.7-0.9-0.9
		s-0.8-0.3-1.3-0.3c-0.8,0-1.4,0.4-1.8,1.1s-0.6,1.7-0.6,2.9V241.6z"/>
</g>
<g class="st1">
	<path class="st2" d="M447.8,237l-1.3,0.2l-2.6,10.5H441l-2.4-7.5h-0.1l-2.4,7.5h-2.8l-2.7-10.5l-1.3-0.2v-2.1h5.7v2.1l-1.3,0.3
		l1.2,5.8h0.1l2.4-8.1h2.3l2.4,8.1h0.1l1.2-5.8l-1.4-0.3v-2.1h5.7V237z"/>
</g>
<g class="st1">
	<path class="st2" d="M449.1,245.5l1.7-0.4v-7.9l-1.8-0.4v-2.1h5.2v10.3l1.6,0.4v2.1h-6.7V245.5z M454.2,231.9h-3.4v-2.6h3.4V231.9z
		"/>
	<path class="st2" d="M456.8,231.4v-2.1h5.2v15.9l1.7,0.4v2.1H457v-2.1l1.7-0.4v-13.5L456.8,231.4z"/>
</g>
<g class="st1">
	<path class="st2" d="M464.6,231.4v-2.1h5.2v15.9l1.7,0.4v2.1h-6.7v-2.1l1.7-0.4v-13.5L464.6,231.4z"/>
</g>
<g class="st1">
	<path class="st2" d="M141.4,270.4c0,1.9-0.4,3.4-1.3,4.5s-2.1,1.7-3.7,1.7c-0.7,0-1.4-0.2-1.9-0.5s-1-0.8-1.4-1.3l-0.2,1.6h-3
		v-15.9l-1.8-0.4v-2.1h5.2v6.9c0.4-0.5,0.8-0.9,1.3-1.2s1.1-0.4,1.8-0.4c1.6,0,2.8,0.6,3.7,1.8s1.3,2.8,1.3,4.9V270.4z M137.9,270.2
		c0-1.2-0.2-2.2-0.5-2.9s-1-1.1-1.9-1.1c-0.5,0-1,0.1-1.3,0.3s-0.7,0.5-0.9,1v5.4c0.2,0.4,0.5,0.7,0.9,0.9s0.8,0.3,1.4,0.3
		c0.9,0,1.5-0.3,1.9-0.9s0.5-1.5,0.5-2.6V270.2z"/>
</g>
<g class="st1">
	<path class="st2" d="M148.9,276.6c-1.8,0-3.3-0.6-4.4-1.8s-1.6-2.7-1.6-4.5V270c0-1.9,0.5-3.4,1.6-4.7s2.4-1.8,4.2-1.8
		c1.7,0,3,0.5,4,1.5s1.4,2.4,1.4,4.2v1.9h-7.6l0,0.1c0.1,0.8,0.3,1.5,0.8,2.1s1.2,0.8,2,0.8c0.8,0,1.4-0.1,1.9-0.2s1-0.4,1.6-0.7
		l0.9,2.1c-0.5,0.4-1.2,0.8-2,1S149.9,276.6,148.9,276.6z M148.6,266.1c-0.6,0-1.1,0.2-1.5,0.7s-0.6,1.1-0.7,1.9l0,0.1h4.2v-0.3
		c0-0.7-0.2-1.3-0.5-1.7S149.3,266.1,148.6,266.1z"/>
</g>
<g class="st1">
	<path class="st2" d="M169.7,274.9c-0.4,0.6-0.9,1-1.4,1.3s-1.2,0.5-1.9,0.5c-1.6,0-2.8-0.6-3.6-1.7s-1.3-2.6-1.3-4.5v-0.2
		c0-2,0.4-3.6,1.3-4.8s2.1-1.8,3.7-1.8c0.6,0,1.2,0.1,1.7,0.4s1,0.7,1.3,1.2v-4.5l-1.8-0.4v-2.1h1.8h3.4V274l1.6,0.4v2.1H170
		L169.7,274.9z M165,270.4c0,1.1,0.2,2,0.6,2.6s1,1,1.8,1c0.5,0,0.9-0.1,1.3-0.3s0.7-0.5,0.9-0.9v-5.4c-0.2-0.4-0.5-0.7-0.9-0.9
		s-0.8-0.3-1.3-0.3c-0.8,0-1.4,0.4-1.8,1.1s-0.6,1.7-0.6,2.9V270.4z"/>
</g>
<g class="st1">
	<path class="st2" d="M175.9,274.3l1.6-0.4v-7.9l-1.8-0.4v-2.1h5l0.2,1.9c0.3-0.7,0.7-1.2,1.1-1.5s1-0.6,1.6-0.6c0.2,0,0.4,0,0.6,0
		s0.4,0.1,0.5,0.1l-0.4,3.1l-1.4,0c-0.5,0-0.9,0.1-1.2,0.3s-0.6,0.5-0.8,0.8v6.2l1.6,0.4v2.1h-6.7V274.3z"/>
</g>
<g class="st1">
	<path class="st2" d="M193.5,276.4c-0.1-0.2-0.2-0.4-0.2-0.7s-0.1-0.4-0.2-0.7c-0.4,0.5-0.9,0.8-1.5,1.1s-1.2,0.4-2,0.4
		c-1.2,0-2.2-0.3-3-1s-1.1-1.6-1.1-2.8c0-1.2,0.5-2.1,1.4-2.8s2.4-1,4.2-1h1.7v-1.2c0-0.6-0.2-1.1-0.5-1.4s-0.9-0.5-1.6-0.5
		c-0.4,0-0.7,0-1,0.1s-0.6,0.2-0.7,0.3l-0.2,1.4h-2.6l0-2.8c0.6-0.4,1.3-0.8,2.2-1.1s1.7-0.4,2.6-0.4c1.6,0,2.8,0.4,3.8,1.2
		s1.5,1.9,1.5,3.3v5.2c0,0.2,0,0.4,0,0.6s0,0.3,0,0.5l1,0.1v2.1H193.5z M190.6,274.1c0.5,0,1-0.1,1.4-0.3s0.8-0.5,1-0.8V271h-1.7
		c-0.7,0-1.3,0.2-1.7,0.5s-0.6,0.7-0.6,1.2c0,0.4,0.1,0.8,0.4,1S190.1,274.1,190.6,274.1z"/>
</g>
<g class="st1">
	<path class="st2" d="M216.2,265.8l-1.3,0.2l-2.6,10.5h-2.9l-2.4-7.5H207l-2.4,7.5h-2.8l-2.7-10.5l-1.3-0.2v-2.1h5.7v2.1l-1.3,0.3
		l1.2,5.8h0.1l2.4-8.1h2.3l2.4,8.1h0.1l1.2-5.8l-1.4-0.3v-2.1h5.7V265.8z"/>
</g>
<g class="st1">
	<path class="st2" d="M217.4,274.3l1.6-0.4v-7.9l-1.8-0.4v-2.1h5l0.2,1.8c0.4-0.6,0.9-1.2,1.6-1.5s1.3-0.5,2.1-0.5
		c1.3,0,2.3,0.4,3,1.2s1.1,2.1,1.1,3.8v5.5l1.6,0.4v2.1h-6.5v-2.1l1.5-0.4v-5.5c0-0.9-0.2-1.5-0.5-1.8s-0.9-0.5-1.6-0.5
		c-0.5,0-0.9,0.1-1.2,0.3s-0.7,0.4-0.9,0.8v6.8l1.4,0.4v2.1h-6.4V274.3z"/>
</g>
<g class="st1">
	<path class="st2" d="M236.8,275.9c0,0.8-0.2,1.6-0.7,2.5s-1,1.6-1.6,2.2l-1.7-0.9c0.3-0.5,0.5-1.1,0.7-1.7s0.2-1.2,0.2-2v-2.6h3.1
		L236.8,275.9z"/>
</g>
<g class="st1">
	<path class="st2" d="M244.6,269.9c0-1.9,0.5-3.4,1.6-4.6s2.5-1.8,4.4-1.8c1.9,0,3.3,0.6,4.4,1.8s1.6,2.8,1.6,4.7v0.2
		c0,1.9-0.5,3.5-1.6,4.7s-2.5,1.8-4.4,1.8c-1.9,0-3.4-0.6-4.4-1.8s-1.6-2.8-1.6-4.7V269.9z M248,270.2c0,1.2,0.2,2.1,0.6,2.8
		s1.1,1,2,1c0.9,0,1.5-0.4,1.9-1.1s0.6-1.6,0.6-2.8v-0.2c0-1.1-0.2-2-0.6-2.8s-1.1-1.1-2-1.1s-1.5,0.4-1.9,1.1s-0.6,1.6-0.6,2.8
		V270.2z"/>
</g>
<g class="st1">
	<path class="st2" d="M257.7,274.3l1.6-0.4v-7.9l-1.8-0.4v-2.1h5l0.2,1.9c0.3-0.7,0.7-1.2,1.1-1.5s1-0.6,1.6-0.6c0.2,0,0.4,0,0.6,0
		s0.4,0.1,0.5,0.1l-0.4,3.1l-1.4,0c-0.5,0-0.9,0.1-1.2,0.3s-0.6,0.5-0.8,0.8v6.2l1.6,0.4v2.1h-6.7V274.3z"/>
</g>
<g class="st1">
	<path class="st2" d="M286.6,265.8l-1.2,0.2l-4.7,12.3c-0.4,0.9-0.9,1.7-1.5,2.3s-1.5,0.9-2.8,0.9c-0.3,0-0.6,0-0.8-0.1
		s-0.6-0.1-0.9-0.2l0.4-2.5c0.1,0,0.2,0,0.3,0s0.2,0,0.3,0c0.6,0,1-0.1,1.3-0.4s0.5-0.6,0.7-1l0.4-1l-4-10.4l-1.2-0.2v-2.1h6.2v2.1
		l-1.4,0.2l1.7,5.1l0.2,0.9l0.1,0l2-6l-1.4-0.2v-2.1h6.2V265.8z"/>
</g>
<g class="st1">
	<path class="st2" d="M287.3,269.9c0-1.9,0.5-3.4,1.6-4.6s2.5-1.8,4.4-1.8c1.9,0,3.3,0.6,4.4,1.8s1.6,2.8,1.6,4.7v0.2
		c0,1.9-0.5,3.5-1.6,4.7s-2.5,1.8-4.4,1.8c-1.9,0-3.4-0.6-4.4-1.8s-1.6-2.8-1.6-4.7V269.9z M290.7,270.2c0,1.2,0.2,2.1,0.6,2.8
		s1.1,1,2,1c0.9,0,1.5-0.4,1.9-1.1s0.6-1.6,0.6-2.8v-0.2c0-1.1-0.2-2-0.6-2.8s-1.1-1.1-2-1.1s-1.5,0.4-1.9,1.1s-0.6,1.6-0.6,2.8
		V270.2z"/>
</g>
<g class="st1">
	<path class="st2" d="M309.2,274.8c-0.4,0.6-0.9,1.1-1.5,1.4s-1.3,0.5-2,0.5c-1.3,0-2.4-0.4-3.1-1.3s-1.1-2.2-1.1-4v-5.2l-1.4-0.4
		v-2.1h1.4h3.4v7.7c0,0.9,0.2,1.6,0.5,2s0.8,0.6,1.4,0.6c0.5,0,1-0.1,1.4-0.3s0.7-0.4,1-0.8v-6.8l-1.5-0.4v-2.1h1.5h3.4V274l1.5,0.4
		v2.1h-4.5L309.2,274.8z"/>
</g>
<g class="st1">
	<path class="st2" d="M315.5,274.3l1.6-0.4v-7.9l-1.8-0.4v-2.1h5l0.2,1.9c0.3-0.7,0.7-1.2,1.1-1.5s1-0.6,1.6-0.6c0.2,0,0.4,0,0.6,0
		s0.4,0.1,0.5,0.1l-0.4,3.1l-1.4,0c-0.5,0-0.9,0.1-1.2,0.3s-0.6,0.5-0.8,0.8v6.2l1.6,0.4v2.1h-6.7V274.3z"/>
</g>
<g class="st1">
	<path class="st2" d="M330.8,266.1v-2.4h1.9v-0.9c0-1.6,0.5-2.8,1.5-3.7s2.3-1.3,4.1-1.3c0.6,0,1.2,0.1,1.8,0.2s1.3,0.3,2.1,0.5
		l-0.5,2.7c-0.6-0.2-1.1-0.3-1.6-0.4s-1-0.1-1.6-0.1c-0.8,0-1.4,0.2-1.8,0.5s-0.6,0.9-0.6,1.6v0.9h7.7V274l1.8,0.4v2.1h-6.9v-2.1
		l1.7-0.4v-7.9h-4.3v7.9l1.7,0.4v2.1h-6.9v-2.1l1.8-0.4v-7.9H330.8z"/>
</g>
<g class="st1">
	<path class="st2" d="M346.8,274.3l1.6-0.4v-7.9l-1.8-0.4v-2.1h5l0.2,1.8c0.4-0.6,0.9-1.2,1.6-1.5s1.3-0.5,2.1-0.5
		c1.3,0,2.3,0.4,3,1.2s1.1,2.1,1.1,3.8v5.5l1.6,0.4v2.1h-6.5v-2.1l1.5-0.4v-5.5c0-0.9-0.2-1.5-0.5-1.8s-0.9-0.5-1.6-0.5
		c-0.5,0-0.9,0.1-1.2,0.3s-0.7,0.4-0.9,0.8v6.8l1.4,0.4v2.1h-6.4V274.3z"/>
</g>
<g class="st1">
	<path class="st2" d="M362.1,270.2c0-2,0.4-3.6,1.3-4.8s2.1-1.8,3.7-1.8c0.7,0,1.3,0.2,1.9,0.5s1,0.8,1.4,1.4l0.2-1.6h3V276
		c0,1.7-0.5,3-1.6,4s-2.5,1.5-4.3,1.5c-0.6,0-1.3-0.1-2-0.3s-1.4-0.4-2-0.7l0.6-2.4c0.5,0.2,1.1,0.4,1.6,0.6s1.1,0.2,1.7,0.2
		c0.8,0,1.5-0.3,1.9-0.8s0.6-1.2,0.6-2.1v-0.8c-0.4,0.5-0.8,0.8-1.3,1.1s-1.1,0.4-1.7,0.4c-1.6,0-2.8-0.6-3.6-1.7s-1.3-2.7-1.3-4.5
		V270.2z M365.5,270.4c0,1.1,0.2,2,0.6,2.6s1,1,1.8,1c0.5,0,1-0.1,1.3-0.3s0.7-0.5,0.9-0.8v-5.5c-0.2-0.4-0.5-0.7-0.9-0.9
		s-0.8-0.3-1.3-0.3c-0.8,0-1.4,0.4-1.8,1.1s-0.6,1.7-0.6,2.9V270.4z"/>
</g>
<g class="st1">
	<path class="st2" d="M381.6,276.6c-1.8,0-3.3-0.6-4.4-1.8s-1.6-2.7-1.6-4.5V270c0-1.9,0.5-3.4,1.6-4.7s2.4-1.8,4.2-1.8
		c1.7,0,3,0.5,4,1.5s1.4,2.4,1.4,4.2v1.9h-7.6l0,0.1c0.1,0.8,0.3,1.5,0.8,2.1s1.2,0.8,2,0.8c0.8,0,1.4-0.1,1.9-0.2s1-0.4,1.6-0.7
		l0.9,2.1c-0.5,0.4-1.2,0.8-2,1S382.6,276.6,381.6,276.6z M381.3,266.1c-0.6,0-1.1,0.2-1.5,0.7s-0.6,1.1-0.7,1.9l0,0.1h4.2v-0.3
		c0-0.7-0.2-1.3-0.5-1.7S382,266.1,381.3,266.1z"/>
</g>
<g class="st1">
	<path class="st2" d="M388.1,274.3l1.6-0.4v-7.9l-1.8-0.4v-2.1h5l0.2,1.9c0.3-0.7,0.7-1.2,1.1-1.5s1-0.6,1.6-0.6c0.2,0,0.4,0,0.6,0
		s0.4,0.1,0.5,0.1l-0.4,3.1l-1.4,0c-0.5,0-0.9,0.1-1.2,0.3s-0.6,0.5-0.8,0.8v6.2l1.6,0.4v2.1h-6.7V274.3z"/>
</g>
<g class="st1">
	<path class="st2" d="M421.9,265.8l-1.3,0.2l-2.6,10.5h-2.9l-2.4-7.5h-0.1l-2.4,7.5h-2.8l-2.7-10.5l-1.3-0.2v-2.1h5.7v2.1L408,266
		l1.2,5.8h0.1l2.4-8.1h2.3l2.4,8.1h0.1l1.2-5.8l-1.4-0.3v-2.1h5.7V265.8z"/>
</g>
<g class="st1">
	<path class="st2" d="M423.2,274.3l1.7-0.4v-7.9l-1.8-0.4v-2.1h5.2V274l1.6,0.4v2.1h-6.7V274.3z M428.3,260.7h-3.4v-2.6h3.4V260.7z"
		/>
	<path class="st2" d="M430.9,260.2v-2.1h5.2V274l1.7,0.4v2.1h-6.7v-2.1l1.7-0.4v-13.5L430.9,260.2z"/>
</g>
<g class="st1">
	<path class="st2" d="M438.7,260.2v-2.1h5.2V274l1.7,0.4v2.1h-6.7v-2.1l1.7-0.4v-13.5L438.7,260.2z"/>
</g>
<g class="st1">
	<path class="st2" d="M464.9,270.4c0,1.9-0.4,3.4-1.3,4.5s-2.1,1.7-3.7,1.7c-0.7,0-1.4-0.2-1.9-0.5s-1-0.8-1.4-1.3l-0.2,1.6h-3
		v-15.9l-1.8-0.4v-2.1h5.2v6.9c0.4-0.5,0.8-0.9,1.3-1.2s1.1-0.4,1.8-0.4c1.6,0,2.8,0.6,3.7,1.8s1.3,2.8,1.3,4.9V270.4z M461.5,270.2
		c0-1.2-0.2-2.2-0.5-2.9s-1-1.1-1.9-1.1c-0.5,0-1,0.1-1.3,0.3s-0.7,0.5-0.9,1v5.4c0.2,0.4,0.5,0.7,0.9,0.9s0.8,0.3,1.4,0.3
		c0.9,0,1.5-0.3,1.9-0.9s0.5-1.5,0.5-2.6V270.2z"/>
</g>
<g class="st1">
	<path class="st2" d="M472.4,276.6c-1.8,0-3.3-0.6-4.4-1.8s-1.6-2.7-1.6-4.5V270c0-1.9,0.5-3.4,1.6-4.7s2.4-1.8,4.2-1.8
		c1.7,0,3,0.5,4,1.5s1.4,2.4,1.4,4.2v1.9h-7.6l0,0.1c0.1,0.8,0.3,1.5,0.8,2.1s1.2,0.8,2,0.8c0.8,0,1.4-0.1,1.9-0.2s1-0.4,1.6-0.7
		l0.9,2.1c-0.5,0.4-1.2,0.8-2,1S473.4,276.6,472.4,276.6z M472.1,266.1c-0.6,0-1.1,0.2-1.5,0.7s-0.6,1.1-0.7,1.9l0,0.1h4.2v-0.3
		c0-0.7-0.2-1.3-0.5-1.7S472.8,266.1,472.1,266.1z"/>
</g>
<g class="st1">
	<path class="st2" d="M128.8,294.6v-2.1h5l0.2,1.5c0.4-0.5,0.8-1,1.3-1.3s1.1-0.4,1.8-0.4c1.6,0,2.8,0.6,3.7,1.8s1.3,2.8,1.3,4.8
		v0.2c0,1.9-0.4,3.4-1.3,4.5s-2.1,1.7-3.6,1.7c-0.7,0-1.3-0.1-1.8-0.4s-1-0.6-1.3-1.1v3.7l1.7,0.4v2.1H129V308l1.7-0.4v-12.7
		L128.8,294.6z M138.7,299c0-1.2-0.2-2.2-0.6-2.9s-1-1.1-1.8-1.1c-0.5,0-1,0.1-1.3,0.3s-0.7,0.5-0.9,0.9v5.6
		c0.2,0.4,0.5,0.6,0.9,0.8s0.8,0.3,1.3,0.3c0.8,0,1.4-0.3,1.8-1s0.6-1.5,0.6-2.6V299z"/>
</g>
<g class="st1">
	<path class="st2" d="M143.4,303.1l1.6-0.4v-7.9l-1.8-0.4v-2.1h5l0.2,1.9c0.3-0.7,0.7-1.2,1.1-1.5s1-0.6,1.6-0.6c0.2,0,0.4,0,0.6,0
		s0.4,0.1,0.5,0.1l-0.4,3.1l-1.4,0c-0.5,0-0.9,0.1-1.2,0.3s-0.6,0.5-0.8,0.8v6.2l1.6,0.4v2.1h-6.7V303.1z"/>
</g>
<g class="st1">
	<path class="st2" d="M153.5,303.1l1.7-0.4v-7.9l-1.8-0.4v-2.1h5.2v10.3l1.6,0.4v2.1h-6.7V303.1z M158.5,289.5h-3.4v-2.6h3.4V289.5z
		"/>
</g>
<g class="st1">
	<path class="st2" d="M166.9,302.8c0.6,0,1.1-0.2,1.5-0.5s0.6-0.8,0.6-1.4h3.1l0,0.1c0,1.3-0.4,2.4-1.4,3.2s-2.2,1.3-3.7,1.3
		c-1.9,0-3.3-0.6-4.4-1.8s-1.5-2.7-1.5-4.6v-0.4c0-1.9,0.5-3.4,1.6-4.6s2.5-1.8,4.5-1.8c1,0,1.9,0.2,2.8,0.5s1.5,0.7,2,1.3l0,3.4
		h-2.8l-0.6-2c-0.2-0.1-0.4-0.3-0.6-0.4s-0.5-0.1-0.9-0.1c-1,0-1.7,0.4-2.1,1.1s-0.6,1.6-0.6,2.7v0.4c0,1.1,0.2,2,0.6,2.7
		S166,302.8,166.9,302.8z"/>
</g>
<g class="st1">
	<path class="st2" d="M173,289v-2.1h5.2v10.6h0.8l2-2.8l-1.1-0.2v-2.1h6.2v2.1l-1.5,0.3l-2.3,3.1l3.2,4.8l1.3,0.3v2.1H181v-2.1
		l0.7-0.1l-1.9-3.1h-1.5v2.9l1.5,0.4v2.1h-6.5v-2.1l1.7-0.4v-13.5L173,289z"/>
</g>
<g class="st1">
	<path class="st2" d="M193.6,305.4c-1.8,0-3.3-0.6-4.4-1.8s-1.6-2.7-1.6-4.5v-0.5c0-1.9,0.5-3.4,1.6-4.7s2.4-1.8,4.2-1.8
		c1.7,0,3,0.5,4,1.5s1.4,2.4,1.4,4.2v1.9h-7.6l0,0.1c0.1,0.8,0.3,1.5,0.8,2.1s1.2,0.8,2,0.8c0.8,0,1.4-0.1,1.9-0.2s1-0.4,1.6-0.7
		l0.9,2.1c-0.5,0.4-1.2,0.8-2,1S194.7,305.4,193.6,305.4z M193.3,294.9c-0.6,0-1.1,0.2-1.5,0.7s-0.6,1.1-0.7,1.9l0,0.1h4.2v-0.3
		c0-0.7-0.2-1.3-0.5-1.7S194,294.9,193.3,294.9z"/>
</g>
<g class="st1">
	<path class="st2" d="M208.5,303.7c-0.4,0.6-0.9,1-1.4,1.3s-1.2,0.5-1.9,0.5c-1.6,0-2.8-0.6-3.6-1.7s-1.3-2.6-1.3-4.5V299
		c0-2,0.4-3.6,1.3-4.8s2.1-1.8,3.7-1.8c0.6,0,1.2,0.1,1.7,0.4s1,0.7,1.3,1.2v-4.5l-1.8-0.4v-2.1h1.8h3.4v15.9l1.6,0.4v2.1h-4.6
		L208.5,303.7z M203.7,299.2c0,1.1,0.2,2,0.6,2.6s1,1,1.8,1c0.5,0,0.9-0.1,1.3-0.3s0.7-0.5,0.9-0.9v-5.4c-0.2-0.4-0.5-0.7-0.9-0.9
		s-0.8-0.3-1.3-0.3c-0.8,0-1.4,0.4-1.8,1.1s-0.6,1.7-0.6,2.9V299.2z"/>
</g>
<g class="st1">
	<path class="st2" d="M218.5,304.7c0,0.8-0.2,1.6-0.7,2.5s-1,1.6-1.6,2.2l-1.7-0.9c0.3-0.5,0.5-1.1,0.7-1.7s0.2-1.2,0.2-2v-2.6h3.1
		L218.5,304.7z"/>
</g>
<g class="st1">
	<path class="st2" d="M226.5,303.1l1.7-0.4v-7.9h-1.9v-2.4h1.9v-1.4c0-1.4,0.4-2.5,1.2-3.3s2-1.2,3.5-1.2c0.3,0,0.6,0,0.9,0.1
		s0.6,0.1,1,0.2l-0.3,2.5c-0.2,0-0.4-0.1-0.5-0.1s-0.4,0-0.6,0c-0.6,0-1,0.2-1.3,0.5s-0.4,0.7-0.4,1.3v1.4h2.5v2.4h-2.5v7.9l1.7,0.4
		v2.1h-6.7V303.1z"/>
</g>
<g class="st1">
	<path class="st2" d="M234.9,298.7c0-1.9,0.5-3.4,1.6-4.6s2.5-1.8,4.4-1.8c1.9,0,3.3,0.6,4.4,1.8s1.6,2.8,1.6,4.7v0.2
		c0,1.9-0.5,3.5-1.6,4.7s-2.5,1.8-4.4,1.8c-1.9,0-3.4-0.6-4.4-1.8s-1.6-2.8-1.6-4.7V298.7z M238.3,299c0,1.2,0.2,2.1,0.6,2.8
		s1.1,1,2,1c0.9,0,1.5-0.4,1.9-1.1s0.6-1.6,0.6-2.8v-0.2c0-1.1-0.2-2-0.6-2.8s-1.1-1.1-2-1.1s-1.5,0.4-1.9,1.1s-0.6,1.6-0.6,2.8V299
		z"/>
</g>
<g class="st1">
	<path class="st2" d="M248,303.1l1.6-0.4v-7.9l-1.8-0.4v-2.1h5l0.2,1.9c0.3-0.7,0.7-1.2,1.1-1.5s1-0.6,1.6-0.6c0.2,0,0.4,0,0.6,0
		s0.4,0.1,0.5,0.1l-0.4,3.1l-1.4,0c-0.5,0-0.9,0.1-1.2,0.3s-0.6,0.5-0.8,0.8v6.2l1.6,0.4v2.1H248V303.1z"/>
</g>
<g class="st1">
	<path class="st2" d="M271.9,305.2c-0.1-0.2-0.2-0.4-0.2-0.7s-0.1-0.4-0.2-0.7c-0.4,0.5-0.9,0.8-1.5,1.1s-1.2,0.4-2,0.4
		c-1.2,0-2.2-0.3-3-1s-1.1-1.6-1.1-2.8c0-1.2,0.5-2.1,1.4-2.8s2.4-1,4.2-1h1.7v-1.2c0-0.6-0.2-1.1-0.5-1.4s-0.9-0.5-1.6-0.5
		c-0.4,0-0.7,0-1,0.1s-0.6,0.2-0.7,0.3l-0.2,1.4h-2.6l0-2.8c0.6-0.4,1.3-0.8,2.2-1.1s1.7-0.4,2.6-0.4c1.6,0,2.8,0.4,3.8,1.2
		s1.5,1.9,1.5,3.3v5.2c0,0.2,0,0.4,0,0.6s0,0.3,0,0.5l1,0.1v2.1H271.9z M268.9,302.9c0.5,0,1-0.1,1.4-0.3s0.8-0.5,1-0.8v-1.9h-1.7
		c-0.7,0-1.3,0.2-1.7,0.5s-0.6,0.7-0.6,1.2c0,0.4,0.1,0.8,0.4,1S268.4,302.9,268.9,302.9z"/>
</g>
<g class="st1">
	<path class="st2" d="M277,303.1l1.6-0.4v-7.9l-1.8-0.4v-2.1h5l0.2,1.8c0.4-0.6,0.9-1.2,1.6-1.5s1.3-0.5,2.1-0.5
		c1.3,0,2.3,0.4,3,1.2s1.1,2.1,1.1,3.8v5.5l1.6,0.4v2.1h-6.5v-2.1l1.5-0.4v-5.5c0-0.9-0.2-1.5-0.5-1.8s-0.9-0.5-1.6-0.5
		c-0.5,0-0.9,0.1-1.2,0.3s-0.7,0.4-0.9,0.8v6.8l1.4,0.4v2.1H277V303.1z"/>
</g>
<g class="st1">
	<path class="st2" d="M300.4,305.2c-0.1-0.2-0.2-0.4-0.2-0.7s-0.1-0.4-0.2-0.7c-0.4,0.5-0.9,0.8-1.5,1.1s-1.2,0.4-2,0.4
		c-1.2,0-2.2-0.3-3-1s-1.1-1.6-1.1-2.8c0-1.2,0.5-2.1,1.4-2.8s2.4-1,4.2-1h1.7v-1.2c0-0.6-0.2-1.1-0.5-1.4s-0.9-0.5-1.6-0.5
		c-0.4,0-0.7,0-1,0.1s-0.6,0.2-0.7,0.3l-0.2,1.4h-2.6l0-2.8c0.6-0.4,1.3-0.8,2.2-1.1s1.7-0.4,2.6-0.4c1.6,0,2.8,0.4,3.8,1.2
		s1.5,1.9,1.5,3.3v5.2c0,0.2,0,0.4,0,0.6s0,0.3,0,0.5l1,0.1v2.1H300.4z M297.5,302.9c0.5,0,1-0.1,1.4-0.3s0.8-0.5,1-0.8v-1.9h-1.7
		c-0.7,0-1.3,0.2-1.7,0.5s-0.6,0.7-0.6,1.2c0,0.4,0.1,0.8,0.4,1S297,302.9,297.5,302.9z"/>
</g>
<g class="st1">
	<path class="st2" d="M305.3,289v-2.1h5.2v15.9l1.7,0.4v2.1h-6.7v-2.1l1.7-0.4v-13.5L305.3,289z"/>
</g>
<g class="st1">
	<path class="st2" d="M326,294.6l-1.2,0.2l-4.7,12.3c-0.4,0.9-0.9,1.7-1.5,2.3s-1.5,0.9-2.8,0.9c-0.3,0-0.6,0-0.8-0.1
		s-0.6-0.1-0.9-0.2l0.4-2.5c0.1,0,0.2,0,0.3,0s0.2,0,0.3,0c0.6,0,1-0.1,1.3-0.4s0.5-0.6,0.7-1l0.4-1l-4-10.4l-1.2-0.2v-2.1h6.2v2.1
		l-1.4,0.2l1.7,5.1l0.2,0.9l0.1,0l2-6l-1.4-0.2v-2.1h6.2V294.6z"/>
</g>
<g class="st1">
	<path class="st2" d="M337.2,296.9h-2.3l-0.4-1.6c-0.2-0.2-0.5-0.3-0.9-0.5s-0.7-0.2-1.2-0.2c-0.6,0-1.1,0.1-1.4,0.4s-0.5,0.6-0.5,1
		c0,0.4,0.2,0.7,0.5,1s1,0.5,2,0.7c1.6,0.3,2.7,0.8,3.5,1.4s1.1,1.4,1.1,2.5c0,1.1-0.5,2.1-1.5,2.8s-2.3,1.1-3.9,1.1
		c-1,0-1.9-0.1-2.7-0.4s-1.5-0.7-2.2-1.2l0-2.8h2.4l0.5,1.7c0.2,0.2,0.5,0.3,0.8,0.4s0.7,0.1,1.1,0.1c0.7,0,1.2-0.1,1.6-0.4
		s0.5-0.6,0.5-1c0-0.4-0.2-0.7-0.6-1s-1-0.5-2-0.7c-1.5-0.3-2.6-0.8-3.4-1.4s-1.1-1.4-1.1-2.4c0-1.1,0.4-2,1.3-2.7s2.1-1.2,3.7-1.2
		c1,0,1.9,0.1,2.8,0.4s1.6,0.6,2.1,1L337.2,296.9z"/>
</g>
<g class="st1">
	<path class="st2" d="M338.9,303.1l1.7-0.4v-7.9l-1.8-0.4v-2.1h5.2v10.3l1.6,0.4v2.1h-6.7V303.1z M344,289.5h-3.4v-2.6h3.4V289.5z"
		/>
</g>
<g class="st1">
	<path class="st2" d="M356.9,296.9h-2.3l-0.4-1.6c-0.2-0.2-0.5-0.3-0.9-0.5s-0.7-0.2-1.2-0.2c-0.6,0-1.1,0.1-1.4,0.4s-0.5,0.6-0.5,1
		c0,0.4,0.2,0.7,0.5,1s1,0.5,2,0.7c1.6,0.3,2.7,0.8,3.5,1.4s1.1,1.4,1.1,2.5c0,1.1-0.5,2.1-1.5,2.8s-2.3,1.1-3.9,1.1
		c-1,0-1.9-0.1-2.7-0.4s-1.5-0.7-2.2-1.2l0-2.8h2.4l0.5,1.7c0.2,0.2,0.5,0.3,0.8,0.4s0.7,0.1,1.1,0.1c0.7,0,1.2-0.1,1.6-0.4
		s0.5-0.6,0.5-1c0-0.4-0.2-0.7-0.6-1s-1-0.5-2-0.7c-1.5-0.3-2.6-0.8-3.4-1.4s-1.1-1.4-1.1-2.4c0-1.1,0.4-2,1.3-2.7s2.1-1.2,3.7-1.2
		c1,0,1.9,0.1,2.8,0.4s1.6,0.6,2.1,1L356.9,296.9z"/>
</g>
<g class="st1">
	<path class="st2" d="M364.7,303.1l1.7-0.4v-7.9l-1.8-0.4v-2.1h5.2v10.3l1.6,0.4v2.1h-6.7V303.1z M369.7,289.5h-3.4v-2.6h3.4V289.5z
		"/>
</g>
<g class="st1">
	<path class="st2" d="M372.5,303.1l1.6-0.4v-7.9l-1.8-0.4v-2.1h5l0.2,1.8c0.4-0.6,0.9-1.2,1.6-1.5s1.3-0.5,2.1-0.5
		c1.3,0,2.3,0.4,3,1.2s1.1,2.1,1.1,3.8v5.5l1.6,0.4v2.1h-6.5v-2.1l1.5-0.4v-5.5c0-0.9-0.2-1.5-0.5-1.8s-0.9-0.5-1.6-0.5
		c-0.5,0-0.9,0.1-1.2,0.3s-0.7,0.4-0.9,0.8v6.8l1.4,0.4v2.1h-6.4V303.1z"/>
</g>
<g class="st1">
	<path class="st2" d="M398.9,289.4v3.1h2.2v2.4h-2.2v6.5c0,0.5,0.1,0.8,0.3,1.1s0.5,0.3,0.8,0.3c0.2,0,0.4,0,0.6,0s0.4-0.1,0.6-0.1
		l0.3,2.5c-0.4,0.1-0.8,0.2-1.1,0.3s-0.8,0.1-1.2,0.1c-1.2,0-2.1-0.3-2.7-1s-1-1.7-1-3.1v-6.5h-1.9v-2.4h1.9v-3.1H398.9z"/>
</g>
<g class="st1">
	<path class="st2" d="M402.7,303.1l1.7-0.4v-13.5l-1.8-0.4v-2.1h5.2v7.2c0.4-0.6,0.9-1,1.5-1.4s1.2-0.5,1.9-0.5
		c1.3,0,2.4,0.4,3.1,1.3s1.1,2.2,1.1,4.1v5.1l1.6,0.4v2.1h-6.5v-2.1l1.5-0.4v-5.1c0-1-0.2-1.7-0.5-2.1s-0.9-0.6-1.6-0.6
		c-0.5,0-0.9,0.1-1.2,0.3s-0.7,0.4-0.9,0.7v6.9l1.5,0.4v2.1h-6.5V303.1z"/>
</g>
<g class="st1">
	<path class="st2" d="M423.8,305.4c-1.8,0-3.3-0.6-4.4-1.8s-1.6-2.7-1.6-4.5v-0.5c0-1.9,0.5-3.4,1.6-4.7s2.4-1.8,4.2-1.8
		c1.7,0,3,0.5,4,1.5s1.4,2.4,1.4,4.2v1.9h-7.6l0,0.1c0.1,0.8,0.3,1.5,0.8,2.1s1.2,0.8,2,0.8c0.8,0,1.4-0.1,1.9-0.2s1-0.4,1.6-0.7
		l0.9,2.1c-0.5,0.4-1.2,0.8-2,1S424.8,305.4,423.8,305.4z M423.5,294.9c-0.6,0-1.1,0.2-1.5,0.7s-0.6,1.1-0.7,1.9l0,0.1h4.2v-0.3
		c0-0.7-0.2-1.3-0.5-1.7S424.2,294.9,423.5,294.9z"/>
</g>
<g class="st1">
	<path class="st2" d="M436,289v-2.1h5.2v15.9l1.7,0.4v2.1h-6.7v-2.1l1.7-0.4v-13.5L436,289z"/>
</g>
<g class="st1">
	<path class="st2" d="M452.1,305.2c-0.1-0.2-0.2-0.4-0.2-0.7s-0.1-0.4-0.2-0.7c-0.4,0.5-0.9,0.8-1.5,1.1s-1.2,0.4-2,0.4
		c-1.2,0-2.2-0.3-3-1s-1.1-1.6-1.1-2.8c0-1.2,0.5-2.1,1.4-2.8s2.4-1,4.2-1h1.7v-1.2c0-0.6-0.2-1.1-0.5-1.4s-0.9-0.5-1.6-0.5
		c-0.4,0-0.7,0-1,0.1s-0.6,0.2-0.7,0.3l-0.2,1.4h-2.6l0-2.8c0.6-0.4,1.3-0.8,2.2-1.1s1.7-0.4,2.6-0.4c1.6,0,2.8,0.4,3.8,1.2
		s1.5,1.9,1.5,3.3v5.2c0,0.2,0,0.4,0,0.6s0,0.3,0,0.5l1,0.1v2.1H452.1z M449.1,302.9c0.5,0,1-0.1,1.4-0.3s0.8-0.5,1-0.8v-1.9h-1.7
		c-0.7,0-1.3,0.2-1.7,0.5s-0.6,0.7-0.6,1.2c0,0.4,0.1,0.8,0.4,1S448.7,302.9,449.1,302.9z"/>
</g>
<g class="st1">
	<path class="st2" d="M469.2,299.2c0,1.9-0.4,3.4-1.3,4.5s-2.1,1.7-3.7,1.7c-0.7,0-1.4-0.2-1.9-0.5s-1-0.8-1.4-1.3l-0.2,1.6h-3
		v-15.9L456,289v-2.1h5.2v6.9c0.4-0.5,0.8-0.9,1.3-1.2s1.1-0.4,1.8-0.4c1.6,0,2.8,0.6,3.7,1.8s1.3,2.8,1.3,4.9V299.2z M465.8,299
		c0-1.2-0.2-2.2-0.5-2.9s-1-1.1-1.9-1.1c-0.5,0-1,0.1-1.3,0.3s-0.7,0.5-0.9,1v5.4c0.2,0.4,0.5,0.7,0.9,0.9s0.8,0.3,1.4,0.3
		c0.9,0,1.5-0.3,1.9-0.9s0.5-1.5,0.5-2.6V299z"/>
</g>
<g class="st1">
	<path class="st2" d="M474.6,305.2h-3.4v-3h3.4V305.2z"/>
</g>
<g class="st1">
	<path class="st2" d="M164,345.7v4.5h-2.6l-0.1-1.9h-3.1v12l1.8,0.4v2.1h-7.1v-2.1l1.8-0.4v-12h-3.1l-0.1,1.9h-2.6v-4.5H164z"/>
</g>
<g class="st1">
	<path class="st2" d="M165.3,360.7l1.7-0.4v-13.5l-1.8-0.4v-2.1h5.2v7.2c0.4-0.6,0.9-1,1.5-1.4s1.2-0.5,1.9-0.5
		c1.3,0,2.4,0.4,3.1,1.3s1.1,2.2,1.1,4.1v5.1l1.6,0.4v2.1h-6.5v-2.1l1.5-0.4v-5.1c0-1-0.2-1.7-0.5-2.1s-0.9-0.6-1.6-0.6
		c-0.5,0-0.9,0.1-1.2,0.3s-0.7,0.4-0.9,0.7v6.9l1.5,0.4v2.1h-6.5V360.7z"/>
</g>
<g class="st1">
	<path class="st2" d="M180.8,360.7l1.7-0.4v-7.9l-1.8-0.4v-2.1h5.2v10.3l1.6,0.4v2.1h-6.7V360.7z M185.9,347.1h-3.4v-2.6h3.4V347.1z
		"/>
</g>
<g class="st1">
	<path class="st2" d="M198.8,354.5h-2.3l-0.4-1.6c-0.2-0.2-0.5-0.3-0.9-0.5s-0.7-0.2-1.2-0.2c-0.6,0-1.1,0.1-1.4,0.4s-0.5,0.6-0.5,1
		c0,0.4,0.2,0.7,0.5,1s1,0.5,2,0.7c1.6,0.3,2.7,0.8,3.5,1.4s1.1,1.4,1.1,2.5c0,1.1-0.5,2.1-1.5,2.8s-2.3,1.1-3.9,1.1
		c-1,0-1.9-0.1-2.7-0.4s-1.5-0.7-2.2-1.2l0-2.8h2.4l0.5,1.7c0.2,0.2,0.5,0.3,0.8,0.4s0.7,0.1,1.1,0.1c0.7,0,1.2-0.1,1.6-0.4
		s0.5-0.6,0.5-1c0-0.4-0.2-0.7-0.6-1s-1-0.5-2-0.7c-1.5-0.3-2.6-0.8-3.4-1.4s-1.1-1.4-1.1-2.4c0-1.1,0.4-2,1.3-2.7s2.1-1.2,3.7-1.2
		c1,0,1.9,0.1,2.8,0.4s1.6,0.6,2.1,1L198.8,354.5z"/>
</g>
<g class="st1">
	<path class="st2" d="M211.7,347v3.1h2.2v2.4h-2.2v6.5c0,0.5,0.1,0.8,0.3,1.1s0.5,0.3,0.8,0.3c0.2,0,0.4,0,0.6,0s0.4-0.1,0.6-0.1
		l0.3,2.5c-0.4,0.1-0.8,0.2-1.1,0.3s-0.8,0.1-1.2,0.1c-1.2,0-2.1-0.3-2.7-1s-1-1.7-1-3.1v-6.5h-1.9v-2.4h1.9V347H211.7z"/>
</g>
<g class="st1">
	<path class="st2" d="M221.2,363c-1.8,0-3.3-0.6-4.4-1.8s-1.6-2.7-1.6-4.5v-0.5c0-1.9,0.5-3.4,1.6-4.7s2.4-1.8,4.2-1.8
		c1.7,0,3,0.5,4,1.5s1.4,2.4,1.4,4.2v1.9h-7.6l0,0.1c0.1,0.8,0.3,1.5,0.8,2.1s1.2,0.8,2,0.8c0.8,0,1.4-0.1,1.9-0.2s1-0.4,1.6-0.7
		l0.9,2.1c-0.5,0.4-1.2,0.8-2,1S222.2,363,221.2,363z M220.9,352.5c-0.6,0-1.1,0.2-1.5,0.7s-0.6,1.1-0.7,1.9l0,0.1h4.2v-0.3
		c0-0.7-0.2-1.3-0.5-1.7S221.6,352.5,220.9,352.5z"/>
</g>
<g class="st1">
	<path class="st2" d="M238,354.5h-2.3l-0.4-1.6c-0.2-0.2-0.5-0.3-0.9-0.5s-0.7-0.2-1.2-0.2c-0.6,0-1.1,0.1-1.4,0.4s-0.5,0.6-0.5,1
		c0,0.4,0.2,0.7,0.5,1s1,0.5,2,0.7c1.6,0.3,2.7,0.8,3.5,1.4s1.1,1.4,1.1,2.5c0,1.1-0.5,2.1-1.5,2.8s-2.3,1.1-3.9,1.1
		c-1,0-1.9-0.1-2.7-0.4s-1.5-0.7-2.2-1.2l0-2.8h2.4l0.5,1.7c0.2,0.2,0.5,0.3,0.8,0.4s0.7,0.1,1.1,0.1c0.7,0,1.2-0.1,1.6-0.4
		s0.5-0.6,0.5-1c0-0.4-0.2-0.7-0.6-1s-1-0.5-2-0.7c-1.5-0.3-2.6-0.8-3.4-1.4s-1.1-1.4-1.1-2.4c0-1.1,0.4-2,1.3-2.7s2.1-1.2,3.7-1.2
		c1,0,1.9,0.1,2.8,0.4s1.6,0.6,2.1,1L238,354.5z"/>
</g>
<g class="st1">
	<path class="st2" d="M244.8,347v3.1h2.2v2.4h-2.2v6.5c0,0.5,0.1,0.8,0.3,1.1s0.5,0.3,0.8,0.3c0.2,0,0.4,0,0.6,0s0.4-0.1,0.6-0.1
		l0.3,2.5c-0.4,0.1-0.8,0.2-1.1,0.3s-0.8,0.1-1.2,0.1c-1.2,0-2.1-0.3-2.7-1s-1-1.7-1-3.1v-6.5h-1.9v-2.4h1.9V347H244.8z"/>
</g>
<g class="st1">
	<path class="st2" d="M258.7,354.5h-2.3l-0.4-1.6c-0.2-0.2-0.5-0.3-0.9-0.5s-0.7-0.2-1.2-0.2c-0.6,0-1.1,0.1-1.4,0.4s-0.5,0.6-0.5,1
		c0,0.4,0.2,0.7,0.5,1s1,0.5,2,0.7c1.6,0.3,2.7,0.8,3.5,1.4s1.1,1.4,1.1,2.5c0,1.1-0.5,2.1-1.5,2.8s-2.3,1.1-3.9,1.1
		c-1,0-1.9-0.1-2.7-0.4s-1.5-0.7-2.2-1.2l0-2.8h2.4l0.5,1.7c0.2,0.2,0.5,0.3,0.8,0.4s0.7,0.1,1.1,0.1c0.7,0,1.2-0.1,1.6-0.4
		s0.5-0.6,0.5-1c0-0.4-0.2-0.7-0.6-1s-1-0.5-2-0.7c-1.5-0.3-2.6-0.8-3.4-1.4s-1.1-1.4-1.1-2.4c0-1.1,0.4-2,1.3-2.7s2.1-1.2,3.7-1.2
		c1,0,1.9,0.1,2.8,0.4s1.6,0.6,2.1,1L258.7,354.5z"/>
</g>
<g class="st1">
	<path class="st2" d="M266.3,352.2v-2.1h5l0.2,1.5c0.4-0.5,0.8-1,1.3-1.3s1.1-0.4,1.8-0.4c1.6,0,2.8,0.6,3.7,1.8s1.3,2.8,1.3,4.8
		v0.2c0,1.9-0.4,3.4-1.3,4.5s-2.1,1.7-3.6,1.7c-0.7,0-1.3-0.1-1.8-0.4s-1-0.6-1.3-1.1v3.7l1.7,0.4v2.1h-6.7v-2.1l1.7-0.4v-12.7
		L266.3,352.2z M276.1,356.6c0-1.2-0.2-2.2-0.6-2.9s-1-1.1-1.8-1.1c-0.5,0-1,0.1-1.3,0.3s-0.7,0.5-0.9,0.9v5.6
		c0.2,0.4,0.5,0.6,0.9,0.8s0.8,0.3,1.3,0.3c0.8,0,1.4-0.3,1.8-1s0.6-1.5,0.6-2.6V356.6z"/>
</g>
<g class="st1">
	<path class="st2" d="M280.9,360.7l1.6-0.4v-7.9l-1.8-0.4v-2.1h5l0.2,1.9c0.3-0.7,0.7-1.2,1.1-1.5s1-0.6,1.6-0.6c0.2,0,0.4,0,0.6,0
		s0.4,0.1,0.5,0.1l-0.4,3.1l-1.4,0c-0.5,0-0.9,0.1-1.2,0.3s-0.6,0.5-0.8,0.8v6.2l1.6,0.4v2.1h-6.7V360.7z"/>
</g>
<g class="st1">
	<path class="st2" d="M290.9,360.7l1.7-0.4v-7.9l-1.8-0.4v-2.1h5.2v10.3l1.6,0.4v2.1h-6.7V360.7z M296,347.1h-3.4v-2.6h3.4V347.1z"
		/>
</g>
<g class="st1">
	<path class="st2" d="M298.6,352.2v-2.1h5l0.1,1.7c0.4-0.6,0.9-1.1,1.5-1.4s1.3-0.5,2.1-0.5c0.8,0,1.5,0.2,2.1,0.5s1,0.9,1.3,1.6
		c0.4-0.7,0.9-1.2,1.5-1.6s1.4-0.6,2.2-0.6c1.2,0,2.2,0.4,3,1.3s1.1,2.2,1.1,3.9v5.3l1.7,0.4v2.1h-6.6v-2.1l1.5-0.4v-5.3
		c0-1-0.2-1.6-0.5-2s-0.8-0.6-1.4-0.6c-0.5,0-0.9,0.1-1.3,0.3s-0.6,0.5-0.8,0.9c0,0.1,0,0.3,0,0.4s0,0.2,0,0.3v5.9l1.4,0.4v2.1h-6.2
		v-2.1l1.4-0.4v-5.3c0-0.9-0.2-1.6-0.5-2c-0.3-0.4-0.8-0.6-1.4-0.6c-0.5,0-0.9,0.1-1.2,0.3s-0.6,0.4-0.9,0.7v6.8l1.5,0.4v2.1h-6.5
		v-2.1l1.7-0.4v-7.9L298.6,352.2z"/>
</g>
<g class="st1">
	<path class="st2" d="M329.3,362.8c-0.1-0.2-0.2-0.4-0.2-0.7s-0.1-0.4-0.2-0.7c-0.4,0.5-0.9,0.8-1.5,1.1s-1.2,0.4-2,0.4
		c-1.2,0-2.2-0.3-3-1s-1.1-1.6-1.1-2.8c0-1.2,0.5-2.1,1.4-2.8s2.4-1,4.2-1h1.7v-1.2c0-0.6-0.2-1.1-0.5-1.4s-0.9-0.5-1.6-0.5
		c-0.4,0-0.7,0-1,0.1s-0.6,0.2-0.7,0.3l-0.2,1.4h-2.6l0-2.8c0.6-0.4,1.3-0.8,2.2-1.1s1.7-0.4,2.6-0.4c1.6,0,2.8,0.4,3.8,1.2
		s1.5,1.9,1.5,3.3v5.2c0,0.2,0,0.4,0,0.6s0,0.3,0,0.5l1,0.1v2.1H329.3z M326.4,360.5c0.5,0,1-0.1,1.4-0.3s0.8-0.5,1-0.8v-1.9H327
		c-0.7,0-1.3,0.2-1.7,0.5s-0.6,0.7-0.6,1.2c0,0.4,0.1,0.8,0.4,1S325.9,360.5,326.4,360.5z"/>
</g>
<g class="st1">
	<path class="st2" d="M334.7,360.7l1.6-0.4v-7.9l-1.8-0.4v-2.1h5l0.2,1.9c0.3-0.7,0.7-1.2,1.1-1.5s1-0.6,1.6-0.6c0.2,0,0.4,0,0.6,0
		s0.4,0.1,0.5,0.1l-0.4,3.1l-1.4,0c-0.5,0-0.9,0.1-1.2,0.3s-0.6,0.5-0.8,0.8v6.2l1.6,0.4v2.1h-6.7V360.7z"/>
</g>
<g class="st1">
	<path class="st2" d="M344.7,360.7l1.7-0.4v-7.9l-1.8-0.4v-2.1h5.2v10.3l1.6,0.4v2.1h-6.7V360.7z M349.8,347.1h-3.4v-2.6h3.4V347.1z
		"/>
</g>
<g class="st1">
	<path class="st2" d="M352.4,346.6v-2.1h5.2v15.9l1.7,0.4v2.1h-6.7v-2.1l1.7-0.4v-13.5L352.4,346.6z"/>
</g>
<g class="st1">
	<path class="st2" d="M373,352.2l-1.2,0.2l-4.7,12.3c-0.4,0.9-0.9,1.7-1.5,2.3s-1.5,0.9-2.8,0.9c-0.3,0-0.6,0-0.8-0.1
		s-0.6-0.1-0.9-0.2l0.4-2.5c0.1,0,0.2,0,0.3,0s0.2,0,0.3,0c0.6,0,1-0.1,1.3-0.4s0.5-0.6,0.7-1l0.4-1l-4-10.4l-1.2-0.2v-2.1h6.2v2.1
		l-1.4,0.2l1.7,5.1l0.2,0.9l0.1,0l2-6l-1.4-0.2v-2.1h6.2V352.2z"/>
</g>
<g class="st1">
	<path class="st2" d="M380.1,360.7l1.7-0.4v-7.9h-1.9v-2.4h1.9v-1.4c0-1.4,0.4-2.5,1.2-3.3s2-1.2,3.5-1.2c0.3,0,0.6,0,0.9,0.1
		s0.6,0.1,1,0.2l-0.3,2.5c-0.2,0-0.4-0.1-0.5-0.1s-0.4,0-0.6,0c-0.6,0-1,0.2-1.3,0.5s-0.4,0.7-0.4,1.3v1.4h2.5v2.4h-2.5v7.9l1.7,0.4
		v2.1h-6.7V360.7z"/>
</g>
<g class="st1">
	<path class="st2" d="M388.6,356.3c0-1.9,0.5-3.4,1.6-4.6s2.5-1.8,4.4-1.8c1.9,0,3.3,0.6,4.4,1.8s1.6,2.8,1.6,4.7v0.2
		c0,1.9-0.5,3.5-1.6,4.7s-2.5,1.8-4.4,1.8c-1.9,0-3.4-0.6-4.4-1.8s-1.6-2.8-1.6-4.7V356.3z M392,356.6c0,1.2,0.2,2.1,0.6,2.8
		s1.1,1,2,1c0.9,0,1.5-0.4,1.9-1.1s0.6-1.6,0.6-2.8v-0.2c0-1.1-0.2-2-0.6-2.8s-1.1-1.1-2-1.1s-1.5,0.4-1.9,1.1s-0.6,1.6-0.6,2.8
		V356.6z"/>
</g>
<g class="st1">
	<path class="st2" d="M401.7,360.7l1.6-0.4v-7.9l-1.8-0.4v-2.1h5l0.2,1.9c0.3-0.7,0.7-1.2,1.1-1.5s1-0.6,1.6-0.6c0.2,0,0.4,0,0.6,0
		s0.4,0.1,0.5,0.1l-0.4,3.1l-1.4,0c-0.5,0-0.9,0.1-1.2,0.3s-0.6,0.5-0.8,0.8v6.2l1.6,0.4v2.1h-6.7V360.7z"/>
	<path class="st2" d="M417.4,347.8v-2.1h7.1v2.1l-1.8,0.4v4.9h7v-4.9l-1.8-0.4v-2.1h1.8h3.4h1.8v2.1l-1.8,0.4v12.2l1.8,0.4v2.1h-7.1
		v-2.1l1.8-0.4v-4.7h-7v4.7l1.8,0.4v2.1h-7.1v-2.1l1.8-0.4v-12.2L417.4,347.8z"/>
</g>
<g class="st1">
	<path class="st2" d="M436.1,347.8v-2.1h7.1v2.1l-1.8,0.4v12.2l1.8,0.4v2.1h-7.1v-2.1l1.8-0.4v-12.2L436.1,347.8z"/>
</g>
<g class="st1">
	<path class="st2" d="M450.6,347.8l-1.3,0.2l3,10.2l0.2,0.9h0.1l0.2-0.9l3-10.3l-1.3-0.2v-2.1h6.2v2.1l-1.4,0.2l-5,14.8h-3.5
		l-5-14.8l-1.4-0.2v-2.1h6.2V347.8z"/>
</g>
<g class="st1">
	<path class="st2" d="M463.6,362.3c0,0.8-0.2,1.6-0.7,2.5s-1,1.6-1.6,2.2l-1.7-0.9c0.3-0.5,0.5-1.1,0.7-1.7s0.2-1.2,0.2-2V360h3.1
		L463.6,362.3z"/>
</g>
<g class="st1">
	<path class="st2" d="M128.9,389.5l1.7-0.4v-13.5l-1.8-0.4v-2.1h5.2v7.2c0.4-0.6,0.9-1,1.5-1.4s1.2-0.5,1.9-0.5
		c1.3,0,2.4,0.4,3.1,1.3s1.1,2.2,1.1,4.1v5.1l1.6,0.4v2.1h-6.5v-2.1l1.5-0.4v-5.1c0-1-0.2-1.7-0.5-2.1s-0.9-0.6-1.6-0.6
		c-0.5,0-0.9,0.1-1.2,0.3s-0.7,0.4-0.9,0.7v6.9l1.5,0.4v2.1h-6.5V389.5z"/>
</g>
<g class="st1">
	<path class="st2" d="M150,391.8c-1.8,0-3.3-0.6-4.4-1.8s-1.6-2.7-1.6-4.5v-0.5c0-1.9,0.5-3.4,1.6-4.7s2.4-1.8,4.2-1.8
		c1.7,0,3,0.5,4,1.5s1.4,2.4,1.4,4.2v1.9h-7.6l0,0.1c0.1,0.8,0.3,1.5,0.8,2.1s1.2,0.8,2,0.8c0.8,0,1.4-0.1,1.9-0.2s1-0.4,1.6-0.7
		l0.9,2.1c-0.5,0.4-1.2,0.8-2,1S151.1,391.8,150,391.8z M149.7,381.3c-0.6,0-1.1,0.2-1.5,0.7s-0.6,1.1-0.7,1.9l0,0.1h4.2v-0.3
		c0-0.7-0.2-1.3-0.5-1.7S150.4,381.3,149.7,381.3z"/>
</g>
<g class="st1">
	<path class="st2" d="M156.1,381v-2.1h5l0.2,1.5c0.4-0.5,0.8-1,1.3-1.3s1.1-0.4,1.8-0.4c1.6,0,2.8,0.6,3.7,1.8s1.3,2.8,1.3,4.8v0.2
		c0,1.9-0.4,3.4-1.3,4.5s-2.1,1.7-3.6,1.7c-0.7,0-1.3-0.1-1.8-0.4s-1-0.6-1.3-1.1v3.7l1.7,0.4v2.1h-6.7v-2.1l1.7-0.4v-12.7
		L156.1,381z M165.9,385.4c0-1.2-0.2-2.2-0.6-2.9s-1-1.1-1.8-1.1c-0.5,0-1,0.1-1.3,0.3s-0.7,0.5-0.9,0.9v5.6
		c0.2,0.4,0.5,0.6,0.9,0.8s0.8,0.3,1.3,0.3c0.8,0,1.4-0.3,1.8-1s0.6-1.5,0.6-2.6V385.4z"/>
</g>
<g class="st1">
	<path class="st2" d="M178.7,391.6c-0.1-0.2-0.2-0.4-0.2-0.7s-0.1-0.4-0.2-0.7c-0.4,0.5-0.9,0.8-1.5,1.1s-1.2,0.4-2,0.4
		c-1.2,0-2.2-0.3-3-1s-1.1-1.6-1.1-2.8c0-1.2,0.5-2.1,1.4-2.8s2.4-1,4.2-1h1.7v-1.2c0-0.6-0.2-1.1-0.5-1.4s-0.9-0.5-1.6-0.5
		c-0.4,0-0.7,0-1,0.1s-0.6,0.2-0.7,0.3l-0.2,1.4h-2.6l0-2.8c0.6-0.4,1.3-0.8,2.2-1.1s1.7-0.4,2.6-0.4c1.6,0,2.8,0.4,3.8,1.2
		s1.5,1.9,1.5,3.3v5.2c0,0.2,0,0.4,0,0.6s0,0.3,0,0.5l1,0.1v2.1H178.7z M175.8,389.3c0.5,0,1-0.1,1.4-0.3s0.8-0.5,1-0.8v-1.9h-1.7
		c-0.7,0-1.3,0.2-1.7,0.5s-0.6,0.7-0.6,1.2c0,0.4,0.1,0.8,0.4,1S175.3,389.3,175.8,389.3z"/>
</g>
<g class="st1">
	<path class="st2" d="M188.4,375.8v3.1h2.2v2.4h-2.2v6.5c0,0.5,0.1,0.8,0.3,1.1s0.5,0.3,0.8,0.3c0.2,0,0.4,0,0.6,0s0.4-0.1,0.6-0.1
		l0.3,2.5c-0.4,0.1-0.8,0.2-1.1,0.3s-0.8,0.1-1.2,0.1c-1.2,0-2.1-0.3-2.7-1s-1-1.7-1-3.1v-6.5h-1.9v-2.4h1.9v-3.1H188.4z"/>
</g>
<g class="st1">
	<path class="st2" d="M192.3,389.5l1.7-0.4v-7.9l-1.8-0.4v-2.1h5.2v10.3l1.6,0.4v2.1h-6.7V389.5z M197.4,375.9h-3.4v-2.6h3.4V375.9z
		"/>
</g>
<g class="st1">
	<path class="st2" d="M204.6,375.8v3.1h2.2v2.4h-2.2v6.5c0,0.5,0.1,0.8,0.3,1.1s0.5,0.3,0.8,0.3c0.2,0,0.4,0,0.6,0s0.4-0.1,0.6-0.1
		l0.3,2.5c-0.4,0.1-0.8,0.2-1.1,0.3s-0.8,0.1-1.2,0.1c-1.2,0-2.1-0.3-2.7-1s-1-1.7-1-3.1v-6.5h-1.9v-2.4h1.9v-3.1H204.6z"/>
</g>
<g class="st1">
	<path class="st2" d="M208.4,389.5l1.7-0.4v-7.9l-1.8-0.4v-2.1h5.2v10.3l1.6,0.4v2.1h-6.7V389.5z M213.5,375.9h-3.4v-2.6h3.4V375.9z
		"/>
</g>
<g class="st1">
	<path class="st2" d="M226.4,383.3h-2.3l-0.4-1.6c-0.2-0.2-0.5-0.3-0.9-0.5s-0.7-0.2-1.2-0.2c-0.6,0-1.1,0.1-1.4,0.4s-0.5,0.6-0.5,1
		c0,0.4,0.2,0.7,0.5,1s1,0.5,2,0.7c1.6,0.3,2.7,0.8,3.5,1.4s1.1,1.4,1.1,2.5c0,1.1-0.5,2.1-1.5,2.8s-2.3,1.1-3.9,1.1
		c-1,0-1.9-0.1-2.7-0.4s-1.5-0.7-2.2-1.2l0-2.8h2.4l0.5,1.7c0.2,0.2,0.5,0.3,0.8,0.4s0.7,0.1,1.1,0.1c0.7,0,1.2-0.1,1.6-0.4
		s0.5-0.6,0.5-1c0-0.4-0.2-0.7-0.6-1s-1-0.5-2-0.7c-1.5-0.3-2.6-0.8-3.4-1.4s-1.1-1.4-1.1-2.4c0-1.1,0.4-2,1.3-2.7s2.1-1.2,3.7-1.2
		c1,0,1.9,0.1,2.8,0.4s1.6,0.6,2.1,1L226.4,383.3z"/>
</g>
<g class="st1">
	<path class="st2" d="M232.1,391.1c0,0.8-0.2,1.6-0.7,2.5s-1,1.6-1.6,2.2l-1.7-0.9c0.3-0.5,0.5-1.1,0.7-1.7s0.2-1.2,0.2-2v-2.6h3.1
		L232.1,391.1z"/>
</g>
<g class="st1">
	<path class="st2" d="M250.3,383.3H248l-0.4-1.6c-0.2-0.2-0.5-0.3-0.9-0.5s-0.7-0.2-1.2-0.2c-0.6,0-1.1,0.1-1.4,0.4s-0.5,0.6-0.5,1
		c0,0.4,0.2,0.7,0.5,1s1,0.5,2,0.7c1.6,0.3,2.7,0.8,3.5,1.4s1.1,1.4,1.1,2.5c0,1.1-0.5,2.1-1.5,2.8s-2.3,1.1-3.9,1.1
		c-1,0-1.9-0.1-2.7-0.4s-1.5-0.7-2.2-1.2l0-2.8h2.4l0.5,1.7c0.2,0.2,0.5,0.3,0.8,0.4s0.7,0.1,1.1,0.1c0.7,0,1.2-0.1,1.6-0.4
		s0.5-0.6,0.5-1c0-0.4-0.2-0.7-0.6-1s-1-0.5-2-0.7c-1.5-0.3-2.6-0.8-3.4-1.4s-1.1-1.4-1.1-2.4c0-1.1,0.4-2,1.3-2.7s2.1-1.2,3.7-1.2
		c1,0,1.9,0.1,2.8,0.4s1.6,0.6,2.1,1L250.3,383.3z"/>
</g>
<g class="st1">
	<path class="st2" d="M265.3,381l-1.2,0.2l-4.7,12.3c-0.4,0.9-0.9,1.7-1.5,2.3s-1.5,0.9-2.8,0.9c-0.3,0-0.6,0-0.8-0.1
		s-0.6-0.1-0.9-0.2l0.4-2.5c0.1,0,0.2,0,0.3,0s0.2,0,0.3,0c0.6,0,1-0.1,1.3-0.4s0.5-0.6,0.7-1l0.4-1l-4-10.4l-1.2-0.2v-2.1h6.2v2.1
		l-1.4,0.2l1.7,5.1l0.2,0.9l0.1,0l2-6l-1.4-0.2v-2.1h6.2V381z"/>
</g>
<g class="st1">
	<path class="st2" d="M266.3,381v-2.1h5l0.2,1.5c0.4-0.5,0.8-1,1.3-1.3s1.1-0.4,1.8-0.4c1.6,0,2.8,0.6,3.7,1.8s1.3,2.8,1.3,4.8v0.2
		c0,1.9-0.4,3.4-1.3,4.5s-2.1,1.7-3.6,1.7c-0.7,0-1.3-0.1-1.8-0.4s-1-0.6-1.3-1.1v3.7l1.7,0.4v2.1h-6.7v-2.1l1.7-0.4v-12.7
		L266.3,381z M276.2,385.4c0-1.2-0.2-2.2-0.6-2.9s-1-1.1-1.8-1.1c-0.5,0-1,0.1-1.3,0.3s-0.7,0.5-0.9,0.9v5.6
		c0.2,0.4,0.5,0.6,0.9,0.8s0.8,0.3,1.3,0.3c0.8,0,1.4-0.3,1.8-1s0.6-1.5,0.6-2.6V385.4z"/>
</g>
<g class="st1">
	<path class="st2" d="M280.6,389.5l1.7-0.4v-13.5l-1.8-0.4v-2.1h5.2v7.2c0.4-0.6,0.9-1,1.5-1.4s1.2-0.5,1.9-0.5
		c1.3,0,2.4,0.4,3.1,1.3s1.1,2.2,1.1,4.1v5.1l1.6,0.4v2.1h-6.5v-2.1l1.5-0.4v-5.1c0-1-0.2-1.7-0.5-2.1s-0.9-0.6-1.6-0.6
		c-0.5,0-0.9,0.1-1.2,0.3s-0.7,0.4-0.9,0.7v6.9l1.5,0.4v2.1h-6.5V389.5z"/>
</g>
<g class="st1">
	<path class="st2" d="M296.1,389.5l1.7-0.4v-7.9l-1.8-0.4v-2.1h5.2v10.3l1.6,0.4v2.1h-6.7V389.5z M301.1,375.9h-3.4v-2.6h3.4V375.9z
		"/>
</g>
<g class="st1">
	<path class="st2" d="M303.7,375.4v-2.1h5.2v15.9l1.7,0.4v2.1h-6.7v-2.1l1.7-0.4v-13.5L303.7,375.4z"/>
</g>
<g class="st1">
	<path class="st2" d="M311.8,389.5l1.7-0.4v-7.9l-1.8-0.4v-2.1h5.2v10.3l1.6,0.4v2.1h-6.7V389.5z M316.9,375.9h-3.4v-2.6h3.4V375.9z
		"/>
</g>
<g class="st1">
	<path class="st2" d="M329.8,383.3h-2.3l-0.4-1.6c-0.2-0.2-0.5-0.3-0.9-0.5s-0.7-0.2-1.2-0.2c-0.6,0-1.1,0.1-1.4,0.4s-0.5,0.6-0.5,1
		c0,0.4,0.2,0.7,0.5,1s1,0.5,2,0.7c1.6,0.3,2.7,0.8,3.5,1.4s1.1,1.4,1.1,2.5c0,1.1-0.5,2.1-1.5,2.8s-2.3,1.1-3.9,1.1
		c-1,0-1.9-0.1-2.7-0.4s-1.5-0.7-2.2-1.2l0-2.8h2.4l0.5,1.7c0.2,0.2,0.5,0.3,0.8,0.4s0.7,0.1,1.1,0.1c0.7,0,1.2-0.1,1.6-0.4
		s0.5-0.6,0.5-1c0-0.4-0.2-0.7-0.6-1s-1-0.5-2-0.7c-1.5-0.3-2.6-0.8-3.4-1.4s-1.1-1.4-1.1-2.4c0-1.1,0.4-2,1.3-2.7s2.1-1.2,3.7-1.2
		c1,0,1.9,0.1,2.8,0.4s1.6,0.6,2.1,1L329.8,383.3z"/>
</g>
<g class="st1">
	<path class="st2" d="M335.5,391.1c0,0.8-0.2,1.6-0.7,2.5s-1,1.6-1.6,2.2l-1.7-0.9c0.3-0.5,0.5-1.1,0.7-1.7s0.2-1.2,0.2-2v-2.6h3.1
		L335.5,391.1z"/>
</g>
<g class="st1">
	<path class="st2" d="M351.4,391.6c-0.1-0.2-0.2-0.4-0.2-0.7s-0.1-0.4-0.2-0.7c-0.4,0.5-0.9,0.8-1.5,1.1s-1.2,0.4-2,0.4
		c-1.2,0-2.2-0.3-3-1s-1.1-1.6-1.1-2.8c0-1.2,0.5-2.1,1.4-2.8s2.4-1,4.2-1h1.7v-1.2c0-0.6-0.2-1.1-0.5-1.4s-0.9-0.5-1.6-0.5
		c-0.4,0-0.7,0-1,0.1s-0.6,0.2-0.7,0.3l-0.2,1.4h-2.6l0-2.8c0.6-0.4,1.3-0.8,2.2-1.1s1.7-0.4,2.6-0.4c1.6,0,2.8,0.4,3.8,1.2
		s1.5,1.9,1.5,3.3v5.2c0,0.2,0,0.4,0,0.6s0,0.3,0,0.5l1,0.1v2.1H351.4z M348.4,389.3c0.5,0,1-0.1,1.4-0.3s0.8-0.5,1-0.8v-1.9h-1.7
		c-0.7,0-1.3,0.2-1.7,0.5s-0.6,0.7-0.6,1.2c0,0.4,0.1,0.8,0.4,1S347.9,389.3,348.4,389.3z"/>
</g>
<g class="st1">
	<path class="st2" d="M356.5,389.5l1.6-0.4v-7.9l-1.8-0.4v-2.1h5l0.2,1.8c0.4-0.6,0.9-1.2,1.6-1.5s1.3-0.5,2.1-0.5
		c1.3,0,2.3,0.4,3,1.2s1.1,2.1,1.1,3.8v5.5l1.6,0.4v2.1h-6.5v-2.1l1.5-0.4v-5.5c0-0.9-0.2-1.5-0.5-1.8s-0.9-0.5-1.6-0.5
		c-0.5,0-0.9,0.1-1.2,0.3s-0.7,0.4-0.9,0.8v6.8l1.4,0.4v2.1h-6.4V389.5z"/>
</g>
<g class="st1">
	<path class="st2" d="M379.9,390.1c-0.4,0.6-0.9,1-1.4,1.3s-1.2,0.5-1.9,0.5c-1.6,0-2.8-0.6-3.6-1.7s-1.3-2.6-1.3-4.5v-0.2
		c0-2,0.4-3.6,1.3-4.8s2.1-1.8,3.7-1.8c0.6,0,1.2,0.1,1.7,0.4s1,0.7,1.3,1.2v-4.5l-1.8-0.4v-2.1h1.8h3.4v15.9l1.6,0.4v2.1h-4.6
		L379.9,390.1z M375.1,385.6c0,1.1,0.2,2,0.6,2.6s1,1,1.8,1c0.5,0,0.9-0.1,1.3-0.3s0.7-0.5,0.9-0.9v-5.4c-0.2-0.4-0.5-0.7-0.9-0.9
		s-0.8-0.3-1.3-0.3c-0.8,0-1.4,0.4-1.8,1.1s-0.6,1.7-0.6,2.9V385.6z"/>
</g>
<g class="st1">
	<path class="st2" d="M391.5,389.5l1.7-0.4v-13.5l-1.8-0.4v-2.1h5.2v7.2c0.4-0.6,0.9-1,1.5-1.4s1.2-0.5,1.9-0.5
		c1.3,0,2.4,0.4,3.1,1.3s1.1,2.2,1.1,4.1v5.1l1.6,0.4v2.1h-6.5v-2.1l1.5-0.4v-5.1c0-1-0.2-1.7-0.5-2.1s-0.9-0.6-1.6-0.6
		c-0.5,0-0.9,0.1-1.2,0.3s-0.7,0.4-0.9,0.7v6.9l1.5,0.4v2.1h-6.5V389.5z"/>
</g>
<g class="st1">
	<path class="st2" d="M412.6,391.8c-1.8,0-3.3-0.6-4.4-1.8s-1.6-2.7-1.6-4.5v-0.5c0-1.9,0.5-3.4,1.6-4.7s2.4-1.8,4.2-1.8
		c1.7,0,3,0.5,4,1.5s1.4,2.4,1.4,4.2v1.9h-7.6l0,0.1c0.1,0.8,0.3,1.5,0.8,2.1s1.2,0.8,2,0.8c0.8,0,1.4-0.1,1.9-0.2s1-0.4,1.6-0.7
		l0.9,2.1c-0.5,0.4-1.2,0.8-2,1S413.7,391.8,412.6,391.8z M412.3,381.3c-0.6,0-1.1,0.2-1.5,0.7s-0.6,1.1-0.7,1.9l0,0.1h4.2v-0.3
		c0-0.7-0.2-1.3-0.5-1.7S413,381.3,412.3,381.3z"/>
</g>
<g class="st1">
	<path class="st2" d="M419.2,389.5l1.6-0.4v-7.9L419,381v-2.1h5l0.2,1.9c0.3-0.7,0.7-1.2,1.1-1.5s1-0.6,1.6-0.6c0.2,0,0.4,0,0.6,0
		s0.4,0.1,0.5,0.1l-0.4,3.1l-1.4,0c-0.5,0-0.9,0.1-1.2,0.3s-0.6,0.5-0.8,0.8v6.2l1.6,0.4v2.1h-6.7V389.5z"/>
</g>
<g class="st1">
	<path class="st2" d="M429,381v-2.1h5l0.2,1.5c0.4-0.5,0.8-1,1.3-1.3s1.1-0.4,1.8-0.4c1.6,0,2.8,0.6,3.7,1.8s1.3,2.8,1.3,4.8v0.2
		c0,1.9-0.4,3.4-1.3,4.5s-2.1,1.7-3.6,1.7c-0.7,0-1.3-0.1-1.8-0.4s-1-0.6-1.3-1.1v3.7l1.7,0.4v2.1h-6.7v-2.1l1.7-0.4v-12.7L429,381z
		 M438.9,385.4c0-1.2-0.2-2.2-0.6-2.9s-1-1.1-1.8-1.1c-0.5,0-1,0.1-1.3,0.3s-0.7,0.5-0.9,0.9v5.6c0.2,0.4,0.5,0.6,0.9,0.8
		s0.8,0.3,1.3,0.3c0.8,0,1.4-0.3,1.8-1s0.6-1.5,0.6-2.6V385.4z"/>
</g>
<g class="st1">
	<path class="st2" d="M449.8,391.8c-1.8,0-3.3-0.6-4.4-1.8s-1.6-2.7-1.6-4.5v-0.5c0-1.9,0.5-3.4,1.6-4.7s2.4-1.8,4.2-1.8
		c1.7,0,3,0.5,4,1.5s1.4,2.4,1.4,4.2v1.9h-7.6l0,0.1c0.1,0.8,0.3,1.5,0.8,2.1s1.2,0.8,2,0.8c0.8,0,1.4-0.1,1.9-0.2s1-0.4,1.6-0.7
		l0.9,2.1c-0.5,0.4-1.2,0.8-2,1S450.8,391.8,449.8,391.8z M449.5,381.3c-0.6,0-1.1,0.2-1.5,0.7s-0.6,1.1-0.7,1.9l0,0.1h4.2v-0.3
		c0-0.7-0.2-1.3-0.5-1.7S450.2,381.3,449.5,381.3z"/>
</g>
<g class="st1">
	<path class="st2" d="M466.6,383.3h-2.3l-0.4-1.6c-0.2-0.2-0.5-0.3-0.9-0.5s-0.7-0.2-1.2-0.2c-0.6,0-1.1,0.1-1.4,0.4s-0.5,0.6-0.5,1
		c0,0.4,0.2,0.7,0.5,1s1,0.5,2,0.7c1.6,0.3,2.7,0.8,3.5,1.4s1.1,1.4,1.1,2.5c0,1.1-0.5,2.1-1.5,2.8s-2.3,1.1-3.9,1.1
		c-1,0-1.9-0.1-2.7-0.4s-1.5-0.7-2.2-1.2l0-2.8h2.4l0.5,1.7c0.2,0.2,0.5,0.3,0.8,0.4s0.7,0.1,1.1,0.1c0.7,0,1.2-0.1,1.6-0.4
		s0.5-0.6,0.5-1c0-0.4-0.2-0.7-0.6-1s-1-0.5-2-0.7c-1.5-0.3-2.6-0.8-3.4-1.4s-1.1-1.4-1.1-2.4c0-1.1,0.4-2,1.3-2.7s2.1-1.2,3.7-1.2
		c1,0,1.9,0.1,2.8,0.4s1.6,0.6,2.1,1L466.6,383.3z"/>
</g>
<g class="st1">
	<path class="st2" d="M472.6,391.6h-3.4v-3h3.4V391.6z"/>
</g>
</svg>
