<svg id="Layer_1" data-name="Layer 1" xmlns="http://www.w3.org/2000/svg" xmlns:xlink="http://www.w3.org/1999/xlink" viewBox="0 0 245.61 276.25"><defs><style>.cls-1{fill:none;stroke-width:5px;}.cls-1,.cls-3,.cls-4{stroke:#f5faf8;stroke-linecap:round;stroke-linejoin:round;}.cls-2{clip-path:url(#clip-path);}.cls-3,.cls-4{fill:#6dc065;}.cls-3{stroke-width:3.57px;}.cls-4{stroke-width:10px;}</style><clipPath id="clip-path"><polygon class="cls-1" points="222.07 35.34 216.28 21.33 211.88 35.83 206.09 21.82 201.69 36.33 195.9 22.31 191.5 36.82 185.71 22.81 181.3 37.31 175.52 23.3 171.11 37.8 165.32 23.79 160.92 38.3 155.13 24.29 150.73 38.79 144.94 24.78 140.53 39.28 134.75 25.27 130.34 39.78 124.56 25.77 120.15 40.27 114.36 26.26 109.96 40.77 104.17 26.75 99.77 41.26 93.98 27.25 89.58 41.75 83.79 27.74 79.38 42.24 73.6 28.23 69.19 42.74 63.41 28.73 59 43.23 53.21 29.22 48.81 43.73 43.02 29.71 38.62 44.22 32.83 30.21 28.42 44.71 22.64 30.7 18.23 45.2 28.1 249.04 33.89 263.05 38.29 248.55 44.08 262.56 48.48 248.06 54.27 262.07 58.67 247.56 64.46 261.57 68.87 247.07 74.65 261.08 79.06 246.58 84.84 260.59 89.25 246.08 95.04 260.09 99.44 245.59 105.23 259.6 109.64 245.1 115.42 259.11 119.83 244.6 125.61 258.61 130.02 244.11 135.81 258.12 140.21 243.62 146 257.63 150.4 243.12 156.19 257.13 160.59 242.63 166.38 256.64 170.79 242.14 176.57 256.15 180.98 241.64 186.76 255.65 191.17 241.15 196.96 255.16 201.36 240.66 207.15 254.67 211.55 240.16 217.34 254.17 221.75 239.67 227.53 253.68 231.94 239.18 222.07 35.34"/></clipPath></defs><title>std graphics</title><g class="cls-2"><polygon class="cls-3" points="222.07 35.34 216.28 21.33 211.88 35.83 206.09 21.82 201.69 36.33 195.9 22.31 191.5 36.82 185.71 22.81 181.3 37.31 175.52 23.3 171.11 37.8 165.32 23.79 160.92 38.3 155.13 24.29 150.73 38.79 144.94 24.78 140.53 39.28 134.75 25.27 130.34 39.78 124.56 25.77 120.15 40.27 114.36 26.26 109.96 40.77 104.17 26.75 99.77 41.26 93.98 27.25 89.58 41.75 83.79 27.74 79.38 42.24 73.6 28.23 69.19 42.74 63.41 28.73 59 43.23 53.21 29.22 48.81 43.73 43.02 29.71 38.62 44.22 32.83 30.21 28.42 44.71 22.64 30.7 18.23 45.2 28.1 249.04 33.89 263.05 38.29 248.55 44.08 262.56 48.48 248.06 54.27 262.07 58.67 247.56 64.46 261.57 68.87 247.07 74.65 261.08 79.06 246.58 84.84 260.59 89.25 246.08 95.04 260.09 99.44 245.59 105.23 259.6 109.64 245.1 115.42 259.11 119.83 244.6 125.61 258.61 130.02 244.11 135.81 258.12 140.21 243.62 146 257.63 150.4 243.12 156.19 257.13 160.59 242.63 166.38 256.64 170.79 242.14 176.57 256.15 180.98 241.64 186.76 255.65 191.17 241.15 196.96 255.16 201.36 240.66 207.15 254.67 211.55 240.16 217.34 254.17 221.75 239.67 227.53 253.68 231.94 239.18 222.07 35.34"/><circle class="cls-4" cx="125.08" cy="142.19" r="78.51" transform="translate(-6.73 6.21) rotate(-2.77)"/><path class="cls-1" d="M14.92,71.68h0a12.75,12.75,0,0,0,18-.87h0a12.75,12.75,0,0,0-.87-18h0a12.75,12.75,0,0,1-.87-18h0a12.75,12.75,0,0,1,18-.87h0a12.75,12.75,0,0,0,18-.87h0a12.75,12.75,0,0,0-.87-18h0"/><path class="cls-1" d="M8.69,125.28h0a12.75,12.75,0,0,0,18-.87h0a12.75,12.75,0,0,0-.87-18h0a12.75,12.75,0,0,1-.87-18h0a12.75,12.75,0,0,1,18-.87h0a12.75,12.75,0,0,0,18-.87h0a12.75,12.75,0,0,0-.87-18h0a12.75,12.75,0,0,1-.87-18h0a12.75,12.75,0,0,1,18-.87h0a12.75,12.75,0,0,0,18-.87h0a12.75,12.75,0,0,0-.87-18h0a12.75,12.75,0,0,1-.87-18h0a12.75,12.75,0,0,1,18-.87h0a12.75,12.75,0,0,0,18-.87h0"/><path class="cls-1" d="M2.5,178.83h0a12.75,12.75,0,0,0,18-.87h0a12.75,12.75,0,0,0-.87-18h0l0,0a12.75,12.75,0,0,1-.87-18h0a12.75,12.75,0,0,1,18-.87h0a12.75,12.75,0,0,0,18-.87h0a12.75,12.75,0,0,0-.87-18h0a12.75,12.75,0,0,1-.87-18h0a12.75,12.75,0,0,1,18-.87h0a12.75,12.75,0,0,0,18-.87h0a12.75,12.75,0,0,0-.87-18h0a12.75,12.75,0,0,1-.87-18h0a12.75,12.75,0,0,1,18-.87h0a12.75,12.75,0,0,0,18-.87h0a12.75,12.75,0,0,0-.87-18h0a12.75,12.75,0,0,1-.87-18h0a12.75,12.75,0,0,1,18-.87h0a12.75,12.75,0,0,0,18-.87h0a12.75,12.75,0,0,0-.87-18h0"/><path class="cls-1" d="M14.29,231.55h0a12.75,12.75,0,0,0-.87-18h0a12.75,12.75,0,0,1-.87-18h0a12.75,12.75,0,0,1,18-.87h0a12.75,12.75,0,0,0,18-.87h0a12.75,12.75,0,0,0-.87-18h0l0,0a12.75,12.75,0,0,1-.87-18h0a12.75,12.75,0,0,1,18-.87h0a12.75,12.75,0,0,0,18-.87h0a12.75,12.75,0,0,0-.87-18h0a12.75,12.75,0,0,1-.87-18h0a12.75,12.75,0,0,1,18-.87h0a12.75,12.75,0,0,0,18-.87h0a12.75,12.75,0,0,0-.87-18h0a12.75,12.75,0,0,1-.87-18h0a12.75,12.75,0,0,1,18-.87h0a12.75,12.75,0,0,0,18-.87h0a12.75,12.75,0,0,0-.87-18h0a12.75,12.75,0,0,1-.87-18h0a12.75,12.75,0,0,1,18-.87h0a12.75,12.75,0,0,0,18-.87h0a12.75,12.75,0,0,0-.87-18h0a12.75,12.75,0,0,1-.87-18h0a12.75,12.75,0,0,1,18-.87h0a12.75,12.75,0,0,0,18-.87h0"/><path class="cls-1" d="M24.33,248.25h0a12.75,12.75,0,0,0,18-.87h0a12.75,12.75,0,0,0-.87-18h0a12.75,12.75,0,0,1-.87-18h0a12.75,12.75,0,0,1,18-.87h0a12.75,12.75,0,0,0,18-.87h0a12.75,12.75,0,0,0-.87-18h0l0,0a12.75,12.75,0,0,1-.87-18h0a12.75,12.75,0,0,1,18-.87h0a12.75,12.75,0,0,0,18-.87h0a12.75,12.75,0,0,0-.87-18h0a12.75,12.75,0,0,1-.87-18h0a12.75,12.75,0,0,1,18-.87h0a12.75,12.75,0,0,0,18-.87h0a12.75,12.75,0,0,0-.87-18h0a12.75,12.75,0,0,1-.87-18h0a12.75,12.75,0,0,1,18-.87h0a12.75,12.75,0,0,0,18-.87h0a12.75,12.75,0,0,0-.87-18h0a12.75,12.75,0,0,1-.87-18h0a12.75,12.75,0,0,1,18-.87h0a12.75,12.75,0,0,0,18-.87h0a12.75,12.75,0,0,0-.87-18h0a12.75,12.75,0,0,1-.87-18h0a12.75,12.75,0,0,1,18-.87h0"/><path class="cls-1" d="M240.93,56.34h0a12.75,12.75,0,0,1-.87-18h0"/><path class="cls-1" d="M34.37,264.94h0a12.75,12.75,0,0,1,18-.87h0a12.75,12.75,0,0,0,18-.87h0a12.75,12.75,0,0,0-.87-18h0a12.75,12.75,0,0,1-.87-18h0a12.75,12.75,0,0,1,18-.87h0a12.75,12.75,0,0,0,18-.87h0a12.75,12.75,0,0,0-.87-18h0l0,0a12.75,12.75,0,0,1-.87-18h0a12.75,12.75,0,0,1,18-.87h0a12.75,12.75,0,0,0,18-.87h0a12.75,12.75,0,0,0-.87-18h0a12.75,12.75,0,0,1-.87-18h0a12.75,12.75,0,0,1,18-.87h0a12.75,12.75,0,0,0,18-.87h0a12.75,12.75,0,0,0-.87-18h0a12.75,12.75,0,0,1-.87-18h0a12.75,12.75,0,0,1,18-.87h0a12.75,12.75,0,0,0,18-.87h0a12.75,12.75,0,0,0-.87-18h0a12.75,12.75,0,0,1-.87-18h0a12.75,12.75,0,0,1,18-.87h0a12.75,12.75,0,0,0,18-.87h0"/><path class="cls-1" d="M97.59,261h0a12.75,12.75,0,0,1-.87-18h0a12.75,12.75,0,0,1,18-.87h0a12.75,12.75,0,0,0,18-.87h0a12.75,12.75,0,0,0-.87-18h0l0,0a12.75,12.75,0,0,1-.87-18h0a12.75,12.75,0,0,1,18-.87h0a12.75,12.75,0,0,0,18-.87h0a12.75,12.75,0,0,0-.87-18h0a12.75,12.75,0,0,1-.87-18h0a12.75,12.75,0,0,1,18-.87h0a12.75,12.75,0,0,0,18-.87h0a12.75,12.75,0,0,0-.87-18h0a12.75,12.75,0,0,1-.87-18h0a12.75,12.75,0,0,1,18-.87h0a12.75,12.75,0,0,0,18-.87h0a12.75,12.75,0,0,0-.87-18h0a12.75,12.75,0,0,1-.87-18h0"/><path class="cls-1" d="M124.77,258.8h0a12.75,12.75,0,0,1,18-.87h0a12.75,12.75,0,0,0,18-.87h0a12.75,12.75,0,0,0-.87-18h0l0,0a12.75,12.75,0,0,1-.87-18h0a12.75,12.75,0,0,1,18-.87h0a12.75,12.75,0,0,0,18-.87h0a12.75,12.75,0,0,0-.87-18h0a12.75,12.75,0,0,1-.87-18h0a12.75,12.75,0,0,1,18-.87h0a12.75,12.75,0,0,0,18-.87h0a12.75,12.75,0,0,0-.87-18h0a12.75,12.75,0,0,1-.87-18h0"/><path class="cls-1" d="M188.86,272.88h0a12.75,12.75,0,0,0-.87-18h0l0,0a12.75,12.75,0,0,1-.87-18h0a12.75,12.75,0,0,1,18-.87h0a12.75,12.75,0,0,0,18-.87h0a12.75,12.75,0,0,0-.87-18h0a12.75,12.75,0,0,1-.87-18h0a12.75,12.75,0,0,1,18-.87h0"/><path class="cls-1" d="M170.84,273.75h0"/><path class="cls-1" d="M216,270.68h0l0,0a12.75,12.75,0,0,1-.87-18h0a12.75,12.75,0,0,1,18-.87h0"/></g><polygon class="cls-1" points="222.07 35.34 216.28 21.33 211.88 35.83 206.09 21.82 201.69 36.33 195.9 22.31 191.5 36.82 185.71 22.81 181.3 37.31 175.52 23.3 171.11 37.8 165.32 23.79 160.92 38.3 155.13 24.29 150.73 38.79 144.94 24.78 140.53 39.28 134.75 25.27 130.34 39.78 124.56 25.77 120.15 40.27 114.36 26.26 109.96 40.77 104.17 26.75 99.77 41.26 93.98 27.25 89.58 41.75 83.79 27.74 79.38 42.24 73.6 28.23 69.19 42.74 63.41 28.73 59 43.23 53.21 29.22 48.81 43.73 43.02 29.71 38.62 44.22 32.83 30.21 28.42 44.71 22.64 30.7 18.23 45.2 28.1 249.04 33.89 263.05 38.29 248.55 44.08 262.56 48.48 248.06 54.27 262.07 58.67 247.56 64.46 261.57 68.87 247.07 74.65 261.08 79.06 246.58 84.84 260.59 89.25 246.08 95.04 260.09 99.44 245.59 105.23 259.6 109.64 245.1 115.42 259.11 119.83 244.6 125.61 258.61 130.02 244.11 135.81 258.12 140.21 243.62 146 257.63 150.4 243.12 156.19 257.13 160.59 242.63 166.38 256.64 170.79 242.14 176.57 256.15 180.98 241.64 186.76 255.65 191.17 241.15 196.96 255.16 201.36 240.66 207.15 254.67 211.55 240.16 217.34 254.17 221.75 239.67 227.53 253.68 231.94 239.18 222.07 35.34"/></svg>