<svg id="Layer_1" data-name="Layer 1" xmlns="http://www.w3.org/2000/svg" viewBox="0 0 611.8 611.8"><defs><style>.cls-1{fill:#f5faf8;stroke:#6dc065;stroke-linecap:round;stroke-linejoin:round;stroke-width:11.8px;}.cls-2{font-size:32px;fill:#6dc065;font-family:RobotoSlab-Bold, Roboto Slab;font-weight:700;}.cls-3{letter-spacing:-0.01em;}.cls-4{letter-spacing:0em;}.cls-5{letter-spacing:-0.02em;}.cls-6{letter-spacing:-0.02em;}.cls-7{letter-spacing:0.01em;}.cls-8{letter-spacing:0em;}.cls-9{letter-spacing:0.01em;}.cls-10{letter-spacing:-0.01em;}.cls-11{letter-spacing:-0.02em;}.cls-12{letter-spacing:-0.01em;}.cls-13{letter-spacing:-0.02em;}.cls-14{letter-spacing:-0.02em;}.cls-15{letter-spacing:-0.01em;}.cls-16{font-size:24px;}.cls-17{letter-spacing:-0.02em;}.cls-18{letter-spacing:0.01em;}.cls-19{letter-spacing:-0.02em;}.cls-20{letter-spacing:0em;}.cls-21{letter-spacing:-0.02em;}.cls-22{letter-spacing:-0.02em;}.cls-23{letter-spacing:-0.02em;}.cls-24{letter-spacing:0em;}.cls-25{letter-spacing:0.01em;}.cls-26{letter-spacing:-0.02em;}.cls-27{letter-spacing:0.01em;}.cls-28{letter-spacing:0em;}.cls-29{letter-spacing:0.01em;}.cls-30{letter-spacing:0em;}.cls-31{letter-spacing:-0.01em;}.cls-32{letter-spacing:0.01em;}.cls-33{letter-spacing:-0.03em;}.cls-34{letter-spacing:-0.01em;}.cls-35{letter-spacing:0.01em;}.cls-36{letter-spacing:0em;}.cls-37{letter-spacing:0em;}.cls-38{letter-spacing:0em;}.cls-39{letter-spacing:-0.01em;}.cls-40{letter-spacing:-0.01em;}.cls-41{letter-spacing:-0.01em;}.cls-42{letter-spacing:-0.02em;}.cls-43{letter-spacing:-0.01em;}.cls-44{letter-spacing:-0.02em;}.cls-45{letter-spacing:-0.02em;}.cls-46{letter-spacing:-0.08em;}.cls-47{letter-spacing:-0.01em;}.cls-48{letter-spacing:-0.01em;}.cls-49{letter-spacing:-0.01em;}.cls-50{letter-spacing:-0.01em;}.cls-51{letter-spacing:-0.02em;}.cls-52{letter-spacing:-0.01em;}.cls-53{letter-spacing:-0.01em;}.cls-54{letter-spacing:0em;}.cls-55{letter-spacing:-0.01em;}.cls-56{letter-spacing:-0.01em;}.cls-57{letter-spacing:-0.01em;}.cls-58{letter-spacing:-0.02em;}.cls-59{letter-spacing:-0.01em;}.cls-60{letter-spacing:-0.02em;}.cls-61{letter-spacing:-0.01em;}.cls-62{letter-spacing:0em;}.cls-63{letter-spacing:0.01em;}.cls-64{letter-spacing:-0.01em;}.cls-65{letter-spacing:-0.01em;}.cls-66{letter-spacing:-0.02em;}.cls-67{letter-spacing:-0.02em;}.cls-68{letter-spacing:-0.01em;}.cls-69{letter-spacing:0em;}.cls-70{letter-spacing:-0.01em;}.cls-71{letter-spacing:0em;}.cls-72{letter-spacing:-0.02em;}.cls-73{letter-spacing:0.01em;}.cls-74{letter-spacing:0em;}.cls-75{letter-spacing:-0.02em;}.cls-76{letter-spacing:-0.01em;}.cls-77{letter-spacing:-0.01em;}.cls-78{letter-spacing:-0.02em;}.cls-79{letter-spacing:-0.03em;}.cls-80{letter-spacing:-0.02em;}.cls-81{letter-spacing:-0.01em;}.cls-82{letter-spacing:-0.01em;}.cls-83{letter-spacing:-0.02em;}.cls-84{letter-spacing:-0.02em;}.cls-85{letter-spacing:-0.02em;}.cls-86{letter-spacing:0.01em;}.cls-87{letter-spacing:-0.02em;}.cls-88{letter-spacing:-0.01em;}.cls-89{letter-spacing:-0.03em;}.cls-90{letter-spacing:-0.01em;}.cls-91{letter-spacing:0em;}.cls-92{letter-spacing:-0.02em;}.cls-93{letter-spacing:-0.02em;}.cls-94{letter-spacing:-0.02em;}.cls-95{letter-spacing:-0.01em;}.cls-96{letter-spacing:-0.01em;}.cls-97{letter-spacing:0em;}.cls-98{letter-spacing:-0.01em;}.cls-99{letter-spacing:-0.01em;}.cls-100{letter-spacing:-0.02em;}.cls-101{letter-spacing:-0.01em;}.cls-102{letter-spacing:-0.01em;}</style></defs><title>std web mockupsasfd</title><rect class="cls-1" x="5.9" y="5.9" width="600" height="600" rx="300" ry="300"/><text class="cls-2" transform="translate(167.98 120.9)"><tspan class="cls-3">E</tspan><tspan class="cls-4" x="20.21" y="0">x</tspan><tspan class="cls-5" x="38.92" y="0">t</tspan><tspan class="cls-6" x="50.11" y="0">e</tspan><tspan class="cls-7" x="66.51" y="0">r</tspan><tspan class="cls-8" x="80.37" y="0">n</tspan><tspan class="cls-9" x="100.59" y="0">a</tspan><tspan x="118.34" y="0">l </tspan><tspan class="cls-10" x="136.38" y="0">C</tspan><tspan class="cls-11" x="156.86" y="0">o</tspan><tspan class="cls-12" x="174.27" y="0">n</tspan><tspan class="cls-13" x="194.15" y="0">d</tspan><tspan class="cls-14" x="212.52" y="0">o</tspan><tspan class="cls-15" x="229.94" y="0">m</tspan><tspan x="259.38" y="0">s</tspan><tspan class="cls-16"><tspan class="cls-14" x="-19.61" y="57.6">R</tspan><tspan class="cls-17" x="-3.5" y="57.6">o</tspan><tspan class="cls-18" x="9.48" y="57.6">l</tspan><tspan class="cls-19" x="17.34" y="57.6">l</tspan><tspan class="cls-20" x="24.58" y="57.6">e</tspan><tspan x="37.3" y="57.6">d </tspan><tspan class="cls-21" x="57.38" y="57.6">o</tspan><tspan class="cls-22" x="70.42" y="57.6">v</tspan><tspan class="cls-23" x="83.69" y="57.6">e</tspan><tspan x="96.05" y="57.6">r </tspan><tspan class="cls-24" x="112.03" y="57.6">e</tspan><tspan class="cls-25" x="124.71" y="57.6">x</tspan><tspan class="cls-26" x="138.78" y="57.6">t</tspan><tspan class="cls-23" x="147.24" y="57.6">e</tspan><tspan class="cls-27" x="159.6" y="57.6">r</tspan><tspan class="cls-28" x="170.04" y="57.6">n</tspan><tspan class="cls-29" x="185.26" y="57.6">a</tspan><tspan x="198.62" y="57.6">l </tspan><tspan class="cls-30" x="-39.61" y="86.4">g</tspan><tspan class="cls-31" x="-25.98" y="86.4">e</tspan><tspan class="cls-32" x="-13.4" y="86.4">n</tspan><tspan class="cls-33" x="2.01" y="86.4">i</tspan><tspan class="cls-34" x="9.13" y="86.4">t</tspan><tspan class="cls-29" x="17.88" y="86.4">a</tspan><tspan class="cls-35" x="31.24" y="86.4">l</tspan><tspan class="cls-36" x="39.04" y="86.4">i</tspan><tspan class="cls-37" x="46.75" y="86.4">a</tspan><tspan x="59.98" y="86.4">, a </tspan><tspan class="cls-38" x="90.82" y="86.4">p</tspan><tspan class="cls-39" x="105.28" y="86.4">e</tspan><tspan class="cls-32" x="117.86" y="86.4">n</tspan><tspan class="cls-40" x="133.27" y="86.4">i</tspan><tspan class="cls-41" x="140.8" y="86.4">s</tspan><tspan x="152.89" y="86.4">, </tspan><tspan class="cls-42" x="164.67" y="86.4">o</tspan><tspan x="177.55" y="86.4">r a </tspan><tspan class="cls-43" x="212.6" y="86.4">s</tspan><tspan class="cls-24" x="224.76" y="86.4">e</tspan><tspan x="237.44" y="86.4">x </tspan><tspan class="cls-44" x="257.28" y="86.4">t</tspan><tspan class="cls-45" x="265.76" y="86.4">o</tspan><tspan class="cls-46" x="278.83" y="86.4">y</tspan><tspan x="291.19" y="86.4">.</tspan><tspan class="cls-47" x="-19.61" y="144">E</tspan><tspan class="cls-25" x="-4.4" y="144">x</tspan><tspan class="cls-26" x="9.68" y="144">t</tspan><tspan class="cls-23" x="18.13" y="144">e</tspan><tspan class="cls-27" x="30.49" y="144">r</tspan><tspan class="cls-28" x="40.93" y="144">n</tspan><tspan class="cls-29" x="56.16" y="144">a</tspan><tspan x="69.51" y="144">l </tspan><tspan class="cls-48" x="83.05" y="144">c</tspan><tspan class="cls-49" x="95.54" y="144">o</tspan><tspan class="cls-50" x="108.65" y="144">n</tspan><tspan class="cls-51" x="123.61" y="144">d</tspan><tspan class="cls-52" x="137.44" y="144">o</tspan><tspan class="cls-53" x="150.57" y="144">m</tspan><tspan x="172.7" y="144">s </tspan><tspan class="cls-54" x="190.94" y="144">a</tspan><tspan class="cls-55" x="204.06" y="144">r</tspan><tspan x="213.84" y="144">e </tspan><tspan class="cls-56" x="232.51" y="144">g</tspan><tspan class="cls-55" x="245.99" y="144">r</tspan><tspan class="cls-57" x="255.77" y="144">e</tspan><tspan class="cls-58" x="268.28" y="144">a</tspan><tspan x="281" y="144">t </tspan><tspan class="cls-59" x="-39.61" y="172.8">f</tspan><tspan class="cls-42" x="-30.98" y="172.8">o</tspan><tspan x="-18.1" y="172.8">r </tspan><tspan class="cls-60" x="-2.12" y="172.8">o</tspan><tspan class="cls-61" x="10.76" y="172.8">r</tspan><tspan class="cls-29" x="20.53" y="172.8">a</tspan><tspan x="33.89" y="172.8">l </tspan><tspan class="cls-43" x="47.42" y="172.8">s</tspan><tspan class="cls-24" x="59.58" y="172.8">e</tspan><tspan x="72.26" y="172.8">x </tspan><tspan class="cls-29" x="92.1" y="172.8">a</tspan><tspan class="cls-50" x="105.45" y="172.8">n</tspan><tspan x="120.42" y="172.8">d </tspan><tspan class="cls-29" x="140.5" y="172.8">a</tspan><tspan class="cls-18" x="153.86" y="172.8">l</tspan><tspan x="161.72" y="172.8">l </tspan><tspan class="cls-62" x="175.25" y="172.8">k</tspan><tspan class="cls-63" x="189.99" y="172.8">i</tspan><tspan class="cls-64" x="197.93" y="172.8">n</tspan><tspan class="cls-65" x="212.89" y="172.8">d</tspan><tspan x="226.91" y="172.8">s </tspan><tspan class="cls-66" x="245.14" y="172.8">o</tspan><tspan x="258.16" y="172.8">f </tspan><tspan class="cls-38" x="-39.61" y="201.6">p</tspan><tspan class="cls-31" x="-25.16" y="201.6">e</tspan><tspan class="cls-67" x="-12.57" y="201.6">n</tspan><tspan class="cls-68" x="2.27" y="201.6">e</tspan><tspan class="cls-69" x="14.77" y="201.6">t</tspan><tspan class="cls-70" x="23.61" y="201.6">r</tspan><tspan class="cls-58" x="33.38" y="201.6">a</tspan><tspan class="cls-71" x="46.1" y="201.6">t</tspan><tspan class="cls-72" x="55.12" y="201.6">i</tspan><tspan class="cls-22" x="62.3" y="201.6">v</tspan><tspan x="75.57" y="201.6">e </tspan><tspan class="cls-43" x="94.23" y="201.6">s</tspan><tspan class="cls-24" x="106.4" y="201.6">e</tspan><tspan class="cls-73" x="119.07" y="201.6">x</tspan><tspan x="133.22" y="201.6">.</tspan><tspan class="cls-74" x="-19.61" y="259.2">D</tspan><tspan x="-3.1" y="259.2">o </tspan><tspan class="cls-75" x="16.24" y="259.2">n</tspan><tspan class="cls-76" x="31.1" y="259.2">o</tspan><tspan x="44.2" y="259.2">t </tspan><tspan class="cls-77" x="59.04" y="259.2">u</tspan><tspan class="cls-43" x="73.69" y="259.2">s</tspan><tspan x="85.85" y="259.2">e </tspan><tspan class="cls-78" x="104.52" y="259.2">o</tspan><tspan class="cls-63" x="117.58" y="259.2">i</tspan><tspan class="cls-79" x="125.52" y="259.2">l</tspan><tspan class="cls-80" x="132.35" y="259.2">-</tspan><tspan class="cls-81" x="141.39" y="259.2">b</tspan><tspan class="cls-82" x="154.96" y="259.2">a</tspan><tspan class="cls-43" x="167.92" y="259.2">s</tspan><tspan class="cls-20" x="180.08" y="259.2">e</tspan><tspan x="192.79" y="259.2">d </tspan><tspan class="cls-83" x="-39.61" y="288">l</tspan><tspan class="cls-84" x="-32.42" y="288">u</tspan><tspan class="cls-85" x="-17.87" y="288">b</tspan><tspan class="cls-86" x="-4.51" y="288">r</tspan><tspan class="cls-87" x="5.88" y="288">i</tspan><tspan class="cls-88" x="13.25" y="288">c</tspan><tspan class="cls-29" x="25.72" y="288">a</tspan><tspan class="cls-89" x="39.08" y="288">n</tspan><tspan class="cls-90" x="53.6" y="288">t</tspan><tspan class="cls-41" x="62.2" y="288">s</tspan><tspan x="74.3" y="288">, </tspan><tspan class="cls-91" x="86.08" y="288">t</tspan><tspan class="cls-22" x="95.14" y="288">h</tspan><tspan class="cls-68" x="110" y="288">e</tspan><tspan x="122.5" y="288">y </tspan><tspan class="cls-92" x="142.58" y="288">w</tspan><tspan class="cls-57" x="161.37" y="288">e</tspan><tspan class="cls-29" x="173.88" y="288">a</tspan><tspan class="cls-93" x="187.24" y="288">k</tspan><tspan class="cls-39" x="201.42" y="288">e</tspan><tspan x="214" y="288">n a </tspan><tspan class="cls-48" x="-39.61" y="316.8">c</tspan><tspan class="cls-49" x="-27.12" y="316.8">o</tspan><tspan class="cls-64" x="-14.01" y="316.8">n</tspan><tspan class="cls-75" x="0.95" y="316.8">d</tspan><tspan class="cls-52" x="14.79" y="316.8">o</tspan><tspan x="27.91" y="316.8">m </tspan><tspan class="cls-29" x="56.12" y="316.8">a</tspan><tspan class="cls-64" x="69.47" y="316.8">n</tspan><tspan x="84.44" y="316.8">d </tspan><tspan class="cls-63" x="104.52" y="316.8">i</tspan><tspan class="cls-94" x="112.46" y="316.8">n</tspan><tspan class="cls-95" x="127.31" y="316.8">c</tspan><tspan class="cls-55" x="139.69" y="316.8">r</tspan><tspan class="cls-57" x="149.47" y="316.8">e</tspan><tspan class="cls-82" x="161.98" y="316.8">a</tspan><tspan class="cls-43" x="174.93" y="316.8">s</tspan><tspan x="187.1" y="316.8">e </tspan><tspan class="cls-91" x="205.76" y="316.8">t</tspan><tspan class="cls-22" x="214.83" y="316.8">h</tspan><tspan x="229.69" y="316.8">e </tspan><tspan class="cls-96" x="-39.61" y="345.6">c</tspan><tspan class="cls-97" x="-27.18" y="345.6">h</tspan><tspan class="cls-29" x="-11.94" y="345.6">a</tspan><tspan class="cls-94" x="1.41" y="345.6">n</tspan><tspan class="cls-98" x="16.26" y="345.6">c</tspan><tspan class="cls-99" x="28.73" y="345.6">e</tspan><tspan x="41.21" y="345.6">s </tspan><tspan class="cls-100" x="59.44" y="345.6">o</tspan><tspan x="72.46" y="345.6">f </tspan><tspan class="cls-85" x="87.27" y="345.6">b</tspan><tspan class="cls-101" x="100.63" y="345.6">r</tspan><tspan class="cls-57" x="110.41" y="345.6">e</tspan><tspan class="cls-29" x="122.91" y="345.6">a</tspan><tspan class="cls-62" x="136.27" y="345.6">k</tspan><tspan class="cls-63" x="151.01" y="345.6">i</tspan><tspan class="cls-51" x="158.94" y="345.6">n</tspan><tspan class="cls-102" x="173.81" y="345.6">g</tspan><tspan x="187.34" y="345.6">.</tspan></tspan></text></svg>