<?xml version="1.0" encoding="utf-8"?>
<!-- Generator: Adobe Illustrator 22.0.1, SVG Export Plug-In . SVG Version: 6.00 Build 0)  -->
<!DOCTYPE svg PUBLIC "-//W3C//DTD SVG 1.1//EN" "http://www.w3.org/Graphics/SVG/1.1/DTD/svg11.dtd">
<svg version="1.1" id="Layer_1" xmlns="http://www.w3.org/2000/svg" xmlns:xlink="http://www.w3.org/1999/xlink" x="0px" y="0px"
	 viewBox="0 0 611.8 611.8" style="enable-background:new 0 0 611.8 611.8;" xml:space="preserve">
<style type="text/css">
	.st0{fill:#F5FAF8;stroke:#6DC065;stroke-width:11.8;stroke-linecap:round;stroke-linejoin:round;}
	.st1{enable-background:new    ;}
	.st2{fill:#6DC065;}
</style>
<title>std web mockupsasfd</title>
<path class="st0" d="M305.9,5.9L305.9,5.9c165.7,0,300,134.3,300,300v0c0,165.7-134.3,300-300,300h0c-165.7,0-300-134.3-300-300v0
	C5.9,140.2,140.2,5.9,305.9,5.9z"/>
<g class="st1">
	<path class="st2" d="M173.1,99.9v-2.8h9.4v2.8l-2.4,0.5v16.3l2.4,0.5v2.7h-9.4v-2.7l2.4-0.5v-16.3L173.1,99.9z"/>
</g>
<g class="st1">
	<path class="st2" d="M184.1,117.1l2.2-0.5v-10.5l-2.4-0.5v-2.8h6.7l0.2,2.4c0.6-0.9,1.3-1.5,2.1-2c0.8-0.5,1.7-0.7,2.8-0.7
		c1.7,0,3,0.5,4,1.6c1,1.1,1.4,2.8,1.4,5v7.4l2.2,0.5v2.7h-8.7v-2.7l2-0.5v-7.3c0-1.1-0.2-1.9-0.7-2.4c-0.5-0.5-1.2-0.7-2.1-0.7
		c-0.6,0-1.1,0.1-1.6,0.4c-0.5,0.2-0.9,0.6-1.2,1v9.1l1.8,0.5v2.7h-8.6V117.1z"/>
</g>
<g class="st1">
	<path class="st2" d="M210.4,98.8v4.1h3v3.2h-3v8.6c0,0.7,0.1,1.1,0.4,1.4c0.3,0.3,0.6,0.4,1.1,0.4c0.3,0,0.6,0,0.8,0
		c0.2,0,0.5-0.1,0.8-0.1l0.4,3.3c-0.5,0.2-1,0.3-1.5,0.4s-1,0.1-1.6,0.1c-1.6,0-2.8-0.4-3.6-1.3c-0.8-0.9-1.3-2.2-1.3-4.1v-8.6h-2.5
		v-3.2h2.5v-4.1H210.4z"/>
</g>
<g class="st1">
	<path class="st2" d="M222.9,120.2c-2.4,0-4.4-0.8-5.8-2.3c-1.5-1.6-2.2-3.5-2.2-6v-0.6c0-2.5,0.7-4.6,2.1-6.2
		c1.4-1.6,3.2-2.4,5.6-2.4c2.3,0,4.1,0.7,5.3,2.1c1.3,1.4,1.9,3.2,1.9,5.6v2.5h-10.1l0,0.1c0.1,1.1,0.5,2,1.1,2.8
		c0.7,0.7,1.6,1.1,2.7,1.1c1,0,1.8-0.1,2.5-0.3c0.7-0.2,1.4-0.5,2.2-1l1.2,2.8c-0.7,0.6-1.6,1-2.7,1.4S224.3,120.2,222.9,120.2z
		 M222.5,106.1c-0.8,0-1.5,0.3-2,1c-0.5,0.6-0.8,1.5-0.9,2.5l0,0.1h5.6v-0.4c0-1-0.2-1.7-0.7-2.3S223.4,106.1,222.5,106.1z"/>
</g>
<g class="st1">
	<path class="st2" d="M231.6,117.1l2.2-0.5v-10.5l-2.4-0.5v-2.8h6.7l0.2,2.5c0.4-0.9,0.9-1.6,1.5-2c0.6-0.5,1.3-0.7,2.2-0.7
		c0.2,0,0.5,0,0.8,0.1c0.3,0,0.5,0.1,0.7,0.1l-0.5,4.2l-1.9,0c-0.7,0-1.2,0.1-1.7,0.4c-0.4,0.3-0.8,0.6-1,1.1v8.2l2.2,0.5v2.7h-8.9
		V117.1z"/>
</g>
<g class="st1">
	<path class="st2" d="M244.8,117.1l2.2-0.5v-10.5l-2.4-0.5v-2.8h6.7l0.2,2.4c0.6-0.9,1.3-1.5,2.1-2c0.8-0.5,1.7-0.7,2.8-0.7
		c1.7,0,3,0.5,4,1.6c1,1.1,1.4,2.8,1.4,5v7.4l2.2,0.5v2.7h-8.7v-2.7l2-0.5v-7.3c0-1.1-0.2-1.9-0.7-2.4c-0.5-0.5-1.2-0.7-2.1-0.7
		c-0.6,0-1.1,0.1-1.6,0.4c-0.5,0.2-0.9,0.6-1.2,1v9.1l1.8,0.5v2.7h-8.6V117.1z"/>
</g>
<g class="st1">
	<path class="st2" d="M276.1,119.9c-0.1-0.3-0.2-0.6-0.3-0.9s-0.2-0.6-0.2-0.9c-0.5,0.6-1.2,1.1-2,1.5c-0.8,0.4-1.7,0.6-2.7,0.6
		c-1.7,0-3-0.5-3.9-1.4c-1-0.9-1.5-2.1-1.5-3.7c0-1.6,0.6-2.8,1.9-3.7c1.3-0.9,3.1-1.3,5.6-1.3h2.3v-1.7c0-0.8-0.2-1.4-0.7-1.9
		c-0.5-0.4-1.2-0.7-2.1-0.7c-0.5,0-1,0.1-1.4,0.2c-0.4,0.1-0.7,0.3-1,0.4l-0.3,1.8h-3.4l0-3.8c0.8-0.6,1.8-1,2.9-1.4
		c1.1-0.4,2.3-0.6,3.5-0.6c2.1,0,3.8,0.5,5.1,1.5c1.3,1,2,2.5,2,4.4v7c0,0.3,0,0.5,0,0.7c0,0.2,0,0.4,0.1,0.7l1.4,0.2v2.7H276.1z
		 M272.1,116.8c0.7,0,1.3-0.1,1.9-0.4s1-0.7,1.3-1.1v-2.6H273c-1,0-1.7,0.2-2.2,0.7s-0.8,1-0.8,1.6c0,0.6,0.2,1,0.6,1.3
		C271,116.6,271.5,116.8,272.1,116.8z"/>
</g>
<g class="st1">
	<path class="st2" d="M282.6,98.2v-2.8h7v21.2l2.2,0.5v2.7h-9v-2.7l2.2-0.5v-18L282.6,98.2z"/>
</g>
<g class="st1">
	<path class="st2" d="M319.6,104.8h-3.4l-0.5-3c-0.4-0.4-1-0.8-1.7-1.1c-0.7-0.3-1.5-0.4-2.4-0.4c-2,0-3.5,0.7-4.6,2.2
		c-1.1,1.4-1.6,3.3-1.6,5.6v0.8c0,2.3,0.5,4.2,1.6,5.6c1.1,1.4,2.6,2.2,4.5,2.2c0.9,0,1.7-0.1,2.5-0.4c0.7-0.3,1.3-0.6,1.7-1.1
		l0.5-3h3.4v4.5c-0.9,1.1-2.1,1.9-3.5,2.5s-3,0.9-4.8,0.9c-3.1,0-5.6-1.1-7.5-3.2c-1.9-2.1-2.9-4.8-2.9-8.1v-0.8c0-3.3,1-6,2.9-8.1
		s4.4-3.2,7.5-3.2c1.8,0,3.3,0.3,4.8,1s2.6,1.5,3.5,2.5V104.8z"/>
</g>
<g class="st1">
	<path class="st2" d="M321.6,111.2c0-2.5,0.7-4.6,2.1-6.2c1.4-1.6,3.4-2.4,5.9-2.4c2.5,0,4.5,0.8,5.9,2.4c1.4,1.6,2.1,3.7,2.1,6.2
		v0.3c0,2.5-0.7,4.6-2.1,6.2c-1.4,1.6-3.4,2.4-5.8,2.4c-2.5,0-4.5-0.8-5.9-2.4c-1.4-1.6-2.1-3.7-2.1-6.2V111.2z M326.2,111.6
		c0,1.5,0.3,2.8,0.8,3.7c0.5,0.9,1.4,1.4,2.6,1.4c1.2,0,2-0.5,2.6-1.4s0.8-2.2,0.8-3.7v-0.3c0-1.5-0.3-2.7-0.8-3.7
		c-0.6-0.9-1.4-1.4-2.6-1.4s-2.1,0.5-2.6,1.4c-0.5,0.9-0.8,2.2-0.8,3.7V111.6z"/>
</g>
<g class="st1">
	<path class="st2" d="M338.8,117.1l2.2-0.5v-10.5l-2.4-0.5v-2.8h6.7l0.2,2.4c0.6-0.9,1.3-1.5,2.1-2c0.8-0.5,1.7-0.7,2.8-0.7
		c1.7,0,3,0.5,4,1.6c1,1.1,1.4,2.8,1.4,5v7.4l2.2,0.5v2.7h-8.7v-2.7l2-0.5v-7.3c0-1.1-0.2-1.9-0.7-2.4c-0.5-0.5-1.2-0.7-2.1-0.7
		c-0.6,0-1.1,0.1-1.6,0.4c-0.5,0.2-0.9,0.6-1.2,1v9.1l1.8,0.5v2.7h-8.6V117.1z"/>
</g>
<g class="st1">
	<path class="st2" d="M369.9,117.8c-0.5,0.8-1.2,1.4-1.9,1.8s-1.5,0.6-2.5,0.6c-2.1,0-3.7-0.8-4.9-2.3c-1.2-1.5-1.7-3.5-1.7-6v-0.3
		c0-2.7,0.6-4.8,1.7-6.5c1.2-1.6,2.8-2.5,4.9-2.5c0.8,0,1.6,0.2,2.3,0.6c0.7,0.4,1.3,0.9,1.8,1.6v-6.1l-2.4-0.5v-2.8h2.4h4.6v21.2
		l2.2,0.5v2.7h-6.1L369.9,117.8z M363.5,111.9c0,1.5,0.2,2.6,0.7,3.5c0.5,0.8,1.3,1.3,2.4,1.3c0.7,0,1.2-0.1,1.7-0.4
		c0.5-0.3,0.9-0.7,1.2-1.2v-7.2c-0.3-0.5-0.7-1-1.2-1.3s-1.1-0.4-1.7-0.4c-1.1,0-1.9,0.5-2.4,1.5c-0.5,1-0.8,2.3-0.8,3.9V111.9z"/>
</g>
<g class="st1">
	<path class="st2" d="M377.2,111.2c0-2.5,0.7-4.6,2.1-6.2s3.4-2.4,5.9-2.4c2.5,0,4.5,0.8,5.9,2.4c1.4,1.6,2.1,3.7,2.1,6.2v0.3
		c0,2.5-0.7,4.6-2.1,6.2c-1.4,1.6-3.4,2.4-5.8,2.4c-2.5,0-4.5-0.8-5.9-2.4c-1.4-1.6-2.1-3.7-2.1-6.2V111.2z M381.8,111.6
		c0,1.5,0.3,2.8,0.8,3.7c0.5,0.9,1.4,1.4,2.6,1.4c1.2,0,2-0.5,2.6-1.4s0.8-2.2,0.8-3.7v-0.3c0-1.5-0.3-2.7-0.8-3.7
		c-0.6-0.9-1.4-1.4-2.6-1.4s-2.1,0.5-2.6,1.4c-0.5,0.9-0.8,2.2-0.8,3.7V111.6z"/>
</g>
<g class="st1">
	<path class="st2" d="M394.1,105.7v-2.8h6.7l0.2,2.2c0.5-0.8,1.2-1.4,2-1.9c0.8-0.4,1.8-0.7,2.8-0.7c1.1,0,2,0.2,2.8,0.7
		c0.8,0.5,1.4,1.2,1.8,2.2c0.5-0.9,1.2-1.6,2-2.1c0.8-0.5,1.8-0.8,2.9-0.8c1.7,0,3,0.6,3.9,1.7c1,1.2,1.4,2.9,1.4,5.3v7l2.2,0.5v2.7
		h-8.7v-2.7l2-0.5v-7c0-1.3-0.2-2.2-0.6-2.7c-0.4-0.5-1-0.8-1.9-0.8c-0.6,0-1.2,0.1-1.7,0.4c-0.5,0.3-0.9,0.7-1.1,1.2
		c0,0.2,0,0.4,0,0.5c0,0.1,0,0.3,0,0.4v7.9l1.8,0.5v2.7h-8.2v-2.7l1.8-0.5v-7c0-1.2-0.2-2.1-0.6-2.6c-0.4-0.5-1-0.8-1.9-0.8
		c-0.6,0-1.2,0.1-1.6,0.4c-0.5,0.2-0.8,0.6-1.1,1v9.1l2,0.5v2.7h-8.7v-2.7l2.2-0.5v-10.5L394.1,105.7z"/>
</g>
<g class="st1">
	<path class="st2" d="M437.9,108.8h-3.1l-0.5-2.1c-0.3-0.2-0.7-0.5-1.2-0.6c-0.5-0.2-1-0.2-1.6-0.2c-0.8,0-1.4,0.2-1.9,0.5
		s-0.7,0.8-0.7,1.4c0,0.5,0.2,0.9,0.7,1.3c0.4,0.3,1.3,0.6,2.7,0.9c2.1,0.4,3.6,1,4.7,1.8c1,0.8,1.5,1.9,1.5,3.3
		c0,1.5-0.7,2.8-2,3.7c-1.3,1-3,1.4-5.2,1.4c-1.3,0-2.5-0.2-3.6-0.6s-2.1-0.9-2.9-1.6l0-3.8h3.2l0.6,2.2c0.3,0.2,0.6,0.4,1.1,0.5
		s1,0.2,1.5,0.2c0.9,0,1.6-0.2,2.1-0.5c0.5-0.3,0.7-0.8,0.7-1.4c0-0.5-0.2-0.9-0.7-1.3c-0.5-0.4-1.4-0.7-2.7-1c-2-0.4-3.5-1-4.5-1.8
		s-1.5-1.9-1.5-3.3c0-1.4,0.6-2.6,1.8-3.7c1.2-1,2.8-1.5,5-1.5c1.3,0,2.6,0.2,3.7,0.5c1.2,0.4,2.1,0.8,2.8,1.4L437.9,108.8z"/>
</g>
<g class="st1">
	<path class="st2" d="M163,175.7h-2.5l-0.4-2.3c-0.3-0.3-0.8-0.6-1.3-0.8s-1.1-0.3-1.8-0.3c-1.5,0-2.6,0.5-3.4,1.6s-1.2,2.5-1.2,4.2
		v0.6c0,1.7,0.4,3.1,1.2,4.2s1.9,1.6,3.4,1.6c0.7,0,1.3-0.1,1.8-0.3s1-0.5,1.3-0.8l0.4-2.3h2.5v3.4c-0.7,0.8-1.6,1.4-2.6,1.9
		s-2.3,0.7-3.6,0.7c-2.3,0-4.2-0.8-5.6-2.4s-2.2-3.6-2.2-6.1v-0.6c0-2.5,0.7-4.5,2.2-6.1s3.3-2.4,5.6-2.4c1.3,0,2.5,0.2,3.6,0.7
		s1.9,1.1,2.6,1.9V175.7z"/>
</g>
<g class="st1">
	<path class="st2" d="M172.6,187c-0.1-0.2-0.2-0.4-0.2-0.7s-0.1-0.4-0.2-0.7c-0.4,0.5-0.9,0.8-1.5,1.1s-1.2,0.4-2,0.4
		c-1.2,0-2.2-0.3-3-1s-1.1-1.6-1.1-2.8c0-1.2,0.5-2.1,1.4-2.8s2.4-1,4.2-1h1.7v-1.2c0-0.6-0.2-1.1-0.5-1.4s-0.9-0.5-1.6-0.5
		c-0.4,0-0.7,0-1,0.1s-0.6,0.2-0.7,0.3l-0.2,1.4h-2.6l0-2.8c0.6-0.4,1.3-0.8,2.2-1.1s1.7-0.4,2.6-0.4c1.6,0,2.8,0.4,3.8,1.2
		s1.5,1.9,1.5,3.3v5.2c0,0.2,0,0.4,0,0.6s0,0.3,0,0.5l1,0.1v2.1H172.6z M169.7,184.8c0.5,0,1-0.1,1.4-0.3s0.8-0.5,1-0.8v-1.9h-1.7
		c-0.7,0-1.3,0.2-1.7,0.5s-0.6,0.7-0.6,1.2c0,0.4,0.1,0.8,0.4,1S169.2,184.8,169.7,184.8z"/>
</g>
<g class="st1">
	<path class="st2" d="M177.7,185l1.6-0.4v-7.9l-1.8-0.4v-2.1h5l0.2,1.8c0.4-0.6,0.9-1.2,1.6-1.5s1.3-0.5,2.1-0.5
		c1.3,0,2.3,0.4,3,1.2s1.1,2.1,1.1,3.8v5.5l1.6,0.4v2.1h-6.5V185l1.5-0.4v-5.5c0-0.9-0.2-1.5-0.5-1.8s-0.9-0.5-1.6-0.5
		c-0.5,0-0.9,0.1-1.2,0.3s-0.7,0.4-0.9,0.8v6.8l1.4,0.4v2.1h-6.4V185z"/>
</g>
<g class="st1">
	<path class="st2" d="M211.3,181.1c0,1.9-0.4,3.4-1.3,4.5s-2.1,1.7-3.7,1.7c-0.7,0-1.4-0.2-1.9-0.5s-1-0.8-1.4-1.3l-0.2,1.6h-3
		v-15.9l-1.8-0.4v-2.1h5.2v6.9c0.4-0.5,0.8-0.9,1.3-1.2s1.1-0.4,1.8-0.4c1.6,0,2.8,0.6,3.7,1.8s1.3,2.8,1.3,4.9V181.1z M207.9,180.8
		c0-1.2-0.2-2.2-0.5-2.9s-1-1.1-1.9-1.1c-0.5,0-1,0.1-1.3,0.3s-0.7,0.5-0.9,1v5.4c0.2,0.4,0.5,0.7,0.9,0.9s0.8,0.3,1.4,0.3
		c0.9,0,1.5-0.3,1.9-0.9s0.5-1.5,0.5-2.6V180.8z"/>
</g>
<g class="st1">
	<path class="st2" d="M218.8,187.3c-1.8,0-3.3-0.6-4.4-1.8s-1.6-2.7-1.6-4.5v-0.5c0-1.9,0.5-3.4,1.6-4.7s2.4-1.8,4.2-1.8
		c1.7,0,3,0.5,4,1.5s1.4,2.4,1.4,4.2v1.9h-7.6l0,0.1c0.1,0.8,0.3,1.5,0.8,2.1s1.2,0.8,2,0.8c0.8,0,1.4-0.1,1.9-0.2s1-0.4,1.6-0.7
		l0.9,2.1c-0.5,0.4-1.2,0.8-2,1S219.9,187.3,218.8,187.3z M218.5,176.8c-0.6,0-1.1,0.2-1.5,0.7s-0.6,1.1-0.7,1.9l0,0.1h4.2v-0.3
		c0-0.7-0.2-1.3-0.5-1.7S219.2,176.8,218.5,176.8z"/>
</g>
<g class="st1">
	<path class="st2" d="M231.2,176.4v-2.1h5l0.2,1.5c0.4-0.5,0.8-1,1.3-1.3s1.1-0.4,1.8-0.4c1.6,0,2.8,0.6,3.7,1.8s1.3,2.8,1.3,4.8
		v0.2c0,1.9-0.4,3.4-1.3,4.5s-2.1,1.7-3.6,1.7c-0.7,0-1.3-0.1-1.8-0.4s-1-0.6-1.3-1.1v3.7l1.7,0.4v2.1h-6.7v-2.1l1.7-0.4v-12.7
		L231.2,176.4z M241,180.8c0-1.2-0.2-2.2-0.6-2.9s-1-1.1-1.8-1.1c-0.5,0-1,0.1-1.3,0.3s-0.7,0.5-0.9,0.9v5.6
		c0.2,0.4,0.5,0.6,0.9,0.8s0.8,0.3,1.3,0.3c0.8,0,1.4-0.3,1.8-1s0.6-1.5,0.6-2.6V180.8z"/>
</g>
<g class="st1">
	<path class="st2" d="M245.2,170.8v-2.1h5.2v15.9l1.7,0.4v2.1h-6.7V185l1.7-0.4v-13.5L245.2,170.8z"/>
</g>
<g class="st1">
	<path class="st2" d="M261.3,187c-0.1-0.2-0.2-0.4-0.2-0.7s-0.1-0.4-0.2-0.7c-0.4,0.5-0.9,0.8-1.5,1.1s-1.2,0.4-2,0.4
		c-1.2,0-2.2-0.3-3-1s-1.1-1.6-1.1-2.8c0-1.2,0.5-2.1,1.4-2.8s2.4-1,4.2-1h1.7v-1.2c0-0.6-0.2-1.1-0.5-1.4s-0.9-0.5-1.6-0.5
		c-0.4,0-0.7,0-1,0.1s-0.6,0.2-0.7,0.3l-0.2,1.4H254l0-2.8c0.6-0.4,1.3-0.8,2.2-1.1s1.7-0.4,2.6-0.4c1.6,0,2.8,0.4,3.8,1.2
		s1.5,1.9,1.5,3.3v5.2c0,0.2,0,0.4,0,0.6s0,0.3,0,0.5l1,0.1v2.1H261.3z M258.3,184.8c0.5,0,1-0.1,1.4-0.3s0.8-0.5,1-0.8v-1.9H259
		c-0.7,0-1.3,0.2-1.7,0.5s-0.6,0.7-0.6,1.2c0,0.4,0.1,0.8,0.4,1S257.8,184.8,258.3,184.8z"/>
</g>
<g class="st1">
	<path class="st2" d="M272.1,184.7c0.6,0,1.1-0.2,1.5-0.5s0.6-0.8,0.6-1.4h3.1l0,0.1c0,1.3-0.4,2.4-1.4,3.2s-2.2,1.3-3.7,1.3
		c-1.9,0-3.3-0.6-4.4-1.8s-1.5-2.7-1.5-4.6v-0.4c0-1.9,0.5-3.4,1.6-4.6s2.5-1.8,4.5-1.8c1,0,1.9,0.2,2.8,0.5s1.5,0.7,2,1.3l0,3.4
		h-2.8l-0.6-2c-0.2-0.1-0.4-0.3-0.6-0.4s-0.5-0.1-0.9-0.1c-1,0-1.7,0.4-2.1,1.1s-0.6,1.6-0.6,2.7v0.4c0,1.1,0.2,2,0.6,2.7
		S271.2,184.7,272.1,184.7z"/>
</g>
<g class="st1">
	<path class="st2" d="M284.7,187.3c-1.8,0-3.3-0.6-4.4-1.8s-1.6-2.7-1.6-4.5v-0.5c0-1.9,0.5-3.4,1.6-4.7s2.4-1.8,4.2-1.8
		c1.7,0,3,0.5,4,1.5s1.4,2.4,1.4,4.2v1.9h-7.6l0,0.1c0.1,0.8,0.3,1.5,0.8,2.1s1.2,0.8,2,0.8c0.8,0,1.4-0.1,1.9-0.2s1-0.4,1.6-0.7
		l0.9,2.1c-0.5,0.4-1.2,0.8-2,1S285.7,187.3,284.7,187.3z M284.4,176.8c-0.6,0-1.1,0.2-1.5,0.7s-0.6,1.1-0.7,1.9l0,0.1h4.2v-0.3
		c0-0.7-0.2-1.3-0.5-1.7S285.1,176.8,284.4,176.8z"/>
</g>
<g class="st1">
	<path class="st2" d="M299.6,185.5c-0.4,0.6-0.9,1-1.4,1.3s-1.2,0.5-1.9,0.5c-1.6,0-2.8-0.6-3.6-1.7s-1.3-2.6-1.3-4.5v-0.2
		c0-2,0.4-3.6,1.3-4.8s2.1-1.8,3.7-1.8c0.6,0,1.2,0.1,1.7,0.4s1,0.7,1.3,1.2v-4.5l-1.8-0.4v-2.1h1.8h3.4v15.9l1.6,0.4v2.1h-4.6
		L299.6,185.5z M294.8,181.1c0,1.1,0.2,2,0.6,2.6s1,1,1.8,1c0.5,0,0.9-0.1,1.3-0.3s0.7-0.5,0.9-0.9v-5.4c-0.2-0.4-0.5-0.7-0.9-0.9
		s-0.8-0.3-1.3-0.3c-0.8,0-1.4,0.4-1.8,1.1s-0.6,1.7-0.6,2.9V181.1z"/>
</g>
<g class="st1">
	<path class="st2" d="M311.3,185l1.7-0.4v-7.9l-1.8-0.4v-2.1h5.2v10.3l1.6,0.4v2.1h-6.7V185z M316.4,171.3H313v-2.6h3.4V171.3z"/>
</g>
<g class="st1">
	<path class="st2" d="M319.2,185l1.6-0.4v-7.9l-1.8-0.4v-2.1h5l0.2,1.8c0.4-0.6,0.9-1.2,1.6-1.5s1.3-0.5,2.1-0.5
		c1.3,0,2.3,0.4,3,1.2s1.1,2.1,1.1,3.8v5.5l1.6,0.4v2.1H327V185l1.5-0.4v-5.5c0-0.9-0.2-1.5-0.5-1.8s-0.9-0.5-1.6-0.5
		c-0.5,0-0.9,0.1-1.2,0.3s-0.7,0.4-0.9,0.8v6.8l1.4,0.4v2.1h-6.4V185z"/>
</g>
<g class="st1">
	<path class="st2" d="M344.7,178.7h-2.3l-0.4-1.6c-0.2-0.2-0.5-0.3-0.9-0.5s-0.7-0.2-1.2-0.2c-0.6,0-1.1,0.1-1.4,0.4s-0.5,0.6-0.5,1
		c0,0.4,0.2,0.7,0.5,1s1,0.5,2,0.7c1.6,0.3,2.7,0.8,3.5,1.4s1.1,1.4,1.1,2.5c0,1.1-0.5,2.1-1.5,2.8s-2.3,1.1-3.9,1.1
		c-1,0-1.9-0.1-2.7-0.4s-1.5-0.7-2.2-1.2l0-2.8h2.4l0.5,1.7c0.2,0.2,0.5,0.3,0.8,0.4s0.7,0.1,1.1,0.1c0.7,0,1.2-0.1,1.6-0.4
		s0.5-0.6,0.5-1c0-0.4-0.2-0.7-0.6-1s-1-0.5-2-0.7c-1.5-0.3-2.6-0.8-3.4-1.4s-1.1-1.4-1.1-2.4c0-1.1,0.4-2,1.3-2.7s2.1-1.2,3.7-1.2
		c1,0,1.9,0.1,2.8,0.4s1.6,0.6,2.1,1L344.7,178.7z"/>
</g>
<g class="st1">
	<path class="st2" d="M346.5,185l1.7-0.4v-7.9l-1.8-0.4v-2.1h5.2v10.3l1.6,0.4v2.1h-6.7V185z M351.5,171.3h-3.4v-2.6h3.4V171.3z"/>
</g>
<g class="st1">
	<path class="st2" d="M362.3,185.5c-0.4,0.6-0.9,1-1.4,1.3s-1.2,0.5-1.9,0.5c-1.6,0-2.8-0.6-3.6-1.7s-1.3-2.6-1.3-4.5v-0.2
		c0-2,0.4-3.6,1.3-4.8s2.1-1.8,3.7-1.8c0.6,0,1.2,0.1,1.7,0.4s1,0.7,1.3,1.2v-4.5l-1.8-0.4v-2.1h1.8h3.4v15.9l1.6,0.4v2.1h-4.6
		L362.3,185.5z M357.5,181.1c0,1.1,0.2,2,0.6,2.6s1,1,1.8,1c0.5,0,0.9-0.1,1.3-0.3s0.7-0.5,0.9-0.9v-5.4c-0.2-0.4-0.5-0.7-0.9-0.9
		s-0.8-0.3-1.3-0.3c-0.8,0-1.4,0.4-1.8,1.1s-0.6,1.7-0.6,2.9V181.1z"/>
</g>
<g class="st1">
	<path class="st2" d="M373.9,187.3c-1.8,0-3.3-0.6-4.4-1.8s-1.6-2.7-1.6-4.5v-0.5c0-1.9,0.5-3.4,1.6-4.7s2.4-1.8,4.2-1.8
		c1.7,0,3,0.5,4,1.5s1.4,2.4,1.4,4.2v1.9h-7.6l0,0.1c0.1,0.8,0.3,1.5,0.8,2.1s1.2,0.8,2,0.8c0.8,0,1.4-0.1,1.9-0.2s1-0.4,1.6-0.7
		l0.9,2.1c-0.5,0.4-1.2,0.8-2,1S374.9,187.3,373.9,187.3z M373.6,176.8c-0.6,0-1.1,0.2-1.5,0.7s-0.6,1.1-0.7,1.9l0,0.1h4.2v-0.3
		c0-0.7-0.2-1.3-0.5-1.7S374.3,176.8,373.6,176.8z"/>
</g>
<g class="st1">
	<path class="st2" d="M386.5,180.6c0-1.9,0.5-3.4,1.6-4.6s2.5-1.8,4.4-1.8c1.9,0,3.3,0.6,4.4,1.8s1.6,2.8,1.6,4.7v0.2
		c0,1.9-0.5,3.5-1.6,4.7s-2.5,1.8-4.4,1.8c-1.9,0-3.4-0.6-4.4-1.8s-1.6-2.8-1.6-4.7V180.6z M389.9,180.8c0,1.2,0.2,2.1,0.6,2.8
		s1.1,1,2,1c0.9,0,1.5-0.4,1.9-1.1s0.6-1.6,0.6-2.8v-0.2c0-1.1-0.2-2-0.6-2.8s-1.1-1.1-2-1.1s-1.5,0.4-1.9,1.1s-0.6,1.6-0.6,2.8
		V180.8z"/>
</g>
<g class="st1">
	<path class="st2" d="M399.7,185l1.7-0.4v-7.9h-1.9v-2.4h1.9V173c0-1.4,0.4-2.5,1.2-3.3s2-1.2,3.5-1.2c0.3,0,0.6,0,0.9,0.1
		s0.6,0.1,1,0.2l-0.3,2.5c-0.2,0-0.4-0.1-0.5-0.1s-0.4,0-0.6,0c-0.6,0-1,0.2-1.3,0.5s-0.4,0.7-0.4,1.3v1.4h2.5v2.4h-2.5v7.9l1.7,0.4
		v2.1h-6.7V185z"/>
</g>
<g class="st1">
	<path class="st2" d="M129,213.8l1.7-0.4v-7.9l-1.8-0.4v-2.1h5.2v10.3l1.6,0.4v2.1H129V213.8z M134.1,200.1h-3.4v-2.6h3.4V200.1z"/>
</g>
<g class="st1">
	<path class="st2" d="M136.9,213.8l1.6-0.4v-7.9l-1.8-0.4v-2.1h5l0.2,1.8c0.4-0.6,0.9-1.2,1.6-1.5s1.3-0.5,2.1-0.5
		c1.3,0,2.3,0.4,3,1.2s1.1,2.1,1.1,3.8v5.5l1.6,0.4v2.1h-6.5v-2.1l1.5-0.4v-5.5c0-0.9-0.2-1.5-0.5-1.8s-0.9-0.5-1.6-0.5
		c-0.5,0-0.9,0.1-1.2,0.3s-0.7,0.4-0.9,0.8v6.8l1.4,0.4v2.1h-6.4V213.8z"/>
</g>
<g class="st1">
	<path class="st2" d="M156.6,200.1v3.1h2.2v2.4h-2.2v6.5c0,0.5,0.1,0.8,0.3,1.1s0.5,0.3,0.8,0.3c0.2,0,0.4,0,0.6,0s0.4-0.1,0.6-0.1
		l0.3,2.5c-0.4,0.1-0.8,0.2-1.1,0.3s-0.8,0.1-1.2,0.1c-1.2,0-2.1-0.3-2.7-1s-1-1.7-1-3.1v-6.5h-1.9v-2.4h1.9v-3.1H156.6z"/>
</g>
<g class="st1">
	<path class="st2" d="M166.1,216.1c-1.8,0-3.3-0.6-4.4-1.8s-1.6-2.7-1.6-4.5v-0.5c0-1.9,0.5-3.4,1.6-4.7s2.4-1.8,4.2-1.8
		c1.7,0,3,0.5,4,1.5s1.4,2.4,1.4,4.2v1.9h-7.6l0,0.1c0.1,0.8,0.3,1.5,0.8,2.1s1.2,0.8,2,0.8c0.8,0,1.4-0.1,1.9-0.2s1-0.4,1.6-0.7
		l0.9,2.1c-0.5,0.4-1.2,0.8-2,1S167.1,216.1,166.1,216.1z M165.8,205.6c-0.6,0-1.1,0.2-1.5,0.7s-0.6,1.1-0.7,1.9l0,0.1h4.2V208
		c0-0.7-0.2-1.3-0.5-1.7S166.5,205.6,165.8,205.6z"/>
</g>
<g class="st1">
	<path class="st2" d="M172.6,213.8l1.6-0.4v-7.9l-1.8-0.4v-2.1h5l0.2,1.9c0.3-0.7,0.7-1.2,1.1-1.5s1-0.6,1.6-0.6c0.2,0,0.4,0,0.6,0
		s0.4,0.1,0.5,0.1l-0.4,3.1l-1.4,0c-0.5,0-0.9,0.1-1.2,0.3s-0.6,0.5-0.8,0.8v6.2l1.6,0.4v2.1h-6.7V213.8z"/>
</g>
<g class="st1">
	<path class="st2" d="M182.6,213.8l1.6-0.4v-7.9l-1.8-0.4v-2.1h5l0.2,1.8c0.4-0.6,0.9-1.2,1.6-1.5s1.3-0.5,2.1-0.5
		c1.3,0,2.3,0.4,3,1.2s1.1,2.1,1.1,3.8v5.5l1.6,0.4v2.1h-6.5v-2.1l1.5-0.4v-5.5c0-0.9-0.2-1.5-0.5-1.8s-0.9-0.5-1.6-0.5
		c-0.5,0-0.9,0.1-1.2,0.3s-0.7,0.4-0.9,0.8v6.8l1.4,0.4v2.1h-6.4V213.8z"/>
</g>
<g class="st1">
	<path class="st2" d="M206.1,215.9c-0.1-0.2-0.2-0.4-0.2-0.7s-0.1-0.4-0.2-0.7c-0.4,0.5-0.9,0.8-1.5,1.1s-1.2,0.4-2,0.4
		c-1.2,0-2.2-0.3-3-1s-1.1-1.6-1.1-2.8c0-1.2,0.5-2.1,1.4-2.8s2.4-1,4.2-1h1.7v-1.2c0-0.6-0.2-1.1-0.5-1.4s-0.9-0.5-1.6-0.5
		c-0.4,0-0.7,0-1,0.1s-0.6,0.2-0.7,0.3l-0.2,1.4h-2.6l0-2.8c0.6-0.4,1.3-0.8,2.2-1.1s1.7-0.4,2.6-0.4c1.6,0,2.8,0.4,3.8,1.2
		s1.5,1.9,1.5,3.3v5.2c0,0.2,0,0.4,0,0.6s0,0.3,0,0.5l1,0.1v2.1H206.1z M203.1,213.6c0.5,0,1-0.1,1.4-0.3s0.8-0.5,1-0.8v-1.9h-1.7
		c-0.7,0-1.3,0.2-1.7,0.5s-0.6,0.7-0.6,1.2c0,0.4,0.1,0.8,0.4,1S202.7,213.6,203.1,213.6z"/>
</g>
<g class="st1">
	<path class="st2" d="M211,199.6v-2.1h5.2v15.9l1.7,0.4v2.1h-6.7v-2.1l1.7-0.4V200L211,199.6z"/>
</g>
<g class="st1">
	<path class="st2" d="M225.1,209.6c0-2,0.4-3.6,1.3-4.8s2.1-1.8,3.7-1.8c0.7,0,1.3,0.2,1.9,0.5s1,0.8,1.4,1.4l0.2-1.6h3v12.3
		c0,1.7-0.5,3-1.6,4s-2.5,1.5-4.3,1.5c-0.6,0-1.3-0.1-2-0.3s-1.4-0.4-2-0.7l0.6-2.4c0.5,0.2,1.1,0.4,1.6,0.6s1.1,0.2,1.7,0.2
		c0.8,0,1.5-0.3,1.9-0.8s0.6-1.2,0.6-2.1v-0.8c-0.4,0.5-0.8,0.8-1.3,1.1s-1.1,0.4-1.7,0.4c-1.6,0-2.8-0.6-3.6-1.7s-1.3-2.7-1.3-4.5
		V209.6z M228.6,209.9c0,1.1,0.2,2,0.6,2.6s1,1,1.8,1c0.5,0,1-0.1,1.3-0.3s0.7-0.5,0.9-0.8v-5.5c-0.2-0.4-0.5-0.7-0.9-0.9
		s-0.8-0.3-1.3-0.3c-0.8,0-1.4,0.4-1.8,1.1s-0.6,1.7-0.6,2.9V209.9z"/>
</g>
<g class="st1">
	<path class="st2" d="M244.6,216.1c-1.8,0-3.3-0.6-4.4-1.8s-1.6-2.7-1.6-4.5v-0.5c0-1.9,0.5-3.4,1.6-4.7s2.4-1.8,4.2-1.8
		c1.7,0,3,0.5,4,1.5s1.4,2.4,1.4,4.2v1.9h-7.6l0,0.1c0.1,0.8,0.3,1.5,0.8,2.1s1.2,0.8,2,0.8c0.8,0,1.4-0.1,1.9-0.2s1-0.4,1.6-0.7
		l0.9,2.1c-0.5,0.4-1.2,0.8-2,1S245.7,216.1,244.6,216.1z M244.3,205.6c-0.6,0-1.1,0.2-1.5,0.7s-0.6,1.1-0.7,1.9l0,0.1h4.2V208
		c0-0.7-0.2-1.3-0.5-1.7S245,205.6,244.3,205.6z"/>
</g>
<g class="st1">
	<path class="st2" d="M251,213.8l1.6-0.4v-7.9l-1.8-0.4v-2.1h5l0.2,1.8c0.4-0.6,0.9-1.2,1.6-1.5s1.3-0.5,2.1-0.5
		c1.3,0,2.3,0.4,3,1.2s1.1,2.1,1.1,3.8v5.5l1.6,0.4v2.1h-6.5v-2.1l1.5-0.4v-5.5c0-0.9-0.2-1.5-0.5-1.8s-0.9-0.5-1.6-0.5
		c-0.5,0-0.9,0.1-1.2,0.3s-0.7,0.4-0.9,0.8v6.8l1.4,0.4v2.1H251V213.8z"/>
</g>
<g class="st1">
	<path class="st2" d="M266.4,213.8l1.7-0.4v-7.9l-1.8-0.4v-2.1h5.2v10.3l1.6,0.4v2.1h-6.7V213.8z M271.5,200.1h-3.4v-2.6h3.4V200.1z
		"/>
</g>
<g class="st1">
	<path class="st2" d="M278.7,200.1v3.1h2.2v2.4h-2.2v6.5c0,0.5,0.1,0.8,0.3,1.1s0.5,0.3,0.8,0.3c0.2,0,0.4,0,0.6,0s0.4-0.1,0.6-0.1
		l0.3,2.5c-0.4,0.1-0.8,0.2-1.1,0.3s-0.8,0.1-1.2,0.1c-1.2,0-2.1-0.3-2.7-1s-1-1.7-1-3.1v-6.5h-1.9v-2.4h1.9v-3.1H278.7z"/>
</g>
<g class="st1">
	<path class="st2" d="M290.5,215.9c-0.1-0.2-0.2-0.4-0.2-0.7s-0.1-0.4-0.2-0.7c-0.4,0.5-0.9,0.8-1.5,1.1s-1.2,0.4-2,0.4
		c-1.2,0-2.2-0.3-3-1s-1.1-1.6-1.1-2.8c0-1.2,0.5-2.1,1.4-2.8s2.4-1,4.2-1h1.7v-1.2c0-0.6-0.2-1.1-0.5-1.4s-0.9-0.5-1.6-0.5
		c-0.4,0-0.7,0-1,0.1s-0.6,0.2-0.7,0.3l-0.2,1.4h-2.6l0-2.8c0.6-0.4,1.3-0.8,2.2-1.1s1.7-0.4,2.6-0.4c1.6,0,2.8,0.4,3.8,1.2
		s1.5,1.9,1.5,3.3v5.2c0,0.2,0,0.4,0,0.6s0,0.3,0,0.5l1,0.1v2.1H290.5z M287.5,213.6c0.5,0,1-0.1,1.4-0.3s0.8-0.5,1-0.8v-1.9h-1.7
		c-0.7,0-1.3,0.2-1.7,0.5s-0.6,0.7-0.6,1.2c0,0.4,0.1,0.8,0.4,1S287,213.6,287.5,213.6z"/>
</g>
<g class="st1">
	<path class="st2" d="M295.4,199.6v-2.1h5.2v15.9l1.7,0.4v2.1h-6.7v-2.1l1.7-0.4V200L295.4,199.6z"/>
</g>
<g class="st1">
	<path class="st2" d="M303.5,213.8l1.7-0.4v-7.9l-1.8-0.4v-2.1h5.2v10.3l1.6,0.4v2.1h-6.7V213.8z M308.6,200.1h-3.4v-2.6h3.4V200.1z
		"/>
</g>
<g class="st1">
	<path class="st2" d="M319.4,215.9c-0.1-0.2-0.2-0.4-0.2-0.7s-0.1-0.4-0.2-0.7c-0.4,0.5-0.9,0.8-1.5,1.1s-1.2,0.4-2,0.4
		c-1.2,0-2.2-0.3-3-1s-1.1-1.6-1.1-2.8c0-1.2,0.5-2.1,1.4-2.8s2.4-1,4.2-1h1.7v-1.2c0-0.6-0.2-1.1-0.5-1.4s-0.9-0.5-1.6-0.5
		c-0.4,0-0.7,0-1,0.1s-0.6,0.2-0.7,0.3l-0.2,1.4h-2.6l0-2.8c0.6-0.4,1.3-0.8,2.2-1.1s1.7-0.4,2.6-0.4c1.6,0,2.8,0.4,3.8,1.2
		s1.5,1.9,1.5,3.3v5.2c0,0.2,0,0.4,0,0.6s0,0.3,0,0.5l1,0.1v2.1H319.4z M316.4,213.6c0.5,0,1-0.1,1.4-0.3s0.8-0.5,1-0.8v-1.9H317
		c-0.7,0-1.3,0.2-1.7,0.5s-0.6,0.7-0.6,1.2c0,0.4,0.1,0.8,0.4,1S315.9,213.6,316.4,213.6z"/>
</g>
<g class="st1">
	<path class="st2" d="M328.5,215.4c0,0.8-0.2,1.6-0.7,2.5s-1,1.6-1.6,2.2l-1.7-0.9c0.3-0.5,0.5-1.1,0.7-1.7s0.2-1.2,0.2-2V213h3.1
		L328.5,215.4z"/>
	<path class="st2" d="M344.4,215.9c-0.1-0.2-0.2-0.4-0.2-0.7s-0.1-0.4-0.2-0.7c-0.4,0.5-0.9,0.8-1.5,1.1s-1.2,0.4-2,0.4
		c-1.2,0-2.2-0.3-3-1s-1.1-1.6-1.1-2.8c0-1.2,0.5-2.1,1.4-2.8s2.4-1,4.2-1h1.7v-1.2c0-0.6-0.2-1.1-0.5-1.4s-0.9-0.5-1.6-0.5
		c-0.4,0-0.7,0-1,0.1s-0.6,0.2-0.7,0.3l-0.2,1.4h-2.6l0-2.8c0.6-0.4,1.3-0.8,2.2-1.1s1.7-0.4,2.6-0.4c1.6,0,2.8,0.4,3.8,1.2
		s1.5,1.9,1.5,3.3v5.2c0,0.2,0,0.4,0,0.6s0,0.3,0,0.5l1,0.1v2.1H344.4z M341.4,213.6c0.5,0,1-0.1,1.4-0.3s0.8-0.5,1-0.8v-1.9H342
		c-0.7,0-1.3,0.2-1.7,0.5s-0.6,0.7-0.6,1.2c0,0.4,0.1,0.8,0.4,1S340.9,213.6,341.4,213.6z"/>
</g>
<g class="st1">
	<path class="st2" d="M360.7,205.2l-1.2,0.2l1.7,5.7l0.2,1.2h0.1l0.2-1.2l1.7-5.7l-1.2-0.2v-2.1h5.8v2.1l-1.1,0.2l-3.7,10.4h-3.3
		l-3.8-10.4l-1.1-0.2v-2.1h5.8V205.2z"/>
</g>
<g class="st1">
	<path class="st2" d="M376.8,215.9c-0.1-0.2-0.2-0.4-0.2-0.7s-0.1-0.4-0.2-0.7c-0.4,0.5-0.9,0.8-1.5,1.1s-1.2,0.4-2,0.4
		c-1.2,0-2.2-0.3-3-1s-1.1-1.6-1.1-2.8c0-1.2,0.5-2.1,1.4-2.8s2.4-1,4.2-1h1.7v-1.2c0-0.6-0.2-1.1-0.5-1.4s-0.9-0.5-1.6-0.5
		c-0.4,0-0.7,0-1,0.1s-0.6,0.2-0.7,0.3l-0.2,1.4h-2.6l0-2.8c0.6-0.4,1.3-0.8,2.2-1.1s1.7-0.4,2.6-0.4c1.6,0,2.8,0.4,3.8,1.2
		s1.5,1.9,1.5,3.3v5.2c0,0.2,0,0.4,0,0.6s0,0.3,0,0.5l1,0.1v2.1H376.8z M373.8,213.6c0.5,0,1-0.1,1.4-0.3s0.8-0.5,1-0.8v-1.9h-1.7
		c-0.7,0-1.3,0.2-1.7,0.5s-0.6,0.7-0.6,1.2c0,0.4,0.1,0.8,0.4,1S373.3,213.6,373.8,213.6z"/>
</g>
<g class="st1">
	<path class="st2" d="M381.9,209.6c0-2,0.4-3.6,1.3-4.8s2.1-1.8,3.7-1.8c0.7,0,1.3,0.2,1.9,0.5s1,0.8,1.4,1.4l0.2-1.6h3v12.3
		c0,1.7-0.5,3-1.6,4s-2.5,1.5-4.3,1.5c-0.6,0-1.3-0.1-2-0.3s-1.4-0.4-2-0.7l0.6-2.4c0.5,0.2,1.1,0.4,1.6,0.6s1.1,0.2,1.7,0.2
		c0.8,0,1.5-0.3,1.9-0.8s0.6-1.2,0.6-2.1v-0.8c-0.4,0.5-0.8,0.8-1.3,1.1s-1.1,0.4-1.7,0.4c-1.6,0-2.8-0.6-3.6-1.7s-1.3-2.7-1.3-4.5
		V209.6z M385.3,209.9c0,1.1,0.2,2,0.6,2.6s1,1,1.8,1c0.5,0,1-0.1,1.3-0.3s0.7-0.5,0.9-0.8v-5.5c-0.2-0.4-0.5-0.7-0.9-0.9
		s-0.8-0.3-1.3-0.3c-0.8,0-1.4,0.4-1.8,1.1s-0.6,1.7-0.6,2.9V209.9z"/>
</g>
<g class="st1">
	<path class="st2" d="M395.2,213.8l1.7-0.4v-7.9l-1.8-0.4v-2.1h5.2v10.3l1.6,0.4v2.1h-6.7V213.8z M400.3,200.1h-3.4v-2.6h3.4V200.1z
		"/>
</g>
<g class="st1">
	<path class="st2" d="M403.1,213.8l1.6-0.4v-7.9l-1.8-0.4v-2.1h5l0.2,1.8c0.4-0.6,0.9-1.2,1.6-1.5s1.3-0.5,2.1-0.5
		c1.3,0,2.3,0.4,3,1.2s1.1,2.1,1.1,3.8v5.5l1.6,0.4v2.1h-6.5v-2.1l1.5-0.4v-5.5c0-0.9-0.2-1.5-0.5-1.8s-0.9-0.5-1.6-0.5
		c-0.5,0-0.9,0.1-1.2,0.3s-0.7,0.4-0.9,0.8v6.8l1.4,0.4v2.1h-6.4V213.8z"/>
</g>
<g class="st1">
	<path class="st2" d="M426.5,215.9c-0.1-0.2-0.2-0.4-0.2-0.7s-0.1-0.4-0.2-0.7c-0.4,0.5-0.9,0.8-1.5,1.1s-1.2,0.4-2,0.4
		c-1.2,0-2.2-0.3-3-1s-1.1-1.6-1.1-2.8c0-1.2,0.5-2.1,1.4-2.8s2.4-1,4.2-1h1.7v-1.2c0-0.6-0.2-1.1-0.5-1.4s-0.9-0.5-1.6-0.5
		c-0.4,0-0.7,0-1,0.1s-0.6,0.2-0.7,0.3l-0.2,1.4h-2.6l0-2.8c0.6-0.4,1.3-0.8,2.2-1.1s1.7-0.4,2.6-0.4c1.6,0,2.8,0.4,3.8,1.2
		s1.5,1.9,1.5,3.3v5.2c0,0.2,0,0.4,0,0.6s0,0.3,0,0.5l1,0.1v2.1H426.5z M423.6,213.6c0.5,0,1-0.1,1.4-0.3s0.8-0.5,1-0.8v-1.9h-1.7
		c-0.7,0-1.3,0.2-1.7,0.5s-0.6,0.7-0.6,1.2c0,0.4,0.1,0.8,0.4,1S423.1,213.6,423.6,213.6z"/>
</g>
<g class="st1">
	<path class="st2" d="M435.6,215.4c0,0.8-0.2,1.6-0.7,2.5s-1,1.6-1.6,2.2l-1.7-0.9c0.3-0.5,0.5-1.1,0.7-1.7s0.2-1.2,0.2-2V213h3.1
		L435.6,215.4z"/>
</g>
<g class="st1">
	<path class="st2" d="M129.1,238.2c0-1.9,0.5-3.4,1.6-4.6s2.5-1.8,4.4-1.8c1.9,0,3.3,0.6,4.4,1.8s1.6,2.8,1.6,4.7v0.2
		c0,1.9-0.5,3.5-1.6,4.7s-2.5,1.8-4.4,1.8c-1.9,0-3.4-0.6-4.4-1.8s-1.6-2.8-1.6-4.7V238.2z M132.5,238.4c0,1.2,0.2,2.1,0.6,2.8
		s1.1,1,2,1c0.9,0,1.5-0.4,1.9-1.1s0.6-1.6,0.6-2.8v-0.2c0-1.1-0.2-2-0.6-2.8s-1.1-1.1-2-1.1s-1.5,0.4-1.9,1.1s-0.6,1.6-0.6,2.8
		V238.4z"/>
</g>
<g class="st1">
	<path class="st2" d="M142.2,242.6l1.6-0.4v-7.9l-1.8-0.4V232h5l0.2,1.9c0.3-0.7,0.7-1.2,1.1-1.5s1-0.6,1.6-0.6c0.2,0,0.4,0,0.6,0
		s0.4,0.1,0.5,0.1l-0.4,3.1l-1.4,0c-0.5,0-0.9,0.1-1.2,0.3s-0.6,0.5-0.8,0.8v6.2l1.6,0.4v2.1h-6.7V242.6z"/>
</g>
<g class="st1">
	<path class="st2" d="M166,244.6c-0.1-0.2-0.2-0.4-0.2-0.7s-0.1-0.4-0.2-0.7c-0.4,0.5-0.9,0.8-1.5,1.1s-1.2,0.4-2,0.4
		c-1.2,0-2.2-0.3-3-1s-1.1-1.6-1.1-2.8c0-1.2,0.5-2.1,1.4-2.8s2.4-1,4.2-1h1.7v-1.2c0-0.6-0.2-1.1-0.5-1.4s-0.9-0.5-1.6-0.5
		c-0.4,0-0.7,0-1,0.1s-0.6,0.2-0.7,0.3l-0.2,1.4h-2.6l0-2.8c0.6-0.4,1.3-0.8,2.2-1.1s1.7-0.4,2.6-0.4c1.6,0,2.8,0.4,3.8,1.2
		s1.5,1.9,1.5,3.3v5.2c0,0.2,0,0.4,0,0.6s0,0.3,0,0.5l1,0.1v2.1H166z M163.1,242.4c0.5,0,1-0.1,1.4-0.3s0.8-0.5,1-0.8v-1.9h-1.7
		c-0.7,0-1.3,0.2-1.7,0.5s-0.6,0.7-0.6,1.2c0,0.4,0.1,0.8,0.4,1S162.6,242.4,163.1,242.4z"/>
</g>
<g class="st1">
	<path class="st2" d="M171.1,242.6l1.6-0.4v-7.9L171,234V232h5l0.2,1.8c0.4-0.6,0.9-1.2,1.6-1.5s1.3-0.5,2.1-0.5
		c1.3,0,2.3,0.4,3,1.2s1.1,2.1,1.1,3.8v5.5l1.6,0.4v2.1h-6.5v-2.1l1.5-0.4v-5.5c0-0.9-0.2-1.5-0.5-1.8s-0.9-0.5-1.6-0.5
		c-0.5,0-0.9,0.1-1.2,0.3s-0.7,0.4-0.9,0.8v6.8l1.4,0.4v2.1h-6.4V242.6z"/>
</g>
<g class="st1">
	<path class="st2" d="M200.5,244.6c-0.1-0.2-0.2-0.4-0.2-0.7s-0.1-0.4-0.2-0.7c-0.4,0.5-0.9,0.8-1.5,1.1s-1.2,0.4-2,0.4
		c-1.2,0-2.2-0.3-3-1s-1.1-1.6-1.1-2.8c0-1.2,0.5-2.1,1.4-2.8s2.4-1,4.2-1h1.7v-1.2c0-0.6-0.2-1.1-0.5-1.4s-0.9-0.5-1.6-0.5
		c-0.4,0-0.7,0-1,0.1s-0.6,0.2-0.7,0.3l-0.2,1.4h-2.6l0-2.8c0.6-0.4,1.3-0.8,2.2-1.1s1.7-0.4,2.6-0.4c1.6,0,2.8,0.4,3.8,1.2
		s1.5,1.9,1.5,3.3v5.2c0,0.2,0,0.4,0,0.6s0,0.3,0,0.5l1,0.1v2.1H200.5z M197.5,242.4c0.5,0,1-0.1,1.4-0.3s0.8-0.5,1-0.8v-1.9h-1.7
		c-0.7,0-1.3,0.2-1.7,0.5s-0.6,0.7-0.6,1.2c0,0.4,0.1,0.8,0.4,1S197.1,242.4,197.5,242.4z"/>
</g>
<g class="st1">
	<path class="st2" d="M205.6,242.6l1.6-0.4v-7.9l-1.8-0.4V232h5l0.2,1.8c0.4-0.6,0.9-1.2,1.6-1.5s1.3-0.5,2.1-0.5
		c1.3,0,2.3,0.4,3,1.2s1.1,2.1,1.1,3.8v5.5l1.6,0.4v2.1h-6.5v-2.1l1.5-0.4v-5.5c0-0.9-0.2-1.5-0.5-1.8s-0.9-0.5-1.6-0.5
		c-0.5,0-0.9,0.1-1.2,0.3s-0.7,0.4-0.9,0.8v6.8l1.4,0.4v2.1h-6.4V242.6z"/>
</g>
<g class="st1">
	<path class="st2" d="M229.4,243c-0.4,0.6-0.9,1.1-1.5,1.4s-1.3,0.5-2,0.5c-1.3,0-2.4-0.4-3.1-1.3s-1.1-2.2-1.1-4v-5.2l-1.4-0.4V232
		h1.4h3.4v7.7c0,0.9,0.2,1.6,0.5,2s0.8,0.6,1.4,0.6c0.5,0,1-0.1,1.4-0.3s0.7-0.4,1-0.8v-6.8l-1.5-0.4V232h1.5h3.4v10.3l1.5,0.4v2.1
		h-4.5L229.4,243z"/>
</g>
<g class="st1">
	<path class="st2" d="M245.5,236.3h-2.3l-0.4-1.6c-0.2-0.2-0.5-0.3-0.9-0.5s-0.7-0.2-1.2-0.2c-0.6,0-1.1,0.1-1.4,0.4s-0.5,0.6-0.5,1
		c0,0.4,0.2,0.7,0.5,1s1,0.5,2,0.7c1.6,0.3,2.7,0.8,3.5,1.4s1.1,1.4,1.1,2.5c0,1.1-0.5,2.1-1.5,2.8s-2.3,1.1-3.9,1.1
		c-1,0-1.9-0.1-2.7-0.4s-1.5-0.7-2.2-1.2l0-2.8h2.4l0.5,1.7c0.2,0.2,0.5,0.3,0.8,0.4s0.7,0.1,1.1,0.1c0.7,0,1.2-0.1,1.6-0.4
		s0.5-0.6,0.5-1c0-0.4-0.2-0.7-0.6-1s-1-0.5-2-0.7c-1.5-0.3-2.6-0.8-3.4-1.4s-1.1-1.4-1.1-2.4c0-1.1,0.4-2,1.3-2.7s2.1-1.2,3.7-1.2
		c1,0,1.9,0.1,2.8,0.4s1.6,0.6,2.1,1L245.5,236.3z"/>
</g>
<g class="st1">
	<path class="st2" d="M251.5,244.6h-3.4v-3h3.4V244.6z"/>
</g>
<g class="st1">
	<path class="st2" d="M149,287.2v-2.1h7.1v2.1l-1.8,0.4v12.2l1.8,0.4v2.1H149v-2.1l1.8-0.4v-12.2L149,287.2z"/>
</g>
<g class="st1">
	<path class="st2" d="M161.8,286.5v3.1h2.2v2.4h-2.2v6.5c0,0.5,0.1,0.8,0.3,1.1s0.5,0.3,0.8,0.3c0.2,0,0.4,0,0.6,0s0.4-0.1,0.6-0.1
		l0.3,2.5c-0.4,0.1-0.8,0.2-1.1,0.3s-0.8,0.1-1.2,0.1c-1.2,0-2.1-0.3-2.7-1s-1-1.7-1-3.1V292h-1.9v-2.4h1.9v-3.1H161.8z"/>
</g>
<g class="st1">
	<path class="st2" d="M177.6,299.9c0.6,0,1.1-0.2,1.5-0.5s0.6-0.8,0.6-1.4h3.1l0,0.1c0,1.3-0.4,2.4-1.4,3.2s-2.2,1.3-3.7,1.3
		c-1.9,0-3.3-0.6-4.4-1.8s-1.5-2.7-1.5-4.6v-0.4c0-1.9,0.5-3.4,1.6-4.6s2.5-1.8,4.5-1.8c1,0,1.9,0.2,2.8,0.5s1.5,0.7,2,1.3l0,3.4
		h-2.8l-0.6-2c-0.2-0.1-0.4-0.3-0.6-0.4s-0.5-0.1-0.9-0.1c-1,0-1.7,0.4-2.1,1.1s-0.6,1.6-0.6,2.7v0.4c0,1.1,0.2,2,0.6,2.7
		S176.6,299.9,177.6,299.9z"/>
</g>
<g class="st1">
	<path class="st2" d="M184.1,295.8c0-1.9,0.5-3.4,1.6-4.6s2.5-1.8,4.4-1.8c1.9,0,3.3,0.6,4.4,1.8s1.6,2.8,1.6,4.7v0.2
		c0,1.9-0.5,3.5-1.6,4.7s-2.5,1.8-4.4,1.8c-1.9,0-3.4-0.6-4.4-1.8s-1.6-2.8-1.6-4.7V295.8z M187.5,296c0,1.2,0.2,2.1,0.6,2.8
		s1.1,1,2,1c0.9,0,1.5-0.4,1.9-1.1s0.6-1.6,0.6-2.8v-0.2c0-1.1-0.2-2-0.6-2.8s-1.1-1.1-2-1.1s-1.5,0.4-1.9,1.1s-0.6,1.6-0.6,2.8V296
		z"/>
</g>
<g class="st1">
	<path class="st2" d="M196.7,286V284h5.2v15.9l1.7,0.4v2.1h-6.7v-2.1l1.7-0.4v-13.5L196.7,286z"/>
</g>
<g class="st1">
	<path class="st2" d="M204.6,286V284h5.2v15.9l1.7,0.4v2.1h-6.7v-2.1l1.7-0.4v-13.5L204.6,286z"/>
</g>
<g class="st1">
	<path class="st2" d="M218.2,302.5c-1.8,0-3.3-0.6-4.4-1.8s-1.6-2.7-1.6-4.5v-0.5c0-1.9,0.5-3.4,1.6-4.7s2.4-1.8,4.2-1.8
		c1.7,0,3,0.5,4,1.5s1.4,2.4,1.4,4.2v1.9h-7.6l0,0.1c0.1,0.8,0.3,1.5,0.8,2.1s1.2,0.8,2,0.8c0.8,0,1.4-0.1,1.9-0.2s1-0.4,1.6-0.7
		l0.9,2.1c-0.5,0.4-1.2,0.8-2,1S219.3,302.5,218.2,302.5z M217.9,292c-0.6,0-1.1,0.2-1.5,0.7s-0.6,1.1-0.7,1.9l0,0.1h4.2v-0.3
		c0-0.7-0.2-1.3-0.5-1.7S218.6,292,217.9,292z"/>
</g>
<g class="st1">
	<path class="st2" d="M230.8,299.9c0.6,0,1.1-0.2,1.5-0.5s0.6-0.8,0.6-1.4h3.1l0,0.1c0,1.3-0.4,2.4-1.4,3.2s-2.2,1.3-3.7,1.3
		c-1.9,0-3.3-0.6-4.4-1.8s-1.5-2.7-1.5-4.6v-0.4c0-1.9,0.5-3.4,1.6-4.6s2.5-1.8,4.5-1.8c1,0,1.9,0.2,2.8,0.5s1.5,0.7,2,1.3l0,3.4
		H233l-0.6-2c-0.2-0.1-0.4-0.3-0.6-0.4s-0.5-0.1-0.9-0.1c-1,0-1.7,0.4-2.1,1.1s-0.6,1.6-0.6,2.7v0.4c0,1.1,0.2,2,0.6,2.7
		S229.9,299.9,230.8,299.9z"/>
</g>
<g class="st1">
	<path class="st2" d="M242.4,286.5v3.1h2.2v2.4h-2.2v6.5c0,0.5,0.1,0.8,0.3,1.1s0.5,0.3,0.8,0.3c0.2,0,0.4,0,0.6,0s0.4-0.1,0.6-0.1
		l0.3,2.5c-0.4,0.1-0.8,0.2-1.1,0.3s-0.8,0.1-1.2,0.1c-1.2,0-2.1-0.3-2.7-1s-1-1.7-1-3.1V292h-1.9v-2.4h1.9v-3.1H242.4z"/>
</g>
<g class="st1">
	<path class="st2" d="M256.3,293.9H254l-0.4-1.6c-0.2-0.2-0.5-0.3-0.9-0.5s-0.7-0.2-1.2-0.2c-0.6,0-1.1,0.1-1.4,0.4s-0.5,0.6-0.5,1
		c0,0.4,0.2,0.7,0.5,1s1,0.5,2,0.7c1.6,0.3,2.7,0.8,3.5,1.4s1.1,1.4,1.1,2.5c0,1.1-0.5,2.1-1.5,2.8s-2.3,1.1-3.9,1.1
		c-1,0-1.9-0.1-2.7-0.4s-1.5-0.7-2.2-1.2l0-2.8h2.4l0.5,1.7c0.2,0.2,0.5,0.3,0.8,0.4s0.7,0.1,1.1,0.1c0.7,0,1.2-0.1,1.6-0.4
		s0.5-0.6,0.5-1c0-0.4-0.2-0.7-0.6-1s-1-0.5-2-0.7c-1.5-0.3-2.6-0.8-3.4-1.4s-1.1-1.4-1.1-2.4c0-1.1,0.4-2,1.3-2.7s2.1-1.2,3.7-1.2
		c1,0,1.9,0.1,2.8,0.4s1.6,0.6,2.1,1L256.3,293.9z"/>
</g>
<g class="st1">
	<path class="st2" d="M273.2,286.5c-0.4-0.1-0.9-0.1-1.4-0.1c-0.9,0-1.5,0.2-2,0.7s-0.7,1.1-0.7,1.9v0.6h2.8v2.4h-2.8v7.9l1.7,0.4
		v2.1h-6.9v-2.1l1.8-0.4V292h-1.6v-2.4h1.6V289c0-1.7,0.5-3,1.5-3.9s2.5-1.4,4.3-1.4c0.7,0,1.3,0.1,2,0.2s1.4,0.3,2.3,0.5h2v15.4
		l1.7,0.4v2.1h-6.7v-2.1l1.7-0.4v-13.1C274.1,286.6,273.7,286.6,273.2,286.5z"/>
</g>
<g class="st1">
	<path class="st2" d="M289.2,300.6c-0.4,0.6-0.9,1.1-1.5,1.4s-1.3,0.5-2,0.5c-1.3,0-2.4-0.4-3.1-1.3s-1.1-2.2-1.1-4V292l-1.4-0.4
		v-2.1h1.4h3.4v7.7c0,0.9,0.2,1.6,0.5,2s0.8,0.6,1.4,0.6c0.5,0,1-0.1,1.4-0.3s0.7-0.4,1-0.8V292l-1.5-0.4v-2.1h1.5h3.4v10.3l1.5,0.4
		v2.1h-4.5L289.2,300.6z"/>
</g>
<g class="st1">
	<path class="st2" d="M295.2,300.2l1.7-0.4V292l-1.8-0.4v-2.1h5.2v10.3l1.6,0.4v2.1h-6.7V300.2z M300.3,286.5h-3.4V284h3.4V286.5z"
		/>
</g>
<g class="st1">
	<path class="st2" d="M311,300.7c-0.4,0.6-0.9,1-1.4,1.3s-1.2,0.5-1.9,0.5c-1.6,0-2.8-0.6-3.6-1.7s-1.3-2.6-1.3-4.5V296
		c0-2,0.4-3.6,1.3-4.8s2.1-1.8,3.7-1.8c0.6,0,1.2,0.1,1.7,0.4s1,0.7,1.3,1.2v-4.5L309,286V284h1.8h3.4v15.9l1.6,0.4v2.1h-4.6
		L311,300.7z M306.2,296.3c0,1.1,0.2,2,0.6,2.6s1,1,1.8,1c0.5,0,0.9-0.1,1.3-0.3s0.7-0.5,0.9-0.9v-5.4c-0.2-0.4-0.5-0.7-0.9-0.9
		s-0.8-0.3-1.3-0.3c-0.8,0-1.4,0.4-1.8,1.1s-0.6,1.7-0.6,2.9V296.3z"/>
</g>
<g class="st1">
	<path class="st2" d="M327.1,293.9h-2.3l-0.4-1.6c-0.2-0.2-0.5-0.3-0.9-0.5s-0.7-0.2-1.2-0.2c-0.6,0-1.1,0.1-1.4,0.4s-0.5,0.6-0.5,1
		c0,0.4,0.2,0.7,0.5,1s1,0.5,2,0.7c1.6,0.3,2.7,0.8,3.5,1.4s1.1,1.4,1.1,2.5c0,1.1-0.5,2.1-1.5,2.8s-2.3,1.1-3.9,1.1
		c-1,0-1.9-0.1-2.7-0.4s-1.5-0.7-2.2-1.2l0-2.8h2.4l0.5,1.7c0.2,0.2,0.5,0.3,0.8,0.4s0.7,0.1,1.1,0.1c0.7,0,1.2-0.1,1.6-0.4
		s0.5-0.6,0.5-1c0-0.4-0.2-0.7-0.6-1s-1-0.5-2-0.7c-1.5-0.3-2.6-0.8-3.4-1.4s-1.1-1.4-1.1-2.4c0-1.1,0.4-2,1.3-2.7s2.1-1.2,3.7-1.2
		c1,0,1.9,0.1,2.8,0.4s1.6,0.6,2.1,1L327.1,293.9z"/>
</g>
<g class="st1">
	<path class="st2" d="M343.1,302.2c-0.1-0.2-0.2-0.4-0.2-0.7s-0.1-0.4-0.2-0.7c-0.4,0.5-0.9,0.8-1.5,1.1s-1.2,0.4-2,0.4
		c-1.2,0-2.2-0.3-3-1s-1.1-1.6-1.1-2.8c0-1.2,0.5-2.1,1.4-2.8s2.4-1,4.2-1h1.7v-1.2c0-0.6-0.2-1.1-0.5-1.4s-0.9-0.5-1.6-0.5
		c-0.4,0-0.7,0-1,0.1s-0.6,0.2-0.7,0.3l-0.2,1.4h-2.6l0-2.8c0.6-0.4,1.3-0.8,2.2-1.1s1.7-0.4,2.6-0.4c1.6,0,2.8,0.4,3.8,1.2
		s1.5,1.9,1.5,3.3v5.2c0,0.2,0,0.4,0,0.6s0,0.3,0,0.5l1,0.1v2.1H343.1z M340.1,300c0.5,0,1-0.1,1.4-0.3s0.8-0.5,1-0.8v-1.9h-1.7
		c-0.7,0-1.3,0.2-1.7,0.5s-0.6,0.7-0.6,1.2c0,0.4,0.1,0.8,0.4,1S339.6,300,340.1,300z"/>
</g>
<g class="st1">
	<path class="st2" d="M348.2,300.2l1.6-0.4V292l-1.8-0.4v-2.1h5l0.2,1.8c0.4-0.6,0.9-1.2,1.6-1.5s1.3-0.5,2.1-0.5
		c1.3,0,2.3,0.4,3,1.2s1.1,2.1,1.1,3.8v5.5l1.6,0.4v2.1H356v-2.1l1.5-0.4v-5.5c0-0.9-0.2-1.5-0.5-1.8s-0.9-0.5-1.6-0.5
		c-0.5,0-0.9,0.1-1.2,0.3s-0.7,0.4-0.9,0.8v6.8l1.4,0.4v2.1h-6.4V300.2z"/>
</g>
<g class="st1">
	<path class="st2" d="M371.6,300.7c-0.4,0.6-0.9,1-1.4,1.3s-1.2,0.5-1.9,0.5c-1.6,0-2.8-0.6-3.6-1.7s-1.3-2.6-1.3-4.5V296
		c0-2,0.4-3.6,1.3-4.8s2.1-1.8,3.7-1.8c0.6,0,1.2,0.1,1.7,0.4s1,0.7,1.3,1.2v-4.5l-1.8-0.4V284h1.8h3.4v15.9l1.6,0.4v2.1h-4.6
		L371.6,300.7z M366.8,296.3c0,1.1,0.2,2,0.6,2.6s1,1,1.8,1c0.5,0,0.9-0.1,1.3-0.3s0.7-0.5,0.9-0.9v-5.4c-0.2-0.4-0.5-0.7-0.9-0.9
		s-0.8-0.3-1.3-0.3c-0.8,0-1.4,0.4-1.8,1.1s-0.6,1.7-0.6,2.9V296.3z"/>
</g>
<g class="st1">
	<path class="st2" d="M383.2,291.6v-2.1h5l0.2,1.5c0.4-0.5,0.8-1,1.3-1.3s1.1-0.4,1.8-0.4c1.6,0,2.8,0.6,3.7,1.8s1.3,2.8,1.3,4.8
		v0.2c0,1.9-0.4,3.4-1.3,4.5s-2.1,1.7-3.6,1.7c-0.7,0-1.3-0.1-1.8-0.4s-1-0.6-1.3-1.1v3.7l1.7,0.4v2.1h-6.7v-2.1l1.7-0.4V292
		L383.2,291.6z M393,296c0-1.2-0.2-2.2-0.6-2.9s-1-1.1-1.8-1.1c-0.5,0-1,0.1-1.3,0.3s-0.7,0.5-0.9,0.9v5.6c0.2,0.4,0.5,0.6,0.9,0.8
		s0.8,0.3,1.3,0.3c0.8,0,1.4-0.3,1.8-1s0.6-1.5,0.6-2.6V296z"/>
</g>
<g class="st1">
	<path class="st2" d="M397.8,300.2l1.6-0.4V292l-1.8-0.4v-2.1h5l0.2,1.9c0.3-0.7,0.7-1.2,1.1-1.5s1-0.6,1.6-0.6c0.2,0,0.4,0,0.6,0
		s0.4,0.1,0.5,0.1l-0.4,3.1l-1.4,0c-0.5,0-0.9,0.1-1.2,0.3s-0.6,0.5-0.8,0.8v6.2l1.6,0.4v2.1h-6.7V300.2z"/>
	<path class="st2" d="M413.2,302.5c-1.8,0-3.3-0.6-4.4-1.8s-1.6-2.7-1.6-4.5v-0.5c0-1.9,0.5-3.4,1.6-4.7s2.4-1.8,4.2-1.8
		c1.7,0,3,0.5,4,1.5s1.4,2.4,1.4,4.2v1.9h-7.6l0,0.1c0.1,0.8,0.3,1.5,0.8,2.1s1.2,0.8,2,0.8c0.8,0,1.4-0.1,1.9-0.2s1-0.4,1.6-0.7
		l0.9,2.1c-0.5,0.4-1.2,0.8-2,1S414.2,302.5,413.2,302.5z M412.9,292c-0.6,0-1.1,0.2-1.5,0.7s-0.6,1.1-0.7,1.9l0,0.1h4.2v-0.3
		c0-0.7-0.2-1.3-0.5-1.7S413.6,292,412.9,292z"/>
</g>
<g class="st1">
	<path class="st2" d="M425.1,291.6l-1.2,0.2l1.7,5.7l0.2,1.2h0.1l0.2-1.2l1.7-5.7l-1.2-0.2v-2.1h5.8v2.1l-1.1,0.2l-3.7,10.4h-3.3
		l-3.8-10.4l-1.1-0.2v-2.1h5.8V291.6z"/>
</g>
<g class="st1">
	<path class="st2" d="M439.1,302.5c-1.8,0-3.3-0.6-4.4-1.8s-1.6-2.7-1.6-4.5v-0.5c0-1.9,0.5-3.4,1.6-4.7s2.4-1.8,4.2-1.8
		c1.7,0,3,0.5,4,1.5s1.4,2.4,1.4,4.2v1.9h-7.6l0,0.1c0.1,0.8,0.3,1.5,0.8,2.1s1.2,0.8,2,0.8c0.8,0,1.4-0.1,1.9-0.2s1-0.4,1.6-0.7
		l0.9,2.1c-0.5,0.4-1.2,0.8-2,1S440.1,302.5,439.1,302.5z M438.8,292c-0.6,0-1.1,0.2-1.5,0.7s-0.6,1.1-0.7,1.9l0,0.1h4.2v-0.3
		c0-0.7-0.2-1.3-0.5-1.7S439.5,292,438.8,292z"/>
</g>
<g class="st1">
	<path class="st2" d="M445.4,300.2l1.6-0.4V292l-1.8-0.4v-2.1h5l0.2,1.8c0.4-0.6,0.9-1.2,1.6-1.5s1.3-0.5,2.1-0.5
		c1.3,0,2.3,0.4,3,1.2s1.1,2.1,1.1,3.8v5.5l1.6,0.4v2.1h-6.5v-2.1l1.5-0.4v-5.5c0-0.9-0.2-1.5-0.5-1.8s-0.9-0.5-1.6-0.5
		c-0.5,0-0.9,0.1-1.2,0.3s-0.7,0.4-0.9,0.8v6.8l1.4,0.4v2.1h-6.4V300.2z"/>
</g>
<g class="st1">
	<path class="st2" d="M465.2,286.5v3.1h2.2v2.4h-2.2v6.5c0,0.5,0.1,0.8,0.3,1.1s0.5,0.3,0.8,0.3c0.2,0,0.4,0,0.6,0s0.4-0.1,0.6-0.1
		l0.3,2.5c-0.4,0.1-0.8,0.2-1.1,0.3s-0.8,0.1-1.2,0.1c-1.2,0-2.1-0.3-2.7-1s-1-1.7-1-3.1V292h-1.9v-2.4h1.9v-3.1H465.2z"/>
</g>
<g class="st1">
	<path class="st2" d="M479.1,293.9h-2.3l-0.4-1.6c-0.2-0.2-0.5-0.3-0.9-0.5s-0.7-0.2-1.2-0.2c-0.6,0-1.1,0.1-1.4,0.4s-0.5,0.6-0.5,1
		c0,0.4,0.2,0.7,0.5,1s1,0.5,2,0.7c1.6,0.3,2.7,0.8,3.5,1.4s1.1,1.4,1.1,2.5c0,1.1-0.5,2.1-1.5,2.8s-2.3,1.1-3.9,1.1
		c-1,0-1.9-0.1-2.7-0.4s-1.5-0.7-2.2-1.2l0-2.8h2.4l0.5,1.7c0.2,0.2,0.5,0.3,0.8,0.4s0.7,0.1,1.1,0.1c0.7,0,1.2-0.1,1.6-0.4
		s0.5-0.6,0.5-1c0-0.4-0.2-0.7-0.6-1s-1-0.5-2-0.7c-1.5-0.3-2.6-0.8-3.4-1.4s-1.1-1.4-1.1-2.4c0-1.1,0.4-2,1.3-2.7s2.1-1.2,3.7-1.2
		c1,0,1.9,0.1,2.8,0.4s1.6,0.6,2.1,1L479.1,293.9z"/>
</g>
<g class="st1">
	<path class="st2" d="M134.2,315.3v3.1h2.2v2.4h-2.2v6.5c0,0.5,0.1,0.8,0.3,1.1s0.5,0.3,0.8,0.3c0.2,0,0.4,0,0.6,0s0.4-0.1,0.6-0.1
		l0.3,2.5c-0.4,0.1-0.8,0.2-1.1,0.3s-0.8,0.1-1.2,0.1c-1.2,0-2.1-0.3-2.7-1s-1-1.7-1-3.1v-6.5h-1.9v-2.4h1.9v-3.1H134.2z"/>
</g>
<g class="st1">
	<path class="st2" d="M138,329l1.7-0.4v-13.5l-1.8-0.4v-2.1h5.2v7.2c0.4-0.6,0.9-1,1.5-1.4s1.2-0.5,1.9-0.5c1.3,0,2.4,0.4,3.1,1.3
		s1.1,2.2,1.1,4.1v5.1l1.6,0.4v2.1h-6.5V329l1.5-0.4v-5.1c0-1-0.2-1.7-0.5-2.1s-0.9-0.6-1.6-0.6c-0.5,0-0.9,0.1-1.2,0.3
		s-0.7,0.4-0.9,0.7v6.9l1.5,0.4v2.1H138V329z"/>
</g>
<g class="st1">
	<path class="st2" d="M159.1,331.3c-1.8,0-3.3-0.6-4.4-1.8s-1.6-2.7-1.6-4.5v-0.5c0-1.9,0.5-3.4,1.6-4.7s2.4-1.8,4.2-1.8
		c1.7,0,3,0.5,4,1.5s1.4,2.4,1.4,4.2v1.9h-7.6l0,0.1c0.1,0.8,0.3,1.5,0.8,2.1s1.2,0.8,2,0.8c0.8,0,1.4-0.1,1.9-0.2s1-0.4,1.6-0.7
		l0.9,2.1c-0.5,0.4-1.2,0.8-2,1S160.1,331.3,159.1,331.3z M158.8,320.8c-0.6,0-1.1,0.2-1.5,0.7s-0.6,1.1-0.7,1.9l0,0.1h4.2v-0.3
		c0-0.7-0.2-1.3-0.5-1.7S159.5,320.8,158.8,320.8z"/>
</g>
<g class="st1">
	<path class="st2" d="M165.2,320.4v-2.1h5l0.1,1.7c0.4-0.6,0.9-1.1,1.5-1.4s1.3-0.5,2.1-0.5c0.8,0,1.5,0.2,2.1,0.5s1,0.9,1.3,1.6
		c0.4-0.7,0.9-1.2,1.5-1.6s1.4-0.6,2.2-0.6c1.2,0,2.2,0.4,3,1.3s1.1,2.2,1.1,3.9v5.3l1.7,0.4v2.1h-6.6V329l1.5-0.4v-5.3
		c0-1-0.2-1.6-0.5-2s-0.8-0.6-1.4-0.6c-0.5,0-0.9,0.1-1.3,0.3s-0.6,0.5-0.8,0.9c0,0.1,0,0.3,0,0.4s0,0.2,0,0.3v5.9l1.4,0.4v2.1H173
		V329l1.4-0.4v-5.3c0-0.9-0.2-1.6-0.5-2s-0.8-0.6-1.4-0.6c-0.5,0-0.9,0.1-1.2,0.3s-0.6,0.4-0.9,0.7v6.8l1.5,0.4v2.1h-6.5V329
		l1.7-0.4v-7.9L165.2,320.4z"/>
</g>
<g class="st1">
	<path class="st2" d="M194,329l1.7-0.4v-7.9h-1.9v-2.4h1.9V317c0-1.4,0.4-2.5,1.2-3.3s2-1.2,3.5-1.2c0.3,0,0.6,0,0.9,0.1
		s0.6,0.1,1,0.2l-0.3,2.5c-0.2,0-0.4-0.1-0.5-0.1s-0.4,0-0.6,0c-0.6,0-1,0.2-1.3,0.5s-0.4,0.7-0.4,1.3v1.4h2.5v2.4h-2.5v7.9l1.7,0.4
		v2.1H194V329z"/>
</g>
<g class="st1">
	<path class="st2" d="M203,329l1.6-0.4v-7.9l-1.8-0.4v-2.1h5l0.2,1.9c0.3-0.7,0.7-1.2,1.1-1.5s1-0.6,1.6-0.6c0.2,0,0.4,0,0.6,0
		s0.4,0.1,0.5,0.1l-0.4,3.1l-1.4,0c-0.5,0-0.9,0.1-1.2,0.3s-0.6,0.5-0.8,0.8v6.2l1.6,0.4v2.1H203V329z"/>
</g>
<g class="st1">
	<path class="st2" d="M212.6,324.6c0-1.9,0.5-3.4,1.6-4.6s2.5-1.8,4.4-1.8c1.9,0,3.3,0.6,4.4,1.8s1.6,2.8,1.6,4.7v0.2
		c0,1.9-0.5,3.5-1.6,4.7s-2.5,1.8-4.4,1.8c-1.9,0-3.4-0.6-4.4-1.8s-1.6-2.8-1.6-4.7V324.6z M216,324.8c0,1.2,0.2,2.1,0.6,2.8
		s1.1,1,2,1c0.9,0,1.5-0.4,1.9-1.1s0.6-1.6,0.6-2.8v-0.2c0-1.1-0.2-2-0.6-2.8s-1.1-1.1-2-1.1s-1.5,0.4-1.9,1.1s-0.6,1.6-0.6,2.8
		V324.8z"/>
</g>
<g class="st1">
	<path class="st2" d="M225.3,320.4v-2.1h5l0.1,1.7c0.4-0.6,0.9-1.1,1.5-1.4s1.3-0.5,2.1-0.5c0.8,0,1.5,0.2,2.1,0.5s1,0.9,1.3,1.6
		c0.4-0.7,0.9-1.2,1.5-1.6s1.4-0.6,2.2-0.6c1.2,0,2.2,0.4,3,1.3s1.1,2.2,1.1,3.9v5.3l1.7,0.4v2.1h-6.6V329l1.5-0.4v-5.3
		c0-1-0.2-1.6-0.5-2s-0.8-0.6-1.4-0.6c-0.5,0-0.9,0.1-1.3,0.3s-0.6,0.5-0.8,0.9c0,0.1,0,0.3,0,0.4s0,0.2,0,0.3v5.9l1.4,0.4v2.1h-6.2
		V329l1.4-0.4v-5.3c0-0.9-0.2-1.6-0.5-2s-0.8-0.6-1.4-0.6c-0.5,0-0.9,0.1-1.2,0.3s-0.6,0.4-0.9,0.7v6.8l1.5,0.4v2.1h-6.5V329
		l1.7-0.4v-7.9L225.3,320.4z"/>
</g>
<g class="st1">
	<path class="st2" d="M260,331.3c-1.8,0-3.3-0.6-4.4-1.8s-1.6-2.7-1.6-4.5v-0.5c0-1.9,0.5-3.4,1.6-4.7s2.4-1.8,4.2-1.8
		c1.7,0,3,0.5,4,1.5s1.4,2.4,1.4,4.2v1.9h-7.6l0,0.1c0.1,0.8,0.3,1.5,0.8,2.1s1.2,0.8,2,0.8c0.8,0,1.4-0.1,1.9-0.2s1-0.4,1.6-0.7
		l0.9,2.1c-0.5,0.4-1.2,0.8-2,1S261,331.3,260,331.3z M259.7,320.8c-0.6,0-1.1,0.2-1.5,0.7s-0.6,1.1-0.7,1.9l0,0.1h4.2v-0.3
		c0-0.7-0.2-1.3-0.5-1.7S260.4,320.8,259.7,320.8z"/>
</g>
<g class="st1">
	<path class="st2" d="M266.3,329l1.6-0.4v-7.9l-1.8-0.4v-2.1h5l0.2,1.8c0.4-0.6,0.9-1.2,1.6-1.5s1.3-0.5,2.1-0.5
		c1.3,0,2.3,0.4,3,1.2s1.1,2.1,1.1,3.8v5.5l1.6,0.4v2.1h-6.5V329l1.5-0.4v-5.5c0-0.9-0.2-1.5-0.5-1.8s-0.9-0.5-1.6-0.5
		c-0.5,0-0.9,0.1-1.2,0.3s-0.7,0.4-0.9,0.8v6.8l1.4,0.4v2.1h-6.4V329z"/>
</g>
<g class="st1">
	<path class="st2" d="M286.1,315.3v3.1h2.2v2.4h-2.2v6.5c0,0.5,0.1,0.8,0.3,1.1s0.5,0.3,0.8,0.3c0.2,0,0.4,0,0.6,0s0.4-0.1,0.6-0.1
		l0.3,2.5c-0.4,0.1-0.8,0.2-1.1,0.3s-0.8,0.1-1.2,0.1c-1.2,0-2.1-0.3-2.7-1s-1-1.7-1-3.1v-6.5h-1.9v-2.4h1.9v-3.1H286.1z"/>
</g>
<g class="st1">
	<path class="st2" d="M295.6,331.3c-1.8,0-3.3-0.6-4.4-1.8s-1.6-2.7-1.6-4.5v-0.5c0-1.9,0.5-3.4,1.6-4.7s2.4-1.8,4.2-1.8
		c1.7,0,3,0.5,4,1.5s1.4,2.4,1.4,4.2v1.9h-7.6l0,0.1c0.1,0.8,0.3,1.5,0.8,2.1s1.2,0.8,2,0.8c0.8,0,1.4-0.1,1.9-0.2s1-0.4,1.6-0.7
		l0.9,2.1c-0.5,0.4-1.2,0.8-2,1S296.6,331.3,295.6,331.3z M295.3,320.8c-0.6,0-1.1,0.2-1.5,0.7s-0.6,1.1-0.7,1.9l0,0.1h4.2v-0.3
		c0-0.7-0.2-1.3-0.5-1.7S296,320.8,295.3,320.8z"/>
</g>
<g class="st1">
	<path class="st2" d="M302.1,329l1.6-0.4v-7.9l-1.8-0.4v-2.1h5l0.2,1.9c0.3-0.7,0.7-1.2,1.1-1.5s1-0.6,1.6-0.6c0.2,0,0.4,0,0.6,0
		s0.4,0.1,0.5,0.1l-0.4,3.1l-1.4,0c-0.5,0-0.9,0.1-1.2,0.3s-0.6,0.5-0.8,0.8v6.2l1.6,0.4v2.1h-6.7V329z"/>
</g>
<g class="st1">
	<path class="st2" d="M312.1,329l1.7-0.4v-7.9l-1.8-0.4v-2.1h5.2v10.3l1.6,0.4v2.1h-6.7V329z M317.2,315.3h-3.4v-2.6h3.4V315.3z"/>
</g>
<g class="st1">
	<path class="st2" d="M320,329l1.6-0.4v-7.9l-1.8-0.4v-2.1h5l0.2,1.8c0.4-0.6,0.9-1.2,1.6-1.5s1.3-0.5,2.1-0.5c1.3,0,2.3,0.4,3,1.2
		s1.1,2.1,1.1,3.8v5.5l1.6,0.4v2.1h-6.5V329l1.5-0.4v-5.5c0-0.9-0.2-1.5-0.5-1.8s-0.9-0.5-1.6-0.5c-0.5,0-0.9,0.1-1.2,0.3
		s-0.7,0.4-0.9,0.8v6.8l1.4,0.4v2.1H320V329z"/>
</g>
<g class="st1">
	<path class="st2" d="M335.2,324.8c0-2,0.4-3.6,1.3-4.8s2.1-1.8,3.7-1.8c0.7,0,1.3,0.2,1.9,0.5s1,0.8,1.4,1.4l0.2-1.6h3v12.3
		c0,1.7-0.5,3-1.6,4s-2.5,1.5-4.3,1.5c-0.6,0-1.3-0.1-2-0.3s-1.4-0.4-2-0.7l0.6-2.4c0.5,0.2,1.1,0.4,1.6,0.6s1.1,0.2,1.7,0.2
		c0.8,0,1.5-0.3,1.9-0.8s0.6-1.2,0.6-2.1v-0.8c-0.4,0.5-0.8,0.8-1.3,1.1s-1.1,0.4-1.7,0.4c-1.6,0-2.8-0.6-3.6-1.7s-1.3-2.7-1.3-4.5
		V324.8z M338.7,325.1c0,1.1,0.2,2,0.6,2.6s1,1,1.8,1c0.5,0,1-0.1,1.3-0.3s0.7-0.5,0.9-0.8V322c-0.2-0.4-0.5-0.7-0.9-0.9
		s-0.8-0.3-1.3-0.3c-0.8,0-1.4,0.4-1.8,1.1s-0.6,1.7-0.6,2.9V325.1z"/>
</g>
<g class="st1">
	<path class="st2" d="M359.7,315.3v3.1h2.2v2.4h-2.2v6.5c0,0.5,0.1,0.8,0.3,1.1s0.5,0.3,0.8,0.3c0.2,0,0.4,0,0.6,0s0.4-0.1,0.6-0.1
		l0.3,2.5c-0.4,0.1-0.8,0.2-1.1,0.3s-0.8,0.1-1.2,0.1c-1.2,0-2.1-0.3-2.7-1s-1-1.7-1-3.1v-6.5h-1.9v-2.4h1.9v-3.1H359.7z"/>
</g>
<g class="st1">
	<path class="st2" d="M363.5,329l1.7-0.4v-13.5l-1.8-0.4v-2.1h5.2v7.2c0.4-0.6,0.9-1,1.5-1.4s1.2-0.5,1.9-0.5c1.3,0,2.4,0.4,3.1,1.3
		s1.1,2.2,1.1,4.1v5.1l1.6,0.4v2.1h-6.5V329l1.5-0.4v-5.1c0-1-0.2-1.7-0.5-2.1s-0.9-0.6-1.6-0.6c-0.5,0-0.9,0.1-1.2,0.3
		s-0.7,0.4-0.9,0.7v6.9l1.5,0.4v2.1h-6.5V329z"/>
</g>
<g class="st1">
	<path class="st2" d="M384.6,331.3c-1.8,0-3.3-0.6-4.4-1.8s-1.6-2.7-1.6-4.5v-0.5c0-1.9,0.5-3.4,1.6-4.7s2.4-1.8,4.2-1.8
		c1.7,0,3,0.5,4,1.5s1.4,2.4,1.4,4.2v1.9h-7.6l0,0.1c0.1,0.8,0.3,1.5,0.8,2.1s1.2,0.8,2,0.8c0.8,0,1.4-0.1,1.9-0.2s1-0.4,1.6-0.7
		l0.9,2.1c-0.5,0.4-1.2,0.8-2,1S385.7,331.3,384.6,331.3z M384.3,320.8c-0.6,0-1.1,0.2-1.5,0.7s-0.6,1.1-0.7,1.9l0,0.1h4.2v-0.3
		c0-0.7-0.2-1.3-0.5-1.7S385,320.8,384.3,320.8z"/>
</g>
<g class="st1">
	<path class="st2" d="M409.5,325.1c0,1.9-0.4,3.4-1.3,4.5s-2.1,1.7-3.7,1.7c-0.7,0-1.4-0.2-1.9-0.5s-1-0.8-1.4-1.3L401,331h-3v-15.9
		l-1.8-0.4v-2.1h5.2v6.9c0.4-0.5,0.8-0.9,1.3-1.2s1.1-0.4,1.8-0.4c1.6,0,2.8,0.6,3.7,1.8s1.3,2.8,1.3,4.9V325.1z M406.1,324.8
		c0-1.2-0.2-2.2-0.5-2.9s-1-1.1-1.9-1.1c-0.5,0-1,0.1-1.3,0.3s-0.7,0.5-0.9,1v5.4c0.2,0.4,0.5,0.7,0.9,0.9s0.8,0.3,1.4,0.3
		c0.9,0,1.5-0.3,1.9-0.9s0.5-1.5,0.5-2.6V324.8z"/>
</g>
<g class="st1">
	<path class="st2" d="M411,324.6c0-1.9,0.5-3.4,1.6-4.6s2.5-1.8,4.4-1.8c1.9,0,3.3,0.6,4.4,1.8s1.6,2.8,1.6,4.7v0.2
		c0,1.9-0.5,3.5-1.6,4.7s-2.5,1.8-4.4,1.8c-1.9,0-3.4-0.6-4.4-1.8s-1.6-2.8-1.6-4.7V324.6z M414.4,324.8c0,1.2,0.2,2.1,0.6,2.8
		s1.1,1,2,1c0.9,0,1.5-0.4,1.9-1.1s0.6-1.6,0.6-2.8v-0.2c0-1.1-0.2-2-0.6-2.8s-1.1-1.1-2-1.1s-1.5,0.4-1.9,1.1s-0.6,1.6-0.6,2.8
		V324.8z"/>
</g>
<g class="st1">
	<path class="st2" d="M432.6,329.5c-0.4,0.6-0.9,1-1.4,1.3s-1.2,0.5-1.9,0.5c-1.6,0-2.8-0.6-3.6-1.7s-1.3-2.6-1.3-4.5v-0.2
		c0-2,0.4-3.6,1.3-4.8s2.1-1.8,3.7-1.8c0.6,0,1.2,0.1,1.7,0.4s1,0.7,1.3,1.2v-4.5l-1.8-0.4v-2.1h1.8h3.4v15.9l1.6,0.4v2.1h-4.6
		L432.6,329.5z M427.8,325.1c0,1.1,0.2,2,0.6,2.6s1,1,1.8,1c0.5,0,0.9-0.1,1.3-0.3s0.7-0.5,0.9-0.9v-5.4c-0.2-0.4-0.5-0.7-0.9-0.9
		s-0.8-0.3-1.3-0.3c-0.8,0-1.4,0.4-1.8,1.1s-0.6,1.7-0.6,2.9V325.1z"/>
</g>
<g class="st1">
	<path class="st2" d="M451.2,320.4l-1.2,0.2l-4.7,12.3c-0.4,0.9-0.9,1.7-1.5,2.3s-1.5,0.9-2.8,0.9c-0.3,0-0.6,0-0.8-0.1
		s-0.6-0.1-0.9-0.2l0.4-2.5c0.1,0,0.2,0,0.3,0s0.2,0,0.3,0c0.6,0,1-0.1,1.3-0.4s0.5-0.6,0.7-1l0.4-1l-4-10.4l-1.2-0.2v-2.1h6.2v2.1
		l-1.4,0.2l1.7,5.1l0.2,0.9l0.1,0l2-6l-1.4-0.2v-2.1h6.2V320.4z"/>
</g>
<g class="st1">
	<path class="st2" d="M454.6,331h-3.4v-3h3.4V331z"/>
</g>
<g class="st1">
	<path class="st2" d="M149,373.7v-2.1h7.1v2.1l-1.8,0.4v12.2l1.8,0.4v2.1H149v-2.1l1.8-0.4V374L149,373.7z"/>
</g>
<g class="st1">
	<path class="st2" d="M157.3,386.6l1.6-0.4v-7.9l-1.8-0.4V376h5l0.2,1.8c0.4-0.6,0.9-1.2,1.6-1.5s1.3-0.5,2.1-0.5
		c1.3,0,2.3,0.4,3,1.2s1.1,2.1,1.1,3.8v5.5l1.6,0.4v2.1h-6.5v-2.1l1.5-0.4v-5.5c0-0.9-0.2-1.5-0.5-1.8s-0.9-0.5-1.6-0.5
		c-0.5,0-0.9,0.1-1.2,0.3s-0.7,0.4-0.9,0.8v6.8l1.4,0.4v2.1h-6.4V386.6z"/>
</g>
<g class="st1">
	<path class="st2" d="M177.1,372.9v3.1h2.2v2.4h-2.2v6.5c0,0.5,0.1,0.8,0.3,1.1s0.5,0.3,0.8,0.3c0.2,0,0.4,0,0.6,0s0.4-0.1,0.6-0.1
		l0.3,2.5c-0.4,0.1-0.8,0.2-1.1,0.3s-0.8,0.1-1.2,0.1c-1.2,0-2.1-0.3-2.7-1s-1-1.7-1-3.1v-6.5h-1.9V376h1.9v-3.1H177.1z"/>
</g>
<g class="st1">
	<path class="st2" d="M186.6,388.9c-1.8,0-3.3-0.6-4.4-1.8s-1.6-2.7-1.6-4.5v-0.5c0-1.9,0.5-3.4,1.6-4.7s2.4-1.8,4.2-1.8
		c1.7,0,3,0.5,4,1.5s1.4,2.4,1.4,4.2v1.9h-7.6l0,0.1c0.1,0.8,0.3,1.5,0.8,2.1s1.2,0.8,2,0.8c0.8,0,1.4-0.1,1.9-0.2s1-0.4,1.6-0.7
		l0.9,2.1c-0.5,0.4-1.2,0.8-2,1S187.6,388.9,186.6,388.9z M186.3,378.4c-0.6,0-1.1,0.2-1.5,0.7s-0.6,1.1-0.7,1.9l0,0.1h4.2v-0.3
		c0-0.7-0.2-1.3-0.5-1.7S187,378.4,186.3,378.4z"/>
</g>
<g class="st1">
	<path class="st2" d="M193.1,386.6l1.6-0.4v-7.9l-1.8-0.4V376h5l0.2,1.9c0.3-0.7,0.7-1.2,1.1-1.5s1-0.6,1.6-0.6c0.2,0,0.4,0,0.6,0
		s0.4,0.1,0.5,0.1l-0.4,3.1l-1.4,0c-0.5,0-0.9,0.1-1.2,0.3s-0.6,0.5-0.8,0.8v6.2l1.6,0.4v2.1h-6.7V386.6z"/>
</g>
<g class="st1">
	<path class="st2" d="M203.1,386.6l1.6-0.4v-7.9l-1.8-0.4V376h5l0.2,1.8c0.4-0.6,0.9-1.2,1.6-1.5s1.3-0.5,2.1-0.5
		c1.3,0,2.3,0.4,3,1.2s1.1,2.1,1.1,3.8v5.5l1.6,0.4v2.1h-6.5v-2.1l1.5-0.4v-5.5c0-0.9-0.2-1.5-0.5-1.8s-0.9-0.5-1.6-0.5
		c-0.5,0-0.9,0.1-1.2,0.3s-0.7,0.4-0.9,0.8v6.8l1.4,0.4v2.1h-6.4V386.6z"/>
</g>
<g class="st1">
	<path class="st2" d="M226.6,388.7c-0.1-0.2-0.2-0.4-0.2-0.7s-0.1-0.4-0.2-0.7c-0.4,0.5-0.9,0.8-1.5,1.1s-1.2,0.4-2,0.4
		c-1.2,0-2.2-0.3-3-1s-1.1-1.6-1.1-2.8c0-1.2,0.5-2.1,1.4-2.8s2.4-1,4.2-1h1.7v-1.2c0-0.6-0.2-1.1-0.5-1.4s-0.9-0.5-1.6-0.5
		c-0.4,0-0.7,0-1,0.1s-0.6,0.2-0.7,0.3l-0.2,1.4h-2.6l0-2.8c0.6-0.4,1.3-0.8,2.2-1.1s1.7-0.4,2.6-0.4c1.6,0,2.8,0.4,3.8,1.2
		s1.5,1.9,1.5,3.3v5.2c0,0.2,0,0.4,0,0.6s0,0.3,0,0.5l1,0.1v2.1H226.6z M223.6,386.4c0.5,0,1-0.1,1.4-0.3s0.8-0.5,1-0.8v-1.9h-1.7
		c-0.7,0-1.3,0.2-1.7,0.5s-0.6,0.7-0.6,1.2c0,0.4,0.1,0.8,0.4,1S223.1,386.4,223.6,386.4z"/>
</g>
<g class="st1">
	<path class="st2" d="M231.5,372.4v-2.1h5.2v15.9l1.7,0.4v2.1h-6.7v-2.1l1.7-0.4v-13.5L231.5,372.4z"/>
</g>
<g class="st1">
	<path class="st2" d="M251.4,386.3c0.6,0,1.1-0.2,1.5-0.5s0.6-0.8,0.6-1.4h3.1l0,0.1c0,1.3-0.4,2.4-1.4,3.2s-2.2,1.3-3.7,1.3
		c-1.9,0-3.3-0.6-4.4-1.8s-1.5-2.7-1.5-4.6v-0.4c0-1.9,0.5-3.4,1.6-4.6s2.5-1.8,4.5-1.8c1,0,1.9,0.2,2.8,0.5s1.5,0.7,2,1.3l0,3.4
		h-2.8l-0.6-2c-0.2-0.1-0.4-0.3-0.6-0.4s-0.5-0.1-0.9-0.1c-1,0-1.7,0.4-2.1,1.1s-0.6,1.6-0.6,2.7v0.4c0,1.1,0.2,2,0.6,2.7
		S250.4,386.3,251.4,386.3z"/>
</g>
<g class="st1">
	<path class="st2" d="M257.9,382.2c0-1.9,0.5-3.4,1.6-4.6s2.5-1.8,4.4-1.8c1.9,0,3.3,0.6,4.4,1.8s1.6,2.8,1.6,4.7v0.2
		c0,1.9-0.5,3.5-1.6,4.7s-2.5,1.8-4.4,1.8c-1.9,0-3.4-0.6-4.4-1.8s-1.6-2.8-1.6-4.7V382.2z M261.3,382.4c0,1.2,0.2,2.1,0.6,2.8
		s1.1,1,2,1c0.9,0,1.5-0.4,1.9-1.1s0.6-1.6,0.6-2.8v-0.2c0-1.1-0.2-2-0.6-2.8s-1.1-1.1-2-1.1s-1.5,0.4-1.9,1.1s-0.6,1.6-0.6,2.8
		V382.4z"/>
</g>
<g class="st1">
	<path class="st2" d="M270.8,386.6l1.6-0.4v-7.9l-1.8-0.4V376h5l0.2,1.8c0.4-0.6,0.9-1.2,1.6-1.5s1.3-0.5,2.1-0.5
		c1.3,0,2.3,0.4,3,1.2s1.1,2.1,1.1,3.8v5.5l1.6,0.4v2.1h-6.5v-2.1l1.5-0.4v-5.5c0-0.9-0.2-1.5-0.5-1.8s-0.9-0.5-1.6-0.5
		c-0.5,0-0.9,0.1-1.2,0.3s-0.7,0.4-0.9,0.8v6.8l1.4,0.4v2.1h-6.4V386.6z"/>
</g>
<g class="st1">
	<path class="st2" d="M294.2,387.1c-0.4,0.6-0.9,1-1.4,1.3s-1.2,0.5-1.9,0.5c-1.6,0-2.8-0.6-3.6-1.7s-1.3-2.6-1.3-4.5v-0.2
		c0-2,0.4-3.6,1.3-4.8s2.1-1.8,3.7-1.8c0.6,0,1.2,0.1,1.7,0.4s1,0.7,1.3,1.2v-4.5l-1.8-0.4v-2.1h1.8h3.4v15.9l1.6,0.4v2.1h-4.6
		L294.2,387.1z M289.4,382.7c0,1.1,0.2,2,0.6,2.6s1,1,1.8,1c0.5,0,0.9-0.1,1.3-0.3s0.7-0.5,0.9-0.9v-5.4c-0.2-0.4-0.5-0.7-0.9-0.9
		s-0.8-0.3-1.3-0.3c-0.8,0-1.4,0.4-1.8,1.1s-0.6,1.7-0.6,2.9V382.7z"/>
</g>
<g class="st1">
	<path class="st2" d="M299.8,382.2c0-1.9,0.5-3.4,1.6-4.6s2.5-1.8,4.4-1.8c1.9,0,3.3,0.6,4.4,1.8s1.6,2.8,1.6,4.7v0.2
		c0,1.9-0.5,3.5-1.6,4.7s-2.5,1.8-4.4,1.8c-1.9,0-3.4-0.6-4.4-1.8s-1.6-2.8-1.6-4.7V382.2z M303.2,382.4c0,1.2,0.2,2.1,0.6,2.8
		s1.1,1,2,1c0.9,0,1.5-0.4,1.9-1.1s0.6-1.6,0.6-2.8v-0.2c0-1.1-0.2-2-0.6-2.8s-1.1-1.1-2-1.1s-1.5,0.4-1.9,1.1s-0.6,1.6-0.6,2.8
		V382.4z"/>
</g>
<g class="st1">
	<path class="st2" d="M312.5,378V376h5l0.1,1.7c0.4-0.6,0.9-1.1,1.5-1.4s1.3-0.5,2.1-0.5c0.8,0,1.5,0.2,2.1,0.5s1,0.9,1.3,1.6
		c0.4-0.7,0.9-1.2,1.5-1.6s1.4-0.6,2.2-0.6c1.2,0,2.2,0.4,3,1.3s1.1,2.2,1.1,3.9v5.3l1.7,0.4v2.1h-6.6v-2.1l1.5-0.4V381
		c0-1-0.2-1.6-0.5-2s-0.8-0.6-1.4-0.6c-0.5,0-0.9,0.1-1.3,0.3s-0.6,0.5-0.8,0.9c0,0.1,0,0.3,0,0.4s0,0.2,0,0.3v5.9l1.4,0.4v2.1h-6.2
		v-2.1l1.4-0.4V381c0-0.9-0.2-1.6-0.5-2s-0.8-0.6-1.4-0.6c-0.5,0-0.9,0.1-1.2,0.3s-0.6,0.4-0.9,0.7v6.8l1.5,0.4v2.1h-6.5v-2.1
		l1.7-0.4v-7.9L312.5,378z"/>
</g>
<g class="st1">
	<path class="st2" d="M345.4,380.3h-2.3l-0.4-1.6c-0.2-0.2-0.5-0.3-0.9-0.5s-0.7-0.2-1.2-0.2c-0.6,0-1.1,0.1-1.4,0.4s-0.5,0.6-0.5,1
		c0,0.4,0.2,0.7,0.5,1s1,0.5,2,0.7c1.6,0.3,2.7,0.8,3.5,1.4s1.1,1.4,1.1,2.5c0,1.1-0.5,2.1-1.5,2.8s-2.3,1.1-3.9,1.1
		c-1,0-1.9-0.1-2.7-0.4s-1.5-0.7-2.2-1.2l0-2.8h2.4l0.5,1.7c0.2,0.2,0.5,0.3,0.8,0.4s0.7,0.1,1.1,0.1c0.7,0,1.2-0.1,1.6-0.4
		s0.5-0.6,0.5-1c0-0.4-0.2-0.7-0.6-1s-1-0.5-2-0.7c-1.5-0.3-2.6-0.8-3.4-1.4s-1.1-1.4-1.1-2.4c0-1.1,0.4-2,1.3-2.7s2.1-1.2,3.7-1.2
		c1,0,1.9,0.1,2.8,0.4s1.6,0.6,2.1,1L345.4,380.3z"/>
</g>
<g class="st1">
	<path class="st2" d="M361.4,388.7c-0.1-0.2-0.2-0.4-0.2-0.7s-0.1-0.4-0.2-0.7c-0.4,0.5-0.9,0.8-1.5,1.1s-1.2,0.4-2,0.4
		c-1.2,0-2.2-0.3-3-1s-1.1-1.6-1.1-2.8c0-1.2,0.5-2.1,1.4-2.8s2.4-1,4.2-1h1.7v-1.2c0-0.6-0.2-1.1-0.5-1.4s-0.9-0.5-1.6-0.5
		c-0.4,0-0.7,0-1,0.1s-0.6,0.2-0.7,0.3l-0.2,1.4h-2.6l0-2.8c0.6-0.4,1.3-0.8,2.2-1.1s1.7-0.4,2.6-0.4c1.6,0,2.8,0.4,3.8,1.2
		s1.5,1.9,1.5,3.3v5.2c0,0.2,0,0.4,0,0.6s0,0.3,0,0.5l1,0.1v2.1H361.4z M358.4,386.4c0.5,0,1-0.1,1.4-0.3s0.8-0.5,1-0.8v-1.9h-1.7
		c-0.7,0-1.3,0.2-1.7,0.5s-0.6,0.7-0.6,1.2c0,0.4,0.1,0.8,0.4,1S357.9,386.4,358.4,386.4z"/>
</g>
<g class="st1">
	<path class="st2" d="M366.7,386.6l1.6-0.4v-7.9l-1.8-0.4V376h5l0.2,1.9c0.3-0.7,0.7-1.2,1.1-1.5s1-0.6,1.6-0.6c0.2,0,0.4,0,0.6,0
		s0.4,0.1,0.5,0.1l-0.4,3.1l-1.4,0c-0.5,0-0.9,0.1-1.2,0.3s-0.6,0.5-0.8,0.8v6.2l1.6,0.4v2.1h-6.7V386.6z"/>
</g>
<g class="st1">
	<path class="st2" d="M382.3,388.9c-1.8,0-3.3-0.6-4.4-1.8s-1.6-2.7-1.6-4.5v-0.5c0-1.9,0.5-3.4,1.6-4.7s2.4-1.8,4.2-1.8
		c1.7,0,3,0.5,4,1.5s1.4,2.4,1.4,4.2v1.9h-7.6l0,0.1c0.1,0.8,0.3,1.5,0.8,2.1s1.2,0.8,2,0.8c0.8,0,1.4-0.1,1.9-0.2s1-0.4,1.6-0.7
		l0.9,2.1c-0.5,0.4-1.2,0.8-2,1S383.3,388.9,382.3,388.9z M382,378.4c-0.6,0-1.1,0.2-1.5,0.7s-0.6,1.1-0.7,1.9l0,0.1h4.2v-0.3
		c0-0.7-0.2-1.3-0.5-1.7S382.7,378.4,382,378.4z"/>
</g>
<g class="st1">
	<path class="st2" d="M394.8,386.6l1.7-0.4v-7.9l-1.8-0.4V376h5.2v10.3l1.6,0.4v2.1h-6.7V386.6z M399.8,372.9h-3.4v-2.6h3.4V372.9z"
		/>
</g>
<g class="st1">
	<path class="st2" d="M410.6,387.1c-0.4,0.6-0.9,1-1.4,1.3s-1.2,0.5-1.9,0.5c-1.6,0-2.8-0.6-3.6-1.7s-1.3-2.6-1.3-4.5v-0.2
		c0-2,0.4-3.6,1.3-4.8s2.1-1.8,3.7-1.8c0.6,0,1.2,0.1,1.7,0.4s1,0.7,1.3,1.2v-4.5l-1.8-0.4v-2.1h1.8h3.4v15.9l1.6,0.4v2.1h-4.6
		L410.6,387.1z M405.8,382.7c0,1.1,0.2,2,0.6,2.6s1,1,1.8,1c0.5,0,0.9-0.1,1.3-0.3s0.7-0.5,0.9-0.9v-5.4c-0.2-0.4-0.5-0.7-0.9-0.9
		s-0.8-0.3-1.3-0.3c-0.8,0-1.4,0.4-1.8,1.1s-0.6,1.7-0.6,2.9V382.7z"/>
</g>
<g class="st1">
	<path class="st2" d="M422.2,388.9c-1.8,0-3.3-0.6-4.4-1.8s-1.6-2.7-1.6-4.5v-0.5c0-1.9,0.5-3.4,1.6-4.7s2.4-1.8,4.2-1.8
		c1.7,0,3,0.5,4,1.5s1.4,2.4,1.4,4.2v1.9h-7.6l0,0.1c0.1,0.8,0.3,1.5,0.8,2.1s1.2,0.8,2,0.8c0.8,0,1.4-0.1,1.9-0.2s1-0.4,1.6-0.7
		l0.9,2.1c-0.5,0.4-1.2,0.8-2,1S423.2,388.9,422.2,388.9z M421.9,378.4c-0.6,0-1.1,0.2-1.5,0.7s-0.6,1.1-0.7,1.9l0,0.1h4.2v-0.3
		c0-0.7-0.2-1.3-0.5-1.7S422.6,378.4,421.9,378.4z"/>
</g>
<g class="st1">
	<path class="st2" d="M436.7,388.7c-0.1-0.2-0.2-0.4-0.2-0.7s-0.1-0.4-0.2-0.7c-0.4,0.5-0.9,0.8-1.5,1.1s-1.2,0.4-2,0.4
		c-1.2,0-2.2-0.3-3-1s-1.1-1.6-1.1-2.8c0-1.2,0.5-2.1,1.4-2.8s2.4-1,4.2-1h1.7v-1.2c0-0.6-0.2-1.1-0.5-1.4s-0.9-0.5-1.6-0.5
		c-0.4,0-0.7,0-1,0.1s-0.6,0.2-0.7,0.3L432,380h-2.6l0-2.8c0.6-0.4,1.3-0.8,2.2-1.1s1.7-0.4,2.6-0.4c1.6,0,2.8,0.4,3.8,1.2
		s1.5,1.9,1.5,3.3v5.2c0,0.2,0,0.4,0,0.6s0,0.3,0,0.5l1,0.1v2.1H436.7z M433.7,386.4c0.5,0,1-0.1,1.4-0.3s0.8-0.5,1-0.8v-1.9h-1.7
		c-0.7,0-1.3,0.2-1.7,0.5s-0.6,0.7-0.6,1.2c0,0.4,0.1,0.8,0.4,1S433.3,386.4,433.7,386.4z"/>
</g>
<g class="st1">
	<path class="st2" d="M441.6,372.4v-2.1h5.2v15.9l1.7,0.4v2.1h-6.7v-2.1l1.7-0.4v-13.5L441.6,372.4z"/>
</g>
<g class="st1">
	<path class="st2" d="M129.3,415.4l1.7-0.4v-7.9h-1.9v-2.4h1.9v-1.4c0-1.4,0.4-2.5,1.2-3.3s2-1.2,3.5-1.2c0.3,0,0.6,0,0.9,0.1
		s0.6,0.1,1,0.2l-0.3,2.5c-0.2,0-0.4-0.1-0.5-0.1s-0.4,0-0.6,0c-0.6,0-1,0.2-1.3,0.5s-0.4,0.7-0.4,1.3v1.4h2.5v2.4h-2.5v7.9l1.7,0.4
		v2.1h-6.7V415.4z"/>
</g>
<g class="st1">
	<path class="st2" d="M137.7,411c0-1.9,0.5-3.4,1.6-4.6s2.5-1.8,4.4-1.8c1.9,0,3.3,0.6,4.4,1.8s1.6,2.8,1.6,4.7v0.2
		c0,1.9-0.5,3.5-1.6,4.7s-2.5,1.8-4.4,1.8c-1.9,0-3.4-0.6-4.4-1.8s-1.6-2.8-1.6-4.7V411z M141.2,411.2c0,1.2,0.2,2.1,0.6,2.8
		s1.1,1,2,1c0.9,0,1.5-0.4,1.9-1.1s0.6-1.6,0.6-2.8V411c0-1.1-0.2-2-0.6-2.8s-1.1-1.1-2-1.1s-1.5,0.4-1.9,1.1s-0.6,1.6-0.6,2.8
		V411.2z"/>
</g>
<g class="st1">
	<path class="st2" d="M150.9,415.4l1.6-0.4v-7.9l-1.8-0.4v-2.1h5l0.2,1.9c0.3-0.7,0.7-1.2,1.1-1.5s1-0.6,1.6-0.6c0.2,0,0.4,0,0.6,0
		s0.4,0.1,0.5,0.1l-0.4,3.1l-1.4,0c-0.5,0-0.9,0.1-1.2,0.3s-0.6,0.5-0.8,0.8v6.2l1.6,0.4v2.1h-6.7V415.4z"/>
</g>
<g class="st1">
	<path class="st2" d="M166.3,406.8v-2.1h5l0.2,1.5c0.4-0.5,0.8-1,1.3-1.3s1.1-0.4,1.8-0.4c1.6,0,2.8,0.6,3.7,1.8s1.3,2.8,1.3,4.8
		v0.2c0,1.9-0.4,3.4-1.3,4.5s-2.1,1.7-3.6,1.7c-0.7,0-1.3-0.1-1.8-0.4s-1-0.6-1.3-1.1v3.7l1.7,0.4v2.1h-6.7v-2.1l1.7-0.4v-12.7
		L166.3,406.8z M176.2,411.2c0-1.2-0.2-2.2-0.6-2.9s-1-1.1-1.8-1.1c-0.5,0-1,0.1-1.3,0.3s-0.7,0.5-0.9,0.9v5.6
		c0.2,0.4,0.5,0.6,0.9,0.8s0.8,0.3,1.3,0.3c0.8,0,1.4-0.3,1.8-1s0.6-1.5,0.6-2.6V411.2z"/>
</g>
<g class="st1">
	<path class="st2" d="M187.1,417.7c-1.8,0-3.3-0.6-4.4-1.8s-1.6-2.7-1.6-4.5V411c0-1.9,0.5-3.4,1.6-4.7s2.4-1.8,4.2-1.8
		c1.7,0,3,0.5,4,1.5s1.4,2.4,1.4,4.2v1.9h-7.6l0,0.1c0.1,0.8,0.3,1.5,0.8,2.1s1.2,0.8,2,0.8c0.8,0,1.4-0.1,1.9-0.2s1-0.4,1.6-0.7
		l0.9,2.1c-0.5,0.4-1.2,0.8-2,1S188.1,417.7,187.1,417.7z M186.8,407.2c-0.6,0-1.1,0.2-1.5,0.7s-0.6,1.1-0.7,1.9l0,0.1h4.2v-0.3
		c0-0.7-0.2-1.3-0.5-1.7S187.5,407.2,186.8,407.2z"/>
</g>
<g class="st1">
	<path class="st2" d="M193.5,415.4l1.6-0.4v-7.9l-1.8-0.4v-2.1h5l0.2,1.8c0.4-0.6,0.9-1.2,1.6-1.5s1.3-0.5,2.1-0.5
		c1.3,0,2.3,0.4,3,1.2s1.1,2.1,1.1,3.8v5.5l1.6,0.4v2.1h-6.5v-2.1l1.5-0.4v-5.5c0-0.9-0.2-1.5-0.5-1.8s-0.9-0.5-1.6-0.5
		c-0.5,0-0.9,0.1-1.2,0.3s-0.7,0.4-0.9,0.8v6.8l1.4,0.4v2.1h-6.4V415.4z"/>
</g>
<g class="st1">
	<path class="st2" d="M214.5,417.7c-1.8,0-3.3-0.6-4.4-1.8s-1.6-2.7-1.6-4.5V411c0-1.9,0.5-3.4,1.6-4.7s2.4-1.8,4.2-1.8
		c1.7,0,3,0.5,4,1.5s1.4,2.4,1.4,4.2v1.9h-7.6l0,0.1c0.1,0.8,0.3,1.5,0.8,2.1s1.2,0.8,2,0.8c0.8,0,1.4-0.1,1.9-0.2s1-0.4,1.6-0.7
		l0.9,2.1c-0.5,0.4-1.2,0.8-2,1S215.6,417.7,214.5,417.7z M214.2,407.2c-0.6,0-1.1,0.2-1.5,0.7s-0.6,1.1-0.7,1.9l0,0.1h4.2v-0.3
		c0-0.7-0.2-1.3-0.5-1.7S214.9,407.2,214.2,407.2z"/>
</g>
<g class="st1">
	<path class="st2" d="M226,401.7v3.1h2.2v2.4H226v6.5c0,0.5,0.1,0.8,0.3,1.1s0.5,0.3,0.8,0.3c0.2,0,0.4,0,0.6,0s0.4-0.1,0.6-0.1
		l0.3,2.5c-0.4,0.1-0.8,0.2-1.1,0.3s-0.8,0.1-1.2,0.1c-1.2,0-2.1-0.3-2.7-1s-1-1.7-1-3.1v-6.5h-1.9v-2.4h1.9v-3.1H226z"/>
</g>
<g class="st1">
	<path class="st2" d="M230.1,415.4l1.6-0.4v-7.9l-1.8-0.4v-2.1h5l0.2,1.9c0.3-0.7,0.7-1.2,1.1-1.5s1-0.6,1.6-0.6c0.2,0,0.4,0,0.6,0
		s0.4,0.1,0.5,0.1l-0.4,3.1l-1.4,0c-0.5,0-0.9,0.1-1.2,0.3s-0.6,0.5-0.8,0.8v6.2l1.6,0.4v2.1h-6.7V415.4z"/>
</g>
<g class="st1">
	<path class="st2" d="M247.7,417.5c-0.1-0.2-0.2-0.4-0.2-0.7s-0.1-0.4-0.2-0.7c-0.4,0.5-0.9,0.8-1.5,1.1s-1.2,0.4-2,0.4
		c-1.2,0-2.2-0.3-3-1s-1.1-1.6-1.1-2.8c0-1.2,0.5-2.1,1.4-2.8s2.4-1,4.2-1h1.7V409c0-0.6-0.2-1.1-0.5-1.4s-0.9-0.5-1.6-0.5
		c-0.4,0-0.7,0-1,0.1s-0.6,0.2-0.7,0.3l-0.2,1.4h-2.6l0-2.8c0.6-0.4,1.3-0.8,2.2-1.1s1.7-0.4,2.6-0.4c1.6,0,2.8,0.4,3.8,1.2
		s1.5,1.9,1.5,3.3v5.2c0,0.2,0,0.4,0,0.6s0,0.3,0,0.5l1,0.1v2.1H247.7z M244.7,415.2c0.5,0,1-0.1,1.4-0.3s0.8-0.5,1-0.8v-1.9h-1.7
		c-0.7,0-1.3,0.2-1.7,0.5s-0.6,0.7-0.6,1.2c0,0.4,0.1,0.8,0.4,1S244.2,415.2,244.7,415.2z"/>
</g>
<g class="st1">
	<path class="st2" d="M257.4,401.7v3.1h2.2v2.4h-2.2v6.5c0,0.5,0.1,0.8,0.3,1.1s0.5,0.3,0.8,0.3c0.2,0,0.4,0,0.6,0s0.4-0.1,0.6-0.1
		l0.3,2.5c-0.4,0.1-0.8,0.2-1.1,0.3s-0.8,0.1-1.2,0.1c-1.2,0-2.1-0.3-2.7-1s-1-1.7-1-3.1v-6.5h-1.9v-2.4h1.9v-3.1H257.4z"/>
</g>
<g class="st1">
	<path class="st2" d="M261.2,415.4l1.7-0.4v-7.9l-1.8-0.4v-2.1h5.2V415l1.6,0.4v2.1h-6.7V415.4z M266.3,401.7h-3.4v-2.6h3.4V401.7z"
		/>
</g>
<g class="st1">
	<path class="st2" d="M273.9,406.8l-1.2,0.2l1.7,5.7l0.2,1.2h0.1l0.2-1.2l1.7-5.7l-1.2-0.2v-2.1h5.8v2.1L280,407l-3.7,10.4H273
		l-3.8-10.4l-1.1-0.2v-2.1h5.8V406.8z"/>
</g>
<g class="st1">
	<path class="st2" d="M287.8,417.7c-1.8,0-3.3-0.6-4.4-1.8s-1.6-2.7-1.6-4.5V411c0-1.9,0.5-3.4,1.6-4.7s2.4-1.8,4.2-1.8
		c1.7,0,3,0.5,4,1.5s1.4,2.4,1.4,4.2v1.9h-7.6l0,0.1c0.1,0.8,0.3,1.5,0.8,2.1s1.2,0.8,2,0.8c0.8,0,1.4-0.1,1.9-0.2s1-0.4,1.6-0.7
		l0.9,2.1c-0.5,0.4-1.2,0.8-2,1S288.9,417.7,287.8,417.7z M287.5,407.2c-0.6,0-1.1,0.2-1.5,0.7s-0.6,1.1-0.7,1.9l0,0.1h4.2v-0.3
		c0-0.7-0.2-1.3-0.5-1.7S288.2,407.2,287.5,407.2z"/>
</g>
<g class="st1">
	<path class="st2" d="M310.8,409.1h-2.3l-0.4-1.6c-0.2-0.2-0.5-0.3-0.9-0.5s-0.7-0.2-1.2-0.2c-0.6,0-1.1,0.1-1.4,0.4s-0.5,0.6-0.5,1
		c0,0.4,0.2,0.7,0.5,1s1,0.5,2,0.7c1.6,0.3,2.7,0.8,3.5,1.4s1.1,1.4,1.1,2.5c0,1.1-0.5,2.1-1.5,2.8s-2.3,1.1-3.9,1.1
		c-1,0-1.9-0.1-2.7-0.4s-1.5-0.7-2.2-1.2l0-2.8h2.4l0.5,1.7c0.2,0.2,0.5,0.3,0.8,0.4s0.7,0.1,1.1,0.1c0.7,0,1.2-0.1,1.6-0.4
		s0.5-0.6,0.5-1c0-0.4-0.2-0.7-0.6-1s-1-0.5-2-0.7c-1.5-0.3-2.6-0.8-3.4-1.4s-1.1-1.4-1.1-2.4c0-1.1,0.4-2,1.3-2.7s2.1-1.2,3.7-1.2
		c1,0,1.9,0.1,2.8,0.4s1.6,0.6,2.1,1L310.8,409.1z"/>
</g>
<g class="st1">
	<path class="st2" d="M318.7,417.7c-1.8,0-3.3-0.6-4.4-1.8s-1.6-2.7-1.6-4.5V411c0-1.9,0.5-3.4,1.6-4.7s2.4-1.8,4.2-1.8
		c1.7,0,3,0.5,4,1.5s1.4,2.4,1.4,4.2v1.9h-7.6l0,0.1c0.1,0.8,0.3,1.5,0.8,2.1s1.2,0.8,2,0.8c0.8,0,1.4-0.1,1.9-0.2s1-0.4,1.6-0.7
		l0.9,2.1c-0.5,0.4-1.2,0.8-2,1S319.7,417.7,318.7,417.7z M318.4,407.2c-0.6,0-1.1,0.2-1.5,0.7s-0.6,1.1-0.7,1.9l0,0.1h4.2v-0.3
		c0-0.7-0.2-1.3-0.5-1.7S319.1,407.2,318.4,407.2z"/>
</g>
<g class="st1">
	<path class="st2" d="M324.9,415.4l1.2-0.2l3.4-4.2l-3.3-4l-1.2-0.2v-2.1h5.7v2l-1.2,0.1l1.9,2.4l1.9-2.4l-1.2-0.1v-2h5.7v2.1
		l-1.1,0.2l-3.3,4l3.4,4.2l1.2,0.2v2.1h-5.8v-2l1.2-0.1l-2-2.6l-2,2.6l1,0.1v2h-5.6V415.4z"/>
</g>
<g class="st1">
	<path class="st2" d="M343.1,417c0,0.8-0.2,1.6-0.7,2.5s-1,1.6-1.6,2.2l-1.7-0.9c0.3-0.5,0.5-1.1,0.7-1.7s0.2-1.2,0.2-2v-2.6h3.1
		L343.1,417z"/>
</g>
<g class="st1">
	<path class="st2" d="M357,417.7c-1.8,0-3.3-0.6-4.4-1.8s-1.6-2.7-1.6-4.5V411c0-1.9,0.5-3.4,1.6-4.7s2.4-1.8,4.2-1.8
		c1.7,0,3,0.5,4,1.5s1.4,2.4,1.4,4.2v1.9h-7.6l0,0.1c0.1,0.8,0.3,1.5,0.8,2.1s1.2,0.8,2,0.8c0.8,0,1.4-0.1,1.9-0.2s1-0.4,1.6-0.7
		l0.9,2.1c-0.5,0.4-1.2,0.8-2,1S358,417.7,357,417.7z M356.7,407.2c-0.6,0-1.1,0.2-1.5,0.7s-0.6,1.1-0.7,1.9l0,0.1h4.2v-0.3
		c0-0.7-0.2-1.3-0.5-1.7S357.4,407.2,356.7,407.2z"/>
</g>
<g class="st1">
	<path class="st2" d="M373.8,409.1h-2.3l-0.4-1.6c-0.2-0.2-0.5-0.3-0.9-0.5s-0.7-0.2-1.2-0.2c-0.6,0-1.1,0.1-1.4,0.4s-0.5,0.6-0.5,1
		c0,0.4,0.2,0.7,0.5,1s1,0.5,2,0.7c1.6,0.3,2.7,0.8,3.5,1.4s1.1,1.4,1.1,2.5c0,1.1-0.5,2.1-1.5,2.8s-2.3,1.1-3.9,1.1
		c-1,0-1.9-0.1-2.7-0.4s-1.5-0.7-2.2-1.2l0-2.8h2.4l0.5,1.7c0.2,0.2,0.5,0.3,0.8,0.4s0.7,0.1,1.1,0.1c0.7,0,1.2-0.1,1.6-0.4
		s0.5-0.6,0.5-1c0-0.4-0.2-0.7-0.6-1s-1-0.5-2-0.7c-1.5-0.3-2.6-0.8-3.4-1.4s-1.1-1.4-1.1-2.4c0-1.1,0.4-2,1.3-2.7s2.1-1.2,3.7-1.2
		c1,0,1.9,0.1,2.8,0.4s1.6,0.6,2.1,1L373.8,409.1z"/>
</g>
<g class="st1">
	<path class="st2" d="M375.3,406.8v-2.1h5l0.2,1.5c0.4-0.5,0.8-1,1.3-1.3s1.1-0.4,1.8-0.4c1.6,0,2.8,0.6,3.7,1.8s1.3,2.8,1.3,4.8
		v0.2c0,1.9-0.4,3.4-1.3,4.5s-2.1,1.7-3.6,1.7c-0.7,0-1.3-0.1-1.8-0.4s-1-0.6-1.3-1.1v3.7l1.7,0.4v2.1h-6.7v-2.1l1.7-0.4v-12.7
		L375.3,406.8z M385.1,411.2c0-1.2-0.2-2.2-0.6-2.9s-1-1.1-1.8-1.1c-0.5,0-1,0.1-1.3,0.3s-0.7,0.5-0.9,0.9v5.6
		c0.2,0.4,0.5,0.6,0.9,0.8s0.8,0.3,1.3,0.3c0.8,0,1.4-0.3,1.8-1s0.6-1.5,0.6-2.6V411.2z"/>
</g>
<g class="st1">
	<path class="st2" d="M396,417.7c-1.8,0-3.3-0.6-4.4-1.8s-1.6-2.7-1.6-4.5V411c0-1.9,0.5-3.4,1.6-4.7s2.4-1.8,4.2-1.8
		c1.7,0,3,0.5,4,1.5s1.4,2.4,1.4,4.2v1.9h-7.6l0,0.1c0.1,0.8,0.3,1.5,0.8,2.1s1.2,0.8,2,0.8c0.8,0,1.4-0.1,1.9-0.2s1-0.4,1.6-0.7
		l0.9,2.1c-0.5,0.4-1.2,0.8-2,1S397.1,417.7,396,417.7z M395.7,407.2c-0.6,0-1.1,0.2-1.5,0.7s-0.6,1.1-0.7,1.9l0,0.1h4.2v-0.3
		c0-0.7-0.2-1.3-0.5-1.7S396.4,407.2,395.7,407.2z"/>
</g>
<g class="st1">
	<path class="st2" d="M408.6,415.1c0.6,0,1.1-0.2,1.5-0.5s0.6-0.8,0.6-1.4h3.1l0,0.1c0,1.3-0.4,2.4-1.4,3.2s-2.2,1.3-3.7,1.3
		c-1.9,0-3.3-0.6-4.4-1.8s-1.5-2.7-1.5-4.6v-0.4c0-1.9,0.5-3.4,1.6-4.6s2.5-1.8,4.5-1.8c1,0,1.9,0.2,2.8,0.5s1.5,0.7,2,1.3l0,3.4
		h-2.8l-0.6-2c-0.2-0.1-0.4-0.3-0.6-0.4s-0.5-0.1-0.9-0.1c-1,0-1.7,0.4-2.1,1.1s-0.6,1.6-0.6,2.7v0.4c0,1.1,0.2,2,0.6,2.7
		S407.7,415.1,408.6,415.1z"/>
</g>
<g class="st1">
	<path class="st2" d="M415.1,415.4l1.7-0.4v-7.9l-1.8-0.4v-2.1h5.2V415l1.6,0.4v2.1h-6.7V415.4z M420.2,401.7h-3.4v-2.6h3.4V401.7z"
		/>
</g>
<g class="st1">
	<path class="st2" d="M431,417.5c-0.1-0.2-0.2-0.4-0.2-0.7s-0.1-0.4-0.2-0.7c-0.4,0.5-0.9,0.8-1.5,1.1s-1.2,0.4-2,0.4
		c-1.2,0-2.2-0.3-3-1s-1.1-1.6-1.1-2.8c0-1.2,0.5-2.1,1.4-2.8s2.4-1,4.2-1h1.7V409c0-0.6-0.2-1.1-0.5-1.4s-0.9-0.5-1.6-0.5
		c-0.4,0-0.7,0-1,0.1s-0.6,0.2-0.7,0.3l-0.2,1.4h-2.6l0-2.8c0.6-0.4,1.3-0.8,2.2-1.1s1.7-0.4,2.6-0.4c1.6,0,2.8,0.4,3.8,1.2
		s1.5,1.9,1.5,3.3v5.2c0,0.2,0,0.4,0,0.6s0,0.3,0,0.5l1,0.1v2.1H431z M428,415.2c0.5,0,1-0.1,1.4-0.3s0.8-0.5,1-0.8v-1.9h-1.7
		c-0.7,0-1.3,0.2-1.7,0.5s-0.6,0.7-0.6,1.2c0,0.4,0.1,0.8,0.4,1S427.5,415.2,428,415.2z"/>
</g>
<g class="st1">
	<path class="st2" d="M435.9,401.2v-2.1h5.2V415l1.7,0.4v2.1h-6.7v-2.1l1.7-0.4v-13.5L435.9,401.2z"/>
</g>
<g class="st1">
	<path class="st2" d="M443.8,401.2v-2.1h5.2V415l1.7,0.4v2.1h-6.7v-2.1l1.7-0.4v-13.5L443.8,401.2z"/>
</g>
<g class="st1">
	<path class="st2" d="M464.4,406.8l-1.2,0.2l-4.7,12.3c-0.4,0.9-0.9,1.7-1.5,2.3s-1.5,0.9-2.8,0.9c-0.3,0-0.6,0-0.8-0.1
		s-0.6-0.1-0.9-0.2l0.4-2.5c0.1,0,0.2,0,0.3,0s0.2,0,0.3,0c0.6,0,1-0.1,1.3-0.4s0.5-0.6,0.7-1l0.4-1l-4-10.4l-1.2-0.2v-2.1h6.2v2.1
		l-1.4,0.2l1.7,5.1l0.2,0.9l0.1,0l2-6l-1.4-0.2v-2.1h6.2V406.8z"/>
</g>
<g class="st1">
	<path class="st2" d="M137.2,446.2c-0.1-0.2-0.2-0.4-0.2-0.7s-0.1-0.4-0.2-0.7c-0.4,0.5-0.9,0.8-1.5,1.1s-1.2,0.4-2,0.4
		c-1.2,0-2.2-0.3-3-1s-1.1-1.6-1.1-2.8c0-1.2,0.5-2.1,1.4-2.8s2.4-1,4.2-1h1.7v-1.2c0-0.6-0.2-1.1-0.5-1.4s-0.9-0.5-1.6-0.5
		c-0.4,0-0.7,0-1,0.1s-0.6,0.2-0.7,0.3l-0.2,1.4h-2.6l0-2.8c0.6-0.4,1.3-0.8,2.2-1.1s1.7-0.4,2.6-0.4c1.6,0,2.8,0.4,3.8,1.2
		s1.5,1.9,1.5,3.3v5.2c0,0.2,0,0.4,0,0.6s0,0.3,0,0.5l1,0.1v2.1H137.2z M134.2,444c0.5,0,1-0.1,1.4-0.3s0.8-0.5,1-0.8v-1.9h-1.7
		c-0.7,0-1.3,0.2-1.7,0.5s-0.6,0.7-0.6,1.2c0,0.4,0.1,0.8,0.4,1S133.7,444,134.2,444z"/>
</g>
<g class="st1">
	<path class="st2" d="M142.3,444.2l1.6-0.4V436l-1.8-0.4v-2.1h5l0.2,1.8c0.4-0.6,0.9-1.2,1.6-1.5s1.3-0.5,2.1-0.5
		c1.3,0,2.3,0.4,3,1.2s1.1,2.1,1.1,3.8v5.5l1.6,0.4v2.1h-6.5v-2.1l1.5-0.4v-5.5c0-0.9-0.2-1.5-0.5-1.8s-0.9-0.5-1.6-0.5
		c-0.5,0-0.9,0.1-1.2,0.3s-0.7,0.4-0.9,0.8v6.8l1.4,0.4v2.1h-6.4V444.2z"/>
</g>
<g class="st1">
	<path class="st2" d="M165.8,446.2c-0.1-0.2-0.2-0.4-0.2-0.7s-0.1-0.4-0.2-0.7c-0.4,0.5-0.9,0.8-1.5,1.1s-1.2,0.4-2,0.4
		c-1.2,0-2.2-0.3-3-1s-1.1-1.6-1.1-2.8c0-1.2,0.5-2.1,1.4-2.8s2.4-1,4.2-1h1.7v-1.2c0-0.6-0.2-1.1-0.5-1.4s-0.9-0.5-1.6-0.5
		c-0.4,0-0.7,0-1,0.1s-0.6,0.2-0.7,0.3l-0.2,1.4h-2.6l0-2.8c0.6-0.4,1.3-0.8,2.2-1.1s1.7-0.4,2.6-0.4c1.6,0,2.8,0.4,3.8,1.2
		s1.5,1.9,1.5,3.3v5.2c0,0.2,0,0.4,0,0.6s0,0.3,0,0.5l1,0.1v2.1H165.8z M162.8,444c0.5,0,1-0.1,1.4-0.3s0.8-0.5,1-0.8v-1.9h-1.7
		c-0.7,0-1.3,0.2-1.7,0.5s-0.6,0.7-0.6,1.2c0,0.4,0.1,0.8,0.4,1S162.3,444,162.8,444z"/>
</g>
<g class="st1">
	<path class="st2" d="M170.7,430V428h5.2v15.9l1.7,0.4v2.1h-6.7v-2.1l1.7-0.4v-13.5L170.7,430z"/>
</g>
<g class="st1">
	<path class="st2" d="M194.9,437.9h-2.3l-0.4-1.6c-0.2-0.2-0.5-0.3-0.9-0.5s-0.7-0.2-1.2-0.2c-0.6,0-1.1,0.1-1.4,0.4s-0.5,0.6-0.5,1
		c0,0.4,0.2,0.7,0.5,1s1,0.5,2,0.7c1.6,0.3,2.7,0.8,3.5,1.4s1.1,1.4,1.1,2.5c0,1.1-0.5,2.1-1.5,2.8s-2.3,1.1-3.9,1.1
		c-1,0-1.9-0.1-2.7-0.4s-1.5-0.7-2.2-1.2l0-2.8h2.4l0.5,1.7c0.2,0.2,0.5,0.3,0.8,0.4s0.7,0.1,1.1,0.1c0.7,0,1.2-0.1,1.6-0.4
		s0.5-0.6,0.5-1c0-0.4-0.2-0.7-0.6-1s-1-0.5-2-0.7c-1.5-0.3-2.6-0.8-3.4-1.4s-1.1-1.4-1.1-2.4c0-1.1,0.4-2,1.3-2.7s2.1-1.2,3.7-1.2
		c1,0,1.9,0.1,2.8,0.4s1.6,0.6,2.1,1L194.9,437.9z"/>
</g>
<g class="st1">
	<path class="st2" d="M202.8,446.5c-1.8,0-3.3-0.6-4.4-1.8s-1.6-2.7-1.6-4.5v-0.5c0-1.9,0.5-3.4,1.6-4.7s2.4-1.8,4.2-1.8
		c1.7,0,3,0.5,4,1.5s1.4,2.4,1.4,4.2v1.9h-7.6l0,0.1c0.1,0.8,0.3,1.5,0.8,2.1s1.2,0.8,2,0.8c0.8,0,1.4-0.1,1.9-0.2s1-0.4,1.6-0.7
		l0.9,2.1c-0.5,0.4-1.2,0.8-2,1S203.8,446.5,202.8,446.5z M202.5,436c-0.6,0-1.1,0.2-1.5,0.7s-0.6,1.1-0.7,1.9l0,0.1h4.2v-0.3
		c0-0.7-0.2-1.3-0.5-1.7S203.2,436,202.5,436z"/>
</g>
<g class="st1">
	<path class="st2" d="M209,444.2l1.2-0.2l3.4-4.2l-3.3-4l-1.2-0.2v-2.1h5.7v2l-1.2,0.1l1.9,2.4l1.9-2.4l-1.2-0.1v-2h5.7v2.1
		l-1.1,0.2l-3.3,4l3.4,4.2l1.2,0.2v2.1h-5.8v-2l1.2-0.1l-2-2.6l-2,2.6l1,0.1v2H209V444.2z"/>
</g>
<g class="st1">
	<path class="st2" d="M227.7,446.2h-3.4v-3h3.4V446.2z"/>
</g>
<g class="st1">
	<path class="st2" d="M250.5,429.2v4.5h-2.6l-0.1-1.9h-3.1v12l1.8,0.4v2.1h-7.1v-2.1l1.8-0.4v-12H238l-0.1,1.9h-2.6v-4.5H250.5z"/>
</g>
<g class="st1">
	<path class="st2" d="M251.8,444.2l1.7-0.4v-13.5l-1.8-0.4V428h5.2v7.2c0.4-0.6,0.9-1,1.5-1.4s1.2-0.5,1.9-0.5
		c1.3,0,2.4,0.4,3.1,1.3s1.1,2.2,1.1,4.1v5.1l1.6,0.4v2.1h-6.5v-2.1l1.5-0.4v-5.1c0-1-0.2-1.7-0.5-2.1s-0.9-0.6-1.6-0.6
		c-0.5,0-0.9,0.1-1.2,0.3s-0.7,0.4-0.9,0.7v6.9l1.5,0.4v2.1h-6.5V444.2z"/>
</g>
<g class="st1">
	<path class="st2" d="M272.9,446.5c-1.8,0-3.3-0.6-4.4-1.8s-1.6-2.7-1.6-4.5v-0.5c0-1.9,0.5-3.4,1.6-4.7s2.4-1.8,4.2-1.8
		c1.7,0,3,0.5,4,1.5s1.4,2.4,1.4,4.2v1.9h-7.6l0,0.1c0.1,0.8,0.3,1.5,0.8,2.1s1.2,0.8,2,0.8c0.8,0,1.4-0.1,1.9-0.2s1-0.4,1.6-0.7
		l0.9,2.1c-0.5,0.4-1.2,0.8-2,1S273.9,446.5,272.9,446.5z M272.6,436c-0.6,0-1.1,0.2-1.5,0.7s-0.6,1.1-0.7,1.9l0,0.1h4.2v-0.3
		c0-0.7-0.2-1.3-0.5-1.7S273.3,436,272.6,436z"/>
</g>
<g class="st1">
	<path class="st2" d="M285.4,444.2l1.7-0.4V436l-1.8-0.4v-2.1h5.2v10.3l1.6,0.4v2.1h-6.7V444.2z M290.4,430.5H287V428h3.4V430.5z"/>
</g>
<g class="st1">
	<path class="st2" d="M293.2,444.2l1.6-0.4V436l-1.8-0.4v-2.1h5l0.2,1.8c0.4-0.6,0.9-1.2,1.6-1.5s1.3-0.5,2.1-0.5
		c1.3,0,2.3,0.4,3,1.2s1.1,2.1,1.1,3.8v5.5l1.6,0.4v2.1H301v-2.1l1.5-0.4v-5.5c0-0.9-0.2-1.5-0.5-1.8s-0.9-0.5-1.6-0.5
		c-0.5,0-0.9,0.1-1.2,0.3s-0.7,0.4-0.9,0.8v6.8l1.4,0.4v2.1h-6.4V444.2z"/>
</g>
<g class="st1">
	<path class="st2" d="M308.7,444.2l1.6-0.4V436l-1.8-0.4v-2.1h5l0.2,1.8c0.4-0.6,0.9-1.2,1.6-1.5s1.3-0.5,2.1-0.5
		c1.3,0,2.3,0.4,3,1.2s1.1,2.1,1.1,3.8v5.5l1.6,0.4v2.1h-6.5v-2.1l1.5-0.4v-5.5c0-0.9-0.2-1.5-0.5-1.8s-0.9-0.5-1.6-0.5
		c-0.5,0-0.9,0.1-1.2,0.3s-0.7,0.4-0.9,0.8v6.8l1.4,0.4v2.1h-6.4V444.2z"/>
</g>
<g class="st1">
	<path class="st2" d="M329.8,446.5c-1.8,0-3.3-0.6-4.4-1.8s-1.6-2.7-1.6-4.5v-0.5c0-1.9,0.5-3.4,1.6-4.7s2.4-1.8,4.2-1.8
		c1.7,0,3,0.5,4,1.5s1.4,2.4,1.4,4.2v1.9h-7.6l0,0.1c0.1,0.8,0.3,1.5,0.8,2.1s1.2,0.8,2,0.8c0.8,0,1.4-0.1,1.9-0.2s1-0.4,1.6-0.7
		l0.9,2.1c-0.5,0.4-1.2,0.8-2,1S330.8,446.5,329.8,446.5z M329.5,436c-0.6,0-1.1,0.2-1.5,0.7s-0.6,1.1-0.7,1.9l0,0.1h4.2v-0.3
		c0-0.7-0.2-1.3-0.5-1.7S330.2,436,329.5,436z"/>
</g>
<g class="st1">
	<path class="st2" d="M336.3,444.2l1.6-0.4V436l-1.8-0.4v-2.1h5l0.2,1.9c0.3-0.7,0.7-1.2,1.1-1.5s1-0.6,1.6-0.6c0.2,0,0.4,0,0.6,0
		s0.4,0.1,0.5,0.1l-0.4,3.1l-1.4,0c-0.5,0-0.9,0.1-1.2,0.3s-0.6,0.5-0.8,0.8v6.2l1.6,0.4v2.1h-6.7V444.2z"/>
</g>
<g class="st1">
	<path class="st2" d="M352.3,444.2l1.6-0.4V436l-1.8-0.4v-2.1h5l0.2,1.9c0.3-0.7,0.7-1.2,1.1-1.5s1-0.6,1.6-0.6c0.2,0,0.4,0,0.6,0
		s0.4,0.1,0.5,0.1l-0.4,3.1l-1.4,0c-0.5,0-0.9,0.1-1.2,0.3s-0.6,0.5-0.8,0.8v6.2l1.6,0.4v2.1h-6.7V444.2z"/>
</g>
<g class="st1">
	<path class="st2" d="M362.3,444.2l1.7-0.4V436l-1.8-0.4v-2.1h5.2v10.3l1.6,0.4v2.1h-6.7V444.2z M367.4,430.5H364V428h3.4V430.5z"/>
</g>
<g class="st1">
	<path class="st2" d="M370.2,444.2l1.6-0.4V436l-1.8-0.4v-2.1h5l0.2,1.8c0.4-0.6,0.9-1.2,1.6-1.5s1.3-0.5,2.1-0.5
		c1.3,0,2.3,0.4,3,1.2s1.1,2.1,1.1,3.8v5.5l1.6,0.4v2.1H378v-2.1l1.5-0.4v-5.5c0-0.9-0.2-1.5-0.5-1.8s-0.9-0.5-1.6-0.5
		c-0.5,0-0.9,0.1-1.2,0.3s-0.7,0.4-0.9,0.8v6.8l1.4,0.4v2.1h-6.4V444.2z"/>
</g>
<g class="st1">
	<path class="st2" d="M385.4,440c0-2,0.4-3.6,1.3-4.8s2.1-1.8,3.7-1.8c0.7,0,1.3,0.2,1.9,0.5s1,0.8,1.4,1.4l0.2-1.6h3v12.3
		c0,1.7-0.5,3-1.6,4s-2.5,1.5-4.3,1.5c-0.6,0-1.3-0.1-2-0.3s-1.4-0.4-2-0.7l0.6-2.4c0.5,0.2,1.1,0.4,1.6,0.6s1.1,0.2,1.7,0.2
		c0.8,0,1.5-0.3,1.9-0.8s0.6-1.2,0.6-2.1V445c-0.4,0.5-0.8,0.8-1.3,1.1s-1.1,0.4-1.7,0.4c-1.6,0-2.8-0.6-3.6-1.7s-1.3-2.7-1.3-4.5
		V440z M388.9,440.3c0,1.1,0.2,2,0.6,2.6s1,1,1.8,1c0.5,0,1-0.1,1.3-0.3s0.7-0.5,0.9-0.8v-5.5c-0.2-0.4-0.5-0.7-0.9-0.9
		s-0.8-0.3-1.3-0.3c-0.8,0-1.4,0.4-1.8,1.1s-0.6,1.7-0.6,2.9V440.3z"/>
</g>
<g class="st1">
	<path class="st2" d="M415.2,437.9h-2.3l-0.4-1.6c-0.2-0.2-0.5-0.3-0.9-0.5s-0.7-0.2-1.2-0.2c-0.6,0-1.1,0.1-1.4,0.4s-0.5,0.6-0.5,1
		c0,0.4,0.2,0.7,0.5,1s1,0.5,2,0.7c1.6,0.3,2.7,0.8,3.5,1.4s1.1,1.4,1.1,2.5c0,1.1-0.5,2.1-1.5,2.8s-2.3,1.1-3.9,1.1
		c-1,0-1.9-0.1-2.7-0.4s-1.5-0.7-2.2-1.2l0-2.8h2.4l0.5,1.7c0.2,0.2,0.5,0.3,0.8,0.4s0.7,0.1,1.1,0.1c0.7,0,1.2-0.1,1.6-0.4
		s0.5-0.6,0.5-1c0-0.4-0.2-0.7-0.6-1s-1-0.5-2-0.7c-1.5-0.3-2.6-0.8-3.4-1.4s-1.1-1.4-1.1-2.4c0-1.1,0.4-2,1.3-2.7s2.1-1.2,3.7-1.2
		c1,0,1.9,0.1,2.8,0.4s1.6,0.6,2.1,1L415.2,437.9z"/>
</g>
<g class="st1">
	<path class="st2" d="M416.9,444.2l1.7-0.4v-13.5l-1.8-0.4V428h5.2v7.2c0.4-0.6,0.9-1,1.5-1.4s1.2-0.5,1.9-0.5
		c1.3,0,2.4,0.4,3.1,1.3s1.1,2.2,1.1,4.1v5.1l1.6,0.4v2.1h-6.5v-2.1l1.5-0.4v-5.1c0-1-0.2-1.7-0.5-2.1s-0.9-0.6-1.6-0.6
		c-0.5,0-0.9,0.1-1.2,0.3s-0.7,0.4-0.9,0.7v6.9l1.5,0.4v2.1h-6.5V444.2z"/>
</g>
<g class="st1">
	<path class="st2" d="M431.9,439.8c0-1.9,0.5-3.4,1.6-4.6s2.5-1.8,4.4-1.8c1.9,0,3.3,0.6,4.4,1.8s1.6,2.8,1.6,4.7v0.2
		c0,1.9-0.5,3.5-1.6,4.7s-2.5,1.8-4.4,1.8c-1.9,0-3.4-0.6-4.4-1.8s-1.6-2.8-1.6-4.7V439.8z M435.3,440c0,1.2,0.2,2.1,0.6,2.8
		s1.1,1,2,1c0.9,0,1.5-0.4,1.9-1.1s0.6-1.6,0.6-2.8v-0.2c0-1.1-0.2-2-0.6-2.8s-1.1-1.1-2-1.1s-1.5,0.4-1.9,1.1s-0.6,1.6-0.6,2.8V440
		z"/>
</g>
<g class="st1">
	<path class="st2" d="M453.9,444.6c-0.4,0.6-0.9,1.1-1.5,1.4s-1.3,0.5-2,0.5c-1.3,0-2.4-0.4-3.1-1.3s-1.1-2.2-1.1-4V436l-1.4-0.4
		v-2.1h1.4h3.4v7.7c0,0.9,0.2,1.6,0.5,2s0.8,0.6,1.4,0.6c0.5,0,1-0.1,1.4-0.3s0.7-0.4,1-0.8V436l-1.5-0.4v-2.1h1.5h3.4v10.3l1.5,0.4
		v2.1h-4.5L453.9,444.6z"/>
</g>
<g class="st1">
	<path class="st2" d="M459.7,430V428h5.2v15.9l1.7,0.4v2.1h-6.7v-2.1l1.7-0.4v-13.5L459.7,430z"/>
</g>
<g class="st1">
	<path class="st2" d="M475.7,444.7c-0.4,0.6-0.9,1-1.4,1.3s-1.2,0.5-1.9,0.5c-1.6,0-2.8-0.6-3.6-1.7s-1.3-2.6-1.3-4.5V440
		c0-2,0.4-3.6,1.3-4.8s2.1-1.8,3.7-1.8c0.6,0,1.2,0.1,1.7,0.4s1,0.7,1.3,1.2v-4.5l-1.8-0.4V428h1.8h3.4v15.9l1.6,0.4v2.1H476
		L475.7,444.7z M470.9,440.3c0,1.1,0.2,2,0.6,2.6s1,1,1.8,1c0.5,0,0.9-0.1,1.3-0.3s0.7-0.5,0.9-0.9v-5.4c-0.2-0.4-0.5-0.7-0.9-0.9
		s-0.8-0.3-1.3-0.3c-0.8,0-1.4,0.4-1.8,1.1s-0.6,1.7-0.6,2.9V440.3z"/>
</g>
<g class="st1">
	<path class="st2" d="M141.4,469.1c0,1.9-0.4,3.4-1.3,4.5s-2.1,1.7-3.7,1.7c-0.7,0-1.4-0.2-1.9-0.5s-1-0.8-1.4-1.3l-0.2,1.6h-3
		v-15.9l-1.8-0.4v-2.1h5.2v6.9c0.4-0.5,0.8-0.9,1.3-1.2s1.1-0.4,1.8-0.4c1.6,0,2.8,0.6,3.7,1.8s1.3,2.8,1.3,4.9V469.1z M138,468.8
		c0-1.2-0.2-2.2-0.5-2.9s-1-1.1-1.9-1.1c-0.5,0-1,0.1-1.3,0.3s-0.7,0.5-0.9,1v5.4c0.2,0.4,0.5,0.7,0.9,0.9s0.8,0.3,1.4,0.3
		c0.9,0,1.5-0.3,1.9-0.9s0.5-1.5,0.5-2.6V468.8z"/>
</g>
<g class="st1">
	<path class="st2" d="M148.9,475.3c-1.8,0-3.3-0.6-4.4-1.8s-1.6-2.7-1.6-4.5v-0.5c0-1.9,0.5-3.4,1.6-4.7s2.4-1.8,4.2-1.8
		c1.7,0,3,0.5,4,1.5s1.4,2.4,1.4,4.2v1.9h-7.6l0,0.1c0.1,0.8,0.3,1.5,0.8,2.1s1.2,0.8,2,0.8c0.8,0,1.4-0.1,1.9-0.2s1-0.4,1.6-0.7
		l0.9,2.1c-0.5,0.4-1.2,0.8-2,1S149.9,475.3,148.9,475.3z M148.6,464.8c-0.6,0-1.1,0.2-1.5,0.7s-0.6,1.1-0.7,1.9l0,0.1h4.2v-0.3
		c0-0.7-0.2-1.3-0.5-1.7S149.3,464.8,148.6,464.8z"/>
</g>
<g class="st1">
	<path class="st2" d="M161.8,473l1.6-0.4v-7.9l-1.8-0.4v-2.1h5l0.2,1.9c0.3-0.7,0.7-1.2,1.1-1.5s1-0.6,1.6-0.6c0.2,0,0.4,0,0.6,0
		s0.4,0.1,0.5,0.1l-0.4,3.1l-1.4,0c-0.5,0-0.9,0.1-1.2,0.3s-0.6,0.5-0.8,0.8v6.2l1.6,0.4v2.1h-6.7V473z"/>
</g>
<g class="st1">
	<path class="st2" d="M177.3,475.3c-1.8,0-3.3-0.6-4.4-1.8s-1.6-2.7-1.6-4.5v-0.5c0-1.9,0.5-3.4,1.6-4.7s2.4-1.8,4.2-1.8
		c1.7,0,3,0.5,4,1.5s1.4,2.4,1.4,4.2v1.9h-7.6l0,0.1c0.1,0.8,0.3,1.5,0.8,2.1s1.2,0.8,2,0.8c0.8,0,1.4-0.1,1.9-0.2s1-0.4,1.6-0.7
		l0.9,2.1c-0.5,0.4-1.2,0.8-2,1S178.4,475.3,177.3,475.3z M177,464.8c-0.6,0-1.1,0.2-1.5,0.7s-0.6,1.1-0.7,1.9l0,0.1h4.2v-0.3
		c0-0.7-0.2-1.3-0.5-1.7S177.7,464.8,177,464.8z"/>
</g>
<g class="st1">
	<path class="st2" d="M183.5,464.4v-2.1h5l0.1,1.7c0.4-0.6,0.9-1.1,1.5-1.4s1.3-0.5,2.1-0.5c0.8,0,1.5,0.2,2.1,0.5s1,0.9,1.3,1.6
		c0.4-0.7,0.9-1.2,1.5-1.6s1.4-0.6,2.2-0.6c1.2,0,2.2,0.4,3,1.3s1.1,2.2,1.1,3.9v5.3l1.7,0.4v2.1h-6.6V473l1.5-0.4v-5.3
		c0-1-0.2-1.6-0.5-2s-0.8-0.6-1.4-0.6c-0.5,0-0.9,0.1-1.3,0.3s-0.6,0.5-0.8,0.9c0,0.1,0,0.3,0,0.4s0,0.2,0,0.3v5.9l1.4,0.4v2.1h-6.2
		V473l1.4-0.4v-5.3c0-0.9-0.2-1.6-0.5-2s-0.8-0.6-1.4-0.6c-0.5,0-0.9,0.1-1.2,0.3s-0.6,0.4-0.9,0.7v6.8l1.5,0.4v2.1h-6.5V473
		l1.7-0.4v-7.9L183.5,464.4z"/>
</g>
<g class="st1">
	<path class="st2" d="M205.8,468.6c0-1.9,0.5-3.4,1.6-4.6s2.5-1.8,4.4-1.8c1.9,0,3.3,0.6,4.4,1.8s1.6,2.8,1.6,4.7v0.2
		c0,1.9-0.5,3.5-1.6,4.7s-2.5,1.8-4.4,1.8c-1.9,0-3.4-0.6-4.4-1.8s-1.6-2.8-1.6-4.7V468.6z M209.2,468.8c0,1.2,0.2,2.1,0.6,2.8
		s1.1,1,2,1c0.9,0,1.5-0.4,1.9-1.1s0.6-1.6,0.6-2.8v-0.2c0-1.1-0.2-2-0.6-2.8s-1.1-1.1-2-1.1s-1.5,0.4-1.9,1.1s-0.6,1.6-0.6,2.8
		V468.8z"/>
</g>
<g class="st1">
	<path class="st2" d="M224.2,464.4l-1.2,0.2l1.7,5.7l0.2,1.2h0.1l0.2-1.2l1.7-5.7l-1.2-0.2v-2.1h5.8v2.1l-1.1,0.2l-3.7,10.4h-3.3
		l-3.8-10.4l-1.1-0.2v-2.1h5.8V464.4z"/>
</g>
<g class="st1">
	<path class="st2" d="M238.2,475.3c-1.8,0-3.3-0.6-4.4-1.8s-1.6-2.7-1.6-4.5v-0.5c0-1.9,0.5-3.4,1.6-4.7s2.4-1.8,4.2-1.8
		c1.7,0,3,0.5,4,1.5s1.4,2.4,1.4,4.2v1.9h-7.6l0,0.1c0.1,0.8,0.3,1.5,0.8,2.1s1.2,0.8,2,0.8c0.8,0,1.4-0.1,1.9-0.2s1-0.4,1.6-0.7
		l0.9,2.1c-0.5,0.4-1.2,0.8-2,1S239.2,475.3,238.2,475.3z M237.9,464.8c-0.6,0-1.1,0.2-1.5,0.7s-0.6,1.1-0.7,1.9l0,0.1h4.2v-0.3
		c0-0.7-0.2-1.3-0.5-1.7S238.6,464.8,237.9,464.8z"/>
</g>
<g class="st1">
	<path class="st2" d="M253.1,473.5c-0.4,0.6-0.9,1-1.4,1.3s-1.2,0.5-1.9,0.5c-1.6,0-2.8-0.6-3.6-1.7s-1.3-2.6-1.3-4.5v-0.2
		c0-2,0.4-3.6,1.3-4.8s2.1-1.8,3.7-1.8c0.6,0,1.2,0.1,1.7,0.4s1,0.7,1.3,1.2v-4.5l-1.8-0.4v-2.1h1.8h3.4v15.9l1.6,0.4v2.1h-4.6
		L253.1,473.5z M248.3,469.1c0,1.1,0.2,2,0.6,2.6s1,1,1.8,1c0.5,0,0.9-0.1,1.3-0.3s0.7-0.5,0.9-0.9v-5.4c-0.2-0.4-0.5-0.7-0.9-0.9
		s-0.8-0.3-1.3-0.3c-0.8,0-1.4,0.4-1.8,1.1s-0.6,1.7-0.6,2.9V469.1z"/>
</g>
<g class="st1">
	<path class="st2" d="M265.1,473l1.7-0.4v-7.9h-1.9v-2.4h1.9V461c0-1.4,0.4-2.5,1.2-3.3s2-1.2,3.5-1.2c0.3,0,0.6,0,0.9,0.1
		s0.6,0.1,1,0.2l-0.3,2.5c-0.2,0-0.4-0.1-0.5-0.1s-0.4,0-0.6,0c-0.6,0-1,0.2-1.3,0.5s-0.4,0.7-0.4,1.3v1.4h2.5v2.4h-2.5v7.9l1.7,0.4
		v2.1h-6.7V473z"/>
</g>
<g class="st1">
	<path class="st2" d="M273.6,468.6c0-1.9,0.5-3.4,1.6-4.6s2.5-1.8,4.4-1.8c1.9,0,3.3,0.6,4.4,1.8s1.6,2.8,1.6,4.7v0.2
		c0,1.9-0.5,3.5-1.6,4.7s-2.5,1.8-4.4,1.8c-1.9,0-3.4-0.6-4.4-1.8s-1.6-2.8-1.6-4.7V468.6z M277,468.8c0,1.2,0.2,2.1,0.6,2.8
		s1.1,1,2,1c0.9,0,1.5-0.4,1.9-1.1s0.6-1.6,0.6-2.8v-0.2c0-1.1-0.2-2-0.6-2.8s-1.1-1.1-2-1.1s-1.5,0.4-1.9,1.1s-0.6,1.6-0.6,2.8
		V468.8z"/>
</g>
<g class="st1">
	<path class="st2" d="M286.7,473l1.6-0.4v-7.9l-1.8-0.4v-2.1h5l0.2,1.9c0.3-0.7,0.7-1.2,1.1-1.5s1-0.6,1.6-0.6c0.2,0,0.4,0,0.6,0
		s0.4,0.1,0.5,0.1l-0.4,3.1l-1.4,0c-0.5,0-0.9,0.1-1.2,0.3s-0.6,0.5-0.8,0.8v6.2l1.6,0.4v2.1h-6.7V473z"/>
</g>
<g class="st1">
	<path class="st2" d="M310.5,475c-0.1-0.2-0.2-0.4-0.2-0.7s-0.1-0.4-0.2-0.7c-0.4,0.5-0.9,0.8-1.5,1.1s-1.2,0.4-2,0.4
		c-1.2,0-2.2-0.3-3-1s-1.1-1.6-1.1-2.8c0-1.2,0.5-2.1,1.4-2.8s2.4-1,4.2-1h1.7v-1.2c0-0.6-0.2-1.1-0.5-1.4s-0.9-0.5-1.6-0.5
		c-0.4,0-0.7,0-1,0.1s-0.6,0.2-0.7,0.3l-0.2,1.4h-2.6l0-2.8c0.6-0.4,1.3-0.8,2.2-1.1s1.7-0.4,2.6-0.4c1.6,0,2.8,0.4,3.8,1.2
		s1.5,1.9,1.5,3.3v5.2c0,0.2,0,0.4,0,0.6s0,0.3,0,0.5l1,0.1v2.1H310.5z M307.5,472.8c0.5,0,1-0.1,1.4-0.3s0.8-0.5,1-0.8v-1.9h-1.7
		c-0.7,0-1.3,0.2-1.7,0.5s-0.6,0.7-0.6,1.2c0,0.4,0.1,0.8,0.4,1S307.1,472.8,307.5,472.8z"/>
</g>
<g class="st1">
	<path class="st2" d="M315.6,473l1.6-0.4v-7.9l-1.8-0.4v-2.1h5l0.2,1.8c0.4-0.6,0.9-1.2,1.6-1.5s1.3-0.5,2.1-0.5
		c1.3,0,2.3,0.4,3,1.2s1.1,2.1,1.1,3.8v5.5l1.6,0.4v2.1h-6.5V473l1.5-0.4v-5.5c0-0.9-0.2-1.5-0.5-1.8s-0.9-0.5-1.6-0.5
		c-0.5,0-0.9,0.1-1.2,0.3s-0.7,0.4-0.9,0.8v6.8l1.4,0.4v2.1h-6.4V473z"/>
</g>
<g class="st1">
	<path class="st2" d="M339.1,475c-0.1-0.2-0.2-0.4-0.2-0.7s-0.1-0.4-0.2-0.7c-0.4,0.5-0.9,0.8-1.5,1.1s-1.2,0.4-2,0.4
		c-1.2,0-2.2-0.3-3-1s-1.1-1.6-1.1-2.8c0-1.2,0.5-2.1,1.4-2.8s2.4-1,4.2-1h1.7v-1.2c0-0.6-0.2-1.1-0.5-1.4s-0.9-0.5-1.6-0.5
		c-0.4,0-0.7,0-1,0.1s-0.6,0.2-0.7,0.3l-0.2,1.4h-2.6l0-2.8c0.6-0.4,1.3-0.8,2.2-1.1s1.7-0.4,2.6-0.4c1.6,0,2.8,0.4,3.8,1.2
		s1.5,1.9,1.5,3.3v5.2c0,0.2,0,0.4,0,0.6s0,0.3,0,0.5l1,0.1v2.1H339.1z M336.1,472.8c0.5,0,1-0.1,1.4-0.3s0.8-0.5,1-0.8v-1.9h-1.7
		c-0.7,0-1.3,0.2-1.7,0.5s-0.6,0.7-0.6,1.2c0,0.4,0.1,0.8,0.4,1S335.6,472.8,336.1,472.8z"/>
</g>
<g class="st1">
	<path class="st2" d="M344,458.8v-2.1h5.2v15.9l1.7,0.4v2.1h-6.7V473l1.7-0.4v-13.5L344,458.8z"/>
</g>
<g class="st1">
	<path class="st2" d="M368.3,466.7H366l-0.4-1.6c-0.2-0.2-0.5-0.3-0.9-0.5s-0.7-0.2-1.2-0.2c-0.6,0-1.1,0.1-1.4,0.4s-0.5,0.6-0.5,1
		c0,0.4,0.2,0.7,0.5,1s1,0.5,2,0.7c1.6,0.3,2.7,0.8,3.5,1.4s1.1,1.4,1.1,2.5c0,1.1-0.5,2.1-1.5,2.8s-2.3,1.1-3.9,1.1
		c-1,0-1.9-0.1-2.7-0.4s-1.5-0.7-2.2-1.2l0-2.8h2.4l0.5,1.7c0.2,0.2,0.5,0.3,0.8,0.4s0.7,0.1,1.1,0.1c0.7,0,1.2-0.1,1.6-0.4
		s0.5-0.6,0.5-1c0-0.4-0.2-0.7-0.6-1s-1-0.5-2-0.7c-1.5-0.3-2.6-0.8-3.4-1.4s-1.1-1.4-1.1-2.4c0-1.1,0.4-2,1.3-2.7s2.1-1.2,3.7-1.2
		c1,0,1.9,0.1,2.8,0.4s1.6,0.6,2.1,1L368.3,466.7z"/>
</g>
<g class="st1">
	<path class="st2" d="M376.1,475.3c-1.8,0-3.3-0.6-4.4-1.8s-1.6-2.7-1.6-4.5v-0.5c0-1.9,0.5-3.4,1.6-4.7s2.4-1.8,4.2-1.8
		c1.7,0,3,0.5,4,1.5s1.4,2.4,1.4,4.2v1.9h-7.6l0,0.1c0.1,0.8,0.3,1.5,0.8,2.1s1.2,0.8,2,0.8c0.8,0,1.4-0.1,1.9-0.2s1-0.4,1.6-0.7
		l0.9,2.1c-0.5,0.4-1.2,0.8-2,1S377.2,475.3,376.1,475.3z M375.8,464.8c-0.6,0-1.1,0.2-1.5,0.7s-0.6,1.1-0.7,1.9l0,0.1h4.2v-0.3
		c0-0.7-0.2-1.3-0.5-1.7S376.5,464.8,375.8,464.8z"/>
</g>
<g class="st1">
	<path class="st2" d="M382.4,473l1.2-0.2l3.4-4.2l-3.3-4l-1.2-0.2v-2.1h5.7v2l-1.2,0.1l1.9,2.4l1.9-2.4l-1.2-0.1v-2h5.7v2.1
		l-1.1,0.2l-3.3,4l3.4,4.2l1.2,0.2v2.1h-5.8v-2l1.2-0.1l-2-2.6l-2,2.6l1,0.1v2h-5.6V473z"/>
</g>
<g class="st1">
	<path class="st2" d="M401.1,475h-3.4v-3h3.4V475z"/>
</g>
</svg>
