<?xml version="1.0" encoding="utf-8"?>
<!-- Generator: Adobe Illustrator 22.0.1, SVG Export Plug-In . SVG Version: 6.00 Build 0)  -->
<!DOCTYPE svg PUBLIC "-//W3C//DTD SVG 1.1//EN" "http://www.w3.org/Graphics/SVG/1.1/DTD/svg11.dtd">
<svg version="1.1" id="Layer_1" xmlns="http://www.w3.org/2000/svg" xmlns:xlink="http://www.w3.org/1999/xlink" x="0px" y="0px"
	 viewBox="0 0 611.8 611.8" style="enable-background:new 0 0 611.8 611.8;" xml:space="preserve">
<style type="text/css">
	.st0{fill:#F5FAF8;stroke:#6DC065;stroke-width:11.8;stroke-linecap:round;stroke-linejoin:round;}
	.st1{fill:#6DC065;}
</style>
<title>std web mockupsasfd</title>
<path class="st0" d="M305.9,5.9L305.9,5.9c165.7,0,300,134.3,300,300l0,0c0,165.7-134.3,300-300,300l0,0c-165.7,0-300-134.3-300-300
	l0,0C5.9,140.2,140.2,5.9,305.9,5.9z"/>
<path class="st1" d="M183.5,110.9h-7.7v6.5h7.3l0.2-2.7h3.5v6.2h-18v-2.7l2.4-0.5v-16.3l-2.4-0.5v-2.8h2.4h15.5v6.2h-3.5l-0.2-2.7
	h-7.3v5.7h7.7v3.6H183.5z"/>
<path class="st1" d="M188.7,118.2l1.6-0.2l4.6-5.6l-4.4-5.3l-1.6-0.3V104h7.6v2.6l-1.5,0.2l2.6,3.2l2.5-3.2l-1.6-0.2V104h7.6v2.8
	l-1.5,0.3l-4.3,5.3l4.6,5.6l1.6,0.2v2.7h-7.7v-2.6l1.5-0.2l-2.6-3.4l-2.7,3.4l1.4,0.2v2.6h-7.5v-2.7H188.7z"/>
<path class="st1" d="M214.6,99.9v4.1h3v3.2h-3v8.6c0,0.7,0.1,1.1,0.4,1.4c0.3,0.3,0.6,0.4,1.1,0.4c0.3,0,0.6,0,0.8,0
	s0.5-0.1,0.8-0.1l0.4,3.3c-0.5,0.2-1,0.3-1.5,0.4s-1,0.1-1.6,0.1c-1.6,0-2.8-0.4-3.6-1.3s-1.3-2.2-1.3-4.1v-8.6h-2.5V104h2.5v-4.1
	H214.6z"/>
<path class="st1" d="M227.2,121.2c-2.4,0-4.4-0.8-5.8-2.3c-1.5-1.6-2.2-3.5-2.2-6v-0.6c0-2.5,0.7-4.6,2.1-6.2
	c1.4-1.6,3.2-2.4,5.6-2.4c2.3,0,4.1,0.7,5.3,2.1c1.3,1.4,1.9,3.2,1.9,5.6v2.5H224v0.1c0.1,1.1,0.5,2,1.1,2.8
	c0.7,0.7,1.6,1.1,2.7,1.1c1,0,1.8-0.1,2.5-0.3c0.7-0.2,1.4-0.5,2.2-1l1.2,2.8c-0.7,0.6-1.6,1-2.7,1.4S228.5,121.2,227.2,121.2z
	 M226.8,107.2c-0.8,0-1.5,0.3-2,1c-0.5,0.6-0.8,1.5-0.9,2.5v0.1h5.6v-0.4c0-1-0.2-1.7-0.7-2.3S227.7,107.2,226.8,107.2z"/>
<path class="st1" d="M235.8,118.2l2.2-0.5v-10.5l-2.4-0.5V104h6.7l0.2,2.5c0.4-0.9,0.9-1.6,1.5-2c0.6-0.5,1.3-0.7,2.2-0.7
	c0.2,0,0.5,0,0.8,0.1c0.3,0,0.5,0.1,0.7,0.1l-0.5,4.2h-1.9c-0.7,0-1.2,0.1-1.7,0.4c-0.4,0.3-0.8,0.6-1,1.1v8.2l2.2,0.5v2.7h-8.9
	v-2.9H235.8z"/>
<path class="st1" d="M249.1,118.2l2.2-0.5v-10.5l-2.4-0.5V104h6.7l0.2,2.4c0.6-0.9,1.3-1.5,2.1-2s1.7-0.7,2.8-0.7c1.7,0,3,0.5,4,1.6
	s1.4,2.8,1.4,5v7.4l2.2,0.5v2.7h-8.7v-2.7l2-0.5v-7.3c0-1.1-0.2-1.9-0.7-2.4s-1.2-0.7-2.1-0.7c-0.6,0-1.1,0.1-1.6,0.4
	c-0.5,0.2-0.9,0.6-1.2,1v9.1l1.8,0.5v2.7h-8.6L249.1,118.2L249.1,118.2z"/>
<path class="st1" d="M280.3,120.9c-0.1-0.3-0.2-0.6-0.3-0.9s-0.2-0.6-0.2-0.9c-0.5,0.6-1.2,1.1-2,1.5s-1.7,0.6-2.7,0.6
	c-1.7,0-3-0.5-3.9-1.4c-1-0.9-1.5-2.1-1.5-3.7s0.6-2.8,1.9-3.7c1.3-0.9,3.1-1.3,5.6-1.3h2.3v-1.7c0-0.8-0.2-1.4-0.7-1.9
	c-0.5-0.4-1.2-0.7-2.1-0.7c-0.5,0-1,0.1-1.4,0.2s-0.7,0.3-1,0.4l-0.3,1.8h-3.4v-3.8c0.8-0.6,1.8-1,2.9-1.4s2.3-0.6,3.5-0.6
	c2.1,0,3.8,0.5,5.1,1.5c1.3,1,2,2.5,2,4.4v7c0,0.3,0,0.5,0,0.7s0,0.4,0.1,0.7l1.4,0.2v2.7h-5.3V120.9z M276.4,117.9
	c0.7,0,1.3-0.1,1.9-0.4s1-0.7,1.3-1.1v-2.6h-2.3c-1,0-1.7,0.2-2.2,0.7s-0.8,1-0.8,1.6s0.2,1,0.6,1.3
	C275.2,117.7,275.7,117.9,276.4,117.9z"/>
<path class="st1" d="M286.8,99.3v-2.8h7v21.2l2.2,0.5v2.7h-9v-2.7l2.2-0.5v-18L286.8,99.3z"/>
<path class="st1" d="M323.9,105.8h-3.4l-0.5-3c-0.4-0.4-1-0.8-1.7-1.1c-0.7-0.3-1.5-0.4-2.4-0.4c-2,0-3.5,0.7-4.6,2.2
	c-1.1,1.4-1.6,3.3-1.6,5.6v0.8c0,2.3,0.5,4.2,1.6,5.6s2.6,2.2,4.5,2.2c0.9,0,1.7-0.1,2.5-0.4c0.7-0.3,1.3-0.6,1.7-1.1l0.5-3h3.4v4.5
	c-0.9,1.1-2.1,1.9-3.5,2.5s-3,0.9-4.8,0.9c-3.1,0-5.6-1.1-7.5-3.2s-2.9-4.8-2.9-8.1V109c0-3.3,1-6,2.9-8.1s4.4-3.2,7.5-3.2
	c1.8,0,3.3,0.3,4.8,1c1.4,0.6,2.6,1.5,3.5,2.5V105.8z"/>
<path class="st1" d="M325.8,112.3c0-2.5,0.7-4.6,2.1-6.2s3.4-2.4,5.9-2.4s4.5,0.8,5.9,2.4s2.1,3.7,2.1,6.2v0.3
	c0,2.5-0.7,4.6-2.1,6.2s-3.4,2.4-5.8,2.4c-2.5,0-4.5-0.8-5.9-2.4s-2.1-3.7-2.1-6.2v-0.3H325.8z M330.4,112.6c0,1.5,0.3,2.8,0.8,3.7
	c0.5,0.9,1.4,1.4,2.6,1.4s2-0.5,2.6-1.4s0.8-2.2,0.8-3.7v-0.3c0-1.5-0.3-2.7-0.8-3.7c-0.6-0.9-1.4-1.4-2.6-1.4s-2.1,0.5-2.6,1.4
	s-0.8,2.2-0.8,3.7V112.6z"/>
<path class="st1" d="M343,118.2l2.2-0.5v-10.5l-2.4-0.5V104h6.7l0.2,2.4c0.6-0.9,1.3-1.5,2.1-2c0.8-0.5,1.7-0.7,2.8-0.7
	c1.7,0,3,0.5,4,1.6s1.4,2.8,1.4,5v7.4l2.2,0.5v2.7h-8.7v-2.7l2-0.5v-7.3c0-1.1-0.2-1.9-0.7-2.4s-1.2-0.7-2.1-0.7
	c-0.6,0-1.1,0.1-1.6,0.4c-0.5,0.2-0.9,0.6-1.2,1v9.1l1.8,0.5v2.7H343V118.2z"/>
<path class="st1" d="M374.1,118.8c-0.5,0.8-1.2,1.4-1.9,1.8s-1.5,0.6-2.5,0.6c-2.1,0-3.7-0.8-4.9-2.3c-1.2-1.5-1.7-3.5-1.7-6v-0.3
	c0-2.7,0.6-4.8,1.7-6.5c1.2-1.6,2.8-2.5,4.9-2.5c0.8,0,1.6,0.2,2.3,0.6c0.7,0.4,1.3,0.9,1.8,1.6v-6.1l-2.4-0.5v-2.8h2.4h4.6v21.2
	l2.2,0.5v2.7h-6.1L374.1,118.8z M367.7,112.9c0,1.5,0.2,2.6,0.7,3.5c0.5,0.8,1.3,1.3,2.4,1.3c0.7,0,1.2-0.1,1.7-0.4s0.9-0.7,1.2-1.2
	v-7.2c-0.3-0.5-0.7-1-1.2-1.3s-1.1-0.4-1.7-0.4c-1.1,0-1.9,0.5-2.4,1.5s-0.8,2.3-0.8,3.9L367.7,112.9L367.7,112.9z"/>
<path class="st1" d="M381.5,112.3c0-2.5,0.7-4.6,2.1-6.2s3.4-2.4,5.9-2.4s4.5,0.8,5.9,2.4s2.1,3.7,2.1,6.2v0.3
	c0,2.5-0.7,4.6-2.1,6.2s-3.4,2.4-5.8,2.4c-2.5,0-4.5-0.8-5.9-2.4s-2.1-3.7-2.1-6.2v-0.3H381.5z M386,112.6c0,1.5,0.3,2.8,0.8,3.7
	c0.5,0.9,1.4,1.4,2.6,1.4s2-0.5,2.6-1.4s0.8-2.2,0.8-3.7v-0.3c0-1.5-0.3-2.7-0.8-3.7c-0.6-0.9-1.4-1.4-2.6-1.4s-2.1,0.5-2.6,1.4
	s-0.8,2.2-0.8,3.7V112.6z"/>
<path class="st1" d="M398.4,106.7V104h6.7l0.2,2.2c0.5-0.8,1.2-1.4,2-1.9c0.8-0.4,1.8-0.7,2.8-0.7c1.1,0,2,0.2,2.8,0.7
	s1.4,1.2,1.8,2.2c0.5-0.9,1.2-1.6,2-2.1s1.8-0.8,2.9-0.8c1.7,0,3,0.6,3.9,1.7c1,1.2,1.4,2.9,1.4,5.3v7l2.2,0.5v2.7h-8.7v-2.7l2-0.5
	v-7c0-1.3-0.2-2.2-0.6-2.7s-1-0.8-1.9-0.8c-0.6,0-1.2,0.1-1.7,0.4s-0.9,0.7-1.1,1.2c0,0.2,0,0.4,0,0.5s0,0.3,0,0.4v7.9l1.8,0.5v2.7
	h-8.2V118l1.8-0.5v-7c0-1.2-0.2-2.1-0.6-2.6s-1-0.8-1.9-0.8c-0.6,0-1.2,0.1-1.6,0.4c-0.5,0.2-0.8,0.6-1.1,1v9.1l2,0.5v2.7h-8.7v-2.7
	l2.2-0.5v-10.5L398.4,106.7z"/>
<path class="st1" d="M442.1,109.8H439l-0.5-2.1c-0.3-0.2-0.7-0.5-1.2-0.6c-0.5-0.2-1-0.2-1.6-0.2c-0.8,0-1.4,0.2-1.9,0.5
	s-0.7,0.8-0.7,1.4c0,0.5,0.2,0.9,0.7,1.3c0.4,0.3,1.3,0.6,2.7,0.9c2.1,0.4,3.6,1,4.7,1.8c1,0.8,1.5,1.9,1.5,3.3c0,1.5-0.7,2.8-2,3.7
	c-1.3,1-3,1.4-5.2,1.4c-1.3,0-2.5-0.2-3.6-0.6s-2.1-0.9-2.9-1.6v-3.8h3.2l0.6,2.2c0.3,0.2,0.6,0.4,1.1,0.5s1,0.2,1.5,0.2
	c0.9,0,1.6-0.2,2.1-0.5s0.7-0.8,0.7-1.4c0-0.5-0.2-0.9-0.7-1.3s-1.4-0.7-2.7-1c-2-0.4-3.5-1-4.5-1.8s-1.5-1.9-1.5-3.3
	s0.6-2.6,1.8-3.7c1.2-1,2.8-1.5,5-1.5c1.3,0,2.6,0.2,3.7,0.5c1.2,0.4,2.1,0.8,2.8,1.4V109.8z"/>
<path class="st1" d="M156.7,161.4c1.9,0,3.5,0.4,4.6,1.3s1.7,2.1,1.7,3.7c0,0.9-0.2,1.6-0.7,2.2s-1.1,1.1-2,1.5
	c1,0.3,1.7,0.8,2.2,1.5s0.7,1.5,0.7,2.6v0.9c0,0.4,0.1,0.7,0.2,0.9s0.4,0.3,0.7,0.4l0.4,0.1v2.1h-1.8c-1.1,0-1.9-0.3-2.4-0.9
	s-0.7-1.4-0.7-2.3v-1c0-0.8-0.2-1.5-0.7-2s-1.1-0.7-1.9-0.7h-2.8v4.5l1.8,0.4v2.1h-7v-2.1l1.8-0.4V164l-1.8-0.4v-2.1h1.8h5.9V161.4z
	 M154.3,169h2.4c1,0,1.7-0.2,2.1-0.6s0.7-1,0.7-1.8s-0.2-1.4-0.7-1.8s-1.2-0.7-2.1-0.7h-2.4V169z"/>
<path class="st1" d="M165.2,172c0-1.9,0.5-3.4,1.6-4.6s2.5-1.8,4.4-1.8s3.3,0.6,4.4,1.8s1.6,2.8,1.6,4.7v0.2c0,1.9-0.5,3.5-1.6,4.7
	s-2.5,1.8-4.4,1.8s-3.4-0.6-4.4-1.8s-1.6-2.8-1.6-4.7V172z M168.6,172.3c0,1.2,0.2,2.1,0.6,2.8s1.1,1,2,1s1.5-0.4,1.9-1.1
	s0.6-1.6,0.6-2.8V172c0-1.1-0.2-2-0.6-2.8s-1.1-1.1-2-1.1s-1.5,0.4-1.9,1.1s-0.6,1.6-0.6,2.8V172.3z"/>
<path class="st1" d="M177.8,162.3v-2.1h5.2v15.9l1.7,0.4v2.1H178v-2.1l1.7-0.4v-13.5L177.8,162.3z"/>
<path class="st1" d="M185.7,162.3v-2.1h5.2v15.9l1.7,0.4v2.1h-6.7v-2.1l1.7-0.4v-13.5L185.7,162.3z"/>
<path class="st1" d="M199.4,178.7c-1.8,0-3.3-0.6-4.4-1.8s-1.6-2.7-1.6-4.5v-0.5c0-1.9,0.5-3.4,1.6-4.7s2.4-1.8,4.2-1.8
	c1.7,0,3,0.5,4,1.5s1.4,2.4,1.4,4.2v1.9H197v0.1c0.1,0.8,0.3,1.5,0.8,2.1s1.2,0.8,2,0.8s1.4-0.1,1.9-0.2s1-0.4,1.6-0.7l0.9,2.1
	c-0.5,0.4-1.2,0.8-2,1S200.4,178.7,199.4,178.7z M199.1,168.2c-0.6,0-1.1,0.2-1.5,0.7s-0.6,1.1-0.7,1.9v0.1h4.2v-0.3
	c0-0.7-0.2-1.3-0.5-1.7S199.8,168.2,199.1,168.2z"/>
<path class="st1" d="M214.3,177c-0.4,0.6-0.9,1-1.4,1.3s-1.2,0.5-1.9,0.5c-1.6,0-2.8-0.6-3.6-1.7s-1.3-2.6-1.3-4.5v-0.2
	c0-2,0.4-3.6,1.3-4.8s2.1-1.8,3.7-1.8c0.6,0,1.2,0.1,1.7,0.4s1,0.7,1.3,1.2v-4.5l-1.8-0.4v-2.1h1.8h3.4v15.9l1.6,0.4v2.1h-4.6
	L214.3,177z M209.5,172.5c0,1.1,0.2,2,0.6,2.6s1,1,1.8,1c0.5,0,0.9-0.1,1.3-0.3s0.7-0.5,0.9-0.9v-5.4c-0.2-0.4-0.5-0.7-0.9-0.9
	s-0.8-0.3-1.3-0.3c-0.8,0-1.4,0.4-1.8,1.1s-0.6,1.7-0.6,2.9V172.5z"/>
<path class="st1" d="M226.1,172c0-1.9,0.5-3.4,1.6-4.6s2.5-1.8,4.4-1.8s3.3,0.6,4.4,1.8s1.6,2.8,1.6,4.7v0.2c0,1.9-0.5,3.5-1.6,4.7
	s-2.5,1.8-4.4,1.8s-3.4-0.6-4.4-1.8s-1.6-2.8-1.6-4.7V172z M229.5,172.3c0,1.2,0.2,2.1,0.6,2.8s1.1,1,2,1s1.5-0.4,1.9-1.1
	s0.6-1.6,0.6-2.8V172c0-1.1-0.2-2-0.6-2.8s-1.1-1.1-2-1.1s-1.5,0.4-1.9,1.1s-0.6,1.6-0.6,2.8V172.3z"/>
<path class="st1" d="M244.5,167.9l-1.2,0.2l1.7,5.7l0.2,1.2h0.1l0.2-1.2l1.7-5.7l-1.2-0.2v-2.1h5.8v2.1l-1.1,0.2l-3.7,10.4h-3.3
	l-3.8-10.4l-1.1-0.2v-2.1h5.8L244.5,167.9L244.5,167.9z"/>
<path class="st1" d="M258.5,178.7c-1.8,0-3.3-0.6-4.4-1.8s-1.6-2.7-1.6-4.5v-0.5c0-1.9,0.5-3.4,1.6-4.7s2.4-1.8,4.2-1.8
	c1.7,0,3,0.5,4,1.5s1.4,2.4,1.4,4.2v1.9H256v0.1c0.1,0.8,0.3,1.5,0.8,2.1s1.2,0.8,2,0.8s1.4-0.1,1.9-0.2s1-0.4,1.6-0.7l0.9,2.1
	c-0.5,0.4-1.2,0.8-2,1S259.5,178.7,258.5,178.7z M258.2,168.2c-0.6,0-1.1,0.2-1.5,0.7s-0.6,1.1-0.7,1.9v0.1h4.2v-0.3
	c0-0.7-0.2-1.3-0.5-1.7S258.9,168.2,258.2,168.2z"/>
<path class="st1" d="M265,176.4l1.6-0.4v-7.9l-1.8-0.4v-2.1h5l0.2,1.9c0.3-0.7,0.7-1.2,1.1-1.5s1-0.6,1.6-0.6c0.2,0,0.4,0,0.6,0
	s0.4,0.1,0.5,0.1l-0.4,3.1H272c-0.5,0-0.9,0.1-1.2,0.3s-0.6,0.5-0.8,0.8v6.2l1.6,0.4v2.1H265V176.4z"/>
<path class="st1" d="M286.8,178.7c-1.8,0-3.3-0.6-4.4-1.8s-1.6-2.7-1.6-4.5v-0.5c0-1.9,0.5-3.4,1.6-4.7s2.4-1.8,4.2-1.8
	c1.7,0,3,0.5,4,1.5s1.4,2.4,1.4,4.2v1.9h-7.6v0.1c0.1,0.8,0.3,1.5,0.8,2.1s1.2,0.8,2,0.8s1.4-0.1,1.9-0.2s1-0.4,1.6-0.7l0.9,2.1
	c-0.5,0.4-1.2,0.8-2,1S287.8,178.7,286.8,178.7z M286.5,168.2c-0.6,0-1.1,0.2-1.5,0.7s-0.6,1.1-0.7,1.9v0.1h4.2v-0.3
	c0-0.7-0.2-1.3-0.5-1.7S287.2,168.2,286.5,168.2z"/>
<path class="st1" d="M293.1,176.4l1.2-0.2l3.4-4.2l-3.3-4l-1.2-0.2v-2.1h5.7v2l-1.2,0.1l1.9,2.4l1.9-2.4l-1.2-0.1v-2h5.7v2.1
	l-1.1,0.2l-3.3,4l3.4,4.2l1.2,0.2v2.1h-5.8v-2l1.2-0.1l-2-2.6l-2,2.6l1,0.1v2H293L293.1,176.4L293.1,176.4z"/>
<path class="st1" d="M312.5,162.7v3.1h2.2v2.4h-2.2v6.5c0,0.5,0.1,0.8,0.3,1.1s0.5,0.3,0.8,0.3c0.2,0,0.4,0,0.6,0s0.4-0.1,0.6-0.1
	l0.3,2.5c-0.4,0.1-0.8,0.2-1.1,0.3s-0.8,0.1-1.2,0.1c-1.2,0-2.1-0.3-2.7-1s-1-1.7-1-3.1v-6.5h-1.9v-2.4h1.9v-3.1h3.4V162.7z"/>
<path class="st1" d="M322,178.7c-1.8,0-3.3-0.6-4.4-1.8s-1.6-2.7-1.6-4.5v-0.5c0-1.9,0.5-3.4,1.6-4.7s2.4-1.8,4.2-1.8
	c1.7,0,3,0.5,4,1.5s1.4,2.4,1.4,4.2v1.9h-7.6v0.1c0.1,0.8,0.3,1.5,0.8,2.1s1.2,0.8,2,0.8s1.4-0.1,1.9-0.2s1-0.4,1.6-0.7l0.9,2.1
	c-0.5,0.4-1.2,0.8-2,1S323.1,178.7,322,178.7z M321.7,168.2c-0.6,0-1.1,0.2-1.5,0.7s-0.6,1.1-0.7,1.9v0.1h4.2v-0.3
	c0-0.7-0.2-1.3-0.5-1.7S322.4,168.2,321.7,168.2z"/>
<path class="st1" d="M328.6,176.4l1.6-0.4v-7.9l-1.8-0.4v-2.1h5l0.2,1.9c0.3-0.7,0.7-1.2,1.1-1.5s1-0.6,1.6-0.6c0.2,0,0.4,0,0.6,0
	s0.4,0.1,0.5,0.1l-0.4,3.1h-1.4c-0.5,0-0.9,0.1-1.2,0.3s-0.6,0.5-0.8,0.8v6.2l1.6,0.4v2.1h-6.7L328.6,176.4L328.6,176.4z"/>
<path class="st1" d="M338.6,176.4l1.6-0.4v-7.9l-1.8-0.4v-2.1h5l0.2,1.8c0.4-0.6,0.9-1.2,1.6-1.5s1.3-0.5,2.1-0.5
	c1.3,0,2.3,0.4,3,1.2s1.1,2.1,1.1,3.8v5.5l1.6,0.4v2.1h-6.5v-2.1l1.5-0.4v-5.5c0-0.9-0.2-1.5-0.5-1.8s-0.9-0.5-1.6-0.5
	c-0.5,0-0.9,0.1-1.2,0.3s-0.7,0.4-0.9,0.8v6.8l1.4,0.4v2.1h-6.4v-2.1H338.6z"/>
<path class="st1" d="M362.1,178.5c-0.1-0.2-0.2-0.4-0.2-0.7s-0.1-0.4-0.2-0.7c-0.4,0.5-0.9,0.8-1.5,1.1s-1.2,0.4-2,0.4
	c-1.2,0-2.2-0.3-3-1s-1.1-1.6-1.1-2.8s0.5-2.1,1.4-2.8s2.4-1,4.2-1h1.7v-1c0-0.6-0.2-1.1-0.5-1.4s-0.9-0.5-1.6-0.5
	c-0.4,0-0.7,0-1,0.1s-0.6,0.2-0.7,0.3l-0.2,1.4h-2.6v-2.8c0.6-0.4,1.3-0.8,2.2-1.1s1.7-0.4,2.6-0.4c1.6,0,2.8,0.4,3.8,1.2
	s1.5,1.9,1.5,3.3v5.2c0,0.2,0,0.4,0,0.6s0,0.3,0,0.5l1,0.1v2.1h-3.8V178.5z M359.1,176.2c0.5,0,1-0.1,1.4-0.3s0.8-0.5,1-0.8v-1.9
	h-1.7c-0.7,0-1.3,0.2-1.7,0.5s-0.6,0.7-0.6,1.2c0,0.4,0.1,0.8,0.4,1S358.6,176.2,359.1,176.2z"/>
<path class="st1" d="M367,162.3v-2.1h5.2v15.9l1.7,0.4v2.1h-6.7v-2.1l1.7-0.4v-13.5L367,162.3z"/>
<path class="st1" d="M129.3,201.1c0-2,0.4-3.6,1.3-4.8s2.1-1.8,3.7-1.8c0.7,0,1.3,0.2,1.9,0.5s1,0.8,1.4,1.4l0.2-1.6h3v12.3
	c0,1.7-0.5,3-1.6,4s-2.5,1.5-4.3,1.5c-0.6,0-1.3-0.1-2-0.3s-1.4-0.4-2-0.7l0.6-2.4c0.5,0.2,1.1,0.4,1.6,0.6s1.1,0.2,1.7,0.2
	c0.8,0,1.5-0.3,1.9-0.8s0.6-1.2,0.6-2.1v-0.8c-0.4,0.5-0.8,0.8-1.3,1.1s-1.1,0.4-1.7,0.4c-1.6,0-2.8-0.6-3.6-1.7s-1.3-2.7-1.3-4.5
	L129.3,201.1L129.3,201.1z M132.7,201.3c0,1.1,0.2,2,0.6,2.6s1,1,1.8,1c0.5,0,1-0.1,1.3-0.3s0.7-0.5,0.9-0.8v-5.5
	c-0.2-0.4-0.5-0.7-0.9-0.9s-0.8-0.3-1.3-0.3c-0.8,0-1.4,0.4-1.8,1.1s-0.6,1.7-0.6,2.9V201.3z"/>
<path class="st1" d="M148.8,207.5c-1.8,0-3.3-0.6-4.4-1.8s-1.6-2.7-1.6-4.5v-0.5c0-1.9,0.5-3.4,1.6-4.7s2.4-1.8,4.2-1.8
	c1.7,0,3,0.5,4,1.5s1.4,2.4,1.4,4.2v1.9h-7.6v0.1c0.1,0.8,0.3,1.5,0.8,2.1s1.2,0.8,2,0.8s1.4-0.1,1.9-0.2s1-0.4,1.6-0.7l0.9,2.1
	c-0.5,0.4-1.2,0.8-2,1S149.8,207.5,148.8,207.5z M148.5,197c-0.6,0-1.1,0.2-1.5,0.7s-0.6,1.1-0.7,1.9v0.1h4.2v-0.3
	c0-0.7-0.2-1.3-0.5-1.7S149.2,197,148.5,197z"/>
<path class="st1" d="M155.1,205.2l1.6-0.4V197l-1.8-0.4v-2.1h5l0.2,1.8c0.4-0.6,0.9-1.2,1.6-1.5s1.3-0.5,2.1-0.5
	c1.3,0,2.3,0.4,3,1.2s1.1,2.1,1.1,3.8v5.5l1.6,0.4v2.1H163v-2.1l1.5-0.4v-5.5c0-0.9-0.2-1.5-0.5-1.8s-0.9-0.5-1.6-0.5
	c-0.5,0-0.9,0.1-1.2,0.3s-0.7,0.4-0.9,0.8v6.8l1.4,0.4v2.1h-6.4v-2.2H155.1z"/>
<path class="st1" d="M170.6,205.2l1.7-0.4V197l-1.8-0.4v-2.1h5.2v10.3l1.6,0.4v2.1h-6.7V205.2z M175.7,191.6h-3.4V189h3.4V191.6z"/>
<path class="st1" d="M182.9,191.5v3.1h2.2v2.4h-2.2v6.5c0,0.5,0.1,0.8,0.3,1.1s0.5,0.3,0.8,0.3c0.2,0,0.4,0,0.6,0s0.4-0.1,0.6-0.1
	l0.3,2.5c-0.4,0.1-0.8,0.2-1.1,0.3s-0.8,0.1-1.2,0.1c-1.2,0-2.1-0.3-2.7-1s-1-1.7-1-3.1V197h-1.9v-2.4h1.9v-3.1H182.9z"/>
<path class="st1" d="M194.7,207.3c-0.1-0.2-0.2-0.4-0.2-0.7s-0.1-0.4-0.2-0.7c-0.4,0.5-0.9,0.8-1.5,1.1s-1.2,0.4-2,0.4
	c-1.2,0-2.2-0.3-3-1s-1.1-1.6-1.1-2.8s0.5-2.1,1.4-2.8s2.4-1,4.2-1h1.7v-1.2c0-0.6-0.2-1.1-0.5-1.4s-0.9-0.5-1.6-0.5
	c-0.4,0-0.7,0-1,0.1s-0.6,0.2-0.7,0.3l-0.2,1.4h-2.6v-2.8c0.6-0.4,1.3-0.8,2.2-1.1s1.7-0.4,2.6-0.4c1.6,0,2.8,0.4,3.8,1.2
	s1.5,1.9,1.5,3.3v5.2c0,0.2,0,0.4,0,0.6s0,0.3,0,0.5l1,0.1v2.1L194.7,207.3L194.7,207.3z M191.7,205c0.5,0,1-0.1,1.4-0.3
	s0.8-0.5,1-0.8V202h-1.7c-0.7,0-1.3,0.2-1.7,0.5s-0.6,0.7-0.6,1.2c0,0.4,0.1,0.8,0.4,1S191.2,205,191.7,205z"/>
<path class="st1" d="M199.6,191.1V189h5.2v15.9l1.7,0.4v2.1h-6.7v-2.1l1.7-0.4v-13.5L199.6,191.1z"/>
<path class="st1" d="M207.7,205.2l1.7-0.4V197l-1.8-0.4v-2.1h5.2v10.3l1.6,0.4v2.1h-6.7V205.2z M212.7,191.6h-3.4V189h3.4V191.6z"/>
<path class="st1" d="M223.5,207.3c-0.1-0.2-0.2-0.4-0.2-0.7s-0.1-0.4-0.2-0.7c-0.4,0.5-0.9,0.8-1.5,1.1s-1.2,0.4-2,0.4
	c-1.2,0-2.2-0.3-3-1s-1.1-1.6-1.1-2.8s0.5-2.1,1.4-2.8s2.4-1,4.2-1h1.7v-1.2c0-0.6-0.2-1.1-0.5-1.4s-0.9-0.5-1.6-0.5
	c-0.4,0-0.7,0-1,0.1s-0.6,0.2-0.7,0.3l-0.2,1.4h-2.6v-2.8c0.6-0.4,1.3-0.8,2.2-1.1s1.7-0.4,2.6-0.4c1.6,0,2.8,0.4,3.8,1.2
	s1.5,1.9,1.5,3.3v5.2c0,0.2,0,0.4,0,0.6s0,0.3,0,0.5l1,0.1v2.1L223.5,207.3L223.5,207.3z M220.6,205c0.5,0,1-0.1,1.4-0.3
	s0.8-0.5,1-0.8V202h-1.7c-0.7,0-1.3,0.2-1.7,0.5s-0.6,0.7-0.6,1.2c0,0.4,0.1,0.8,0.4,1S220.1,205,220.6,205z"/>
<path class="st1" d="M232.6,206.8c0,0.8-0.2,1.6-0.7,2.5s-1,1.6-1.6,2.2l-1.7-0.9c0.3-0.5,0.5-1.1,0.7-1.7s0.2-1.2,0.2-2v-2.6h3.1
	V206.8z"/>
<path class="st1" d="M248.5,207.3c-0.1-0.2-0.2-0.4-0.2-0.7s-0.1-0.4-0.2-0.7c-0.4,0.5-0.9,0.8-1.5,1.1s-1.2,0.4-2,0.4
	c-1.2,0-2.2-0.3-3-1s-1.1-1.6-1.1-2.8s0.5-2.1,1.4-2.8s2.4-1,4.2-1h1.7v-1.2c0-0.6-0.2-1.1-0.5-1.4s-0.9-0.5-1.6-0.5
	c-0.4,0-0.7,0-1,0.1s-0.6,0.2-0.7,0.3l-0.2,1.4h-2.6v-2.8c0.6-0.4,1.3-0.8,2.2-1.1s1.7-0.4,2.6-0.4c1.6,0,2.8,0.4,3.8,1.2
	s1.5,1.9,1.5,3.3v5.2c0,0.2,0,0.4,0,0.6s0,0.3,0,0.5l1,0.1v2.1L248.5,207.3L248.5,207.3z M245.6,205c0.5,0,1-0.1,1.4-0.3
	s0.8-0.5,1-0.8V202h-1.7c-0.7,0-1.3,0.2-1.7,0.5s-0.6,0.7-0.6,1.2c0,0.4,0.1,0.8,0.4,1S245.1,205,245.6,205z"/>
<path class="st1" d="M259.3,196.7v-2.1h5l0.2,1.5c0.4-0.5,0.8-1,1.3-1.3s1.1-0.4,1.8-0.4c1.6,0,2.8,0.6,3.7,1.8s1.3,2.8,1.3,4.8v0.2
	c0,1.9-0.4,3.4-1.3,4.5s-2.1,1.7-3.6,1.7c-0.7,0-1.3-0.1-1.8-0.4s-1-0.6-1.3-1.1v3.7l1.7,0.4v2.1h-6.7V210l1.7-0.4V197L259.3,196.7z
	 M269.1,201.1c0-1.2-0.2-2.2-0.6-2.9s-1-1.1-1.8-1.1c-0.5,0-1,0.1-1.3,0.3s-0.7,0.5-0.9,0.9v5.6c0.2,0.4,0.5,0.6,0.9,0.8
	s0.8,0.3,1.3,0.3c0.8,0,1.4-0.3,1.8-1s0.6-1.5,0.6-2.6V201.1z"/>
<path class="st1" d="M280.1,207.5c-1.8,0-3.3-0.6-4.4-1.8s-1.6-2.7-1.6-4.5v-0.5c0-1.9,0.5-3.4,1.6-4.7s2.4-1.8,4.2-1.8
	c1.7,0,3,0.5,4,1.5s1.4,2.4,1.4,4.2v1.9h-7.6v0.1c0.1,0.8,0.3,1.5,0.8,2.1s1.2,0.8,2,0.8s1.4-0.1,1.9-0.2s1-0.4,1.6-0.7l0.9,2.1
	c-0.5,0.4-1.2,0.8-2,1S281.1,207.5,280.1,207.5z M279.8,197c-0.6,0-1.1,0.2-1.5,0.7s-0.6,1.1-0.7,1.9v0.1h4.2v-0.3
	c0-0.7-0.2-1.3-0.5-1.7S280.5,197,279.8,197z"/>
<path class="st1" d="M286.4,205.2l1.6-0.4V197l-1.8-0.4v-2.1h5l0.2,1.8c0.4-0.6,0.9-1.2,1.6-1.5s1.3-0.5,2.1-0.5
	c1.3,0,2.3,0.4,3,1.2s1.1,2.1,1.1,3.8v5.5l1.6,0.4v2.1h-6.5v-2.1l1.5-0.4v-5.5c0-0.9-0.2-1.5-0.5-1.8s-0.9-0.5-1.6-0.5
	c-0.5,0-0.9,0.1-1.2,0.3s-0.7,0.4-0.9,0.8v6.8l1.4,0.4v2.1h-6.4v-2.2H286.4z"/>
<path class="st1" d="M301.9,205.2l1.7-0.4V197l-1.8-0.4v-2.1h5.2v10.3l1.6,0.4v2.1h-6.7L301.9,205.2L301.9,205.2z M307,191.6h-3.4
	V189h3.4V191.6z"/>
<path class="st1" d="M319.9,199h-2.3l-0.4-1.6c-0.2-0.2-0.5-0.3-0.9-0.5s-0.7-0.2-1.2-0.2c-0.6,0-1.1,0.1-1.4,0.4s-0.5,0.6-0.5,1
	s0.2,0.7,0.5,1s1,0.5,2,0.7c1.6,0.3,2.7,0.8,3.5,1.4s1.1,1.4,1.1,2.5s-0.5,2.1-1.5,2.8s-2.3,1.1-3.9,1.1c-1,0-1.9-0.1-2.7-0.4
	s-1.5-0.7-2.2-1.2v-2.8h2.4l0.5,1.7c0.2,0.2,0.5,0.3,0.8,0.4s0.7,0.1,1.1,0.1c0.7,0,1.2-0.1,1.6-0.4s0.5-0.6,0.5-1s-0.2-0.7-0.6-1
	s-1-0.5-2-0.7c-1.5-0.3-2.6-0.8-3.4-1.4s-1.1-1.4-1.1-2.4c0-1.1,0.4-2,1.3-2.7s2.1-1.2,3.7-1.2c1,0,1.9,0.1,2.8,0.4s1.6,0.6,2.1,1
	L319.9,199z"/>
<path class="st1" d="M325.6,206.8c0,0.8-0.2,1.6-0.7,2.5s-1,1.6-1.6,2.2l-1.7-0.9c0.3-0.5,0.5-1.1,0.7-1.7s0.2-1.2,0.2-2v-2.6h3.1
	V206.8z"/>
<path class="st1" d="M333.4,200.8c0-1.9,0.5-3.4,1.6-4.6s2.5-1.8,4.4-1.8s3.3,0.6,4.4,1.8s1.6,2.8,1.6,4.7v0.2
	c0,1.9-0.5,3.5-1.6,4.7s-2.5,1.8-4.4,1.8s-3.4-0.6-4.4-1.8s-1.6-2.8-1.6-4.7V200.8z M336.8,201.1c0,1.2,0.2,2.1,0.6,2.8s1.1,1,2,1
	s1.5-0.4,1.9-1.1s0.6-1.6,0.6-2.8v-0.2c0-1.1-0.2-2-0.6-2.8s-1.1-1.1-2-1.1s-1.5,0.4-1.9,1.1s-0.6,1.6-0.6,2.8V201.1z"/>
<path class="st1" d="M346.5,205.2l1.6-0.4V197l-1.8-0.4v-2.1h5l0.2,1.9c0.3-0.7,0.7-1.2,1.1-1.5s1-0.6,1.6-0.6c0.2,0,0.4,0,0.6,0
	s0.4,0.1,0.5,0.1l-0.4,3.1h-1.4c-0.5,0-0.9,0.1-1.2,0.3s-0.6,0.5-0.8,0.8v6.2l1.6,0.4v2.1h-6.7L346.5,205.2L346.5,205.2z"/>
<path class="st1" d="M370.3,207.3c-0.1-0.2-0.2-0.4-0.2-0.7s-0.1-0.4-0.2-0.7c-0.4,0.5-0.9,0.8-1.5,1.1s-1.2,0.4-2,0.4
	c-1.2,0-2.2-0.3-3-1s-1.1-1.6-1.1-2.8s0.5-2.1,1.4-2.8s2.4-1,4.2-1h1.7v-1.2c0-0.6-0.2-1.1-0.5-1.4s-0.9-0.5-1.6-0.5
	c-0.4,0-0.7,0-1,0.1s-0.6,0.2-0.7,0.3l-0.2,1.4H363v-2.8c0.6-0.4,1.3-0.8,2.2-1.1s1.7-0.4,2.6-0.4c1.6,0,2.8,0.4,3.8,1.2
	s1.5,1.9,1.5,3.3v5.2c0,0.2,0,0.4,0,0.6s0,0.3,0,0.5l1,0.1v2.1L370.3,207.3L370.3,207.3z M367.4,205c0.5,0,1-0.1,1.4-0.3
	s0.8-0.5,1-0.8V202H368c-0.7,0-1.3,0.2-1.7,0.5s-0.6,0.7-0.6,1.2c0,0.4,0.1,0.8,0.4,1S366.9,205,367.4,205z"/>
<path class="st1" d="M391.7,199h-2.3l-0.4-1.6c-0.2-0.2-0.5-0.3-0.9-0.5s-0.7-0.2-1.2-0.2c-0.6,0-1.1,0.1-1.4,0.4s-0.5,0.6-0.5,1
	s0.2,0.7,0.5,1s1,0.5,2,0.7c1.6,0.3,2.7,0.8,3.5,1.4s1.1,1.4,1.1,2.5s-0.5,2.1-1.5,2.8s-2.3,1.1-3.9,1.1c-1,0-1.9-0.1-2.7-0.4
	s-1.5-0.7-2.2-1.2v-2.8h2.4l0.5,1.7c0.2,0.2,0.5,0.3,0.8,0.4s0.7,0.1,1.1,0.1c0.7,0,1.2-0.1,1.6-0.4s0.5-0.6,0.5-1s-0.2-0.7-0.6-1
	s-1-0.5-2-0.7c-1.5-0.3-2.6-0.8-3.4-1.4s-1.1-1.4-1.1-2.4c0-1.1,0.4-2,1.3-2.7s2.1-1.2,3.7-1.2c1,0,1.9,0.1,2.8,0.4s1.6,0.6,2.1,1
	L391.7,199z"/>
<path class="st1" d="M399.5,207.5c-1.8,0-3.3-0.6-4.4-1.8s-1.6-2.7-1.6-4.5v-0.5c0-1.9,0.5-3.4,1.6-4.7s2.4-1.8,4.2-1.8
	c1.7,0,3,0.5,4,1.5s1.4,2.4,1.4,4.2v1.9h-7.6v0.1c0.1,0.8,0.3,1.5,0.8,2.1s1.2,0.8,2,0.8s1.4-0.1,1.9-0.2s1-0.4,1.6-0.7l0.9,2.1
	c-0.5,0.4-1.2,0.8-2,1S400.6,207.5,399.5,207.5z M399.2,197c-0.6,0-1.1,0.2-1.5,0.7s-0.6,1.1-0.7,1.9v0.1h4.2v-0.3
	c0-0.7-0.2-1.3-0.5-1.7S399.9,197,399.2,197z"/>
<path class="st1" d="M405.8,205.2l1.2-0.2l3.4-4.2l-3.3-4l-1.2-0.2v-2.1h5.7v2l-1.2,0.1l1.9,2.4l1.9-2.4l-1.2-0.1v-2h5.7v2.1
	l-1.1,0.2l-3.3,4l3.4,4.2l1.2,0.2v2.1h-5.8v-2l1.2-0.1l-2-2.6l-2,2.6l1,0.1v2h-5.6L405.8,205.2L405.8,205.2z"/>
<path class="st1" d="M431,191.5v3.1h2.2v2.4H431v6.5c0,0.5,0.1,0.8,0.3,1.1s0.5,0.3,0.8,0.3c0.2,0,0.4,0,0.6,0s0.4-0.1,0.6-0.1
	l0.3,2.5c-0.4,0.1-0.8,0.2-1.1,0.3s-0.8,0.1-1.2,0.1c-1.2,0-2.1-0.3-2.7-1s-1-1.7-1-3.1V197h-1.9v-2.4h1.9v-3.1H431z"/>
<path class="st1" d="M434.5,200.8c0-1.9,0.5-3.4,1.6-4.6s2.5-1.8,4.4-1.8s3.3,0.6,4.4,1.8s1.6,2.8,1.6,4.7v0.2
	c0,1.9-0.5,3.5-1.6,4.7s-2.5,1.8-4.4,1.8s-3.4-0.6-4.4-1.8s-1.6-2.8-1.6-4.7V200.8z M437.9,201.1c0,1.2,0.2,2.1,0.6,2.8s1.1,1,2,1
	s1.5-0.4,1.9-1.1s0.6-1.6,0.6-2.8v-0.2c0-1.1-0.2-2-0.6-2.8s-1.1-1.1-2-1.1s-1.5,0.4-1.9,1.1s-0.6,1.6-0.6,2.8V201.1z"/>
<path class="st1" d="M460.7,196.7l-1.2,0.2l-4.7,12.3c-0.4,0.9-0.9,1.7-1.5,2.3s-1.5,0.9-2.8,0.9c-0.3,0-0.6,0-0.8-0.1
	s-0.6-0.1-0.9-0.2l0.4-2.5c0.1,0,0.2,0,0.3,0s0.2,0,0.3,0c0.6,0,1-0.1,1.3-0.4s0.5-0.6,0.7-1l0.4-1l-4-10.4l-1.2-0.2v-2.1h6.2v2.1
	l-1.4,0.2l1.7,5.1l0.2,0.9h0.1l2-6l-1.4-0.2v-2.1h6.2L460.7,196.7L460.7,196.7z"/>
<path class="st1" d="M464.1,207.3h-3.4v-3h3.4V207.3z"/>
<path class="st1" d="M160,257.4h-5.8v4.9h5.5l0.2-2h2.6v4.7H149v-2.1l1.8-0.4v-12.2l-1.8-0.4v-2.1h1.8h11.7v4.7h-2.6l-0.2-2h-5.5
	v4.3h5.8V257.4z"/>
<path class="st1" d="M164,262.8l1.2-0.2l3.4-4.2l-3.3-4l-1.2-0.2v-2.1h5.7v2l-1.2,0.1l1.9,2.4l1.9-2.4l-1.2-0.1v-2h5.7v2.1l-1.1,0.2
	l-3.3,4l3.4,4.2l1.2,0.2v2.1h-5.8v-2l1.2-0.1l-2-2.6l-2,2.6l1,0.1v2H164V262.8z"/>
<path class="st1" d="M183.4,249.1v3.1h2.2v2.4h-2.2v6.5c0,0.5,0.1,0.8,0.3,1.1s0.5,0.3,0.8,0.3c0.2,0,0.4,0,0.6,0s0.4-0.1,0.6-0.1
	l0.3,2.5c-0.4,0.1-0.8,0.2-1.1,0.3s-0.8,0.1-1.2,0.1c-1.2,0-2.1-0.3-2.7-1s-1-1.7-1-3.1v-6.5h-1.9v-2.4h1.9v-3.1L183.4,249.1
	L183.4,249.1z"/>
<path class="st1" d="M192.9,265.1c-1.8,0-3.3-0.6-4.4-1.8s-1.6-2.7-1.6-4.5v-0.5c0-1.9,0.5-3.4,1.6-4.7s2.4-1.8,4.2-1.8
	c1.7,0,3,0.5,4,1.5s1.4,2.4,1.4,4.2v1.9h-7.6v0.1c0.1,0.8,0.3,1.5,0.8,2.1s1.2,0.8,2,0.8s1.4-0.1,1.9-0.2s1-0.4,1.6-0.7l0.9,2.1
	c-0.5,0.4-1.2,0.8-2,1S193.9,265.1,192.9,265.1z M192.6,254.6c-0.6,0-1.1,0.2-1.5,0.7s-0.6,1.1-0.7,1.9v0.1h4.2V257
	c0-0.7-0.2-1.3-0.5-1.7S193.3,254.6,192.6,254.6z"/>
<path class="st1" d="M199.5,262.8l1.6-0.4v-7.9l-1.8-0.4V252h5l0.2,1.9c0.3-0.7,0.7-1.2,1.1-1.5s1-0.6,1.6-0.6c0.2,0,0.4,0,0.6,0
	s0.4,0.1,0.5,0.1l-0.4,3.1h-1.4c-0.5,0-0.9,0.1-1.2,0.3s-0.6,0.5-0.8,0.8v6.2l1.6,0.4v2.1h-6.7L199.5,262.8L199.5,262.8z"/>
<path class="st1" d="M209.5,262.8l1.6-0.4v-7.9l-1.8-0.4V252h5l0.2,1.8c0.4-0.6,0.9-1.2,1.6-1.5s1.3-0.5,2.1-0.5
	c1.3,0,2.3,0.4,3,1.2s1.1,2.1,1.1,3.8v5.5l1.6,0.4v2.1h-6.5v-2.1l1.5-0.4V257c0-0.9-0.2-1.5-0.5-1.8s-0.9-0.5-1.6-0.5
	c-0.5,0-0.9,0.1-1.2,0.3s-0.7,0.4-0.9,0.8v6.8l1.4,0.4v2.1h-6.4v-2.3H209.5z"/>
<path class="st1" d="M233,264.9c-0.1-0.2-0.2-0.4-0.2-0.7s-0.1-0.4-0.2-0.7c-0.4,0.5-0.9,0.8-1.5,1.1s-1.2,0.4-2,0.4
	c-1.2,0-2.2-0.3-3-1s-1.1-1.6-1.1-2.8c0-1.2,0.5-2.1,1.4-2.8s2.4-1,4.2-1h1.7v-1.2c0-0.6-0.2-1.1-0.5-1.4s-0.9-0.5-1.6-0.5
	c-0.4,0-0.7,0-1,0.1s-0.6,0.2-0.7,0.3l-0.2,1.4h-2.6v-2.8c0.6-0.4,1.3-0.8,2.2-1.1s1.7-0.4,2.6-0.4c1.6,0,2.8,0.4,3.8,1.2
	s1.5,1.9,1.5,3.3v5.2c0,0.2,0,0.4,0,0.6s0,0.3,0,0.5l1,0.1v2.1L233,264.9L233,264.9z M230,262.6c0.5,0,1-0.1,1.4-0.3s0.8-0.5,1-0.8
	v-1.9h-1.7c-0.7,0-1.3,0.2-1.7,0.5s-0.6,0.7-0.6,1.2c0,0.4,0.1,0.8,0.4,1S229.5,262.6,230,262.6z"/>
<path class="st1" d="M237.9,248.7v-2.1h5.2v15.9l1.7,0.4v2.1H238v-2.1l1.7-0.4V249L237.9,248.7z"/>
<path class="st1" d="M257.7,262.5c0.6,0,1.1-0.2,1.5-0.5s0.6-0.8,0.6-1.4h3.1v0.1c0,1.3-0.4,2.4-1.4,3.2s-2.2,1.3-3.7,1.3
	c-1.9,0-3.3-0.6-4.4-1.8s-1.5-2.7-1.5-4.6v-0.4c0-1.9,0.5-3.4,1.6-4.6s2.5-1.8,4.5-1.8c1,0,1.9,0.2,2.8,0.5s1.5,0.7,2,1.3v3.4H260
	l-0.6-2c-0.2-0.1-0.4-0.3-0.6-0.4s-0.5-0.1-0.9-0.1c-1,0-1.7,0.4-2.1,1.1s-0.6,1.6-0.6,2.7v0.4c0,1.1,0.2,2,0.6,2.7
	C256.2,262.3,256.8,262.5,257.7,262.5z"/>
<path class="st1" d="M264.3,258.4c0-1.9,0.5-3.4,1.6-4.6s2.5-1.8,4.4-1.8s3.3,0.6,4.4,1.8s1.6,2.8,1.6,4.7v0.2
	c0,1.9-0.5,3.5-1.6,4.7s-2.5,1.8-4.4,1.8s-3.4-0.6-4.4-1.8s-1.6-2.8-1.6-4.7V258.4z M267.7,258.7c0,1.2,0.2,2.1,0.6,2.8s1.1,1,2,1
	s1.5-0.4,1.9-1.1s0.6-1.6,0.6-2.8v-0.2c0-1.1-0.2-2-0.6-2.8s-1.1-1.1-2-1.1s-1.5,0.4-1.9,1.1c-0.4,0.7-0.6,1.6-0.6,2.8V258.7z"/>
<path class="st1" d="M277.2,262.8l1.6-0.4v-7.9l-1.8-0.4V252h5l0.2,1.8c0.4-0.6,0.9-1.2,1.6-1.5s1.3-0.5,2.1-0.5
	c1.3,0,2.3,0.4,3,1.2s1.1,2.1,1.1,3.8v5.5l1.6,0.4v2.1H285v-2.1l1.5-0.4V257c0-0.9-0.2-1.5-0.5-1.8s-0.9-0.5-1.6-0.5
	c-0.5,0-0.9,0.1-1.2,0.3s-0.7,0.4-0.9,0.8v6.8l1.4,0.4v2.1h-6.4L277.2,262.8L277.2,262.8z"/>
<path class="st1" d="M300.6,263.4c-0.4,0.6-0.9,1-1.4,1.3s-1.2,0.5-1.9,0.5c-1.6,0-2.8-0.6-3.6-1.7s-1.3-2.6-1.3-4.5v-0.2
	c0-2,0.4-3.6,1.3-4.8s2.1-1.8,3.7-1.8c0.6,0,1.2,0.1,1.7,0.4s1,0.7,1.3,1.2V249l-1.8-0.4v-2.1h1.8h3.4v15.9l1.6,0.4v2.1h-4.6
	L300.6,263.4z M295.8,258.9c0,1.1,0.2,2,0.6,2.6s1,1,1.8,1c0.5,0,0.9-0.1,1.3-0.3s0.7-0.5,0.9-0.9v-5.4c-0.2-0.4-0.5-0.7-0.9-0.9
	s-0.8-0.3-1.3-0.3c-0.8,0-1.4,0.4-1.8,1.1c-0.4,0.7-0.6,1.7-0.6,2.9V258.9z"/>
<path class="st1" d="M306.2,258.4c0-1.9,0.5-3.4,1.6-4.6s2.5-1.8,4.4-1.8s3.3,0.6,4.4,1.8s1.6,2.8,1.6,4.7v0.2
	c0,1.9-0.5,3.5-1.6,4.7s-2.5,1.8-4.4,1.8s-3.4-0.6-4.4-1.8s-1.6-2.8-1.6-4.7V258.4z M309.6,258.7c0,1.2,0.2,2.1,0.6,2.8s1.1,1,2,1
	s1.5-0.4,1.9-1.1s0.6-1.6,0.6-2.8v-0.2c0-1.1-0.2-2-0.6-2.8s-1.1-1.1-2-1.1s-1.5,0.4-1.9,1.1c-0.4,0.7-0.6,1.6-0.6,2.8V258.7z"/>
<path class="st1" d="M318.9,254.3v-2.1h5l0.1,1.7c0.4-0.6,0.9-1.1,1.5-1.4s1.3-0.5,2.1-0.5c0.8,0,1.5,0.2,2.1,0.5s1,0.9,1.3,1.6
	c0.4-0.7,0.9-1.2,1.5-1.6s1.4-0.6,2.2-0.6c1.2,0,2.2,0.4,3,1.3s1.1,2.2,1.1,3.9v5.3l1.7,0.4v2.1H334v-2.1l1.5-0.4v-5.3
	c0-1-0.2-1.6-0.5-2s-0.8-0.6-1.4-0.6c-0.5,0-0.9,0.1-1.3,0.3s-0.6,0.5-0.8,0.9c0,0.1,0,0.3,0,0.4s0,0.2,0,0.3v5.9l1.4,0.4v2.1h-6.2
	v-2.1l1.4-0.4V257c0-0.9-0.2-1.6-0.5-2s-0.8-0.6-1.4-0.6c-0.5,0-0.9,0.1-1.2,0.3s-0.6,0.4-0.9,0.7v6.8l1.5,0.4v2.1h-6.5v-2.1
	l1.7-0.4v-7.9L318.9,254.3z"/>
<path class="st1" d="M351.8,256.6h-2.3l-0.4-1.6c-0.2-0.2-0.5-0.3-0.9-0.5s-0.7-0.2-1.2-0.2c-0.6,0-1.1,0.1-1.4,0.4s-0.5,0.6-0.5,1
	c0,0.4,0.2,0.7,0.5,1s1,0.5,2,0.7c1.6,0.3,2.7,0.8,3.5,1.4s1.1,1.4,1.1,2.5s-0.5,2.1-1.5,2.8s-2.3,1.1-3.9,1.1c-1,0-1.9-0.1-2.7-0.4
	s-1.5-0.7-2.2-1.2v-2.8h2.4l0.5,1.7c0.2,0.2,0.5,0.3,0.8,0.4s0.7,0.1,1.1,0.1c0.7,0,1.2-0.1,1.6-0.4s0.5-0.6,0.5-1s-0.2-0.7-0.6-1
	s-1-0.5-2-0.7c-1.5-0.3-2.6-0.8-3.4-1.4s-1.1-1.4-1.1-2.4c0-1.1,0.4-2,1.3-2.7s2.1-1.2,3.7-1.2c1,0,1.9,0.1,2.8,0.4s1.6,0.6,2.1,1
	L351.8,256.6z"/>
<path class="st1" d="M367.7,264.9c-0.1-0.2-0.2-0.4-0.2-0.7s-0.1-0.4-0.2-0.7c-0.4,0.5-0.9,0.8-1.5,1.1s-1.2,0.4-2,0.4
	c-1.2,0-2.2-0.3-3-1s-1.1-1.6-1.1-2.8c0-1.2,0.5-2.1,1.4-2.8s2.4-1,4.2-1h1.7v-1.2c0-0.6-0.2-1.1-0.5-1.4s-0.9-0.5-1.6-0.5
	c-0.4,0-0.7,0-1,0.1s-0.6,0.2-0.7,0.3l-0.2,1.4h-2.6v-2.8c0.6-0.4,1.3-0.8,2.2-1.1s1.7-0.4,2.6-0.4c1.6,0,2.8,0.4,3.8,1.2
	s1.5,1.9,1.5,3.3v5.2c0,0.2,0,0.4,0,0.6s0,0.3,0,0.5l1,0.1v2.1L367.7,264.9L367.7,264.9z M364.8,262.6c0.5,0,1-0.1,1.4-0.3
	s0.8-0.5,1-0.8v-1.9h-1.7c-0.7,0-1.3,0.2-1.7,0.5s-0.6,0.7-0.6,1.2c0,0.4,0.1,0.8,0.4,1S364.3,262.6,364.8,262.6z"/>
<path class="st1" d="M373,262.8l1.6-0.4v-7.9l-1.8-0.4V252h5l0.2,1.9c0.3-0.7,0.7-1.2,1.1-1.5s1-0.6,1.6-0.6c0.2,0,0.4,0,0.6,0
	s0.4,0.1,0.5,0.1l-0.4,3.1H380c-0.5,0-0.9,0.1-1.2,0.3s-0.6,0.5-0.8,0.8v6.2l1.6,0.4v2.1H373V262.8z"/>
<path class="st1" d="M388.6,265.1c-1.8,0-3.3-0.6-4.4-1.8s-1.6-2.7-1.6-4.5v-0.5c0-1.9,0.5-3.4,1.6-4.7s2.4-1.8,4.2-1.8
	c1.7,0,3,0.5,4,1.5s1.4,2.4,1.4,4.2v1.9h-7.6v0.1c0.1,0.8,0.3,1.5,0.8,2.1s1.2,0.8,2,0.8s1.4-0.1,1.9-0.2s1-0.4,1.6-0.7l0.9,2.1
	c-0.5,0.4-1.2,0.8-2,1S389.7,265.1,388.6,265.1z M388.3,254.6c-0.6,0-1.1,0.2-1.5,0.7s-0.6,1.1-0.7,1.9v0.1h4.2V257
	c0-0.7-0.2-1.3-0.5-1.7S389,254.6,388.3,254.6z"/>
<path class="st1" d="M401.4,258.7c0-2,0.4-3.6,1.3-4.8s2.1-1.8,3.7-1.8c0.7,0,1.3,0.2,1.9,0.5s1,0.8,1.4,1.4l0.2-1.6h3v12.3
	c0,1.7-0.5,3-1.6,4s-2.5,1.5-4.3,1.5c-0.6,0-1.3-0.1-2-0.3s-1.4-0.4-2-0.7l0.6-2.4c0.5,0.2,1.1,0.4,1.6,0.6s1.1,0.2,1.7,0.2
	c0.8,0,1.5-0.3,1.9-0.8s0.6-1.2,0.6-2.1v-0.8c-0.4,0.5-0.8,0.8-1.3,1.1s-1.1,0.4-1.7,0.4c-1.6,0-2.8-0.6-3.6-1.7s-1.3-2.7-1.3-4.5
	v-0.5H401.4z M404.9,258.9c0,1.1,0.2,2,0.6,2.6s1,1,1.8,1c0.5,0,1-0.1,1.3-0.3s0.7-0.5,0.9-0.8v-5.5c-0.2-0.4-0.5-0.7-0.9-0.9
	s-0.8-0.3-1.3-0.3c-0.8,0-1.4,0.4-1.8,1.1c-0.4,0.7-0.6,1.7-0.6,2.9V258.9z"/>
<path class="st1" d="M415,262.8l1.6-0.4v-7.9l-1.8-0.4V252h5l0.2,1.9c0.3-0.7,0.7-1.2,1.1-1.5s1-0.6,1.6-0.6c0.2,0,0.4,0,0.6,0
	s0.4,0.1,0.5,0.1l-0.4,3.1H422c-0.5,0-0.9,0.1-1.2,0.3s-0.6,0.5-0.8,0.8v6.2l1.6,0.4v2.1H415V262.8z"/>
<path class="st1" d="M430.6,265.1c-1.8,0-3.3-0.6-4.4-1.8s-1.6-2.7-1.6-4.5v-0.5c0-1.9,0.5-3.4,1.6-4.7s2.4-1.8,4.2-1.8
	c1.7,0,3,0.5,4,1.5s1.4,2.4,1.4,4.2v1.9h-7.6v0.1c0.1,0.8,0.3,1.5,0.8,2.1s1.2,0.8,2,0.8s1.4-0.1,1.9-0.2s1-0.4,1.6-0.7l0.9,2.1
	c-0.5,0.4-1.2,0.8-2,1S431.6,265.1,430.6,265.1z M430.3,254.6c-0.6,0-1.1,0.2-1.5,0.7s-0.6,1.1-0.7,1.9v0.1h4.2V257
	c0-0.7-0.2-1.3-0.5-1.7S430.9,254.6,430.3,254.6z"/>
<path class="st1" d="M445.1,264.9c-0.1-0.2-0.2-0.4-0.2-0.7s-0.1-0.4-0.2-0.7c-0.4,0.5-0.9,0.8-1.5,1.1s-1.2,0.4-2,0.4
	c-1.2,0-2.2-0.3-3-1s-1.1-1.6-1.1-2.8c0-1.2,0.5-2.1,1.4-2.8s2.4-1,4.2-1h1.7v-1.2c0-0.6-0.2-1.1-0.5-1.4s-0.9-0.5-1.6-0.5
	c-0.4,0-0.7,0-1,0.1s-0.6,0.2-0.7,0.3l-0.2,1.4h-2.6v-2.8c0.6-0.4,1.3-0.8,2.2-1.1s1.7-0.4,2.6-0.4c1.6,0,2.8,0.4,3.8,1.2
	s1.5,1.9,1.5,3.3v5.2c0,0.2,0,0.4,0,0.6s0,0.3,0,0.5l1,0.1v2.1L445.1,264.9L445.1,264.9z M442.1,262.6c0.5,0,1-0.1,1.4-0.3
	s0.8-0.5,1-0.8v-1.9h-1.7c-0.7,0-1.3,0.2-1.7,0.5s-0.6,0.7-0.6,1.2c0,0.4,0.1,0.8,0.4,1S441.6,262.6,442.1,262.6z"/>
<path class="st1" d="M454.8,249.1v3.1h2.2v2.4h-2.2v6.5c0,0.5,0.1,0.8,0.3,1.1s0.5,0.3,0.8,0.3c0.2,0,0.4,0,0.6,0s0.4-0.1,0.6-0.1
	l0.3,2.5c-0.4,0.1-0.8,0.2-1.1,0.3s-0.8,0.1-1.2,0.1c-1.2,0-2.1-0.3-2.7-1s-1-1.7-1-3.1v-6.5h-1.9v-2.4h1.9v-3.1L454.8,249.1
	L454.8,249.1z"/>
<path class="st1" d="M129.3,291.6l1.7-0.4v-7.9h-1.9V281h1.9v-1.4c0-1.4,0.4-2.5,1.2-3.3s2-1.2,3.5-1.2c0.3,0,0.6,0,0.9,0.1
	s0.6,0.1,1,0.2l-0.3,2.5c-0.2,0-0.4-0.1-0.5-0.1s-0.4,0-0.6,0c-0.6,0-1,0.2-1.3,0.5s-0.4,0.7-0.4,1.3v1.4h2.5v2.4h-2.5v7.9l1.7,0.4
	v2.1h-6.7v-2.2H129.3z"/>
<path class="st1" d="M137.7,287.2c0-1.9,0.5-3.4,1.6-4.6s2.5-1.8,4.4-1.8s3.3,0.6,4.4,1.8s1.6,2.8,1.6,4.7v0.2
	c0,1.9-0.5,3.5-1.6,4.7s-2.5,1.8-4.4,1.8s-3.4-0.6-4.4-1.8s-1.6-2.8-1.6-4.7V287.2z M141.2,287.5c0,1.2,0.2,2.1,0.6,2.8s1.1,1,2,1
	s1.5-0.4,1.9-1.1s0.6-1.6,0.6-2.8v-0.2c0-1.1-0.2-2-0.6-2.8s-1.1-1.1-2-1.1s-1.5,0.4-1.9,1.1s-0.6,1.6-0.6,2.8V287.5z"/>
<path class="st1" d="M150.9,291.6l1.6-0.4v-7.9l-1.8-0.4V281h5l0.2,1.9c0.3-0.7,0.7-1.2,1.1-1.5s1-0.6,1.6-0.6c0.2,0,0.4,0,0.6,0
	s0.4,0.1,0.5,0.1l-0.4,3.1h-1.4c-0.5,0-0.9,0.1-1.2,0.3s-0.6,0.5-0.8,0.8v6.2l1.6,0.4v2.1h-6.7L150.9,291.6L150.9,291.6z"/>
<path class="st1" d="M166.6,287.2c0-1.9,0.5-3.4,1.6-4.6s2.5-1.8,4.4-1.8s3.3,0.6,4.4,1.8s1.6,2.8,1.6,4.7v0.2
	c0,1.9-0.5,3.5-1.6,4.7s-2.5,1.8-4.4,1.8s-3.4-0.6-4.4-1.8s-1.6-2.8-1.6-4.7V287.2z M170,287.5c0,1.2,0.2,2.1,0.6,2.8s1.1,1,2,1
	s1.5-0.4,1.9-1.1s0.6-1.6,0.6-2.8v-0.2c0-1.1-0.2-2-0.6-2.8s-1.1-1.1-2-1.1s-1.5,0.4-1.9,1.1s-0.6,1.6-0.6,2.8V287.5z"/>
<path class="st1" d="M179.7,291.6l1.6-0.4v-7.9l-1.8-0.4V281h5l0.2,1.9c0.3-0.7,0.7-1.2,1.1-1.5s1-0.6,1.6-0.6c0.2,0,0.4,0,0.6,0
	s0.4,0.1,0.5,0.1l-0.4,3.1h-1.4c-0.5,0-0.9,0.1-1.2,0.3s-0.6,0.5-0.8,0.8v6.2l1.6,0.4v2.1h-6.7L179.7,291.6L179.7,291.6z"/>
<path class="st1" d="M197.3,293.7c-0.1-0.2-0.2-0.4-0.2-0.7s-0.1-0.4-0.2-0.7c-0.4,0.5-0.9,0.8-1.5,1.1s-1.2,0.4-2,0.4
	c-1.2,0-2.2-0.3-3-1s-1.1-1.6-1.1-2.8c0-1.2,0.5-2.1,1.4-2.8s2.4-1,4.2-1h1.7V285c0-0.6-0.2-1.1-0.5-1.4s-0.9-0.5-1.6-0.5
	c-0.4,0-0.7,0-1,0.1s-0.6,0.2-0.7,0.3l-0.2,1.4H190v-2.8c0.6-0.4,1.3-0.8,2.2-1.1s1.7-0.4,2.6-0.4c1.6,0,2.8,0.4,3.8,1.2
	s1.5,1.9,1.5,3.3v5.2c0,0.2,0,0.4,0,0.6s0,0.3,0,0.5l1,0.1v2.1L197.3,293.7L197.3,293.7z M194.4,291.4c0.5,0,1-0.1,1.4-0.3
	s0.8-0.5,1-0.8v-1.9H195c-0.7,0-1.3,0.2-1.7,0.5s-0.6,0.7-0.6,1.2c0,0.4,0.1,0.8,0.4,1S193.9,291.4,194.4,291.4z"/>
<path class="st1" d="M202.2,277.5v-2.1h5.2v15.9l1.7,0.4v2.1h-6.7v-2.1l1.7-0.4v-13.5L202.2,277.5z"/>
<path class="st1" d="M226.5,285.4h-2.3l-0.4-1.6c-0.2-0.2-0.5-0.3-0.9-0.5s-0.7-0.2-1.2-0.2c-0.6,0-1.1,0.1-1.4,0.4s-0.5,0.6-0.5,1
	s0.2,0.7,0.5,1s1,0.5,2,0.7c1.6,0.3,2.7,0.8,3.5,1.4s1.1,1.4,1.1,2.5s-0.5,2.1-1.5,2.8s-2.3,1.1-3.9,1.1c-1,0-1.9-0.1-2.7-0.4
	s-1.5-0.7-2.2-1.2v-2.8h2.4l0.5,1.7c0.2,0.2,0.5,0.3,0.8,0.4s0.7,0.1,1.1,0.1c0.7,0,1.2-0.1,1.6-0.4s0.5-0.6,0.5-1s-0.2-0.7-0.6-1
	s-1-0.5-2-0.7c-1.5-0.3-2.6-0.8-3.4-1.4s-1.1-1.4-1.1-2.4c0-1.1,0.4-2,1.3-2.7s2.1-1.2,3.7-1.2c1,0,1.9,0.1,2.8,0.4s1.6,0.6,2.1,1
	L226.5,285.4z"/>
<path class="st1" d="M234.4,293.9c-1.8,0-3.3-0.6-4.4-1.8s-1.6-2.7-1.6-4.5v-0.5c0-1.9,0.5-3.4,1.6-4.7s2.4-1.8,4.2-1.8
	c1.7,0,3,0.5,4,1.5s1.4,2.4,1.4,4.2v1.9H232v0.1c0.1,0.8,0.3,1.5,0.8,2.1s1.2,0.8,2,0.8s1.4-0.1,1.9-0.2s1-0.4,1.6-0.7l0.9,2.1
	c-0.5,0.4-1.2,0.8-2,1S235.4,293.9,234.4,293.9z M234.1,283.4c-0.6,0-1.1,0.2-1.5,0.7s-0.6,1.1-0.7,1.9v0.1h4.2v-0.3
	c0-0.7-0.2-1.3-0.5-1.7S234.8,283.4,234.1,283.4z"/>
<path class="st1" d="M240.6,291.6l1.2-0.2l3.4-4.2l-3.3-4l-1.2-0.2v-2h5.7v2l-1.2,0.1l1.9,2.4l1.9-2.4l-1.2-0.1v-2h5.7v2.1l-1.1,0.2
	l-3.3,4l3.4,4.2l1.2,0.2v2.1h-5.8v-2l1.2-0.1l-2-2.6l-2,2.6l1,0.1v2h-5.6v-2.2H240.6z"/>
<path class="st1" d="M268.9,293.7c-0.1-0.2-0.2-0.4-0.2-0.7s-0.1-0.4-0.2-0.7c-0.4,0.5-0.9,0.8-1.5,1.1s-1.2,0.4-2,0.4
	c-1.2,0-2.2-0.3-3-1s-1.1-1.6-1.1-2.8c0-1.2,0.5-2.1,1.4-2.8s2.4-1,4.2-1h1.7V285c0-0.6-0.2-1.1-0.5-1.4s-0.9-0.5-1.6-0.5
	c-0.4,0-0.7,0-1,0.1s-0.6,0.2-0.7,0.3l-0.2,1.4h-2.6v-2.8c0.6-0.4,1.3-0.8,2.2-1.1s1.7-0.4,2.6-0.4c1.6,0,2.8,0.4,3.8,1.2
	s1.5,1.9,1.5,3.3v5.2c0,0.2,0,0.4,0,0.6s0,0.3,0,0.5l1,0.1v2.1L268.9,293.7L268.9,293.7z M265.9,291.4c0.5,0,1-0.1,1.4-0.3
	s0.8-0.5,1-0.8v-1.9h-1.7c-0.7,0-1.3,0.2-1.7,0.5s-0.6,0.7-0.6,1.2c0,0.4,0.1,0.8,0.4,1S265.4,291.4,265.9,291.4z"/>
<path class="st1" d="M274,291.6l1.6-0.4v-7.9l-1.8-0.4V281h5l0.2,1.8c0.4-0.6,0.9-1.2,1.6-1.5s1.3-0.5,2.1-0.5c1.3,0,2.3,0.4,3,1.2
	s1.1,2.1,1.1,3.8v5.5l1.6,0.4v2.1h-6.5v-2.1l1.5-0.4v-5.5c0-0.9-0.2-1.5-0.5-1.8s-0.9-0.5-1.6-0.5c-0.5,0-0.9,0.1-1.2,0.3
	s-0.7,0.4-0.9,0.8v6.8l1.4,0.4v2.1H274V291.6z"/>
<path class="st1" d="M297.4,292.2c-0.4,0.6-0.9,1-1.4,1.3s-1.2,0.5-1.9,0.5c-1.6,0-2.8-0.6-3.6-1.7s-1.3-2.6-1.3-4.5v-0.2
	c0-2,0.4-3.6,1.3-4.8s2.1-1.8,3.7-1.8c0.6,0,1.2,0.1,1.7,0.4s1,0.7,1.3,1.2v-4.5l-1.8-0.4v-2.1h1.8h3.4v15.9l1.6,0.4v2.1h-4.6
	L297.4,292.2z M292.6,287.7c0,1.1,0.2,2,0.6,2.6s1,1,1.8,1c0.5,0,0.9-0.1,1.3-0.3s0.7-0.5,0.9-0.9v-5.4c-0.2-0.4-0.5-0.7-0.9-0.9
	s-0.8-0.3-1.3-0.3c-0.8,0-1.4,0.4-1.8,1.1s-0.6,1.7-0.6,2.9V287.7z"/>
<path class="st1" d="M317.3,293.7c-0.1-0.2-0.2-0.4-0.2-0.7s-0.1-0.4-0.2-0.7c-0.4,0.5-0.9,0.8-1.5,1.1s-1.2,0.4-2,0.4
	c-1.2,0-2.2-0.3-3-1s-1.1-1.6-1.1-2.8c0-1.2,0.5-2.1,1.4-2.8s2.4-1,4.2-1h1.7V285c0-0.6-0.2-1.1-0.5-1.4s-0.9-0.5-1.6-0.5
	c-0.4,0-0.7,0-1,0.1s-0.6,0.2-0.7,0.3l-0.2,1.4H310v-2.8c0.6-0.4,1.3-0.8,2.2-1.1s1.7-0.4,2.6-0.4c1.6,0,2.8,0.4,3.8,1.2
	s1.5,1.9,1.5,3.3v5.2c0,0.2,0,0.4,0,0.6s0,0.3,0,0.5l1,0.1v2.1L317.3,293.7L317.3,293.7z M314.3,291.4c0.5,0,1-0.1,1.4-0.3
	s0.8-0.5,1-0.8v-1.9H315c-0.7,0-1.3,0.2-1.7,0.5s-0.6,0.7-0.6,1.2c0,0.4,0.1,0.8,0.4,1S313.8,291.4,314.3,291.4z"/>
<path class="st1" d="M322.2,277.5v-2.1h5.2v15.9l1.7,0.4v2.1h-6.7v-2.1l1.7-0.4v-13.5L322.2,277.5z"/>
<path class="st1" d="M330.1,277.5v-2.1h5.2v15.9l1.7,0.4v2.1h-6.7v-2.1l1.7-0.4v-13.5L330.1,277.5z"/>
<path class="st1" d="M343.6,277.5v-2.1h5.2V286h0.8l2-2.8l-1.1-0.2v-2h6.2v2.1l-1.5,0.3l-2.3,3.1l3.2,4.8l1.3,0.3v2.1h-5.9v-2.1
	l0.7-0.1l-1.9-3.1h-1.5v2.9l1.5,0.4v2.1h-6.5v-2.1l1.7-0.4v-13.5L343.6,277.5z"/>
<path class="st1" d="M358.6,291.6l1.7-0.4v-7.9l-1.8-0.4V281h5.2v10.3l1.6,0.4v2.1h-6.7L358.6,291.6L358.6,291.6z M363.7,278h-3.4
	v-2.6h3.4V278z"/>
<path class="st1" d="M366.5,291.6l1.6-0.4v-7.9l-1.8-0.4V281h5l0.2,1.8c0.4-0.6,0.9-1.2,1.6-1.5s1.3-0.5,2.1-0.5
	c1.3,0,2.3,0.4,3,1.2s1.1,2.1,1.1,3.8v5.5l1.6,0.4v2.1h-6.5v-2.1l1.5-0.4v-5.5c0-0.9-0.2-1.5-0.5-1.8s-0.9-0.5-1.6-0.5
	c-0.5,0-0.9,0.1-1.2,0.3s-0.7,0.4-0.9,0.8v6.8l1.4,0.4v2.1h-6.4v-2.3H366.5z"/>
<path class="st1" d="M389.9,292.2c-0.4,0.6-0.9,1-1.4,1.3s-1.2,0.5-1.9,0.5c-1.6,0-2.8-0.6-3.6-1.7s-1.3-2.6-1.3-4.5v-0.2
	c0-2,0.4-3.6,1.3-4.8s2.1-1.8,3.7-1.8c0.6,0,1.2,0.1,1.7,0.4s1,0.7,1.3,1.2v-4.5l-1.8-0.4v-2.1h1.8h3.4v15.9l1.6,0.4v2.1h-4.6
	L389.9,292.2z M385.1,287.7c0,1.1,0.2,2,0.6,2.6s1,1,1.8,1c0.5,0,0.9-0.1,1.3-0.3s0.7-0.5,0.9-0.9v-5.4c-0.2-0.4-0.5-0.7-0.9-0.9
	s-0.8-0.3-1.3-0.3c-0.8,0-1.4,0.4-1.8,1.1s-0.6,1.7-0.6,2.9V287.7z"/>
<path class="st1" d="M406,285.4h-2.3l-0.4-1.6c-0.2-0.2-0.5-0.3-0.9-0.5s-0.7-0.2-1.2-0.2c-0.6,0-1.1,0.1-1.4,0.4s-0.5,0.6-0.5,1
	s0.2,0.7,0.5,1s1,0.5,2,0.7c1.6,0.3,2.7,0.8,3.5,1.4s1.1,1.4,1.1,2.5s-0.5,2.1-1.5,2.8s-2.3,1.1-3.9,1.1c-1,0-1.9-0.1-2.7-0.4
	s-1.5-0.7-2.2-1.2v-2.8h2.4l0.5,1.7c0.2,0.2,0.5,0.3,0.8,0.4s0.7,0.1,1.1,0.1c0.7,0,1.2-0.1,1.6-0.4s0.5-0.6,0.5-1s-0.2-0.7-0.6-1
	s-1-0.5-2-0.7c-1.5-0.3-2.6-0.8-3.4-1.4s-1.1-1.4-1.1-2.4c0-1.1,0.4-2,1.3-2.7s2.1-1.2,3.7-1.2c1,0,1.9,0.1,2.8,0.4s1.6,0.6,2.1,1
	L406,285.4z"/>
<path class="st1" d="M413.9,287.2c0-1.9,0.5-3.4,1.6-4.6s2.5-1.8,4.4-1.8s3.3,0.6,4.4,1.8s1.6,2.8,1.6,4.7v0.2
	c0,1.9-0.5,3.5-1.6,4.7s-2.5,1.8-4.4,1.8s-3.4-0.6-4.4-1.8s-1.6-2.8-1.6-4.7V287.2z M417.3,287.5c0,1.2,0.2,2.1,0.6,2.8s1.1,1,2,1
	s1.5-0.4,1.9-1.1s0.6-1.6,0.6-2.8v-0.2c0-1.1-0.2-2-0.6-2.8s-1.1-1.1-2-1.1s-1.5,0.4-1.9,1.1s-0.6,1.6-0.6,2.8V287.5z"/>
<path class="st1" d="M427.1,291.6l1.7-0.4v-7.9h-1.9V281h1.9v-1.4c0-1.4,0.4-2.5,1.2-3.3s2-1.2,3.5-1.2c0.3,0,0.6,0,0.9,0.1
	s0.6,0.1,1,0.2L435,278c-0.2,0-0.4-0.1-0.5-0.1s-0.4,0-0.6,0c-0.6,0-1,0.2-1.3,0.5s-0.4,0.7-0.4,1.3v1.4h2.5v2.4h-2.5v7.9l1.7,0.4
	v2.1h-6.7v-2.3H427.1z"/>
<path class="st1" d="M128.9,311.9v-2.1h5l0.2,1.5c0.4-0.5,0.8-1,1.3-1.3s1.1-0.4,1.8-0.4c1.6,0,2.8,0.6,3.7,1.8s1.3,2.8,1.3,4.8v0.2
	c0,1.9-0.4,3.4-1.3,4.5s-2.1,1.7-3.6,1.7c-0.7,0-1.3-0.1-1.8-0.4s-1-0.6-1.3-1.1v3.7l1.7,0.4v2.1H129v-2.1l1.7-0.4v-12.7
	L128.9,311.9z M138.7,316.3c0-1.2-0.2-2.2-0.6-2.9s-1-1.1-1.8-1.1c-0.5,0-1,0.1-1.3,0.3s-0.7,0.5-0.9,0.9v5.6
	c0.2,0.4,0.5,0.6,0.9,0.8s0.8,0.3,1.3,0.3c0.8,0,1.4-0.3,1.8-1s0.6-1.5,0.6-2.6V316.3z"/>
<path class="st1" d="M149.6,322.7c-1.8,0-3.3-0.6-4.4-1.8s-1.6-2.7-1.6-4.5v-0.5c0-1.9,0.5-3.4,1.6-4.7s2.4-1.8,4.2-1.8
	c1.7,0,3,0.5,4,1.5s1.4,2.4,1.4,4.2v1.9h-7.6v0.1c0.1,0.8,0.3,1.5,0.8,2.1s1.2,0.8,2,0.8s1.4-0.1,1.9-0.2s1-0.4,1.6-0.7l0.9,2.1
	c-0.5,0.4-1.2,0.8-2,1S150.7,322.7,149.6,322.7z M149.3,312.2c-0.6,0-1.1,0.2-1.5,0.7s-0.6,1.1-0.7,1.9v0.1h4.2v-0.3
	c0-0.7-0.2-1.3-0.5-1.7S150,312.2,149.3,312.2z"/>
<path class="st1" d="M156,320.4l1.6-0.4v-7.9l-1.8-0.4v-2.1h5l0.2,1.8c0.4-0.6,0.9-1.2,1.6-1.5s1.3-0.5,2.1-0.5c1.3,0,2.3,0.4,3,1.2
	s1.1,2.1,1.1,3.8v5.5l1.6,0.4v2.1h-6.5v-2.1l1.5-0.4v-5.5c0-0.9-0.2-1.5-0.5-1.8s-0.9-0.5-1.6-0.5c-0.5,0-0.9,0.1-1.2,0.3
	s-0.7,0.4-0.9,0.8v6.8l1.4,0.4v2.1H156V320.4z"/>
<path class="st1" d="M177.1,322.7c-1.8,0-3.3-0.6-4.4-1.8s-1.6-2.7-1.6-4.5v-0.5c0-1.9,0.5-3.4,1.6-4.7s2.4-1.8,4.2-1.8
	c1.7,0,3,0.5,4,1.5s1.4,2.4,1.4,4.2v1.9h-7.6v0.1c0.1,0.8,0.3,1.5,0.8,2.1s1.2,0.8,2,0.8s1.4-0.1,1.9-0.2s1-0.4,1.6-0.7l0.9,2.1
	c-0.5,0.4-1.2,0.8-2,1S178.1,322.7,177.1,322.7z M176.8,312.2c-0.6,0-1.1,0.2-1.5,0.7s-0.6,1.1-0.7,1.9v0.1h4.2v-0.3
	c0-0.7-0.2-1.3-0.5-1.7S177.4,312.2,176.8,312.2z"/>
<path class="st1" d="M188.5,306.7v3.1h2.2v2.4h-2.2v6.5c0,0.5,0.1,0.8,0.3,1.1s0.5,0.3,0.8,0.3c0.2,0,0.4,0,0.6,0s0.4-0.1,0.6-0.1
	l0.3,2.5c-0.4,0.1-0.8,0.2-1.1,0.3s-0.8,0.1-1.2,0.1c-1.2,0-2.1-0.3-2.7-1s-1-1.7-1-3.1v-6.5h-1.9v-2.4h1.9v-3.1L188.5,306.7
	L188.5,306.7z"/>
<path class="st1" d="M192.6,320.4l1.6-0.4v-7.9l-1.8-0.4v-2.1h5l0.2,1.9c0.3-0.7,0.7-1.2,1.1-1.5s1-0.6,1.6-0.6c0.2,0,0.4,0,0.6,0
	s0.4,0.1,0.5,0.1l-0.4,3.1h-1.4c-0.5,0-0.9,0.1-1.2,0.3s-0.6,0.5-0.8,0.8v6.2l1.6,0.4v2.1h-6.7L192.6,320.4L192.6,320.4z"/>
<path class="st1" d="M210.2,322.5c-0.1-0.2-0.2-0.4-0.2-0.7s-0.1-0.4-0.2-0.7c-0.4,0.5-0.9,0.8-1.5,1.1s-1.2,0.4-2,0.4
	c-1.2,0-2.2-0.3-3-1s-1.1-1.6-1.1-2.8c0-1.2,0.5-2.1,1.4-2.8s2.4-1,4.2-1h1.7v-1c0-0.6-0.2-1.1-0.5-1.4s-0.9-0.5-1.6-0.5
	c-0.4,0-0.7,0-1,0.1s-0.6,0.2-0.7,0.3l-0.2,1.4h-2.6v-2.8c0.6-0.4,1.3-0.8,2.2-1.1s1.7-0.4,2.6-0.4c1.6,0,2.8,0.4,3.8,1.2
	s1.5,1.9,1.5,3.3v5.2c0,0.2,0,0.4,0,0.6s0,0.3,0,0.5l1,0.1v2.1h-3.8V322.5z M207.2,320.2c0.5,0,1-0.1,1.4-0.3s0.8-0.5,1-0.8v-1.9
	h-1.7c-0.7,0-1.3,0.2-1.7,0.5s-0.6,0.7-0.6,1.2c0,0.4,0.1,0.8,0.4,1S206.7,320.2,207.2,320.2z"/>
<path class="st1" d="M219.9,306.7v3.1h2.2v2.4h-2.2v6.5c0,0.5,0.1,0.8,0.3,1.1s0.5,0.3,0.8,0.3c0.2,0,0.4,0,0.6,0s0.4-0.1,0.6-0.1
	l0.3,2.5c-0.4,0.1-0.8,0.2-1.1,0.3s-0.8,0.1-1.2,0.1c-1.2,0-2.1-0.3-2.7-1s-1-1.7-1-3.1v-6.5h-1.9v-2.4h1.9v-3.1L219.9,306.7
	L219.9,306.7z"/>
<path class="st1" d="M223.7,320.4l1.7-0.4v-7.9l-1.8-0.4v-2.1h5.2v10.3l1.6,0.4v2.1h-6.7V320.4z M228.8,306.8h-3.4v-2.6h3.4V306.8z"
	/>
<path class="st1" d="M236.4,311.9l-1.2,0.2l1.7,5.7l0.2,1.2h0.1l0.2-1.2l1.7-5.7l-1.2-0.2v-2.1h5.8v2.1l-1.1,0.2l-3.7,10.4h-3.3
	l-3.8-10.4l-1.1-0.2v-2.1h5.8L236.4,311.9L236.4,311.9z"/>
<path class="st1" d="M250.4,322.7c-1.8,0-3.3-0.6-4.4-1.8s-1.6-2.7-1.6-4.5v-0.5c0-1.9,0.5-3.4,1.6-4.7s2.4-1.8,4.2-1.8
	c1.7,0,3,0.5,4,1.5s1.4,2.4,1.4,4.2v1.9H248v0.1c0.1,0.8,0.3,1.5,0.8,2.1s1.2,0.8,2,0.8s1.4-0.1,1.9-0.2s1-0.4,1.6-0.7l0.9,2.1
	c-0.5,0.4-1.2,0.8-2,1S251.4,322.7,250.4,322.7z M250.1,312.2c-0.6,0-1.1,0.2-1.5,0.7s-0.6,1.1-0.7,1.9v0.1h4.2v-0.3
	c0-0.7-0.2-1.3-0.5-1.7S250.7,312.2,250.1,312.2z"/>
<path class="st1" d="M273.3,314.2H271l-0.4-1.6c-0.2-0.2-0.5-0.3-0.9-0.5s-0.7-0.2-1.2-0.2c-0.6,0-1.1,0.1-1.4,0.4s-0.5,0.6-0.5,1
	s0.2,0.7,0.5,1s1,0.5,2,0.7c1.6,0.3,2.7,0.8,3.5,1.4s1.1,1.4,1.1,2.5s-0.5,2.1-1.5,2.8s-2.3,1.1-3.9,1.1c-1,0-1.9-0.1-2.7-0.4
	s-1.5-0.7-2.2-1.2v-2.8h2.4l0.5,1.7c0.2,0.2,0.5,0.3,0.8,0.4s0.7,0.1,1.1,0.1c0.7,0,1.2-0.1,1.6-0.4s0.5-0.6,0.5-1s-0.2-0.7-0.6-1
	s-1-0.5-2-0.7c-1.5-0.3-2.6-0.8-3.4-1.4s-1.1-1.4-1.1-2.4c0-1.1,0.4-2,1.3-2.7s2.1-1.2,3.7-1.2c1,0,1.9,0.1,2.8,0.4s1.6,0.6,2.1,1
	L273.3,314.2z"/>
<path class="st1" d="M281.2,322.7c-1.8,0-3.3-0.6-4.4-1.8s-1.6-2.7-1.6-4.5v-0.5c0-1.9,0.5-3.4,1.6-4.7s2.4-1.8,4.2-1.8
	c1.7,0,3,0.5,4,1.5s1.4,2.4,1.4,4.2v1.9h-7.6v0.1c0.1,0.8,0.3,1.5,0.8,2.1s1.2,0.8,2,0.8s1.4-0.1,1.9-0.2s1-0.4,1.6-0.7l0.9,2.1
	c-0.5,0.4-1.2,0.8-2,1S282.2,322.7,281.2,322.7z M280.9,312.2c-0.6,0-1.1,0.2-1.5,0.7s-0.6,1.1-0.7,1.9v0.1h4.2v-0.3
	c0-0.7-0.2-1.3-0.5-1.7S281.6,312.2,280.9,312.2z"/>
<path class="st1" d="M287.4,320.4l1.2-0.2l3.4-4.2l-3.3-4l-1.2-0.2v-2.1h5.7v2l-1.2,0.1l1.9,2.4l1.9-2.4l-1.2-0.1v-2h5.7v2.1
	l-1.1,0.2l-3.3,4l3.4,4.2l1.2,0.2v2.1h-5.8v-2l1.2-0.1l-2-2.6l-2,2.6l1,0.1v2h-5.6L287.4,320.4L287.4,320.4z"/>
<path class="st1" d="M306.1,322.5h-3.4v-3h3.4V322.5z"/>
<path class="st1" d="M156.7,363c2.1,0,3.8,0.7,5.2,2s2,3,2,5.1v2.8c0,2.1-0.7,3.8-2,5.1s-3.1,2-5.2,2H149v-2l1.8-0.4v-12.2L149,365
	v-2h1.8H156.7z M154.3,365.7v11.8h2.3c1.2,0,2.2-0.4,2.9-1.2s1-1.9,1-3.2v-2.8c0-1.3-0.3-2.4-1-3.2s-1.7-1.2-2.9-1.2h-2.3V365.7z"/>
<path class="st1" d="M165.6,373.6c0-1.9,0.5-3.4,1.6-4.6s2.5-1.8,4.4-1.8s3.3,0.6,4.4,1.8s1.6,2.8,1.6,4.7v0.2
	c0,1.9-0.5,3.5-1.6,4.7s-2.5,1.8-4.4,1.8s-3.4-0.6-4.4-1.8s-1.6-2.8-1.6-4.7V373.6z M169,373.9c0,1.2,0.2,2.1,0.6,2.8s1.1,1,2,1
	s1.5-0.4,1.9-1.1s0.6-1.6,0.6-2.8v-0.2c0-1.1-0.2-2-0.6-2.8s-1.1-1.1-2-1.1s-1.5,0.4-1.9,1.1s-0.6,1.6-0.6,2.8V373.9z"/>
<path class="st1" d="M184.8,378l1.6-0.4v-7.9l-1.8-0.4v-2.1h5l0.2,1.8c0.4-0.6,0.9-1.2,1.6-1.5s1.3-0.5,2.1-0.5c1.3,0,2.3,0.4,3,1.2
	s1.1,2.1,1.1,3.8v5.5l1.6,0.4v2.1h-6.5v-2l1.5-0.4v-5.5c0-0.9-0.2-1.5-0.5-1.8s-0.9-0.5-1.6-0.5c-0.5,0-0.9,0.1-1.2,0.3
	s-0.7,0.4-0.9,0.8v6.8l1.4,0.4v2.1H185V378H184.8z"/>
<path class="st1" d="M199.8,373.6c0-1.9,0.5-3.4,1.6-4.6s2.5-1.8,4.4-1.8s3.3,0.6,4.4,1.8s1.6,2.8,1.6,4.7v0.2
	c0,1.9-0.5,3.5-1.6,4.7s-2.5,1.8-4.4,1.8s-3.4-0.6-4.4-1.8s-1.6-2.8-1.6-4.7V373.6z M203.2,373.9c0,1.2,0.2,2.1,0.6,2.8s1.1,1,2,1
	s1.5-0.4,1.9-1.1s0.6-1.6,0.6-2.8v-0.2c0-1.1-0.2-2-0.6-2.8s-1.1-1.1-2-1.1s-1.5,0.4-1.9,1.1s-0.6,1.6-0.6,2.8V373.9z"/>
<path class="st1" d="M218,364.3v3.1h2.2v2.4H218v6.5c0,0.5,0.1,0.8,0.3,1.1s0.5,0.3,0.8,0.3c0.2,0,0.4,0,0.6,0s0.4-0.1,0.6-0.1
	l0.3,2.5c-0.4,0.1-0.8,0.2-1.1,0.3s-0.8,0.1-1.2,0.1c-1.2,0-2.1-0.3-2.7-1s-1-1.7-1-3.1v-6.5h-1.9v-2.4h1.9v-3.1L218,364.3
	L218,364.3z"/>
<path class="st1" d="M236.6,378.5c-0.4,0.6-0.9,1.1-1.5,1.4s-1.3,0.5-2,0.5c-1.3,0-2.4-0.4-3.1-1.3s-1.1-2.2-1.1-4v-5.2l-1.4-0.4
	v-2.1h1.4h3.4v7.7c0,0.9,0.2,1.6,0.5,2s0.8,0.6,1.4,0.6c0.5,0,1-0.1,1.4-0.3s0.7-0.4,1-0.8v-6.8l-1.5-0.4v-2.1h1.5h3.4v10.3l1.5,0.4
	v2.1H237L236.6,378.5z"/>
<path class="st1" d="M252.8,371.8h-2.3l-0.4-1.6c-0.2-0.2-0.5-0.3-0.9-0.5s-0.7-0.2-1.2-0.2c-0.6,0-1.1,0.1-1.4,0.4s-0.5,0.6-0.5,1
	s0.2,0.7,0.5,1s1,0.5,2,0.7c1.6,0.3,2.7,0.8,3.5,1.4s1.1,1.4,1.1,2.5s-0.5,2.1-1.5,2.8s-2.3,1.1-3.9,1.1c-1,0-1.9-0.1-2.7-0.4
	s-1.5-0.7-2.2-1.2V376h2.4l0.5,1.7c0.2,0.2,0.5,0.3,0.8,0.4s0.7,0.1,1.1,0.1c0.7,0,1.2-0.1,1.6-0.4s0.5-0.6,0.5-1s-0.2-0.7-0.6-1
	s-1-0.5-2-0.7c-1.5-0.3-2.6-0.8-3.4-1.4s-1.1-1.4-1.1-2.4c0-1.1,0.4-2,1.3-2.7s2.1-1.2,3.7-1.2c1,0,1.9,0.1,2.8,0.4s1.6,0.6,2.1,1
	L252.8,371.8z"/>
<path class="st1" d="M260.6,380.3c-1.8,0-3.3-0.6-4.4-1.8s-1.6-2.7-1.6-4.5v-0.5c0-1.9,0.5-3.4,1.6-4.7s2.4-1.8,4.2-1.8
	c1.7,0,3,0.5,4,1.5s1.4,2.4,1.4,4.2v1.9h-7.6v0.1c0.1,0.8,0.3,1.5,0.8,2.1s1.2,0.8,2,0.8s1.4-0.1,1.9-0.2s1-0.4,1.6-0.7l0.9,2.1
	c-0.5,0.4-1.2,0.8-2,1S261.7,380.3,260.6,380.3z M260.3,369.8c-0.6,0-1.1,0.2-1.5,0.7s-0.6,1.1-0.7,1.9v0.1h4.2v-0.3
	c0-0.7-0.2-1.3-0.5-1.7S261,369.8,260.3,369.8z"/>
<path class="st1" d="M273.2,373.6c0-1.9,0.5-3.4,1.6-4.6s2.5-1.8,4.4-1.8s3.3,0.6,4.4,1.8s1.6,2.8,1.6,4.7v0.2
	c0,1.9-0.5,3.5-1.6,4.7s-2.5,1.8-4.4,1.8s-3.4-0.6-4.4-1.8s-1.6-2.8-1.6-4.7V373.6z M276.7,373.9c0,1.2,0.2,2.1,0.6,2.8s1.1,1,2,1
	s1.5-0.4,1.9-1.1s0.6-1.6,0.6-2.8v-0.2c0-1.1-0.2-2-0.6-2.8s-1.1-1.1-2-1.1s-1.5,0.4-1.9,1.1s-0.6,1.6-0.6,2.8V373.9z"/>
<path class="st1" d="M286.2,378l1.7-0.4v-7.9l-1.8-0.4v-2.1h5.2v10.3l1.6,0.4v2.1h-6.7L286.2,378L286.2,378z M291.3,364.4h-3.4v-2.6
	h3.4V364.4z"/>
<path class="st1" d="M293.9,363.9v-2.1h5.2v15.9l1.7,0.4v2.1h-6.7V378l1.7-0.4v-13.5L293.9,363.9z"/>
<path class="st1" d="M308.5,374.1h-6.6v-2.6h6.6V374.1z"/>
<path class="st1" d="M322.4,374.1c0,1.9-0.4,3.4-1.3,4.5s-2.1,1.7-3.7,1.7c-0.7,0-1.4-0.2-1.9-0.5s-1-0.8-1.4-1.3l-0.2,1.6h-3v-15.9
	l-1.8-0.4v-2.1h5.2v6.9c0.4-0.5,0.8-0.9,1.3-1.2s1.1-0.4,1.8-0.4c1.6,0,2.8,0.6,3.7,1.8s1.3,2.8,1.3,4.9V374.1z M319,373.9
	c0-1.2-0.2-2.2-0.5-2.9s-1-1.1-1.9-1.1c-0.5,0-1,0.1-1.3,0.3s-0.7,0.5-0.9,1v5.4c0.2,0.4,0.5,0.7,0.9,0.9s0.8,0.3,1.4,0.3
	c0.9,0,1.5-0.3,1.9-0.9s0.5-1.5,0.5-2.6v-0.4H319z"/>
<path class="st1" d="M331.8,380.1c-0.1-0.2-0.2-0.4-0.2-0.7s-0.1-0.4-0.2-0.7c-0.4,0.5-0.9,0.8-1.5,1.1s-1.2,0.4-2,0.4
	c-1.2,0-2.2-0.3-3-1s-1.1-1.6-1.1-2.8c0-1.2,0.5-2.1,1.4-2.8s2.4-1,4.2-1h1.7v-1.2c0-0.6-0.2-1.1-0.5-1.4s-0.9-0.5-1.6-0.5
	c-0.4,0-0.7,0-1,0.1s-0.6,0.2-0.7,0.3l-0.2,1.4h-2.6v-2.8c0.6-0.4,1.3-0.8,2.2-1.1s1.7-0.4,2.6-0.4c1.6,0,2.8,0.4,3.8,1.2
	s1.5,1.9,1.5,3.3v5.2c0,0.2,0,0.4,0,0.6s0,0.3,0,0.5l1,0.1v2.1L331.8,380.1L331.8,380.1z M328.8,377.8c0.5,0,1-0.1,1.4-0.3
	s0.8-0.5,1-0.8v-1.9h-1.7c-0.7,0-1.3,0.2-1.7,0.5s-0.6,0.7-0.6,1.2c0,0.4,0.1,0.8,0.4,1S328.3,377.8,328.8,377.8z"/>
<path class="st1" d="M347,371.8h-2.3l-0.4-1.6c-0.2-0.2-0.5-0.3-0.9-0.5s-0.7-0.2-1.2-0.2c-0.6,0-1.1,0.1-1.4,0.4s-0.5,0.6-0.5,1
	s0.2,0.7,0.5,1s1,0.5,2,0.7c1.6,0.3,2.7,0.8,3.5,1.4s1.1,1.4,1.1,2.5s-0.5,2.1-1.5,2.8s-2.3,1.1-3.9,1.1c-1,0-1.9-0.1-2.7-0.4
	s-1.5-0.7-2.2-1.2V376h2.4l0.5,1.7c0.2,0.2,0.5,0.3,0.8,0.4s0.7,0.1,1.1,0.1c0.7,0,1.2-0.1,1.6-0.4s0.5-0.6,0.5-1s-0.2-0.7-0.6-1
	s-1-0.5-2-0.7c-1.5-0.3-2.6-0.8-3.4-1.4s-1.1-1.4-1.1-2.4c0-1.1,0.4-2,1.3-2.7s2.1-1.2,3.7-1.2c1,0,1.9,0.1,2.8,0.4s1.6,0.6,2.1,1
	L347,371.8z"/>
<path class="st1" d="M354.9,380.3c-1.8,0-3.3-0.6-4.4-1.8s-1.6-2.7-1.6-4.5v-0.5c0-1.9,0.5-3.4,1.6-4.7s2.4-1.8,4.2-1.8
	c1.7,0,3,0.5,4,1.5s1.4,2.4,1.4,4.2v1.9h-7.6v0.1c0.1,0.8,0.3,1.5,0.8,2.1s1.2,0.8,2,0.8s1.4-0.1,1.9-0.2s1-0.4,1.6-0.7l0.9,2.1
	c-0.5,0.4-1.2,0.8-2,1S355.9,380.3,354.9,380.3z M354.6,369.8c-0.6,0-1.1,0.2-1.5,0.7s-0.6,1.1-0.7,1.9v0.1h4.2v-0.3
	c0-0.7-0.2-1.3-0.5-1.7S355.3,369.8,354.6,369.8z"/>
<path class="st1" d="M369.8,378.6c-0.4,0.6-0.9,1-1.4,1.3s-1.2,0.5-1.9,0.5c-1.6,0-2.8-0.6-3.6-1.7s-1.3-2.6-1.3-4.5V374
	c0-2,0.4-3.6,1.3-4.8s2.1-1.8,3.7-1.8c0.6,0,1.2,0.1,1.7,0.4s1,0.7,1.3,1.2v-4.5l-1.8-0.4V362h1.8h3.4v15.9l1.6,0.4v2.1H370
	L369.8,378.6z M365,374.1c0,1.1,0.2,2,0.6,2.6s1,1,1.8,1c0.5,0,0.9-0.1,1.3-0.3s0.7-0.5,0.9-0.9v-5.4c-0.2-0.4-0.5-0.7-0.9-0.9
	s-0.8-0.3-1.3-0.3c-0.8,0-1.4,0.4-1.8,1.1s-0.6,1.7-0.6,2.9V374.1z"/>
<path class="st1" d="M128.7,392.7v-2.1h5.2v15.9l1.7,0.4v2.1h-6.7v-2.1l1.7-0.4V393L128.7,392.7z"/>
<path class="st1" d="M145.2,407.3c-0.4,0.6-0.9,1.1-1.5,1.4s-1.3,0.5-2,0.5c-1.3,0-2.4-0.4-3.1-1.3s-1.1-2.2-1.1-4v-5.2l-1.4-0.4
	v-2.1h1.4h3.4v7.7c0,0.9,0.2,1.6,0.5,2s0.8,0.6,1.4,0.6c0.5,0,1-0.1,1.4-0.3s0.7-0.4,1-0.8v-6.8l-1.5-0.4v-2.1h1.5h3.4v10.3l1.5,0.4
	v2.1h-4.5L145.2,407.3z"/>
<path class="st1" d="M163.1,402.9c0,1.9-0.4,3.4-1.3,4.5s-2.1,1.7-3.7,1.7c-0.7,0-1.4-0.2-1.9-0.5s-1-0.8-1.4-1.3l-0.2,1.6h-3V393
	l-1.8-0.4v-2.1h5.2v6.9c0.4-0.5,0.8-0.9,1.3-1.2s1.1-0.4,1.8-0.4c1.6,0,2.8,0.6,3.7,1.8s1.3,2.8,1.3,4.9L163.1,402.9L163.1,402.9z
	 M159.7,402.7c0-1.2-0.2-2.2-0.5-2.9s-1-1.1-1.9-1.1c-0.5,0-1,0.1-1.3,0.3s-0.7,0.5-0.9,1v5.4c0.2,0.4,0.5,0.7,0.9,0.9
	s0.8,0.3,1.4,0.3c0.9,0,1.5-0.3,1.9-0.9s0.5-1.5,0.5-2.6L159.7,402.7L159.7,402.7z"/>
<path class="st1" d="M164.5,406.8l1.6-0.4v-7.9l-1.8-0.4V396h5l0.2,1.9c0.3-0.7,0.7-1.2,1.1-1.5s1-0.6,1.6-0.6c0.2,0,0.4,0,0.6,0
	s0.4,0.1,0.5,0.1l-0.4,3.1h-1.4c-0.5,0-0.9,0.1-1.2,0.3s-0.6,0.5-0.8,0.8v6.2l1.6,0.4v2.1h-6.7L164.5,406.8L164.5,406.8z"/>
<path class="st1" d="M174.5,406.8l1.7-0.4v-7.9l-1.8-0.4V396h5.2v10.3l1.6,0.4v2.1h-6.7V406.8z M179.6,393.2h-3.4v-2.6h3.4V393.2z"
	/>
<path class="st1" d="M187.9,406.5c0.6,0,1.1-0.2,1.5-0.5s0.6-0.8,0.6-1.4h3.1v0.1c0,1.3-0.4,2.4-1.4,3.2s-2.2,1.3-3.7,1.3
	c-1.9,0-3.3-0.6-4.4-1.8s-1.5-2.7-1.5-4.6v-0.4c0-1.9,0.5-3.4,1.6-4.6s2.5-1.8,4.5-1.8c1,0,1.9,0.2,2.8,0.5s1.5,0.7,2,1.3v3.4h-2.8
	l-0.6-2c-0.2-0.1-0.4-0.3-0.6-0.4s-0.5-0.1-0.9-0.1c-1,0-1.7,0.4-2.1,1.1s-0.6,1.6-0.6,2.7v0.4c0,1.1,0.2,2,0.6,2.7
	S187,406.5,187.9,406.5z"/>
<path class="st1" d="M202.5,408.9c-0.1-0.2-0.2-0.4-0.2-0.7s-0.1-0.4-0.2-0.7c-0.4,0.5-0.9,0.8-1.5,1.1s-1.2,0.4-2,0.4
	c-1.2,0-2.2-0.3-3-1s-1.1-1.6-1.1-2.8c0-1.2,0.5-2.1,1.4-2.8s2.4-1,4.2-1h1.7v-1.2c0-0.6-0.2-1.1-0.5-1.4s-0.9-0.5-1.6-0.5
	c-0.4,0-0.7,0-1,0.1s-0.6,0.2-0.7,0.3l-0.2,1.4h-2.6v-2.8c0.6-0.4,1.3-0.8,2.2-1.1s1.7-0.4,2.6-0.4c1.6,0,2.8,0.4,3.8,1.2
	s1.5,1.9,1.5,3.3v5.2c0,0.2,0,0.4,0,0.6s0,0.3,0,0.5l1,0.1v2.1L202.5,408.9L202.5,408.9z M199.5,406.6c0.5,0,1-0.1,1.4-0.3
	s0.8-0.5,1-0.8v-1.9h-1.7c-0.7,0-1.3,0.2-1.7,0.5s-0.6,0.7-0.6,1.2c0,0.4,0.1,0.8,0.4,1S199.1,406.6,199.5,406.6z"/>
<path class="st1" d="M207.6,406.8l1.6-0.4v-7.9l-1.8-0.4V396h5l0.2,1.8c0.4-0.6,0.9-1.2,1.6-1.5s1.3-0.5,2.1-0.5
	c1.3,0,2.3,0.4,3,1.2s1.1,2.1,1.1,3.8v5.5l1.6,0.4v2.1h-6.5v-2.1l1.5-0.4V401c0-0.9-0.2-1.5-0.5-1.8s-0.9-0.5-1.6-0.5
	c-0.5,0-0.9,0.1-1.2,0.3s-0.7,0.4-0.9,0.8v6.8l1.4,0.4v2.1h-6.4v-2.3H207.6z"/>
<path class="st1" d="M227.4,393.1v3.1h2.2v2.4h-2.2v6.5c0,0.5,0.1,0.8,0.3,1.1s0.5,0.3,0.8,0.3c0.2,0,0.4,0,0.6,0s0.4-0.1,0.6-0.1
	l0.3,2.5c-0.4,0.1-0.8,0.2-1.1,0.3s-0.8,0.1-1.2,0.1c-1.2,0-2.1-0.3-2.7-1s-1-1.7-1-3.1v-6.5h-1.9v-2.4h1.9v-3.1L227.4,393.1
	L227.4,393.1z"/>
<path class="st1" d="M241.3,400.6H239l-0.4-1.6c-0.2-0.2-0.5-0.3-0.9-0.5s-0.7-0.2-1.2-0.2c-0.6,0-1.1,0.1-1.4,0.4s-0.5,0.6-0.5,1
	s0.2,0.7,0.5,1s1,0.5,2,0.7c1.6,0.3,2.7,0.8,3.5,1.4s1.1,1.4,1.1,2.5s-0.5,2.1-1.5,2.8s-2.3,1.1-3.9,1.1c-1,0-1.9-0.1-2.7-0.4
	s-1.5-0.7-2.2-1.2v-2.8h2.4l0.5,1.7c0.2,0.2,0.5,0.3,0.8,0.4s0.7,0.1,1.1,0.1c0.7,0,1.2-0.1,1.6-0.4s0.5-0.6,0.5-1s-0.2-0.7-0.6-1
	s-1-0.5-2-0.7c-1.5-0.3-2.6-0.8-3.4-1.4s-1.1-1.4-1.1-2.4c0-1.1,0.4-2,1.3-2.7s2.1-1.2,3.7-1.2c1,0,1.9,0.1,2.8,0.4s1.6,0.6,2.1,1
	L241.3,400.6z"/>
<path class="st1" d="M247,408.4c0,0.8-0.2,1.6-0.7,2.5s-1,1.6-1.6,2.2l-1.7-0.9c0.3-0.5,0.5-1.1,0.7-1.7s0.2-1.2,0.2-2v-2.6h3.1
	V408.4z"/>
<path class="st1" d="M259.8,393.1v3.1h2.2v2.4h-2.2v6.5c0,0.5,0.1,0.8,0.3,1.1s0.5,0.3,0.8,0.3c0.2,0,0.4,0,0.6,0s0.4-0.1,0.6-0.1
	l0.3,2.5c-0.4,0.1-0.8,0.2-1.1,0.3s-0.8,0.1-1.2,0.1c-1.2,0-2.1-0.3-2.7-1s-1-1.7-1-3.1v-6.5h-1.9v-2.4h1.9v-3.1L259.8,393.1
	L259.8,393.1z"/>
<path class="st1" d="M263.7,406.8l1.7-0.4V393l-1.8-0.4v-2.1h5.2v7.2c0.4-0.6,0.9-1,1.5-1.4s1.2-0.5,1.9-0.5c1.3,0,2.4,0.4,3.1,1.3
	s1.1,2.2,1.1,4.1v5.1l1.6,0.4v2.1h-6.5v-2.1l1.5-0.4v-5.1c0-1-0.2-1.7-0.5-2.1s-0.9-0.6-1.6-0.6c-0.5,0-0.9,0.1-1.2,0.3
	s-0.7,0.4-0.9,0.7v6.9l1.5,0.4v2.1h-6.5v-2.1H263.7z"/>
<path class="st1" d="M284.8,409.1c-1.8,0-3.3-0.6-4.4-1.8s-1.6-2.7-1.6-4.5v-0.5c0-1.9,0.5-3.4,1.6-4.7s2.4-1.8,4.2-1.8
	c1.7,0,3,0.5,4,1.5s1.4,2.4,1.4,4.2v1.9h-7.6v0.1c0.1,0.8,0.3,1.5,0.8,2.1s1.2,0.8,2,0.8s1.4-0.1,1.9-0.2s1-0.4,1.6-0.7l0.9,2.1
	c-0.5,0.4-1.2,0.8-2,1S285.8,409.1,284.8,409.1z M284.5,398.6c-0.6,0-1.1,0.2-1.5,0.7s-0.6,1.1-0.7,1.9v0.1h4.2V401
	c0-0.7-0.2-1.3-0.5-1.7S285.2,398.6,284.5,398.6z"/>
<path class="st1" d="M304.3,398.3l-1.2,0.2l-4.7,12.3c-0.4,0.9-0.9,1.7-1.5,2.3s-1.5,0.9-2.8,0.9c-0.3,0-0.6,0-0.8-0.1
	s-0.6-0.1-0.9-0.2l0.4-2.5c0.1,0,0.2,0,0.3,0s0.2,0,0.3,0c0.6,0,1-0.1,1.3-0.4s0.5-0.6,0.7-1l0.4-1l-4-10.4l-1.2-0.2v-2.1h6.2v2.1
	l-1.4,0.2l1.7,5.1l0.2,0.9h0.1l2-6l-1.4-0.2v-2.1h6.2L304.3,398.3L304.3,398.3z"/>
<path class="st1" d="M329.4,398.3l-1.3,0.2l-2.6,10.5h-2.9l-2.4-7.5h-0.1l-2.4,7.5H315l-2.7-10.5l-1.3-0.2v-2.1h5.7v2.1l-1.3,0.3
	l1.2,5.8h0.1l2.4-8.1h2.3l2.4,8.1h0.1l1.2-5.8l-1.4-0.3v-2.1h5.7L329.4,398.3L329.4,398.3z"/>
<path class="st1" d="M336.2,409.1c-1.8,0-3.3-0.6-4.4-1.8s-1.6-2.7-1.6-4.5v-0.5c0-1.9,0.5-3.4,1.6-4.7s2.4-1.8,4.2-1.8
	c1.7,0,3,0.5,4,1.5s1.4,2.4,1.4,4.2v1.9h-7.6v0.1c0.1,0.8,0.3,1.5,0.8,2.1s1.2,0.8,2,0.8s1.4-0.1,1.9-0.2s1-0.4,1.6-0.7l0.9,2.1
	c-0.5,0.4-1.2,0.8-2,1S337.2,409.1,336.2,409.1z M335.9,398.6c-0.6,0-1.1,0.2-1.5,0.7s-0.6,1.1-0.7,1.9v0.1h4.2V401
	c0-0.7-0.2-1.3-0.5-1.7S336.5,398.6,335.9,398.6z"/>
<path class="st1" d="M350.7,408.9c-0.1-0.2-0.2-0.4-0.2-0.7s-0.1-0.4-0.2-0.7c-0.4,0.5-0.9,0.8-1.5,1.1s-1.2,0.4-2,0.4
	c-1.2,0-2.2-0.3-3-1s-1.1-1.6-1.1-2.8c0-1.2,0.5-2.1,1.4-2.8s2.4-1,4.2-1h1.7v-1.2c0-0.6-0.2-1.1-0.5-1.4s-0.9-0.5-1.6-0.5
	c-0.4,0-0.7,0-1,0.1s-0.6,0.2-0.7,0.3l-0.2,1.4h-2.6v-2.8c0.6-0.4,1.3-0.8,2.2-1.1s1.7-0.4,2.6-0.4c1.6,0,2.8,0.4,3.8,1.2
	s1.5,1.9,1.5,3.3v5.2c0,0.2,0,0.4,0,0.6s0,0.3,0,0.5l1,0.1v2.1L350.7,408.9L350.7,408.9z M347.7,406.6c0.5,0,1-0.1,1.4-0.3
	s0.8-0.5,1-0.8v-1.9h-1.7c-0.7,0-1.3,0.2-1.7,0.5s-0.6,0.7-0.6,1.2c0,0.4,0.1,0.8,0.4,1S347.2,406.6,347.7,406.6z"/>
<path class="st1" d="M355.6,392.7v-2.1h5.2v10.6h0.8l2-2.8l-1.1-0.2v-2.1h6.2v2.1l-1.5,0.3l-2.3,3.1l3.2,4.8l1.3,0.3v2.1h-5.9v-2.1
	l0.7-0.1l-1.9-3.1h-1.5v2.9l1.5,0.4v2.1h-6.5v-2.1l1.7-0.4V393L355.6,392.7z"/>
<path class="st1" d="M376.2,409.1c-1.8,0-3.3-0.6-4.4-1.8s-1.6-2.7-1.6-4.5v-0.5c0-1.9,0.5-3.4,1.6-4.7s2.4-1.8,4.2-1.8
	c1.7,0,3,0.5,4,1.5s1.4,2.4,1.4,4.2v1.9h-7.6v0.1c0.1,0.8,0.3,1.5,0.8,2.1s1.2,0.8,2,0.8s1.4-0.1,1.9-0.2s1-0.4,1.6-0.7l0.9,2.1
	c-0.5,0.4-1.2,0.8-2,1S377.2,409.1,376.2,409.1z M375.9,398.6c-0.6,0-1.1,0.2-1.5,0.7s-0.6,1.1-0.7,1.9v0.1h4.2V401
	c0-0.7-0.2-1.3-0.5-1.7S376.6,398.6,375.9,398.6z"/>
<path class="st1" d="M382.5,406.8l1.6-0.4v-7.9l-1.8-0.4V396h5l0.2,1.8c0.4-0.6,0.9-1.2,1.6-1.5s1.3-0.5,2.1-0.5
	c1.3,0,2.3,0.4,3,1.2s1.1,2.1,1.1,3.8v5.5l1.6,0.4v2.1h-6.5v-2.1l1.5-0.4V401c0-0.9-0.2-1.5-0.5-1.8s-0.9-0.5-1.6-0.5
	c-0.5,0-0.9,0.1-1.2,0.3s-0.7,0.4-0.9,0.8v6.8l1.4,0.4v2.1h-6.4v-2.3H382.5z"/>
<path class="st1" d="M411.9,408.9c-0.1-0.2-0.2-0.4-0.2-0.7s-0.1-0.4-0.2-0.7c-0.4,0.5-0.9,0.8-1.5,1.1s-1.2,0.4-2,0.4
	c-1.2,0-2.2-0.3-3-1s-1.1-1.6-1.1-2.8c0-1.2,0.5-2.1,1.4-2.8s2.4-1,4.2-1h1.7v-1.2c0-0.6-0.2-1.1-0.5-1.4s-0.9-0.5-1.6-0.5
	c-0.4,0-0.7,0-1,0.1s-0.6,0.2-0.7,0.3l-0.2,1.4h-2.6v-2.8c0.6-0.4,1.3-0.8,2.2-1.1s1.7-0.4,2.6-0.4c1.6,0,2.8,0.4,3.8,1.2
	s1.5,1.9,1.5,3.3v5.2c0,0.2,0,0.4,0,0.6s0,0.3,0,0.5l1,0.1v2.1L411.9,408.9L411.9,408.9z M408.9,406.6c0.5,0,1-0.1,1.4-0.3
	s0.8-0.5,1-0.8v-1.9h-1.7c-0.7,0-1.3,0.2-1.7,0.5s-0.6,0.7-0.6,1.2c0,0.4,0.1,0.8,0.4,1S408.5,406.6,408.9,406.6z"/>
<path class="st1" d="M135.1,435.3c0.6,0,1.1-0.2,1.5-0.5s0.6-0.8,0.6-1.4h3.1v0.1c0,1.3-0.4,2.4-1.4,3.2s-2.2,1.3-3.7,1.3
	c-1.9,0-3.3-0.6-4.4-1.8s-1.5-2.7-1.5-4.6v-0.4c0-1.9,0.5-3.4,1.6-4.6s2.5-1.8,4.5-1.8c1,0,1.9,0.2,2.8,0.5s1.5,0.7,2,1.3v3.4h-2.8
	l-0.6-2c-0.2-0.1-0.4-0.3-0.6-0.4s-0.5-0.1-0.9-0.1c-1,0-1.7,0.4-2.1,1.1s-0.6,1.6-0.6,2.7v0.4c0,1.1,0.2,2,0.6,2.7
	S134.1,435.3,135.1,435.3z"/>
<path class="st1" d="M141.6,431.2c0-1.9,0.5-3.4,1.6-4.6s2.5-1.8,4.4-1.8s3.3,0.6,4.4,1.8s1.6,2.8,1.6,4.7v0.2
	c0,1.9-0.5,3.5-1.6,4.7s-2.5,1.8-4.4,1.8s-3.4-0.6-4.4-1.8s-1.6-2.8-1.6-4.7V431.2z M145,431.5c0,1.2,0.2,2.1,0.6,2.8s1.1,1,2,1
	s1.5-0.4,1.9-1.1s0.6-1.6,0.6-2.8v-0.2c0-1.1-0.2-2-0.6-2.8s-1.1-1.1-2-1.1s-1.5,0.4-1.9,1.1s-0.6,1.6-0.6,2.8V431.5z"/>
<path class="st1" d="M154.5,435.6l1.6-0.4v-7.9l-1.8-0.4V425h5l0.2,1.8c0.4-0.6,0.9-1.2,1.6-1.5s1.3-0.5,2.1-0.5
	c1.3,0,2.3,0.4,3,1.2s1.1,2.1,1.1,3.8v5.5l1.6,0.4v2.1h-6.5v-2.1l1.5-0.4v-5.5c0-0.9-0.2-1.5-0.5-1.8s-0.9-0.5-1.6-0.5
	c-0.5,0-0.9,0.1-1.2,0.3s-0.7,0.4-0.9,0.8v6.8l1.4,0.4v2.1h-6.4v-2.3H154.5z"/>
<path class="st1" d="M177.9,436.2c-0.4,0.6-0.9,1-1.4,1.3s-1.2,0.5-1.9,0.5c-1.6,0-2.8-0.6-3.6-1.7s-1.3-2.6-1.3-4.5v-0.2
	c0-2,0.4-3.6,1.3-4.8s2.1-1.8,3.7-1.8c0.6,0,1.2,0.1,1.7,0.4s1,0.7,1.3,1.2v-4.5l-1.8-0.4v-2.1h1.8h3.4v15.9l1.6,0.4v2.1h-4.6
	L177.9,436.2z M173.1,431.7c0,1.1,0.2,2,0.6,2.6s1,1,1.8,1c0.5,0,0.9-0.1,1.3-0.3s0.7-0.5,0.9-0.9v-5.4c-0.2-0.4-0.5-0.7-0.9-0.9
	s-0.8-0.3-1.3-0.3c-0.8,0-1.4,0.4-1.8,1.1s-0.6,1.7-0.6,2.9V431.7z"/>
<path class="st1" d="M183.5,431.2c0-1.9,0.5-3.4,1.6-4.6s2.5-1.8,4.4-1.8s3.3,0.6,4.4,1.8s1.6,2.8,1.6,4.7v0.2
	c0,1.9-0.5,3.5-1.6,4.7s-2.5,1.8-4.4,1.8s-3.4-0.6-4.4-1.8s-1.6-2.8-1.6-4.7V431.2z M186.9,431.5c0,1.2,0.2,2.1,0.6,2.8s1.1,1,2,1
	s1.5-0.4,1.9-1.1s0.6-1.6,0.6-2.8v-0.2c0-1.1-0.2-2-0.6-2.8s-1.1-1.1-2-1.1s-1.5,0.4-1.9,1.1s-0.6,1.6-0.6,2.8V431.5z"/>
<path class="st1" d="M196.2,427.1V425h5l0.1,1.7c0.4-0.6,0.9-1.1,1.5-1.4s1.3-0.5,2.1-0.5s1.5,0.2,2.1,0.5s1,0.9,1.3,1.6
	c0.4-0.7,0.9-1.2,1.5-1.6s1.4-0.6,2.2-0.6c1.2,0,2.2,0.4,3,1.3s1.1,2.2,1.1,3.9v5.3l1.7,0.4v2.1h-6.6v-2.1l1.5-0.4V430
	c0-1-0.2-1.6-0.5-2s-0.8-0.6-1.4-0.6c-0.5,0-0.9,0.1-1.3,0.3s-0.6,0.5-0.8,0.9c0,0.1,0,0.3,0,0.4s0,0.2,0,0.3v5.9l1.4,0.4v2.1H204
	v-2.1l1.4-0.4V430c0-0.9-0.2-1.6-0.5-2s-0.8-0.6-1.4-0.6c-0.5,0-0.9,0.1-1.2,0.3s-0.6,0.4-0.9,0.7v6.8l1.5,0.4v2.1h-6.5v-2.1
	l1.7-0.4v-7.9L196.2,427.1z"/>
<path class="st1" d="M232.9,437.7c-0.1-0.2-0.2-0.4-0.2-0.7s-0.1-0.4-0.2-0.7c-0.4,0.5-0.9,0.8-1.5,1.1s-1.2,0.4-2,0.4
	c-1.2,0-2.2-0.3-3-1s-1.1-1.6-1.1-2.8c0-1.2,0.5-2.1,1.4-2.8s2.4-1,4.2-1h1.7V429c0-0.6-0.2-1.1-0.5-1.4s-0.9-0.5-1.6-0.5
	c-0.4,0-0.7,0-1,0.1s-0.6,0.2-0.7,0.3l-0.2,1.4h-2.6v-2.8c0.6-0.4,1.3-0.8,2.2-1.1s1.7-0.4,2.6-0.4c1.6,0,2.8,0.4,3.8,1.2
	s1.5,1.9,1.5,3.3v5.2c0,0.2,0,0.4,0,0.6s0,0.3,0,0.5l1,0.1v2.1L232.9,437.7L232.9,437.7z M229.9,435.4c0.5,0,1-0.1,1.4-0.3
	s0.8-0.5,1-0.8v-1.9h-1.7c-0.7,0-1.3,0.2-1.7,0.5s-0.6,0.7-0.6,1.2c0,0.4,0.1,0.8,0.4,1S229.5,435.4,229.9,435.4z"/>
<path class="st1" d="M238,435.6l1.6-0.4v-7.9l-1.8-0.4V425h5l0.2,1.8c0.4-0.6,0.9-1.2,1.6-1.5s1.3-0.5,2.1-0.5c1.3,0,2.3,0.4,3,1.2
	s1.1,2.1,1.1,3.8v5.5l1.6,0.4v2.1h-6.5v-2.1l1.5-0.4v-5.5c0-0.9-0.2-1.5-0.5-1.8s-0.9-0.5-1.6-0.5c-0.5,0-0.9,0.1-1.2,0.3
	s-0.7,0.4-0.9,0.8v6.8l1.4,0.4v2.1H238V435.6z"/>
<path class="st1" d="M261.4,436.2c-0.4,0.6-0.9,1-1.4,1.3s-1.2,0.5-1.9,0.5c-1.6,0-2.8-0.6-3.6-1.7s-1.3-2.6-1.3-4.5v-0.2
	c0-2,0.4-3.6,1.3-4.8s2.1-1.8,3.7-1.8c0.6,0,1.2,0.1,1.7,0.4s1,0.7,1.3,1.2v-4.5l-1.8-0.4v-2.1h1.8h3.4v15.9l1.6,0.4v2.1h-4.6
	L261.4,436.2z M256.6,431.7c0,1.1,0.2,2,0.6,2.6s1,1,1.8,1c0.5,0,0.9-0.1,1.3-0.3s0.7-0.5,0.9-0.9v-5.4c-0.2-0.4-0.5-0.7-0.9-0.9
	s-0.8-0.3-1.3-0.3c-0.8,0-1.4,0.4-1.8,1.1s-0.6,1.7-0.6,2.9V431.7z"/>
<path class="st1" d="M273.1,435.6l1.7-0.4v-7.9l-1.8-0.4V425h5.2v10.3l1.6,0.4v2.1h-6.7L273.1,435.6L273.1,435.6z M278.2,422h-3.4
	v-2.6h3.4V422z"/>
<path class="st1" d="M281,435.6l1.6-0.4v-7.9l-1.8-0.4V425h5l0.2,1.8c0.4-0.6,0.9-1.2,1.6-1.5s1.3-0.5,2.1-0.5c1.3,0,2.3,0.4,3,1.2
	s1.1,2.1,1.1,3.8v5.5l1.6,0.4v2.1h-6.5v-2.1l1.5-0.4v-5.5c0-0.9-0.2-1.5-0.5-1.8s-0.9-0.5-1.6-0.5c-0.5,0-0.9,0.1-1.2,0.3
	s-0.7,0.4-0.9,0.8v6.8l1.4,0.4v2.1H281V435.6z"/>
<path class="st1" d="M302,435.3c0.6,0,1.1-0.2,1.5-0.5s0.6-0.8,0.6-1.4h3.1v0.1c0,1.3-0.4,2.4-1.4,3.2s-2.2,1.3-3.7,1.3
	c-1.9,0-3.3-0.6-4.4-1.8s-1.5-2.7-1.5-4.6v-0.4c0-1.9,0.5-3.4,1.6-4.6s2.5-1.8,4.5-1.8c1,0,1.9,0.2,2.8,0.5s1.5,0.7,2,1.3v3.4h-2.8
	l-0.6-2c-0.2-0.1-0.4-0.3-0.6-0.4s-0.5-0.1-0.9-0.1c-1,0-1.7,0.4-2.1,1.1s-0.6,1.6-0.6,2.7v0.4c0,1.1,0.2,2,0.6,2.7
	S301.1,435.3,302,435.3z"/>
<path class="st1" d="M308.7,435.6l1.6-0.4v-7.9l-1.8-0.4V425h5l0.2,1.9c0.3-0.7,0.7-1.2,1.1-1.5s1-0.6,1.6-0.6c0.2,0,0.4,0,0.6,0
	s0.4,0.1,0.5,0.1l-0.4,3.1h-1.4c-0.5,0-0.9,0.1-1.2,0.3s-0.6,0.5-0.8,0.8v6.2l1.6,0.4v2.1h-6.7L308.7,435.6L308.7,435.6z"/>
<path class="st1" d="M324.3,437.9c-1.8,0-3.3-0.6-4.4-1.8s-1.6-2.7-1.6-4.5v-0.5c0-1.9,0.5-3.4,1.6-4.7s2.4-1.8,4.2-1.8
	c1.7,0,3,0.5,4,1.5s1.4,2.4,1.4,4.2v1.9h-7.6v0.1c0.1,0.8,0.3,1.5,0.8,2.1s1.2,0.8,2,0.8s1.4-0.1,1.9-0.2s1-0.4,1.6-0.7l0.9,2.1
	c-0.5,0.4-1.2,0.8-2,1S325.3,437.9,324.3,437.9z M324,427.4c-0.6,0-1.1,0.2-1.5,0.7s-0.6,1.1-0.7,1.9v0.1h4.2v-0.3
	c0-0.7-0.2-1.3-0.5-1.7S324.6,427.4,324,427.4z"/>
<path class="st1" d="M338.8,437.7c-0.1-0.2-0.2-0.4-0.2-0.7s-0.1-0.4-0.2-0.7c-0.4,0.5-0.9,0.8-1.5,1.1s-1.2,0.4-2,0.4
	c-1.2,0-2.2-0.3-3-1s-1.1-1.6-1.1-2.8c0-1.2,0.5-2.1,1.4-2.8s2.4-1,4.2-1h1.7V429c0-0.6-0.2-1.1-0.5-1.4s-0.9-0.5-1.6-0.5
	c-0.4,0-0.7,0-1,0.1s-0.6,0.2-0.7,0.3l-0.2,1.4h-2.6v-2.8c0.6-0.4,1.3-0.8,2.2-1.1s1.7-0.4,2.6-0.4c1.6,0,2.8,0.4,3.8,1.2
	s1.5,1.9,1.5,3.3v5.2c0,0.2,0,0.4,0,0.6s0,0.3,0,0.5l1,0.1v2.1L338.8,437.7L338.8,437.7z M335.8,435.4c0.5,0,1-0.1,1.4-0.3
	s0.8-0.5,1-0.8v-1.9h-1.7c-0.7,0-1.3,0.2-1.7,0.5s-0.6,0.7-0.6,1.2c0,0.4,0.1,0.8,0.4,1S335.3,435.4,335.8,435.4z"/>
<path class="st1" d="M354,429.4h-2.3l-0.4-1.6c-0.2-0.2-0.5-0.3-0.9-0.5s-0.7-0.2-1.2-0.2c-0.6,0-1.1,0.1-1.4,0.4s-0.5,0.6-0.5,1
	s0.2,0.7,0.5,1s1,0.5,2,0.7c1.6,0.3,2.7,0.8,3.5,1.4s1.1,1.4,1.1,2.5s-0.5,2.1-1.5,2.8s-2.3,1.1-3.9,1.1c-1,0-1.9-0.1-2.7-0.4
	s-1.5-0.7-2.2-1.2v-2.8h2.4l0.5,1.7c0.2,0.2,0.5,0.3,0.8,0.4s0.7,0.1,1.1,0.1c0.7,0,1.2-0.1,1.6-0.4s0.5-0.6,0.5-1s-0.2-0.7-0.6-1
	s-1-0.5-2-0.7c-1.5-0.3-2.6-0.8-3.4-1.4s-1.1-1.4-1.1-2.4c0-1.1,0.4-2,1.3-2.7s2.1-1.2,3.7-1.2c1,0,1.9,0.1,2.8,0.4s1.6,0.6,2.1,1
	L354,429.4z"/>
<path class="st1" d="M361.9,437.9c-1.8,0-3.3-0.6-4.4-1.8s-1.6-2.7-1.6-4.5v-0.5c0-1.9,0.5-3.4,1.6-4.7s2.4-1.8,4.2-1.8
	c1.7,0,3,0.5,4,1.5s1.4,2.4,1.4,4.2v1.9h-7.6v0.1c0.1,0.8,0.3,1.5,0.8,2.1s1.2,0.8,2,0.8s1.4-0.1,1.9-0.2s1-0.4,1.6-0.7l0.9,2.1
	c-0.5,0.4-1.2,0.8-2,1S362.9,437.9,361.9,437.9z M361.6,427.4c-0.6,0-1.1,0.2-1.5,0.7s-0.6,1.1-0.7,1.9v0.1h4.2v-0.3
	c0-0.7-0.2-1.3-0.5-1.7S362.3,427.4,361.6,427.4z"/>
<path class="st1" d="M379.5,421.9v3.1h2.2v2.4h-2.2v6.5c0,0.5,0.1,0.8,0.3,1.1s0.5,0.3,0.8,0.3c0.2,0,0.4,0,0.6,0s0.4-0.1,0.6-0.1
	l0.3,2.5c-0.4,0.1-0.8,0.2-1.1,0.3s-0.8,0.1-1.2,0.1c-1.2,0-2.1-0.3-2.7-1s-1-1.7-1-3.1v-6.5h-1.9V425h1.9v-3.1H379.5z"/>
<path class="st1" d="M383.4,435.6l1.7-0.4v-13.5l-1.8-0.4v-2.1h5.2v7.2c0.4-0.6,0.9-1,1.5-1.4s1.2-0.5,1.9-0.5
	c1.3,0,2.4,0.4,3.1,1.3s1.1,2.2,1.1,4.1v5.1l1.6,0.4v2.1h-6.5v-2.1l1.5-0.4v-5.1c0-1-0.2-1.7-0.5-2.1s-0.9-0.6-1.6-0.6
	c-0.5,0-0.9,0.1-1.2,0.3s-0.7,0.4-0.9,0.7v6.9l1.5,0.4v2.1h-6.5v-2H383.4z"/>
<path class="st1" d="M404.5,437.9c-1.8,0-3.3-0.6-4.4-1.8s-1.6-2.7-1.6-4.5v-0.5c0-1.9,0.5-3.4,1.6-4.7s2.4-1.8,4.2-1.8
	c1.7,0,3,0.5,4,1.5s1.4,2.4,1.4,4.2v1.9H402v0.1c0.1,0.8,0.3,1.5,0.8,2.1s1.2,0.8,2,0.8s1.4-0.1,1.9-0.2s1-0.4,1.6-0.7l0.9,2.1
	c-0.5,0.4-1.2,0.8-2,1S405.5,437.9,404.5,437.9z M404.2,427.4c-0.6,0-1.1,0.2-1.5,0.7s-0.6,1.1-0.7,1.9v0.1h4.2v-0.3
	c0-0.7-0.2-1.3-0.5-1.7S404.9,427.4,404.2,427.4z"/>
<path class="st1" d="M135.1,464.1c0.6,0,1.1-0.2,1.5-0.5s0.6-0.8,0.6-1.4h3.1v0.1c0,1.3-0.4,2.4-1.4,3.2s-2.2,1.3-3.7,1.3
	c-1.9,0-3.3-0.6-4.4-1.8s-1.5-2.7-1.5-4.6V460c0-1.9,0.5-3.4,1.6-4.6s2.5-1.8,4.5-1.8c1,0,1.9,0.2,2.8,0.5s1.5,0.7,2,1.3v3.4h-2.8
	l-0.6-2c-0.2-0.1-0.4-0.3-0.6-0.4s-0.5-0.1-0.9-0.1c-1,0-1.7,0.4-2.1,1.1s-0.6,1.6-0.6,2.7v0.4c0,1.1,0.2,2,0.6,2.7
	S134.1,464.1,135.1,464.1z"/>
<path class="st1" d="M141.4,464.4l1.7-0.4v-13.5l-1.8-0.4V448h5.2v7.2c0.4-0.6,0.9-1,1.5-1.4s1.2-0.5,1.9-0.5c1.3,0,2.4,0.4,3.1,1.3
	s1.1,2.2,1.1,4.1v5.1l1.6,0.4v2.1h-6.5v-2.1l1.5-0.4V459c0-1-0.2-1.7-0.5-2.1s-0.9-0.6-1.6-0.6c-0.5,0-0.9,0.1-1.2,0.3
	s-0.7,0.4-0.9,0.7v6.9l1.5,0.4v2.1h-6.5v-2.3H141.4z"/>
<path class="st1" d="M164.9,466.5c-0.1-0.2-0.2-0.4-0.2-0.7s-0.1-0.4-0.2-0.7c-0.4,0.5-0.9,0.8-1.5,1.1s-1.2,0.4-2,0.4
	c-1.2,0-2.2-0.3-3-1s-1.1-1.6-1.1-2.8c0-1.2,0.5-2.1,1.4-2.8s2.4-1,4.2-1h1.7v-1c0-0.6-0.2-1.1-0.5-1.4s-0.9-0.5-1.6-0.5
	c-0.4,0-0.7,0-1,0.1s-0.6,0.2-0.7,0.3l-0.2,1.4h-2.6v-2.8c0.6-0.4,1.3-0.8,2.2-1.1s1.7-0.4,2.6-0.4c1.6,0,2.8,0.4,3.8,1.2
	s1.5,1.9,1.5,3.3v5.2c0,0.2,0,0.4,0,0.6s0,0.3,0,0.5l1,0.1v2.1h-3.8V466.5z M161.9,464.2c0.5,0,1-0.1,1.4-0.3s0.8-0.5,1-0.8v-1.9
	h-1.7c-0.7,0-1.3,0.2-1.7,0.5s-0.6,0.7-0.6,1.2c0,0.4,0.1,0.8,0.4,1S161.4,464.2,161.9,464.2z"/>
<path class="st1" d="M169.9,464.4l1.6-0.4v-7.9l-1.8-0.4v-2.1h5l0.2,1.8c0.4-0.6,0.9-1.2,1.6-1.5s1.3-0.5,2.1-0.5
	c1.3,0,2.3,0.4,3,1.2s1.1,2.1,1.1,3.8v5.5l1.6,0.4v2.1h-6.5v-2.1l1.5-0.4v-5.5c0-0.9-0.2-1.5-0.5-1.8s-0.9-0.5-1.6-0.5
	c-0.5,0-0.9,0.1-1.2,0.3s-0.7,0.4-0.9,0.8v6.8l1.4,0.4v2.1h-6.4v-2.1H169.9z"/>
<path class="st1" d="M190.9,464.1c0.6,0,1.1-0.2,1.5-0.5s0.6-0.8,0.6-1.4h3.1v0.1c0,1.3-0.4,2.4-1.4,3.2s-2.2,1.3-3.7,1.3
	c-1.9,0-3.3-0.6-4.4-1.8s-1.5-2.7-1.5-4.6V460c0-1.9,0.5-3.4,1.6-4.6s2.5-1.8,4.5-1.8c1,0,1.9,0.2,2.8,0.5s1.5,0.7,2,1.3v3.4h-2.8
	l-0.6-2c-0.2-0.1-0.4-0.3-0.6-0.4s-0.5-0.1-0.9-0.1c-1,0-1.7,0.4-2.1,1.1s-0.6,1.6-0.6,2.7v0.4c0,1.1,0.2,2,0.6,2.7
	S190,464.1,190.9,464.1z"/>
<path class="st1" d="M203.5,466.7c-1.8,0-3.3-0.6-4.4-1.8s-1.6-2.7-1.6-4.5v-0.5c0-1.9,0.5-3.4,1.6-4.7s2.4-1.8,4.2-1.8
	c1.7,0,3,0.5,4,1.5s1.4,2.4,1.4,4.2v1.9H201v0.1c0.1,0.8,0.3,1.5,0.8,2.1s1.2,0.8,2,0.8s1.4-0.1,1.9-0.2s1-0.4,1.6-0.7l0.9,2.1
	c-0.5,0.4-1.2,0.8-2,1S204.5,466.7,203.5,466.7z M203.2,456.2c-0.6,0-1.1,0.2-1.5,0.7s-0.6,1.1-0.7,1.9v0.1h4.2v-0.3
	c0-0.7-0.2-1.3-0.5-1.7S203.9,456.2,203.2,456.2z"/>
<path class="st1" d="M220.3,458.2H218l-0.4-1.6c-0.2-0.2-0.5-0.3-0.9-0.5s-0.7-0.2-1.2-0.2c-0.6,0-1.1,0.1-1.4,0.4s-0.5,0.6-0.5,1
	s0.2,0.7,0.5,1s1,0.5,2,0.7c1.6,0.3,2.7,0.8,3.5,1.4s1.1,1.4,1.1,2.5s-0.5,2.1-1.5,2.8s-2.3,1.1-3.9,1.1c-1,0-1.9-0.1-2.7-0.4
	s-1.5-0.7-2.2-1.2v-2.8h2.4l0.5,1.7c0.2,0.2,0.5,0.3,0.8,0.4s0.7,0.1,1.1,0.1c0.7,0,1.2-0.1,1.6-0.4s0.5-0.6,0.5-1s-0.2-0.7-0.6-1
	s-1-0.5-2-0.7c-1.5-0.3-2.6-0.8-3.4-1.4s-1.1-1.4-1.1-2.4c0-1.1,0.4-2,1.3-2.7s2.1-1.2,3.7-1.2c1,0,1.9,0.1,2.8,0.4s1.6,0.6,2.1,1
	L220.3,458.2z"/>
<path class="st1" d="M228.2,460c0-1.9,0.5-3.4,1.6-4.6s2.5-1.8,4.4-1.8s3.3,0.6,4.4,1.8s1.6,2.8,1.6,4.7v0.2c0,1.9-0.5,3.5-1.6,4.7
	s-2.5,1.8-4.4,1.8s-3.4-0.6-4.4-1.8s-1.6-2.8-1.6-4.7V460z M231.6,460.3c0,1.2,0.2,2.1,0.6,2.8s1.1,1,2,1s1.5-0.4,1.9-1.1
	s0.6-1.6,0.6-2.8V460c0-1.1-0.2-2-0.6-2.8s-1.1-1.1-2-1.1s-1.5,0.4-1.9,1.1s-0.6,1.6-0.6,2.8V460.3z"/>
<path class="st1" d="M241.4,464.4l1.7-0.4v-7.9h-1.9v-2.4h1.9v-1.4c0-1.4,0.4-2.5,1.2-3.3s2-1.2,3.5-1.2c0.3,0,0.6,0,0.9,0.1
	s0.6,0.1,1,0.2l-0.3,2.5c-0.2,0-0.4-0.1-0.5-0.1s-0.4,0-0.6,0c-0.6,0-1,0.2-1.3,0.5s-0.4,0.7-0.4,1.3v1.4h2.5v2.4h-2.5v7.9l1.7,0.4
	v2.1h-6.7v-2.1H241.4z"/>
<path class="st1" d="M268.2,460.5c0,1.9-0.4,3.4-1.3,4.5s-2.1,1.7-3.7,1.7c-0.7,0-1.4-0.2-1.9-0.5s-1-0.8-1.4-1.3l-0.2,1.6h-3v-15.9
	l-1.8-0.4v-2.1h5.2v6.9c0.4-0.5,0.8-0.9,1.3-1.2s1.1-0.4,1.8-0.4c1.6,0,2.8,0.6,3.7,1.8s1.3,2.8,1.3,4.9L268.2,460.5L268.2,460.5z
	 M264.8,460.3c0-1.2-0.2-2.2-0.5-2.9s-1-1.1-1.9-1.1c-0.5,0-1,0.1-1.3,0.3s-0.7,0.5-0.9,1v5.4c0.2,0.4,0.5,0.7,0.9,0.9
	s0.8,0.3,1.4,0.3c0.9,0,1.5-0.3,1.9-0.9s0.5-1.5,0.5-2.6v-0.4H264.8z"/>
<path class="st1" d="M269.6,464.4l1.6-0.4v-7.9l-1.8-0.4v-2.1h5l0.2,1.9c0.3-0.7,0.7-1.2,1.1-1.5s1-0.6,1.6-0.6c0.2,0,0.4,0,0.6,0
	s0.4,0.1,0.5,0.1l-0.4,3.1h-1.4c-0.5,0-0.9,0.1-1.2,0.3s-0.6,0.5-0.8,0.8v6.2l1.6,0.4v2.1h-6.7L269.6,464.4L269.6,464.4z"/>
<path class="st1" d="M285.2,466.7c-1.8,0-3.3-0.6-4.4-1.8s-1.6-2.7-1.6-4.5v-0.5c0-1.9,0.5-3.4,1.6-4.7s2.4-1.8,4.2-1.8
	c1.7,0,3,0.5,4,1.5s1.4,2.4,1.4,4.2v1.9h-7.6v0.1c0.1,0.8,0.3,1.5,0.8,2.1s1.2,0.8,2,0.8s1.4-0.1,1.9-0.2s1-0.4,1.6-0.7l0.9,2.1
	c-0.5,0.4-1.2,0.8-2,1S286.2,466.7,285.2,466.7z M284.9,456.2c-0.6,0-1.1,0.2-1.5,0.7s-0.6,1.1-0.7,1.9v0.1h4.2v-0.3
	c0-0.7-0.2-1.3-0.5-1.7S285.6,456.2,284.9,456.2z"/>
<path class="st1" d="M299.7,466.5c-0.1-0.2-0.2-0.4-0.2-0.7s-0.1-0.4-0.2-0.7c-0.4,0.5-0.9,0.8-1.5,1.1s-1.2,0.4-2,0.4
	c-1.2,0-2.2-0.3-3-1s-1.1-1.6-1.1-2.8c0-1.2,0.5-2.1,1.4-2.8s2.4-1,4.2-1h1.7v-1c0-0.6-0.2-1.1-0.5-1.4s-0.9-0.5-1.6-0.5
	c-0.4,0-0.7,0-1,0.1s-0.6,0.2-0.7,0.3l-0.2,1.4h-2.6v-2.8c0.6-0.4,1.3-0.8,2.2-1.1s1.7-0.4,2.6-0.4c1.6,0,2.8,0.4,3.8,1.2
	s1.5,1.9,1.5,3.3v5.2c0,0.2,0,0.4,0,0.6s0,0.3,0,0.5l1,0.1v2.1h-3.8V466.5z M296.7,464.2c0.5,0,1-0.1,1.4-0.3s0.8-0.5,1-0.8v-1.9
	h-1.7c-0.7,0-1.3,0.2-1.7,0.5s-0.6,0.7-0.6,1.2c0,0.4,0.1,0.8,0.4,1S296.2,464.2,296.7,464.2z"/>
<path class="st1" d="M304.6,450.3v-2.1h5.2v10.6h0.8l2-2.8l-1.1-0.2v-2.1h6.2v2.1l-1.5,0.3l-2.3,3.1l3.2,4.8l1.3,0.3v2.1h-5.9v-2.1
	l0.7-0.1l-1.9-3.1h-1.5v2.9l1.5,0.4v2.1h-6.5v-2.1l1.7-0.4v-13.5L304.6,450.3z"/>
<path class="st1" d="M319.6,464.4l1.7-0.4v-7.9l-1.8-0.4v-2.1h5.2v10.3l1.6,0.4v2.1h-6.7L319.6,464.4L319.6,464.4z M324.7,450.8
	h-3.4v-2.6h3.4V450.8z"/>
<path class="st1" d="M327.5,464.4l1.6-0.4v-7.9l-1.8-0.4v-2.1h5l0.2,1.8c0.4-0.6,0.9-1.2,1.6-1.5s1.3-0.5,2.1-0.5
	c1.3,0,2.3,0.4,3,1.2s1.1,2.1,1.1,3.8v5.5l1.6,0.4v2.1h-6.5v-2.1l1.5-0.4v-5.5c0-0.9-0.2-1.5-0.5-1.8s-0.9-0.5-1.6-0.5
	c-0.5,0-0.9,0.1-1.2,0.3s-0.7,0.4-0.9,0.8v6.8l1.4,0.4v2.1h-6.4v-2.1H327.5z"/>
<path class="st1" d="M342.7,460.3c0-2,0.4-3.6,1.3-4.8s2.1-1.8,3.7-1.8c0.7,0,1.3,0.2,1.9,0.5s1,0.8,1.4,1.4l0.2-1.6h3v12.3
	c0,1.7-0.5,3-1.6,4s-2.5,1.5-4.3,1.5c-0.6,0-1.3-0.1-2-0.3s-1.4-0.4-2-0.7l0.6-2.4c0.5,0.2,1.1,0.4,1.6,0.6s1.1,0.2,1.7,0.2
	c0.8,0,1.5-0.3,1.9-0.8s0.6-1.2,0.6-2.1v-0.8c-0.4,0.5-0.8,0.8-1.3,1.1s-1.1,0.4-1.7,0.4c-1.6,0-2.8-0.6-3.6-1.7s-1.3-2.7-1.3-4.5
	v-0.5H342.7z M346.2,460.5c0,1.1,0.2,2,0.6,2.6s1,1,1.8,1c0.5,0,1-0.1,1.3-0.3s0.7-0.5,0.9-0.8v-5.5c-0.2-0.4-0.5-0.7-0.9-0.9
	s-0.8-0.3-1.3-0.3c-0.8,0-1.4,0.4-1.8,1.1s-0.6,1.7-0.6,2.9V460.5z"/>
<path class="st1" d="M360.2,466.5h-3.4v-3h3.4V466.5z"/>
</svg>
