<svg id="Layer_1" data-name="Layer 1" xmlns="http://www.w3.org/2000/svg" viewBox="0 0 611.8 611.8"><defs><style>.cls-1{fill:#f5faf8;stroke:#6dc065;stroke-linecap:round;stroke-linejoin:round;stroke-width:11.8px;}.cls-2{font-size:32px;fill:#6dc065;font-family:RobotoSlab-Bold, Roboto Slab;font-weight:700;}.cls-3{letter-spacing:0em;}.cls-4{letter-spacing:-0.03em;}.cls-5{letter-spacing:-0.02em;}.cls-6{letter-spacing:-0.02em;}.cls-7{letter-spacing:0.01em;}.cls-8{letter-spacing:0em;}.cls-9{letter-spacing:0.01em;}.cls-10{letter-spacing:-0.01em;}.cls-11{letter-spacing:-0.02em;}.cls-12{letter-spacing:-0.01em;}.cls-13{letter-spacing:-0.02em;}.cls-14{letter-spacing:-0.02em;}.cls-15{letter-spacing:-0.01em;}.cls-16{font-size:24px;}.cls-17{letter-spacing:0em;}.cls-18{letter-spacing:0.01em;}.cls-19{letter-spacing:0em;}.cls-20{letter-spacing:-0.02em;}.cls-21{letter-spacing:0em;}.cls-22{letter-spacing:-0.01em;}.cls-23{letter-spacing:-0.01em;}.cls-24{letter-spacing:0em;}.cls-25{letter-spacing:0.01em;}.cls-26{letter-spacing:-0.01em;}.cls-27{letter-spacing:-0.01em;}.cls-28{letter-spacing:-0.01em;}.cls-29{letter-spacing:-0.02em;}.cls-30{letter-spacing:-0.02em;}.cls-31{letter-spacing:-0.03em;}.cls-32{letter-spacing:-0.02em;}.cls-33{letter-spacing:-0.02em;}.cls-34{letter-spacing:0.01em;}.cls-35{letter-spacing:0em;}.cls-36{letter-spacing:0em;}.cls-37{letter-spacing:-0.01em;}.cls-38{letter-spacing:0.01em;}.cls-39{letter-spacing:-0.03em;}.cls-40{letter-spacing:-0.01em;}.cls-41{letter-spacing:0.01em;}.cls-42{letter-spacing:0em;}.cls-43{letter-spacing:0em;}.cls-44{letter-spacing:-0.01em;}.cls-45{letter-spacing:-0.01em;}.cls-46{letter-spacing:0em;}.cls-47{letter-spacing:-0.02em;}.cls-48{letter-spacing:-0.02em;}.cls-49{letter-spacing:-0.01em;}.cls-50{letter-spacing:-0.01em;}.cls-51{letter-spacing:-0.03em;}.cls-52{letter-spacing:-0.01em;}.cls-53{letter-spacing:-0.02em;}.cls-54{letter-spacing:0.01em;}.cls-55{letter-spacing:-0.02em;}.cls-56{letter-spacing:-0.01em;}.cls-57{letter-spacing:0em;}.cls-58{letter-spacing:-0.01em;}.cls-59{letter-spacing:-0.02em;}.cls-60{letter-spacing:0em;}.cls-61{letter-spacing:-0.01em;}.cls-62{letter-spacing:0.01em;}.cls-63{letter-spacing:-0.01em;}.cls-64{letter-spacing:-0.02em;}.cls-65{letter-spacing:-0.01em;}.cls-66{letter-spacing:-0.02em;}.cls-67{letter-spacing:-0.01em;}.cls-68{letter-spacing:0em;}.cls-69{letter-spacing:-0.02em;}.cls-70{letter-spacing:-0.01em;}.cls-71{letter-spacing:-0.01em;}.cls-72{letter-spacing:0.01em;}.cls-73{letter-spacing:-0.02em;}.cls-74{letter-spacing:0em;}.cls-75{letter-spacing:0em;}.cls-76{letter-spacing:-0.02em;}.cls-77{letter-spacing:-0.08em;}.cls-78{letter-spacing:0em;}.cls-79{letter-spacing:0em;}.cls-80{letter-spacing:-0.01em;}.cls-81{letter-spacing:-0.01em;}.cls-82{letter-spacing:-0.01em;}.cls-83{letter-spacing:-0.01em;}.cls-84{letter-spacing:-0.01em;}.cls-85{letter-spacing:0em;}.cls-86{letter-spacing:-0.01em;}.cls-87{letter-spacing:-0.01em;}.cls-88{letter-spacing:-0.01em;}.cls-89{letter-spacing:-0.02em;}.cls-90{letter-spacing:0em;}.cls-91{letter-spacing:-0.01em;}.cls-92{letter-spacing:0em;}.cls-93{letter-spacing:-0.01em;}.cls-94{letter-spacing:-0.02em;}.cls-95{letter-spacing:-0.02em;}.cls-96{letter-spacing:-0.01em;}.cls-97{letter-spacing:0em;}.cls-98{letter-spacing:0em;}.cls-99{letter-spacing:-0.01em;}.cls-100{letter-spacing:-0.01em;}.cls-101{letter-spacing:0em;}.cls-102{letter-spacing:-0.02em;}.cls-103{letter-spacing:-0.01em;}.cls-104{letter-spacing:0.01em;}.cls-105{letter-spacing:0.01em;}.cls-106{letter-spacing:0.01em;}.cls-107{letter-spacing:0.01em;}.cls-108{letter-spacing:-0.02em;}.cls-109{letter-spacing:-0.01em;}.cls-110{letter-spacing:-0.02em;}.cls-111{letter-spacing:-0.01em;}.cls-112{letter-spacing:0em;}.cls-113{letter-spacing:-0.01em;}.cls-114{letter-spacing:0em;}.cls-115{letter-spacing:-0.02em;}.cls-116{letter-spacing:-0.02em;}.cls-117{letter-spacing:-0.01em;}.cls-118{letter-spacing:0.01em;}</style></defs><title>std web mockupsasfd</title><rect class="cls-1" x="5.9" y="5.9" width="600" height="600" rx="300" ry="300"/><text class="cls-2" transform="translate(172.21 119.85)"><tspan class="cls-3">I</tspan><tspan class="cls-4" x="11.17" y="0">n</tspan><tspan class="cls-5" x="30.45" y="0">t</tspan><tspan class="cls-6" x="41.65" y="0">e</tspan><tspan class="cls-7" x="58.04" y="0">r</tspan><tspan class="cls-8" x="71.9" y="0">n</tspan><tspan class="cls-9" x="92.13" y="0">a</tspan><tspan x="109.87" y="0">l </tspan><tspan class="cls-10" x="127.92" y="0">C</tspan><tspan class="cls-11" x="148.4" y="0">o</tspan><tspan class="cls-12" x="165.81" y="0">n</tspan><tspan class="cls-13" x="185.68" y="0">d</tspan><tspan class="cls-14" x="204.05" y="0">o</tspan><tspan class="cls-15" x="221.48" y="0">m</tspan><tspan x="250.92" y="0">s</tspan><tspan class="cls-16"><tspan class="cls-17" x="-23.84" y="67.2">C</tspan><tspan class="cls-18" x="-8.39" y="67.2">a</tspan><tspan x="4.96" y="67.2">n </tspan><tspan class="cls-19" x="26.08" y="67.2">b</tspan><tspan x="39.81" y="67.2">e </tspan><tspan class="cls-20" x="58.48" y="67.2">p</tspan><tspan class="cls-21" x="72.63" y="67.2">l</tspan><tspan class="cls-22" x="80.26" y="67.2">a</tspan><tspan class="cls-23" x="93.2" y="67.2">c</tspan><tspan class="cls-24" x="105.66" y="67.2">e</tspan><tspan x="118.38" y="67.2">d </tspan><tspan class="cls-25" x="138.46" y="67.2">i</tspan><tspan class="cls-26" x="146.4" y="67.2">n</tspan><tspan class="cls-27" x="161.44" y="67.2">s</tspan><tspan class="cls-28" x="173.62" y="67.2">i</tspan><tspan class="cls-29" x="181.07" y="67.2">d</tspan><tspan x="194.88" y="67.2">e </tspan><tspan class="cls-30" x="213.54" y="67.2">o</tspan><tspan x="226.56" y="67.2">f </tspan><tspan class="cls-25" x="-43.84" y="96">i</tspan><tspan class="cls-31" x="-35.91" y="96">n</tspan><tspan class="cls-32" x="-21.39" y="96">t</tspan><tspan class="cls-33" x="-12.93" y="96">e</tspan><tspan class="cls-34" x="-0.58" y="96">r</tspan><tspan class="cls-35" x="9.87" y="96">n</tspan><tspan class="cls-18" x="25.09" y="96">a</tspan><tspan x="38.45" y="96">l </tspan><tspan class="cls-36" x="51.98" y="96">g</tspan><tspan class="cls-37" x="65.61" y="96">e</tspan><tspan class="cls-38" x="78.2" y="96">n</tspan><tspan class="cls-39" x="93.6" y="96">i</tspan><tspan class="cls-40" x="100.72" y="96">t</tspan><tspan class="cls-18" x="109.47" y="96">a</tspan><tspan class="cls-41" x="122.83" y="96">l</tspan><tspan class="cls-42" x="130.64" y="96">i</tspan><tspan class="cls-43" x="138.34" y="96">a</tspan><tspan x="151.57" y="96">, a </tspan><tspan class="cls-44" x="182.42" y="96">v</tspan><tspan class="cls-45" x="195.78" y="96">a</tspan><tspan class="cls-46" x="208.7" y="96">g</tspan><tspan class="cls-25" x="222.36" y="96">i</tspan><tspan class="cls-35" x="230.3" y="96">n</tspan><tspan class="cls-43" x="245.52" y="96">a</tspan><tspan x="258.75" y="96" xml:space="preserve">,     </tspan><tspan class="cls-47" x="-43.84" y="124.8">o</tspan><tspan x="-30.96" y="124.8">r </tspan><tspan class="cls-18" x="-14.98" y="124.8">a</tspan><tspan x="-1.62" y="124.8">n </tspan><tspan class="cls-18" x="19.49" y="124.8">a</tspan><tspan class="cls-48" x="32.85" y="124.8">n</tspan><tspan class="cls-49" x="47.55" y="124.8">u</tspan><tspan class="cls-50" x="62.21" y="124.8">s</tspan><tspan x="74.4" y="124.8">.</tspan><tspan class="cls-51" x="-23.84" y="182.4">I</tspan><tspan x="-16.17" y="182.4">t </tspan><tspan class="cls-52" x="-1.33" y="182.4">c</tspan><tspan class="cls-53" x="11.16" y="182.4">o</tspan><tspan class="cls-54" x="24.13" y="182.4">l</tspan><tspan class="cls-55" x="31.99" y="182.4">l</tspan><tspan class="cls-56" x="39.23" y="182.4">e</tspan><tspan class="cls-57" x="51.9" y="182.4">c</tspan><tspan class="cls-58" x="64.44" y="182.4">t</tspan><tspan x="73.05" y="182.4">s </tspan><tspan class="cls-59" x="91.28" y="182.4">fl</tspan><tspan class="cls-60" x="107.38" y="182.4">u</tspan><tspan class="cls-28" x="122.38" y="182.4">i</tspan><tspan class="cls-61" x="129.83" y="182.4">d</tspan><tspan x="143.85" y="182.4">s </tspan><tspan class="cls-62" x="162.08" y="182.4">a</tspan><tspan class="cls-63" x="175.44" y="182.4">n</tspan><tspan x="190.4" y="182.4">d </tspan><tspan class="cls-64" x="210.49" y="182.4">p</tspan><tspan class="cls-65" x="224.56" y="182.4">re</tspan><tspan class="cls-66" x="246.8" y="182.4">v</tspan><tspan class="cls-67" x="260.07" y="182.4">e</tspan><tspan class="cls-31" x="272.66" y="182.4">n</tspan><tspan class="cls-58" x="287.18" y="182.4">t</tspan><tspan x="295.79" y="182.4">s </tspan><tspan class="cls-68" x="-43.84" y="211.2">t</tspan><tspan class="cls-69" x="-34.78" y="211.2">h</tspan><tspan class="cls-26" x="-19.92" y="211.2">e</tspan><tspan x="-7.32" y="211.2">m </tspan><tspan class="cls-60" x="20.88" y="211.2">f</tspan><tspan class="cls-70" x="29.84" y="211.2">r</tspan><tspan class="cls-71" x="39.65" y="211.2">o</tspan><tspan x="52.77" y="211.2">m </tspan><tspan class="cls-37" x="80.98" y="211.2">e</tspan><tspan class="cls-31" x="93.57" y="211.2">n</tspan><tspan class="cls-32" x="108.09" y="211.2">t</tspan><tspan class="cls-33" x="116.55" y="211.2">e</tspan><tspan class="cls-72" x="128.9" y="211.2">r</tspan><tspan class="cls-25" x="139.3" y="211.2">i</tspan><tspan class="cls-73" x="147.23" y="211.2">n</tspan><tspan x="162.09" y="211.2">g </tspan><tspan class="cls-68" x="181.69" y="211.2">t</tspan><tspan class="cls-69" x="190.76" y="211.2">h</tspan><tspan x="205.61" y="211.2">e </tspan><tspan class="cls-74" x="224.28" y="211.2">b</tspan><tspan class="cls-75" x="238.03" y="211.2">o</tspan><tspan class="cls-76" x="251.43" y="211.2">d</tspan><tspan class="cls-77" x="265.13" y="211.2">y</tspan><tspan x="277.48" y="211.2">.</tspan><tspan class="cls-78" x="-23.84" y="268.8">I</tspan><tspan class="cls-31" x="-15.42" y="268.8">n</tspan><tspan class="cls-32" x="-0.9" y="268.8">t</tspan><tspan class="cls-33" x="7.56" y="268.8">e</tspan><tspan class="cls-34" x="19.91" y="268.8">r</tspan><tspan class="cls-79" x="30.36" y="268.8">n</tspan><tspan class="cls-18" x="45.58" y="268.8">a</tspan><tspan x="58.93" y="268.8">l </tspan><tspan class="cls-80" x="72.47" y="268.8">c</tspan><tspan class="cls-81" x="84.96" y="268.8">o</tspan><tspan class="cls-82" x="98.07" y="268.8">n</tspan><tspan class="cls-73" x="113.03" y="268.8">d</tspan><tspan class="cls-83" x="126.87" y="268.8">o</tspan><tspan class="cls-84" x="139.99" y="268.8">m</tspan><tspan x="162.12" y="268.8">s </tspan><tspan class="cls-85" x="180.36" y="268.8">a</tspan><tspan class="cls-86" x="193.48" y="268.8">r</tspan><tspan x="203.26" y="268.8">e </tspan><tspan class="cls-28" x="221.93" y="268.8">i</tspan><tspan class="cls-29" x="229.37" y="268.8">d</tspan><tspan class="cls-87" x="243.18" y="268.8">e</tspan><tspan class="cls-18" x="255.69" y="268.8">a</tspan><tspan x="269.05" y="268.8">l </tspan><tspan class="cls-88" x="-43.84" y="297.6">f</tspan><tspan class="cls-89" x="-35.21" y="297.6">o</tspan><tspan x="-22.34" y="297.6">r </tspan><tspan class="cls-90" x="-6.35" y="297.6">p</tspan><tspan class="cls-67" x="8.1" y="297.6">e</tspan><tspan class="cls-29" x="20.69" y="297.6">n</tspan><tspan class="cls-91" x="35.53" y="297.6">e</tspan><tspan class="cls-92" x="48.03" y="297.6">t</tspan><tspan class="cls-93" x="56.87" y="297.6">r</tspan><tspan class="cls-94" x="66.64" y="297.6">a</tspan><tspan class="cls-78" x="79.36" y="297.6">t</tspan><tspan class="cls-95" x="88.38" y="297.6">i</tspan><tspan class="cls-66" x="95.56" y="297.6">v</tspan><tspan x="108.83" y="297.6">e </tspan><tspan class="cls-96" x="127.49" y="297.6">s</tspan><tspan class="cls-97" x="139.66" y="297.6">e</tspan><tspan class="cls-98" x="152.33" y="297.6">x</tspan><tspan x="166.2" y="297.6">, </tspan><tspan class="cls-99" x="177.98" y="297.6">e</tspan><tspan class="cls-100" x="190.46" y="297.6">s</tspan><tspan class="cls-90" x="202.57" y="297.6">p</tspan><tspan class="cls-56" x="217.02" y="297.6">e</tspan><tspan class="cls-101" x="229.68" y="297.6">c</tspan><tspan class="cls-42" x="242.25" y="297.6">i</tspan><tspan class="cls-18" x="249.95" y="297.6">a</tspan><tspan class="cls-54" x="263.31" y="297.6">l</tspan><tspan class="cls-102" x="271.17" y="297.6">l</tspan><tspan x="278.3" y="297.6">y </tspan><tspan class="cls-18" x="-43.84" y="326.4">a</tspan><tspan class="cls-35" x="-30.49" y="326.4">n</tspan><tspan class="cls-18" x="-15.27" y="326.4">a</tspan><tspan x="-1.91" y="326.4">l </tspan><tspan class="cls-103" x="11.63" y="326.4">s</tspan><tspan class="cls-97" x="23.79" y="326.4">e</tspan><tspan class="cls-104" x="36.46" y="326.4">x</tspan><tspan x="50.61" y="326.4">. </tspan><tspan class="cls-105" x="62.61" y="326.4">T</tspan><tspan class="cls-66" x="79" y="326.4">h</tspan><tspan x="93.85" y="326.4">e </tspan><tspan class="cls-25" x="112.52" y="326.4">i</tspan><tspan class="cls-106" x="120.45" y="326.4">n</tspan><tspan class="cls-29" x="135.9" y="326.4">n</tspan><tspan class="cls-33" x="150.75" y="326.4">e</tspan><tspan x="163.1" y="326.4">r </tspan><tspan class="cls-107" x="179.08" y="326.4">r</tspan><tspan class="cls-25" x="189.48" y="326.4">i</tspan><tspan class="cls-108" x="197.41" y="326.4">n</tspan><tspan x="212.28" y="326.4">g </tspan><tspan class="cls-109" x="231.87" y="326.4">s</tspan><tspan class="cls-110" x="244.1" y="326.4">h</tspan><tspan class="cls-111" x="258.97" y="326.4">o</tspan><tspan class="cls-112" x="272.07" y="326.4">u</tspan><tspan class="cls-113" x="287.13" y="326.4">l</tspan><tspan x="294.5" y="326.4">d </tspan><tspan class="cls-114" x="-43.84" y="355.2">b</tspan><tspan x="-30.11" y="355.2">e </tspan><tspan class="cls-65" x="-11.45" y="355.2">r</tspan><tspan class="cls-61" x="-1.67" y="355.2">e</tspan><tspan class="cls-115" x="10.94" y="355.2">m</tspan><tspan class="cls-116" x="32.88" y="355.2">o</tspan><tspan class="cls-69" x="45.92" y="355.2">v</tspan><tspan class="cls-24" x="59.19" y="355.2">e</tspan><tspan x="71.91" y="355.2">d </tspan><tspan class="cls-117" x="92" y="355.2">f</tspan><tspan class="cls-47" x="100.62" y="355.2">o</tspan><tspan x="113.5" y="355.2">r </tspan><tspan class="cls-18" x="129.49" y="355.2">a</tspan><tspan class="cls-35" x="142.84" y="355.2">n</tspan><tspan class="cls-18" x="158.07" y="355.2">a</tspan><tspan x="171.42" y="355.2">l </tspan><tspan class="cls-96" x="184.96" y="355.2">s</tspan><tspan class="cls-97" x="197.12" y="355.2">e</tspan><tspan class="cls-118" x="209.8" y="355.2">x</tspan><tspan x="223.94" y="355.2">.</tspan></tspan></text></svg>