<?xml version="1.0" encoding="utf-8"?>
<!-- Generator: Adobe Illustrator 22.0.1, SVG Export Plug-In . SVG Version: 6.00 Build 0)  -->
<!DOCTYPE svg PUBLIC "-//W3C//DTD SVG 1.1//EN" "http://www.w3.org/Graphics/SVG/1.1/DTD/svg11.dtd">
<svg version="1.1" id="Layer_1" xmlns="http://www.w3.org/2000/svg" xmlns:xlink="http://www.w3.org/1999/xlink" x="0px" y="0px"
	 viewBox="0 0 611.8 611.8" style="enable-background:new 0 0 611.8 611.8;" xml:space="preserve">
<style type="text/css">
	.st0{fill:#F5FAF8;stroke:#F4783B;stroke-width:11.8;stroke-linecap:round;stroke-linejoin:round;}
	.st1{fill:#F4783B;}
</style>
<title>std web mockupsasfd</title>
<path class="st0" d="M305.9,5.9L305.9,5.9c165.7,0,300,134.3,300,300l0,0c0,165.7-134.3,300-300,300l0,0c-165.7,0-300-134.3-300-300
	l0,0C5.9,140.2,140.2,5.9,305.9,5.9z"/>
<path class="st1" d="M255.7,95.5h-3.4l-0.5-3c-0.4-0.4-1-0.8-1.7-1.1c-0.7-0.3-1.5-0.4-2.4-0.4c-2,0-3.5,0.7-4.6,2.2
	c-1.1,1.4-1.6,3.3-1.6,5.6v0.8c0,2.3,0.5,4.2,1.6,5.6s2.6,2.2,4.5,2.2c0.9,0,1.7-0.1,2.5-0.4c0.7-0.3,1.3-0.6,1.7-1.1l0.5-3h3.4v4.5
	c-0.9,1.1-2.1,1.9-3.5,2.5s-3,0.9-4.8,0.9c-3.1,0-5.6-1.1-7.5-3.2s-2.9-4.8-2.9-8.1v-0.8c0-3.3,1-6,2.9-8.1s4.4-3.2,7.5-3.2
	c1.8,0,3.3,0.3,4.8,1c1.4,0.6,2.6,1.5,3.5,2.5V95.5z"/>
<path class="st1" d="M257.6,101.9c0-2.5,0.7-4.6,2.1-6.2s3.4-2.4,5.9-2.4s4.5,0.8,5.9,2.4s2.1,3.7,2.1,6.2v0.3
	c0,2.5-0.7,4.6-2.1,6.2s-3.4,2.4-5.8,2.4c-2.5,0-4.5-0.8-5.9-2.4s-2.1-3.7-2.1-6.2v-0.3H257.6z M262.2,102.2c0,1.5,0.3,2.8,0.8,3.7
	c0.5,0.9,1.4,1.4,2.6,1.4s2-0.5,2.6-1.4s0.8-2.2,0.8-3.7v-0.3c0-1.5-0.3-2.7-0.8-3.7c-0.6-0.9-1.4-1.4-2.6-1.4s-2.1,0.5-2.6,1.4
	s-0.8,2.2-0.8,3.7V102.2z"/>
<path class="st1" d="M274.8,107.8l2.2-0.5V96.8l-2.4-0.5v-2.8h6.7l0.2,2.4c0.6-0.9,1.3-1.5,2.1-2c0.8-0.5,1.7-0.7,2.8-0.7
	c1.7,0,3,0.5,4,1.6s1.4,2.8,1.4,5v7.4l2.2,0.5v2.7h-8.7v-2.7l2-0.5V100c0-1.1-0.2-1.9-0.7-2.4s-1.2-0.7-2.1-0.7
	c-0.6,0-1.1,0.1-1.6,0.4c-0.5,0.2-0.9,0.6-1.2,1v9.1l1.8,0.5v2.7h-8.6L274.8,107.8L274.8,107.8z"/>
<path class="st1" d="M305.9,108.5c-0.5,0.8-1.2,1.4-1.9,1.8c-0.7,0.4-1.5,0.6-2.5,0.6c-2.1,0-3.7-0.8-4.9-2.3
	c-1.2-1.5-1.7-3.5-1.7-6v-0.3c0-2.7,0.6-4.8,1.7-6.5c1.2-1.6,2.8-2.5,4.9-2.5c0.8,0,1.6,0.2,2.3,0.6c0.7,0.4,1.3,0.9,1.8,1.6v-6.1
	l-2.4-0.5v-2.8h2.4h4.6v21.2l2.2,0.5v2.7h-6.1L305.9,108.5z M299.5,102.5c0,1.5,0.2,2.6,0.7,3.5c0.5,0.8,1.3,1.3,2.4,1.3
	c0.7,0,1.2-0.1,1.7-0.4s0.9-0.7,1.2-1.2v-7.2c-0.3-0.5-0.7-1-1.2-1.3s-1.1-0.4-1.7-0.4c-1.1,0-1.9,0.5-2.4,1.5s-0.8,2.3-0.8,3.9
	L299.5,102.5L299.5,102.5z"/>
<path class="st1" d="M313.3,101.9c0-2.5,0.7-4.6,2.1-6.2s3.4-2.4,5.9-2.4s4.5,0.8,5.9,2.4s2.1,3.7,2.1,6.2v0.3
	c0,2.5-0.7,4.6-2.1,6.2s-3.4,2.4-5.8,2.4c-2.5,0-4.5-0.8-5.9-2.4s-2.1-3.7-2.1-6.2v-0.3H313.3z M317.8,102.2c0,1.5,0.3,2.8,0.8,3.7
	c0.5,0.9,1.4,1.4,2.6,1.4s2-0.5,2.6-1.4s0.8-2.2,0.8-3.7v-0.3c0-1.5-0.3-2.7-0.8-3.7c-0.6-0.9-1.4-1.4-2.6-1.4s-2.1,0.5-2.6,1.4
	s-0.8,2.2-0.8,3.7V102.2z"/>
<path class="st1" d="M330.2,96.4v-2.8h6.7l0.2,2.2c0.5-0.8,1.2-1.4,2-1.9c0.8-0.4,1.8-0.7,2.8-0.7c1.1,0,2,0.2,2.8,0.7
	s1.4,1.2,1.8,2.2c0.5-0.9,1.2-1.6,2-2.1s1.8-0.8,2.9-0.8c1.7,0,3,0.6,3.9,1.7c1,1.2,1.4,2.9,1.4,5.3v7l2.2,0.5v2.7h-8.7v-2.7l2-0.5
	v-7c0-1.3-0.2-2.2-0.6-2.7s-1-0.8-1.9-0.8c-0.6,0-1.2,0.1-1.7,0.4s-0.9,0.7-1.1,1.2c0,0.2,0,0.4,0,0.5s0,0.3,0,0.4v7.9l1.8,0.5v2.7
	h-8.2v-2.7l1.8-0.5v-7c0-1.2-0.2-2.1-0.6-2.6s-1-0.8-1.9-0.8c-0.6,0-1.2,0.1-1.6,0.4c-0.5,0.2-0.8,0.6-1.1,1v9.1l2,0.5v2.7h-8.7
	v-2.7l2.2-0.5V96.8L330.2,96.4z"/>
<path class="st1" d="M374,99.4h-3.1l-0.5-2.1c-0.3-0.2-0.7-0.5-1.2-0.6c-0.5-0.2-1-0.2-1.6-0.2c-0.8,0-1.4,0.2-1.9,0.5
	s-0.7,0.8-0.7,1.4c0,0.5,0.2,0.9,0.7,1.3c0.4,0.3,1.3,0.6,2.7,0.9c2.1,0.4,3.6,1,4.7,1.8c1,0.8,1.5,1.9,1.5,3.3c0,1.5-0.7,2.8-2,3.7
	c-1.3,1-3,1.4-5.2,1.4c-1.3,0-2.5-0.2-3.6-0.6s-2.1-0.9-2.9-1.6v-3.8h3.2l0.6,2.2c0.3,0.2,0.6,0.4,1.1,0.5s1,0.2,1.5,0.2
	c0.9,0,1.6-0.2,2.1-0.5s0.7-0.8,0.7-1.4c0-0.5-0.2-0.9-0.7-1.3s-1.4-0.7-2.7-1c-2-0.4-3.5-1-4.5-1.8s-1.5-1.9-1.5-3.3
	s0.6-2.6,1.8-3.7c1.2-1,2.8-1.5,5-1.5c1.3,0,2.6,0.2,3.7,0.5c1.2,0.4,2.1,0.8,2.8,1.4V99.4z"/>
<path class="st1" d="M161.8,153h-2.3l-0.3-2.1c-0.3-0.3-0.7-0.6-1.2-0.7c-0.5-0.2-1-0.3-1.7-0.3c-1.4,0-2.4,0.5-3.1,1.5
	c-0.7,1-1.1,2.3-1.1,3.9v0.5c0,1.6,0.4,2.9,1.1,3.9s1.8,1.5,3.1,1.5c0.6,0,1.2-0.1,1.7-0.3s0.9-0.4,1.2-0.7l0.3-2.1h2.3v3.1
	c-0.6,0.7-1.4,1.3-2.4,1.7s-2.1,0.6-3.3,0.6c-2.1,0-3.8-0.7-5.2-2.2c-1.3-1.5-2-3.3-2-5.6v-0.5c0-2.3,0.7-4.1,2-5.6s3.1-2.2,5.2-2.2
	c1.2,0,2.3,0.2,3.3,0.7c1,0.4,1.8,1,2.4,1.7V153z"/>
<path class="st1" d="M163.2,157.4c0-1.7,0.5-3.2,1.5-4.3s2.3-1.7,4-1.7s3.1,0.6,4,1.7c1,1.1,1.5,2.5,1.5,4.3v0.2
	c0,1.7-0.5,3.2-1.5,4.3s-2.3,1.6-4,1.6s-3.1-0.5-4-1.6c-1-1.1-1.5-2.5-1.5-4.3V157.4z M166.3,157.6c0,1.1,0.2,1.9,0.6,2.6
	c0.4,0.6,1,1,1.8,1s1.4-0.3,1.8-1s0.6-1.5,0.6-2.5v-0.2c0-1-0.2-1.9-0.6-2.5s-1-1-1.8-1s-1.4,0.3-1.8,1S166.3,156.5,166.3,157.6
	L166.3,157.6z"/>
<path class="st1" d="M175.1,161.5l1.5-0.3V154l-1.7-0.3v-1.9h4.6l0.1,1.7c0.4-0.6,0.9-1.1,1.4-1.4s1.2-0.5,1.9-0.5
	c1.2,0,2.1,0.4,2.8,1.1s1,1.9,1,3.5v5.1l1.5,0.3v1.9h-6v-1.9l1.3-0.3v-5c0-0.8-0.2-1.3-0.5-1.7c-0.3-0.3-0.8-0.5-1.4-0.5
	c-0.4,0-0.8,0.1-1.1,0.3s-0.6,0.4-0.8,0.7v6.2l1.3,0.3v1.9h-5.9L175.1,161.5L175.1,161.5z"/>
<path class="st1" d="M196.5,161.9c-0.4,0.5-0.8,0.9-1.3,1.2s-1.1,0.4-1.7,0.4c-1.4,0-2.5-0.5-3.3-1.6s-1.2-2.4-1.2-4.1v-0.2
	c0-1.8,0.4-3.3,1.2-4.4s1.9-1.7,3.4-1.7c0.6,0,1.1,0.1,1.6,0.4c0.5,0.3,0.9,0.6,1.2,1.1v-4.2l-1.7-0.3v-1.9h1.7h3.1v14.6l1.5,0.3
	v1.9h-4.2L196.5,161.9z M192.1,157.8c0,1,0.2,1.8,0.5,2.4c0.3,0.6,0.9,0.9,1.7,0.9c0.5,0,0.9-0.1,1.2-0.3s0.6-0.5,0.8-0.8v-4.9
	c-0.2-0.4-0.5-0.7-0.8-0.9s-0.7-0.3-1.2-0.3c-0.8,0-1.3,0.3-1.7,1s-0.5,1.6-0.5,2.7V157.8z"/>
<path class="st1" d="M201.7,157.4c0-1.7,0.5-3.2,1.5-4.3s2.3-1.7,4-1.7s3.1,0.6,4,1.7c1,1.1,1.5,2.5,1.5,4.3v0.2
	c0,1.7-0.5,3.2-1.5,4.3s-2.3,1.6-4,1.6s-3.1-0.5-4-1.6c-1-1.1-1.5-2.5-1.5-4.3V157.4z M204.8,157.6c0,1.1,0.2,1.9,0.6,2.6
	c0.4,0.6,1,1,1.8,1s1.4-0.3,1.8-1s0.6-1.5,0.6-2.5v-0.2c0-1-0.2-1.9-0.6-2.5c-0.4-0.7-1-1-1.8-1s-1.4,0.3-1.8,1
	C205,155.7,204.8,156.5,204.8,157.6L204.8,157.6z"/>
<path class="st1" d="M213.3,153.6v-1.9h4.6l0.1,1.5c0.4-0.6,0.8-1,1.4-1.3c0.6-0.3,1.2-0.5,2-0.5c0.7,0,1.4,0.2,1.9,0.5
	s0.9,0.8,1.2,1.5c0.4-0.6,0.8-1.1,1.4-1.5c0.6-0.4,1.2-0.5,2-0.5c1.1,0,2,0.4,2.7,1.2s1,2,1,3.6v4.8l1.5,0.3v1.9h-6v-1.9l1.4-0.3
	v-4.8c0-0.9-0.1-1.5-0.4-1.8c-0.3-0.3-0.7-0.5-1.3-0.5c-0.4,0-0.8,0.1-1.2,0.3c-0.3,0.2-0.6,0.5-0.8,0.8c0,0.1,0,0.3,0,0.3
	c0,0.1,0,0.2,0,0.3v5.4l1.3,0.3v1.9h-5.7v-1.9l1.3-0.3v-4.8c0-0.9-0.1-1.5-0.4-1.8c-0.3-0.4-0.7-0.5-1.3-0.5c-0.4,0-0.8,0.1-1.1,0.2
	c-0.3,0.2-0.6,0.4-0.8,0.7v6.3l1.4,0.3v1.9h-6v-1.9l1.5-0.3v-7.2L213.3,153.6z"/>
<path class="st1" d="M243.5,155.7h-2.1l-0.3-1.5c-0.2-0.2-0.5-0.3-0.8-0.4c-0.3-0.1-0.7-0.2-1.1-0.2c-0.6,0-1,0.1-1.3,0.4
	c-0.3,0.2-0.5,0.6-0.5,0.9c0,0.4,0.2,0.6,0.5,0.9c0.3,0.2,0.9,0.4,1.8,0.6c1.4,0.3,2.5,0.7,3.2,1.3s1,1.3,1,2.3s-0.4,1.9-1.3,2.6
	c-0.9,0.7-2.1,1-3.6,1c-0.9,0-1.7-0.1-2.5-0.4c-0.7-0.3-1.4-0.6-2-1.1v-2.6h2.2l0.4,1.5c0.2,0.2,0.4,0.3,0.8,0.3
	c0.3,0.1,0.7,0.1,1,0.1c0.6,0,1.1-0.1,1.5-0.3s0.5-0.5,0.5-0.9c0-0.3-0.2-0.6-0.5-0.9c-0.3-0.3-1-0.5-1.9-0.7
	c-1.4-0.3-2.4-0.7-3.1-1.2c-0.7-0.5-1-1.3-1-2.2c0-1,0.4-1.8,1.2-2.5s1.9-1.1,3.4-1.1c0.9,0,1.8,0.1,2.6,0.4s1.4,0.6,1.9,0.9
	L243.5,155.7z"/>
<path class="st1" d="M258.1,163.3c-0.1-0.2-0.2-0.4-0.2-0.6c-0.1-0.2-0.1-0.4-0.2-0.6c-0.4,0.4-0.8,0.8-1.4,1
	c-0.5,0.3-1.1,0.4-1.8,0.4c-1.1,0-2-0.3-2.7-0.9c-0.7-0.6-1-1.5-1-2.5c0-1.1,0.4-1.9,1.3-2.5s2.2-0.9,3.8-0.9h1.6v-1.1
	c0-0.6-0.2-1-0.5-1.3s-0.8-0.5-1.4-0.5c-0.4,0-0.7,0-1,0.1s-0.5,0.2-0.7,0.3l-0.2,1.2h-2.4v-2.6c0.6-0.4,1.2-0.7,2-1
	s1.5-0.4,2.4-0.4c1.4,0,2.6,0.4,3.5,1.1c0.9,0.7,1.3,1.7,1.3,3v4.8c0,0.2,0,0.3,0,0.5s0,0.3,0,0.5l1,0.1v1.9H258.1z M255.4,161.2
	c0.5,0,0.9-0.1,1.3-0.3s0.7-0.5,0.9-0.8v-1.8H256c-0.7,0-1.2,0.2-1.5,0.5s-0.5,0.7-0.5,1.1c0,0.4,0.1,0.7,0.4,0.9
	C254.6,161.1,255,161.2,255.4,161.2z"/>
<path class="st1" d="M263,161.5l1.5-0.3V154l-1.7-0.3v-1.9h4.6l0.1,1.7c0.3-0.6,0.6-1.1,1.1-1.4s0.9-0.5,1.5-0.5c0.2,0,0.3,0,0.5,0
	s0.3,0.1,0.5,0.1l-0.3,2.9h-1.3c-0.5,0-0.8,0.1-1.1,0.3s-0.5,0.4-0.7,0.8v5.7l1.5,0.3v1.9H263V161.5z"/>
<path class="st1" d="M277.3,163.6c-1.7,0-3-0.5-4-1.6s-1.5-2.4-1.5-4.1v-0.4c0-1.7,0.5-3.1,1.4-4.3c0.9-1.1,2.2-1.7,3.8-1.7
	c1.6,0,2.8,0.5,3.7,1.4c0.9,0.9,1.3,2.2,1.3,3.8v1.7h-6.9v0.1c0.1,0.8,0.3,1.4,0.8,1.9s1.1,0.7,1.9,0.7c0.7,0,1.3-0.1,1.7-0.2
	c0.5-0.1,1-0.4,1.5-0.7l0.8,1.9c-0.5,0.4-1.1,0.7-1.9,1S278.3,163.6,277.3,163.6z M277,153.9c-0.6,0-1,0.2-1.4,0.7
	c-0.3,0.4-0.5,1-0.6,1.8v0.1h3.8v-0.3c0-0.7-0.2-1.2-0.5-1.6C278.1,154.1,277.7,153.9,277,153.9z"/>
<path class="st1" d="M293.5,148.9v2.8h2v2.2h-2v5.9c0,0.5,0.1,0.8,0.3,1c0.2,0.2,0.4,0.3,0.8,0.3c0.2,0,0.4,0,0.6,0s0.3,0,0.5-0.1
	l0.3,2.3c-0.4,0.1-0.7,0.2-1,0.2c-0.3,0.1-0.7,0.1-1.1,0.1c-1.1,0-1.9-0.3-2.5-0.9c-0.6-0.6-0.9-1.5-0.9-2.8V154h-1.7v-2.2h1.7V149
	h3V148.9z"/>
<path class="st1" d="M297,161.5l1.5-0.3v-12.3l-1.7-0.3v-1.9h4.8v6.6c0.4-0.5,0.8-1,1.3-1.3s1.1-0.4,1.8-0.4c1.2,0,2.2,0.4,2.9,1.2
	c0.7,0.8,1,2,1,3.7v4.7l1.5,0.3v1.9h-6v-1.9l1.4-0.3v-4.7c0-0.9-0.2-1.5-0.5-1.9s-0.8-0.6-1.4-0.6c-0.4,0-0.8,0.1-1.1,0.2
	c-0.3,0.2-0.6,0.4-0.8,0.7v6.3l1.4,0.3v1.9h-6L297,161.5L297,161.5z"/>
<path class="st1" d="M311.2,161.5l1.5-0.3V154l-1.7-0.3v-1.9h4.8v9.4l1.5,0.3v1.9h-6.2v-1.9H311.2z M315.9,148.9h-3.1v-2.4h3.1
	V148.9z"/>
<path class="st1" d="M318.5,161.5l1.5-0.3V154l-1.7-0.3v-1.9h4.6l0.1,1.7c0.4-0.6,0.9-1.1,1.4-1.4c0.6-0.3,1.2-0.5,1.9-0.5
	c1.2,0,2.1,0.4,2.8,1.1c0.7,0.7,1,1.9,1,3.5v5.1l1.5,0.3v1.9h-6v-1.9l1.3-0.3v-5c0-0.8-0.2-1.3-0.5-1.7c-0.3-0.3-0.8-0.5-1.4-0.5
	c-0.4,0-0.8,0.1-1.1,0.3c-0.3,0.2-0.6,0.4-0.8,0.7v6.2l1.3,0.3v1.9h-5.9L318.5,161.5L318.5,161.5z"/>
<path class="st1" d="M336.2,162.9c0,0.7-0.2,1.5-0.6,2.3s-0.9,1.5-1.5,2l-1.5-0.8c0.3-0.5,0.5-1,0.6-1.6c0.2-0.5,0.2-1.1,0.2-1.8
	v-2.3h2.8V162.9z"/>
<path class="st1" d="M352.9,155.7h-2.1l-0.3-1.5c-0.2-0.2-0.5-0.3-0.8-0.4s-0.7-0.2-1.1-0.2c-0.6,0-1,0.1-1.3,0.4
	c-0.3,0.2-0.5,0.6-0.5,0.9c0,0.4,0.2,0.6,0.5,0.9c0.3,0.2,0.9,0.4,1.8,0.6c1.4,0.3,2.5,0.7,3.2,1.3s1,1.3,1,2.3s-0.5,1.9-1.3,2.6
	c-0.9,0.7-2.1,1-3.5,1c-0.9,0-1.7-0.1-2.5-0.4c-0.7-0.3-1.4-0.6-2-1.1v-2.6h2.2l0.4,1.5c0.2,0.2,0.4,0.3,0.8,0.3
	c0.3,0.1,0.7,0.1,1,0.1c0.6,0,1.1-0.1,1.5-0.3s0.5-0.5,0.5-0.9c0-0.3-0.2-0.6-0.5-0.9c-0.3-0.3-1-0.5-1.9-0.7
	c-1.4-0.3-2.4-0.7-3.1-1.2s-1-1.3-1-2.2c0-1,0.4-1.8,1.2-2.5c0.8-0.7,1.9-1.1,3.4-1.1c0.9,0,1.8,0.1,2.6,0.4s1.4,0.6,1.9,0.9
	L352.9,155.7z"/>
<path class="st1" d="M359.1,148.9v2.8h2v2.2h-2v5.9c0,0.5,0.1,0.8,0.3,1c0.2,0.2,0.4,0.3,0.8,0.3c0.2,0,0.4,0,0.6,0s0.3,0,0.5-0.1
	l0.3,2.3c-0.4,0.1-0.7,0.2-1,0.2c-0.3,0.1-0.7,0.1-1.1,0.1c-1.1,0-1.9-0.3-2.5-0.9c-0.6-0.6-0.9-1.5-0.9-2.8V154h-1.7v-2.2h1.7V149
	h3V148.9z"/>
<path class="st1" d="M362.8,161.5l1.5-0.3V154l-1.7-0.3v-1.9h4.6l0.1,1.7c0.3-0.6,0.6-1.1,1.1-1.4s0.9-0.5,1.5-0.5
	c0.2,0,0.3,0,0.5,0s0.3,0.1,0.5,0.1l-0.3,2.9h-1.3c-0.5,0-0.8,0.1-1.1,0.3s-0.5,0.4-0.7,0.8v5.7l1.5,0.3v1.9h-6.1v-2.1H362.8z"/>
<path class="st1" d="M377.2,163.6c-1.7,0-3-0.5-4-1.6s-1.5-2.4-1.5-4.1v-0.4c0-1.7,0.5-3.1,1.4-4.3s2.2-1.7,3.8-1.7
	c1.6,0,2.8,0.5,3.7,1.4c0.9,0.9,1.3,2.2,1.3,3.8v1.7H375v0.1c0.1,0.8,0.3,1.4,0.8,1.9s1.1,0.7,1.9,0.7c0.7,0,1.3-0.1,1.7-0.2
	c0.5-0.1,1-0.4,1.5-0.7l0.8,1.9c-0.5,0.4-1.1,0.7-1.9,1S378.1,163.6,377.2,163.6z M376.9,153.9c-0.6,0-1,0.2-1.4,0.7
	c-0.3,0.4-0.5,1-0.6,1.8v0.1h3.8v-0.3c0-0.7-0.2-1.2-0.5-1.6C378,154.1,377.5,153.9,376.9,153.9z"/>
<path class="st1" d="M387.7,148.9v2.8h2v2.2h-2v5.9c0,0.5,0.1,0.8,0.3,1s0.4,0.3,0.8,0.3c0.2,0,0.4,0,0.6,0s0.3,0,0.5-0.1l0.3,2.3
	c-0.4,0.1-0.7,0.2-1,0.2c-0.3,0.1-0.7,0.1-1.1,0.1c-1.1,0-1.9-0.3-2.5-0.9c-0.6-0.6-0.9-1.5-0.9-2.8V154H383v-2.2h1.7V149h3V148.9z"
	/>
<path class="st1" d="M396.3,161.1c0.6,0,1-0.2,1.3-0.5s0.5-0.8,0.5-1.3h2.8v0.1c0,1.2-0.4,2.2-1.3,2.9c-0.9,0.8-2,1.2-3.4,1.2
	c-1.7,0-3.1-0.5-4-1.6s-1.4-2.5-1.4-4.2v-0.3c0-1.7,0.5-3.1,1.4-4.2s2.3-1.7,4.1-1.7c0.9,0,1.8,0.1,2.5,0.4c0.7,0.3,1.4,0.7,1.9,1.2
	v3.1h-2.5l-0.5-1.8c-0.2-0.1-0.4-0.2-0.6-0.3s-0.5-0.1-0.8-0.1c-0.9,0-1.5,0.3-1.9,1s-0.5,1.5-0.5,2.5v0.3c0,1,0.2,1.9,0.5,2.5
	C394.9,160.8,395.5,161.1,396.3,161.1z"/>
<path class="st1" d="M402.1,161.5l1.5-0.3v-12.3l-1.7-0.3v-1.9h4.8v6.6c0.4-0.5,0.8-1,1.3-1.3s1.1-0.4,1.8-0.4
	c1.2,0,2.2,0.4,2.9,1.2c0.7,0.8,1,2,1,3.7v4.7l1.5,0.3v1.9h-6v-1.9l1.4-0.3v-4.7c0-0.9-0.2-1.5-0.5-1.9s-0.8-0.6-1.4-0.6
	c-0.4,0-0.8,0.1-1.1,0.2s-0.6,0.4-0.8,0.7v6.3l1.4,0.3v1.9h-6L402.1,161.5L402.1,161.5z"/>
<path class="st1" d="M427.6,153.6l-1.1,0.2l-4.3,11.3c-0.3,0.8-0.8,1.5-1.3,2.1c-0.6,0.6-1.4,0.8-2.5,0.8c-0.3,0-0.5,0-0.7-0.1
	c-0.2,0-0.5-0.1-0.8-0.2l0.4-2.3c0.1,0,0.2,0,0.3,0s0.2,0,0.3,0c0.5,0,0.9-0.1,1.2-0.4c0.3-0.3,0.5-0.6,0.6-1l0.4-0.9l-3.7-9.6
	l-1.1-0.2v-1.9h5.7v1.9l-1.3,0.2l1.6,4.6l0.2,0.8h0.1l1.8-5.5l-1.3-0.2v-1.9h5.7v2.3H427.6z"/>
<path class="st1" d="M128.8,180v-1.9h4.6l0.2,1.4c0.3-0.5,0.8-0.9,1.2-1.2c0.5-0.3,1-0.4,1.7-0.4c1.4,0,2.6,0.6,3.4,1.7
	s1.2,2.6,1.2,4.4v0.2c0,1.7-0.4,3.1-1.2,4.1s-1.9,1.6-3.3,1.6c-0.6,0-1.1-0.1-1.6-0.3s-0.9-0.6-1.2-1v3.4l1.5,0.3v1.9H129v-1.9
	l1.5-0.3v-11.7L128.8,180z M137.8,184c0-1.1-0.2-2-0.5-2.7s-0.9-1-1.7-1c-0.5,0-0.9,0.1-1.2,0.3s-0.6,0.5-0.8,0.8v5.1
	c0.2,0.3,0.5,0.6,0.8,0.8s0.7,0.3,1.2,0.3c0.8,0,1.3-0.3,1.7-0.9s0.5-1.4,0.5-2.4V184z"/>
<path class="st1" d="M142.3,183.8c0-1.7,0.5-3.2,1.5-4.3s2.3-1.7,4-1.7s3.1,0.6,4,1.7c1,1.1,1.5,2.5,1.5,4.3v0.2
	c0,1.7-0.5,3.2-1.5,4.3s-2.3,1.6-4,1.6s-3.1-0.5-4-1.6c-1-1.1-1.5-2.5-1.5-4.3V183.8z M145.5,184c0,1.1,0.2,1.9,0.6,2.6
	c0.4,0.6,1,1,1.8,1s1.4-0.3,1.8-1s0.6-1.5,0.6-2.5v-0.2c0-1-0.2-1.9-0.6-2.5c-0.4-0.7-1-1-1.8-1s-1.4,0.3-1.8,1
	C145.7,182.1,145.5,182.9,145.5,184L145.5,184z"/>
<path class="st1" d="M162.5,188.3c-0.4,0.5-0.8,1-1.4,1.3s-1.2,0.4-1.9,0.4c-1.2,0-2.2-0.4-2.9-1.2s-1-2-1-3.7v-4.8L154,180v-1.9
	h1.3h3.1v7c0,0.8,0.1,1.5,0.4,1.8c0.3,0.4,0.7,0.6,1.3,0.6c0.5,0,0.9-0.1,1.3-0.2c0.4-0.2,0.7-0.4,0.9-0.7v-6.3l-1.4-0.3v-1.9h1.4
	h3.1v9.4l1.4,0.3v1.9h-4.2L162.5,188.3z"/>
<path class="st1" d="M173.1,187.5c0.6,0,1-0.2,1.3-0.5s0.5-0.8,0.5-1.3h2.8v0.1c0,1.2-0.4,2.2-1.3,2.9c-0.9,0.8-2,1.2-3.4,1.2
	c-1.7,0-3.1-0.5-4-1.6s-1.4-2.5-1.4-4.2v-0.3c0-1.7,0.5-3.1,1.4-4.2c1-1.1,2.3-1.7,4.1-1.7c0.9,0,1.8,0.1,2.5,0.4
	c0.7,0.3,1.4,0.7,1.9,1.2v3.1H175l-0.5-1.8c-0.2-0.1-0.4-0.2-0.6-0.3c-0.2-0.1-0.5-0.1-0.8-0.1c-0.9,0-1.5,0.3-1.9,1
	s-0.5,1.5-0.5,2.5v0.3c0,1,0.2,1.9,0.5,2.5C171.7,187.2,172.3,187.5,173.1,187.5z"/>
<path class="st1" d="M178.9,187.9l1.5-0.3v-12.3l-1.7-0.3v-2h4.8v6.6c0.4-0.5,0.8-1,1.3-1.3s1.1-0.4,1.8-0.4c1.2,0,2.2,0.4,2.9,1.2
	s1,2,1,3.7v4.7l1.5,0.3v1.9h-6v-1.9l1.4-0.3v-4.7c0-0.9-0.2-1.5-0.5-1.9s-0.8-0.6-1.4-0.6c-0.4,0-0.8,0.1-1.1,0.2
	c-0.3,0.2-0.6,0.4-0.8,0.7v6.3l1.4,0.3v1.9h-6L178.9,187.9L178.9,187.9z"/>
<path class="st1" d="M198.3,190c-1.7,0-3-0.5-4-1.6s-1.5-2.4-1.5-4.1v-0.4c0-1.7,0.5-3.1,1.4-4.3s2.2-1.7,3.8-1.7s2.8,0.5,3.7,1.4
	s1.3,2.2,1.3,3.8v1.7h-7v0.1c0.1,0.8,0.3,1.4,0.8,1.9s1.1,0.7,1.9,0.7c0.7,0,1.3-0.1,1.7-0.2c0.5-0.1,1-0.4,1.5-0.7l0.8,1.9
	c-0.5,0.4-1.1,0.7-1.9,1S199.2,190,198.3,190z M198,180.3c-0.6,0-1,0.2-1.4,0.7c-0.3,0.4-0.5,1-0.6,1.8v0.1h3.8v-0.3
	c0-0.7-0.2-1.2-0.5-1.6C199.1,180.5,198.6,180.3,198,180.3z"/>
<path class="st1" d="M213.6,182.1h-2.1l-0.3-1.5c-0.2-0.2-0.5-0.3-0.8-0.4c-0.3-0.1-0.7-0.2-1.1-0.2c-0.6,0-1,0.1-1.3,0.4
	c-0.3,0.2-0.5,0.6-0.5,0.9c0,0.4,0.2,0.6,0.5,0.9c0.3,0.2,0.9,0.4,1.8,0.6c1.4,0.3,2.5,0.7,3.2,1.3s1,1.3,1,2.3s-0.4,1.9-1.3,2.6
	c-0.9,0.7-2.1,1-3.6,1c-0.9,0-1.7-0.1-2.5-0.4c-0.7-0.3-1.4-0.6-2-1.1v-2.6h2.2l0.4,1.5c0.2,0.2,0.4,0.3,0.8,0.3
	c0.3,0.1,0.7,0.1,1,0.1c0.6,0,1.1-0.1,1.5-0.3s0.5-0.5,0.5-0.9c0-0.3-0.2-0.6-0.5-0.9c-0.3-0.3-1-0.5-1.9-0.7
	c-1.4-0.3-2.4-0.7-3.1-1.2c-0.7-0.5-1-1.3-1-2.2c0-1,0.4-1.8,1.2-2.5s1.9-1.1,3.4-1.1c0.9,0,1.8,0.1,2.6,0.4s1.4,0.6,1.9,0.9
	L213.6,182.1z"/>
<path class="st1" d="M225.5,175.3v2.8h2v2.2h-2v5.9c0,0.5,0.1,0.8,0.3,1s0.4,0.3,0.8,0.3c0.2,0,0.4,0,0.6,0c0.2,0,0.3,0,0.5-0.1
	l0.3,2.3c-0.4,0.1-0.7,0.2-1,0.2c-0.3,0.1-0.7,0.1-1.1,0.1c-1.1,0-1.9-0.3-2.5-0.9s-0.9-1.5-0.9-2.8v-5.9h-1.7v-2.2h1.7v-2.8h3
	V175.3z"/>
<path class="st1" d="M229,187.9l1.5-0.3v-12.3l-1.7-0.3v-2h4.8v6.6c0.4-0.5,0.8-1,1.3-1.3s1.1-0.4,1.8-0.4c1.2,0,2.2,0.4,2.9,1.2
	s1,2,1,3.7v4.7l1.5,0.3v1.9h-6v-1.9l1.4-0.3v-4.7c0-0.9-0.2-1.5-0.5-1.9s-0.8-0.6-1.4-0.6c-0.4,0-0.8,0.1-1.1,0.2s-0.6,0.4-0.8,0.7
	v6.3l1.4,0.3v1.9h-6L229,187.9L229,187.9z"/>
<path class="st1" d="M250.6,189.7c-0.1-0.2-0.2-0.4-0.2-0.6c-0.1-0.2-0.1-0.4-0.2-0.6c-0.4,0.4-0.8,0.8-1.4,1
	c-0.5,0.3-1.1,0.4-1.8,0.4c-1.1,0-2-0.3-2.7-0.9c-0.7-0.6-1-1.5-1-2.5c0-1.1,0.4-1.9,1.3-2.5c0.9-0.6,2.2-0.9,3.8-0.9h1.6V182
	c0-0.6-0.2-1-0.5-1.3s-0.8-0.5-1.4-0.5c-0.4,0-0.7,0-1,0.1s-0.5,0.2-0.7,0.3l-0.2,1.2h-2.4v-2.6c0.6-0.4,1.2-0.7,2-1
	s1.5-0.4,2.4-0.4c1.4,0,2.6,0.4,3.5,1.1c0.9,0.7,1.3,1.7,1.3,3v4.8c0,0.2,0,0.3,0,0.5s0,0.3,0,0.5l1,0.1v1.9H250.6z M247.9,187.6
	c0.5,0,0.9-0.1,1.3-0.3c0.4-0.2,0.7-0.5,0.9-0.8v-1.8h-1.6c-0.7,0-1.2,0.2-1.5,0.5s-0.5,0.7-0.5,1.1c0,0.4,0.1,0.7,0.4,0.9
	C247.1,187.5,247.4,187.6,247.9,187.6z"/>
<path class="st1" d="M259.5,175.3v2.8h2v2.2h-2v5.9c0,0.5,0.1,0.8,0.3,1s0.4,0.3,0.8,0.3c0.2,0,0.4,0,0.6,0s0.3,0,0.5-0.1l0.3,2.3
	c-0.4,0.1-0.7,0.2-1,0.2c-0.3,0.1-0.7,0.1-1.1,0.1c-1.1,0-1.9-0.3-2.5-0.9c-0.6-0.6-0.9-1.5-0.9-2.8v-5.9h-1.7v-2.2h1.7v-2.8h3
	V175.3z"/>
<path class="st1" d="M275.9,189.7c-0.1-0.2-0.2-0.4-0.2-0.6c-0.1-0.2-0.1-0.4-0.2-0.6c-0.4,0.4-0.8,0.8-1.4,1s-1.1,0.4-1.8,0.4
	c-1.1,0-2-0.3-2.7-0.9c-0.7-0.6-1-1.5-1-2.5c0-1.1,0.4-1.9,1.3-2.5s2.2-0.9,3.8-0.9h1.6V182c0-0.6-0.2-1-0.5-1.3s-0.8-0.5-1.4-0.5
	c-0.4,0-0.7,0-1,0.1s-0.5,0.2-0.7,0.3l-0.2,1.2h-2.4v-2.6c0.6-0.4,1.2-0.7,2-1s1.5-0.4,2.4-0.4c1.4,0,2.6,0.4,3.5,1.1
	c0.9,0.7,1.3,1.7,1.3,3v4.8c0,0.2,0,0.3,0,0.5s0,0.3,0,0.5l1,0.1v1.9H275.9z M273.1,187.6c0.5,0,0.9-0.1,1.3-0.3s0.7-0.5,0.9-0.8
	v-1.8h-1.6c-0.7,0-1.2,0.2-1.5,0.5s-0.5,0.7-0.5,1.1c0,0.4,0.1,0.7,0.4,0.9S272.7,187.6,273.1,187.6z"/>
<path class="st1" d="M280.7,187.9l1.5-0.3v-7.2l-1.7-0.3v-1.9h4.6l0.1,1.7c0.3-0.6,0.6-1.1,1.1-1.4s0.9-0.5,1.5-0.5
	c0.2,0,0.3,0,0.5,0s0.3,0.1,0.5,0.1l-0.3,2.9h-1.3c-0.5,0-0.8,0.1-1.1,0.3s-0.5,0.4-0.7,0.8v5.7l1.5,0.3v1.9h-6.1v-2.1H280.7z"/>
<path class="st1" d="M295.1,190c-1.7,0-3-0.5-4-1.6s-1.5-2.4-1.5-4.1v-0.4c0-1.7,0.5-3.1,1.4-4.3c0.9-1.1,2.2-1.7,3.8-1.7
	c1.6,0,2.8,0.5,3.7,1.4c0.9,0.9,1.3,2.2,1.3,3.8v1.7h-6.9v0.1c0.1,0.8,0.3,1.4,0.8,1.9s1.1,0.7,1.9,0.7c0.7,0,1.3-0.1,1.7-0.2
	c0.5-0.1,1-0.4,1.5-0.7l0.8,1.9c-0.5,0.4-1.1,0.7-1.9,1S296,190,295.1,190z M294.8,180.3c-0.6,0-1,0.2-1.4,0.7
	c-0.3,0.4-0.5,1-0.6,1.8v0.1h3.8v-0.3c0-0.7-0.2-1.2-0.5-1.6C295.9,180.5,295.4,180.3,294.8,180.3z"/>
<path class="st1" d="M323.2,180l-1.2,0.2l-2.4,9.6H317l-2.2-6.9h-0.1l-2.2,6.9h-2.6l-2.4-9.6l-1.2-0.2v-1.9h5.3v1.9l-1.2,0.2
	l1.1,5.3h0.1l2.2-7.4h2.1l2.2,7.5h0.1l1.1-5.3l-1.2-0.2v-1.9h5.3v1.8H323.2z"/>
<path class="st1" d="M323.8,183.8c0-1.7,0.5-3.2,1.5-4.3s2.3-1.7,4-1.7s3.1,0.6,4,1.7c1,1.1,1.5,2.5,1.5,4.3v0.2
	c0,1.7-0.5,3.2-1.5,4.3s-2.3,1.6-4,1.6s-3.1-0.5-4-1.6c-1-1.1-1.5-2.5-1.5-4.3V183.8z M327,184c0,1.1,0.2,1.9,0.6,2.6
	c0.4,0.6,1,1,1.8,1s1.4-0.3,1.8-1c0.4-0.6,0.6-1.5,0.6-2.5v-0.2c0-1-0.2-1.9-0.6-2.5c-0.4-0.7-1-1-1.8-1s-1.4,0.3-1.8,1
	S327,182.9,327,184L327,184z"/>
<path class="st1" d="M335.9,187.9l1.5-0.3v-7.2l-1.7-0.3v-1.9h4.6l0.1,1.7c0.3-0.6,0.6-1.1,1.1-1.4s0.9-0.5,1.5-0.5
	c0.2,0,0.3,0,0.5,0s0.3,0.1,0.5,0.1l-0.3,2.9h-1.3c-0.5,0-0.8,0.1-1.1,0.3s-0.5,0.4-0.7,0.8v5.7l1.5,0.3v1.9H336v-2.1H335.9z"/>
<path class="st1" d="M345.1,187.9l1.5-0.3v-7.2l-1.7-0.3v-1.9h4.6l0.1,1.7c0.4-0.6,0.9-1.1,1.4-1.4s1.2-0.5,1.9-0.5
	c1.2,0,2.1,0.4,2.8,1.1c0.7,0.7,1,1.9,1,3.5v5.1l1.5,0.3v1.9h-6V188l1.3-0.3v-5c0-0.8-0.2-1.3-0.5-1.7c-0.3-0.3-0.8-0.5-1.4-0.5
	c-0.4,0-0.8,0.1-1.1,0.3c-0.3,0.2-0.6,0.4-0.8,0.7v6.2l1.3,0.3v1.9h-5.9L345.1,187.9L345.1,187.9z"/>
<path class="st1" d="M364.6,183.8c0-1.7,0.5-3.2,1.5-4.3s2.3-1.7,4-1.7s3.1,0.6,4,1.7s1.5,2.5,1.5,4.3v0.2c0,1.7-0.5,3.2-1.5,4.3
	s-2.3,1.6-4,1.6s-3.1-0.5-4-1.6c-1-1.1-1.5-2.5-1.5-4.3V183.8z M367.8,184c0,1.1,0.2,1.9,0.6,2.6c0.4,0.6,1,1,1.8,1s1.4-0.3,1.8-1
	s0.6-1.5,0.6-2.5v-0.2c0-1-0.2-1.9-0.6-2.5c-0.4-0.7-1-1-1.8-1s-1.4,0.3-1.8,1S367.8,182.9,367.8,184L367.8,184z"/>
<path class="st1" d="M376.5,187.9l1.5-0.3v-7.2l-1.7-0.3v-1.9h4.6l0.1,1.7c0.4-0.6,0.9-1.1,1.4-1.4c0.6-0.3,1.2-0.5,1.9-0.5
	c1.2,0,2.1,0.4,2.8,1.1c0.7,0.7,1,1.9,1,3.5v5.1l1.5,0.3v1.9h-6V188l1.3-0.3v-5c0-0.8-0.2-1.3-0.5-1.7c-0.3-0.3-0.8-0.5-1.4-0.5
	c-0.4,0-0.8,0.1-1.1,0.3c-0.3,0.2-0.6,0.4-0.8,0.7v6.2l1.3,0.3v1.9h-5.9L376.5,187.9L376.5,187.9z"/>
<path class="st1" d="M401.6,190c-1.7,0-3-0.5-4-1.6s-1.5-2.4-1.5-4.1v-0.4c0-1.7,0.5-3.1,1.4-4.3c0.9-1.1,2.2-1.7,3.8-1.7
	c1.6,0,2.8,0.5,3.7,1.4s1.3,2.2,1.3,3.8v1.7h-6.9v0.1c0.1,0.8,0.3,1.4,0.8,1.9s1.1,0.7,1.9,0.7c0.7,0,1.3-0.1,1.7-0.2
	c0.5-0.1,1-0.4,1.5-0.7l0.8,1.9c-0.5,0.4-1.1,0.7-1.9,1S402.5,190,401.6,190z M401.3,180.3c-0.6,0-1,0.2-1.4,0.7s-0.5,1-0.6,1.8v0.1
	h3.8v-0.3c0-0.7-0.2-1.2-0.5-1.6C402.4,180.5,401.9,180.3,401.3,180.3z"/>
<path class="st1" d="M407.3,187.9l1.1-0.2l3.2-3.8l-3.1-3.7l-1.1-0.2v-1.9h5.2v1.8l-1.1,0.1l1.8,2.2l1.7-2.2l-1.1-0.1v-1.8h5.3v1.9
	l-1.1,0.2l-3,3.7l3.1,3.8l1.1,0.2v1.9H414V188l1.1-0.1l-1.8-2.3l-1.8,2.4l0.9,0.1v1.8h-5.2L407.3,187.9L407.3,187.9z"/>
<path class="st1" d="M425.2,175.3v2.8h2v2.2h-2v5.9c0,0.5,0.1,0.8,0.3,1s0.4,0.3,0.8,0.3c0.2,0,0.4,0,0.6,0s0.3,0,0.5-0.1l0.3,2.3
	c-0.4,0.1-0.7,0.2-1,0.2c-0.3,0.1-0.7,0.1-1.1,0.1c-1.1,0-1.9-0.3-2.5-0.9c-0.6-0.6-0.9-1.5-0.9-2.8v-5.9h-1.7v-2.2h1.7v-2.8h3
	V175.3z"/>
<path class="st1" d="M433.9,190c-1.7,0-3-0.5-4-1.6s-1.5-2.4-1.5-4.1v-0.4c0-1.7,0.5-3.1,1.4-4.3s2.2-1.7,3.8-1.7
	c1.6,0,2.8,0.5,3.7,1.4c0.9,0.9,1.3,2.2,1.3,3.8v1.7h-6.9v0.1c0.1,0.8,0.3,1.4,0.8,1.9s1.1,0.7,1.9,0.7c0.7,0,1.3-0.1,1.7-0.2
	c0.5-0.1,1-0.4,1.5-0.7l0.8,1.9c-0.5,0.4-1.1,0.7-1.9,1S434.8,190,433.9,190z M433.6,180.3c-0.6,0-1,0.2-1.4,0.7
	c-0.3,0.4-0.5,1-0.6,1.8v0.1h3.8v-0.3c0-0.7-0.2-1.2-0.5-1.6C434.7,180.5,434.3,180.3,433.6,180.3z"/>
<path class="st1" d="M439.9,187.9l1.5-0.3v-7.2l-1.7-0.3v-1.9h4.6l0.1,1.7c0.3-0.6,0.6-1.1,1.1-1.4s0.9-0.5,1.5-0.5
	c0.2,0,0.3,0,0.5,0s0.3,0.1,0.5,0.1l-0.3,2.9h-1.3c-0.5,0-0.8,0.1-1.1,0.3s-0.5,0.4-0.7,0.8v5.7l1.5,0.3v1.9H440v-2.1H439.9z"/>
<path class="st1" d="M449.1,187.9l1.5-0.3v-7.2l-1.7-0.3v-1.9h4.6l0.1,1.7c0.4-0.6,0.9-1.1,1.4-1.4s1.2-0.5,1.9-0.5
	c1.2,0,2.1,0.4,2.8,1.1s1,1.9,1,3.5v5.1l1.5,0.3v1.9h-6V188l1.3-0.3v-5c0-0.8-0.2-1.3-0.5-1.7c-0.3-0.3-0.8-0.5-1.4-0.5
	c-0.4,0-0.8,0.1-1.1,0.3c-0.3,0.2-0.6,0.4-0.8,0.7v6.2l1.3,0.3v1.9h-5.9L449.1,187.9L449.1,187.9z"/>
<path class="st1" d="M470.6,189.7c-0.1-0.2-0.2-0.4-0.2-0.6c-0.1-0.2-0.1-0.4-0.2-0.6c-0.4,0.4-0.8,0.8-1.4,1
	c-0.5,0.3-1.1,0.4-1.8,0.4c-1.1,0-2-0.3-2.7-0.9c-0.7-0.6-1-1.5-1-2.5c0-1.1,0.4-1.9,1.3-2.5s2.2-0.9,3.8-0.9h1.6V182
	c0-0.6-0.2-1-0.5-1.3s-0.8-0.5-1.4-0.5c-0.4,0-0.7,0-1,0.1s-0.5,0.2-0.7,0.3l-0.2,1.2H464v-2.6c0.6-0.4,1.2-0.7,2-1s1.5-0.4,2.4-0.4
	c1.4,0,2.6,0.4,3.5,1.1c0.9,0.7,1.3,1.7,1.3,3v4.8c0,0.2,0,0.3,0,0.5s0,0.3,0,0.5l1,0.1v1.9H470.6z M467.9,187.6
	c0.5,0,0.9-0.1,1.3-0.3s0.7-0.5,0.9-0.8v-1.8h-1.6c-0.7,0-1.2,0.2-1.5,0.5s-0.5,0.7-0.5,1.1c0,0.4,0.1,0.7,0.4,0.9
	C467.1,187.5,467.5,187.6,467.9,187.6z"/>
<path class="st1" d="M475.2,174.9V173h4.8v14.6l1.5,0.3v1.9h-6.2v-1.9l1.5-0.3v-12.3L475.2,174.9z"/>
<path class="st1" d="M129.2,210.4c0-1.8,0.4-3.3,1.2-4.4c0.8-1.1,1.9-1.7,3.4-1.7c0.7,0,1.2,0.1,1.7,0.4c0.5,0.3,0.9,0.7,1.3,1.2
	l0.2-1.5h2.7v11.3c0,1.5-0.5,2.8-1.4,3.7c-1,0.9-2.3,1.4-4,1.4c-0.6,0-1.2-0.1-1.9-0.2c-0.7-0.2-1.3-0.4-1.8-0.7l0.6-2.2
	c0.5,0.2,1,0.4,1.5,0.5s1,0.2,1.6,0.2c0.8,0,1.3-0.2,1.7-0.7s0.6-1.1,0.6-1.9V215c-0.3,0.4-0.7,0.8-1.2,1s-1,0.3-1.6,0.3
	c-1.4,0-2.5-0.5-3.3-1.6c-0.8-1-1.2-2.4-1.2-4.1v-0.2H129.2z M132.4,210.6c0,1,0.2,1.8,0.5,2.4c0.3,0.6,0.9,0.9,1.7,0.9
	c0.5,0,0.9-0.1,1.2-0.3s0.6-0.4,0.8-0.8v-5c-0.2-0.4-0.5-0.6-0.8-0.8s-0.7-0.3-1.2-0.3c-0.8,0-1.3,0.3-1.7,1s-0.5,1.6-0.5,2.7V210.6
	z"/>
<path class="st1" d="M147.1,216.4c-1.7,0-3-0.5-4-1.6s-1.5-2.4-1.5-4.1v-0.4c0-1.7,0.5-3.1,1.4-4.3c0.9-1.1,2.2-1.7,3.8-1.7
	s2.8,0.5,3.7,1.4s1.3,2.2,1.3,3.8v1.7h-6.9v0.1c0.1,0.8,0.3,1.4,0.8,1.9s1.1,0.7,1.9,0.7c0.7,0,1.3-0.1,1.7-0.2
	c0.5-0.1,1-0.4,1.5-0.7l0.8,1.9c-0.5,0.4-1.1,0.7-1.9,1S148.1,216.4,147.1,216.4z M146.8,206.7c-0.6,0-1,0.2-1.4,0.7
	c-0.3,0.4-0.5,1-0.6,1.8v0.1h3.8V209c0-0.7-0.2-1.2-0.5-1.6C147.9,206.9,147.5,206.7,146.8,206.7z"/>
<path class="st1" d="M152.9,214.2l1.5-0.3v-7.2l-1.7-0.3v-1.9h4.6l0.1,1.7c0.4-0.6,0.9-1.1,1.4-1.4s1.2-0.5,1.9-0.5
	c1.2,0,2.1,0.4,2.8,1.1s1,1.9,1,3.5v5.1l1.5,0.3v1.9h-6v-1.9l1.3-0.3v-5c0-0.8-0.2-1.3-0.5-1.7c-0.3-0.3-0.8-0.5-1.4-0.5
	c-0.4,0-0.8,0.1-1.1,0.3s-0.6,0.4-0.8,0.7v6.2l1.3,0.3v1.9h-5.9L152.9,214.2L152.9,214.2z"/>
<path class="st1" d="M167.1,214.2l1.5-0.3v-7.2l-1.7-0.3v-1.9h4.8v9.4l1.5,0.3v1.9H167L167.1,214.2L167.1,214.2z M171.8,201.7h-3.1
	v-2.4h3.1V201.7z"/>
<path class="st1" d="M178.4,201.7v2.8h2v2.2h-2v5.9c0,0.5,0.1,0.8,0.3,1s0.4,0.3,0.8,0.3c0.2,0,0.4,0,0.6,0c0.2,0,0.3,0,0.5-0.1
	l0.3,2.3c-0.4,0.1-0.7,0.2-1,0.2c-0.3,0.1-0.7,0.1-1.1,0.1c-1.1,0-1.9-0.3-2.5-0.9c-0.6-0.6-0.9-1.5-0.9-2.8v-5.9h-1.7v-2.2h1.7
	v-2.8h3V201.7z"/>
<path class="st1" d="M189.2,216.1c-0.1-0.2-0.2-0.4-0.2-0.6c-0.1-0.2-0.1-0.4-0.2-0.6c-0.4,0.4-0.8,0.8-1.4,1
	c-0.5,0.3-1.1,0.4-1.8,0.4c-1.1,0-2-0.3-2.7-0.9c-0.7-0.6-1-1.5-1-2.5c0-1.1,0.4-1.9,1.3-2.5c0.9-0.6,2.2-0.9,3.8-0.9h1.6v-1.1
	c0-0.6-0.2-1-0.5-1.3s-0.8-0.5-1.4-0.5c-0.4,0-0.7,0-1,0.1s-0.5,0.2-0.7,0.3l-0.2,1.2h-2.4v-2.6c0.6-0.4,1.2-0.7,2-1
	s1.5-0.4,2.4-0.4c1.4,0,2.6,0.4,3.5,1.1c0.9,0.7,1.3,1.7,1.3,3v4.8c0,0.2,0,0.3,0,0.5s0,0.3,0,0.5l1,0.1v1.9H189.2z M186.5,214
	c0.5,0,0.9-0.1,1.3-0.3c0.4-0.2,0.7-0.5,0.9-0.8v-1.8h-1.6c-0.7,0-1.2,0.2-1.5,0.5s-0.5,0.7-0.5,1.1c0,0.4,0.1,0.7,0.4,0.9
	C185.7,213.9,186.1,214,186.5,214z"/>
<path class="st1" d="M193.7,201.3v-1.9h4.8V214l1.5,0.3v1.9h-6.2v-1.9l1.5-0.3v-12.3L193.7,201.3z"/>
<path class="st1" d="M201.2,214.2l1.5-0.3v-7.2l-1.7-0.3v-1.9h4.8v9.4l1.5,0.3v1.9h-6.2L201.2,214.2L201.2,214.2z M205.8,201.7h-3.1
	v-2.4h3.1V201.7z"/>
<path class="st1" d="M215.7,216.1c-0.1-0.2-0.2-0.4-0.2-0.6c-0.1-0.2-0.1-0.4-0.2-0.6c-0.4,0.4-0.8,0.8-1.4,1
	c-0.5,0.3-1.1,0.4-1.8,0.4c-1.1,0-2-0.3-2.7-0.9c-0.7-0.6-1-1.5-1-2.5c0-1.1,0.4-1.9,1.3-2.5c0.9-0.6,2.2-0.9,3.8-0.9h1.6v-1.1
	c0-0.6-0.2-1-0.5-1.3s-0.8-0.5-1.4-0.5c-0.4,0-0.7,0-1,0.1s-0.5,0.2-0.7,0.3l-0.2,1.2h-2.4v-2.6c0.6-0.4,1.2-0.7,2-1
	s1.5-0.4,2.4-0.4c1.4,0,2.6,0.4,3.5,1.1c0.9,0.7,1.3,1.7,1.3,3v4.8c0,0.2,0,0.3,0,0.5s0,0.3,0,0.5l1,0.1v1.9H215.7z M213,214
	c0.5,0,0.9-0.1,1.3-0.3c0.4-0.2,0.7-0.5,0.9-0.8v-1.8h-1.6c-0.7,0-1.2,0.2-1.5,0.5s-0.5,0.7-0.5,1.1c0,0.4,0.1,0.7,0.4,0.9
	C212.2,213.9,212.6,214,213,214z"/>
<path class="st1" d="M225.8,210.2c0-1.7,0.5-3.2,1.5-4.3s2.3-1.7,4-1.7s3.1,0.6,4,1.7c1,1.1,1.5,2.5,1.5,4.3v0.2
	c0,1.7-0.5,3.2-1.5,4.3s-2.3,1.6-4,1.6s-3.1-0.5-4-1.6c-1-1.1-1.5-2.5-1.5-4.3V210.2z M228.9,210.4c0,1.1,0.2,1.9,0.6,2.6
	c0.4,0.6,1,1,1.8,1s1.4-0.3,1.8-1s0.6-1.5,0.6-2.5v-0.2c0-1-0.2-1.9-0.6-2.5c-0.4-0.7-1-1-1.8-1s-1.4,0.3-1.8,1
	C229.1,208.5,228.9,209.3,228.9,210.4L228.9,210.4z"/>
<path class="st1" d="M237.9,214.2l1.5-0.3v-7.2l-1.7-0.3v-1.9h4.6l0.1,1.7c0.3-0.6,0.6-1.1,1.1-1.4s0.9-0.5,1.5-0.5
	c0.2,0,0.3,0,0.5,0s0.3,0.1,0.5,0.1l-0.3,2.9h-1.3c-0.5,0-0.8,0.1-1.1,0.3s-0.5,0.4-0.7,0.8v5.7l1.5,0.3v1.9H238v-2.1H237.9z"/>
<path class="st1" d="M252.1,206.4v-1.9h4.6l0.2,1.4c0.3-0.5,0.8-0.9,1.2-1.2c0.5-0.3,1-0.4,1.7-0.4c1.4,0,2.6,0.6,3.4,1.7
	s1.2,2.6,1.2,4.4v0.2c0,1.7-0.4,3.1-1.2,4.1s-1.9,1.6-3.3,1.6c-0.6,0-1.1-0.1-1.6-0.3s-0.9-0.6-1.2-1v3.4l1.5,0.3v1.9h-6.2v-1.9
	l1.5-0.3v-11.7L252.1,206.4z M261.1,210.4c0-1.1-0.2-2-0.5-2.7s-0.9-1-1.7-1c-0.5,0-0.9,0.1-1.2,0.3s-0.6,0.5-0.8,0.8v5.1
	c0.2,0.3,0.5,0.6,0.8,0.8s0.7,0.3,1.2,0.3c0.8,0,1.3-0.3,1.7-0.9s0.5-1.4,0.5-2.4V210.4z"/>
<path class="st1" d="M264.9,201.3v-1.9h4.8V214l1.5,0.3v1.9H265v-1.9l1.5-0.3v-12.3L264.9,201.3z"/>
<path class="st1" d="M279.7,216.1c-0.1-0.2-0.2-0.4-0.2-0.6c-0.1-0.2-0.1-0.4-0.2-0.6c-0.4,0.4-0.8,0.8-1.4,1
	c-0.5,0.3-1.1,0.4-1.8,0.4c-1.1,0-2-0.3-2.7-0.9c-0.7-0.6-1-1.5-1-2.5c0-1.1,0.4-1.9,1.3-2.5s2.2-0.9,3.8-0.9h1.6v-1.1
	c0-0.6-0.2-1-0.5-1.3s-0.8-0.5-1.4-0.5c-0.4,0-0.7,0-1,0.1s-0.5,0.2-0.7,0.3l-0.2,1.2H273v-2.6c0.6-0.4,1.2-0.7,2-1s1.5-0.4,2.4-0.4
	c1.4,0,2.6,0.4,3.5,1.1c0.9,0.7,1.3,1.7,1.3,3v4.8c0,0.2,0,0.3,0,0.5s0,0.3,0,0.5l1,0.1v1.9H279.7z M277,214c0.5,0,0.9-0.1,1.3-0.3
	s0.7-0.5,0.9-0.8v-1.8h-1.6c-0.7,0-1.2,0.2-1.5,0.5s-0.5,0.7-0.5,1.1c0,0.4,0.1,0.7,0.4,0.9C276.2,213.9,276.5,214,277,214z"/>
<path class="st1" d="M289.6,213.9c0.6,0,1-0.2,1.3-0.5s0.5-0.8,0.5-1.3h2.8v0.1c0,1.2-0.4,2.2-1.3,2.9c-0.9,0.8-2,1.2-3.4,1.2
	c-1.7,0-3.1-0.5-4-1.6s-1.4-2.5-1.4-4.2v-0.3c0-1.7,0.5-3.1,1.4-4.2c1-1.1,2.3-1.7,4.1-1.7c0.9,0,1.8,0.1,2.5,0.4s1.4,0.7,1.9,1.2
	v3.1h-2.5l-0.5-1.8c-0.2-0.1-0.4-0.2-0.6-0.3s-0.5-0.1-0.8-0.1c-0.9,0-1.5,0.3-1.9,1s-0.5,1.5-0.5,2.5v0.3c0,1,0.2,1.9,0.5,2.5
	C288.2,213.6,288.8,213.9,289.6,213.9z"/>
<path class="st1" d="M301.2,216.4c-1.7,0-3-0.5-4-1.6s-1.5-2.4-1.5-4.1v-0.4c0-1.7,0.5-3.1,1.4-4.3c0.9-1.1,2.2-1.7,3.8-1.7
	c1.6,0,2.8,0.5,3.7,1.4c0.9,0.9,1.3,2.2,1.3,3.8v1.7H299v0.1c0.1,0.8,0.3,1.4,0.8,1.9s1.1,0.7,1.9,0.7c0.7,0,1.3-0.1,1.7-0.2
	c0.5-0.1,1-0.4,1.5-0.7l0.8,1.9c-0.5,0.4-1.1,0.7-1.9,1S302.1,216.4,301.2,216.4z M300.9,206.7c-0.6,0-1,0.2-1.4,0.7
	c-0.3,0.4-0.5,1-0.6,1.8v0.1h3.8V209c0-0.7-0.2-1.2-0.5-1.6C302,206.9,301.5,206.7,300.9,206.7z"/>
<path class="st1" d="M314.8,214.7c-0.4,0.5-0.8,0.9-1.3,1.2s-1.1,0.4-1.7,0.4c-1.4,0-2.5-0.5-3.3-1.6c-0.8-1-1.2-2.4-1.2-4.1v-0.2
	c0-1.8,0.4-3.3,1.2-4.4s1.9-1.7,3.4-1.7c0.6,0,1.1,0.1,1.6,0.4c0.5,0.3,0.9,0.6,1.2,1.1v-4.2l-1.7-0.3v-1.9h1.7h3.1V214l1.5,0.3v1.9
	h-4.2L314.8,214.7z M310.4,210.6c0,1,0.2,1.8,0.5,2.4c0.3,0.6,0.9,0.9,1.7,0.9c0.5,0,0.9-0.1,1.2-0.3s0.6-0.5,0.8-0.8v-4.9
	c-0.2-0.4-0.5-0.7-0.8-0.9s-0.7-0.3-1.2-0.3c-0.8,0-1.3,0.3-1.7,1s-0.5,1.6-0.5,2.7V210.6z"/>
<path class="st1" d="M325.6,214.2l1.5-0.3v-7.2l-1.7-0.3v-1.9h4.8v9.4l1.5,0.3v1.9h-6.2v-1.9H325.6z M330.2,201.7h-3.1v-2.4h3.1
	V201.7z"/>
<path class="st1" d="M332.8,214.2l1.5-0.3v-7.2l-1.7-0.3v-1.9h4.6l0.1,1.7c0.4-0.6,0.9-1.1,1.4-1.4c0.6-0.3,1.2-0.5,1.9-0.5
	c1.2,0,2.1,0.4,2.8,1.1s1,1.9,1,3.5v5.1l1.5,0.3v1.9h-6v-1.9l1.3-0.3v-5c0-0.8-0.2-1.3-0.5-1.7c-0.3-0.3-0.8-0.5-1.4-0.5
	c-0.4,0-0.8,0.1-1.1,0.3c-0.3,0.2-0.6,0.4-0.8,0.7v6.2l1.3,0.3v1.9h-5.9L332.8,214.2L332.8,214.2z"/>
<path class="st1" d="M356.3,208.5h-2.1l-0.3-1.5c-0.2-0.2-0.5-0.3-0.8-0.4c-0.3-0.1-0.7-0.2-1.1-0.2c-0.6,0-1,0.1-1.3,0.4
	c-0.3,0.2-0.5,0.6-0.5,0.9c0,0.4,0.2,0.6,0.5,0.9c0.3,0.2,0.9,0.4,1.8,0.6c1.4,0.3,2.5,0.7,3.2,1.3s1,1.3,1,2.3s-0.4,1.9-1.3,2.6
	c-0.9,0.7-2.1,1-3.6,1c-0.9,0-1.7-0.1-2.5-0.4c-0.7-0.3-1.4-0.6-2-1.1v-2.6h2.2l0.4,1.5c0.2,0.2,0.4,0.3,0.8,0.3
	c0.3,0.1,0.7,0.1,1,0.1c0.6,0,1.1-0.1,1.5-0.3s0.5-0.5,0.5-0.9c0-0.3-0.2-0.6-0.5-0.9s-1-0.5-1.9-0.7c-1.4-0.3-2.4-0.7-3.1-1.2
	s-1-1.3-1-2.2c0-1,0.4-1.8,1.2-2.5c0.8-0.7,1.9-1.1,3.4-1.1c0.9,0,1.8,0.1,2.6,0.4s1.4,0.6,1.9,0.9L356.3,208.5z"/>
<path class="st1" d="M357.9,214.2l1.5-0.3v-7.2l-1.7-0.3v-1.9h4.8v9.4l1.5,0.3v1.9h-6.2v-1.9H357.9z M362.5,201.7h-3.1v-2.4h3.1
	V201.7z"/>
<path class="st1" d="M372.4,214.7c-0.4,0.5-0.8,0.9-1.3,1.2s-1.1,0.4-1.7,0.4c-1.4,0-2.5-0.5-3.3-1.6s-1.2-2.4-1.2-4.1v-0.2
	c0-1.8,0.4-3.3,1.2-4.4s1.9-1.7,3.4-1.7c0.6,0,1.1,0.1,1.6,0.4c0.5,0.3,0.9,0.6,1.2,1.1v-4.2l-1.7-0.3v-1.9h1.7h3.1V214l1.5,0.3v1.9
	h-4.2L372.4,214.7z M368,210.6c0,1,0.2,1.8,0.5,2.4c0.3,0.6,0.9,0.9,1.7,0.9c0.5,0,0.9-0.1,1.2-0.3c0.3-0.2,0.6-0.5,0.8-0.8v-4.9
	c-0.2-0.4-0.5-0.7-0.8-0.9s-0.7-0.3-1.2-0.3c-0.8,0-1.3,0.3-1.7,1c-0.4,0.7-0.5,1.6-0.5,2.7V210.6z"/>
<path class="st1" d="M383,216.4c-1.7,0-3-0.5-4-1.6s-1.5-2.4-1.5-4.1v-0.4c0-1.7,0.5-3.1,1.4-4.3c0.9-1.1,2.2-1.7,3.8-1.7
	c1.6,0,2.8,0.5,3.7,1.4s1.3,2.2,1.3,3.8v1.7h-6.9v0.1c0.1,0.8,0.3,1.4,0.8,1.9s1.1,0.7,1.9,0.7c0.7,0,1.3-0.1,1.7-0.2
	c0.5-0.1,1-0.4,1.5-0.7l0.8,1.9c-0.5,0.4-1.1,0.7-1.9,1S384,216.4,383,216.4z M382.8,206.7c-0.6,0-1,0.2-1.4,0.7s-0.5,1-0.6,1.8v0.1
	h3.8V209c0-0.7-0.2-1.2-0.5-1.6C383.9,206.9,383.4,206.7,382.8,206.7z"/>
<path class="st1" d="M394.6,210.2c0-1.7,0.5-3.2,1.5-4.3s2.3-1.7,4-1.7s3.1,0.6,4,1.7s1.5,2.5,1.5,4.3v0.2c0,1.7-0.5,3.2-1.5,4.3
	s-2.3,1.6-4,1.6s-3.1-0.5-4-1.6c-1-1.1-1.5-2.5-1.5-4.3V210.2z M397.7,210.4c0,1.1,0.2,1.9,0.6,2.6c0.4,0.6,1,1,1.8,1s1.4-0.3,1.8-1
	s0.6-1.5,0.6-2.5v-0.2c0-1-0.2-1.9-0.6-2.5c-0.4-0.7-1-1-1.8-1s-1.4,0.3-1.8,1S397.7,209.3,397.7,210.4L397.7,210.4z"/>
<path class="st1" d="M406.7,214.2l1.5-0.3v-7.2h-1.7v-2.2h1.7v-1.3c0-1.3,0.4-2.3,1.1-3c0.8-0.7,1.8-1.1,3.2-1.1
	c0.3,0,0.5,0,0.8,0.1c0.3,0,0.6,0.1,0.9,0.2l-0.3,2.3c-0.2,0-0.3-0.1-0.5-0.1s-0.3,0-0.6,0c-0.5,0-0.9,0.1-1.2,0.4
	c-0.3,0.3-0.4,0.7-0.4,1.2v1.3h2.3v2.2h-2.3v7.2l1.5,0.3v1.9h-6.2v-1.9H406.7z"/>
<path class="st1" d="M129,240.7l1.5-0.3v-7.2l-1.7-0.3V231h4.8v9.4l1.5,0.3v1.9H129V240.7z M133.6,228.1h-3.1v-2.4h3.1V228.1z"/>
<path class="st1" d="M136.2,240.7l1.5-0.3v-7.2l-1.7-0.3V231h4.6l0.1,1.7c0.4-0.6,0.9-1.1,1.4-1.4c0.6-0.3,1.2-0.5,1.9-0.5
	c1.2,0,2.1,0.4,2.8,1.1c0.7,0.7,1,1.9,1,3.5v5.1l1.5,0.3v1.9h-6v-1.9l1.3-0.3v-5c0-0.8-0.2-1.3-0.5-1.7c-0.3-0.3-0.8-0.5-1.4-0.5
	c-0.4,0-0.8,0.1-1.1,0.3s-0.6,0.4-0.8,0.7v6.2l1.3,0.3v1.9h-5.9L136.2,240.7L136.2,240.7z"/>
<path class="st1" d="M154.3,228.1v2.8h2v2.2h-2v5.9c0,0.5,0.1,0.8,0.3,1s0.4,0.3,0.8,0.3c0.2,0,0.4,0,0.6,0c0.2,0,0.3,0,0.5-0.1
	l0.3,2.3c-0.4,0.1-0.7,0.2-1,0.2c-0.3,0.1-0.7,0.1-1.1,0.1c-1.1,0-1.9-0.3-2.5-0.9s-0.9-1.5-0.9-2.8v-5.9h-1.7V231h1.7v-2.8h3V228.1
	z"/>
<path class="st1" d="M163,242.8c-1.7,0-3-0.5-4-1.6s-1.5-2.4-1.5-4.1v-0.4c0-1.7,0.5-3.1,1.4-4.3c0.9-1.1,2.2-1.7,3.8-1.7
	s2.8,0.5,3.7,1.4s1.3,2.2,1.3,3.8v1.7h-6.9v0.1c0.1,0.8,0.3,1.4,0.8,1.9s1.1,0.7,1.9,0.7c0.7,0,1.3-0.1,1.7-0.2
	c0.5-0.1,1-0.4,1.5-0.7l0.8,1.9c-0.5,0.4-1.1,0.7-1.9,1S163.9,242.8,163,242.8z M162.7,233.1c-0.6,0-1,0.2-1.4,0.7s-0.5,1-0.6,1.8
	v0.1h3.8v-0.3c0-0.7-0.2-1.2-0.5-1.6C163.8,233.3,163.4,233.1,162.7,233.1z"/>
<path class="st1" d="M169,240.7l1.5-0.3v-7.2l-1.7-0.3V231h4.6l0.1,1.7c0.3-0.6,0.6-1.1,1.1-1.4s0.9-0.5,1.5-0.5c0.2,0,0.3,0,0.5,0
	s0.3,0.1,0.5,0.1l-0.3,2.9h-1.3c-0.5,0-0.8,0.1-1.1,0.3s-0.5,0.4-0.7,0.8v5.7l1.5,0.3v1.9H169V240.7z"/>
<path class="st1" d="M178.2,240.7l1.5-0.3v-7.2l-1.7-0.3V231h4.6l0.1,1.7c0.4-0.6,0.9-1.1,1.4-1.4s1.2-0.5,1.9-0.5
	c1.2,0,2.1,0.4,2.8,1.1s1,1.9,1,3.5v5.1l1.5,0.3v1.9h-6v-1.9l1.3-0.3v-5c0-0.8-0.2-1.3-0.5-1.7c-0.3-0.3-0.8-0.5-1.4-0.5
	c-0.4,0-0.8,0.1-1.1,0.3s-0.6,0.4-0.8,0.7v6.2l1.3,0.3v1.9h-5.9L178.2,240.7L178.2,240.7z"/>
<path class="st1" d="M199.7,242.5c-0.1-0.2-0.2-0.4-0.2-0.6c-0.1-0.2-0.1-0.4-0.2-0.6c-0.4,0.4-0.8,0.8-1.4,1
	c-0.5,0.3-1.1,0.4-1.8,0.4c-1.1,0-2-0.3-2.7-0.9c-0.7-0.6-1-1.5-1-2.5c0-1.1,0.4-1.9,1.3-2.5c0.9-0.6,2.2-0.9,3.8-0.9h1.6v-1.1
	c0-0.6-0.2-1-0.5-1.3s-0.8-0.5-1.4-0.5c-0.4,0-0.7,0-1,0.1s-0.5,0.2-0.7,0.3l-0.2,1.2h-2.4V232c0.6-0.4,1.2-0.7,2-1s1.5-0.4,2.4-0.4
	c1.4,0,2.6,0.4,3.5,1.1c0.9,0.7,1.3,1.7,1.3,3v4.8c0,0.2,0,0.3,0,0.5s0,0.3,0,0.5l1,0.1v1.9H199.7z M197,240.4
	c0.5,0,0.9-0.1,1.3-0.3c0.4-0.2,0.7-0.5,0.9-0.8v-1.8h-1.6c-0.7,0-1.2,0.2-1.5,0.5s-0.5,0.7-0.5,1.1c0,0.4,0.1,0.7,0.4,0.9
	C196.2,240.3,196.6,240.4,197,240.4z"/>
<path class="st1" d="M204.3,227.7v-1.9h4.8v14.6l1.5,0.3v1.9h-6.2v-1.9l1.5-0.3V228L204.3,227.7z"/>
<path class="st1" d="M217.2,236.8c0-1.8,0.4-3.3,1.2-4.4c0.8-1.1,1.9-1.7,3.4-1.7c0.7,0,1.2,0.1,1.7,0.4c0.5,0.3,0.9,0.7,1.3,1.2
	l0.2-1.5h2.7v11.3c0,1.5-0.5,2.8-1.4,3.7c-1,0.9-2.3,1.4-4,1.4c-0.6,0-1.2-0.1-1.9-0.2c-0.7-0.2-1.3-0.4-1.8-0.7l0.6-2.2
	c0.5,0.2,1,0.4,1.5,0.5s1,0.2,1.6,0.2c0.8,0,1.3-0.2,1.7-0.7s0.6-1.1,0.6-1.9v-0.8c-0.3,0.4-0.7,0.8-1.2,1s-1,0.3-1.6,0.3
	c-1.4,0-2.5-0.5-3.3-1.6c-0.8-1-1.2-2.4-1.2-4.1v-0.2H217.2z M220.3,237c0,1,0.2,1.8,0.5,2.4c0.3,0.6,0.9,0.9,1.7,0.9
	c0.5,0,0.9-0.1,1.2-0.3s0.6-0.4,0.8-0.8v-5c-0.2-0.4-0.5-0.6-0.8-0.8s-0.7-0.3-1.2-0.3c-0.8,0-1.3,0.3-1.7,1s-0.5,1.6-0.5,2.7V237z"
	/>
<path class="st1" d="M235.1,242.8c-1.7,0-3-0.5-4-1.6s-1.5-2.4-1.5-4.1v-0.4c0-1.7,0.5-3.1,1.4-4.3c0.9-1.1,2.2-1.7,3.8-1.7
	s2.8,0.5,3.7,1.4s1.3,2.2,1.3,3.8v1.7h-6.9v0.1c0.1,0.8,0.3,1.4,0.8,1.9s1.1,0.7,1.9,0.7c0.7,0,1.3-0.1,1.7-0.2
	c0.5-0.1,1-0.4,1.5-0.7l0.8,1.9c-0.5,0.4-1.1,0.7-1.9,1S236,242.8,235.1,242.8z M234.8,233.1c-0.6,0-1,0.2-1.4,0.7
	c-0.3,0.4-0.5,1-0.6,1.8v0.1h3.8v-0.3c0-0.7-0.2-1.2-0.5-1.6C235.9,233.3,235.4,233.1,234.8,233.1z"/>
<path class="st1" d="M240.9,240.7l1.5-0.3v-7.2l-1.7-0.3V231h4.6l0.1,1.7c0.4-0.6,0.9-1.1,1.4-1.4c0.6-0.3,1.2-0.5,1.9-0.5
	c1.2,0,2.1,0.4,2.8,1.1c0.7,0.7,1,1.9,1,3.5v5.1l1.5,0.3v1.9h-6v-1.9l1.3-0.3v-5c0-0.8-0.2-1.3-0.5-1.7c-0.3-0.3-0.8-0.5-1.4-0.5
	c-0.4,0-0.8,0.1-1.1,0.3s-0.6,0.4-0.8,0.7v6.2l1.3,0.3v1.9h-5.9L240.9,240.7L240.9,240.7z"/>
<path class="st1" d="M255.1,240.7l1.5-0.3v-7.2l-1.7-0.3V231h4.8v9.4l1.5,0.3v1.9H255L255.1,240.7L255.1,240.7z M259.7,228.1h-3.1
	v-2.4h3.1V228.1z"/>
<path class="st1" d="M266.4,228.1v2.8h2v2.2h-2v5.9c0,0.5,0.1,0.8,0.3,1c0.2,0.2,0.4,0.3,0.8,0.3c0.2,0,0.4,0,0.6,0s0.3,0,0.5-0.1
	l0.3,2.3c-0.4,0.1-0.7,0.2-1,0.2c-0.3,0.1-0.7,0.1-1.1,0.1c-1.1,0-1.9-0.3-2.5-0.9c-0.6-0.6-0.9-1.5-0.9-2.8v-5.9h-1.7V231h1.7v-2.8
	h3V228.1z"/>
<path class="st1" d="M277.2,242.5c-0.1-0.2-0.2-0.4-0.2-0.6c-0.1-0.2-0.1-0.4-0.2-0.6c-0.4,0.4-0.8,0.8-1.4,1
	c-0.5,0.3-1.1,0.4-1.8,0.4c-1.1,0-2-0.3-2.7-0.9c-0.7-0.6-1-1.5-1-2.5c0-1.1,0.4-1.9,1.3-2.5s2.2-0.9,3.8-0.9h1.6v-1.1
	c0-0.6-0.2-1-0.5-1.3s-0.8-0.5-1.4-0.5c-0.4,0-0.7,0-1,0.1s-0.5,0.2-0.7,0.3l-0.2,1.2h-2.4V232c0.6-0.4,1.2-0.7,2-1s1.5-0.4,2.4-0.4
	c1.4,0,2.6,0.4,3.5,1.1c0.9,0.7,1.3,1.7,1.3,3v4.8c0,0.2,0,0.3,0,0.5s0,0.3,0,0.5l1,0.1v1.9H277.2z M274.5,240.4
	c0.5,0,0.9-0.1,1.3-0.3s0.7-0.5,0.9-0.8v-1.8H275c-0.7,0-1.2,0.2-1.5,0.5s-0.5,0.7-0.5,1.1c0,0.4,0.1,0.7,0.4,0.9
	C273.6,240.3,274,240.4,274.5,240.4z"/>
<path class="st1" d="M281.7,227.7v-1.9h4.8v14.6l1.5,0.3v1.9h-6.2v-1.9l1.5-0.3V228L281.7,227.7z"/>
<path class="st1" d="M289.1,240.7l1.5-0.3v-7.2l-1.7-0.3V231h4.8v9.4l1.5,0.3v1.9H289v-1.9H289.1z M293.8,228.1h-3.1v-2.4h3.1V228.1
	z"/>
<path class="st1" d="M303.7,242.5c-0.1-0.2-0.2-0.4-0.2-0.6c-0.1-0.2-0.1-0.4-0.2-0.6c-0.4,0.4-0.8,0.8-1.4,1
	c-0.5,0.3-1.1,0.4-1.8,0.4c-1.1,0-2-0.3-2.7-0.9c-0.7-0.6-1-1.5-1-2.5c0-1.1,0.4-1.9,1.3-2.5s2.2-0.9,3.8-0.9h1.6v-1.1
	c0-0.6-0.2-1-0.5-1.3s-0.8-0.5-1.4-0.5c-0.4,0-0.7,0-1,0.1s-0.5,0.2-0.7,0.3l-0.2,1.2H297V232c0.6-0.4,1.2-0.7,2-1s1.5-0.4,2.4-0.4
	c1.4,0,2.6,0.4,3.5,1.1c0.9,0.7,1.3,1.7,1.3,3v4.8c0,0.2,0,0.3,0,0.5s0,0.3,0,0.5l1,0.1v1.9H303.7z M301,240.4
	c0.5,0,0.9-0.1,1.3-0.3s0.7-0.5,0.9-0.8v-1.8h-1.6c-0.7,0-1.2,0.2-1.5,0.5s-0.5,0.7-0.5,1.1c0,0.4,0.1,0.7,0.4,0.9
	C300.2,240.3,300.5,240.4,301,240.4z"/>
<path class="st1" d="M312.4,242.5h-3.1v-2.8h3.1V242.5z"/>
<path class="st1" d="M161.8,285h-2.3l-0.3-2.1c-0.3-0.3-0.7-0.6-1.2-0.7c-0.5-0.2-1-0.3-1.7-0.3c-1.4,0-2.4,0.5-3.1,1.5
	c-0.7,1-1.1,2.3-1.1,3.9v0.5c0,1.6,0.4,2.9,1.1,3.9s1.8,1.5,3.1,1.5c0.6,0,1.2-0.1,1.7-0.3c0.5-0.2,0.9-0.4,1.2-0.7l0.3-2.1h2.3v3.1
	c-0.6,0.7-1.4,1.3-2.4,1.7c-1,0.4-2.1,0.6-3.3,0.6c-2.1,0-3.8-0.7-5.2-2.2c-1.3-1.5-2-3.3-2-5.6v-0.5c0-2.3,0.7-4.1,2-5.6
	s3.1-2.2,5.2-2.2c1.2,0,2.3,0.2,3.3,0.7c1,0.4,1.8,1,2.4,1.7V285z"/>
<path class="st1" d="M163.2,289.4c0-1.7,0.5-3.2,1.5-4.3c1-1.1,2.3-1.7,4-1.7s3.1,0.6,4,1.7c1,1.1,1.5,2.5,1.5,4.3v0.2
	c0,1.7-0.5,3.2-1.5,4.3c-1,1.1-2.3,1.6-4,1.6s-3.1-0.5-4-1.6c-1-1.1-1.5-2.5-1.5-4.3V289.4z M166.3,289.6c0,1.1,0.2,1.9,0.6,2.6
	c0.4,0.6,1,1,1.8,1s1.4-0.3,1.8-1s0.6-1.5,0.6-2.5v-0.2c0-1-0.2-1.9-0.6-2.5s-1-1-1.8-1s-1.4,0.3-1.8,1s-0.6,1.5-0.6,2.5V289.6z"/>
<path class="st1" d="M175.1,293.5l1.5-0.3V286l-1.7-0.3v-1.9h4.6l0.1,1.7c0.4-0.6,0.9-1.1,1.4-1.4s1.2-0.5,1.9-0.5
	c1.2,0,2.1,0.4,2.8,1.1s1,1.9,1,3.5v5.1l1.5,0.3v1.9h-6v-1.9l1.3-0.3v-5c0-0.8-0.2-1.3-0.5-1.7c-0.3-0.3-0.8-0.5-1.4-0.5
	c-0.4,0-0.8,0.1-1.1,0.3c-0.3,0.2-0.6,0.4-0.8,0.7v6.2l1.3,0.3v1.9h-5.9L175.1,293.5L175.1,293.5z"/>
<path class="st1" d="M196.5,293.9c-0.4,0.5-0.8,0.9-1.3,1.2s-1.1,0.4-1.7,0.4c-1.4,0-2.5-0.5-3.3-1.6s-1.2-2.4-1.2-4.1v-0.2
	c0-1.8,0.4-3.3,1.2-4.4s1.9-1.7,3.4-1.7c0.6,0,1.1,0.1,1.6,0.4s0.9,0.6,1.2,1.1v-4.2l-1.7-0.3v-1.9h1.7h3.1v14.6l1.5,0.3v1.9h-4.2
	L196.5,293.9z M192.1,289.8c0,1,0.2,1.8,0.5,2.4s0.9,0.9,1.7,0.9c0.5,0,0.9-0.1,1.2-0.3c0.3-0.2,0.6-0.5,0.8-0.8v-4.9
	c-0.2-0.4-0.5-0.7-0.8-0.9c-0.3-0.2-0.7-0.3-1.2-0.3c-0.8,0-1.3,0.3-1.7,1s-0.5,1.6-0.5,2.7V289.8z"/>
<path class="st1" d="M201.7,289.4c0-1.7,0.5-3.2,1.5-4.3c1-1.1,2.3-1.7,4-1.7s3.1,0.6,4,1.7c1,1.1,1.5,2.5,1.5,4.3v0.2
	c0,1.7-0.5,3.2-1.5,4.3c-1,1.1-2.3,1.6-4,1.6s-3.1-0.5-4-1.6c-1-1.1-1.5-2.5-1.5-4.3V289.4z M204.8,289.6c0,1.1,0.2,1.9,0.6,2.6
	c0.4,0.6,1,1,1.8,1s1.4-0.3,1.8-1s0.6-1.5,0.6-2.5v-0.2c0-1-0.2-1.9-0.6-2.5c-0.4-0.7-1-1-1.8-1s-1.4,0.3-1.8,1
	c-0.4,0.7-0.6,1.5-0.6,2.5V289.6z"/>
<path class="st1" d="M213.3,285.6v-1.9h4.6l0.1,1.5c0.4-0.6,0.8-1,1.4-1.3c0.6-0.3,1.2-0.5,2-0.5c0.7,0,1.4,0.2,1.9,0.5
	s0.9,0.8,1.2,1.5c0.4-0.6,0.8-1.1,1.4-1.5c0.6-0.4,1.2-0.5,2-0.5c1.1,0,2,0.4,2.7,1.2c0.7,0.8,1,2,1,3.6v4.8l1.5,0.3v1.9h-6v-1.9
	l1.4-0.3v-4.8c0-0.9-0.1-1.5-0.4-1.8c-0.3-0.3-0.7-0.5-1.3-0.5c-0.4,0-0.8,0.1-1.2,0.3c-0.3,0.2-0.6,0.5-0.8,0.8c0,0.1,0,0.3,0,0.3
	c0,0.1,0,0.2,0,0.3v5.4l1.3,0.3v1.9h-5.7v-1.9l1.3-0.3v-4.8c0-0.9-0.1-1.5-0.4-1.8c-0.3-0.4-0.7-0.5-1.3-0.5c-0.4,0-0.8,0.1-1.1,0.2
	c-0.3,0.2-0.6,0.4-0.8,0.7v6.3l1.4,0.3v1.9h-6v-1.9l1.5-0.3v-7.2L213.3,285.6z"/>
<path class="st1" d="M243.5,287.7h-2.1l-0.3-1.5c-0.2-0.2-0.5-0.3-0.8-0.4s-0.7-0.2-1.1-0.2c-0.6,0-1,0.1-1.3,0.4
	c-0.3,0.2-0.5,0.6-0.5,0.9c0,0.4,0.2,0.6,0.5,0.9c0.3,0.2,0.9,0.4,1.8,0.6c1.4,0.3,2.5,0.7,3.2,1.3c0.7,0.6,1,1.3,1,2.3
	s-0.4,1.9-1.3,2.6c-0.9,0.7-2.1,1-3.6,1c-0.9,0-1.7-0.1-2.5-0.4c-0.7-0.3-1.4-0.6-2-1.1v-2.6h2.2l0.4,1.5c0.2,0.2,0.4,0.3,0.8,0.3
	c0.3,0.1,0.7,0.1,1,0.1c0.6,0,1.1-0.1,1.5-0.3s0.5-0.5,0.5-0.9c0-0.3-0.2-0.6-0.5-0.9s-1-0.5-1.9-0.7c-1.4-0.3-2.4-0.7-3.1-1.2
	c-0.7-0.5-1-1.3-1-2.2c0-1,0.4-1.8,1.2-2.5s1.9-1.1,3.4-1.1c0.9,0,1.8,0.1,2.6,0.4s1.4,0.6,1.9,0.9L243.5,287.7z"/>
<path class="st1" d="M258.1,295.3c-0.1-0.2-0.2-0.4-0.2-0.6c-0.1-0.2-0.1-0.4-0.2-0.6c-0.4,0.4-0.8,0.8-1.4,1
	c-0.5,0.3-1.1,0.4-1.8,0.4c-1.1,0-2-0.3-2.7-0.9s-1-1.5-1-2.5c0-1.1,0.4-1.9,1.3-2.5s2.2-0.9,3.8-0.9h1.6v-1.1c0-0.6-0.2-1-0.5-1.3
	s-0.8-0.5-1.4-0.5c-0.4,0-0.7,0-1,0.1s-0.5,0.2-0.7,0.3l-0.2,1.2h-2.4v-2.6c0.6-0.4,1.2-0.7,2-1s1.5-0.4,2.4-0.4
	c1.4,0,2.6,0.4,3.5,1.1s1.3,1.7,1.3,3v4.8c0,0.2,0,0.3,0,0.5s0,0.3,0,0.5l1,0.1v1.9H258.1z M255.4,293.2c0.5,0,0.9-0.1,1.3-0.3
	c0.4-0.2,0.7-0.5,0.9-0.8v-1.8H256c-0.7,0-1.2,0.2-1.5,0.5s-0.5,0.7-0.5,1.1s0.1,0.7,0.4,0.9C254.6,293.1,255,293.2,255.4,293.2z"/>
<path class="st1" d="M263,293.5l1.5-0.3V286l-1.7-0.3v-1.9h4.6l0.1,1.7c0.3-0.6,0.6-1.1,1.1-1.4s0.9-0.5,1.5-0.5c0.2,0,0.3,0,0.5,0
	s0.3,0.1,0.5,0.1l-0.3,2.9h-1.3c-0.5,0-0.8,0.1-1.1,0.3s-0.5,0.4-0.7,0.8v5.7l1.5,0.3v1.9H263V293.5z"/>
<path class="st1" d="M277.3,295.6c-1.7,0-3-0.5-4-1.6s-1.5-2.4-1.5-4.1v-0.4c0-1.7,0.5-3.1,1.4-4.3c0.9-1.1,2.2-1.7,3.8-1.7
	c1.6,0,2.8,0.5,3.7,1.4c0.9,0.9,1.3,2.2,1.3,3.8v1.7h-6.9v0.1c0.1,0.8,0.3,1.4,0.8,1.9s1.1,0.7,1.9,0.7c0.7,0,1.3-0.1,1.7-0.2
	c0.5-0.1,1-0.4,1.5-0.7l0.8,1.9c-0.5,0.4-1.1,0.7-1.9,1S278.3,295.6,277.3,295.6z M277,285.9c-0.6,0-1,0.2-1.4,0.7
	c-0.3,0.4-0.5,1-0.6,1.8v0.1h3.8v-0.3c0-0.7-0.2-1.2-0.5-1.6C278.1,286.1,277.7,285.9,277,285.9z"/>
<path class="st1" d="M293.8,285.6l-1.1,0.2l1.5,5.2l0.2,1.1h0.1l0.2-1.1l1.5-5.2l-1.1-0.2v-1.9h5.3v1.9l-1,0.2l-3.4,9.6h-3l-3.4-9.6
	l-1-0.2v-1.9h5.3v1.9H293.8z"/>
<path class="st1" d="M306.6,295.6c-1.7,0-3-0.5-4-1.6s-1.5-2.4-1.5-4.1v-0.4c0-1.7,0.5-3.1,1.4-4.3c0.9-1.1,2.2-1.7,3.8-1.7
	c1.6,0,2.8,0.5,3.7,1.4c0.9,0.9,1.3,2.2,1.3,3.8v1.7h-6.9v0.1c0.1,0.8,0.3,1.4,0.8,1.9s1.1,0.7,1.9,0.7c0.7,0,1.3-0.1,1.7-0.2
	c0.5-0.1,1-0.4,1.5-0.7l0.8,1.9c-0.5,0.4-1.1,0.7-1.9,1S307.5,295.6,306.6,295.6z M306.3,285.9c-0.6,0-1,0.2-1.4,0.7
	c-0.3,0.4-0.5,1-0.6,1.8v0.1h3.8v-0.3c0-0.7-0.2-1.2-0.5-1.6C307.4,286.1,307,285.9,306.3,285.9z"/>
<path class="st1" d="M312.6,293.5l1.5-0.3V286l-1.7-0.3v-1.9h4.6l0.1,1.7c0.3-0.6,0.6-1.1,1.1-1.4s0.9-0.5,1.5-0.5
	c0.2,0,0.3,0,0.5,0s0.3,0.1,0.5,0.1l-0.3,2.9h-1.3c-0.5,0-0.8,0.1-1.1,0.3s-0.5,0.4-0.7,0.8v5.7l1.5,0.3v1.9h-6.1v-2.1H312.6z"/>
<path class="st1" d="M334,285.6l-1.1,0.2l-4.3,11.3c-0.3,0.8-0.8,1.5-1.3,2.1s-1.4,0.8-2.5,0.8c-0.3,0-0.5,0-0.7-0.1
	s-0.5-0.1-0.8-0.2l0.4-2.3c0.1,0,0.2,0,0.3,0s0.2,0,0.3,0c0.5,0,0.9-0.1,1.2-0.4c0.3-0.3,0.5-0.6,0.6-1l0.4-0.9l-3.7-9.6l-1.1-0.2
	v-1.9h5.7v1.9l-1.3,0.2l1.6,4.6l0.2,0.8h0.1l1.8-5.5l-1.3-0.2v-1.9h5.7v2.3H334z"/>
<path class="st1" d="M346,295.6c-1.7,0-3-0.5-4-1.6s-1.5-2.4-1.5-4.1v-0.4c0-1.7,0.5-3.1,1.4-4.3s2.2-1.7,3.8-1.7
	c1.6,0,2.8,0.5,3.7,1.4c0.9,0.9,1.3,2.2,1.3,3.8v1.7h-6.9v0.1c0.1,0.8,0.3,1.4,0.8,1.9s1.1,0.7,1.9,0.7c0.7,0,1.3-0.1,1.7-0.2
	c0.5-0.1,1-0.4,1.5-0.7l0.8,1.9c-0.5,0.4-1.1,0.7-1.9,1S346.9,295.6,346,295.6z M345.7,285.9c-0.6,0-1,0.2-1.4,0.7
	c-0.3,0.4-0.5,1-0.6,1.8v0.1h3.8v-0.3c0-0.7-0.2-1.2-0.5-1.6C346.8,286.1,346.3,285.9,345.7,285.9z"/>
<path class="st1" d="M359.3,295.3c-0.1-0.2-0.2-0.4-0.2-0.6c-0.1-0.2-0.1-0.4-0.2-0.6c-0.4,0.4-0.8,0.8-1.4,1s-1.1,0.4-1.8,0.4
	c-1.1,0-2-0.3-2.7-0.9s-1-1.5-1-2.5c0-1.1,0.4-1.9,1.3-2.5s2.2-0.9,3.8-0.9h1.6v-1.1c0-0.6-0.2-1-0.5-1.3s-0.8-0.5-1.4-0.5
	c-0.4,0-0.7,0-1,0.1s-0.5,0.2-0.7,0.3l-0.2,1.2h-2.4v-2.6c0.6-0.4,1.2-0.7,2-1c0.7-0.3,1.5-0.4,2.4-0.4c1.4,0,2.6,0.4,3.5,1.1
	s1.3,1.7,1.3,3v4.8c0,0.2,0,0.3,0,0.5s0,0.3,0,0.5l1,0.1v1.9H359.3z M356.6,293.2c0.5,0,0.9-0.1,1.3-0.3c0.4-0.2,0.7-0.5,0.9-0.8
	v-1.8h-1.6c-0.7,0-1.2,0.2-1.5,0.5s-0.5,0.7-0.5,1.1s0.1,0.7,0.4,0.9S356.1,293.2,356.6,293.2z"/>
<path class="st1" d="M373.3,287.7h-2.1l-0.3-1.5c-0.2-0.2-0.5-0.3-0.8-0.4s-0.7-0.2-1.1-0.2c-0.6,0-1,0.1-1.3,0.4
	c-0.3,0.2-0.5,0.6-0.5,0.9c0,0.4,0.2,0.6,0.5,0.9c0.3,0.2,0.9,0.4,1.8,0.6c1.4,0.3,2.5,0.7,3.2,1.3c0.7,0.6,1,1.3,1,2.3
	s-0.4,1.9-1.3,2.6s-2.1,1-3.6,1c-0.9,0-1.7-0.1-2.5-0.4c-0.7-0.3-1.4-0.6-2-1.1v-2.6h2.2l0.4,1.5c0.2,0.2,0.4,0.3,0.8,0.3
	c0.3,0.1,0.7,0.1,1,0.1c0.6,0,1.1-0.1,1.5-0.3s0.5-0.5,0.5-0.9c0-0.3-0.2-0.6-0.5-0.9s-1-0.5-1.9-0.7c-1.4-0.3-2.4-0.7-3.1-1.2
	s-1-1.3-1-2.2c0-1,0.4-1.8,1.2-2.5c0.8-0.7,1.9-1.1,3.4-1.1c0.9,0,1.8,0.1,2.6,0.4s1.4,0.6,1.9,0.9L373.3,287.7z"/>
<path class="st1" d="M387,285.6l-1.1,0.2l-4.3,11.3c-0.3,0.8-0.8,1.5-1.3,2.1c-0.6,0.6-1.4,0.8-2.5,0.8c-0.3,0-0.5,0-0.7-0.1
	c-0.2,0-0.5-0.1-0.8-0.2l0.4-2.3c0.1,0,0.2,0,0.3,0s0.2,0,0.3,0c0.5,0,0.9-0.1,1.2-0.4c0.3-0.3,0.5-0.6,0.6-1l0.4-0.9l-3.7-9.6
	l-1.1-0.2v-1.9h5.7v1.9l-1.3,0.2l1.6,4.6l0.2,0.8h0.1l1.8-5.5l-1.3-0.2v-1.9h5.7v2.3H387z"/>
<path class="st1" d="M398,280.9v2.8h2v2.2h-2v5.9c0,0.5,0.1,0.8,0.3,1s0.4,0.3,0.8,0.3c0.2,0,0.4,0,0.6,0s0.3,0,0.5-0.1l0.3,2.3
	c-0.4,0.1-0.7,0.2-1,0.2c-0.3,0.1-0.7,0.1-1.1,0.1c-1.1,0-1.9-0.3-2.5-0.9s-0.9-1.5-0.9-2.8V286h-1.7v-2.2h1.7V281h3V280.9z"/>
<path class="st1" d="M401.2,289.4c0-1.7,0.5-3.2,1.5-4.3c1-1.1,2.3-1.7,4-1.7s3.1,0.6,4,1.7c1,1.1,1.5,2.5,1.5,4.3v0.2
	c0,1.7-0.5,3.2-1.5,4.3c-1,1.1-2.3,1.6-4,1.6s-3.1-0.5-4-1.6c-1-1.1-1.5-2.5-1.5-4.3V289.4z M404.3,289.6c0,1.1,0.2,1.9,0.6,2.6
	c0.4,0.6,1,1,1.8,1s1.4-0.3,1.8-1s0.6-1.5,0.6-2.5v-0.2c0-1-0.2-1.9-0.6-2.5s-1-1-1.8-1s-1.4,0.3-1.8,1s-0.6,1.5-0.6,2.5V289.6z"/>
<path class="st1" d="M427,293.9c-0.4,0.5-0.8,1-1.4,1.3s-1.2,0.4-1.9,0.4c-1.2,0-2.2-0.4-2.9-1.2c-0.7-0.8-1-2-1-3.7v-4.8l-1.3-0.3
	v-1.9h1.3h3.1v7c0,0.8,0.1,1.5,0.4,1.8c0.3,0.4,0.7,0.6,1.3,0.6c0.5,0,0.9-0.1,1.3-0.2c0.4-0.2,0.7-0.4,0.9-0.7v-6.3l-1.4-0.3v-1.9
	h1.4h3.1v9.4l1.4,0.3v1.9h-4.2L427,293.9z"/>
<path class="st1" d="M441.8,287.7h-2.1l-0.3-1.5c-0.2-0.2-0.5-0.3-0.8-0.4s-0.7-0.2-1.1-0.2c-0.6,0-1,0.1-1.3,0.4
	c-0.3,0.2-0.5,0.6-0.5,0.9c0,0.4,0.2,0.6,0.5,0.9c0.3,0.2,0.9,0.4,1.8,0.6c1.4,0.3,2.5,0.7,3.2,1.3c0.7,0.6,1,1.3,1,2.3
	s-0.4,1.9-1.3,2.6s-2.1,1-3.6,1c-0.9,0-1.7-0.1-2.5-0.4c-0.7-0.3-1.4-0.6-2-1.1v-2.6h2.2l0.4,1.5c0.2,0.2,0.4,0.3,0.8,0.3
	c0.3,0.1,0.7,0.1,1,0.1c0.6,0,1.1-0.1,1.5-0.3s0.5-0.5,0.5-0.9c0-0.3-0.2-0.6-0.5-0.9s-1-0.5-1.9-0.7c-1.4-0.3-2.4-0.7-3.1-1.2
	s-1-1.3-1-2.2c0-1,0.4-1.8,1.2-2.5c0.8-0.7,1.9-1.1,3.4-1.1c0.9,0,1.8,0.1,2.6,0.4s1.4,0.6,1.9,0.9L441.8,287.7z"/>
<path class="st1" d="M449.1,295.6c-1.7,0-3-0.5-4-1.6s-1.5-2.4-1.5-4.1v-0.4c0-1.7,0.5-3.1,1.4-4.3c0.9-1.1,2.2-1.7,3.8-1.7
	c1.6,0,2.8,0.5,3.7,1.4s1.3,2.2,1.3,3.8v1.7h-6.9v0.1c0.1,0.8,0.3,1.4,0.8,1.9s1.1,0.7,1.9,0.7c0.7,0,1.3-0.1,1.7-0.2
	c0.5-0.1,1-0.4,1.5-0.7l0.8,1.9c-0.5,0.4-1.1,0.7-1.9,1S450,295.6,449.1,295.6z M448.8,285.9c-0.6,0-1,0.2-1.4,0.7s-0.5,1-0.6,1.8
	v0.1h3.8v-0.3c0-0.7-0.2-1.2-0.5-1.6C449.9,286.1,449.4,285.9,448.8,285.9z"/>
<path class="st1" d="M458.5,294.9c0,0.7-0.2,1.5-0.6,2.3s-0.9,1.5-1.5,2l-1.5-0.8c0.3-0.5,0.5-1,0.6-1.6c0.2-0.5,0.2-1.1,0.2-1.8
	v-2.3h2.8V294.9z"/>
<path class="st1" d="M136.4,321.7c-0.1-0.2-0.2-0.4-0.2-0.6c-0.1-0.2-0.1-0.4-0.2-0.6c-0.4,0.4-0.8,0.8-1.4,1
	c-0.5,0.3-1.1,0.4-1.8,0.4c-1.1,0-2-0.3-2.7-0.9s-1-1.5-1-2.5c0-1.1,0.4-1.9,1.3-2.5c0.9-0.6,2.2-0.9,3.8-0.9h1.6V314
	c0-0.6-0.2-1-0.5-1.3s-0.8-0.5-1.4-0.5c-0.4,0-0.7,0-1,0.1s-0.5,0.2-0.7,0.3l-0.2,1.2h-2.4v-2.6c0.6-0.4,1.2-0.7,2-1
	c0.7-0.3,1.5-0.4,2.4-0.4c1.4,0,2.6,0.4,3.5,1.1s1.3,1.7,1.3,3v4.8c0,0.2,0,0.3,0,0.5s0,0.3,0,0.5l1,0.1v1.9H136.4z M133.7,319.6
	c0.5,0,0.9-0.1,1.3-0.3c0.4-0.2,0.7-0.5,0.9-0.8v-1.8h-1.6c-0.7,0-1.2,0.2-1.5,0.5s-0.5,0.7-0.5,1.1s0.1,0.7,0.4,0.9
	C132.9,319.5,133.3,319.6,133.7,319.6z"/>
<path class="st1" d="M141.1,319.8l1.5-0.3v-7.2L141,312v-1.9h4.6l0.1,1.7c0.4-0.6,0.9-1.1,1.4-1.4c0.6-0.3,1.2-0.5,1.9-0.5
	c1.2,0,2.1,0.4,2.8,1.1s1,1.9,1,3.5v5.1l1.5,0.3v1.9h-6v-1.9l1.3-0.3v-5c0-0.8-0.2-1.3-0.5-1.7c-0.3-0.3-0.8-0.5-1.4-0.5
	c-0.4,0-0.8,0.1-1.1,0.3c-0.3,0.2-0.6,0.4-0.8,0.7v6.2l1.3,0.3v1.9h-5.9v-2H141.1z"/>
<path class="st1" d="M162.6,320.3c-0.4,0.5-0.8,0.9-1.3,1.2c-0.5,0.3-1.1,0.4-1.7,0.4c-1.4,0-2.5-0.5-3.3-1.6
	c-0.8-1-1.2-2.4-1.2-4.1V316c0-1.8,0.4-3.3,1.2-4.4s1.9-1.7,3.4-1.7c0.6,0,1.1,0.1,1.6,0.4s0.9,0.6,1.2,1.1v-4.2l-1.7-0.3V305h1.7
	h3.1v14.6l1.5,0.3v1.9h-4.2L162.6,320.3z M158.2,316.2c0,1,0.2,1.8,0.5,2.4s0.9,0.9,1.7,0.9c0.5,0,0.9-0.1,1.2-0.3
	c0.3-0.2,0.6-0.5,0.8-0.8v-4.9c-0.2-0.4-0.5-0.7-0.8-0.9c-0.3-0.2-0.7-0.3-1.2-0.3c-0.8,0-1.3,0.3-1.7,1s-0.5,1.6-0.5,2.7V316.2z"/>
<path class="st1" d="M179,322c-1.7,0-3-0.5-4-1.6s-1.5-2.4-1.5-4.1v-0.4c0-1.7,0.5-3.1,1.4-4.3c0.9-1.1,2.2-1.7,3.8-1.7
	s2.8,0.5,3.7,1.4s1.3,2.2,1.3,3.8v1.7h-6.9v0.1c0.1,0.8,0.3,1.4,0.8,1.9s1.1,0.7,1.9,0.7c0.7,0,1.3-0.1,1.7-0.2
	c0.5-0.1,1-0.4,1.5-0.7l0.8,1.9c-0.5,0.4-1.1,0.7-1.9,1S179.9,322,179,322z M178.7,312.3c-0.6,0-1,0.2-1.4,0.7
	c-0.3,0.4-0.5,1-0.6,1.8v0.1h3.8v-0.3c0-0.7-0.2-1.2-0.5-1.6C179.8,312.5,179.4,312.3,178.7,312.3z"/>
<path class="st1" d="M192.3,321.7c-0.1-0.2-0.2-0.4-0.2-0.6c-0.1-0.2-0.1-0.4-0.2-0.6c-0.4,0.4-0.8,0.8-1.4,1
	c-0.5,0.3-1.1,0.4-1.8,0.4c-1.1,0-2-0.3-2.7-0.9s-1-1.5-1-2.5c0-1.1,0.4-1.9,1.3-2.5c0.9-0.6,2.2-0.9,3.8-0.9h1.6V314
	c0-0.6-0.2-1-0.5-1.3s-0.8-0.5-1.4-0.5c-0.4,0-0.7,0-1,0.1s-0.5,0.2-0.7,0.3l-0.2,1.2h-2.4v-2.6c0.6-0.4,1.2-0.7,2-1
	c0.7-0.3,1.5-0.4,2.4-0.4c1.4,0,2.6,0.4,3.5,1.1s1.3,1.7,1.3,3v4.8c0,0.2,0,0.3,0,0.5s0,0.3,0,0.5l1,0.1v1.9H192.3z M189.6,319.6
	c0.5,0,0.9-0.1,1.3-0.3c0.4-0.2,0.7-0.5,0.9-0.8v-1.8h-1.6c-0.7,0-1.2,0.2-1.5,0.5s-0.5,0.7-0.5,1.1s0.1,0.7,0.4,0.9
	C188.8,319.5,189.2,319.6,189.6,319.6z"/>
<path class="st1" d="M206.3,314.1h-2.1l-0.3-1.5c-0.2-0.2-0.5-0.3-0.8-0.4s-0.7-0.2-1.1-0.2c-0.6,0-1,0.1-1.3,0.4
	c-0.3,0.2-0.5,0.6-0.5,0.9s0.2,0.6,0.5,0.9c0.3,0.2,0.9,0.4,1.8,0.6c1.4,0.3,2.5,0.7,3.2,1.3c0.7,0.6,1,1.3,1,2.3s-0.4,1.9-1.3,2.6
	c-0.9,0.7-2.1,1-3.6,1c-0.9,0-1.7-0.1-2.5-0.4c-0.7-0.3-1.4-0.6-2-1.1v-2.6h2.2l0.4,1.5c0.2,0.2,0.4,0.3,0.8,0.3
	c0.3,0.1,0.7,0.1,1,0.1c0.6,0,1.1-0.1,1.5-0.3c0.3-0.2,0.5-0.5,0.5-0.9c0-0.3-0.2-0.6-0.5-0.9c-0.3-0.2-1-0.5-1.9-0.7
	c-1.4-0.3-2.4-0.7-3.1-1.2c-0.7-0.5-1-1.3-1-2.2c0-1,0.4-1.8,1.2-2.5s1.9-1.1,3.4-1.1c0.9,0,1.8,0.1,2.6,0.4
	c0.8,0.2,1.4,0.6,1.9,0.9L206.3,314.1z"/>
<path class="st1" d="M220,312l-1.1,0.2l-4.3,11.3c-0.3,0.8-0.8,1.5-1.3,2.1c-0.6,0.6-1.4,0.8-2.5,0.8c-0.3,0-0.5,0-0.7-0.1
	c-0.2,0-0.5-0.1-0.8-0.2l0.4-2.3c0.1,0,0.2,0,0.3,0s0.2,0,0.3,0c0.5,0,0.9-0.1,1.2-0.4s0.5-0.6,0.6-1l0.4-0.9l-3.7-9.6l-1.1-0.2
	v-1.9h5.7v1.9l-1.3,0.2l1.6,4.6l0.2,0.8h0.1l1.8-5.5l-1.3-0.2v-1.9h5.7v2.3H220z"/>
<path class="st1" d="M231.1,307.3v2.8h2v2.2h-2v5.9c0,0.5,0.1,0.8,0.3,1s0.4,0.3,0.8,0.3c0.2,0,0.4,0,0.6,0c0.2,0,0.3,0,0.5-0.1
	l0.3,2.3c-0.4,0.1-0.7,0.2-1,0.2c-0.3,0.1-0.7,0.1-1.1,0.1c-1.1,0-1.9-0.3-2.5-0.9s-0.9-1.5-0.9-2.8v-5.9h-1.7v-2.2h1.7v-2.8h3
	V307.3z"/>
<path class="st1" d="M234.2,315.8c0-1.7,0.5-3.2,1.5-4.3c1-1.1,2.3-1.7,4-1.7s3.1,0.6,4,1.7c1,1.1,1.5,2.5,1.5,4.3v0.2
	c0,1.7-0.5,3.2-1.5,4.3c-1,1.1-2.3,1.6-4,1.6s-3.1-0.5-4-1.6c-1-1.1-1.5-2.5-1.5-4.3V315.8z M237.4,316c0,1.1,0.2,1.9,0.6,2.6
	s1,1,1.8,1s1.4-0.3,1.8-1s0.6-1.5,0.6-2.5v-0.2c0-1-0.2-1.9-0.6-2.5c-0.4-0.7-1-1-1.8-1s-1.4,0.3-1.8,1c-0.4,0.7-0.6,1.5-0.6,2.5
	V316z"/>
<path class="st1" d="M252.1,316c0-1.8,0.4-3.3,1.2-4.4s1.9-1.7,3.4-1.7c0.7,0,1.2,0.1,1.7,0.4s0.9,0.7,1.3,1.2l0.2-1.5h2.7v11.3
	c0,1.5-0.5,2.8-1.4,3.7c-1,0.9-2.3,1.4-4,1.4c-0.6,0-1.2-0.1-1.9-0.2c-0.7-0.2-1.3-0.4-1.8-0.7l0.6-2.2c0.5,0.2,1,0.4,1.5,0.5
	c0.5,0.1,1,0.2,1.6,0.2c0.8,0,1.3-0.2,1.7-0.7c0.4-0.5,0.6-1.1,0.6-1.9v-0.8c-0.3,0.4-0.7,0.8-1.2,1s-1,0.3-1.6,0.3
	c-1.4,0-2.5-0.5-3.3-1.6s-1.2-2.4-1.2-4.1V316H252.1z M255.3,316.2c0,1,0.2,1.8,0.5,2.4s0.9,0.9,1.7,0.9c0.5,0,0.9-0.1,1.2-0.3
	s0.6-0.4,0.8-0.8v-5c-0.2-0.4-0.5-0.6-0.8-0.8s-0.7-0.3-1.2-0.3c-0.8,0-1.3,0.3-1.7,1c-0.4,0.7-0.5,1.6-0.5,2.7V316.2z"/>
<path class="st1" d="M270,322c-1.7,0-3-0.5-4-1.6s-1.5-2.4-1.5-4.1v-0.4c0-1.7,0.5-3.1,1.4-4.3s2.2-1.7,3.8-1.7
	c1.6,0,2.8,0.5,3.7,1.4c0.9,0.9,1.3,2.2,1.3,3.8v1.7h-6.9v0.1c0.1,0.8,0.3,1.4,0.8,1.9s1.1,0.7,1.9,0.7c0.7,0,1.3-0.1,1.7-0.2
	c0.5-0.1,1-0.4,1.5-0.7l0.8,1.9c-0.5,0.4-1.1,0.7-1.9,1S271,322,270,322z M269.7,312.3c-0.6,0-1,0.2-1.4,0.7c-0.3,0.4-0.5,1-0.6,1.8
	v0.1h3.8v-0.3c0-0.7-0.2-1.2-0.5-1.6C270.8,312.5,270.4,312.3,269.7,312.3z"/>
<path class="st1" d="M280.6,307.3v2.8h2v2.2h-2v5.9c0,0.5,0.1,0.8,0.3,1s0.4,0.3,0.8,0.3c0.2,0,0.4,0,0.6,0s0.3,0,0.5-0.1l0.3,2.3
	c-0.4,0.1-0.7,0.2-1,0.2c-0.3,0.1-0.7,0.1-1.1,0.1c-1.1,0-1.9-0.3-2.5-0.9s-0.9-1.5-0.9-2.8v-5.9h-1.7v-2.2h1.7v-2.8h3V307.3z"/>
<path class="st1" d="M287.7,321.3c0,0.7-0.2,1.5-0.6,2.3s-0.9,1.5-1.5,2l-1.5-0.8c0.3-0.5,0.5-1,0.6-1.6s0.2-1.1,0.2-1.8v-2.3h2.8
	V321.3z"/>
<path class="st1" d="M306.9,312l-1.1,0.2l-4.3,11.3c-0.3,0.8-0.8,1.5-1.3,2.1c-0.6,0.6-1.4,0.8-2.5,0.8c-0.3,0-0.5,0-0.7-0.1
	c-0.2,0-0.5-0.1-0.8-0.2l0.4-2.3c0.1,0,0.2,0,0.3,0c0.1,0,0.2,0,0.3,0c0.5,0,0.9-0.1,1.2-0.4s0.5-0.6,0.6-1l0.4-0.9l-3.7-9.6
	l-1.1-0.2v-1.9h5.7v1.9l-1.3,0.2l1.6,4.6l0.2,0.8h0.1l1.8-5.5l-1.3-0.2v-1.9h5.7v2.3H306.9z"/>
<path class="st1" d="M307.5,315.8c0-1.7,0.5-3.2,1.5-4.3c1-1.1,2.3-1.7,4-1.7s3.1,0.6,4,1.7c1,1.1,1.5,2.5,1.5,4.3v0.2
	c0,1.7-0.5,3.2-1.5,4.3c-1,1.1-2.3,1.6-4,1.6s-3.1-0.5-4-1.6c-1-1.1-1.5-2.5-1.5-4.3V315.8z M310.7,316c0,1.1,0.2,1.9,0.6,2.6
	s1,1,1.8,1s1.4-0.3,1.8-1s0.6-1.5,0.6-2.5v-0.2c0-1-0.2-1.9-0.6-2.5c-0.4-0.7-1-1-1.8-1s-1.4,0.3-1.8,1s-0.6,1.5-0.6,2.5V316z"/>
<path class="st1" d="M327.7,320.3c-0.4,0.5-0.8,1-1.4,1.3c-0.5,0.3-1.2,0.4-1.9,0.4c-1.2,0-2.2-0.4-2.9-1.2c-0.7-0.8-1-2-1-3.7v-4.8
	l-1.3-0.3v-1.9h1.3h3.1v7c0,0.8,0.1,1.5,0.4,1.8c0.3,0.4,0.7,0.6,1.3,0.6c0.5,0,0.9-0.1,1.3-0.2c0.4-0.2,0.7-0.4,0.9-0.7v-6.3
	l-1.4-0.3v-1.9h1.4h3.1v9.4l1.4,0.3v1.9h-4.2L327.7,320.3z"/>
<path class="st1" d="M348.1,314.1H346l-0.3-1.5c-0.2-0.2-0.5-0.3-0.8-0.4s-0.7-0.2-1.1-0.2c-0.6,0-1,0.1-1.3,0.4
	c-0.3,0.2-0.5,0.6-0.5,0.9s0.2,0.6,0.5,0.9c0.3,0.2,0.9,0.4,1.8,0.6c1.4,0.3,2.5,0.7,3.2,1.3c0.7,0.6,1,1.3,1,2.3s-0.5,1.9-1.3,2.6
	c-0.9,0.7-2.1,1-3.5,1c-0.9,0-1.7-0.1-2.5-0.4c-0.7-0.3-1.4-0.6-2-1.1v-2.6h2.2l0.4,1.5c0.2,0.2,0.4,0.3,0.8,0.3
	c0.3,0.1,0.7,0.1,1,0.1c0.6,0,1.1-0.1,1.5-0.3c0.3-0.2,0.5-0.5,0.5-0.9c0-0.3-0.2-0.6-0.5-0.9c-0.3-0.2-1-0.5-1.9-0.7
	c-1.4-0.3-2.4-0.7-3.1-1.2s-1-1.3-1-2.2c0-1,0.4-1.8,1.2-2.5c0.8-0.7,1.9-1.1,3.4-1.1c0.9,0,1.8,0.1,2.6,0.4
	c0.8,0.2,1.4,0.6,1.9,0.9L348.1,314.1z"/>
<path class="st1" d="M349.7,319.8l1.5-0.3v-12.3l-1.7-0.3V305h4.8v6.6c0.4-0.5,0.8-1,1.3-1.3s1.1-0.4,1.8-0.4c1.2,0,2.2,0.4,2.9,1.2
	c0.7,0.8,1,2,1,3.7v4.7l1.5,0.3v1.9h-6v-1.9l1.4-0.3v-4.7c0-0.9-0.2-1.5-0.5-1.9s-0.8-0.6-1.4-0.6c-0.4,0-0.8,0.1-1.1,0.2
	c-0.3,0.2-0.6,0.4-0.8,0.7v6.3l1.4,0.3v1.9h-6L349.7,319.8L349.7,319.8z"/>
<path class="st1" d="M363.5,315.8c0-1.7,0.5-3.2,1.5-4.3c1-1.1,2.3-1.7,4-1.7s3.1,0.6,4,1.7c1,1.1,1.5,2.5,1.5,4.3v0.2
	c0,1.7-0.5,3.2-1.5,4.3s-2.3,1.6-4,1.6s-3.1-0.5-4-1.6s-1.5-2.5-1.5-4.3V315.8z M366.7,316c0,1.1,0.2,1.9,0.6,2.6c0.4,0.6,1,1,1.8,1
	s1.4-0.3,1.8-1s0.6-1.5,0.6-2.5v-0.2c0-1-0.2-1.9-0.6-2.5c-0.4-0.7-1-1-1.8-1s-1.4,0.3-1.8,1s-0.6,1.5-0.6,2.5V316z"/>
<path class="st1" d="M383.7,320.3c-0.4,0.5-0.8,1-1.4,1.3c-0.5,0.3-1.2,0.4-1.9,0.4c-1.2,0-2.2-0.4-2.9-1.2c-0.7-0.8-1-2-1-3.7v-4.8
	l-1.3-0.3v-1.9h1.3h3.1v7c0,0.8,0.1,1.5,0.4,1.8c0.3,0.4,0.7,0.6,1.3,0.6c0.5,0,0.9-0.1,1.3-0.2c0.4-0.2,0.7-0.4,0.9-0.7v-6.3
	l-1.4-0.3v-1.9h1.4h3.1v9.4l1.4,0.3v1.9h-4.2L383.7,320.3z"/>
<path class="st1" d="M389.1,306.9V305h4.8v14.6l1.5,0.3v1.9h-6.2v-1.9l1.5-0.3v-12.3L389.1,306.9z"/>
<path class="st1" d="M403.7,320.3c-0.4,0.5-0.8,0.9-1.3,1.2c-0.5,0.3-1.1,0.4-1.7,0.4c-1.4,0-2.5-0.5-3.3-1.6
	c-0.8-1-1.2-2.4-1.2-4.1V316c0-1.8,0.4-3.3,1.2-4.4c0.8-1.1,1.9-1.7,3.4-1.7c0.6,0,1.1,0.1,1.6,0.4s0.9,0.6,1.2,1.1v-4.2l-1.7-0.3
	V305h1.7h3.1v14.6l1.5,0.3v1.9H404L403.7,320.3z M399.3,316.2c0,1,0.2,1.8,0.5,2.4s0.9,0.9,1.7,0.9c0.5,0,0.9-0.1,1.2-0.3
	c0.3-0.2,0.6-0.5,0.8-0.8v-4.9c-0.2-0.4-0.5-0.7-0.8-0.9c-0.3-0.2-0.7-0.3-1.2-0.3c-0.8,0-1.3,0.3-1.7,1c-0.4,0.7-0.5,1.6-0.5,2.7
	V316.2z"/>
<path class="st1" d="M422.7,320.3c-0.4,0.5-0.8,1-1.4,1.3c-0.5,0.3-1.2,0.4-1.9,0.4c-1.2,0-2.2-0.4-2.9-1.2c-0.7-0.8-1-2-1-3.7v-4.8
	l-1.3-0.3v-1.9h1.3h3.1v7c0,0.8,0.1,1.5,0.4,1.8c0.3,0.4,0.7,0.6,1.3,0.6c0.5,0,0.9-0.1,1.3-0.2c0.4-0.2,0.7-0.4,0.9-0.7v-6.3
	l-1.4-0.3v-1.9h1.4h3.1v9.4l1.4,0.3v1.9h-4.2L422.7,320.3z"/>
<path class="st1" d="M437.5,314.1h-2.1l-0.3-1.5c-0.2-0.2-0.5-0.3-0.8-0.4s-0.7-0.2-1.1-0.2c-0.6,0-1,0.1-1.3,0.4
	c-0.3,0.2-0.5,0.6-0.5,0.9s0.2,0.6,0.5,0.9s0.9,0.4,1.8,0.6c1.4,0.3,2.5,0.7,3.2,1.3c0.7,0.6,1,1.3,1,2.3s-0.4,1.9-1.3,2.6
	s-2.1,1-3.6,1c-0.9,0-1.7-0.1-2.5-0.4c-0.7-0.3-1.4-0.6-2-1.1v-2.6h2.2l0.4,1.5c0.2,0.2,0.4,0.3,0.8,0.3c0.3,0.1,0.7,0.1,1,0.1
	c0.6,0,1.1-0.1,1.5-0.3c0.3-0.2,0.5-0.5,0.5-0.9c0-0.3-0.2-0.6-0.5-0.9c-0.3-0.2-1-0.5-1.9-0.7c-1.4-0.3-2.4-0.7-3.1-1.2
	s-1-1.3-1-2.2c0-1,0.4-1.8,1.2-2.5c0.8-0.7,1.9-1.1,3.4-1.1c0.9,0,1.8,0.1,2.6,0.4c0.8,0.2,1.4,0.6,1.9,0.9L437.5,314.1z"/>
<path class="st1" d="M444.7,322c-1.7,0-3-0.5-4-1.6s-1.5-2.4-1.5-4.1v-0.4c0-1.7,0.5-3.1,1.4-4.3s2.2-1.7,3.8-1.7
	c1.6,0,2.8,0.5,3.7,1.4s1.3,2.2,1.3,3.8v1.7h-6.9v0.1c0.1,0.8,0.3,1.4,0.8,1.9s1.1,0.7,1.9,0.7c0.7,0,1.3-0.1,1.7-0.2
	c0.5-0.1,1-0.4,1.5-0.7l0.8,1.9c-0.5,0.4-1.1,0.7-1.9,1C446.5,321.8,445.7,322,444.7,322z M444.5,312.3c-0.6,0-1,0.2-1.4,0.7
	c-0.3,0.4-0.5,1-0.6,1.8v0.1h3.8v-0.3c0-0.7-0.2-1.2-0.5-1.6C445.6,312.5,445.1,312.3,444.5,312.3z"/>
<path class="st1" d="M463.7,321.7c-0.1-0.2-0.2-0.4-0.2-0.6c-0.1-0.2-0.1-0.4-0.2-0.6c-0.4,0.4-0.8,0.8-1.4,1
	c-0.5,0.3-1.1,0.4-1.8,0.4c-1.1,0-2-0.3-2.7-0.9s-1-1.5-1-2.5c0-1.1,0.4-1.9,1.3-2.5s2.2-0.9,3.8-0.9h1.6V314c0-0.6-0.2-1-0.5-1.3
	s-0.8-0.5-1.4-0.5c-0.4,0-0.7,0-1,0.1s-0.5,0.2-0.7,0.3l-0.2,1.2h-2.4v-2.6c0.6-0.4,1.2-0.7,2-1c0.7-0.3,1.5-0.4,2.4-0.4
	c1.4,0,2.6,0.4,3.5,1.1s1.3,1.7,1.3,3v4.8c0,0.2,0,0.3,0,0.5s0,0.3,0,0.5l1,0.1v1.9H463.7z M461,319.6c0.5,0,0.9-0.1,1.3-0.3
	c0.4-0.2,0.7-0.5,0.9-0.8v-1.8h-1.6c-0.7,0-1.2,0.2-1.5,0.5s-0.5,0.7-0.5,1.1s0.1,0.7,0.4,0.9C460.2,319.5,460.5,319.6,461,319.6z"
	/>
<path class="st1" d="M134.5,345.9c0.6,0,1-0.2,1.3-0.5s0.5-0.8,0.5-1.3h2.8v0.1c0,1.2-0.4,2.2-1.3,2.9c-0.9,0.8-2,1.2-3.4,1.2
	c-1.7,0-3.1-0.5-4-1.6s-1.4-2.5-1.4-4.2v-0.3c0-1.7,0.5-3.1,1.4-4.2c1-1.1,2.3-1.7,4.1-1.7c0.9,0,1.8,0.1,2.5,0.4s1.4,0.7,1.9,1.2
	v3.1h-2.5l-0.5-1.8c-0.2-0.1-0.4-0.2-0.6-0.3c-0.2-0.1-0.5-0.1-0.8-0.1c-0.9,0-1.5,0.3-1.9,1s-0.5,1.5-0.5,2.5v0.3
	c0,1,0.2,1.9,0.5,2.5C133.1,345.6,133.7,345.9,134.5,345.9z"/>
<path class="st1" d="M140.5,342.2c0-1.7,0.5-3.2,1.5-4.3c1-1.1,2.3-1.7,4-1.7s3.1,0.6,4,1.7c1,1.1,1.5,2.5,1.5,4.3v0.2
	c0,1.7-0.5,3.2-1.5,4.3c-1,1.1-2.3,1.6-4,1.6s-3.1-0.5-4-1.6c-1-1.1-1.5-2.5-1.5-4.3V342.2z M143.6,342.4c0,1.1,0.2,1.9,0.6,2.6
	c0.4,0.6,1,1,1.8,1s1.4-0.3,1.8-1s0.6-1.5,0.6-2.5v-0.2c0-1-0.2-1.9-0.6-2.5c-0.4-0.7-1-1-1.8-1s-1.4,0.3-1.8,1
	c-0.4,0.7-0.6,1.5-0.6,2.5V342.4z"/>
<path class="st1" d="M152.4,346.2l1.5-0.3v-7.2l-1.7-0.3v-1.9h4.6l0.1,1.7c0.4-0.6,0.9-1.1,1.4-1.4c0.6-0.3,1.2-0.5,1.9-0.5
	c1.2,0,2.1,0.4,2.8,1.1s1,1.9,1,3.5v5.1l1.5,0.3v1.9h-6v-1.9l1.3-0.3v-5c0-0.8-0.2-1.3-0.5-1.7c-0.3-0.3-0.8-0.5-1.4-0.5
	c-0.4,0-0.8,0.1-1.1,0.3c-0.3,0.2-0.6,0.4-0.8,0.7v6.2l1.3,0.3v1.9h-5.9L152.4,346.2L152.4,346.2z"/>
<path class="st1" d="M173.8,346.7c-0.4,0.5-0.8,0.9-1.3,1.2c-0.5,0.3-1.1,0.4-1.7,0.4c-1.4,0-2.5-0.5-3.3-1.6
	c-0.8-1-1.2-2.4-1.2-4.1v-0.2c0-1.8,0.4-3.3,1.2-4.4s1.9-1.7,3.4-1.7c0.6,0,1.1,0.1,1.6,0.4s0.9,0.6,1.2,1.1v-4.2l-1.7-0.3v-1.9h1.7
	h3.1V346l1.5,0.3v1.9h-4.2L173.8,346.7z M169.5,342.6c0,1,0.2,1.8,0.5,2.4s0.9,0.9,1.7,0.9c0.5,0,0.9-0.1,1.2-0.3
	c0.3-0.2,0.6-0.5,0.8-0.8v-4.9c-0.2-0.4-0.5-0.7-0.8-0.9c-0.3-0.2-0.7-0.3-1.2-0.3c-0.8,0-1.3,0.3-1.7,1s-0.5,1.6-0.5,2.7V342.6z"/>
<path class="st1" d="M179,342.2c0-1.7,0.5-3.2,1.5-4.3c1-1.1,2.3-1.7,4-1.7s3.1,0.6,4,1.7c1,1.1,1.5,2.5,1.5,4.3v0.2
	c0,1.7-0.5,3.2-1.5,4.3c-1,1.1-2.3,1.6-4,1.6s-3.1-0.5-4-1.6c-1-1.1-1.5-2.5-1.5-4.3V342.2z M182.1,342.4c0,1.1,0.2,1.9,0.6,2.6
	c0.4,0.6,1,1,1.8,1s1.4-0.3,1.8-1s0.6-1.5,0.6-2.5v-0.2c0-1-0.2-1.9-0.6-2.5s-1-1-1.8-1s-1.4,0.3-1.8,1s-0.6,1.5-0.6,2.5V342.4z"/>
<path class="st1" d="M190.7,338.4v-1.9h4.6l0.1,1.5c0.4-0.6,0.8-1,1.4-1.3c0.6-0.3,1.2-0.5,1.9-0.5s1.4,0.2,1.9,0.5s0.9,0.8,1.2,1.5
	c0.4-0.6,0.8-1.1,1.4-1.5c0.6-0.4,1.2-0.5,2-0.5c1.1,0,2,0.4,2.7,1.2c0.7,0.8,1,2,1,3.6v4.8l1.5,0.3v1.9h-6v-1.9l1.4-0.3V341
	c0-0.9-0.1-1.5-0.4-1.8c-0.3-0.3-0.7-0.5-1.3-0.5c-0.4,0-0.8,0.1-1.2,0.3c-0.3,0.2-0.6,0.5-0.8,0.8c0,0.1,0,0.3,0,0.3
	c0,0.1,0,0.2,0,0.3v5.4l1.3,0.3v1.9h-5.7v-1.9l1.3-0.3V341c0-0.9-0.1-1.5-0.4-1.8c-0.3-0.4-0.7-0.5-1.3-0.5c-0.4,0-0.8,0.1-1.1,0.2
	c-0.3,0.2-0.6,0.4-0.8,0.7v6.3l1.4,0.3v1.9h-6v-1.9l1.5-0.3v-7.2L190.7,338.4z"/>
<path class="st1" d="M222.4,348.4c-1.7,0-3-0.5-4-1.6s-1.5-2.4-1.5-4.1v-0.4c0-1.7,0.5-3.1,1.4-4.3s2.2-1.7,3.8-1.7s2.8,0.5,3.7,1.4
	s1.3,2.2,1.3,3.8v1.7h-6.9v0.1c0.1,0.8,0.3,1.4,0.8,1.9s1.1,0.7,1.9,0.7c0.7,0,1.3-0.1,1.7-0.2c0.5-0.1,1-0.4,1.5-0.7l0.8,1.9
	c-0.5,0.4-1.1,0.7-1.9,1S223.4,348.4,222.4,348.4z M222.2,338.7c-0.6,0-1,0.2-1.4,0.7c-0.3,0.4-0.5,1-0.6,1.8v0.1h3.8V341
	c0-0.7-0.2-1.2-0.5-1.6C223.3,338.9,222.8,338.7,222.2,338.7z"/>
<path class="st1" d="M233.3,338.4l-1.1,0.2l1.5,5.2l0.2,1.1h0.1l0.2-1.1l1.5-5.2l-1.1-0.2v-1.9h5.3v1.9l-1,0.2l-3.4,9.6h-3l-3.4-9.6
	l-1-0.2v-1.9h5.3v1.9H233.3z"/>
<path class="st1" d="M246.1,348.4c-1.7,0-3-0.5-4-1.6s-1.5-2.4-1.5-4.1v-0.4c0-1.7,0.5-3.1,1.4-4.3c0.9-1.1,2.2-1.7,3.8-1.7
	s2.8,0.5,3.7,1.4s1.3,2.2,1.3,3.8v1.7h-6.9v0.1c0.1,0.8,0.3,1.4,0.8,1.9s1.1,0.7,1.9,0.7c0.7,0,1.3-0.1,1.7-0.2
	c0.5-0.1,1-0.4,1.5-0.7l0.8,1.9c-0.5,0.4-1.1,0.7-1.9,1S247,348.4,246.1,348.4z M245.8,338.7c-0.6,0-1,0.2-1.4,0.7
	c-0.3,0.4-0.5,1-0.6,1.8v0.1h3.8V341c0-0.7-0.2-1.2-0.5-1.6C246.9,338.9,246.4,338.7,245.8,338.7z"/>
<path class="st1" d="M252.1,346.2l1.5-0.3v-7.2l-1.7-0.3v-1.9h4.6l0.1,1.7c0.3-0.6,0.6-1.1,1.1-1.4s0.9-0.5,1.5-0.5
	c0.2,0,0.3,0,0.5,0s0.3,0.1,0.5,0.1l-0.3,2.9h-1.3c-0.5,0-0.8,0.1-1.1,0.3s-0.5,0.4-0.7,0.8v5.7l1.5,0.3v1.9h-6.1v-2.1H252.1z"/>
<path class="st1" d="M273.5,338.4l-1.1,0.2l-4.3,11.3c-0.3,0.8-0.8,1.5-1.3,2.1c-0.6,0.6-1.4,0.8-2.5,0.8c-0.3,0-0.5,0-0.7-0.1
	c-0.2,0-0.5-0.1-0.8-0.2l0.4-2.3c0.1,0,0.2,0,0.3,0s0.2,0,0.3,0c0.5,0,0.9-0.1,1.2-0.4c0.3-0.3,0.5-0.6,0.6-1l0.4-0.9l-3.7-9.6
	l-1.1-0.2v-1.9h5.7v1.9l-1.3,0.2l1.6,4.6l0.2,0.8h0.1l1.8-5.5L268,338v-1.9h5.7v2.3H273.5z"/>
<path class="st1" d="M284.5,333.7v2.8h2v2.2h-2v5.9c0,0.5,0.1,0.8,0.3,1c0.2,0.2,0.4,0.3,0.8,0.3c0.2,0,0.4,0,0.6,0s0.3,0,0.5-0.1
	l0.3,2.3c-0.4,0.1-0.7,0.2-1,0.2c-0.3,0.1-0.7,0.1-1.1,0.1c-1.1,0-1.9-0.3-2.5-0.9s-0.9-1.5-0.9-2.8v-5.9h-1.7v-2.2h1.7v-2.8h3
	V333.7z"/>
<path class="st1" d="M288,346.2l1.5-0.3v-7.2l-1.7-0.3v-1.9h4.8v9.4l1.5,0.3v1.9H288V346.2z M292.7,333.7h-3.1v-2.4h3.1V333.7z"/>
<path class="st1" d="M295.1,338.4v-1.9h4.6l0.1,1.5c0.4-0.6,0.8-1,1.4-1.3s1.2-0.5,1.9-0.5c0.7,0,1.4,0.2,1.9,0.5s0.9,0.8,1.2,1.5
	c0.4-0.6,0.8-1.1,1.4-1.5s1.2-0.5,2-0.5c1.1,0,2.1,0.4,2.7,1.2c0.7,0.8,1,2,1,3.6v4.8l1.5,0.3v1.9h-6v-1.9l1.4-0.3V341
	c0-0.9-0.1-1.5-0.4-1.8s-0.7-0.5-1.3-0.5c-0.4,0-0.8,0.1-1.2,0.3c-0.3,0.2-0.6,0.5-0.8,0.8c0,0.1,0,0.3,0,0.3c0,0.1,0,0.2,0,0.3v5.4
	l1.3,0.3v1.9h-5.7v-1.9l1.3-0.3V341c0-0.9-0.1-1.5-0.4-1.8c-0.3-0.4-0.7-0.5-1.3-0.5c-0.4,0-0.8,0.1-1.1,0.2
	c-0.3,0.2-0.6,0.4-0.8,0.7v6.3l1.4,0.3v1.9h-6v-1.9l1.5-0.3v-7.2L295.1,338.4z"/>
<path class="st1" d="M321.1,348.4c-1.7,0-3-0.5-4-1.6s-1.5-2.4-1.5-4.1v-0.4c0-1.7,0.5-3.1,1.4-4.3c0.9-1.1,2.2-1.7,3.8-1.7
	c1.6,0,2.8,0.5,3.7,1.4s1.3,2.2,1.3,3.8v1.7h-6.9v0.1c0.1,0.8,0.3,1.4,0.8,1.9s1.1,0.7,1.9,0.7c0.7,0,1.3-0.1,1.7-0.2
	c0.5-0.1,1-0.4,1.5-0.7l0.8,1.9c-0.5,0.4-1.1,0.7-1.9,1S322.1,348.4,321.1,348.4z M320.9,338.7c-0.6,0-1,0.2-1.4,0.7s-0.5,1-0.6,1.8
	v0.1h3.8V341c0-0.7-0.2-1.2-0.5-1.6C322,338.9,321.5,338.7,320.9,338.7z"/>
<path class="st1" d="M344.7,338.4l-1.1,0.2l-4.3,11.3c-0.3,0.8-0.8,1.5-1.3,2.1c-0.6,0.6-1.4,0.8-2.5,0.8c-0.3,0-0.5,0-0.7-0.1
	c-0.2,0-0.5-0.1-0.8-0.2l0.4-2.3c0.1,0,0.2,0,0.3,0s0.2,0,0.3,0c0.5,0,0.9-0.1,1.2-0.4c0.3-0.3,0.5-0.6,0.6-1l0.4-0.9l-3.7-9.6
	l-1.1-0.2v-1.9h5.7v1.9l-1.3,0.2l1.6,4.6l0.2,0.8h0.1l1.8-5.5l-1.3-0.2v-1.9h5.7v2.3H344.7z"/>
<path class="st1" d="M345.3,342.2c0-1.7,0.5-3.2,1.5-4.3c1-1.1,2.3-1.7,4-1.7s3.1,0.6,4,1.7c1,1.1,1.5,2.5,1.5,4.3v0.2
	c0,1.7-0.5,3.2-1.5,4.3c-1,1.1-2.3,1.6-4,1.6s-3.1-0.5-4-1.6c-1-1.1-1.5-2.5-1.5-4.3V342.2z M348.5,342.4c0,1.1,0.2,1.9,0.6,2.6
	c0.4,0.6,1,1,1.8,1s1.4-0.3,1.8-1c0.4-0.6,0.6-1.5,0.6-2.5v-0.2c0-1-0.2-1.9-0.6-2.5c-0.4-0.7-1-1-1.8-1s-1.4,0.3-1.8,1
	s-0.6,1.5-0.6,2.5V342.4z"/>
<path class="st1" d="M365.5,346.7c-0.4,0.5-0.8,1-1.4,1.3s-1.2,0.4-1.9,0.4c-1.2,0-2.2-0.4-2.9-1.2c-0.7-0.8-1-2-1-3.7v-4.8
	l-1.3-0.3v-1.9h1.3h3.1v7c0,0.8,0.1,1.5,0.4,1.8c0.3,0.4,0.7,0.6,1.3,0.6c0.5,0,0.9-0.1,1.3-0.2c0.4-0.2,0.7-0.4,0.9-0.7v-6.3
	l-1.4-0.3v-1.9h1.4h3.1v9.4l1.4,0.3v1.9h-4.2L365.5,346.7z"/>
<path class="st1" d="M376.3,346.2l1.5-0.3v-12.3l-1.7-0.3v-1.9h4.8v6.6c0.4-0.5,0.8-1,1.3-1.3s1.1-0.4,1.8-0.4
	c1.2,0,2.2,0.4,2.9,1.2c0.7,0.8,1,2,1,3.7v4.7l1.5,0.3v1.9h-6v-1.9l1.4-0.3v-4.7c0-0.9-0.2-1.5-0.5-1.9s-0.8-0.6-1.4-0.6
	c-0.4,0-0.8,0.1-1.1,0.2s-0.6,0.4-0.8,0.7v6.3l1.4,0.3v1.9h-6L376.3,346.2L376.3,346.2z"/>
<path class="st1" d="M397.9,348.1c-0.1-0.2-0.2-0.4-0.2-0.6c-0.1-0.2-0.1-0.4-0.2-0.6c-0.4,0.4-0.8,0.8-1.4,1
	c-0.5,0.3-1.1,0.4-1.8,0.4c-1.1,0-2-0.3-2.7-0.9s-1-1.5-1-2.5c0-1.1,0.4-1.9,1.3-2.5s2.2-0.9,3.8-0.9h1.6v-1.1c0-0.6-0.2-1-0.5-1.3
	s-0.8-0.5-1.4-0.5c-0.4,0-0.7,0-1,0.1s-0.5,0.2-0.7,0.3l-0.2,1.2h-2.4v-2.6c0.6-0.4,1.2-0.7,2-1s1.5-0.4,2.4-0.4
	c1.4,0,2.6,0.4,3.5,1.1s1.3,1.7,1.3,3v4.8c0,0.2,0,0.3,0,0.5s0,0.3,0,0.5l1,0.1v1.9H397.9z M395.2,346c0.5,0,0.9-0.1,1.3-0.3
	c0.4-0.2,0.7-0.5,0.9-0.8v-1.8h-1.6c-0.7,0-1.2,0.2-1.5,0.5s-0.5,0.7-0.5,1.1s0.1,0.7,0.4,0.9C394.4,345.9,394.7,346,395.2,346z"/>
<path class="st1" d="M407.1,338.4l-1.1,0.2l1.5,5.2l0.2,1.1h0.1l0.2-1.1l1.5-5.2l-1.1-0.2v-1.9h5.3v1.9l-1,0.2l-3.4,9.6h-3l-3.4-9.6
	l-1-0.2v-1.9h5.3v1.9H407.1z"/>
<path class="st1" d="M419.9,348.4c-1.7,0-3-0.5-4-1.6s-1.5-2.4-1.5-4.1v-0.4c0-1.7,0.5-3.1,1.4-4.3s2.2-1.7,3.8-1.7
	c1.6,0,2.8,0.5,3.7,1.4c0.9,0.9,1.3,2.2,1.3,3.8v1.7h-6.9v0.1c0.1,0.8,0.3,1.4,0.8,1.9s1.1,0.7,1.9,0.7c0.7,0,1.3-0.1,1.7-0.2
	c0.5-0.1,1-0.4,1.5-0.7l0.8,1.9c-0.5,0.4-1.1,0.7-1.9,1S420.8,348.4,419.9,348.4z M419.6,338.7c-0.6,0-1,0.2-1.4,0.7
	c-0.3,0.4-0.5,1-0.6,1.8v0.1h3.8V341c0-0.7-0.2-1.2-0.5-1.6C420.7,338.9,420.2,338.7,419.6,338.7z"/>
<path class="st1" d="M440.9,340.5h-2.1l-0.3-1.5c-0.2-0.2-0.5-0.3-0.8-0.4s-0.7-0.2-1.1-0.2c-0.6,0-1,0.1-1.3,0.4
	c-0.3,0.2-0.5,0.6-0.5,0.9c0,0.4,0.2,0.6,0.5,0.9c0.3,0.2,0.9,0.4,1.8,0.6c1.4,0.3,2.5,0.7,3.2,1.3c0.7,0.6,1,1.3,1,2.3
	s-0.4,1.9-1.3,2.6s-2.1,1-3.6,1c-0.9,0-1.7-0.1-2.5-0.4c-0.7-0.3-1.4-0.6-2-1.1v-2.6h2.2l0.4,1.5c0.2,0.2,0.4,0.3,0.8,0.3
	c0.3,0.1,0.7,0.1,1,0.1c0.6,0,1.1-0.1,1.5-0.3s0.5-0.5,0.5-0.9c0-0.3-0.2-0.6-0.5-0.9s-1-0.5-1.9-0.7c-1.4-0.3-2.4-0.7-3.1-1.2
	s-1-1.3-1-2.2c0-1,0.4-1.8,1.2-2.5c0.8-0.7,1.9-1.1,3.4-1.1c0.9,0,1.8,0.1,2.6,0.4s1.4,0.6,1.9,0.9L440.9,340.5z"/>
<path class="st1" d="M448.2,348.4c-1.7,0-3-0.5-4-1.6s-1.5-2.4-1.5-4.1v-0.4c0-1.7,0.5-3.1,1.4-4.3s2.2-1.7,3.8-1.7
	c1.6,0,2.8,0.5,3.7,1.4s1.3,2.2,1.3,3.8v1.7H446v0.1c0.1,0.8,0.3,1.4,0.8,1.9s1.1,0.7,1.9,0.7c0.7,0,1.3-0.1,1.7-0.2
	c0.5-0.1,1-0.4,1.5-0.7l0.8,1.9c-0.5,0.4-1.1,0.7-1.9,1C449.9,348.2,449.1,348.4,448.2,348.4z M447.9,338.7c-0.6,0-1,0.2-1.4,0.7
	s-0.5,1-0.6,1.8v0.1h3.8V341c0-0.7-0.2-1.2-0.5-1.6C449,338.9,448.5,338.7,447.9,338.7z"/>
<path class="st1" d="M453.9,346.2l1.1-0.2l3.2-3.8l-3.1-3.7l-1.1-0.2v-1.9h5.2v1.8l-1.1,0.1l1.8,2.2l1.7-2.2l-1.1-0.1v-1.8h5.3v1.9
	l-1.1,0.2l-3,3.7l3.1,3.8l1.1,0.2v1.9h-5.3v-1.8l1.1-0.1l-1.8-2.3l-1.8,2.4l0.9,0.1v1.8h-5.2L453.9,346.2L453.9,346.2z"/>
<path class="st1" d="M471.1,348.1H468v-2.8h3.1V348.1z"/>
<path class="st1" d="M148.8,399l1.1-0.2l4.8-13.6h3.2l4.7,13.6l1.1,0.2v1.9h-5.3V399l1.1-0.2l-0.7-2.1h-5.1l-0.7,2.1l1.1,0.2v1.9
	h-5.3L148.8,399L148.8,399z M154.5,394.4h3.6l-1.8-5.5h-0.1L154.5,394.4z"/>
<path class="st1" d="M175.7,398.7c0.6,0,1-0.2,1.3-0.5s0.5-0.8,0.5-1.3h2.8v0.1c0,1.2-0.4,2.2-1.3,2.9c-0.9,0.8-2,1.2-3.4,1.2
	c-1.7,0-3.1-0.5-4-1.6s-1.4-2.5-1.4-4.2V395c0-1.7,0.5-3.1,1.4-4.2c1-1.1,2.3-1.7,4.1-1.7c0.9,0,1.8,0.1,2.5,0.4s1.4,0.7,1.9,1.2
	v3.1h-2.5l-0.5-1.8c-0.2-0.1-0.4-0.2-0.6-0.3c-0.2-0.1-0.5-0.1-0.8-0.1c-0.9,0-1.5,0.3-1.9,1s-0.5,1.5-0.5,2.5v0.3
	c0,1,0.2,1.9,0.5,2.5C174.3,398.4,174.8,398.7,175.7,398.7z"/>
<path class="st1" d="M181.7,395c0-1.7,0.5-3.2,1.5-4.3c1-1.1,2.3-1.7,4-1.7s3.1,0.6,4,1.7c1,1.1,1.5,2.5,1.5,4.3v0.2
	c0,1.7-0.5,3.2-1.5,4.3c-1,1.1-2.3,1.6-4,1.6s-3.1-0.5-4-1.6c-1-1.1-1.5-2.5-1.5-4.3V395z M184.8,395.2c0,1.1,0.2,1.9,0.6,2.6
	c0.4,0.6,1,1,1.8,1s1.4-0.3,1.8-1s0.6-1.5,0.6-2.5V395c0-1-0.2-1.9-0.6-2.5c-0.4-0.7-1-1-1.8-1s-1.4,0.3-1.8,1
	c-0.4,0.7-0.6,1.5-0.6,2.5V395.2z"/>
<path class="st1" d="M193.6,399l1.5-0.3v-7.2l-1.7-0.3v-1.9h4.6l0.1,1.7c0.4-0.6,0.9-1.1,1.4-1.4c0.6-0.3,1.2-0.5,1.9-0.5
	c1.2,0,2.1,0.4,2.8,1.1s1,1.9,1,3.5v5.1l1.5,0.3v1.9h-6v-2l1.3-0.3v-5c0-0.8-0.2-1.3-0.5-1.7c-0.3-0.3-0.8-0.5-1.4-0.5
	c-0.4,0-0.8,0.1-1.1,0.3c-0.3,0.2-0.6,0.4-0.8,0.7v6.2l1.3,0.3v1.9h-5.9L193.6,399L193.6,399z"/>
<path class="st1" d="M215,399.5c-0.4,0.5-0.8,0.9-1.3,1.2c-0.5,0.3-1.1,0.4-1.7,0.4c-1.4,0-2.5-0.5-3.3-1.6c-0.8-1-1.2-2.4-1.2-4.1
	v-0.2c0-1.8,0.4-3.3,1.2-4.4s1.9-1.7,3.4-1.7c0.6,0,1.1,0.1,1.6,0.4s0.9,0.6,1.2,1.1v-4.2l-1.7-0.3v-1.9h1.7h3.1v14.6l1.5,0.3v1.9
	h-4.2L215,399.5z M210.6,395.4c0,1,0.2,1.8,0.5,2.4s0.9,0.9,1.7,0.9c0.5,0,0.9-0.1,1.2-0.3c0.3-0.2,0.6-0.5,0.8-0.8v-4.9
	c-0.2-0.4-0.5-0.7-0.8-0.9c-0.3-0.2-0.7-0.3-1.2-0.3c-0.8,0-1.3,0.3-1.7,1s-0.5,1.6-0.5,2.7V395.4z"/>
<path class="st1" d="M220.2,395c0-1.7,0.5-3.2,1.5-4.3c1-1.1,2.3-1.7,4-1.7s3.1,0.6,4,1.7s1.5,2.5,1.5,4.3v0.2
	c0,1.7-0.5,3.2-1.5,4.3c-1,1.1-2.3,1.6-4,1.6s-3.1-0.5-4-1.6c-1-1.1-1.5-2.5-1.5-4.3V395z M223.3,395.2c0,1.1,0.2,1.9,0.6,2.6
	c0.4,0.6,1,1,1.8,1s1.4-0.3,1.8-1s0.6-1.5,0.6-2.5V395c0-1-0.2-1.9-0.6-2.5c-0.4-0.7-1-1-1.8-1s-1.4,0.3-1.8,1
	c-0.4,0.7-0.6,1.5-0.6,2.5V395.2z"/>
<path class="st1" d="M231.9,391.2v-1.9h4.6l0.1,1.5c0.4-0.6,0.8-1,1.4-1.3c0.6-0.3,1.2-0.5,1.9-0.5s1.4,0.2,1.9,0.5s0.9,0.8,1.2,1.5
	c0.4-0.6,0.8-1.1,1.4-1.5c0.6-0.4,1.2-0.5,2-0.5c1.1,0,2,0.4,2.7,1.2c0.7,0.8,1,2,1,3.6v4.8l1.5,0.3v1.9h-6V399l1.4-0.3v-4.8
	c0-0.9-0.1-1.5-0.4-1.8c-0.3-0.3-0.7-0.5-1.3-0.5c-0.4,0-0.8,0.1-1.2,0.3c-0.3,0.2-0.6,0.5-0.8,0.8c0,0.1,0,0.3,0,0.3
	c0,0.1,0,0.2,0,0.3v5.4l1.3,0.3v1.9H239V399l1.3-0.3v-4.8c0-0.9-0.1-1.5-0.4-1.8c-0.3-0.4-0.7-0.5-1.3-0.5c-0.4,0-0.8,0.1-1.1,0.2
	c-0.3,0.2-0.6,0.4-0.8,0.7v6.3l1.4,0.3v1.9h-6v-2l1.5-0.3v-7.2L231.9,391.2z"/>
<path class="st1" d="M258,399l1.5-0.3v-7.2l-1.7-0.3v-1.9h4.8v9.4l1.5,0.3v1.9H258V399z M262.6,386.5h-3.1v-2.4h3.1V386.5z"/>
<path class="st1" d="M274.5,393.3h-2.1l-0.3-1.5c-0.2-0.2-0.5-0.3-0.8-0.4s-0.7-0.2-1.1-0.2c-0.6,0-1,0.1-1.3,0.4
	c-0.3,0.2-0.5,0.6-0.5,0.9c0,0.4,0.2,0.6,0.5,0.9c0.3,0.2,0.9,0.4,1.8,0.6c1.4,0.3,2.5,0.7,3.2,1.3c0.7,0.6,1,1.3,1,2.3
	s-0.5,1.9-1.3,2.6c-0.9,0.7-2.1,1-3.5,1c-0.9,0-1.7-0.1-2.5-0.4c-0.7-0.3-1.4-0.6-2-1.1v-2.6h2.2l0.4,1.5c0.2,0.2,0.4,0.3,0.8,0.3
	c0.3,0.1,0.7,0.1,1,0.1c0.6,0,1.1-0.1,1.5-0.3s0.5-0.5,0.5-0.9c0-0.3-0.2-0.6-0.5-0.9s-1-0.5-1.9-0.7c-1.4-0.3-2.4-0.7-3.1-1.2
	s-1-1.3-1-2.2c0-1,0.4-1.8,1.2-2.5c0.8-0.7,1.9-1.1,3.4-1.1c0.9,0,1.8,0.1,2.6,0.4s1.4,0.6,1.9,0.9L274.5,393.3z"/>
<path class="st1" d="M292.1,389.4c0,0.8-0.2,1.5-0.6,2.1s-1,1.1-1.7,1.4c0.8,0.4,1.5,0.9,2,1.5c0.5,0.7,0.7,1.4,0.7,2.2
	c0,1.4-0.5,2.6-1.5,3.3c-1,0.8-2.3,1.2-3.8,1.2c-1.6,0-2.9-0.4-3.9-1.2c-1-0.8-1.5-1.9-1.5-3.3c0-0.8,0.2-1.6,0.7-2.2s1.1-1.1,2-1.5
	c-0.7-0.3-1.3-0.8-1.7-1.4s-0.6-1.3-0.6-2.1c0-1.4,0.5-2.5,1.4-3.2c0.9-0.8,2.1-1.1,3.6-1.1s2.7,0.4,3.6,1.1
	C291.6,387,292.1,388,292.1,389.4z M289.3,396.4c0-0.7-0.2-1.3-0.6-1.7s-0.9-0.6-1.6-0.6s-1.2,0.2-1.6,0.6s-0.6,1-0.6,1.7
	s0.2,1.3,0.6,1.7c0.4,0.4,0.9,0.6,1.6,0.6s1.2-0.2,1.6-0.6S289.3,397.1,289.3,396.4z M288.9,389.6c0-0.6-0.2-1.1-0.5-1.5
	s-0.8-0.6-1.3-0.6c-0.6,0-1,0.2-1.3,0.6s-0.5,0.9-0.5,1.5c0,0.7,0.2,1.2,0.5,1.6s0.8,0.6,1.4,0.6s1-0.2,1.3-0.6
	C288.8,390.7,288.9,390.2,288.9,389.6z"/>
<path class="st1" d="M302.1,388.9l-0.3-1.1h-4.2l-0.4,3.6c0.3-0.2,0.6-0.4,1.1-0.5c0.4-0.1,0.9-0.2,1.4-0.2c1.5,0,2.7,0.4,3.5,1.4
	c0.8,0.9,1.2,2.2,1.2,3.9c0,1.5-0.5,2.8-1.4,3.7c-0.9,1-2.2,1.5-3.9,1.5c-1.4,0-2.7-0.4-3.7-1.2c-1-0.8-1.5-1.9-1.5-3.2v-0.1l3-0.2
	c0,0.7,0.2,1.2,0.6,1.6s0.9,0.6,1.5,0.6c0.7,0,1.3-0.3,1.6-0.8c0.4-0.5,0.5-1.2,0.5-2c0-0.9-0.2-1.6-0.6-2.2
	c-0.4-0.5-0.9-0.8-1.7-0.8c-0.6,0-1.1,0.1-1.4,0.3c-0.3,0.2-0.5,0.5-0.7,0.9l-2.8-0.2l0.9-8.7h9v3.6h-1.7V388.9z"/>
<path class="st1" d="M305.3,388.3c0-0.9,0.3-1.7,0.9-2.3s1.4-0.9,2.5-0.9s1.9,0.3,2.5,0.9s0.9,1.4,0.9,2.3v0.8
	c0,0.9-0.3,1.7-0.9,2.3c-0.6,0.6-1.4,0.9-2.5,0.9s-1.9-0.3-2.5-0.9s-0.9-1.4-0.9-2.3V388.3z M307.4,389.1c0,0.4,0.1,0.8,0.3,1
	c0.2,0.3,0.6,0.4,1,0.4s0.7-0.1,1-0.4c0.2-0.3,0.3-0.6,0.3-1v-0.8c0-0.4-0.1-0.8-0.3-1.1c-0.2-0.3-0.6-0.4-1-0.4s-0.7,0.1-1,0.4
	c-0.2,0.3-0.3,0.6-0.3,1.1V389.1z M309.6,399.8l-1.5-0.8l7.6-12.2l1.5,0.8L309.6,399.8z M312.8,397.1c0-0.9,0.3-1.7,0.9-2.3
	s1.4-0.9,2.5-0.9s1.9,0.3,2.5,0.9s0.9,1.4,0.9,2.3v0.8c0,0.9-0.3,1.7-0.9,2.3c-0.6,0.6-1.4,0.9-2.5,0.9s-1.9-0.3-2.5-0.9
	s-0.9-1.4-0.9-2.3V397.1z M314.9,397.9c0,0.4,0.1,0.8,0.4,1c0.2,0.3,0.6,0.4,1,0.4c0.5,0,0.8-0.1,1-0.4s0.3-0.6,0.3-1.1V397
	c0-0.4-0.1-0.8-0.3-1c-0.2-0.3-0.6-0.4-1-0.4s-0.8,0.1-1,0.4s-0.3,0.6-0.3,1v0.9H314.9z"/>
<path class="st1" d="M331.8,401.2c-1.7,0-3-0.5-4-1.6s-1.5-2.4-1.5-4.1V395c0-1.7,0.5-3.1,1.4-4.3c0.9-1.1,2.2-1.7,3.8-1.7
	c1.6,0,2.8,0.5,3.7,1.4c0.9,0.9,1.3,2.2,1.3,3.8v1.7h-6.9v0.1c0.1,0.8,0.3,1.4,0.8,1.9s1.1,0.7,1.9,0.7c0.7,0,1.3-0.1,1.7-0.2
	c0.5-0.1,1-0.4,1.5-0.7l0.8,1.9c-0.5,0.4-1.1,0.7-1.9,1S332.7,401.2,331.8,401.2z M331.5,391.5c-0.6,0-1,0.2-1.4,0.7
	c-0.3,0.4-0.5,1-0.6,1.8v0.1h3.8v-0.3c0-0.7-0.2-1.2-0.5-1.6C332.6,391.7,332.1,391.5,331.5,391.5z"/>
<path class="st1" d="M337.8,399l1.5-0.3v-7.2h-1.7v-2.2h1.7V388c0-1.3,0.4-2.3,1.1-3c0.8-0.7,1.8-1.1,3.2-1.1c0.3,0,0.5,0,0.8,0.1
	c0.3,0,0.6,0.1,0.9,0.2l-0.3,2.3c-0.2,0-0.3-0.1-0.5-0.1s-0.3,0-0.6,0c-0.5,0-0.9,0.1-1.2,0.4c-0.3,0.3-0.4,0.7-0.4,1.2v1.3h2.3v2.2
	h-2.3v7.2l1.5,0.3v1.9h-6.2V399H337.8z"/>
<path class="st1" d="M346.1,399l1.5-0.3v-7.2h-1.7v-2.2h1.7V388c0-1.3,0.4-2.3,1.1-3c0.8-0.7,1.8-1.1,3.2-1.1c0.3,0,0.5,0,0.8,0.1
	c0.3,0,0.6,0.1,0.9,0.2l-0.3,2.3c-0.2,0-0.3-0.1-0.5-0.1s-0.3,0-0.6,0c-0.5,0-0.9,0.1-1.2,0.4s-0.4,0.7-0.4,1.2v1.3h2.3v2.2h-2.3
	v7.2l1.5,0.3v1.9h-6.2V399H346.1z"/>
<path class="st1" d="M359.4,401.2c-1.7,0-3-0.5-4-1.6s-1.5-2.4-1.5-4.1V395c0-1.7,0.5-3.1,1.4-4.3c0.9-1.1,2.2-1.7,3.8-1.7
	c1.6,0,2.8,0.5,3.7,1.4s1.3,2.2,1.3,3.8v1.7h-6.9v0.1c0.1,0.8,0.3,1.4,0.8,1.9s1.1,0.7,1.9,0.7c0.7,0,1.3-0.1,1.7-0.2
	c0.5-0.1,1-0.4,1.5-0.7l0.8,1.9c-0.5,0.4-1.1,0.7-1.9,1S360.3,401.2,359.4,401.2z M359.1,391.5c-0.6,0-1,0.2-1.4,0.7s-0.5,1-0.6,1.8
	v0.1h3.8v-0.3c0-0.7-0.2-1.2-0.5-1.6C360.2,391.7,359.7,391.5,359.1,391.5z"/>
<path class="st1" d="M370.9,398.7c0.6,0,1-0.2,1.3-0.5s0.5-0.8,0.5-1.3h2.8v0.1c0,1.2-0.4,2.2-1.3,2.9c-0.9,0.8-2,1.2-3.4,1.2
	c-1.7,0-3.1-0.5-4-1.6s-1.4-2.5-1.4-4.2V395c0-1.7,0.5-3.1,1.4-4.2s2.3-1.7,4.1-1.7c0.9,0,1.8,0.1,2.5,0.4s1.4,0.7,1.9,1.2v3.1h-2.5
	l-0.5-1.8c-0.2-0.1-0.4-0.2-0.6-0.3c-0.2-0.1-0.5-0.1-0.8-0.1c-0.9,0-1.5,0.3-1.9,1s-0.5,1.5-0.5,2.5v0.3c0,1,0.2,1.9,0.5,2.5
	C369.4,398.4,370,398.7,370.9,398.7z"/>
<path class="st1" d="M381.6,386.5v2.8h2v2.2h-2v5.9c0,0.5,0.1,0.8,0.3,1c0.2,0.2,0.4,0.3,0.8,0.3c0.2,0,0.4,0,0.6,0s0.3,0,0.5-0.1
	l0.3,2.3c-0.4,0.1-0.7,0.2-1,0.2c-0.3,0.1-0.7,0.1-1.1,0.1c-1.1,0-1.9-0.3-2.5-0.9s-0.9-1.5-0.9-2.8v-5.9h-1.7v-2.2h1.7v-2.8h3
	V386.5z"/>
<path class="st1" d="M385.1,399l1.5-0.3v-7.2l-1.7-0.3v-1.9h4.8v9.4l1.5,0.3v1.9H385V399H385.1z M389.8,386.5h-3.1v-2.4h3.1V386.5z"
	/>
<path class="st1" d="M396.8,391.2l-1.1,0.2l1.5,5.2l0.2,1.1h0.1l0.2-1.1l1.5-5.2l-1.1-0.2v-1.9h5.3v1.9l-1,0.2L399,401h-3l-3.4-9.6
	l-1-0.2v-1.9h5.3v1.9H396.8z"/>
<path class="st1" d="M409.6,401.2c-1.7,0-3-0.5-4-1.6s-1.5-2.4-1.5-4.1V395c0-1.7,0.5-3.1,1.4-4.3s2.2-1.7,3.8-1.7
	c1.6,0,2.8,0.5,3.7,1.4s1.3,2.2,1.3,3.8v1.7h-6.9v0.1c0.1,0.8,0.3,1.4,0.8,1.9s1.1,0.7,1.9,0.7c0.7,0,1.3-0.1,1.7-0.2
	c0.5-0.1,1-0.4,1.5-0.7l0.8,1.9c-0.5,0.4-1.1,0.7-1.9,1C411.4,401,410.5,401.2,409.6,401.2z M409.3,391.5c-0.6,0-1,0.2-1.4,0.7
	s-0.5,1-0.6,1.8v0.1h3.8v-0.3c0-0.7-0.2-1.2-0.5-1.6C410.4,391.7,409.9,391.5,409.3,391.5z"/>
<path class="st1" d="M421,399l1.5-0.3v-7.2l-1.7-0.3v-1.9h4.8v9.4l1.5,0.3v1.9H421V399z M425.7,386.5h-3.1v-2.4h3.1V386.5z"/>
<path class="st1" d="M428.2,399l1.5-0.3v-7.2l-1.7-0.3v-1.9h4.6l0.1,1.7c0.4-0.6,0.9-1.1,1.4-1.4c0.6-0.3,1.2-0.5,1.9-0.5
	c1.2,0,2.1,0.4,2.8,1.1c0.7,0.7,1,1.9,1,3.5v5.1l1.5,0.3v1.9h-6v-2l1.3-0.3v-5c0-0.8-0.2-1.3-0.5-1.7c-0.3-0.3-0.8-0.5-1.4-0.5
	c-0.4,0-0.8,0.1-1.1,0.3c-0.3,0.2-0.6,0.4-0.8,0.7v6.2l1.3,0.3v1.9h-5.9L428.2,399L428.2,399z"/>
<path class="st1" d="M128.8,417.6v-1.9h4.6l0.2,1.4c0.3-0.5,0.8-0.9,1.2-1.2c0.5-0.3,1-0.4,1.7-0.4c1.4,0,2.6,0.6,3.4,1.7
	s1.2,2.6,1.2,4.4v0.2c0,1.7-0.4,3.1-1.2,4.1s-1.9,1.6-3.3,1.6c-0.6,0-1.1-0.1-1.6-0.3c-0.5-0.2-0.9-0.6-1.2-1v3.4l1.5,0.3v1.9H129
	v-1.9l1.5-0.3v-11.7L128.8,417.6z M137.8,421.6c0-1.1-0.2-2-0.5-2.7s-0.9-1-1.7-1c-0.5,0-0.9,0.1-1.2,0.3s-0.6,0.5-0.8,0.8v5.1
	c0.2,0.3,0.5,0.6,0.8,0.8s0.7,0.3,1.2,0.3c0.8,0,1.3-0.3,1.7-0.9s0.5-1.4,0.5-2.4V421.6z"/>
<path class="st1" d="M142.2,425.5l1.5-0.3V418l-1.7-0.3v-1.9h4.6l0.1,1.7c0.3-0.6,0.6-1.1,1.1-1.4s0.9-0.5,1.5-0.5
	c0.2,0,0.3,0,0.5,0s0.3,0.1,0.5,0.1l-0.3,2.9h-1.3c-0.5,0-0.8,0.1-1.1,0.3s-0.5,0.4-0.7,0.8v5.7l1.5,0.3v1.9h-6.1v-2.1H142.2z"/>
<path class="st1" d="M156.4,427.6c-1.7,0-3-0.5-4-1.6s-1.5-2.4-1.5-4.1v-0.4c0-1.7,0.5-3.1,1.4-4.3c0.9-1.1,2.2-1.7,3.8-1.7
	s2.8,0.5,3.7,1.4s1.3,2.2,1.3,3.8v1.7h-6.9v0.1c0.1,0.8,0.3,1.4,0.8,1.9s1.1,0.7,1.9,0.7c0.7,0,1.3-0.1,1.7-0.2
	c0.5-0.1,1-0.4,1.5-0.7l0.8,1.9c-0.5,0.4-1.1,0.7-1.9,1S157.3,427.6,156.4,427.6z M156.1,417.9c-0.6,0-1,0.2-1.4,0.7s-0.5,1-0.6,1.8
	v0.1h3.8v-0.3c0-0.7-0.2-1.2-0.5-1.6C157.2,418.1,156.7,417.9,156.1,417.9z"/>
<path class="st1" d="M167.3,417.6l-1.1,0.2l1.5,5.2l0.2,1.1h0.1l0.2-1.1l1.5-5.2l-1.1-0.2v-1.9h5.3v1.9l-1,0.2l-3.4,9.6h-3l-3.4-9.6
	l-1-0.2v-1.9h5.3v1.9H167.3z"/>
<path class="st1" d="M180.1,427.6c-1.7,0-3-0.5-4-1.6s-1.5-2.4-1.5-4.1v-0.4c0-1.7,0.5-3.1,1.4-4.3c0.9-1.1,2.2-1.7,3.8-1.7
	s2.8,0.5,3.7,1.4s1.3,2.2,1.3,3.8v1.7h-6.9v0.1c0.1,0.8,0.3,1.4,0.8,1.9s1.1,0.7,1.9,0.7c0.7,0,1.3-0.1,1.7-0.2
	c0.5-0.1,1-0.4,1.5-0.7l0.8,1.9c-0.5,0.4-1.1,0.7-1.9,1S181.1,427.6,180.1,427.6z M179.9,417.9c-0.6,0-1,0.2-1.4,0.7
	c-0.3,0.4-0.5,1-0.6,1.8v0.1h3.8v-0.3c0-0.7-0.2-1.2-0.5-1.6C181,418.1,180.5,417.9,179.9,417.9z"/>
<path class="st1" d="M185.9,425.5l1.5-0.3V418l-1.7-0.3v-1.9h4.6l0.1,1.7c0.4-0.6,0.9-1.1,1.4-1.4c0.6-0.3,1.2-0.5,1.9-0.5
	c1.2,0,2.1,0.4,2.8,1.1s1,1.9,1,3.5v5.1l1.5,0.3v1.9h-6v-1.9l1.3-0.3v-5c0-0.8-0.2-1.3-0.5-1.7c-0.3-0.3-0.8-0.5-1.4-0.5
	c-0.4,0-0.8,0.1-1.1,0.3c-0.3,0.2-0.6,0.4-0.8,0.7v6.2l1.3,0.3v1.9h-5.9L185.9,425.5L185.9,425.5z"/>
<path class="st1" d="M204.1,412.9v2.8h2v2.2h-2v5.9c0,0.5,0.1,0.8,0.3,1s0.4,0.3,0.8,0.3c0.2,0,0.4,0,0.6,0c0.2,0,0.3,0,0.5-0.1
	l0.3,2.3c-0.4,0.1-0.7,0.2-1,0.2c-0.3,0.1-0.7,0.1-1.1,0.1c-1.1,0-1.9-0.3-2.5-0.9s-0.9-1.5-0.9-2.8V418h-1.7v-2.2h1.7V413h3V412.9z
	"/>
<path class="st1" d="M207.6,425.5l1.5-0.3V418l-1.7-0.3v-1.9h4.8v9.4l1.5,0.3v1.9h-6.2L207.6,425.5L207.6,425.5z M212.3,412.9h-3.1
	v-2.4h3.1V412.9z"/>
<path class="st1" d="M214.8,425.5l1.5-0.3V418l-1.7-0.3v-1.9h4.6l0.1,1.7c0.4-0.6,0.9-1.1,1.4-1.4c0.6-0.3,1.2-0.5,1.9-0.5
	c1.2,0,2.1,0.4,2.8,1.1s1,1.9,1,3.5v5.1l1.5,0.3v1.9h-6v-1.9l1.3-0.3v-5c0-0.8-0.2-1.3-0.5-1.7c-0.3-0.3-0.8-0.5-1.4-0.5
	c-0.4,0-0.8,0.1-1.1,0.3c-0.3,0.2-0.6,0.4-0.8,0.7v6.2l1.3,0.3v1.9h-5.9L214.8,425.5L214.8,425.5z"/>
<path class="st1" d="M228.9,421.6c0-1.8,0.4-3.3,1.2-4.4s1.9-1.7,3.4-1.7c0.7,0,1.2,0.1,1.7,0.4s0.9,0.7,1.3,1.2l0.2-1.5h2.7V427
	c0,1.5-0.5,2.8-1.4,3.7c-1,0.9-2.3,1.4-4,1.4c-0.6,0-1.2-0.1-1.9-0.2c-0.7-0.2-1.3-0.4-1.8-0.7l0.6-2.2c0.5,0.2,1,0.4,1.5,0.5
	s1,0.2,1.6,0.2c0.8,0,1.3-0.2,1.7-0.7s0.6-1.1,0.6-1.9v-0.8c-0.3,0.4-0.7,0.8-1.2,1s-1,0.3-1.6,0.3c-1.4,0-2.5-0.5-3.3-1.6
	c-0.8-1-1.2-2.4-1.2-4.1v-0.3H228.9z M232,421.8c0,1,0.2,1.8,0.5,2.4s0.9,0.9,1.7,0.9c0.5,0,0.9-0.1,1.2-0.3
	c0.3-0.2,0.6-0.4,0.8-0.8v-5c-0.2-0.4-0.5-0.6-0.8-0.8s-0.7-0.3-1.2-0.3c-0.8,0-1.3,0.3-1.7,1s-0.5,1.6-0.5,2.7V421.8z"/>
<path class="st1" d="M246.4,417.6v-1.9h4.6l0.2,1.4c0.3-0.5,0.8-0.9,1.2-1.2c0.5-0.3,1-0.4,1.7-0.4c1.4,0,2.6,0.6,3.4,1.7
	s1.2,2.6,1.2,4.4v0.2c0,1.7-0.4,3.1-1.2,4.1s-1.9,1.6-3.3,1.6c-0.6,0-1.1-0.1-1.6-0.3c-0.5-0.2-0.9-0.6-1.2-1v3.4l1.5,0.3v1.9h-6.2
	v-1.9l1.5-0.3v-11.7L246.4,417.6z M255.4,421.6c0-1.1-0.2-2-0.5-2.7s-0.9-1-1.7-1c-0.5,0-0.9,0.1-1.2,0.3s-0.6,0.5-0.8,0.8v5.1
	c0.2,0.3,0.5,0.6,0.8,0.8s0.7,0.3,1.2,0.3c0.8,0,1.3-0.3,1.7-0.9s0.5-1.4,0.5-2.4V421.6z"/>
<path class="st1" d="M259.8,425.5l1.5-0.3V418l-1.7-0.3v-1.9h4.6l0.1,1.7c0.3-0.6,0.6-1.1,1.1-1.4s0.9-0.5,1.5-0.5
	c0.2,0,0.3,0,0.5,0s0.3,0.1,0.5,0.1l-0.3,2.9h-1.3c-0.5,0-0.8,0.1-1.1,0.3s-0.5,0.4-0.7,0.8v5.7l1.5,0.3v1.9h-6.1v-2.1H259.8z"/>
<path class="st1" d="M274.1,427.6c-1.7,0-3-0.5-4-1.6s-1.5-2.4-1.5-4.1v-0.4c0-1.7,0.5-3.1,1.4-4.3c0.9-1.1,2.2-1.7,3.8-1.7
	c1.6,0,2.8,0.5,3.7,1.4c0.9,0.9,1.3,2.2,1.3,3.8v1.7h-6.9v0.1c0.1,0.8,0.3,1.4,0.8,1.9s1.1,0.7,1.9,0.7c0.7,0,1.3-0.1,1.7-0.2
	c0.5-0.1,1-0.4,1.5-0.7l0.8,1.9c-0.5,0.4-1.1,0.7-1.9,1S275,427.6,274.1,427.6z M273.8,417.9c-0.6,0-1,0.2-1.4,0.7
	c-0.3,0.4-0.5,1-0.6,1.8v0.1h3.8v-0.3c0-0.7-0.2-1.2-0.5-1.6C274.9,418.1,274.4,417.9,273.8,417.9z"/>
<path class="st1" d="M280.3,421.6c0-1.8,0.4-3.3,1.2-4.4c0.8-1.1,1.9-1.7,3.4-1.7c0.7,0,1.2,0.1,1.7,0.4s0.9,0.7,1.3,1.2l0.2-1.5
	h2.7V427c0,1.5-0.5,2.8-1.4,3.7c-1,0.9-2.3,1.4-4,1.4c-0.6,0-1.2-0.1-1.9-0.2c-0.7-0.2-1.3-0.4-1.8-0.7l0.6-2.2
	c0.5,0.2,1,0.4,1.5,0.5s1,0.2,1.6,0.2c0.8,0,1.3-0.2,1.7-0.7c0.4-0.5,0.6-1.1,0.6-1.9v-0.8c-0.3,0.4-0.7,0.8-1.2,1s-1,0.3-1.6,0.3
	c-1.4,0-2.5-0.5-3.3-1.6c-0.8-1-1.2-2.4-1.2-4.1v-0.3H280.3z M283.4,421.8c0,1,0.2,1.8,0.5,2.4s0.9,0.9,1.7,0.9
	c0.5,0,0.9-0.1,1.2-0.3c0.3-0.2,0.6-0.4,0.8-0.8v-5c-0.2-0.4-0.5-0.6-0.8-0.8s-0.7-0.3-1.2-0.3c-0.8,0-1.3,0.3-1.7,1
	s-0.5,1.6-0.5,2.7V421.8z"/>
<path class="st1" d="M292.5,425.5l1.5-0.3V418l-1.7-0.3v-1.9h4.6l0.1,1.7c0.4-0.6,0.9-1.1,1.4-1.4c0.6-0.3,1.2-0.5,1.9-0.5
	c1.2,0,2.1,0.4,2.8,1.1c0.7,0.7,1,1.9,1,3.5v5.1l1.5,0.3v1.9h-6v-1.9l1.3-0.3v-5c0-0.8-0.2-1.3-0.5-1.7c-0.3-0.3-0.8-0.5-1.4-0.5
	c-0.4,0-0.8,0.1-1.1,0.3c-0.3,0.2-0.6,0.4-0.8,0.7v6.2l1.3,0.3v1.9h-5.9L292.5,425.5L292.5,425.5z"/>
<path class="st1" d="M314.1,427.3c-0.1-0.2-0.2-0.4-0.2-0.6c-0.1-0.2-0.1-0.4-0.2-0.6c-0.4,0.4-0.8,0.8-1.4,1s-1.1,0.4-1.8,0.4
	c-1.1,0-2-0.3-2.7-0.9s-1-1.5-1-2.5c0-1.1,0.4-1.9,1.3-2.5s2.2-0.9,3.8-0.9h1.6v-1.1c0-0.6-0.2-1-0.5-1.3s-0.8-0.5-1.4-0.5
	c-0.4,0-0.7,0-1,0.1s-0.5,0.2-0.7,0.3l-0.2,1.2h-2.4v-2.6c0.6-0.4,1.2-0.7,2-1s1.5-0.4,2.4-0.4c1.4,0,2.6,0.4,3.5,1.1s1.3,1.7,1.3,3
	v4.8c0,0.2,0,0.3,0,0.5s0,0.3,0,0.5l1,0.1v1.9H314.1z M311.4,425.2c0.5,0,0.9-0.1,1.3-0.3c0.4-0.2,0.7-0.5,0.9-0.8v-1.8H312
	c-0.7,0-1.2,0.2-1.5,0.5s-0.5,0.7-0.5,1.1s0.1,0.7,0.4,0.9S310.9,425.2,311.4,425.2z"/>
<path class="st1" d="M318.8,425.5l1.5-0.3V418l-1.7-0.3v-1.9h4.6l0.1,1.7c0.4-0.6,0.9-1.1,1.4-1.4s1.2-0.5,1.9-0.5
	c1.2,0,2.1,0.4,2.8,1.1c0.7,0.7,1,1.9,1,3.5v5.1l1.5,0.3v1.9h-6v-1.9l1.3-0.3v-5c0-0.8-0.2-1.3-0.5-1.7c-0.3-0.3-0.8-0.5-1.4-0.5
	c-0.4,0-0.8,0.1-1.1,0.3c-0.3,0.2-0.6,0.4-0.8,0.7v6.2l1.3,0.3v1.9h-5.9L318.8,425.5L318.8,425.5z"/>
<path class="st1" d="M338,425.1c0.6,0,1-0.2,1.3-0.5s0.5-0.8,0.5-1.3h2.8v0.1c0,1.2-0.4,2.2-1.3,2.9c-0.9,0.8-2,1.2-3.4,1.2
	c-1.7,0-3.1-0.5-4-1.6s-1.4-2.5-1.4-4.2v-0.3c0-1.7,0.5-3.1,1.4-4.2c1-1.1,2.3-1.7,4.1-1.7c0.9,0,1.8,0.1,2.5,0.4s1.4,0.7,1.9,1.2
	v3.1H340l-0.5-1.8c-0.2-0.1-0.4-0.2-0.6-0.3c-0.2-0.1-0.5-0.1-0.8-0.1c-0.9,0-1.5,0.3-1.9,1s-0.5,1.5-0.5,2.5v0.3
	c0,1,0.2,1.9,0.5,2.5C336.6,424.8,337.2,425.1,338,425.1z"/>
<path class="st1" d="M356.2,417.6l-1.1,0.2l-4.3,11.3c-0.3,0.8-0.8,1.5-1.3,2.1s-1.4,0.8-2.5,0.8c-0.3,0-0.5,0-0.7-0.1
	s-0.5-0.1-0.8-0.2l0.4-2.3c0.1,0,0.2,0,0.3,0s0.2,0,0.3,0c0.5,0,0.9-0.1,1.2-0.4c0.3-0.3,0.5-0.6,0.6-1l0.4-0.9l-3.7-9.6l-1.1-0.2
	v-1.9h5.7v1.9l-1.3,0.2l1.6,4.6l0.2,0.8h0.1l1.8-5.5l-1.3-0.2v-1.9h5.7v2.3H356.2z"/>
<path class="st1" d="M359,426.9c0,0.7-0.2,1.5-0.6,2.3s-0.9,1.5-1.5,2l-1.5-0.8c0.3-0.5,0.5-1,0.6-1.6c0.2-0.5,0.2-1.1,0.2-1.8v-2.3
	h2.8V426.9z"/>
<path class="st1" d="M373.6,427.3c-0.1-0.2-0.2-0.4-0.2-0.6c-0.1-0.2-0.1-0.4-0.2-0.6c-0.4,0.4-0.8,0.8-1.4,1s-1.1,0.4-1.8,0.4
	c-1.1,0-2-0.3-2.7-0.9s-1-1.5-1-2.5c0-1.1,0.4-1.9,1.3-2.5s2.2-0.9,3.8-0.9h1.6v-1.1c0-0.6-0.2-1-0.5-1.3s-0.8-0.5-1.4-0.5
	c-0.4,0-0.7,0-1,0.1s-0.5,0.2-0.7,0.3l-0.2,1.2H367v-2.6c0.6-0.4,1.2-0.7,2-1s1.5-0.4,2.4-0.4c1.4,0,2.6,0.4,3.5,1.1s1.3,1.7,1.3,3
	v4.8c0,0.2,0,0.3,0,0.5s0,0.3,0,0.5l1,0.1v1.9H373.6z M370.9,425.2c0.5,0,0.9-0.1,1.3-0.3c0.4-0.2,0.7-0.5,0.9-0.8v-1.8h-1.6
	c-0.7,0-1.2,0.2-1.5,0.5s-0.5,0.7-0.5,1.1s0.1,0.7,0.4,0.9S370.4,425.2,370.9,425.2z"/>
<path class="st1" d="M378.3,425.5l1.5-0.3V418l-1.7-0.3v-1.9h4.6l0.1,1.7c0.4-0.6,0.9-1.1,1.4-1.4c0.6-0.3,1.2-0.5,1.9-0.5
	c1.2,0,2.1,0.4,2.8,1.1s1,1.9,1,3.5v5.1l1.5,0.3v1.9h-6v-1.9l1.3-0.3v-5c0-0.8-0.2-1.3-0.5-1.7c-0.3-0.3-0.8-0.5-1.4-0.5
	c-0.4,0-0.8,0.1-1.1,0.3c-0.3,0.2-0.6,0.4-0.8,0.7v6.2l1.3,0.3v1.9h-5.9L378.3,425.5L378.3,425.5z"/>
<path class="st1" d="M399.8,425.9c-0.4,0.5-0.8,0.9-1.3,1.2s-1.1,0.4-1.7,0.4c-1.4,0-2.5-0.5-3.3-1.6c-0.8-1-1.2-2.4-1.2-4.1v-0.2
	c0-1.8,0.4-3.3,1.2-4.4s1.9-1.7,3.4-1.7c0.6,0,1.1,0.1,1.6,0.4s0.9,0.6,1.2,1.1v-4.2l-1.7-0.3v-1.9h1.7h3.1v14.6l1.5,0.3v1.9H400
	L399.8,425.9z M395.4,421.8c0,1,0.2,1.8,0.5,2.4s0.9,0.9,1.7,0.9c0.5,0,0.9-0.1,1.2-0.3c0.3-0.2,0.6-0.5,0.8-0.8v-4.9
	c-0.2-0.4-0.5-0.7-0.8-0.9c-0.3-0.2-0.7-0.3-1.2-0.3c-0.8,0-1.3,0.3-1.7,1c-0.4,0.7-0.5,1.6-0.5,2.7V421.8z"/>
<path class="st1" d="M410.4,425.5l1.5-0.3v-12.3l-1.7-0.3v-1.9h4.8v6.6c0.4-0.5,0.8-1,1.3-1.3s1.1-0.4,1.8-0.4
	c1.2,0,2.2,0.4,2.9,1.2c0.7,0.8,1,2,1,3.7v4.7l1.5,0.3v1.9h-6v-1.9l1.4-0.3v-4.7c0-0.9-0.2-1.5-0.5-1.9s-0.8-0.6-1.4-0.6
	c-0.4,0-0.8,0.1-1.1,0.2c-0.3,0.2-0.6,0.4-0.8,0.7v6.3l1.4,0.3v1.9h-6L410.4,425.5L410.4,425.5z"/>
<path class="st1" d="M429.8,427.6c-1.7,0-3-0.5-4-1.6s-1.5-2.4-1.5-4.1v-0.4c0-1.7,0.5-3.1,1.4-4.3s2.2-1.7,3.8-1.7
	c1.6,0,2.8,0.5,3.7,1.4c0.9,0.9,1.3,2.2,1.3,3.8v1.7h-6.9v0.1c0.1,0.8,0.3,1.4,0.8,1.9s1.1,0.7,1.9,0.7c0.7,0,1.3-0.1,1.7-0.2
	c0.5-0.1,1-0.4,1.5-0.7l0.8,1.9c-0.5,0.4-1.1,0.7-1.9,1S430.7,427.6,429.8,427.6z M429.5,417.9c-0.6,0-1,0.2-1.4,0.7
	c-0.3,0.4-0.5,1-0.6,1.8v0.1h3.8v-0.3c0-0.7-0.2-1.2-0.5-1.6C430.6,418.1,430.2,417.9,429.5,417.9z"/>
<path class="st1" d="M435.5,412.5v-1.9h4.8v14.6l1.5,0.3v1.9h-6.2v-1.9l1.5-0.3v-12.3L435.5,412.5z"/>
<path class="st1" d="M442.1,417.6v-1.9h4.6l0.2,1.4c0.3-0.5,0.8-0.9,1.2-1.2s1-0.4,1.7-0.4c1.4,0,2.6,0.6,3.4,1.7s1.2,2.6,1.2,4.4
	v0.2c0,1.7-0.4,3.1-1.2,4.1s-1.9,1.6-3.3,1.6c-0.6,0-1.1-0.1-1.6-0.3c-0.5-0.2-0.9-0.6-1.2-1v3.4l1.5,0.3v1.9h-6.2v-1.9l1.5-0.3
	v-11.7L442.1,417.6z M451.1,421.6c0-1.1-0.2-2-0.5-2.7s-0.9-1-1.7-1c-0.5,0-0.9,0.1-1.2,0.3s-0.6,0.5-0.8,0.8v5.1
	c0.2,0.3,0.5,0.6,0.8,0.8s0.7,0.3,1.2,0.3c0.8,0,1.3-0.3,1.7-0.9s0.5-1.4,0.5-2.4V421.6z"/>
<path class="st1" d="M464.9,419.7h-2.1l-0.3-1.5c-0.2-0.2-0.5-0.3-0.8-0.4s-0.7-0.2-1.1-0.2c-0.6,0-1,0.1-1.3,0.4
	c-0.3,0.2-0.5,0.6-0.5,0.9c0,0.4,0.2,0.6,0.5,0.9c0.3,0.2,0.9,0.4,1.8,0.6c1.4,0.3,2.5,0.7,3.2,1.3c0.7,0.6,1,1.3,1,2.3
	s-0.4,1.9-1.3,2.6s-2.1,1-3.6,1c-0.9,0-1.7-0.1-2.5-0.4c-0.7-0.3-1.4-0.6-2-1.1v-2.6h2.2l0.4,1.5c0.2,0.2,0.4,0.3,0.8,0.3
	c0.3,0.1,0.7,0.1,1,0.1c0.6,0,1.1-0.1,1.5-0.3s0.5-0.5,0.5-0.9c0-0.3-0.2-0.6-0.5-0.9s-1-0.5-1.9-0.7c-1.4-0.3-2.4-0.7-3.1-1.2
	s-1-1.3-1-2.2c0-1,0.4-1.8,1.2-2.5c0.8-0.7,1.9-1.1,3.4-1.1c0.9,0,1.8,0.1,2.6,0.4s1.4,0.6,1.9,0.9L464.9,419.7z"/>
<path class="st1" d="M133.7,439.3v2.8h2v2.2h-2v5.9c0,0.5,0.1,0.8,0.3,1s0.4,0.3,0.8,0.3c0.2,0,0.4,0,0.6,0c0.2,0,0.3,0,0.5-0.1
	l0.3,2.3c-0.4,0.1-0.7,0.2-1,0.2c-0.3,0.1-0.7,0.1-1.1,0.1c-1.1,0-1.9-0.3-2.5-0.9s-0.9-1.5-0.9-2.8v-5.9H129v-2.2h1.7v-2.8h3V439.3
	z"/>
<path class="st1" d="M136.8,447.8c0-1.7,0.5-3.2,1.5-4.3c1-1.1,2.3-1.7,4-1.7s3.1,0.6,4,1.7c1,1.1,1.5,2.5,1.5,4.3v0.2
	c0,1.7-0.5,3.2-1.5,4.3c-1,1.1-2.3,1.6-4,1.6s-3.1-0.5-4-1.6c-1-1.1-1.5-2.5-1.5-4.3V447.8z M140,448c0,1.1,0.2,1.9,0.6,2.6
	c0.4,0.6,1,1,1.8,1s1.4-0.3,1.8-1s0.6-1.5,0.6-2.5v-0.2c0-1-0.2-1.9-0.6-2.5c-0.4-0.7-1-1-1.8-1s-1.4,0.3-1.8,1
	c-0.4,0.7-0.6,1.5-0.6,2.5V448z"/>
<path class="st1" d="M154.3,444v-1.9h4.6l0.2,1.4c0.3-0.5,0.8-0.9,1.2-1.2c0.5-0.3,1-0.4,1.7-0.4c1.4,0,2.6,0.6,3.4,1.7
	c0.8,1.1,1.2,2.6,1.2,4.4v0.2c0,1.7-0.4,3.1-1.2,4.1s-1.9,1.6-3.3,1.6c-0.6,0-1.1-0.1-1.6-0.3c-0.5-0.2-0.9-0.6-1.2-1v3.4l1.5,0.3
	v1.9h-6.2v-1.9l1.5-0.3v-11.7L154.3,444z M163.3,448c0-1.1-0.2-2-0.5-2.7c-0.4-0.7-0.9-1-1.7-1c-0.5,0-0.9,0.1-1.2,0.3
	s-0.6,0.5-0.8,0.8v5.1c0.2,0.3,0.5,0.6,0.8,0.8s0.7,0.3,1.2,0.3c0.8,0,1.3-0.3,1.7-0.9s0.5-1.4,0.5-2.4V448z"/>
<path class="st1" d="M167.7,451.8l1.5-0.3v-7.2l-1.7-0.3v-1.9h4.6l0.1,1.7c0.3-0.6,0.6-1.1,1.1-1.4c0.4-0.3,0.9-0.5,1.5-0.5
	c0.2,0,0.3,0,0.5,0s0.3,0.1,0.5,0.1l-0.3,2.9h-1.3c-0.5,0-0.8,0.1-1.1,0.3c-0.3,0.2-0.5,0.4-0.7,0.8v5.7l1.5,0.3v1.9h-6.1v-2.1
	H167.7z"/>
<path class="st1" d="M176.5,447.8c0-1.7,0.5-3.2,1.5-4.3c1-1.1,2.3-1.7,4-1.7s3.1,0.6,4,1.7c1,1.1,1.5,2.5,1.5,4.3v0.2
	c0,1.7-0.5,3.2-1.5,4.3c-1,1.1-2.3,1.6-4,1.6s-3.1-0.5-4-1.6c-1-1.1-1.5-2.5-1.5-4.3V447.8z M179.6,448c0,1.1,0.2,1.9,0.6,2.6
	c0.4,0.6,1,1,1.8,1s1.4-0.3,1.8-1s0.6-1.5,0.6-2.5v-0.2c0-1-0.2-1.9-0.6-2.5c-0.4-0.7-1-1-1.8-1s-1.4,0.3-1.8,1
	c-0.4,0.7-0.6,1.5-0.6,2.5V448z"/>
<path class="st1" d="M193.1,439.3v2.8h2v2.2h-2v5.9c0,0.5,0.1,0.8,0.3,1s0.4,0.3,0.8,0.3c0.2,0,0.4,0,0.6,0c0.2,0,0.3,0,0.5-0.1
	l0.3,2.3c-0.4,0.1-0.7,0.2-1,0.2c-0.3,0.1-0.7,0.1-1.1,0.1c-1.1,0-1.9-0.3-2.5-0.9s-0.9-1.5-0.9-2.8v-5.9h-1.7v-2.2h1.7v-2.8h3
	V439.3z"/>
<path class="st1" d="M201.8,454c-1.7,0-3-0.5-4-1.6s-1.5-2.4-1.5-4.1v-0.4c0-1.7,0.5-3.1,1.4-4.3c0.9-1.1,2.2-1.7,3.8-1.7
	s2.8,0.5,3.7,1.4s1.3,2.2,1.3,3.8v1.7h-6.9v0.1c0.1,0.8,0.3,1.4,0.8,1.9s1.1,0.7,1.9,0.7c0.7,0,1.3-0.1,1.7-0.2
	c0.5-0.1,1-0.4,1.5-0.7l0.8,1.9c-0.5,0.4-1.1,0.7-1.9,1S202.8,454,201.8,454z M201.6,444.3c-0.6,0-1,0.2-1.4,0.7
	c-0.3,0.4-0.5,1-0.6,1.8v0.1h3.8v-0.3c0-0.7-0.2-1.2-0.5-1.6C202.7,444.5,202.2,444.3,201.6,444.3z"/>
<path class="st1" d="M213.4,451.5c0.6,0,1-0.2,1.3-0.5s0.5-0.8,0.5-1.3h2.8v0.1c0,1.2-0.4,2.2-1.3,2.9c-0.9,0.8-2,1.2-3.4,1.2
	c-1.7,0-3.1-0.5-4-1.6s-1.4-2.5-1.4-4.2v-0.3c0-1.7,0.5-3.1,1.4-4.2c1-1.1,2.3-1.7,4.1-1.7c0.9,0,1.8,0.1,2.5,0.4s1.4,0.7,1.9,1.2
	v3.1h-2.5l-0.5-1.8c-0.2-0.1-0.4-0.2-0.6-0.3s-0.5-0.1-0.8-0.1c-0.9,0-1.5,0.3-1.9,1s-0.5,1.5-0.5,2.5v0.3c0,1,0.2,1.9,0.5,2.5
	C211.9,451.2,212.5,451.5,213.4,451.5z"/>
<path class="st1" d="M224,439.3v2.8h2v2.2h-2v5.9c0,0.5,0.1,0.8,0.3,1s0.4,0.3,0.8,0.3c0.2,0,0.4,0,0.6,0c0.2,0,0.3,0,0.5-0.1
	l0.3,2.3c-0.4,0.1-0.7,0.2-1,0.2c-0.3,0.1-0.7,0.1-1.1,0.1c-1.1,0-1.9-0.3-2.5-0.9s-0.9-1.5-0.9-2.8v-5.9h-1.7v-2.2h1.7v-2.8h3
	V439.3z"/>
<path class="st1" d="M233.2,451.8l1.5-0.3v-7.2H233v-2.2h1.7v-1.3c0-1.3,0.4-2.3,1.1-3s1.8-1.1,3.2-1.1c0.3,0,0.5,0,0.8,0.1
	c0.3,0,0.6,0.1,0.9,0.2l-0.3,2.3c-0.2,0-0.3-0.1-0.5-0.1s-0.3,0-0.6,0c-0.5,0-0.9,0.1-1.2,0.4s-0.4,0.7-0.4,1.2v1.3h2.3v2.2h-2.3
	v7.2l1.5,0.3v1.9H233v-1.9H233.2z"/>
<path class="st1" d="M241.5,451.8l1.5-0.3v-7.2l-1.7-0.3v-1.9h4.6l0.1,1.7c0.3-0.6,0.6-1.1,1.1-1.4c0.4-0.3,0.9-0.5,1.5-0.5
	c0.2,0,0.3,0,0.5,0s0.3,0.1,0.5,0.1l-0.3,2.9H248c-0.5,0-0.8,0.1-1.1,0.3c-0.3,0.2-0.5,0.4-0.7,0.8v5.7l1.5,0.3v1.9h-6.1v-2.1H241.5
	z"/>
<path class="st1" d="M250.2,447.8c0-1.7,0.5-3.2,1.5-4.3c1-1.1,2.3-1.7,4-1.7s3.1,0.6,4,1.7c1,1.1,1.5,2.5,1.5,4.3v0.2
	c0,1.7-0.5,3.2-1.5,4.3c-1,1.1-2.3,1.6-4,1.6c-1.7,0-3.1-0.5-4-1.6c-1-1.1-1.5-2.5-1.5-4.3L250.2,447.8L250.2,447.8z M253.4,448
	c0,1.1,0.2,1.9,0.6,2.6c0.4,0.6,1,1,1.8,1s1.4-0.3,1.8-1s0.6-1.5,0.6-2.5v-0.2c0-1-0.2-1.9-0.6-2.5c-0.4-0.7-1-1-1.8-1
	s-1.4,0.3-1.8,1c-0.4,0.7-0.6,1.5-0.6,2.5V448z"/>
<path class="st1" d="M261.9,444v-1.9h4.6l0.1,1.5c0.4-0.6,0.8-1,1.4-1.3s1.2-0.5,1.9-0.5c0.7,0,1.4,0.2,1.9,0.5s0.9,0.8,1.2,1.5
	c0.4-0.6,0.8-1.1,1.4-1.5c0.6-0.3,1.2-0.5,2-0.5c1.1,0,2,0.4,2.7,1.2c0.7,0.8,1,2,1,3.6v4.8l1.5,0.3v1.9h-6v-1.9l1.4-0.3v-4.8
	c0-0.9-0.1-1.5-0.4-1.8s-0.7-0.5-1.3-0.5c-0.4,0-0.8,0.1-1.2,0.3c-0.3,0.2-0.6,0.5-0.8,0.8c0,0.1,0,0.3,0,0.3c0,0.1,0,0.2,0,0.3v5.4
	l1.3,0.3v1.9h-5.7v-1.9l1.3-0.3v-4.8c0-0.9-0.1-1.5-0.4-1.8c-0.3-0.4-0.7-0.5-1.3-0.5c-0.4,0-0.8,0.1-1.1,0.2
	c-0.3,0.2-0.6,0.4-0.8,0.7v6.3l1.4,0.3v1.9h-6v-1.9l1.5-0.3v-7.2L261.9,444z"/>
<path class="st1" d="M300,443.1h-2.4l-0.4-2.1c-0.3-0.2-0.7-0.3-1.2-0.5c-0.5-0.1-1.1-0.2-1.7-0.2c-0.9,0-1.5,0.2-2,0.5
	c-0.5,0.4-0.7,0.8-0.7,1.4c0,0.5,0.2,1,0.7,1.3s1.3,0.7,2.5,1.1c1.7,0.5,3,1.1,3.9,1.9s1.3,1.8,1.3,3.1c0,1.3-0.5,2.4-1.6,3.2
	c-1.1,0.8-2.5,1.2-4.2,1.2c-1.2,0-2.4-0.2-3.4-0.6s-1.8-0.9-2.5-1.6v-3.3h2.4l0.3,2.2c0.3,0.3,0.7,0.5,1.3,0.6
	c0.5,0.2,1.1,0.3,1.8,0.3c0.9,0,1.5-0.2,2-0.5c0.4-0.3,0.7-0.8,0.7-1.4s-0.2-1.1-0.6-1.5s-1.2-0.7-2.2-1c-1.9-0.5-3.3-1.2-4.2-1.9
	c-1-0.7-1.4-1.7-1.4-3s0.5-2.3,1.6-3.1c1.1-0.8,2.4-1.2,4-1.2c1.2,0,2.3,0.2,3.3,0.5s1.8,0.9,2.5,1.5v3.1H300z"/>
<path class="st1" d="M315.2,438.1v4.2h-2.4l-0.1-1.8h-2.9v11l1.7,0.3v1.9H305v-1.9l1.7-0.3v-11h-2.9l-0.1,1.8h-2.4v-4.2H315.2z"/>
<path class="st1" d="M323.3,438.1c1.9,0,3.5,0.6,4.7,1.8c1.2,1.2,1.9,2.8,1.9,4.7v2.6c0,1.9-0.6,3.5-1.9,4.7
	c-1.2,1.2-2.8,1.8-4.7,1.8h-7v-1.9l1.7-0.3v-11.2l-1.7-0.3v-1.9h1.7L323.3,438.1L323.3,438.1z M321.1,440.5v10.8h2.1
	c1.1,0,2-0.4,2.6-1.1c0.6-0.8,1-1.8,1-3v-2.6c0-1.2-0.3-2.2-1-3c-0.6-0.8-1.5-1.1-2.6-1.1L321.1,440.5L321.1,440.5z"/>
<path class="st1" d="M340.9,446.1h-2.1l-0.3-1.5c-0.2-0.2-0.5-0.3-0.8-0.4s-0.7-0.2-1.1-0.2c-0.6,0-1,0.1-1.3,0.4
	c-0.3,0.2-0.5,0.6-0.5,0.9s0.2,0.6,0.5,0.9c0.3,0.2,0.9,0.4,1.8,0.6c1.4,0.3,2.5,0.7,3.2,1.3c0.7,0.6,1,1.3,1,2.3s-0.5,1.9-1.3,2.6
	c-0.9,0.7-2.1,1-3.5,1c-0.9,0-1.7-0.1-2.5-0.4c-0.7-0.3-1.4-0.6-2-1.1v-2.6h2.2l0.4,1.5c0.2,0.2,0.4,0.3,0.8,0.3
	c0.3,0.1,0.7,0.1,1,0.1c0.6,0,1.1-0.1,1.5-0.3c0.3-0.2,0.5-0.5,0.5-0.9c0-0.3-0.2-0.6-0.5-0.9c-0.3-0.2-1-0.5-1.9-0.7
	c-1.4-0.3-2.4-0.7-3.1-1.2s-1-1.3-1-2.2c0-1,0.4-1.8,1.2-2.5c0.8-0.7,1.9-1.1,3.4-1.1c0.9,0,1.8,0.1,2.6,0.4
	c0.8,0.2,1.4,0.6,1.9,0.9L340.9,446.1z"/>
<path class="st1" d="M346.4,453.7h-3.1V451h3.1V453.7z"/>
</svg>
