<svg id="Layer_1" data-name="Layer 1" xmlns="http://www.w3.org/2000/svg" viewBox="0 0 611.8 611.8"><defs><style>.cls-1{fill:#f5faf8;stroke:#f4783b;stroke-linecap:round;stroke-linejoin:round;stroke-width:11.8px;}.cls-2{font-size:32px;fill:#f4783b;font-family:RobotoSlab-Bold, Roboto Slab;font-weight:700;}.cls-3{letter-spacing:-0.01em;}.cls-4{letter-spacing:-0.02em;}.cls-5{letter-spacing:-0.01em;}.cls-6{letter-spacing:-0.02em;}.cls-7{letter-spacing:-0.02em;}.cls-8{letter-spacing:-0.01em;}.cls-9{font-size:22px;}.cls-10{letter-spacing:-0.01em;}.cls-11{letter-spacing:-0.01em;}.cls-12{letter-spacing:-0.01em;}.cls-13{letter-spacing:-0.01em;}.cls-14{letter-spacing:-0.01em;}.cls-15{letter-spacing:-0.01em;}.cls-16{letter-spacing:0em;}.cls-17{letter-spacing:-0.01em;}.cls-18{letter-spacing:0.01em;}.cls-19{letter-spacing:0.01em;}.cls-20{letter-spacing:0.01em;}.cls-21{letter-spacing:0em;}.cls-22{letter-spacing:-0.01em;}.cls-23{letter-spacing:0em;}.cls-24{letter-spacing:-0.01em;}.cls-25{letter-spacing:-0.01em;}.cls-26{letter-spacing:-0.02em;}.cls-27{letter-spacing:-0.01em;}.cls-28{letter-spacing:-0.03em;}.cls-29{letter-spacing:0em;}.cls-30{letter-spacing:-0.01em;}.cls-31{letter-spacing:-0.02em;}.cls-32{letter-spacing:-0.01em;}.cls-33{letter-spacing:0.01em;}.cls-34{letter-spacing:-0.02em;}.cls-35{letter-spacing:-0.02em;}.cls-36{letter-spacing:-0.02em;}.cls-37{letter-spacing:0.01em;}.cls-38{letter-spacing:0em;}.cls-39{letter-spacing:0.01em;}.cls-40{letter-spacing:-0.02em;}.cls-41{letter-spacing:-0.02em;}.cls-42{letter-spacing:0.01em;}.cls-43{letter-spacing:0.01em;}.cls-44{letter-spacing:0em;}.cls-45{letter-spacing:-0.01em;}.cls-46{letter-spacing:0.01em;}.cls-47{letter-spacing:-0.02em;}.cls-48{letter-spacing:-0.01em;}.cls-49{letter-spacing:0.01em;}.cls-50{letter-spacing:0.01em;}.cls-51{letter-spacing:0em;}.cls-52{letter-spacing:-0.02em;}.cls-53{letter-spacing:-0.01em;}.cls-54{letter-spacing:-0.01em;}.cls-55{letter-spacing:0em;}.cls-56{letter-spacing:0.01em;}.cls-57{letter-spacing:-0.01em;}.cls-58{letter-spacing:-0.01em;}.cls-59{letter-spacing:-0.01em;}.cls-60{letter-spacing:-0.02em;}.cls-61{letter-spacing:-0.03em;}.cls-62{letter-spacing:-0.01em;}.cls-63{letter-spacing:0.01em;}.cls-64{letter-spacing:-0.02em;}.cls-65{letter-spacing:0.02em;}.cls-66{letter-spacing:-0.01em;}.cls-67{letter-spacing:-0.01em;}.cls-68{letter-spacing:-0.01em;}.cls-69{letter-spacing:-0.02em;}.cls-70{letter-spacing:-0.01em;}.cls-71{letter-spacing:-0.01em;}.cls-72{letter-spacing:-0.02em;}.cls-73{letter-spacing:-0.01em;}.cls-74{letter-spacing:-0.01em;}.cls-75{letter-spacing:-0.02em;}.cls-76{letter-spacing:0em;}.cls-77{letter-spacing:0em;}.cls-78{letter-spacing:-0.02em;}.cls-79{letter-spacing:0em;}.cls-80{letter-spacing:-0.01em;}.cls-81{letter-spacing:0em;}.cls-82{letter-spacing:0.01em;}.cls-83{letter-spacing:-0.02em;}.cls-84{letter-spacing:-0.02em;}.cls-85{letter-spacing:-0.01em;}.cls-86{letter-spacing:-0.02em;}.cls-87{letter-spacing:0.01em;}.cls-88{letter-spacing:-0.01em;}.cls-89{letter-spacing:0em;}.cls-90{letter-spacing:0em;}.cls-91{letter-spacing:-0.01em;}.cls-92{letter-spacing:0.01em;}.cls-93{letter-spacing:-0.01em;}.cls-94{letter-spacing:0em;}.cls-95{letter-spacing:0em;}.cls-96{letter-spacing:-0.02em;}.cls-97{letter-spacing:-0.02em;}.cls-98{letter-spacing:-0.01em;}.cls-99{letter-spacing:-0.01em;}.cls-100{letter-spacing:0em;}.cls-101{letter-spacing:0em;}.cls-102{letter-spacing:-0.08em;}.cls-103{letter-spacing:-0.02em;}.cls-104{letter-spacing:-0.01em;}.cls-105{letter-spacing:-0.01em;}.cls-106{letter-spacing:-0.01em;}.cls-107{letter-spacing:0em;}.cls-108{letter-spacing:-0.01em;}.cls-109{letter-spacing:-0.01em;}.cls-110{letter-spacing:0em;}.cls-111{letter-spacing:-0.01em;}.cls-112{letter-spacing:-0.01em;}</style></defs><title>std web mockupsasfd</title><rect class="cls-1" x="5.9" y="5.9" width="600" height="600" rx="300" ry="300"/><text class="cls-2" transform="translate(236.17 110.53)"><tspan class="cls-3">C</tspan><tspan class="cls-4" x="20.48" y="0">o</tspan><tspan class="cls-5" x="37.89" y="0">n</tspan><tspan class="cls-6" x="57.77" y="0">d</tspan><tspan class="cls-7" x="76.13" y="0">o</tspan><tspan class="cls-8" x="93.56" y="0">m</tspan><tspan x="123" y="0">s</tspan><tspan class="cls-9"><tspan class="cls-10" x="-87.8" y="52.8">C</tspan><tspan class="cls-11" x="-73.66" y="52.8">o</tspan><tspan class="cls-12" x="-61.62" y="52.8">n</tspan><tspan class="cls-13" x="-47.89" y="52.8">d</tspan><tspan class="cls-14" x="-35.19" y="52.8">o</tspan><tspan class="cls-15" x="-23.14" y="52.8">m</tspan><tspan x="-2.84" y="52.8">s </tspan><tspan class="cls-16" x="13.88" y="52.8">a</tspan><tspan class="cls-17" x="25.92" y="52.8">r</tspan><tspan x="34.91" y="52.8">e </tspan><tspan class="cls-18" x="52.02" y="52.8">t</tspan><tspan class="cls-19" x="60.34" y="52.8">h</tspan><tspan class="cls-20" x="74.49" y="52.8">i</tspan><tspan class="cls-21" x="81.78" y="52.8">n</tspan><tspan x="95.73" y="52.8">, </tspan><tspan class="cls-22" x="106.53" y="52.8">s</tspan><tspan class="cls-23" x="117.64" y="52.8">t</tspan><tspan class="cls-24" x="125.76" y="52.8">r</tspan><tspan class="cls-25" x="134.74" y="52.8">e</tspan><tspan class="cls-26" x="146.22" y="52.8">t</tspan><tspan class="cls-27" x="154" y="52.8">c</tspan><tspan class="cls-28" x="165.41" y="52.8">h</tspan><tspan x="178.76" y="52.8">y </tspan><tspan class="cls-29" x="-107.8" y="79.2">p</tspan><tspan class="cls-30" x="-94.52" y="79.2">o</tspan><tspan class="cls-26" x="-82.49" y="79.2">u</tspan><tspan class="cls-27" x="-69.19" y="79.2">c</tspan><tspan class="cls-31" x="-57.78" y="79.2">h</tspan><tspan class="cls-32" x="-44.14" y="79.2">e</tspan><tspan x="-32.69" y="79.2">s </tspan><tspan class="cls-33" x="-15.97" y="79.2">t</tspan><tspan class="cls-21" x="-7.64" y="79.2">h</tspan><tspan class="cls-34" x="6.33" y="79.2">a</tspan><tspan x="18.01" y="79.2">t </tspan><tspan class="cls-16" x="31.61" y="79.2">a</tspan><tspan class="cls-24" x="43.66" y="79.2">r</tspan><tspan x="52.64" y="79.2">e </tspan><tspan class="cls-35" x="69.75" y="79.2">w</tspan><tspan class="cls-36" x="87" y="79.2">o</tspan><tspan class="cls-37" x="98.83" y="79.2">r</tspan><tspan x="108.41" y="79.2">n </tspan><tspan class="cls-11" x="127.77" y="79.2">o</tspan><tspan x="139.81" y="79.2">n </tspan><tspan class="cls-38" x="159.17" y="79.2">e</tspan><tspan class="cls-39" x="170.8" y="79.2">x</tspan><tspan class="cls-40" x="183.72" y="79.2">t</tspan><tspan class="cls-41" x="191.49" y="79.2">e</tspan><tspan class="cls-42" x="202.83" y="79.2">r</tspan><tspan x="212.42" y="79.2">n</tspan><tspan class="cls-43" x="226.38" y="79.2">a</tspan><tspan x="238.64" y="79.2">l </tspan><tspan class="cls-44" x="-107.8" y="105.6">g</tspan><tspan class="cls-45" x="-95.29" y="105.6">e</tspan><tspan class="cls-46" x="-83.74" y="105.6">n</tspan><tspan class="cls-47" x="-69.61" y="105.6">i</tspan><tspan class="cls-48" x="-63.06" y="105.6">t</tspan><tspan class="cls-49" x="-55.02" y="105.6">a</tspan><tspan class="cls-50" x="-42.77" y="105.6">l</tspan><tspan class="cls-51" x="-35.59" y="105.6">i</tspan><tspan x="-28.52" y="105.6">a </tspan><tspan class="cls-36" x="-11.04" y="105.6">o</tspan><tspan x="0.78" y="105.6">r </tspan><tspan class="cls-52" x="15.44" y="105.6">p</tspan><tspan class="cls-21" x="28.43" y="105.6">l</tspan><tspan class="cls-53" x="35.43" y="105.6">a</tspan><tspan class="cls-54" x="47.3" y="105.6">c</tspan><tspan class="cls-55" x="58.75" y="105.6">e</tspan><tspan x="70.42" y="105.6">d </tspan><tspan class="cls-56" x="88.83" y="105.6">i</tspan><tspan class="cls-57" x="96.12" y="105.6">n</tspan><tspan class="cls-58" x="109.93" y="105.6">s</tspan><tspan class="cls-59" x="121.11" y="105.6">i</tspan><tspan class="cls-60" x="127.95" y="105.6">d</tspan><tspan x="140.63" y="105.6">e </tspan><tspan class="cls-35" x="157.74" y="105.6">o</tspan><tspan x="169.68" y="105.6" xml:space="preserve">f  </tspan><tspan class="cls-56" x="-107.8" y="132">i</tspan><tspan class="cls-61" x="-100.52" y="132">n</tspan><tspan class="cls-40" x="-87.18" y="132">t</tspan><tspan class="cls-41" x="-79.41" y="132">e</tspan><tspan class="cls-42" x="-68.07" y="132">r</tspan><tspan x="-58.49" y="132">n</tspan><tspan class="cls-43" x="-44.52" y="132">a</tspan><tspan x="-32.26" y="132">l </tspan><tspan class="cls-44" x="-19.86" y="132">g</tspan><tspan class="cls-45" x="-7.35" y="132">e</tspan><tspan class="cls-46" x="4.21" y="132">n</tspan><tspan class="cls-47" x="18.34" y="132">i</tspan><tspan class="cls-62" x="24.89" y="132">t</tspan><tspan class="cls-43" x="32.92" y="132">a</tspan><tspan class="cls-50" x="45.18" y="132">l</tspan><tspan class="cls-51" x="52.35" y="132">i</tspan><tspan class="cls-63" x="59.43" y="132">a</tspan><tspan x="71.72" y="132">.</tspan><tspan class="cls-10" x="-87.8" y="184.8">C</tspan><tspan class="cls-11" x="-73.66" y="184.8">o</tspan><tspan class="cls-12" x="-61.62" y="184.8">n</tspan><tspan class="cls-13" x="-47.89" y="184.8">d</tspan><tspan class="cls-14" x="-35.19" y="184.8">o</tspan><tspan class="cls-15" x="-23.14" y="184.8">m</tspan><tspan x="-2.84" y="184.8">s </tspan><tspan class="cls-16" x="13.88" y="184.8">a</tspan><tspan class="cls-17" x="25.92" y="184.8">r</tspan><tspan x="34.91" y="184.8">e </tspan><tspan class="cls-64" x="52.02" y="184.8">v</tspan><tspan class="cls-41" x="64.2" y="184.8">e</tspan><tspan class="cls-65" x="75.54" y="184.8">r</tspan><tspan x="85.15" y="184.8">y </tspan><tspan class="cls-66" x="103.56" y="184.8">e</tspan><tspan class="cls-67" x="115.04" y="184.8">a</tspan><tspan class="cls-68" x="126.93" y="184.8">s</tspan><tspan x="138.13" y="184.8">y </tspan><tspan class="cls-69" x="156.54" y="184.8">t</tspan><tspan x="164.34" y="184.8">o </tspan><tspan class="cls-70" x="182.06" y="184.8">u</tspan><tspan class="cls-71" x="195.51" y="184.8">s</tspan><tspan class="cls-72" x="206.67" y="184.8">e</tspan><tspan x="218.02" y="184.8">, </tspan><tspan class="cls-43" x="-107.8" y="211.2">a</tspan><tspan class="cls-73" x="-95.54" y="211.2">n</tspan><tspan x="-81.81" y="211.2">d </tspan><tspan class="cls-66" x="-63.4" y="211.2">e</tspan><tspan class="cls-74" x="-51.92" y="211.2">a</tspan><tspan class="cls-68" x="-40.03" y="211.2">s</tspan><tspan x="-28.83" y="211.2">y </tspan><tspan class="cls-75" x="-10.41" y="211.2">t</tspan><tspan x="-2.62" y="211.2">o </tspan><tspan class="cls-44" x="15.1" y="211.2">g</tspan><tspan class="cls-25" x="27.61" y="211.2">e</tspan><tspan class="cls-76" x="39.09" y="211.2">t</tspan><tspan x="47.19" y="211.2">, </tspan><tspan class="cls-60" x="57.99" y="211.2">y</tspan><tspan class="cls-30" x="70.67" y="211.2">o</tspan><tspan x="82.69" y="211.2">u </tspan><tspan class="cls-77" x="101.81" y="211.2">s</tspan><tspan class="cls-78" x="113.04" y="211.2">h</tspan><tspan class="cls-30" x="126.69" y="211.2">o</tspan><tspan class="cls-79" x="138.72" y="211.2">u</tspan><tspan class="cls-25" x="152.54" y="211.2">l</tspan><tspan x="159.31" y="211.2">d </tspan><tspan class="cls-70" x="177.72" y="211.2">u</tspan><tspan class="cls-71" x="191.17" y="211.2">s</tspan><tspan x="202.33" y="211.2">e a </tspan><tspan class="cls-80" x="-107.8" y="237.6">c</tspan><tspan class="cls-11" x="-96.34" y="237.6">o</tspan><tspan class="cls-12" x="-84.3" y="237.6">n</tspan><tspan class="cls-13" x="-70.57" y="237.6">d</tspan><tspan class="cls-14" x="-57.87" y="237.6">o</tspan><tspan x="-45.82" y="237.6">m </tspan><tspan class="cls-17" x="-19.97" y="237.6">e</tspan><tspan class="cls-64" x="-8.52" y="237.6">v</tspan><tspan class="cls-41" x="3.66" y="237.6">e</tspan><tspan class="cls-65" x="15" y="237.6">r</tspan><tspan x="24.6" y="237.6">y </tspan><tspan class="cls-81" x="43.02" y="237.6">t</tspan><tspan class="cls-82" x="51.3" y="237.6">i</tspan><tspan class="cls-83" x="58.6" y="237.6">m</tspan><tspan x="78.72" y="237.6">e </tspan><tspan class="cls-84" x="95.83" y="237.6">y</tspan><tspan class="cls-85" x="108.5" y="237.6">o</tspan><tspan x="120.53" y="237.6">u </tspan><tspan class="cls-21" x="139.65" y="237.6">h</tspan><tspan class="cls-86" x="153.63" y="237.6">a</tspan><tspan class="cls-64" x="165.3" y="237.6">v</tspan><tspan x="177.48" y="237.6">e </tspan><tspan class="cls-71" x="194.59" y="237.6">s</tspan><tspan class="cls-38" x="205.75" y="237.6">e</tspan><tspan class="cls-87" x="217.38" y="237.6">x</tspan><tspan x="230.37" y="237.6">.</tspan><tspan x="-87.8" y="290.4">A </tspan><tspan class="cls-80" x="-66.61" y="290.4">c</tspan><tspan class="cls-11" x="-55.15" y="290.4">o</tspan><tspan class="cls-12" x="-43.11" y="290.4">n</tspan><tspan class="cls-13" x="-29.38" y="290.4">d</tspan><tspan class="cls-14" x="-16.68" y="290.4">o</tspan><tspan x="-4.63" y="290.4">m </tspan><tspan class="cls-88" x="21.23" y="290.4">i</tspan><tspan x="28.15" y="290.4">s </tspan><tspan class="cls-89" x="44.86" y="290.4">8</tspan><tspan class="cls-90" x="56.93" y="290.4">5</tspan><tspan x="68.61" y="290.4">% </tspan><tspan class="cls-91" x="89.35" y="290.4">e</tspan><tspan class="cls-92" x="100.75" y="290.4">f</tspan><tspan class="cls-93" x="109.04" y="290.4">f</tspan><tspan class="cls-94" x="116.96" y="290.4">e</tspan><tspan class="cls-95" x="128.58" y="290.4">c</tspan><tspan class="cls-81" x="140.1" y="290.4">t</tspan><tspan class="cls-96" x="148.38" y="290.4">i</tspan><tspan class="cls-64" x="154.98" y="290.4">v</tspan><tspan x="167.16" y="290.4">e </tspan><tspan class="cls-56" x="184.27" y="290.4">i</tspan><tspan x="191.56" y="290.4">n </tspan><tspan class="cls-97" x="-107.8" y="316.8">p</tspan><tspan class="cls-24" x="-94.89" y="316.8">re</tspan><tspan class="cls-64" x="-74.46" y="316.8">v</tspan><tspan class="cls-45" x="-62.28" y="316.8">e</tspan><tspan class="cls-61" x="-50.73" y="316.8">n</tspan><tspan class="cls-81" x="-37.4" y="316.8">t</tspan><tspan class="cls-56" x="-29.11" y="316.8">i</tspan><tspan class="cls-98" x="-21.83" y="316.8">n</tspan><tspan x="-8.18" y="316.8">g </tspan><tspan class="cls-97" x="9.78" y="316.8">p</tspan><tspan class="cls-24" x="22.69" y="316.8">r</tspan><tspan class="cls-99" x="31.68" y="316.8">e</tspan><tspan class="cls-100" x="43.27" y="316.8">g</tspan><tspan x="55.86" y="316.8">n</tspan><tspan class="cls-43" x="69.82" y="316.8">a</tspan><tspan class="cls-78" x="82.08" y="316.8">n</tspan><tspan class="cls-101" x="95.71" y="316.8">c</tspan><tspan class="cls-102" x="107.32" y="316.8">y</tspan><tspan x="118.56" y="316.8">, </tspan><tspan class="cls-43" x="129.36" y="316.8">a</tspan><tspan class="cls-73" x="141.62" y="316.8">n</tspan><tspan x="155.35" y="316.8">d </tspan><tspan class="cls-31" x="173.76" y="316.8">h</tspan><tspan class="cls-45" x="187.4" y="316.8">e</tspan><tspan class="cls-103" x="198.95" y="316.8">l</tspan><tspan class="cls-104" x="205.51" y="316.8">p</tspan><tspan x="218.6" y="316.8">s </tspan><tspan class="cls-75" x="-107.8" y="343.2">t</tspan><tspan x="-100.01" y="343.2">o </tspan><tspan class="cls-97" x="-82.29" y="343.2">p</tspan><tspan class="cls-105" x="-69.37" y="343.2">r</tspan><tspan class="cls-106" x="-60.36" y="343.2">o</tspan><tspan class="cls-40" x="-48.34" y="343.2">t</tspan><tspan class="cls-94" x="-40.57" y="343.2">e</tspan><tspan class="cls-95" x="-28.95" y="343.2">c</tspan><tspan x="-17.43" y="343.2">t </tspan><tspan class="cls-107" x="-3.83" y="343.2">f</tspan><tspan class="cls-108" x="4.4" y="343.2">r</tspan><tspan class="cls-109" x="13.4" y="343.2">o</tspan><tspan x="25.45" y="343.2">m </tspan><tspan class="cls-110" x="51.31" y="343.2">S</tspan><tspan class="cls-92" x="64.63" y="343.2">T</tspan><tspan class="cls-111" x="79.53" y="343.2">D</tspan><tspan class="cls-112" x="94.54" y="343.2">s</tspan><tspan x="105.73" y="343.2">.</tspan></tspan></text></svg>