<svg id="Layer_1" data-name="Layer 1" xmlns="http://www.w3.org/2000/svg" viewBox="0 0 611.8 611.8"><defs><style>.cls-1{fill:#f5faf8;stroke:#6dc065;stroke-linecap:round;stroke-linejoin:round;stroke-width:11.8px;}.cls-2{font-size:32px;fill:#6dc065;font-family:RobotoSlab-Bold, Roboto Slab;font-weight:700;}.cls-3{letter-spacing:0em;}.cls-4{letter-spacing:-0.01em;}.cls-5{letter-spacing:-0.03em;}.cls-6{letter-spacing:-0.01em;}.cls-7{letter-spacing:0.01em;}.cls-8{letter-spacing:-0.01em;}.cls-9{letter-spacing:0.01em;}.cls-10{letter-spacing:-0.01em;}.cls-11{font-size:24px;}.cls-12{letter-spacing:-0.02em;}.cls-13{letter-spacing:-0.01em;}.cls-14{letter-spacing:-0.03em;}.cls-15{letter-spacing:-0.01em;}.cls-16{letter-spacing:0.01em;}.cls-17{letter-spacing:0em;}.cls-18{letter-spacing:0.01em;}.cls-19{letter-spacing:-0.01em;}.cls-20{letter-spacing:-0.01em;}.cls-21{letter-spacing:0em;}.cls-22{letter-spacing:-0.01em;}.cls-23{letter-spacing:-0.01em;}.cls-24{letter-spacing:-0.02em;}.cls-25{letter-spacing:-0.01em;}.cls-26{letter-spacing:-0.03em;}.cls-27{letter-spacing:-0.08em;}.cls-28{letter-spacing:-0.01em;}.cls-29{letter-spacing:-0.02em;}.cls-30{letter-spacing:0em;}.cls-31{letter-spacing:-0.02em;}.cls-32{letter-spacing:0em;}.cls-33{letter-spacing:-0.01em;}.cls-34{letter-spacing:0em;}.cls-35{letter-spacing:0em;}.cls-36{letter-spacing:0.01em;}.cls-37{letter-spacing:-0.02em;}.cls-38{letter-spacing:-0.02em;}.cls-39{letter-spacing:0em;}.cls-40{letter-spacing:0em;}.cls-41{letter-spacing:-0.01em;}.cls-42{letter-spacing:0em;}.cls-43{letter-spacing:-0.01em;}.cls-44{letter-spacing:-0.01em;}.cls-45{letter-spacing:0em;}.cls-46{letter-spacing:-0.02em;}.cls-47{letter-spacing:-0.01em;}.cls-48{letter-spacing:0.01em;}.cls-49{letter-spacing:0.01em;}.cls-50{letter-spacing:-0.02em;}.cls-51{letter-spacing:-0.02em;}.cls-52{letter-spacing:-0.01em;}.cls-53{letter-spacing:0.01em;}.cls-54{letter-spacing:-0.03em;}.cls-55{letter-spacing:-0.01em;}.cls-56{letter-spacing:0em;}.cls-57{letter-spacing:-0.02em;}.cls-58{letter-spacing:0em;}.cls-59{letter-spacing:-0.02em;}.cls-60{letter-spacing:-0.01em;}.cls-61{letter-spacing:0em;}.cls-62{letter-spacing:-0.02em;}.cls-63{letter-spacing:-0.01em;}.cls-64{letter-spacing:0.01em;}.cls-65{letter-spacing:-0.02em;}.cls-66{letter-spacing:-0.01em;}.cls-67{letter-spacing:-0.02em;}.cls-68{letter-spacing:-0.08em;}.cls-69{letter-spacing:-0.01em;}.cls-70{letter-spacing:-0.02em;}.cls-71{letter-spacing:-0.01em;}.cls-72{letter-spacing:-0.02em;}.cls-73{letter-spacing:0em;}.cls-74{letter-spacing:-0.01em;}.cls-75{letter-spacing:-0.01em;}.cls-76{letter-spacing:-0.02em;}.cls-77{letter-spacing:-0.02em;}.cls-78{letter-spacing:0.01em;}.cls-79{letter-spacing:0.01em;}.cls-80{letter-spacing:0em;}.cls-81{letter-spacing:0.01em;}.cls-82{letter-spacing:-0.02em;}.cls-83{letter-spacing:-0.01em;}.cls-84{letter-spacing:-0.01em;}.cls-85{letter-spacing:-0.02em;}.cls-86{letter-spacing:-0.01em;}.cls-87{letter-spacing:0em;}.cls-88{letter-spacing:0em;}.cls-89{letter-spacing:-0.02em;}.cls-90{letter-spacing:-0.05em;}.cls-91{letter-spacing:-0.02em;}.cls-92{letter-spacing:-0.06em;}.cls-93{letter-spacing:-0.01em;}.cls-94{letter-spacing:-0.01em;}.cls-95{letter-spacing:0.01em;}.cls-96{letter-spacing:-0.03em;}.cls-97{letter-spacing:-0.01em;}.cls-98{letter-spacing:-0.01em;}.cls-99{letter-spacing:0.01em;}.cls-100{letter-spacing:-0.04em;}</style></defs><title>std web mockupsasfd</title><rect class="cls-1" x="5.9" y="5.9" width="600" height="600" rx="300" ry="300"/><text class="cls-2" transform="translate(210.57 114.85)"><tspan class="cls-3">D</tspan><tspan class="cls-4" x="21.92" y="0">e</tspan><tspan class="cls-5" x="38.63" y="0">n</tspan><tspan class="cls-6" x="57.91" y="0">t</tspan><tspan class="cls-7" x="69.51" y="0">a</tspan><tspan x="87.25" y="0">l </tspan><tspan class="cls-8" x="105.3" y="0">D</tspan><tspan class="cls-9" x="127.01" y="0">a</tspan><tspan class="cls-10" x="144.77" y="0">m</tspan><tspan x="174.21" y="0">s</tspan><tspan class="cls-11"><tspan x="-62.2" y="67.2">A </tspan><tspan class="cls-12" x="-39.08" y="67.2">d</tspan><tspan class="cls-13" x="-25.27" y="67.2">e</tspan><tspan class="cls-14" x="-12.68" y="67.2">n</tspan><tspan class="cls-15" x="1.84" y="67.2">t</tspan><tspan class="cls-16" x="10.59" y="67.2">a</tspan><tspan x="23.95" y="67.2">l </tspan><tspan class="cls-17" x="37.48" y="67.2">d</tspan><tspan class="cls-18" x="51.67" y="67.2">a</tspan><tspan x="65.04" y="67.2">m </tspan><tspan class="cls-19" x="93.25" y="67.2">i</tspan><tspan x="100.78" y="67.2">s a </tspan><tspan class="cls-20" x="138.08" y="67.2">s</tspan><tspan class="cls-21" x="150.19" y="67.2">t</tspan><tspan class="cls-22" x="159.03" y="67.2">r</tspan><tspan class="cls-23" x="168.81" y="67.2">e</tspan><tspan class="cls-24" x="181.31" y="67.2">t</tspan><tspan class="cls-25" x="189.78" y="67.2">c</tspan><tspan class="cls-26" x="202.21" y="67.2">h</tspan><tspan class="cls-27" x="216.76" y="67.2">y</tspan><tspan x="229" y="67.2">, </tspan><tspan class="cls-28" x="-82.2" y="96">fl</tspan><tspan class="cls-29" x="-65.67" y="96">a</tspan><tspan x="-52.95" y="96">t </tspan><tspan class="cls-30" x="-38.11" y="96">l</tspan><tspan class="cls-29" x="-30.49" y="96">a</tspan><tspan class="cls-31" x="-17.76" y="96">t</tspan><tspan class="cls-32" x="-9.3" y="96">e</tspan><tspan x="3.37" y="96">x </tspan><tspan class="cls-33" x="23.21" y="96">b</tspan><tspan class="cls-34" x="36.79" y="96">a</tspan><tspan class="cls-35" x="49.91" y="96">r</tspan><tspan class="cls-36" x="60.12" y="96">r</tspan><tspan class="cls-37" x="70.51" y="96">i</tspan><tspan class="cls-38" x="77.83" y="96">e</tspan><tspan x="90.19" y="96">r </tspan><tspan class="cls-39" x="106.17" y="96">t</tspan><tspan class="cls-40" x="115.24" y="96">h</tspan><tspan class="cls-29" x="130.48" y="96">a</tspan><tspan x="143.2" y="96">t </tspan><tspan class="cls-41" x="158.03" y="96">c</tspan><tspan class="cls-16" x="170.5" y="96">a</tspan><tspan x="183.86" y="96">n </tspan><tspan class="cls-42" x="204.98" y="96">b</tspan><tspan x="218.71" y="96">e </tspan><tspan class="cls-43" x="-82.2" y="124.8">u</tspan><tspan class="cls-44" x="-67.55" y="124.8">s</tspan><tspan class="cls-45" x="-55.39" y="124.8">e</tspan><tspan x="-42.67" y="124.8">d </tspan><tspan class="cls-46" x="-22.58" y="124.8">d</tspan><tspan class="cls-47" x="-8.83" y="124.8">u</tspan><tspan class="cls-48" x="5.99" y="124.8">r</tspan><tspan class="cls-49" x="16.38" y="124.8">i</tspan><tspan class="cls-50" x="24.32" y="124.8">n</tspan><tspan x="39.18" y="124.8">g </tspan><tspan class="cls-51" x="58.78" y="124.8">o</tspan><tspan class="cls-52" x="71.66" y="124.8">r</tspan><tspan class="cls-16" x="81.42" y="124.8">a</tspan><tspan x="94.78" y="124.8">l </tspan><tspan class="cls-44" x="108.32" y="124.8">s</tspan><tspan class="cls-32" x="120.48" y="124.8">e</tspan><tspan class="cls-53" x="133.15" y="124.8">x</tspan><tspan x="147.3" y="124.8">.</tspan><tspan class="cls-54" x="-62.2" y="182.4">P</tspan><tspan class="cls-30" x="-47.35" y="182.4">l</tspan><tspan class="cls-55" x="-39.72" y="182.4">a</tspan><tspan class="cls-20" x="-26.77" y="182.4">s</tspan><tspan class="cls-56" x="-14.66" y="182.4">t</tspan><tspan class="cls-57" x="-5.64" y="182.4">i</tspan><tspan x="1.73" y="182.4">c </tspan><tspan class="cls-58" x="20.26" y="182.4">w</tspan><tspan class="cls-52" x="39.52" y="182.4">r</tspan><tspan class="cls-59" x="49.29" y="182.4">a</tspan><tspan x="62.01" y="182.4">p </tspan><tspan class="cls-60" x="82.42" y="182.4">c</tspan><tspan class="cls-16" x="94.89" y="182.4">a</tspan><tspan x="108.25" y="182.4">n </tspan><tspan class="cls-61" x="129.37" y="182.4">b</tspan><tspan x="143.1" y="182.4">e </tspan><tspan class="cls-43" x="161.76" y="182.4">u</tspan><tspan class="cls-44" x="176.42" y="182.4">s</tspan><tspan class="cls-45" x="188.58" y="182.4">e</tspan><tspan x="201.29" y="182.4">d </tspan><tspan class="cls-49" x="221.38" y="182.4">i</tspan><tspan x="229.31" y="182.4">n </tspan><tspan class="cls-39" x="-82.2" y="211.2">t</tspan><tspan class="cls-62" x="-73.13" y="211.2">h</tspan><tspan x="-58.28" y="211.2">e </tspan><tspan class="cls-63" x="-39.61" y="211.2">s</tspan><tspan class="cls-64" x="-27.45" y="211.2">a</tspan><tspan class="cls-65" x="-14.08" y="211.2">m</tspan><tspan x="7.85" y="211.2">e </tspan><tspan class="cls-66" x="26.52" y="211.2">w</tspan><tspan class="cls-67" x="45.4" y="211.2">a</tspan><tspan class="cls-68" x="58.15" y="211.2">y</tspan><tspan x="70.39" y="211.2">, </tspan><tspan class="cls-16" x="82.16" y="211.2">a</tspan><tspan class="cls-69" x="95.52" y="211.2">n</tspan><tspan x="110.48" y="211.2">d </tspan><tspan class="cls-19" x="130.57" y="211.2">i</tspan><tspan x="138.1" y="211.2">s </tspan><tspan class="cls-25" x="156.33" y="211.2">c</tspan><tspan class="cls-70" x="168.77" y="211.2">h</tspan><tspan class="cls-71" x="183.62" y="211.2">e</tspan><tspan class="cls-72" x="196.13" y="211.2">a</tspan><tspan class="cls-73" x="208.85" y="211.2">p</tspan><tspan class="cls-38" x="223.3" y="211.2">e</tspan><tspan x="235.65" y="211.2">r </tspan><tspan class="cls-16" x="-82.2" y="240">a</tspan><tspan class="cls-74" x="-68.84" y="240">n</tspan><tspan x="-53.88" y="240">d </tspan><tspan class="cls-71" x="-33.79" y="240">e</tspan><tspan class="cls-55" x="-21.29" y="240">a</tspan><tspan class="cls-75" x="-8.33" y="240">s</tspan><tspan class="cls-76" x="3.84" y="240">i</tspan><tspan class="cls-38" x="11.17" y="240">e</tspan><tspan x="23.52" y="240">r </tspan><tspan class="cls-77" x="39.51" y="240">t</tspan><tspan x="47.99" y="240">o </tspan><tspan class="cls-78" x="67.32" y="240">fi</tspan><tspan class="cls-74" x="83.15" y="240">n</tspan><tspan class="cls-79" x="98.11" y="240">d</tspan><tspan x="112.53" y="240">.</tspan><tspan class="cls-80" x="-62.2" y="297.6">O</tspan><tspan class="cls-81" x="-45.17" y="297.6">n</tspan><tspan class="cls-82" x="-29.72" y="297.6">l</tspan><tspan x="-22.58" y="297.6">y </tspan><tspan class="cls-43" x="-2.5" y="297.6">u</tspan><tspan class="cls-44" x="12.15" y="297.6">s</tspan><tspan x="24.32" y="297.6">e </tspan><tspan class="cls-83" x="42.98" y="297.6">o</tspan><tspan class="cls-12" x="56.1" y="297.6">n</tspan><tspan x="70.94" y="297.6">e </tspan><tspan class="cls-75" x="89.6" y="297.6">s</tspan><tspan class="cls-84" x="101.78" y="297.6">i</tspan><tspan class="cls-12" x="109.23" y="297.6">d</tspan><tspan x="123.04" y="297.6">e </tspan><tspan class="cls-85" x="141.71" y="297.6">o</tspan><tspan x="154.72" y="297.6">f </tspan><tspan class="cls-39" x="169.53" y="297.6">t</tspan><tspan class="cls-62" x="178.6" y="297.6">h</tspan><tspan x="193.45" y="297.6">e </tspan><tspan class="cls-86" x="-82.2" y="326.4">b</tspan><tspan class="cls-87" x="-68.62" y="326.4">a</tspan><tspan class="cls-88" x="-55.5" y="326.4">r</tspan><tspan class="cls-48" x="-45.29" y="326.4">r</tspan><tspan class="cls-37" x="-34.9" y="326.4">i</tspan><tspan class="cls-89" x="-27.58" y="326.4">e</tspan><tspan class="cls-90" x="-15.22" y="326.4">r</tspan><tspan x="-6.21" y="326.4">, </tspan><tspan class="cls-16" x="5.57" y="326.4">a</tspan><tspan class="cls-69" x="18.93" y="326.4">n</tspan><tspan x="33.89" y="326.4">d </tspan><tspan class="cls-91" x="53.98" y="326.4">d</tspan><tspan class="cls-83" x="67.81" y="326.4">o</tspan><tspan class="cls-92" x="80.92" y="326.4">n</tspan><tspan class="cls-93" x="94.83" y="326.4">’</tspan><tspan x="100.01" y="326.4">t </tspan><tspan class="cls-94" x="114.84" y="326.4">s</tspan><tspan class="cls-40" x="127.07" y="326.4">h</tspan><tspan class="cls-87" x="142.3" y="326.4">a</tspan><tspan class="cls-22" x="155.43" y="326.4">r</tspan><tspan x="165.21" y="326.4">e a </tspan><tspan class="cls-12" x="-82.2" y="355.2">d</tspan><tspan class="cls-13" x="-68.39" y="355.2">e</tspan><tspan class="cls-14" x="-55.8" y="355.2">n</tspan><tspan class="cls-15" x="-41.28" y="355.2">t</tspan><tspan class="cls-16" x="-32.53" y="355.2">a</tspan><tspan x="-19.17" y="355.2">l </tspan><tspan class="cls-17" x="-5.64" y="355.2">d</tspan><tspan class="cls-18" x="8.55" y="355.2">a</tspan><tspan x="21.92" y="355.2">m </tspan><tspan class="cls-95" x="50.13" y="355.2">w</tspan><tspan class="cls-96" x="69.58" y="355.2">i</tspan><tspan class="cls-39" x="76.7" y="355.2">t</tspan><tspan x="85.77" y="355.2">h </tspan><tspan class="cls-12" x="106.91" y="355.2">y</tspan><tspan class="cls-97" x="120.72" y="355.2">o</tspan><tspan class="cls-47" x="133.82" y="355.2">u</tspan><tspan x="148.64" y="355.2">r </tspan><tspan class="cls-98" x="164.63" y="355.2">p</tspan><tspan class="cls-87" x="178.92" y="355.2">a</tspan><tspan class="cls-99" x="192.04" y="355.2">r</tspan><tspan class="cls-39" x="202.41" y="355.2">t</tspan><tspan class="cls-12" x="211.48" y="355.2">n</tspan><tspan class="cls-38" x="226.32" y="355.2">e</tspan><tspan class="cls-100" x="238.68" y="355.2">r</tspan><tspan x="247.79" y="355.2">.</tspan></tspan></text></svg>