<?xml version="1.0" encoding="utf-8"?>
<!-- Generator: Adobe Illustrator 22.0.1, SVG Export Plug-In . SVG Version: 6.00 Build 0)  -->
<!DOCTYPE svg PUBLIC "-//W3C//DTD SVG 1.1//EN" "http://www.w3.org/Graphics/SVG/1.1/DTD/svg11.dtd">
<svg version="1.1" id="Layer_1" xmlns="http://www.w3.org/2000/svg" xmlns:xlink="http://www.w3.org/1999/xlink" x="0px" y="0px"
	 viewBox="0 0 611.8 611.8" style="enable-background:new 0 0 611.8 611.8;" xml:space="preserve">
<style type="text/css">
	.st0{fill:#F5FAF8;stroke:#6DC065;stroke-width:11.8;stroke-linecap:round;stroke-linejoin:round;}
	.st1{fill:#6DC065;}
</style>
<title>std web mockupsasfd</title>
<path class="st0" d="M305.9,5.9L305.9,5.9c165.7,0,300,134.3,300,300l0,0c0,165.7-134.3,300-300,300l0,0c-165.7,0-300-134.3-300-300
	l0,0C5.9,140.2,140.2,5.9,305.9,5.9z"/>
<path class="st1" d="M221.7,92.1c2.8,0,5.1,0.9,6.9,2.7c1.8,1.8,2.7,4.1,2.7,6.8v3.8c0,2.8-0.9,5.1-2.7,6.8
	c-1.8,1.8-4.1,2.6-6.9,2.6h-10.2v-2.7l2.4-0.5V95.3l-2.4-0.5V92h2.4L221.7,92.1L221.7,92.1z M218.4,95.6v15.7h3
	c1.6,0,2.9-0.6,3.8-1.7c0.9-1.1,1.4-2.5,1.4-4.3v-3.8c0-1.8-0.5-3.2-1.4-4.3c-0.9-1.1-2.2-1.7-3.8-1.7h-3V95.6z"/>
<path class="st1" d="M241.6,115.2c-2.4,0-4.4-0.8-5.8-2.3c-1.5-1.6-2.2-3.5-2.2-6v-0.6c0-2.5,0.7-4.6,2.1-6.2
	c1.4-1.6,3.2-2.4,5.6-2.4c2.3,0,4.1,0.7,5.3,2.1c1.3,1.4,1.9,3.2,1.9,5.6v2.5h-10.1v0.1c0.1,1.1,0.5,2,1.1,2.8
	c0.7,0.7,1.6,1.1,2.7,1.1c1,0,1.8-0.1,2.5-0.3c0.7-0.2,1.4-0.5,2.2-1l1.2,2.8c-0.7,0.6-1.6,1-2.7,1.4S242.9,115.2,241.6,115.2z
	 M241.2,101.1c-0.8,0-1.5,0.3-2,1c-0.5,0.6-0.8,1.5-0.9,2.5v0.1h5.6v-0.4c0-1-0.2-1.7-0.7-2.3S242.1,101.1,241.2,101.1z"/>
<path class="st1" d="M249.9,112.1l2.2-0.5v-10.5l-2.4-0.5v-2.8h6.7l0.2,2.4c0.6-0.9,1.3-1.5,2.1-2c0.8-0.5,1.7-0.7,2.8-0.7
	c1.7,0,3,0.5,4,1.6s1.4,2.8,1.4,5v7.4l2.2,0.5v2.7h-8.7V112l2-0.5v-7.3c0-1.1-0.2-1.9-0.7-2.4s-1.2-0.7-2.1-0.7
	c-0.6,0-1.1,0.1-1.6,0.4c-0.5,0.2-0.9,0.6-1.2,1v9.1l1.8,0.5v2.7H250L249.9,112.1L249.9,112.1z"/>
<path class="st1" d="M276.2,93.8v4.1h3v3.2h-3v8.6c0,0.7,0.1,1.1,0.4,1.4s0.6,0.4,1.1,0.4c0.3,0,0.6,0,0.8,0c0.2,0,0.5-0.1,0.8-0.1
	l0.4,3.3c-0.5,0.2-1,0.3-1.5,0.4s-1,0.1-1.6,0.1c-1.6,0-2.8-0.4-3.6-1.3c-0.8-0.9-1.3-2.2-1.3-4.1v-8.6h-2.5V98h2.5v-4.1L276.2,93.8
	L276.2,93.8L276.2,93.8z"/>
<path class="st1" d="M291.8,114.9c-0.1-0.3-0.2-0.6-0.3-0.9s-0.2-0.6-0.2-0.9c-0.5,0.6-1.2,1.1-2,1.5s-1.7,0.6-2.7,0.6
	c-1.7,0-3-0.5-3.9-1.4c-1-0.9-1.5-2.1-1.5-3.7s0.6-2.8,1.9-3.7c1.3-0.9,3.1-1.3,5.6-1.3h2.3v-1.7c0-0.8-0.2-1.4-0.7-1.9
	c-0.5-0.4-1.2-0.7-2.1-0.7c-0.5,0-1,0.1-1.4,0.2s-0.7,0.3-1,0.4l-0.3,1.8h-3.4v-3.8c0.8-0.6,1.8-1,2.9-1.4s2.3-0.6,3.5-0.6
	c2.1,0,3.8,0.5,5.1,1.5c1.3,1,2,2.5,2,4.4v7c0,0.3,0,0.5,0,0.7s0,0.4,0.1,0.7l1.4,0.2v2.7h-5.3V114.9z M287.9,111.8
	c0.7,0,1.3-0.1,1.9-0.4s1-0.7,1.3-1.1v-2.6h-2.3c-1,0-1.7,0.2-2.2,0.7s-0.8,1-0.8,1.6s0.2,1,0.6,1.3
	C286.7,111.6,287.2,111.8,287.9,111.8z"/>
<path class="st1" d="M298.3,93.2v-2.8h7v21.2l2.2,0.5v2.7h-9v-2.7l2.2-0.5v-18L298.3,93.2z"/>
<path class="st1" d="M327,92.1c2.8,0,5.1,0.9,6.9,2.7c1.8,1.8,2.7,4.1,2.7,6.8v3.8c0,2.8-0.9,5.1-2.7,6.8c-1.8,1.8-4.1,2.6-6.9,2.6
	h-10.2v-2.7l2.4-0.5V95.3l-2.4-0.5V92h2.4L327,92.1L327,92.1z M323.7,95.6v15.7h3c1.6,0,2.9-0.6,3.8-1.7s1.4-2.5,1.4-4.3v-3.8
	c0-1.8-0.5-3.2-1.4-4.3c-0.9-1.1-2.2-1.7-3.8-1.7h-3V95.6z"/>
<path class="st1" d="M349.3,114.9c-0.1-0.3-0.2-0.6-0.3-0.9s-0.2-0.6-0.2-0.9c-0.5,0.6-1.2,1.1-2,1.5s-1.7,0.6-2.7,0.6
	c-1.7,0-3-0.5-3.9-1.4c-1-0.9-1.5-2.1-1.5-3.7s0.6-2.8,1.9-3.7c1.3-0.9,3.1-1.3,5.6-1.3h2.3v-1.7c0-0.8-0.2-1.4-0.7-1.9
	c-0.5-0.4-1.2-0.7-2.1-0.7c-0.5,0-1,0.1-1.4,0.2s-0.7,0.3-1,0.4l-0.3,1.8h-3.4v-3.8c0.8-0.6,1.8-1,2.9-1.4s2.3-0.6,3.5-0.6
	c2.1,0,3.8,0.5,5.1,1.5c1.3,1,2,2.5,2,4.4v7c0,0.3,0,0.5,0,0.7s0,0.4,0.1,0.7l1.4,0.2v2.7h-5.3V114.9z M345.4,111.8
	c0.7,0,1.3-0.1,1.9-0.4s1-0.7,1.3-1.1v-2.6h-2.3c-1,0-1.7,0.2-2.2,0.7s-0.8,1-0.8,1.6s0.2,1,0.6,1.3
	C344.2,111.6,344.7,111.8,345.4,111.8z"/>
<path class="st1" d="M355.8,100.7v-2.8h6.7l0.2,2.2c0.5-0.8,1.2-1.4,2-1.9c0.8-0.4,1.8-0.7,2.8-0.7c1.1,0,2,0.2,2.8,0.7
	s1.4,1.2,1.8,2.2c0.5-0.9,1.2-1.6,2-2.1s1.8-0.8,2.9-0.8c1.7,0,3,0.6,3.9,1.7c1,1.2,1.4,2.9,1.4,5.3v7l2.2,0.5v2.7h-8.7V112l2-0.5
	v-7c0-1.3-0.2-2.2-0.6-2.7s-1-0.8-1.9-0.8c-0.6,0-1.2,0.1-1.7,0.4s-0.9,0.7-1.1,1.2c0,0.2,0,0.4,0,0.5s0,0.3,0,0.4v7.9l1.8,0.5v2.7
	h-8.2v-2.7l1.8-0.5v-7c0-1.2-0.2-2.1-0.6-2.6s-1-0.8-1.9-0.8c-0.6,0-1.2,0.1-1.6,0.4s-0.8,0.6-1.1,1v9.1l2,0.5v2.7H356V112l2.2-0.5
	V101L355.8,100.7z"/>
<path class="st1" d="M399.6,103.8h-3.1l-0.5-2.1c-0.3-0.2-0.7-0.5-1.2-0.6c-0.5-0.2-1-0.2-1.6-0.2c-0.8,0-1.4,0.2-1.9,0.5
	s-0.7,0.8-0.7,1.4c0,0.5,0.2,0.9,0.7,1.3c0.4,0.3,1.3,0.6,2.7,0.9c2.1,0.4,3.6,1,4.7,1.8c1,0.8,1.5,1.9,1.5,3.3c0,1.5-0.7,2.8-2,3.7
	c-1.3,1-3,1.4-5.2,1.4c-1.3,0-2.5-0.2-3.6-0.6s-2.1-0.9-2.9-1.6v-3.8h3.2l0.6,2.2c0.3,0.2,0.6,0.4,1.1,0.5s1,0.2,1.5,0.2
	c0.9,0,1.6-0.2,2.1-0.5s0.7-0.8,0.7-1.4c0-0.5-0.2-0.9-0.7-1.3s-1.4-0.7-2.7-1c-2-0.4-3.5-1-4.5-1.8s-1.5-1.9-1.5-3.3
	s0.6-2.6,1.8-3.7c1.2-1,2.8-1.5,5-1.5c1.3,0,2.6,0.2,3.7,0.5c1.2,0.4,2.1,0.8,2.8,1.4V103.8z"/>
<path class="st1" d="M148.9,180l1.2-0.2l5.2-14.8h3.5l5.2,14.8l1.2,0.2v2.1h-5.8V180l1.2-0.2l-0.8-2.3h-5.5l-0.8,2.3l1.2,0.2v2.1
	h-5.8L148.9,180L148.9,180z M155,174.9h3.9l-1.9-6l0,0L155,174.9z"/>
<path class="st1" d="M180.5,180.5c-0.4,0.6-0.9,1-1.4,1.3s-1.2,0.5-1.9,0.5c-1.6,0-2.8-0.6-3.6-1.7s-1.3-2.6-1.3-4.5v-0.2
	c0-2,0.4-3.6,1.3-4.8s2.1-1.8,3.7-1.8c0.6,0,1.2,0.1,1.7,0.4s1,0.7,1.3,1.2v-4.5l-1.8-0.4v-2.1h1.8h3.4v15.9l1.6,0.4v2.1h-4.6
	L180.5,180.5z M175.7,176.1c0,1.1,0.2,2,0.6,2.6s1,1,1.8,1c0.5,0,0.9-0.1,1.3-0.3s0.7-0.5,0.9-0.9v-5.4c-0.2-0.4-0.5-0.7-0.9-0.9
	s-0.8-0.3-1.3-0.3c-0.8,0-1.4,0.4-1.8,1.1s-0.6,1.7-0.6,2.9V176.1z"/>
<path class="st1" d="M192.1,182.3c-1.8,0-3.3-0.6-4.4-1.8s-1.6-2.7-1.6-4.5v-0.5c0-1.9,0.5-3.4,1.6-4.7s2.4-1.8,4.2-1.8
	c1.7,0,3,0.5,4,1.5s1.4,2.4,1.4,4.2v1.9h-7.6v0.1c0.1,0.8,0.3,1.5,0.8,2.1s1.2,0.8,2,0.8s1.4-0.1,1.9-0.2s1-0.4,1.6-0.7l0.9,2.1
	c-0.5,0.4-1.2,0.8-2,1S193.1,182.3,192.1,182.3z M191.8,171.8c-0.6,0-1.1,0.2-1.5,0.7s-0.6,1.1-0.7,1.9v0.1h4.2v-0.3
	c0-0.7-0.2-1.3-0.5-1.7S192.5,171.8,191.8,171.8z"/>
<path class="st1" d="M198.4,180l1.6-0.4v-7.9l-1.8-0.4v-2.1h5l0.2,1.8c0.4-0.6,0.9-1.2,1.6-1.5s1.3-0.5,2.1-0.5c1.3,0,2.3,0.4,3,1.2
	s1.1,2.1,1.1,3.8v5.5l1.6,0.4v2.1h-6.5v-2l1.5-0.4v-5.5c0-0.9-0.2-1.5-0.5-1.8s-0.9-0.5-1.6-0.5c-0.5,0-0.9,0.1-1.2,0.3
	s-0.7,0.4-0.9,0.8v6.8l1.4,0.4v2.1h-6.4V180H198.4z"/>
<path class="st1" d="M218.2,166.3v3.1h2.2v2.4h-2.2v6.5c0,0.5,0.1,0.8,0.3,1.1s0.5,0.3,0.8,0.3c0.2,0,0.4,0,0.6,0s0.4-0.1,0.6-0.1
	l0.3,2.5c-0.4,0.1-0.8,0.2-1.1,0.3s-0.8,0.1-1.2,0.1c-1.2,0-2.1-0.3-2.7-1s-1-1.7-1-3.1v-6.5h-1.9v-2.4h1.9v-3.1h3.4L218.2,166.3
	L218.2,166.3z"/>
<path class="st1" d="M230,182c-0.1-0.2-0.2-0.4-0.2-0.7s-0.1-0.4-0.2-0.7c-0.4,0.5-0.9,0.8-1.5,1.1s-1.2,0.4-2,0.4
	c-1.2,0-2.2-0.3-3-1s-1.1-1.6-1.1-2.8s0.5-2.1,1.4-2.8s2.4-1,4.2-1h1.7v-1.2c0-0.6-0.2-1.1-0.5-1.4s-0.9-0.5-1.6-0.5
	c-0.4,0-0.7,0-1,0.1s-0.6,0.2-0.7,0.3l-0.2,1.4h-2.6v-2.8c0.6-0.4,1.3-0.8,2.2-1.1s1.7-0.4,2.6-0.4c1.6,0,2.8,0.4,3.8,1.2
	s1.5,1.9,1.5,3.3v5.2c0,0.2,0,0.4,0,0.6s0,0.3,0,0.5l1,0.1v2.1L230,182L230,182z M227,179.8c0.5,0,1-0.1,1.4-0.3s0.8-0.5,1-0.8v-1.9
	h-1.7c-0.7,0-1.3,0.2-1.7,0.5s-0.6,0.7-0.6,1.2c0,0.4,0.1,0.8,0.4,1S226.5,179.8,227,179.8z"/>
<path class="st1" d="M234.9,165.8v-2.1h5.2v15.9l1.7,0.4v2.1h-6.7V180l1.7-0.4v-13.5L234.9,165.8z"/>
<path class="st1" d="M257,180.5c-0.4,0.6-0.9,1-1.4,1.3s-1.2,0.5-1.9,0.5c-1.6,0-2.8-0.6-3.6-1.7s-1.3-2.6-1.3-4.5v-0.2
	c0-2,0.4-3.6,1.3-4.8s2.1-1.8,3.7-1.8c0.6,0,1.2,0.1,1.7,0.4s1,0.7,1.3,1.2v-4.5L255,166v-2.1h1.8h3.4v15.9l1.6,0.4v2.1h-4.6
	L257,180.5z M252.3,176.1c0,1.1,0.2,2,0.6,2.6s1,1,1.8,1c0.5,0,0.9-0.1,1.3-0.3s0.7-0.5,0.9-0.9v-5.4c-0.2-0.4-0.5-0.7-0.9-0.9
	s-0.8-0.3-1.3-0.3c-0.8,0-1.4,0.4-1.8,1.1s-0.6,1.7-0.6,2.9L252.3,176.1L252.3,176.1z"/>
<path class="st1" d="M271.1,182c-0.1-0.2-0.2-0.4-0.2-0.7s-0.1-0.4-0.2-0.7c-0.4,0.5-0.9,0.8-1.5,1.1s-1.2,0.4-2,0.4
	c-1.2,0-2.2-0.3-3-1s-1.1-1.6-1.1-2.8s0.5-2.1,1.4-2.8s2.4-1,4.2-1h1.7v-1.2c0-0.6-0.2-1.1-0.5-1.4s-0.9-0.5-1.6-0.5
	c-0.4,0-0.7,0-1,0.1s-0.6,0.2-0.7,0.3l-0.2,1.4h-2.6v-2.8c0.6-0.4,1.3-0.8,2.2-1.1s1.7-0.4,2.6-0.4c1.6,0,2.8,0.4,3.8,1.2
	s1.5,1.9,1.5,3.3v5.2c0,0.2,0,0.4,0,0.6s0,0.3,0,0.5l1,0.1v2.1L271.1,182L271.1,182z M268.1,179.8c0.5,0,1-0.1,1.4-0.3
	s0.8-0.5,1-0.8v-1.9h-1.7c-0.7,0-1.3,0.2-1.7,0.5s-0.6,0.7-0.6,1.2c0,0.4,0.1,0.8,0.4,1S267.6,179.8,268.1,179.8z"/>
<path class="st1" d="M275.9,171.4v-2.1h5l0.1,1.7c0.4-0.6,0.9-1.1,1.5-1.4s1.3-0.5,2.1-0.5c0.8,0,1.5,0.2,2.1,0.5s1,0.9,1.3,1.6
	c0.4-0.7,0.9-1.2,1.5-1.6s1.4-0.6,2.2-0.6c1.2,0,2.2,0.4,3,1.3s1.1,2.2,1.1,3.9v5.3l1.7,0.4v2.1H291v-2l1.5-0.4v-5.3
	c0-1-0.2-1.6-0.5-2s-0.8-0.6-1.4-0.6c-0.5,0-0.9,0.1-1.3,0.3s-0.6,0.5-0.8,0.9c0,0.1,0,0.3,0,0.4s0,0.2,0,0.3v5.9l1.4,0.4v2.1h-6.2
	v-2l1.4-0.4v-5.3c0-0.9-0.2-1.6-0.5-2s-0.8-0.6-1.4-0.6c-0.5,0-0.9,0.1-1.2,0.3s-0.6,0.4-0.9,0.7v6.8l1.5,0.4v2.1h-6.5v-2l1.7-0.4
	v-7.9L275.9,171.4z"/>
<path class="st1" d="M304.5,180l1.7-0.4v-7.9l-1.8-0.4v-2.1h5.2v10.3l1.6,0.4v2.1h-6.7L304.5,180L304.5,180z M309.5,166.3h-3.4v-2.6
	h3.4V166.3z"/>
<path class="st1" d="M322.4,173.7h-2.3l-0.4-1.6c-0.2-0.2-0.5-0.3-0.9-0.5s-0.7-0.2-1.2-0.2c-0.6,0-1.1,0.1-1.4,0.4s-0.5,0.6-0.5,1
	s0.2,0.7,0.5,1s1,0.5,2,0.7c1.6,0.3,2.7,0.8,3.5,1.4s1.1,1.4,1.1,2.5s-0.5,2.1-1.5,2.8s-2.3,1.1-3.9,1.1c-1,0-1.9-0.1-2.7-0.4
	s-1.5-0.7-2.2-1.2v-2.8h2.4l0.5,1.7c0.2,0.2,0.5,0.3,0.8,0.4s0.7,0.1,1.1,0.1c0.7,0,1.2-0.1,1.6-0.4s0.5-0.6,0.5-1s-0.2-0.7-0.6-1
	s-1-0.5-2-0.7c-1.5-0.3-2.6-0.8-3.4-1.4s-1.1-1.4-1.1-2.4c0-1.1,0.4-2,1.3-2.7s2.1-1.2,3.7-1.2c1,0,1.9,0.1,2.8,0.4s1.6,0.6,2.1,1
	L322.4,173.7z"/>
<path class="st1" d="M338.4,182c-0.1-0.2-0.2-0.4-0.2-0.7s-0.1-0.4-0.2-0.7c-0.4,0.5-0.9,0.8-1.5,1.1s-1.2,0.4-2,0.4
	c-1.2,0-2.2-0.3-3-1s-1.1-1.6-1.1-2.8s0.5-2.1,1.4-2.8s2.4-1,4.2-1h1.7v-1.2c0-0.6-0.2-1.1-0.5-1.4s-0.9-0.5-1.6-0.5
	c-0.4,0-0.7,0-1,0.1s-0.6,0.2-0.7,0.3l-0.2,1.4h-2.6v-2.8c0.6-0.4,1.3-0.8,2.2-1.1s1.7-0.4,2.6-0.4c1.6,0,2.8,0.4,3.8,1.2
	s1.5,1.9,1.5,3.3v5.2c0,0.2,0,0.4,0,0.6s0,0.3,0,0.5l1,0.1v2.1L338.4,182L338.4,182z M335.4,179.8c0.5,0,1-0.1,1.4-0.3
	s0.8-0.5,1-0.8v-1.9h-1.7c-0.7,0-1.3,0.2-1.7,0.5s-0.6,0.7-0.6,1.2c0,0.4,0.1,0.8,0.4,1S334.9,179.8,335.4,179.8z"/>
<path class="st1" d="M359.7,173.7h-2.3l-0.4-1.6c-0.2-0.2-0.5-0.3-0.9-0.5s-0.7-0.2-1.2-0.2c-0.6,0-1.1,0.1-1.4,0.4s-0.5,0.6-0.5,1
	s0.2,0.7,0.5,1s1,0.5,2,0.7c1.6,0.3,2.7,0.8,3.5,1.4s1.1,1.4,1.1,2.5s-0.5,2.1-1.5,2.8s-2.3,1.1-3.9,1.1c-1,0-1.9-0.1-2.7-0.4
	s-1.5-0.7-2.2-1.2v-2.8h2.4l0.5,1.7c0.2,0.2,0.5,0.3,0.8,0.4s0.7,0.1,1.1,0.1c0.7,0,1.2-0.1,1.6-0.4s0.5-0.6,0.5-1s-0.2-0.7-0.6-1
	s-1-0.5-2-0.7c-1.5-0.3-2.6-0.8-3.4-1.4s-1.1-1.4-1.1-2.4c0-1.1,0.4-2,1.3-2.7s2.1-1.2,3.7-1.2c1,0,1.9,0.1,2.8,0.4s1.6,0.6,2.1,1
	L359.7,173.7z"/>
<path class="st1" d="M366.5,166.3v3.1h2.2v2.4h-2.2v6.5c0,0.5,0.1,0.8,0.3,1.1s0.5,0.3,0.8,0.3c0.2,0,0.4,0,0.6,0s0.4-0.1,0.6-0.1
	l0.3,2.5c-0.4,0.1-0.8,0.2-1.1,0.3s-0.8,0.1-1.2,0.1c-1.2,0-2.1-0.3-2.7-1s-1-1.7-1-3.1v-6.5h-1.9v-2.4h1.9v-3.1h3.4L366.5,166.3
	L366.5,166.3z"/>
<path class="st1" d="M370.6,180l1.6-0.4v-7.9l-1.8-0.4v-2.1h5l0.2,1.9c0.3-0.7,0.7-1.2,1.1-1.5s1-0.6,1.6-0.6c0.2,0,0.4,0,0.6,0
	s0.4,0.1,0.5,0.1l-0.4,3.1h-1.4c-0.5,0-0.9,0.1-1.2,0.3s-0.6,0.5-0.8,0.8v6.2l1.6,0.4v2.1h-6.7L370.6,180L370.6,180z"/>
<path class="st1" d="M386.2,182.3c-1.8,0-3.3-0.6-4.4-1.8s-1.6-2.7-1.6-4.5v-0.5c0-1.9,0.5-3.4,1.6-4.7s2.4-1.8,4.2-1.8
	c1.7,0,3,0.5,4,1.5s1.4,2.4,1.4,4.2v1.9h-7.6v0.1c0.1,0.8,0.3,1.5,0.8,2.1s1.2,0.8,2,0.8s1.4-0.1,1.9-0.2s1-0.4,1.6-0.7l0.9,2.1
	c-0.5,0.4-1.2,0.8-2,1S387.2,182.3,386.2,182.3z M385.9,171.8c-0.6,0-1.1,0.2-1.5,0.7s-0.6,1.1-0.7,1.9v0.1h4.2v-0.3
	c0-0.7-0.2-1.3-0.5-1.7S386.6,171.8,385.9,171.8z"/>
<path class="st1" d="M397.7,166.3v3.1h2.2v2.4h-2.2v6.5c0,0.5,0.1,0.8,0.3,1.1s0.5,0.3,0.8,0.3c0.2,0,0.4,0,0.6,0s0.4-0.1,0.6-0.1
	l0.3,2.5c-0.4,0.1-0.8,0.2-1.1,0.3s-0.8,0.1-1.2,0.1c-1.2,0-2.1-0.3-2.7-1s-1-1.7-1-3.1v-6.5h-1.9v-2.4h1.9v-3.1h3.4L397.7,166.3
	L397.7,166.3z"/>
<path class="st1" d="M407,179.7c0.6,0,1.1-0.2,1.5-0.5s0.6-0.8,0.6-1.4h3.1v0.1c0,1.3-0.4,2.4-1.4,3.2s-2.2,1.3-3.7,1.3
	c-1.9,0-3.3-0.6-4.4-1.8s-1.5-2.7-1.5-4.6v-0.4c0-1.9,0.5-3.4,1.6-4.6s2.5-1.8,4.5-1.8c1,0,1.9,0.2,2.8,0.5s1.5,0.7,2,1.3v3.4h-2.8
	l-0.6-2c-0.2-0.1-0.4-0.3-0.6-0.4s-0.5-0.1-0.9-0.1c-1,0-1.7,0.4-2.1,1.1s-0.6,1.6-0.6,2.7v0.4c0,1.1,0.2,2,0.6,2.7
	S406.1,179.7,407,179.7z"/>
<path class="st1" d="M413.3,180l1.7-0.4v-13.5l-1.8-0.4v-2.1h5.2v7.2c0.4-0.6,0.9-1,1.5-1.4s1.2-0.5,1.9-0.5c1.3,0,2.4,0.4,3.1,1.3
	s1.1,2.2,1.1,4.1v5.1l1.6,0.4v2.1h-6.5V180l1.5-0.4v-5.1c0-1-0.2-1.7-0.5-2.1s-0.9-0.6-1.6-0.6c-0.5,0-0.9,0.1-1.2,0.3
	s-0.7,0.4-0.9,0.7v6.9l1.5,0.4v2.1h-6.5V180H413.3z"/>
<path class="st1" d="M441.2,171.4l-1.2,0.2l-4.7,12.3c-0.4,0.9-0.9,1.7-1.5,2.3s-1.5,0.9-2.8,0.9c-0.3,0-0.6,0-0.8-0.1
	s-0.6-0.1-0.9-0.2l0.4-2.5c0.1,0,0.2,0,0.3,0s0.2,0,0.3,0c0.6,0,1-0.1,1.3-0.4s0.5-0.6,0.7-1l0.4-1l-4-10.4l-1.2-0.2v-2.1h6.2v2.1
	l-1.4,0.2l1.7,5.1l0.2,0.9h0.1l2-6l-1.4-0.2v-2.1h6.2L441.2,171.4L441.2,171.4z"/>
<path class="st1" d="M444.3,181.6c0,0.8-0.2,1.6-0.7,2.5s-1,1.6-1.6,2.2l-1.7-0.9c0.3-0.5,0.5-1.1,0.7-1.7s0.2-1.2,0.2-2v-2.6h3.1
	V181.6z"/>
<path class="st1" d="M138.1,195.1c-0.4-0.1-0.9-0.1-1.4-0.1c-0.9,0-1.5,0.2-2,0.7s-0.7,1.1-0.7,1.9v0.6h2.8v2.4H134v7.9l1.7,0.4v2.1
	h-6.9v-2.1l1.8-0.4v-7.9H129v-2.4h1.6v-0.6c0-1.7,0.5-3,1.5-3.9s2.5-1.4,4.3-1.4c0.7,0,1.3,0.1,2,0.2s1.4,0.3,2.3,0.5h2v15.4
	l1.7,0.4v2.1h-6.7v-2.1l1.7-0.4v-13.1C139,195.2,138.5,195.2,138.1,195.1z"/>
<path class="st1" d="M153.7,210.9c-0.1-0.2-0.2-0.4-0.2-0.7s-0.1-0.4-0.2-0.7c-0.4,0.5-0.9,0.8-1.5,1.1s-1.2,0.4-2,0.4
	c-1.2,0-2.2-0.3-3-1s-1.1-1.6-1.1-2.8s0.5-2.1,1.4-2.8s2.4-1,4.2-1h1.7v-1.2c0-0.6-0.2-1.1-0.5-1.4s-0.9-0.5-1.6-0.5
	c-0.4,0-0.7,0-1,0.1s-0.6,0.2-0.7,0.3l-0.2,1.4h-2.6v-2.8c0.6-0.4,1.3-0.8,2.2-1.1s1.7-0.4,2.6-0.4c1.6,0,2.8,0.4,3.8,1.2
	s1.5,1.9,1.5,3.3v5.2c0,0.2,0,0.4,0,0.6s0,0.3,0,0.5l1,0.1v2.1L153.7,210.9L153.7,210.9z M150.7,208.6c0.5,0,1-0.1,1.4-0.3
	s0.8-0.5,1-0.8v-1.9h-1.7c-0.7,0-1.3,0.2-1.7,0.5s-0.6,0.7-0.6,1.2c0,0.4,0.1,0.8,0.4,1S150.3,208.6,150.7,208.6z"/>
<path class="st1" d="M163.4,195.1v3.1h2.2v2.4h-2.2v6.5c0,0.5,0.1,0.8,0.3,1.1s0.5,0.3,0.8,0.3c0.2,0,0.4,0,0.6,0s0.4-0.1,0.6-0.1
	l0.3,2.5c-0.4,0.1-0.8,0.2-1.1,0.3s-0.8,0.1-1.2,0.1c-1.2,0-2.1-0.3-2.7-1s-1-1.7-1-3.1v-6.5h-1.9v-2.4h1.9v-3.1h3.4L163.4,195.1
	L163.4,195.1z"/>
<path class="st1" d="M172.8,194.6v-2.1h5.2v15.9l1.7,0.4v2.1H173v-2.1l1.7-0.4V195L172.8,194.6z"/>
<path class="st1" d="M188.9,210.9c-0.1-0.2-0.2-0.4-0.2-0.7s-0.1-0.4-0.2-0.7c-0.4,0.5-0.9,0.8-1.5,1.1s-1.2,0.4-2,0.4
	c-1.2,0-2.2-0.3-3-1s-1.1-1.6-1.1-2.8s0.5-2.1,1.4-2.8s2.4-1,4.2-1h1.7v-1.2c0-0.6-0.2-1.1-0.5-1.4s-0.9-0.5-1.6-0.5
	c-0.4,0-0.7,0-1,0.1s-0.6,0.2-0.7,0.3l-0.2,1.4h-2.6v-2.8c0.6-0.4,1.3-0.8,2.2-1.1s1.7-0.4,2.6-0.4c1.6,0,2.8,0.4,3.8,1.2
	s1.5,1.9,1.5,3.3v5.2c0,0.2,0,0.4,0,0.6s0,0.3,0,0.5l1,0.1v2.1L188.9,210.9L188.9,210.9z M185.9,208.6c0.5,0,1-0.1,1.4-0.3
	s0.8-0.5,1-0.8v-1.9h-1.7c-0.7,0-1.3,0.2-1.7,0.5s-0.6,0.7-0.6,1.2c0,0.4,0.1,0.8,0.4,1S185.4,208.6,185.9,208.6z"/>
<path class="st1" d="M198.6,195.1v3.1h2.2v2.4h-2.2v6.5c0,0.5,0.1,0.8,0.3,1.1s0.5,0.3,0.8,0.3c0.2,0,0.4,0,0.6,0s0.4-0.1,0.6-0.1
	l0.3,2.5c-0.4,0.1-0.8,0.2-1.1,0.3s-0.8,0.1-1.2,0.1c-1.2,0-2.1-0.3-2.7-1s-1-1.7-1-3.1v-6.5h-1.9v-2.4h1.9v-3.1h3.4L198.6,195.1
	L198.6,195.1z"/>
<path class="st1" d="M208.1,211.1c-1.8,0-3.3-0.6-4.4-1.8s-1.6-2.7-1.6-4.5v-0.5c0-1.9,0.5-3.4,1.6-4.7s2.4-1.8,4.2-1.8
	c1.7,0,3,0.5,4,1.5s1.4,2.4,1.4,4.2v1.9h-7.6v0.1c0.1,0.8,0.3,1.5,0.8,2.1s1.2,0.8,2,0.8s1.4-0.1,1.9-0.2s1-0.4,1.6-0.7l0.9,2.1
	c-0.5,0.4-1.2,0.8-2,1S209.1,211.1,208.1,211.1z M207.8,200.6c-0.6,0-1.1,0.2-1.5,0.7s-0.6,1.1-0.7,1.9v0.1h4.2V203
	c0-0.7-0.2-1.3-0.5-1.7S208.5,200.6,207.8,200.6z"/>
<path class="st1" d="M214.3,208.8l1.2-0.2l3.4-4.2l-3.3-4l-1.2-0.2v-2.1h5.7v2l-1.2,0.1l1.9,2.4l1.9-2.4l-1.2-0.1v-2h5.7v2.1
	l-1.1,0.2l-3.3,4l3.4,4.2l1.2,0.2v2.1h-5.8v-2l1.2-0.1l-2-2.6l-2,2.6l1,0.1v2h-5.6v-2.1H214.3z"/>
<path class="st1" d="M246.8,204.9c0,1.9-0.4,3.4-1.3,4.5s-2.1,1.7-3.7,1.7c-0.7,0-1.4-0.2-1.9-0.5s-1-0.8-1.4-1.3l-0.2,1.6h-3V195
	l-1.8-0.4v-2.1h5.2v6.9c0.4-0.5,0.8-0.9,1.3-1.2s1.1-0.4,1.8-0.4c1.6,0,2.8,0.6,3.7,1.8s1.3,2.8,1.3,4.9L246.8,204.9L246.8,204.9z
	 M243.4,204.6c0-1.2-0.2-2.2-0.5-2.9s-1-1.1-1.9-1.1c-0.5,0-1,0.1-1.3,0.3s-0.7,0.5-0.9,1v5.4c0.2,0.4,0.5,0.7,0.9,0.9
	s0.8,0.3,1.4,0.3c0.9,0,1.5-0.3,1.9-0.9s0.5-1.5,0.5-2.6L243.4,204.6L243.4,204.6z"/>
<path class="st1" d="M256.2,210.9c-0.1-0.2-0.2-0.4-0.2-0.7s-0.1-0.4-0.2-0.7c-0.4,0.5-0.9,0.8-1.5,1.1s-1.2,0.4-2,0.4
	c-1.2,0-2.2-0.3-3-1s-1.1-1.6-1.1-2.8s0.5-2.1,1.4-2.8s2.4-1,4.2-1h1.7v-1.2c0-0.6-0.2-1.1-0.5-1.4s-0.9-0.5-1.6-0.5
	c-0.4,0-0.7,0-1,0.1s-0.6,0.2-0.7,0.3l-0.2,1.4h-2.6v-2.8c0.6-0.4,1.3-0.8,2.2-1.1s1.7-0.4,2.6-0.4c1.6,0,2.8,0.4,3.8,1.2
	s1.5,1.9,1.5,3.3v5.2c0,0.2,0,0.4,0,0.6s0,0.3,0,0.5l1,0.1v2.1L256.2,210.9L256.2,210.9z M253.2,208.6c0.5,0,1-0.1,1.4-0.3
	s0.8-0.5,1-0.8v-1.9h-1.7c-0.7,0-1.3,0.2-1.7,0.5s-0.6,0.7-0.6,1.2c0,0.4,0.1,0.8,0.4,1S252.7,208.6,253.2,208.6z"/>
<path class="st1" d="M261.5,208.8l1.6-0.4v-7.9l-1.8-0.4V198h5l0.2,1.9c0.3-0.7,0.7-1.2,1.1-1.5s1-0.6,1.6-0.6c0.2,0,0.4,0,0.6,0
	s0.4,0.1,0.5,0.1l-0.4,3.1h-1.4c-0.5,0-0.9,0.1-1.2,0.3s-0.6,0.5-0.8,0.8v6.2l1.6,0.4v2.1h-6.7L261.5,208.8L261.5,208.8z"/>
<path class="st1" d="M271.7,208.8l1.6-0.4v-7.9l-1.8-0.4V198h5l0.2,1.9c0.3-0.7,0.7-1.2,1.1-1.5s1-0.6,1.6-0.6c0.2,0,0.4,0,0.6,0
	s0.4,0.1,0.5,0.1l-0.4,3.1h-1.4c-0.5,0-0.9,0.1-1.2,0.3s-0.6,0.5-0.8,0.8v6.2l1.6,0.4v2.1h-6.7L271.7,208.8L271.7,208.8z"/>
<path class="st1" d="M281.7,208.8l1.7-0.4v-7.9l-1.8-0.4V198h5.2v10.3l1.6,0.4v2.1h-6.7L281.7,208.8L281.7,208.8z M286.8,195.1h-3.4
	v-2.6h3.4V195.1z"/>
<path class="st1" d="M295.2,211.1c-1.8,0-3.3-0.6-4.4-1.8s-1.6-2.7-1.6-4.5v-0.5c0-1.9,0.5-3.4,1.6-4.7s2.4-1.8,4.2-1.8
	c1.7,0,3,0.5,4,1.5s1.4,2.4,1.4,4.2v1.9h-7.6v0.1c0.1,0.8,0.3,1.5,0.8,2.1s1.2,0.8,2,0.8s1.4-0.1,1.9-0.2s1-0.4,1.6-0.7l0.9,2.1
	c-0.5,0.4-1.2,0.8-2,1S296.2,211.1,295.2,211.1z M294.9,200.6c-0.6,0-1.1,0.2-1.5,0.7s-0.6,1.1-0.7,1.9v0.1h4.2V203
	c0-0.7-0.2-1.3-0.5-1.7S295.6,200.6,294.9,200.6z"/>
<path class="st1" d="M301.8,208.8l1.6-0.4v-7.9l-1.8-0.4V198h5l0.2,1.9c0.3-0.7,0.7-1.2,1.1-1.5s1-0.6,1.6-0.6c0.2,0,0.4,0,0.6,0
	s0.4,0.1,0.5,0.1l-0.4,3.1h-1.4c-0.5,0-0.9,0.1-1.2,0.3s-0.6,0.5-0.8,0.8v6.2l1.6,0.4v2.1h-6.7L301.8,208.8L301.8,208.8z"/>
<path class="st1" d="M322.5,195.1v3.1h2.2v2.4h-2.2v6.5c0,0.5,0.1,0.8,0.3,1.1s0.5,0.3,0.8,0.3c0.2,0,0.4,0,0.6,0s0.4-0.1,0.6-0.1
	l0.3,2.5c-0.4,0.1-0.8,0.2-1.1,0.3s-0.8,0.1-1.2,0.1c-1.2,0-2.1-0.3-2.7-1s-1-1.7-1-3.1v-6.5h-1.9v-2.4h1.9v-3.1h3.4L322.5,195.1
	L322.5,195.1z"/>
<path class="st1" d="M326.4,208.8l1.7-0.4V195l-1.8-0.4v-2.1h5.2v7.2c0.4-0.6,0.9-1,1.5-1.4s1.2-0.5,1.9-0.5c1.3,0,2.4,0.4,3.1,1.3
	s1.1,2.2,1.1,4.1v5.1l1.6,0.4v2.1h-6.5v-2.1l1.5-0.4v-5.1c0-1-0.2-1.7-0.5-2.1s-0.9-0.6-1.6-0.6c-0.5,0-0.9,0.1-1.2,0.3
	s-0.7,0.4-0.9,0.7v6.9l1.5,0.4v2.1h-6.5v-2.1L326.4,208.8L326.4,208.8z"/>
<path class="st1" d="M349.9,210.9c-0.1-0.2-0.2-0.4-0.2-0.7s-0.1-0.4-0.2-0.7c-0.4,0.5-0.9,0.8-1.5,1.1s-1.2,0.4-2,0.4
	c-1.2,0-2.2-0.3-3-1s-1.1-1.6-1.1-2.8s0.5-2.1,1.4-2.8s2.4-1,4.2-1h1.7v-1.2c0-0.6-0.2-1.1-0.5-1.4s-0.9-0.5-1.6-0.5
	c-0.4,0-0.7,0-1,0.1s-0.6,0.2-0.7,0.3l-0.2,1.4h-2.6v-2.8c0.6-0.4,1.3-0.8,2.2-1.1s1.7-0.4,2.6-0.4c1.6,0,2.8,0.4,3.8,1.2
	s1.5,1.9,1.5,3.3v5.2c0,0.2,0,0.4,0,0.6s0,0.3,0,0.5l1,0.1v2.1L349.9,210.9L349.9,210.9z M346.9,208.6c0.5,0,1-0.1,1.4-0.3
	s0.8-0.5,1-0.8v-1.9h-1.7c-0.7,0-1.3,0.2-1.7,0.5s-0.6,0.7-0.6,1.2c0,0.4,0.1,0.8,0.4,1S346.4,208.6,346.9,208.6z"/>
<path class="st1" d="M359.6,195.1v3.1h2.2v2.4h-2.2v6.5c0,0.5,0.1,0.8,0.3,1.1s0.5,0.3,0.8,0.3c0.2,0,0.4,0,0.6,0s0.4-0.1,0.6-0.1
	l0.3,2.5c-0.4,0.1-0.8,0.2-1.1,0.3s-0.8,0.1-1.2,0.1c-1.2,0-2.1-0.3-2.7-1s-1-1.7-1-3.1v-6.5h-1.9v-2.4h1.9v-3.1h3.4L359.6,195.1
	L359.6,195.1z"/>
<path class="st1" d="M375.3,208.5c0.6,0,1.1-0.2,1.5-0.5s0.6-0.8,0.6-1.4h3.1v0.1c0,1.3-0.4,2.4-1.4,3.2s-2.2,1.3-3.7,1.3
	c-1.9,0-3.3-0.6-4.4-1.8s-1.5-2.7-1.5-4.6v-0.4c0-1.9,0.5-3.4,1.6-4.6s2.5-1.8,4.5-1.8c1,0,1.9,0.2,2.8,0.5s1.5,0.7,2,1.3v3.4h-2.8
	l-0.6-2c-0.2-0.1-0.4-0.3-0.6-0.4s-0.5-0.1-0.9-0.1c-1,0-1.7,0.4-2.1,1.1s-0.6,1.6-0.6,2.7v0.4c0,1.1,0.2,2,0.6,2.7
	S374.4,208.5,375.3,208.5z"/>
<path class="st1" d="M389.9,210.9c-0.1-0.2-0.2-0.4-0.2-0.7s-0.1-0.4-0.2-0.7c-0.4,0.5-0.9,0.8-1.5,1.1s-1.2,0.4-2,0.4
	c-1.2,0-2.2-0.3-3-1s-1.1-1.6-1.1-2.8s0.5-2.1,1.4-2.8s2.4-1,4.2-1h1.7v-1.2c0-0.6-0.2-1.1-0.5-1.4s-0.9-0.5-1.6-0.5
	c-0.4,0-0.7,0-1,0.1s-0.6,0.2-0.7,0.3l-0.2,1.4h-2.6v-2.8c0.6-0.4,1.3-0.8,2.2-1.1s1.7-0.4,2.6-0.4c1.6,0,2.8,0.4,3.8,1.2
	s1.5,1.9,1.5,3.3v5.2c0,0.2,0,0.4,0,0.6s0,0.3,0,0.5l1,0.1v2.1L389.9,210.9L389.9,210.9z M386.9,208.6c0.5,0,1-0.1,1.4-0.3
	s0.8-0.5,1-0.8v-1.9h-1.7c-0.7,0-1.3,0.2-1.7,0.5s-0.6,0.7-0.6,1.2c0,0.4,0.1,0.8,0.4,1S386.4,208.6,386.9,208.6z"/>
<path class="st1" d="M395,208.8l1.6-0.4v-7.9l-1.8-0.4V198h5l0.2,1.8c0.4-0.6,0.9-1.2,1.6-1.5s1.3-0.5,2.1-0.5c1.3,0,2.3,0.4,3,1.2
	s1.1,2.1,1.1,3.8v5.5l1.6,0.4v2.1h-6.5v-2.1l1.5-0.4v-5.5c0-0.9-0.2-1.5-0.5-1.8s-0.9-0.5-1.6-0.5c-0.5,0-0.9,0.1-1.2,0.3
	s-0.7,0.4-0.9,0.8v6.8l1.4,0.4v2.1H395V208.8z"/>
<path class="st1" d="M428.5,204.9c0,1.9-0.4,3.4-1.3,4.5s-2.1,1.7-3.7,1.7c-0.7,0-1.4-0.2-1.9-0.5s-1-0.8-1.4-1.3l-0.2,1.6h-3V195
	l-1.8-0.4v-2.1h5.2v6.9c0.4-0.5,0.8-0.9,1.3-1.2s1.1-0.4,1.8-0.4c1.6,0,2.8,0.6,3.7,1.8s1.3,2.8,1.3,4.9V204.9z M425.1,204.6
	c0-1.2-0.2-2.2-0.5-2.9s-1-1.1-1.9-1.1c-0.5,0-1,0.1-1.3,0.3s-0.7,0.5-0.9,1v5.4c0.2,0.4,0.5,0.7,0.9,0.9s0.8,0.3,1.4,0.3
	c0.9,0,1.5-0.3,1.9-0.9s0.5-1.5,0.5-2.6v-0.4H425.1z"/>
<path class="st1" d="M436.1,211.1c-1.8,0-3.3-0.6-4.4-1.8s-1.6-2.7-1.6-4.5v-0.5c0-1.9,0.5-3.4,1.6-4.7s2.4-1.8,4.2-1.8
	c1.7,0,3,0.5,4,1.5s1.4,2.4,1.4,4.2v1.9h-7.6v0.1c0.1,0.8,0.3,1.5,0.8,2.1s1.2,0.8,2,0.8s1.4-0.1,1.9-0.2s1-0.4,1.6-0.7l0.9,2.1
	c-0.5,0.4-1.2,0.8-2,1S437.1,211.1,436.1,211.1z M435.8,200.6c-0.6,0-1.1,0.2-1.5,0.7s-0.6,1.1-0.7,1.9v0.1h4.2V203
	c0-0.7-0.2-1.3-0.5-1.7S436.5,200.6,435.8,200.6z"/>
<path class="st1" d="M138,238c-0.4,0.6-0.9,1.1-1.5,1.4s-1.3,0.5-2,0.5c-1.3,0-2.4-0.4-3.1-1.3s-1.1-2.2-1.1-4v-5.2l-1.4-0.4v-2h1.4
	h3.4v7.7c0,0.9,0.2,1.6,0.5,2s0.8,0.6,1.4,0.6c0.5,0,1-0.1,1.4-0.3s0.7-0.4,1-0.8v-6.8l-1.5-0.4v-2h1.5h3.4v10.3l1.5,0.4v2.1h-4.5
	L138,238z"/>
<path class="st1" d="M154.1,231.3h-2.3l-0.4-1.6c-0.2-0.2-0.5-0.3-0.9-0.5s-0.7-0.2-1.2-0.2c-0.6,0-1.1,0.1-1.4,0.4s-0.5,0.6-0.5,1
	s0.2,0.7,0.5,1s1,0.5,2,0.7c1.6,0.3,2.7,0.8,3.5,1.4s1.1,1.4,1.1,2.5s-0.5,2.1-1.5,2.8s-2.3,1.1-3.9,1.1c-1,0-1.9-0.1-2.7-0.4
	s-1.5-0.7-2.2-1.2v-2.8h2.4l0.5,1.7c0.2,0.2,0.5,0.3,0.8,0.4s0.7,0.1,1.1,0.1c0.7,0,1.2-0.1,1.6-0.4s0.5-0.6,0.5-1s-0.2-0.7-0.6-1
	s-1-0.5-2-0.7c-1.5-0.3-2.6-0.8-3.4-1.4s-1.1-1.4-1.1-2.4c0-1.1,0.4-2,1.3-2.7s2.1-1.2,3.7-1.2c1,0,1.9,0.1,2.8,0.4s1.6,0.6,2.1,1
	L154.1,231.3z"/>
<path class="st1" d="M162,239.9c-1.8,0-3.3-0.6-4.4-1.8s-1.6-2.7-1.6-4.5v-0.5c0-1.9,0.5-3.4,1.6-4.7s2.4-1.8,4.2-1.8
	c1.7,0,3,0.5,4,1.5s1.4,2.4,1.4,4.2v1.9h-7.6v0.1c0.1,0.8,0.3,1.5,0.8,2.1s1.2,0.8,2,0.8s1.4-0.1,1.9-0.2s1-0.4,1.6-0.7l0.9,2.1
	c-0.5,0.4-1.2,0.8-2,1S163,239.9,162,239.9z M161.7,229.4c-0.6,0-1.1,0.2-1.5,0.7s-0.6,1.1-0.7,1.9v0.1h4.2v-0.3
	c0-0.7-0.2-1.3-0.5-1.7S162.4,229.4,161.7,229.4z"/>
<path class="st1" d="M176.9,238.1c-0.4,0.6-0.9,1-1.4,1.3s-1.2,0.5-1.9,0.5c-1.6,0-2.8-0.6-3.6-1.7s-1.3-2.6-1.3-4.5v-0.2
	c0-2,0.4-3.6,1.3-4.8s2.1-1.8,3.7-1.8c0.6,0,1.2,0.1,1.7,0.4s1,0.7,1.3,1.2V224l-1.8-0.4v-2.1h1.8h3.4v15.9l1.6,0.4v2.1h-4.6
	L176.9,238.1z M172.1,233.7c0,1.1,0.2,2,0.6,2.6s1,1,1.8,1c0.5,0,0.9-0.1,1.3-0.3s0.7-0.5,0.9-0.9v-5.4c-0.2-0.4-0.5-0.7-0.9-0.9
	s-0.8-0.3-1.3-0.3c-0.8,0-1.4,0.4-1.8,1.1s-0.6,1.7-0.6,2.9V233.7z"/>
<path class="st1" d="M197,238.1c-0.4,0.6-0.9,1-1.4,1.3s-1.2,0.5-1.9,0.5c-1.6,0-2.8-0.6-3.6-1.7s-1.3-2.6-1.3-4.5v-0.2
	c0-2,0.4-3.6,1.3-4.8s2.1-1.8,3.7-1.8c0.6,0,1.2,0.1,1.7,0.4s1,0.7,1.3,1.2V224l-1.8-0.4v-2.1h1.8h3.4v15.9l1.6,0.4v2.1h-4.6
	L197,238.1z M192.2,233.7c0,1.1,0.2,2,0.6,2.6s1,1,1.8,1c0.5,0,0.9-0.1,1.3-0.3s0.7-0.5,0.9-0.9v-5.4c-0.2-0.4-0.5-0.7-0.9-0.9
	s-0.8-0.3-1.3-0.3c-0.8,0-1.4,0.4-1.8,1.1s-0.6,1.7-0.6,2.9V233.7z"/>
<path class="st1" d="M211.3,238c-0.4,0.6-0.9,1.1-1.5,1.4s-1.3,0.5-2,0.5c-1.3,0-2.4-0.4-3.1-1.3s-1.1-2.2-1.1-4v-5.2l-1.4-0.4v-2
	h1.4h3.4v7.7c0,0.9,0.2,1.6,0.5,2s0.8,0.6,1.4,0.6c0.5,0,1-0.1,1.4-0.3s0.7-0.4,1-0.8v-6.8l-1.5-0.4v-2h1.5h3.4v10.3l1.5,0.4v2.1
	h-4.5L211.3,238z"/>
<path class="st1" d="M217.6,237.6l1.6-0.4v-7.9l-1.8-0.4V227h5l0.2,1.9c0.3-0.7,0.7-1.2,1.1-1.5s1-0.6,1.6-0.6c0.2,0,0.4,0,0.6,0
	s0.4,0.1,0.5,0.1L226,230h-1.4c-0.5,0-0.9,0.1-1.2,0.3s-0.6,0.5-0.8,0.8v6.2l1.6,0.4v2.1h-6.7L217.6,237.6L217.6,237.6z"/>
<path class="st1" d="M227.6,237.6l1.7-0.4v-7.9l-1.8-0.4V227h5.2v10.3l1.6,0.4v2.1h-6.7V237.6z M232.7,223.9h-3.4v-2.6h3.4V223.9z"
	/>
<path class="st1" d="M235.4,237.6l1.6-0.4v-7.9l-1.8-0.4V227h5l0.2,1.8c0.4-0.6,0.9-1.2,1.6-1.5s1.3-0.5,2.1-0.5
	c1.3,0,2.3,0.4,3,1.2s1.1,2.1,1.1,3.8v5.5l1.6,0.4v2.1h-6.5v-2.1l1.5-0.4v-5.5c0-0.9-0.2-1.5-0.5-1.8s-0.9-0.5-1.6-0.5
	c-0.5,0-0.9,0.1-1.2,0.3s-0.7,0.4-0.9,0.8v6.8l1.4,0.4v2.1h-6.4v-2.3H235.4z"/>
<path class="st1" d="M250.7,233.4c0-2,0.4-3.6,1.3-4.8s2.1-1.8,3.7-1.8c0.7,0,1.3,0.2,1.9,0.5s1,0.8,1.4,1.4l0.2-1.6h3v12.3
	c0,1.7-0.5,3-1.6,4s-2.5,1.5-4.3,1.5c-0.6,0-1.3-0.1-2-0.3s-1.4-0.4-2-0.7l0.6-2.4c0.5,0.2,1.1,0.4,1.6,0.6s1.1,0.2,1.7,0.2
	c0.8,0,1.5-0.3,1.9-0.8s0.6-1.2,0.6-2.1v-0.8c-0.4,0.5-0.8,0.8-1.3,1.1s-1.1,0.4-1.7,0.4c-1.6,0-2.8-0.6-3.6-1.7s-1.3-2.7-1.3-4.5
	v-0.5L250.7,233.4L250.7,233.4z M254.1,233.7c0,1.1,0.2,2,0.6,2.6s1,1,1.8,1c0.5,0,1-0.1,1.3-0.3s0.7-0.5,0.9-0.8v-5.5
	c-0.2-0.4-0.5-0.7-0.9-0.9s-0.8-0.3-1.3-0.3c-0.8,0-1.4,0.4-1.8,1.1s-0.6,1.7-0.6,2.9L254.1,233.7L254.1,233.7z"/>
<path class="st1" d="M270.1,233.2c0-1.9,0.5-3.4,1.6-4.6s2.5-1.8,4.4-1.8s3.3,0.6,4.4,1.8s1.6,2.8,1.6,4.7v0.2
	c0,1.9-0.5,3.5-1.6,4.7s-2.5,1.8-4.4,1.8s-3.4-0.6-4.4-1.8s-1.6-2.8-1.6-4.7V233.2z M273.5,233.4c0,1.2,0.2,2.1,0.6,2.8s1.1,1,2,1
	s1.5-0.4,1.9-1.1s0.6-1.6,0.6-2.8v-0.2c0-1.1-0.2-2-0.6-2.8s-1.1-1.1-2-1.1s-1.5,0.4-1.9,1.1s-0.6,1.6-0.6,2.8V233.4z"/>
<path class="st1" d="M283.2,237.6l1.6-0.4v-7.9l-1.8-0.4V227h5l0.2,1.9c0.3-0.7,0.7-1.2,1.1-1.5s1-0.6,1.6-0.6c0.2,0,0.4,0,0.6,0
	s0.4,0.1,0.5,0.1l-0.4,3.1h-1.4c-0.5,0-0.9,0.1-1.2,0.3s-0.6,0.5-0.8,0.8v6.2l1.6,0.4v2.1h-6.7L283.2,237.6L283.2,237.6z"/>
<path class="st1" d="M300.8,239.6c-0.1-0.2-0.2-0.4-0.2-0.7s-0.1-0.4-0.2-0.7c-0.4,0.5-0.9,0.8-1.5,1.1s-1.2,0.4-2,0.4
	c-1.2,0-2.2-0.3-3-1s-1.1-1.6-1.1-2.8s0.5-2.1,1.4-2.8s2.4-1,4.2-1h1.7v-1.2c0-0.6-0.2-1.1-0.5-1.4s-0.9-0.5-1.6-0.5
	c-0.4,0-0.7,0-1,0.1s-0.6,0.2-0.7,0.3l-0.2,1.4h-2.6V228c0.6-0.4,1.3-0.8,2.2-1.1s1.7-0.4,2.6-0.4c1.6,0,2.8,0.4,3.8,1.2
	s1.5,1.9,1.5,3.3v5.2c0,0.2,0,0.4,0,0.6s0,0.3,0,0.5l1,0.1v2.1L300.8,239.6L300.8,239.6z M297.8,237.4c0.5,0,1-0.1,1.4-0.3
	s0.8-0.5,1-0.8v-1.9h-1.7c-0.7,0-1.3,0.2-1.7,0.5s-0.6,0.7-0.6,1.2c0,0.4,0.1,0.8,0.4,1S297.3,237.4,297.8,237.4z"/>
<path class="st1" d="M305.7,223.4v-2.1h5.2v15.9l1.7,0.4v2.1h-6.7v-2.1l1.7-0.4v-13.5L305.7,223.4z"/>
<path class="st1" d="M330,231.3h-2.3l-0.4-1.6c-0.2-0.2-0.5-0.3-0.9-0.5s-0.7-0.2-1.2-0.2c-0.6,0-1.1,0.1-1.4,0.4s-0.5,0.6-0.5,1
	s0.2,0.7,0.5,1s1,0.5,2,0.7c1.6,0.3,2.7,0.8,3.5,1.4s1.1,1.4,1.1,2.5s-0.5,2.1-1.5,2.8s-2.3,1.1-3.9,1.1c-1,0-1.9-0.1-2.7-0.4
	s-1.5-0.7-2.2-1.2v-2.8h2.4l0.5,1.7c0.2,0.2,0.5,0.3,0.8,0.4s0.7,0.1,1.1,0.1c0.7,0,1.2-0.1,1.6-0.4s0.5-0.6,0.5-1s-0.2-0.7-0.6-1
	s-1-0.5-2-0.7c-1.5-0.3-2.6-0.8-3.4-1.4s-1.1-1.4-1.1-2.4c0-1.1,0.4-2,1.3-2.7s2.1-1.2,3.7-1.2c1,0,1.9,0.1,2.8,0.4s1.6,0.6,2.1,1
	L330,231.3z"/>
<path class="st1" d="M337.9,239.9c-1.8,0-3.3-0.6-4.4-1.8s-1.6-2.7-1.6-4.5v-0.5c0-1.9,0.5-3.4,1.6-4.7s2.4-1.8,4.2-1.8
	c1.7,0,3,0.5,4,1.5s1.4,2.4,1.4,4.2v1.9h-7.6v0.1c0.1,0.8,0.3,1.5,0.8,2.1s1.2,0.8,2,0.8s1.4-0.1,1.9-0.2s1-0.4,1.6-0.7l0.9,2.1
	c-0.5,0.4-1.2,0.8-2,1S338.9,239.9,337.9,239.9z M337.6,229.4c-0.6,0-1.1,0.2-1.5,0.7s-0.6,1.1-0.7,1.9v0.1h4.2v-0.3
	c0-0.7-0.2-1.3-0.5-1.7S338.2,229.4,337.6,229.4z"/>
<path class="st1" d="M344.1,237.6l1.2-0.2l3.4-4.2l-3.3-4l-1.2-0.2v-2h5.7v2l-1.2,0.1l1.9,2.4l1.9-2.4l-1.2-0.1v-2h5.7v2.1l-1.1,0.2
	l-3.3,4l3.4,4.2l1.2,0.2v2.1h-5.8v-2l1.2-0.1l-2-2.6l-2,2.6l1,0.1v2H344L344.1,237.6L344.1,237.6z"/>
<path class="st1" d="M362.8,239.6h-3.4v-3h3.4V239.6z"/>
<path class="st1" d="M157.1,280.2c2,0,3.5,0.5,4.6,1.5s1.7,2.3,1.7,3.9s-0.6,2.9-1.7,3.9s-2.7,1.5-4.6,1.5h-2.9v3.8l1.8,0.4v2.1h-7
	v-2.1l1.8-0.4v-12.2l-1.8-0.4v-2.1h1.8h6.3L157.1,280.2L157.1,280.2z M154.3,288.4h2.9c1,0,1.7-0.3,2.2-0.8s0.7-1.2,0.7-2
	s-0.2-1.5-0.7-2s-1.2-0.8-2.2-0.8h-2.9V288.4z"/>
<path class="st1" d="M163.6,281v-2h5.2v15.9l1.7,0.4v2.1h-6.7v-2.1l1.7-0.4v-13.5L163.6,281z"/>
<path class="st1" d="M179.7,297.2c-0.1-0.2-0.2-0.4-0.2-0.7s-0.1-0.4-0.2-0.7c-0.4,0.5-0.9,0.8-1.5,1.1s-1.2,0.4-2,0.4
	c-1.2,0-2.2-0.3-3-1s-1.1-1.6-1.1-2.8c0-1.2,0.5-2.1,1.4-2.8s2.4-1,4.2-1h1.7v-1.2c0-0.6-0.2-1.1-0.5-1.4s-0.9-0.5-1.6-0.5
	c-0.4,0-0.7,0-1,0.1s-0.6,0.2-0.7,0.3l-0.2,1.4h-2.6v-2.8c0.6-0.4,1.3-0.8,2.2-1.1s1.7-0.4,2.6-0.4c1.6,0,2.8,0.4,3.8,1.2
	s1.5,1.9,1.5,3.3v5.2c0,0.2,0,0.4,0,0.6s0,0.3,0,0.5l1,0.1v2.1L179.7,297.2L179.7,297.2z M176.7,295c0.5,0,1-0.1,1.4-0.3
	s0.8-0.5,1-0.8V292h-1.7c-0.7,0-1.3,0.2-1.7,0.5s-0.6,0.7-0.6,1.2c0,0.4,0.1,0.8,0.4,1S176.2,295,176.7,295z"/>
<path class="st1" d="M194.9,288.9h-2.3l-0.4-1.6c-0.2-0.2-0.5-0.3-0.9-0.5s-0.7-0.2-1.2-0.2c-0.6,0-1.1,0.1-1.4,0.4s-0.5,0.6-0.5,1
	s0.2,0.7,0.5,1s1,0.5,2,0.7c1.6,0.3,2.7,0.8,3.5,1.4s1.1,1.4,1.1,2.5s-0.5,2.1-1.5,2.8s-2.3,1.1-3.9,1.1c-1,0-1.9-0.1-2.7-0.4
	s-1.5-0.7-2.2-1.2v-2.8h2.4l0.5,1.7c0.2,0.2,0.5,0.3,0.8,0.4s0.7,0.1,1.1,0.1c0.7,0,1.2-0.1,1.6-0.4s0.5-0.6,0.5-1s-0.2-0.7-0.6-1
	s-1-0.5-2-0.7c-1.5-0.3-2.6-0.8-3.4-1.4s-1.1-1.4-1.1-2.4c0-1.1,0.4-2,1.3-2.7s2.1-1.2,3.7-1.2c1,0,1.9,0.1,2.8,0.4s1.6,0.6,2.1,1
	L194.9,288.9z"/>
<path class="st1" d="M201.7,281.5v3.1h2.2v2.4h-2.2v6.5c0,0.5,0.1,0.8,0.3,1.1s0.5,0.3,0.8,0.3c0.2,0,0.4,0,0.6,0s0.4-0.1,0.6-0.1
	l0.3,2.5c-0.4,0.1-0.8,0.2-1.1,0.3s-0.8,0.1-1.2,0.1c-1.2,0-2.1-0.3-2.7-1s-1-1.7-1-3.1V287h-1.9v-2.4h1.9v-3.1H201.7z"/>
<path class="st1" d="M205.6,295.2l1.7-0.4V287l-1.8-0.4v-2.1h5.2v10.3l1.6,0.4v2.1h-6.7V295.2z M210.6,281.5h-3.4V279h3.4V281.5z"/>
<path class="st1" d="M219,294.9c0.6,0,1.1-0.2,1.5-0.5s0.6-0.8,0.6-1.4h3.1v0.1c0,1.3-0.4,2.4-1.4,3.2s-2.2,1.3-3.7,1.3
	c-1.9,0-3.3-0.6-4.4-1.8s-1.5-2.7-1.5-4.6v-0.4c0-1.9,0.5-3.4,1.6-4.6s2.5-1.8,4.5-1.8c1,0,1.9,0.2,2.8,0.5s1.5,0.7,2,1.3v3.4h-2.8
	l-0.6-2c-0.2-0.1-0.4-0.3-0.6-0.4s-0.5-0.1-0.9-0.1c-1,0-1.7,0.4-2.1,1.1s-0.6,1.6-0.6,2.7v0.4c0,1.1,0.2,2,0.6,2.7
	S218.1,294.9,219,294.9z"/>
<path class="st1" d="M249.6,286.6l-1.3,0.2l-2.6,10.5h-2.9l-2.4-7.5h-0.1l-2.4,7.5h-2.8l-2.7-10.5l-1.3-0.2v-2.1h5.7v2.1l-1.3,0.3
	l1.2,5.8h0.1l2.4-8.1h2.3l2.4,8.1h0.1l1.2-5.8l-1.4-0.3v-2.1h5.7v2.1H249.6z"/>
<path class="st1" d="M251.1,295.2l1.6-0.4V287l-1.8-0.4v-2.1h5l0.2,1.9c0.3-0.7,0.7-1.2,1.1-1.5s1-0.6,1.6-0.6c0.2,0,0.4,0,0.6,0
	s0.4,0.1,0.5,0.1l-0.4,3.1h-1.4c-0.5,0-0.9,0.1-1.2,0.3s-0.6,0.5-0.8,0.8v6.2l1.6,0.4v2.1H251L251.1,295.2L251.1,295.2z"/>
<path class="st1" d="M268.7,297.2c-0.1-0.2-0.2-0.4-0.2-0.7s-0.1-0.4-0.2-0.7c-0.4,0.5-0.9,0.8-1.5,1.1s-1.2,0.4-2,0.4
	c-1.2,0-2.2-0.3-3-1s-1.1-1.6-1.1-2.8c0-1.2,0.5-2.1,1.4-2.8s2.4-1,4.2-1h1.7v-1.2c0-0.6-0.2-1.1-0.5-1.4s-0.9-0.5-1.6-0.5
	c-0.4,0-0.7,0-1,0.1s-0.6,0.2-0.7,0.3l-0.2,1.4h-2.6v-2.8c0.6-0.4,1.3-0.8,2.2-1.1s1.7-0.4,2.6-0.4c1.6,0,2.8,0.4,3.8,1.2
	s1.5,1.9,1.5,3.3v5.2c0,0.2,0,0.4,0,0.6s0,0.3,0,0.5l1,0.1v2.1L268.7,297.2L268.7,297.2z M265.7,295c0.5,0,1-0.1,1.4-0.3
	s0.8-0.5,1-0.8V292h-1.7c-0.7,0-1.3,0.2-1.7,0.5s-0.6,0.7-0.6,1.2c0,0.4,0.1,0.8,0.4,1S265.2,295,265.7,295z"/>
<path class="st1" d="M273.1,286.6v-2.1h5l0.2,1.5c0.4-0.5,0.8-1,1.3-1.3s1.1-0.4,1.8-0.4c1.6,0,2.8,0.6,3.7,1.8s1.3,2.8,1.3,4.8v0.2
	c0,1.9-0.4,3.4-1.3,4.5s-2.1,1.7-3.6,1.7c-0.7,0-1.3-0.1-1.8-0.4s-1-0.6-1.3-1.1v3.7l1.7,0.4v2.1h-6.7v-2.1l1.7-0.4V287L273.1,286.6
	z M282.9,291c0-1.2-0.2-2.2-0.6-2.9s-1-1.1-1.8-1.1c-0.5,0-1,0.1-1.3,0.3s-0.7,0.5-0.9,0.9v5.6c0.2,0.4,0.5,0.6,0.9,0.8
	s0.8,0.3,1.3,0.3c0.8,0,1.4-0.3,1.8-1s0.6-1.5,0.6-2.6V291z"/>
<path class="st1" d="M299.7,294.9c0.6,0,1.1-0.2,1.5-0.5s0.6-0.8,0.6-1.4h3.1v0.1c0,1.3-0.4,2.4-1.4,3.2s-2.2,1.3-3.7,1.3
	c-1.9,0-3.3-0.6-4.4-1.8s-1.5-2.7-1.5-4.6v-0.4c0-1.9,0.5-3.4,1.6-4.6s2.5-1.8,4.5-1.8c1,0,1.9,0.2,2.8,0.5s1.5,0.7,2,1.3v3.4H302
	l-0.6-2c-0.2-0.1-0.4-0.3-0.6-0.4s-0.5-0.1-0.9-0.1c-1,0-1.7,0.4-2.1,1.1s-0.6,1.6-0.6,2.7v0.4c0,1.1,0.2,2,0.6,2.7
	S298.8,294.9,299.7,294.9z"/>
<path class="st1" d="M314.3,297.2c-0.1-0.2-0.2-0.4-0.2-0.7s-0.1-0.4-0.2-0.7c-0.4,0.5-0.9,0.8-1.5,1.1s-1.2,0.4-2,0.4
	c-1.2,0-2.2-0.3-3-1s-1.1-1.6-1.1-2.8c0-1.2,0.5-2.1,1.4-2.8s2.4-1,4.2-1h1.7v-1.2c0-0.6-0.2-1.1-0.5-1.4s-0.9-0.5-1.6-0.5
	c-0.4,0-0.7,0-1,0.1s-0.6,0.2-0.7,0.3l-0.2,1.4H307v-2.8c0.6-0.4,1.3-0.8,2.2-1.1s1.7-0.4,2.6-0.4c1.6,0,2.8,0.4,3.8,1.2
	s1.5,1.9,1.5,3.3v5.2c0,0.2,0,0.4,0,0.6s0,0.3,0,0.5l1,0.1v2.1L314.3,297.2L314.3,297.2z M311.3,295c0.5,0,1-0.1,1.4-0.3
	s0.8-0.5,1-0.8V292H312c-0.7,0-1.3,0.2-1.7,0.5s-0.6,0.7-0.6,1.2c0,0.4,0.1,0.8,0.4,1S310.8,295,311.3,295z"/>
<path class="st1" d="M319.4,295.2l1.6-0.4V287l-1.8-0.4v-2.1h5l0.2,1.8c0.4-0.6,0.9-1.2,1.6-1.5s1.3-0.5,2.1-0.5
	c1.3,0,2.3,0.4,3,1.2s1.1,2.1,1.1,3.8v5.5l1.6,0.4v2.1h-6.5v-2.1l1.5-0.4v-5.5c0-0.9-0.2-1.5-0.5-1.8s-0.9-0.5-1.6-0.5
	c-0.5,0-0.9,0.1-1.2,0.3s-0.7,0.4-0.9,0.8v6.8l1.4,0.4v2.1h-6.4v-2.2L319.4,295.2L319.4,295.2z"/>
<path class="st1" d="M352.9,291.3c0,1.9-0.4,3.4-1.3,4.5s-2.1,1.7-3.7,1.7c-0.7,0-1.4-0.2-1.9-0.5s-1-0.8-1.4-1.3l-0.2,1.6h-3v-15.9
	l-1.8-0.4v-2h5.2v6.9c0.4-0.5,0.8-0.9,1.3-1.2s1.1-0.4,1.8-0.4c1.6,0,2.8,0.6,3.7,1.8s1.3,2.8,1.3,4.9V291.3z M349.5,291
	c0-1.2-0.2-2.2-0.5-2.9s-1-1.1-1.9-1.1c-0.5,0-1,0.1-1.3,0.3s-0.7,0.5-0.9,1v5.4c0.2,0.4,0.5,0.7,0.9,0.9s0.8,0.3,1.4,0.3
	c0.9,0,1.5-0.3,1.9-0.9s0.5-1.5,0.5-2.6V291H349.5z"/>
<path class="st1" d="M360.5,297.5c-1.8,0-3.3-0.6-4.4-1.8s-1.6-2.7-1.6-4.5v-0.5c0-1.9,0.5-3.4,1.6-4.7s2.4-1.8,4.2-1.8
	c1.7,0,3,0.5,4,1.5s1.4,2.4,1.4,4.2v1.9H358v0.1c0.1,0.8,0.3,1.5,0.8,2.1s1.2,0.8,2,0.8s1.4-0.1,1.9-0.2s1-0.4,1.6-0.7l0.9,2.1
	c-0.5,0.4-1.2,0.8-2,1S361.5,297.5,360.5,297.5z M360.2,287c-0.6,0-1.1,0.2-1.5,0.7s-0.6,1.1-0.7,1.9v0.1h4.2v-0.3
	c0-0.7-0.2-1.3-0.5-1.7S360.9,287,360.2,287z"/>
<path class="st1" d="M381.9,295.6c-0.4,0.6-0.9,1.1-1.5,1.4s-1.3,0.5-2,0.5c-1.3,0-2.4-0.4-3.1-1.3s-1.1-2.2-1.1-4V287l-1.4-0.4
	v-2.1h1.4h3.4v7.7c0,0.9,0.2,1.6,0.5,2s0.8,0.6,1.4,0.6c0.5,0,1-0.1,1.4-0.3s0.7-0.4,1-0.8V287l-1.5-0.4v-2.1h1.5h3.4v10.3l1.5,0.4
	v2.1h-4.5L381.9,295.6z"/>
<path class="st1" d="M398.1,288.9h-2.3l-0.4-1.6c-0.2-0.2-0.5-0.3-0.9-0.5s-0.7-0.2-1.2-0.2c-0.6,0-1.1,0.1-1.4,0.4s-0.5,0.6-0.5,1
	s0.2,0.7,0.5,1s1,0.5,2,0.7c1.6,0.3,2.7,0.8,3.5,1.4s1.1,1.4,1.1,2.5s-0.5,2.1-1.5,2.8s-2.3,1.1-3.9,1.1c-1,0-1.9-0.1-2.7-0.4
	s-1.5-0.7-2.2-1.2v-2.8h2.4l0.5,1.7c0.2,0.2,0.5,0.3,0.8,0.4s0.7,0.1,1.1,0.1c0.7,0,1.2-0.1,1.6-0.4s0.5-0.6,0.5-1s-0.2-0.7-0.6-1
	s-1-0.5-2-0.7c-1.5-0.3-2.6-0.8-3.4-1.4s-1.1-1.4-1.1-2.4c0-1.1,0.4-2,1.3-2.7s2.1-1.2,3.7-1.2c1,0,1.9,0.1,2.8,0.4s1.6,0.6,2.1,1
	L398.1,288.9z"/>
<path class="st1" d="M406,297.5c-1.8,0-3.3-0.6-4.4-1.8s-1.6-2.7-1.6-4.5v-0.5c0-1.9,0.5-3.4,1.6-4.7s2.4-1.8,4.2-1.8
	c1.7,0,3,0.5,4,1.5s1.4,2.4,1.4,4.2v1.9h-7.6v0.1c0.1,0.8,0.3,1.5,0.8,2.1s1.2,0.8,2,0.8s1.4-0.1,1.9-0.2s1-0.4,1.6-0.7l0.9,2.1
	c-0.5,0.4-1.2,0.8-2,1S407,297.5,406,297.5z M405.7,287c-0.6,0-1.1,0.2-1.5,0.7s-0.6,1.1-0.7,1.9v0.1h4.2v-0.3
	c0-0.7-0.2-1.3-0.5-1.7S406.3,287,405.7,287z"/>
<path class="st1" d="M420.8,295.7c-0.4,0.6-0.9,1-1.4,1.3s-1.2,0.5-1.9,0.5c-1.6,0-2.8-0.6-3.6-1.7s-1.3-2.6-1.3-4.5V291
	c0-2,0.4-3.6,1.3-4.8s2.1-1.8,3.7-1.8c0.6,0,1.2,0.1,1.7,0.4s1,0.7,1.3,1.2v-4.5l-1.8-0.4V279h1.8h3.4v15.9l1.6,0.4v2.1H421
	L420.8,295.7z M416.1,291.3c0,1.1,0.2,2,0.6,2.6s1,1,1.8,1c0.5,0,0.9-0.1,1.3-0.3s0.7-0.5,0.9-0.9v-5.4c-0.2-0.4-0.5-0.7-0.9-0.9
	s-0.8-0.3-1.3-0.3c-0.8,0-1.4,0.4-1.8,1.1s-0.6,1.7-0.6,2.9V291.3z"/>
<path class="st1" d="M432.6,295.2l1.7-0.4V287l-1.8-0.4v-2.1h5.2v10.3l1.6,0.4v2.1h-6.7L432.6,295.2L432.6,295.2z M437.7,281.5h-3.4
	V279h3.4V281.5z"/>
<path class="st1" d="M440.4,295.2l1.6-0.4V287l-1.8-0.4v-2.1h5l0.2,1.8c0.4-0.6,0.9-1.2,1.6-1.5s1.3-0.5,2.1-0.5
	c1.3,0,2.3,0.4,3,1.2s1.1,2.1,1.1,3.8v5.5l1.6,0.4v2.1h-6.5v-2.1l1.5-0.4v-5.5c0-0.9-0.2-1.5-0.5-1.8s-0.9-0.5-1.6-0.5
	c-0.5,0-0.9,0.1-1.2,0.3s-0.7,0.4-0.9,0.8v6.8l1.4,0.4v2.1h-6.4v-2.2L440.4,295.2L440.4,295.2z"/>
<path class="st1" d="M134.2,310.3v3.1h2.2v2.4h-2.2v6.5c0,0.5,0.1,0.8,0.3,1.1s0.5,0.3,0.8,0.3c0.2,0,0.4,0,0.6,0s0.4-0.1,0.6-0.1
	l0.3,2.5c-0.4,0.1-0.8,0.2-1.1,0.3s-0.8,0.1-1.2,0.1c-1.2,0-2.1-0.3-2.7-1s-1-1.7-1-3.1v-6.5h-1.9v-2.4h1.9v-3.1L134.2,310.3
	L134.2,310.3z"/>
<path class="st1" d="M138,324l1.7-0.4v-13.5l-1.8-0.4v-2.1h5.2v7.2c0.4-0.6,0.9-1,1.5-1.4s1.2-0.5,1.9-0.5c1.3,0,2.4,0.4,3.1,1.3
	s1.1,2.2,1.1,4.1v5.1l1.6,0.4v2.1h-6.5V324l1.5-0.4v-5.1c0-1-0.2-1.7-0.5-2.1s-0.9-0.6-1.6-0.6c-0.5,0-0.9,0.1-1.2,0.3
	s-0.7,0.4-0.9,0.7v6.9l1.5,0.4v2.1H138V324z"/>
<path class="st1" d="M159.1,326.3c-1.8,0-3.3-0.6-4.4-1.8s-1.6-2.7-1.6-4.5v-0.5c0-1.9,0.5-3.4,1.6-4.7s2.4-1.8,4.2-1.8
	c1.7,0,3,0.5,4,1.5s1.4,2.4,1.4,4.2v1.9h-7.6v0.1c0.1,0.8,0.3,1.5,0.8,2.1s1.2,0.8,2,0.8s1.4-0.1,1.9-0.2s1-0.4,1.6-0.7l0.9,2.1
	c-0.5,0.4-1.2,0.8-2,1S160.1,326.3,159.1,326.3z M158.8,315.8c-0.6,0-1.1,0.2-1.5,0.7s-0.6,1.1-0.7,1.9v0.1h4.2v-0.3
	c0-0.7-0.2-1.3-0.5-1.7S159.5,315.8,158.8,315.8z"/>
<path class="st1" d="M182,317.7h-2.3l-0.4-1.6c-0.2-0.2-0.5-0.3-0.9-0.5s-0.7-0.2-1.2-0.2c-0.6,0-1.1,0.1-1.4,0.4s-0.5,0.6-0.5,1
	s0.2,0.7,0.5,1s1,0.5,2,0.7c1.6,0.3,2.7,0.8,3.5,1.4s1.1,1.4,1.1,2.5s-0.5,2.1-1.5,2.8s-2.3,1.1-3.9,1.1c-1,0-1.9-0.1-2.7-0.4
	s-1.5-0.7-2.2-1.2v-2.8h2.4l0.5,1.7c0.2,0.2,0.5,0.3,0.8,0.4s0.7,0.1,1.1,0.1c0.7,0,1.2-0.1,1.6-0.4s0.5-0.6,0.5-1s-0.2-0.7-0.6-1
	s-1-0.5-2-0.7c-1.5-0.3-2.6-0.8-3.4-1.4s-1.1-1.4-1.1-2.4c0-1.1,0.4-2,1.3-2.7s2.1-1.2,3.7-1.2c1,0,1.9,0.1,2.8,0.4s1.6,0.6,2.1,1
	L182,317.7z"/>
<path class="st1" d="M191.9,326c-0.1-0.2-0.2-0.4-0.2-0.7s-0.1-0.4-0.2-0.7c-0.4,0.5-0.9,0.8-1.5,1.1s-1.2,0.4-2,0.4
	c-1.2,0-2.2-0.3-3-1s-1.1-1.6-1.1-2.8c0-1.2,0.5-2.1,1.4-2.8s2.4-1,4.2-1h1.7v-1.2c0-0.6-0.2-1.1-0.5-1.4s-0.9-0.5-1.6-0.5
	c-0.4,0-0.7,0-1,0.1s-0.6,0.2-0.7,0.3l-0.2,1.4h-2.6v-2.8c0.6-0.4,1.3-0.8,2.2-1.1s1.7-0.4,2.6-0.4c1.6,0,2.8,0.4,3.8,1.2
	s1.5,1.9,1.5,3.3v5.2c0,0.2,0,0.4,0,0.6s0,0.3,0,0.5l1,0.1v2.1L191.9,326L191.9,326z M189,323.8c0.5,0,1-0.1,1.4-0.3s0.8-0.5,1-0.8
	v-1.9h-1.7c-0.7,0-1.3,0.2-1.7,0.5s-0.6,0.7-0.6,1.2c0,0.4,0.1,0.8,0.4,1S188.5,323.8,189,323.8z"/>
<path class="st1" d="M196.8,315.4v-2.1h5l0.1,1.7c0.4-0.6,0.9-1.1,1.5-1.4s1.3-0.5,2.1-0.5s1.5,0.2,2.1,0.5s1,0.9,1.3,1.6
	c0.4-0.7,0.9-1.2,1.5-1.6s1.4-0.6,2.2-0.6c1.2,0,2.2,0.4,3,1.3s1.1,2.2,1.1,3.9v5.3l1.7,0.4v2.1h-6.6v-2l1.5-0.4v-5.3
	c0-1-0.2-1.6-0.5-2s-0.8-0.6-1.4-0.6c-0.5,0-0.9,0.1-1.3,0.3s-0.6,0.5-0.8,0.9c0,0.1,0,0.3,0,0.4s0,0.2,0,0.3v5.9l1.4,0.4v2.1h-6.2
	v-2l1.4-0.4v-5.3c0-0.9-0.2-1.6-0.5-2s-0.8-0.6-1.4-0.6c-0.5,0-0.9,0.1-1.2,0.3s-0.6,0.4-0.9,0.7v6.8l1.5,0.4v2.1H197v-2l1.7-0.4
	v-7.9L196.8,315.4z"/>
<path class="st1" d="M225.2,326.3c-1.8,0-3.3-0.6-4.4-1.8s-1.6-2.7-1.6-4.5v-0.5c0-1.9,0.5-3.4,1.6-4.7s2.4-1.8,4.2-1.8
	c1.7,0,3,0.5,4,1.5s1.4,2.4,1.4,4.2v1.9h-7.6v0.1c0.1,0.8,0.3,1.5,0.8,2.1s1.2,0.8,2,0.8s1.4-0.1,1.9-0.2s1-0.4,1.6-0.7l0.9,2.1
	c-0.5,0.4-1.2,0.8-2,1S226.3,326.3,225.2,326.3z M224.9,315.8c-0.6,0-1.1,0.2-1.5,0.7s-0.6,1.1-0.7,1.9v0.1h4.2v-0.3
	c0-0.7-0.2-1.3-0.5-1.7S225.6,315.8,224.9,315.8z"/>
<path class="st1" d="M255.9,315.4l-1.3,0.2L252,326h-2.9l-2.4-7.5h-0.1l-2.4,7.5h-2.8l-2.7-10.5l-1.3-0.2v-2.1h5.7v2.1l-1.3,0.3
	l1.2,5.8h0.1l2.4-8.1h2.3l2.4,8.1h0.1l1.2-5.8l-1.4-0.3v-2.1h5.7L255.9,315.4L255.9,315.4z"/>
<path class="st1" d="M264.8,326c-0.1-0.2-0.2-0.4-0.2-0.7s-0.1-0.4-0.2-0.7c-0.4,0.5-0.9,0.8-1.5,1.1s-1.2,0.4-2,0.4
	c-1.2,0-2.2-0.3-3-1s-1.1-1.6-1.1-2.8c0-1.2,0.5-2.1,1.4-2.8s2.4-1,4.2-1h1.7v-1.2c0-0.6-0.2-1.1-0.5-1.4s-0.9-0.5-1.6-0.5
	c-0.4,0-0.7,0-1,0.1s-0.6,0.2-0.7,0.3l-0.2,1.4h-2.6v-2.8c0.6-0.4,1.3-0.8,2.2-1.1s1.7-0.4,2.6-0.4c1.6,0,2.8,0.4,3.8,1.2
	s1.5,1.9,1.5,3.3v5.2c0,0.2,0,0.4,0,0.6s0,0.3,0,0.5l1,0.1v2.1L264.8,326L264.8,326z M261.8,323.8c0.5,0,1-0.1,1.4-0.3
	s0.8-0.5,1-0.8v-1.9h-1.7c-0.7,0-1.3,0.2-1.7,0.5s-0.6,0.7-0.6,1.2c0,0.4,0.1,0.8,0.4,1S261.3,323.8,261.8,323.8z"/>
<path class="st1" d="M282.6,315.4l-1.2,0.2l-4.7,12.3c-0.4,0.9-0.9,1.7-1.5,2.3s-1.5,0.9-2.8,0.9c-0.3,0-0.6,0-0.8-0.1
	s-0.6-0.1-0.9-0.2l0.4-2.5c0.1,0,0.2,0,0.3,0s0.2,0,0.3,0c0.6,0,1-0.1,1.3-0.4s0.5-0.6,0.7-1l0.4-1l-4-10.4l-1.2-0.2v-2.1h6.2v2.1
	l-1.4,0.2l1.7,5.1l0.2,0.9h0.1l2-6l-1.4-0.2v-2.1h6.2L282.6,315.4L282.6,315.4z"/>
<path class="st1" d="M285.6,325.6c0,0.8-0.2,1.6-0.7,2.5s-1,1.6-1.6,2.2l-1.7-0.9c0.3-0.5,0.5-1.1,0.7-1.7s0.2-1.2,0.2-2v-2.6h3.1
	V325.6z"/>
<path class="st1" d="M301.5,326c-0.1-0.2-0.2-0.4-0.2-0.7s-0.1-0.4-0.2-0.7c-0.4,0.5-0.9,0.8-1.5,1.1s-1.2,0.4-2,0.4
	c-1.2,0-2.2-0.3-3-1s-1.1-1.6-1.1-2.8c0-1.2,0.5-2.1,1.4-2.8s2.4-1,4.2-1h1.7v-1.2c0-0.6-0.2-1.1-0.5-1.4s-0.9-0.5-1.6-0.5
	c-0.4,0-0.7,0-1,0.1s-0.6,0.2-0.7,0.3l-0.2,1.4h-2.6v-2.8c0.6-0.4,1.3-0.8,2.2-1.1s1.7-0.4,2.6-0.4c1.6,0,2.8,0.4,3.8,1.2
	s1.5,1.9,1.5,3.3v5.2c0,0.2,0,0.4,0,0.6s0,0.3,0,0.5l1,0.1v2.1L301.5,326L301.5,326z M298.6,323.8c0.5,0,1-0.1,1.4-0.3
	s0.8-0.5,1-0.8v-1.9h-1.7c-0.7,0-1.3,0.2-1.7,0.5s-0.6,0.7-0.6,1.2c0,0.4,0.1,0.8,0.4,1S298.1,323.8,298.6,323.8z"/>
<path class="st1" d="M306.6,324l1.6-0.4v-7.9l-1.8-0.4v-2.1h5l0.2,1.8c0.4-0.6,0.9-1.2,1.6-1.5s1.3-0.5,2.1-0.5c1.3,0,2.3,0.4,3,1.2
	s1.1,2.1,1.1,3.8v5.5l1.6,0.4v2.1h-6.5v-2l1.5-0.4v-5.5c0-0.9-0.2-1.5-0.5-1.8s-0.9-0.5-1.6-0.5c-0.5,0-0.9,0.1-1.2,0.3
	s-0.7,0.4-0.9,0.8v6.8l1.4,0.4v2.1h-6.4V324H306.6z"/>
<path class="st1" d="M330,324.5c-0.4,0.6-0.9,1-1.4,1.3s-1.2,0.5-1.9,0.5c-1.6,0-2.8-0.6-3.6-1.7s-1.3-2.6-1.3-4.5v-0.2
	c0-2,0.4-3.6,1.3-4.8s2.1-1.8,3.7-1.8c0.6,0,1.2,0.1,1.7,0.4s1,0.7,1.3,1.2v-4.5L328,310v-2.1h1.8h3.4v15.9l1.6,0.4v2.1h-4.6
	L330,324.5z M325.3,320.1c0,1.1,0.2,2,0.6,2.6s1,1,1.8,1c0.5,0,0.9-0.1,1.3-0.3s0.7-0.5,0.9-0.9v-5.4c-0.2-0.4-0.5-0.7-0.9-0.9
	s-0.8-0.3-1.3-0.3c-0.8,0-1.4,0.4-1.8,1.1s-0.6,1.7-0.6,2.9V320.1z"/>
<path class="st1" d="M341.8,324l1.7-0.4v-7.9l-1.8-0.4v-2.1h5.2v10.3l1.6,0.4v2.1h-6.7L341.8,324L341.8,324z M346.8,310.3h-3.4v-2.6
	h3.4V310.3z"/>
<path class="st1" d="M359.8,317.7h-2.3l-0.4-1.6c-0.2-0.2-0.5-0.3-0.9-0.5s-0.7-0.2-1.2-0.2c-0.6,0-1.1,0.1-1.4,0.4s-0.5,0.6-0.5,1
	s0.2,0.7,0.5,1s1,0.5,2,0.7c1.6,0.3,2.7,0.8,3.5,1.4s1.1,1.4,1.1,2.5s-0.5,2.1-1.5,2.8s-2.3,1.1-3.9,1.1c-1,0-1.9-0.1-2.7-0.4
	s-1.5-0.7-2.2-1.2v-2.8h2.4l0.5,1.7c0.2,0.2,0.5,0.3,0.8,0.4s0.7,0.1,1.1,0.1c0.7,0,1.2-0.1,1.6-0.4s0.5-0.6,0.5-1s-0.2-0.7-0.6-1
	s-1-0.5-2-0.7c-1.5-0.3-2.6-0.8-3.4-1.4s-1.1-1.4-1.1-2.4c0-1.1,0.4-2,1.3-2.7s2.1-1.2,3.7-1.2c1,0,1.9,0.1,2.8,0.4s1.6,0.6,2.1,1
	L359.8,317.7z"/>
<path class="st1" d="M373.6,323.7c0.6,0,1.1-0.2,1.5-0.5s0.6-0.8,0.6-1.4h3.1v0.1c0,1.3-0.4,2.4-1.4,3.2s-2.2,1.3-3.7,1.3
	c-1.9,0-3.3-0.6-4.4-1.8s-1.5-2.7-1.5-4.6v-0.4c0-1.9,0.5-3.4,1.6-4.6s2.5-1.8,4.5-1.8c1,0,1.9,0.2,2.8,0.5s1.5,0.7,2,1.3v3.4h-2.8
	l-0.6-2c-0.2-0.1-0.4-0.3-0.6-0.4s-0.5-0.1-0.9-0.1c-1,0-1.7,0.4-2.1,1.1s-0.6,1.6-0.6,2.7v0.4c0,1.1,0.2,2,0.6,2.7
	S372.7,323.7,373.6,323.7z"/>
<path class="st1" d="M379.9,324l1.7-0.4v-13.5l-1.8-0.4v-2.1h5.2v7.2c0.4-0.6,0.9-1,1.5-1.4s1.2-0.5,1.9-0.5c1.3,0,2.4,0.4,3.1,1.3
	s1.1,2.2,1.1,4.1v5.1l1.6,0.4v2.1h-6.5V324l1.5-0.4v-5.1c0-1-0.2-1.7-0.5-2.1s-0.9-0.6-1.6-0.6c-0.5,0-0.9,0.1-1.2,0.3
	s-0.7,0.4-0.9,0.7v6.9l1.5,0.4v2.1H380V324H379.9z"/>
<path class="st1" d="M401,326.3c-1.8,0-3.3-0.6-4.4-1.8s-1.6-2.7-1.6-4.5v-0.5c0-1.9,0.5-3.4,1.6-4.7s2.4-1.8,4.2-1.8
	c1.7,0,3,0.5,4,1.5s1.4,2.4,1.4,4.2v1.9h-7.6v0.1c0.1,0.8,0.3,1.5,0.8,2.1s1.2,0.8,2,0.8s1.4-0.1,1.9-0.2s1-0.4,1.6-0.7l0.9,2.1
	c-0.5,0.4-1.2,0.8-2,1S402,326.3,401,326.3z M400.7,315.8c-0.6,0-1.1,0.2-1.5,0.7s-0.6,1.1-0.7,1.9v0.1h4.2v-0.3
	c0-0.7-0.2-1.3-0.5-1.7S401.4,315.8,400.7,315.8z"/>
<path class="st1" d="M415.5,326c-0.1-0.2-0.2-0.4-0.2-0.7s-0.1-0.4-0.2-0.7c-0.4,0.5-0.9,0.8-1.5,1.1s-1.2,0.4-2,0.4
	c-1.2,0-2.2-0.3-3-1s-1.1-1.6-1.1-2.8c0-1.2,0.5-2.1,1.4-2.8s2.4-1,4.2-1h1.7v-1.2c0-0.6-0.2-1.1-0.5-1.4s-0.9-0.5-1.6-0.5
	c-0.4,0-0.7,0-1,0.1s-0.6,0.2-0.7,0.3l-0.2,1.4h-2.6v-2.8c0.6-0.4,1.3-0.8,2.2-1.1s1.7-0.4,2.6-0.4c1.6,0,2.8,0.4,3.8,1.2
	s1.5,1.9,1.5,3.3v5.2c0,0.2,0,0.4,0,0.6s0,0.3,0,0.5l1,0.1v2.1L415.5,326L415.5,326z M412.5,323.8c0.5,0,1-0.1,1.4-0.3
	s0.8-0.5,1-0.8v-1.9h-1.7c-0.7,0-1.3,0.2-1.7,0.5s-0.6,0.7-0.6,1.2c0,0.4,0.1,0.8,0.4,1S412.1,323.8,412.5,323.8z"/>
<path class="st1" d="M419.9,315.4v-2.1h5l0.2,1.5c0.4-0.5,0.8-1,1.3-1.3s1.1-0.4,1.8-0.4c1.6,0,2.8,0.6,3.7,1.8s1.3,2.8,1.3,4.8v0.2
	c0,1.9-0.4,3.4-1.3,4.5s-2.1,1.7-3.6,1.7c-0.7,0-1.3-0.1-1.8-0.4s-1-0.6-1.3-1.1v3.7l1.7,0.4v2.1h-6.7v-2.1l1.7-0.4v-12.7
	L419.9,315.4z M429.7,319.8c0-1.2-0.2-2.2-0.6-2.9s-1-1.1-1.8-1.1c-0.5,0-1,0.1-1.3,0.3s-0.7,0.5-0.9,0.9v5.6
	c0.2,0.4,0.5,0.6,0.9,0.8s0.8,0.3,1.3,0.3c0.8,0,1.4-0.3,1.8-1s0.6-1.5,0.6-2.6V319.8z"/>
<path class="st1" d="M440.7,326.3c-1.8,0-3.3-0.6-4.4-1.8s-1.6-2.7-1.6-4.5v-0.5c0-1.9,0.5-3.4,1.6-4.7s2.4-1.8,4.2-1.8
	c1.7,0,3,0.5,4,1.5s1.4,2.4,1.4,4.2v1.9h-7.6v0.1c0.1,0.8,0.3,1.5,0.8,2.1s1.2,0.8,2,0.8s1.4-0.1,1.9-0.2s1-0.4,1.6-0.7l0.9,2.1
	c-0.5,0.4-1.2,0.8-2,1S441.7,326.3,440.7,326.3z M440.4,315.8c-0.6,0-1.1,0.2-1.5,0.7s-0.6,1.1-0.7,1.9v0.1h4.2v-0.3
	c0-0.7-0.2-1.3-0.5-1.7S441.1,315.8,440.4,315.8z"/>
<path class="st1" d="M447.2,324l1.6-0.4v-7.9l-1.8-0.4v-2.1h5l0.2,1.9c0.3-0.7,0.7-1.2,1.1-1.5s1-0.6,1.6-0.6c0.2,0,0.4,0,0.6,0
	s0.4,0.1,0.5,0.1l-0.4,3.1h-1.4c-0.5,0-0.9,0.1-1.2,0.3s-0.6,0.5-0.8,0.8v6.2l1.6,0.4v2.1h-6.7L447.2,324L447.2,324z"/>
<path class="st1" d="M137.2,354.8c-0.1-0.2-0.2-0.4-0.2-0.7s-0.1-0.4-0.2-0.7c-0.4,0.5-0.9,0.8-1.5,1.1s-1.2,0.4-2,0.4
	c-1.2,0-2.2-0.3-3-1s-1.1-1.6-1.1-2.8c0-1.2,0.5-2.1,1.4-2.8s2.4-1,4.2-1h1.7v-1.2c0-0.6-0.2-1.1-0.5-1.4s-0.9-0.5-1.6-0.5
	c-0.4,0-0.7,0-1,0.1s-0.6,0.2-0.7,0.3l-0.2,1.4h-2.6v-2.8c0.6-0.4,1.3-0.8,2.2-1.1s1.7-0.4,2.6-0.4c1.6,0,2.8,0.4,3.8,1.2
	s1.5,1.9,1.5,3.3v5.2c0,0.2,0,0.4,0,0.6s0,0.3,0,0.5l1,0.1v2.1L137.2,354.8L137.2,354.8z M134.2,352.6c0.5,0,1-0.1,1.4-0.3
	s0.8-0.5,1-0.8v-1.9h-1.7c-0.7,0-1.3,0.2-1.7,0.5s-0.6,0.7-0.6,1.2c0,0.4,0.1,0.8,0.4,1S133.7,352.6,134.2,352.6z"/>
<path class="st1" d="M142.3,352.8l1.6-0.4v-7.9l-1.8-0.4V342h5l0.2,1.8c0.4-0.6,0.9-1.2,1.6-1.5s1.3-0.5,2.1-0.5
	c1.3,0,2.3,0.4,3,1.2s1.1,2.1,1.1,3.8v5.5l1.6,0.4v2.1h-6.5v-2.1l1.5-0.4v-5.5c0-0.9-0.2-1.5-0.5-1.8s-0.9-0.5-1.6-0.5
	c-0.5,0-0.9,0.1-1.2,0.3s-0.7,0.4-0.9,0.8v6.8l1.4,0.4v2.1h-6.4v-2.1L142.3,352.8L142.3,352.8z"/>
<path class="st1" d="M165.7,353.3c-0.4,0.6-0.9,1-1.4,1.3s-1.2,0.5-1.9,0.5c-1.6,0-2.8-0.6-3.6-1.7s-1.3-2.6-1.3-4.5v-0.2
	c0-2,0.4-3.6,1.3-4.8s2.1-1.8,3.7-1.8c0.6,0,1.2,0.1,1.7,0.4s1,0.7,1.3,1.2V339l-1.8-0.4v-2.1h1.8h3.4v15.9l1.6,0.4v2.1h-4.6
	L165.7,353.3z M160.9,348.9c0,1.1,0.2,2,0.6,2.6s1,1,1.8,1c0.5,0,0.9-0.1,1.3-0.3s0.7-0.5,0.9-0.9v-5.4c-0.2-0.4-0.5-0.7-0.9-0.9
	s-0.8-0.3-1.3-0.3c-0.8,0-1.4,0.4-1.8,1.1s-0.6,1.7-0.6,2.9V348.9z"/>
<path class="st1" d="M183.6,355.1c-1.8,0-3.3-0.6-4.4-1.8s-1.6-2.7-1.6-4.5v-0.5c0-1.9,0.5-3.4,1.6-4.7s2.4-1.8,4.2-1.8
	c1.7,0,3,0.5,4,1.5s1.4,2.4,1.4,4.2v1.9h-7.6v0.1c0.1,0.8,0.3,1.5,0.8,2.1s1.2,0.8,2,0.8s1.4-0.1,1.9-0.2s1-0.4,1.6-0.7l0.9,2.1
	c-0.5,0.4-1.2,0.8-2,1S184.6,355.1,183.6,355.1z M183.3,344.6c-0.6,0-1.1,0.2-1.5,0.7s-0.6,1.1-0.7,1.9v0.1h4.2V347
	c0-0.7-0.2-1.3-0.5-1.7S184,344.6,183.3,344.6z"/>
<path class="st1" d="M198.1,354.8c-0.1-0.2-0.2-0.4-0.2-0.7s-0.1-0.4-0.2-0.7c-0.4,0.5-0.9,0.8-1.5,1.1s-1.2,0.4-2,0.4
	c-1.2,0-2.2-0.3-3-1s-1.1-1.6-1.1-2.8c0-1.2,0.5-2.1,1.4-2.8s2.4-1,4.2-1h1.7v-1.2c0-0.6-0.2-1.1-0.5-1.4s-0.9-0.5-1.6-0.5
	c-0.4,0-0.7,0-1,0.1s-0.6,0.2-0.7,0.3l-0.2,1.4h-2.6v-2.8c0.6-0.4,1.3-0.8,2.2-1.1s1.7-0.4,2.6-0.4c1.6,0,2.8,0.4,3.8,1.2
	s1.5,1.9,1.5,3.3v5.2c0,0.2,0,0.4,0,0.6s0,0.3,0,0.5l1,0.1v2.1L198.1,354.8L198.1,354.8z M195.1,352.6c0.5,0,1-0.1,1.4-0.3
	s0.8-0.5,1-0.8v-1.9h-1.7c-0.7,0-1.3,0.2-1.7,0.5s-0.6,0.7-0.6,1.2c0,0.4,0.1,0.8,0.4,1S194.6,352.6,195.1,352.6z"/>
<path class="st1" d="M213.3,346.5H211l-0.4-1.6c-0.2-0.2-0.5-0.3-0.9-0.5s-0.7-0.2-1.2-0.2c-0.6,0-1.1,0.1-1.4,0.4s-0.5,0.6-0.5,1
	s0.2,0.7,0.5,1s1,0.5,2,0.7c1.6,0.3,2.7,0.8,3.5,1.4s1.1,1.4,1.1,2.5s-0.5,2.1-1.5,2.8s-2.3,1.1-3.9,1.1c-1,0-1.9-0.1-2.7-0.4
	s-1.5-0.7-2.2-1.2v-2.8h2.4l0.5,1.7c0.2,0.2,0.5,0.3,0.8,0.4s0.7,0.1,1.1,0.1c0.7,0,1.2-0.1,1.6-0.4s0.5-0.6,0.5-1s-0.2-0.7-0.6-1
	s-1-0.5-2-0.7c-1.5-0.3-2.6-0.8-3.4-1.4s-1.1-1.4-1.1-2.4c0-1.1,0.4-2,1.3-2.7s2.1-1.2,3.7-1.2c1,0,1.9,0.1,2.8,0.4s1.6,0.6,2.1,1
	L213.3,346.5z"/>
<path class="st1" d="M215,352.8l1.7-0.4v-7.9l-1.8-0.4V342h5.2v10.3l1.6,0.4v2.1H215V352.8z M220.1,339.1h-3.4v-2.6h3.4V339.1z"/>
<path class="st1" d="M228.5,355.1c-1.8,0-3.3-0.6-4.4-1.8s-1.6-2.7-1.6-4.5v-0.5c0-1.9,0.5-3.4,1.6-4.7s2.4-1.8,4.2-1.8
	c1.7,0,3,0.5,4,1.5s1.4,2.4,1.4,4.2v1.9h-7.6v0.1c0.1,0.8,0.3,1.5,0.8,2.1s1.2,0.8,2,0.8s1.4-0.1,1.9-0.2s1-0.4,1.6-0.7l0.9,2.1
	c-0.5,0.4-1.2,0.8-2,1S229.6,355.1,228.5,355.1z M228.2,344.6c-0.6,0-1.1,0.2-1.5,0.7s-0.6,1.1-0.7,1.9v0.1h4.2V347
	c0-0.7-0.2-1.3-0.5-1.7S228.9,344.6,228.2,344.6z"/>
<path class="st1" d="M235.1,352.8l1.6-0.4v-7.9l-1.8-0.4V342h5l0.2,1.9c0.3-0.7,0.7-1.2,1.1-1.5s1-0.6,1.6-0.6c0.2,0,0.4,0,0.6,0
	s0.4,0.1,0.5,0.1l-0.4,3.1h-1.4c-0.5,0-0.9,0.1-1.2,0.3s-0.6,0.5-0.8,0.8v6.2l1.6,0.4v2.1H235L235.1,352.8L235.1,352.8z"/>
<path class="st1" d="M255.9,339.1v3.1h2.2v2.4h-2.2v6.5c0,0.5,0.1,0.8,0.3,1.1s0.5,0.3,0.8,0.3c0.2,0,0.4,0,0.6,0s0.4-0.1,0.6-0.1
	l0.3,2.5c-0.4,0.1-0.8,0.2-1.1,0.3s-0.8,0.1-1.2,0.1c-1.2,0-2.1-0.3-2.7-1s-1-1.7-1-3.1v-6.5h-1.9v-2.4h1.9v-3.1L255.9,339.1
	L255.9,339.1z"/>
<path class="st1" d="M259.3,348.4c0-1.9,0.5-3.4,1.6-4.6s2.5-1.8,4.4-1.8s3.3,0.6,4.4,1.8s1.6,2.8,1.6,4.7v0.2
	c0,1.9-0.5,3.5-1.6,4.7s-2.5,1.8-4.4,1.8s-3.4-0.6-4.4-1.8s-1.6-2.8-1.6-4.7V348.4z M262.7,348.6c0,1.2,0.2,2.1,0.6,2.8s1.1,1,2,1
	s1.5-0.4,1.9-1.1s0.6-1.6,0.6-2.8v-0.2c0-1.1-0.2-2-0.6-2.8s-1.1-1.1-2-1.1s-1.5,0.4-1.9,1.1s-0.6,1.6-0.6,2.8V348.6z"/>
<path class="st1" d="M278.3,344.6v-2.4h1.9v-0.9c0-1.6,0.5-2.8,1.5-3.7s2.3-1.3,4.1-1.3c0.6,0,1.2,0.1,1.8,0.2s1.3,0.3,2.1,0.5
	l-0.5,2.7c-0.6-0.2-1.1-0.3-1.6-0.4s-1-0.1-1.6-0.1c-0.8,0-1.4,0.2-1.8,0.5s-0.6,0.9-0.6,1.6v0.9h7.7v10.3l1.8,0.4v2.1h-6.9v-2.1
	l1.7-0.4v-7.9h-4.3v7.9l1.7,0.4v2.1h-6.9v-2.1l1.8-0.4v-7.9L278.3,344.6L278.3,344.6z"/>
<path class="st1" d="M294.3,352.8l1.6-0.4v-7.9l-1.8-0.4V342h5l0.2,1.8c0.4-0.6,0.9-1.2,1.6-1.5s1.3-0.5,2.1-0.5
	c1.3,0,2.3,0.4,3,1.2s1.1,2.1,1.1,3.8v5.5l1.6,0.4v2.1h-6.5v-2.1l1.5-0.4v-5.5c0-0.9-0.2-1.5-0.5-1.8s-0.9-0.5-1.6-0.5
	c-0.5,0-0.9,0.1-1.2,0.3s-0.7,0.4-0.9,0.8v6.8l1.4,0.4v2.1h-6.4v-2.1L294.3,352.8L294.3,352.8z"/>
<path class="st1" d="M317.7,353.3c-0.4,0.6-0.9,1-1.4,1.3s-1.2,0.5-1.9,0.5c-1.6,0-2.8-0.6-3.6-1.7s-1.3-2.6-1.3-4.5v-0.2
	c0-2,0.4-3.6,1.3-4.8s2.1-1.8,3.7-1.8c0.6,0,1.2,0.1,1.7,0.4s1,0.7,1.3,1.2V339l-1.8-0.4v-2.1h1.8h3.4v15.9l1.6,0.4v2.1h-4.6
	L317.7,353.3z M312.9,348.9c0,1.1,0.2,2,0.6,2.6s1,1,1.8,1c0.5,0,0.9-0.1,1.3-0.3s0.7-0.5,0.9-0.9v-5.4c-0.2-0.4-0.5-0.7-0.9-0.9
	s-0.8-0.3-1.3-0.3c-0.8,0-1.4,0.4-1.8,1.1s-0.6,1.7-0.6,2.9V348.9z"/>
<path class="st1" d="M328,354.8h-3.4v-3h3.4V354.8z"/>
<path class="st1" d="M164.6,404c0,2.5-0.7,4.6-2.1,6.2s-3.3,2.4-5.6,2.4s-4.2-0.8-5.6-2.4s-2.1-3.7-2.1-6.2v-0.3
	c0-2.5,0.7-4.5,2.1-6.2s3.3-2.5,5.6-2.5s4.2,0.8,5.6,2.5s2.2,3.7,2.2,6.2L164.6,404L164.6,404z M161.2,403.8c0-1.8-0.4-3.2-1.1-4.3
	s-1.8-1.7-3.3-1.7s-2.5,0.5-3.2,1.6s-1.1,2.5-1.1,4.3v0.3c0,1.8,0.4,3.2,1.1,4.3s1.8,1.6,3.2,1.6s2.5-0.5,3.3-1.6s1.1-2.5,1.1-4.3
	V403.8z"/>
<path class="st1" d="M166,410.4l1.6-0.4v-7.9l-1.8-0.4v-2.1h5l0.2,1.8c0.4-0.6,0.9-1.2,1.6-1.5s1.3-0.5,2.1-0.5c1.3,0,2.3,0.4,3,1.2
	s1.1,2.1,1.1,3.8v5.5l1.6,0.4v2.1h-6.5v-2.1l1.5-0.4v-5.5c0-0.9-0.2-1.5-0.5-1.8s-0.9-0.5-1.6-0.5c-0.5,0-0.9,0.1-1.2,0.3
	s-0.7,0.4-0.9,0.8v6.8l1.4,0.4v2.1H166V410.4z"/>
<path class="st1" d="M181.2,396.2v-2.1h5.2V410l1.7,0.4v2.1h-6.7v-2.1l1.7-0.4v-13.5L181.2,396.2z"/>
<path class="st1" d="M201.9,401.8l-1.2,0.2l-4.7,12.3c-0.4,0.9-0.9,1.7-1.5,2.3s-1.5,0.9-2.8,0.9c-0.3,0-0.6,0-0.8-0.1
	s-0.6-0.1-0.9-0.2l0.4-2.5c0.1,0,0.2,0,0.3,0s0.2,0,0.3,0c0.6,0,1-0.1,1.3-0.4s0.5-0.6,0.7-1l0.4-1l-4-10.4l-1.2-0.2v-2.1h6.2v2.1
	l-1.4,0.2l1.7,5.1l0.2,0.9h0.1l2-6l-1.4-0.2v-2.1h6.2L201.9,401.8L201.9,401.8z"/>
<path class="st1" d="M217.7,410.8c-0.4,0.6-0.9,1.1-1.5,1.4s-1.3,0.5-2,0.5c-1.3,0-2.4-0.4-3.1-1.3s-1.1-2.2-1.1-4v-5.2l-1.4-0.4
	v-2.1h1.4h3.4v7.7c0,0.9,0.2,1.6,0.5,2s0.8,0.6,1.4,0.6c0.5,0,1-0.1,1.4-0.3s0.7-0.4,1-0.8v-6.8l-1.5-0.4v-2.1h1.5h3.4V410l1.5,0.4
	v2.1h-4.5L217.7,410.8z"/>
<path class="st1" d="M233.8,404.1h-2.3l-0.4-1.6c-0.2-0.2-0.5-0.3-0.9-0.5s-0.7-0.2-1.2-0.2c-0.6,0-1.1,0.1-1.4,0.4s-0.5,0.6-0.5,1
	s0.2,0.7,0.5,1s1,0.5,2,0.7c1.6,0.3,2.7,0.8,3.5,1.4s1.1,1.4,1.1,2.5s-0.5,2.1-1.5,2.8s-2.3,1.1-3.9,1.1c-1,0-1.9-0.1-2.7-0.4
	s-1.5-0.7-2.2-1.2v-2.8h2.4l0.5,1.7c0.2,0.2,0.5,0.3,0.8,0.4s0.7,0.1,1.1,0.1c0.7,0,1.2-0.1,1.6-0.4s0.5-0.6,0.5-1s-0.2-0.7-0.6-1
	s-1-0.5-2-0.7c-1.5-0.3-2.6-0.8-3.4-1.4s-1.1-1.4-1.1-2.4c0-1.1,0.4-2,1.3-2.7s2.1-1.2,3.7-1.2c1,0,1.9,0.1,2.8,0.4s1.6,0.6,2.1,1
	L233.8,404.1z"/>
<path class="st1" d="M241.7,412.7c-1.8,0-3.3-0.6-4.4-1.8s-1.6-2.7-1.6-4.5V406c0-1.9,0.5-3.4,1.6-4.7s2.4-1.8,4.2-1.8
	c1.7,0,3,0.5,4,1.5s1.4,2.4,1.4,4.2v1.9h-7.6v0.1c0.1,0.8,0.3,1.5,0.8,2.1s1.2,0.8,2,0.8s1.4-0.1,1.9-0.2s1-0.4,1.6-0.7l0.9,2.1
	c-0.5,0.4-1.2,0.8-2,1S242.7,412.7,241.7,412.7z M241.4,402.2c-0.6,0-1.1,0.2-1.5,0.7s-0.6,1.1-0.7,1.9v0.1h4.2v-0.3
	c0-0.7-0.2-1.3-0.5-1.7S242.1,402.2,241.4,402.2z"/>
<path class="st1" d="M254.3,406c0-1.9,0.5-3.4,1.6-4.6c1.1-1.2,2.5-1.8,4.4-1.8s3.3,0.6,4.4,1.8s1.6,2.8,1.6,4.7v0.2
	c0,1.9-0.5,3.5-1.6,4.7s-2.5,1.8-4.4,1.8s-3.4-0.6-4.4-1.8s-1.6-2.8-1.6-4.7L254.3,406L254.3,406z M257.7,406.2
	c0,1.2,0.2,2.1,0.6,2.8s1.1,1,2,1s1.5-0.4,1.9-1.1s0.6-1.6,0.6-2.8V406c0-1.1-0.2-2-0.6-2.8s-1.1-1.1-2-1.1s-1.5,0.4-1.9,1.1
	s-0.6,1.6-0.6,2.8V406.2z"/>
<path class="st1" d="M267.2,410.4l1.6-0.4v-7.9l-1.8-0.4v-2.1h5l0.2,1.8c0.4-0.6,0.9-1.2,1.6-1.5s1.3-0.5,2.1-0.5
	c1.3,0,2.3,0.4,3,1.2s1.1,2.1,1.1,3.8v5.5l1.6,0.4v2.1H275v-2.1l1.5-0.4v-5.5c0-0.9-0.2-1.5-0.5-1.8s-0.9-0.5-1.6-0.5
	c-0.5,0-0.9,0.1-1.2,0.3s-0.7,0.4-0.9,0.8v6.8l1.4,0.4v2.1h-6.4L267.2,410.4L267.2,410.4z"/>
<path class="st1" d="M288.3,412.7c-1.8,0-3.3-0.6-4.4-1.8s-1.6-2.7-1.6-4.5V406c0-1.9,0.5-3.4,1.6-4.7s2.4-1.8,4.2-1.8
	c1.7,0,3,0.5,4,1.5s1.4,2.4,1.4,4.2v1.9h-7.6v0.1c0.1,0.8,0.3,1.5,0.8,2.1s1.2,0.8,2,0.8s1.4-0.1,1.9-0.2s1-0.4,1.6-0.7l0.9,2.1
	c-0.5,0.4-1.2,0.8-2,1S289.3,412.7,288.3,412.7z M288,402.2c-0.6,0-1.1,0.2-1.5,0.7s-0.6,1.1-0.7,1.9v0.1h4.2v-0.3
	c0-0.7-0.2-1.3-0.5-1.7S288.7,402.2,288,402.2z"/>
<path class="st1" d="M311.3,404.1H309l-0.4-1.6c-0.2-0.2-0.5-0.3-0.9-0.5s-0.7-0.2-1.2-0.2c-0.6,0-1.1,0.1-1.4,0.4s-0.5,0.6-0.5,1
	s0.2,0.7,0.5,1s1,0.5,2,0.7c1.6,0.3,2.7,0.8,3.5,1.4s1.1,1.4,1.1,2.5s-0.5,2.1-1.5,2.8s-2.3,1.1-3.9,1.1c-1,0-1.9-0.1-2.7-0.4
	s-1.5-0.7-2.2-1.2v-2.8h2.4l0.5,1.7c0.2,0.2,0.5,0.3,0.8,0.4s0.7,0.1,1.1,0.1c0.7,0,1.2-0.1,1.6-0.4s0.5-0.6,0.5-1s-0.2-0.7-0.6-1
	s-1-0.5-2-0.7c-1.5-0.3-2.6-0.8-3.4-1.4s-1.1-1.4-1.1-2.4c0-1.1,0.4-2,1.3-2.7s2.1-1.2,3.7-1.2c1,0,1.9,0.1,2.8,0.4s1.6,0.6,2.1,1
	L311.3,404.1z"/>
<path class="st1" d="M313,410.4l1.7-0.4v-7.9l-1.8-0.4v-2.1h5.2V410l1.6,0.4v2.1H313V410.4z M318.1,396.7h-3.4v-2.6h3.4V396.7z"/>
<path class="st1" d="M328.8,410.9c-0.4,0.6-0.9,1-1.4,1.3s-1.2,0.5-1.9,0.5c-1.6,0-2.8-0.6-3.6-1.7s-1.3-2.6-1.3-4.5v-0.2
	c0-2,0.4-3.6,1.3-4.8s2.1-1.8,3.7-1.8c0.6,0,1.2,0.1,1.7,0.4s1,0.7,1.3,1.2v-4.5l-1.8-0.4v-2.1h1.8h3.4V410l1.6,0.4v2.1H329
	L328.8,410.9z M324,406.5c0,1.1,0.2,2,0.6,2.6s1,1,1.8,1c0.5,0,0.9-0.1,1.3-0.3s0.7-0.5,0.9-0.9v-5.4c-0.2-0.4-0.5-0.7-0.9-0.9
	s-0.8-0.3-1.3-0.3c-0.8,0-1.4,0.4-1.8,1.1s-0.6,1.7-0.6,2.9V406.5z"/>
<path class="st1" d="M340.4,412.7c-1.8,0-3.3-0.6-4.4-1.8s-1.6-2.7-1.6-4.5V406c0-1.9,0.5-3.4,1.6-4.7s2.4-1.8,4.2-1.8
	c1.7,0,3,0.5,4,1.5s1.4,2.4,1.4,4.2v1.9H338v0.1c0.1,0.8,0.3,1.5,0.8,2.1s1.2,0.8,2,0.8s1.4-0.1,1.9-0.2s1-0.4,1.6-0.7l0.9,2.1
	c-0.5,0.4-1.2,0.8-2,1S341.4,412.7,340.4,412.7z M340.1,402.2c-0.6,0-1.1,0.2-1.5,0.7s-0.6,1.1-0.7,1.9v0.1h4.2v-0.3
	c0-0.7-0.2-1.3-0.5-1.7S340.8,402.2,340.1,402.2z"/>
<path class="st1" d="M353,406c0-1.9,0.5-3.4,1.6-4.6s2.5-1.8,4.4-1.8s3.3,0.6,4.4,1.8s1.6,2.8,1.6,4.7v0.2c0,1.9-0.5,3.5-1.6,4.7
	s-2.5,1.8-4.4,1.8s-3.4-0.6-4.4-1.8s-1.6-2.8-1.6-4.7V406z M356.4,406.2c0,1.2,0.2,2.1,0.6,2.8s1.1,1,2,1s1.5-0.4,1.9-1.1
	s0.6-1.6,0.6-2.8V406c0-1.1-0.2-2-0.6-2.8s-1.1-1.1-2-1.1s-1.5,0.4-1.9,1.1s-0.6,1.6-0.6,2.8V406.2z"/>
<path class="st1" d="M366.2,410.4l1.7-0.4v-7.9H366v-2.4h1.9v-1.4c0-1.4,0.4-2.5,1.2-3.3s2-1.2,3.5-1.2c0.3,0,0.6,0,0.9,0.1
	s0.6,0.1,1,0.2l-0.3,2.5c-0.2,0-0.4-0.1-0.5-0.1s-0.4,0-0.6,0c-0.6,0-1,0.2-1.3,0.5s-0.4,0.7-0.4,1.3v1.4h2.5v2.4h-2.5v7.9l1.7,0.4
	v2.1h-6.7v-2.1H366.2z"/>
<path class="st1" d="M385.9,396.7v3.1h2.2v2.4h-2.2v6.5c0,0.5,0.1,0.8,0.3,1.1s0.5,0.3,0.8,0.3c0.2,0,0.4,0,0.6,0s0.4-0.1,0.6-0.1
	l0.3,2.5c-0.4,0.1-0.8,0.2-1.1,0.3s-0.8,0.1-1.2,0.1c-1.2,0-2.1-0.3-2.7-1s-1-1.7-1-3.1v-6.5h-1.9v-2.4h1.9v-3.1L385.9,396.7
	L385.9,396.7z"/>
<path class="st1" d="M389.7,410.4l1.7-0.4v-13.5l-1.8-0.4V394h5.2v7.2c0.4-0.6,0.9-1,1.5-1.4s1.2-0.5,1.9-0.5c1.3,0,2.4,0.4,3.1,1.3
	s1.1,2.2,1.1,4.1v5.1l1.6,0.4v2.1h-6.5v-2.1l1.5-0.4v-5.1c0-1-0.2-1.7-0.5-2.1s-0.9-0.6-1.6-0.6c-0.5,0-0.9,0.1-1.2,0.3
	s-0.7,0.4-0.9,0.7v6.9l1.5,0.4v2.1h-6.5v-2H389.7z"/>
<path class="st1" d="M410.8,412.7c-1.8,0-3.3-0.6-4.4-1.8s-1.6-2.7-1.6-4.5V406c0-1.9,0.5-3.4,1.6-4.7s2.4-1.8,4.2-1.8
	c1.7,0,3,0.5,4,1.5s1.4,2.4,1.4,4.2v1.9h-7.6v0.1c0.1,0.8,0.3,1.5,0.8,2.1s1.2,0.8,2,0.8s1.4-0.1,1.9-0.2s1-0.4,1.6-0.7l0.9,2.1
	c-0.5,0.4-1.2,0.8-2,1S411.9,412.7,410.8,412.7z M410.5,402.2c-0.6,0-1.1,0.2-1.5,0.7s-0.6,1.1-0.7,1.9v0.1h4.2v-0.3
	c0-0.7-0.2-1.3-0.5-1.7S411.2,402.2,410.5,402.2z"/>
<path class="st1" d="M141.4,435.3c0,1.9-0.4,3.4-1.3,4.5s-2.1,1.7-3.7,1.7c-0.7,0-1.4-0.2-1.9-0.5s-1-0.8-1.4-1.3l-0.2,1.6h-3v-15.9
	l-1.8-0.4v-2h5.2v6.9c0.4-0.5,0.8-0.9,1.3-1.2s1.1-0.4,1.8-0.4c1.6,0,2.8,0.6,3.7,1.8s1.3,2.8,1.3,4.9L141.4,435.3L141.4,435.3z
	 M138,435c0-1.2-0.2-2.2-0.5-2.9s-1-1.1-1.9-1.1c-0.5,0-1,0.1-1.3,0.3s-0.7,0.5-0.9,1v5.4c0.2,0.4,0.5,0.7,0.9,0.9s0.8,0.3,1.4,0.3
	c0.9,0,1.5-0.3,1.9-0.9s0.5-1.5,0.5-2.6L138,435L138,435z"/>
<path class="st1" d="M150.8,441.2c-0.1-0.2-0.2-0.4-0.2-0.7s-0.1-0.4-0.2-0.7c-0.4,0.5-0.9,0.8-1.5,1.1s-1.2,0.4-2,0.4
	c-1.2,0-2.2-0.3-3-1s-1.1-1.6-1.1-2.8c0-1.2,0.5-2.1,1.4-2.8s2.4-1,4.2-1h1.7v-1.2c0-0.6-0.2-1.1-0.5-1.4s-0.9-0.5-1.6-0.5
	c-0.4,0-0.7,0-1,0.1s-0.6,0.2-0.7,0.3l-0.2,1.4h-2.6v-2.8c0.6-0.4,1.3-0.8,2.2-1.1s1.7-0.4,2.6-0.4c1.6,0,2.8,0.4,3.8,1.2
	s1.5,1.9,1.5,3.3v5.2c0,0.2,0,0.4,0,0.6s0,0.3,0,0.5l1,0.1v2.1L150.8,441.2L150.8,441.2z M147.8,439c0.5,0,1-0.1,1.4-0.3
	s0.8-0.5,1-0.8V436h-1.7c-0.7,0-1.3,0.2-1.7,0.5s-0.6,0.7-0.6,1.2c0,0.4,0.1,0.8,0.4,1S147.3,439,147.8,439z"/>
<path class="st1" d="M156.1,439.2l1.6-0.4V431l-1.8-0.4v-2.1h5l0.2,1.9c0.3-0.7,0.7-1.2,1.1-1.5s1-0.6,1.6-0.6c0.2,0,0.4,0,0.6,0
	s0.4,0.1,0.5,0.1l-0.4,3.1h-1.4c-0.5,0-0.9,0.1-1.2,0.3s-0.6,0.5-0.8,0.8v6.2l1.6,0.4v2.1H156L156.1,439.2L156.1,439.2z"/>
<path class="st1" d="M166.3,439.2l1.6-0.4V431l-1.8-0.4v-2.1h5l0.2,1.9c0.3-0.7,0.7-1.2,1.1-1.5s1-0.6,1.6-0.6c0.2,0,0.4,0,0.6,0
	s0.4,0.1,0.5,0.1l-0.4,3.1h-1.4c-0.5,0-0.9,0.1-1.2,0.3s-0.6,0.5-0.8,0.8v6.2l1.6,0.4v2.1h-6.7L166.3,439.2L166.3,439.2z"/>
<path class="st1" d="M176.3,439.2l1.7-0.4V431l-1.8-0.4v-2.1h5.2v10.3l1.6,0.4v2.1h-6.7V439.2z M181.4,425.5H178V423h3.4V425.5z"/>
<path class="st1" d="M189.8,441.5c-1.8,0-3.3-0.6-4.4-1.8s-1.6-2.7-1.6-4.5v-0.5c0-1.9,0.5-3.4,1.6-4.7s2.4-1.8,4.2-1.8
	c1.7,0,3,0.5,4,1.5s1.4,2.4,1.4,4.2v1.9h-7.6v0.1c0.1,0.8,0.3,1.5,0.8,2.1s1.2,0.8,2,0.8s1.4-0.1,1.9-0.2s1-0.4,1.6-0.7l0.9,2.1
	c-0.5,0.4-1.2,0.8-2,1S190.8,441.5,189.8,441.5z M189.5,431c-0.6,0-1.1,0.2-1.5,0.7s-0.6,1.1-0.7,1.9v0.1h4.2v-0.3
	c0-0.7-0.2-1.3-0.5-1.7S190.2,431,189.5,431z"/>
<path class="st1" d="M196.3,439.2l1.6-0.4V431l-1.8-0.4v-2.1h5l0.2,1.9c0.3-0.7,0.7-1.2,1.1-1.5s1-0.6,1.6-0.6c0.2,0,0.4,0,0.6,0
	s0.4,0.1,0.5,0.1l-0.4,3.1h-1.4c-0.5,0-0.9,0.1-1.2,0.3s-0.6,0.5-0.8,0.8v6.2l1.6,0.4v2.1h-6.7L196.3,439.2L196.3,439.2z"/>
<path class="st1" d="M209,440.8c0,0.8-0.2,1.6-0.7,2.5s-1,1.6-1.6,2.2l-1.7-0.9c0.3-0.5,0.5-1.1,0.7-1.7s0.2-1.2,0.2-2v-2.6h3.1
	V440.8z"/>
<path class="st1" d="M225,441.2c-0.1-0.2-0.2-0.4-0.2-0.7s-0.1-0.4-0.2-0.7c-0.4,0.5-0.9,0.8-1.5,1.1s-1.2,0.4-2,0.4
	c-1.2,0-2.2-0.3-3-1s-1.1-1.6-1.1-2.8c0-1.2,0.5-2.1,1.4-2.8s2.4-1,4.2-1h1.7v-1.2c0-0.6-0.2-1.1-0.5-1.4s-0.9-0.5-1.6-0.5
	c-0.4,0-0.7,0-1,0.1s-0.6,0.2-0.7,0.3l-0.2,1.4h-2.6v-2.8c0.6-0.4,1.3-0.8,2.2-1.1s1.7-0.4,2.6-0.4c1.6,0,2.8,0.4,3.8,1.2
	s1.5,1.9,1.5,3.3v5.2c0,0.2,0,0.4,0,0.6s0,0.3,0,0.5l1,0.1v2.1L225,441.2L225,441.2z M222,439c0.5,0,1-0.1,1.4-0.3s0.8-0.5,1-0.8
	V436h-1.7c-0.7,0-1.3,0.2-1.7,0.5s-0.6,0.7-0.6,1.2c0,0.4,0.1,0.8,0.4,1S221.5,439,222,439z"/>
<path class="st1" d="M230.1,439.2l1.6-0.4V431l-1.8-0.4v-2.1h5l0.2,1.8c0.4-0.6,0.9-1.2,1.6-1.5s1.3-0.5,2.1-0.5
	c1.3,0,2.3,0.4,3,1.2s1.1,2.1,1.1,3.8v5.5l1.6,0.4v2.1H238v-2.1l1.5-0.4v-5.5c0-0.9-0.2-1.5-0.5-1.8s-0.9-0.5-1.6-0.5
	c-0.5,0-0.9,0.1-1.2,0.3s-0.7,0.4-0.9,0.8v6.8l1.4,0.4v2.1h-6.4v-2.2L230.1,439.2L230.1,439.2z"/>
<path class="st1" d="M253.4,439.7c-0.4,0.6-0.9,1-1.4,1.3s-1.2,0.5-1.9,0.5c-1.6,0-2.8-0.6-3.6-1.7s-1.3-2.6-1.3-4.5V435
	c0-2,0.4-3.6,1.3-4.8s2.1-1.8,3.7-1.8c0.6,0,1.2,0.1,1.7,0.4s1,0.7,1.3,1.2v-4.5l-1.8-0.4V423h1.8h3.4v15.9l1.6,0.4v2.1h-4.6
	L253.4,439.7z M248.7,435.3c0,1.1,0.2,2,0.6,2.6s1,1,1.8,1c0.5,0,0.9-0.1,1.3-0.3s0.7-0.5,0.9-0.9v-5.4c-0.2-0.4-0.5-0.7-0.9-0.9
	s-0.8-0.3-1.3-0.3c-0.8,0-1.4,0.4-1.8,1.1s-0.6,1.7-0.6,2.9V435.3z"/>
<path class="st1" d="M273.5,439.7c-0.4,0.6-0.9,1-1.4,1.3s-1.2,0.5-1.9,0.5c-1.6,0-2.8-0.6-3.6-1.7s-1.3-2.6-1.3-4.5V435
	c0-2,0.4-3.6,1.3-4.8s2.1-1.8,3.7-1.8c0.6,0,1.2,0.1,1.7,0.4s1,0.7,1.3,1.2v-4.5l-1.8-0.4V423h1.8h3.4v15.9l1.6,0.4v2.1h-4.6
	L273.5,439.7z M268.8,435.3c0,1.1,0.2,2,0.6,2.6s1,1,1.8,1c0.5,0,0.9-0.1,1.3-0.3s0.7-0.5,0.9-0.9v-5.4c-0.2-0.4-0.5-0.7-0.9-0.9
	s-0.8-0.3-1.3-0.3c-0.8,0-1.4,0.4-1.8,1.1s-0.6,1.7-0.6,2.9V435.3z"/>
<path class="st1" d="M279.1,434.8c0-1.9,0.5-3.4,1.6-4.6s2.5-1.8,4.4-1.8s3.3,0.6,4.4,1.8s1.6,2.8,1.6,4.7v0.2
	c0,1.9-0.5,3.5-1.6,4.7s-2.5,1.8-4.4,1.8s-3.4-0.6-4.4-1.8s-1.6-2.8-1.6-4.7V434.8z M282.5,435c0,1.2,0.2,2.1,0.6,2.8s1.1,1,2,1
	s1.5-0.4,1.9-1.1s0.6-1.6,0.6-2.8v-0.2c0-1.1-0.2-2-0.6-2.8s-1.1-1.1-2-1.1s-1.5,0.4-1.9,1.1s-0.6,1.6-0.6,2.8V435z"/>
<path class="st1" d="M292,439.2l1.6-0.4V431l-1.8-0.4v-2.1h5l0.2,1.8c0.4-0.6,0.9-1.2,1.6-1.5s1.3-0.5,2.1-0.5c1.3,0,2.3,0.4,3,1.2
	s1.1,2.1,1.1,3.8v5.5l1.6,0.4v2.1h-6.5v-2.1l1.5-0.4v-5.5c0-0.9-0.2-1.5-0.5-1.8s-0.9-0.5-1.6-0.5c-0.5,0-0.9,0.1-1.2,0.3
	s-0.7,0.4-0.9,0.8v6.8l1.4,0.4v2.1H292V439.2z"/>
<path class="st1" d="M309.9,425.2c0,0.8-0.2,1.6-0.6,2.5s-0.9,1.6-1.5,2.1l-1.7-0.9c0.3-0.5,0.5-1.1,0.7-1.7s0.2-1.2,0.2-2V423h2.9
	V425.2z"/>
<path class="st1" d="M316.4,425.5v3.1h2.2v2.4h-2.2v6.5c0,0.5,0.1,0.8,0.3,1.1s0.5,0.3,0.8,0.3c0.2,0,0.4,0,0.6,0s0.4-0.1,0.6-0.1
	l0.3,2.5c-0.4,0.1-0.8,0.2-1.1,0.3s-0.8,0.1-1.2,0.1c-1.2,0-2.1-0.3-2.7-1s-1-1.7-1-3.1V431h-1.9v-2.4h1.9v-3.1H316.4z"/>
<path class="st1" d="M336.5,432.9h-2.3l-0.4-1.6c-0.2-0.2-0.5-0.3-0.9-0.5s-0.7-0.2-1.2-0.2c-0.6,0-1.1,0.1-1.4,0.4s-0.5,0.6-0.5,1
	s0.2,0.7,0.5,1s1,0.5,2,0.7c1.6,0.3,2.7,0.8,3.5,1.4s1.1,1.4,1.1,2.5s-0.5,2.1-1.5,2.8s-2.3,1.1-3.9,1.1c-1,0-1.9-0.1-2.7-0.4
	s-1.5-0.7-2.2-1.2v-2.8h2.4l0.5,1.7c0.2,0.2,0.5,0.3,0.8,0.4s0.7,0.1,1.1,0.1c0.7,0,1.2-0.1,1.6-0.4s0.5-0.6,0.5-1s-0.2-0.7-0.6-1
	s-1-0.5-2-0.7c-1.5-0.3-2.6-0.8-3.4-1.4s-1.1-1.4-1.1-2.4c0-1.1,0.4-2,1.3-2.7s2.1-1.2,3.7-1.2c1,0,1.9,0.1,2.8,0.4s1.6,0.6,2.1,1
	L336.5,432.9z"/>
<path class="st1" d="M338.2,439.2l1.7-0.4v-13.5L338,425v-2h5.2v7.2c0.4-0.6,0.9-1,1.5-1.4s1.2-0.5,1.9-0.5c1.3,0,2.4,0.4,3.1,1.3
	s1.1,2.2,1.1,4.1v5.1l1.6,0.4v2.1H346v-2.1l1.5-0.4v-5.1c0-1-0.2-1.7-0.5-2.1s-0.9-0.6-1.6-0.6c-0.5,0-0.9,0.1-1.2,0.3
	s-0.7,0.4-0.9,0.7v6.9l1.5,0.4v2.1h-6.5L338.2,439.2L338.2,439.2z"/>
<path class="st1" d="M361.7,441.2c-0.1-0.2-0.2-0.4-0.2-0.7s-0.1-0.4-0.2-0.7c-0.4,0.5-0.9,0.8-1.5,1.1s-1.2,0.4-2,0.4
	c-1.2,0-2.2-0.3-3-1s-1.1-1.6-1.1-2.8c0-1.2,0.5-2.1,1.4-2.8s2.4-1,4.2-1h1.7v-1.2c0-0.6-0.2-1.1-0.5-1.4s-0.9-0.5-1.6-0.5
	c-0.4,0-0.7,0-1,0.1s-0.6,0.2-0.7,0.3l-0.2,1.4h-2.6v-2.8c0.6-0.4,1.3-0.8,2.2-1.1s1.7-0.4,2.6-0.4c1.6,0,2.8,0.4,3.8,1.2
	s1.5,1.9,1.5,3.3v5.2c0,0.2,0,0.4,0,0.6s0,0.3,0,0.5l1,0.1v2.1L361.7,441.2L361.7,441.2z M358.7,439c0.5,0,1-0.1,1.4-0.3
	s0.8-0.5,1-0.8V436h-1.7c-0.7,0-1.3,0.2-1.7,0.5s-0.6,0.7-0.6,1.2c0,0.4,0.1,0.8,0.4,1S358.2,439,358.7,439z"/>
<path class="st1" d="M367,439.2l1.6-0.4V431l-1.8-0.4v-2.1h5l0.2,1.9c0.3-0.7,0.7-1.2,1.1-1.5s1-0.6,1.6-0.6c0.2,0,0.4,0,0.6,0
	s0.4,0.1,0.5,0.1l-0.4,3.1H374c-0.5,0-0.9,0.1-1.2,0.3s-0.6,0.5-0.8,0.8v6.2l1.6,0.4v2.1H367V439.2z"/>
<path class="st1" d="M382.6,441.5c-1.8,0-3.3-0.6-4.4-1.8s-1.6-2.7-1.6-4.5v-0.5c0-1.9,0.5-3.4,1.6-4.7s2.4-1.8,4.2-1.8
	c1.7,0,3,0.5,4,1.5s1.4,2.4,1.4,4.2v1.9h-7.6v0.1c0.1,0.8,0.3,1.5,0.8,2.1s1.2,0.8,2,0.8s1.4-0.1,1.9-0.2s1-0.4,1.6-0.7l0.9,2.1
	c-0.5,0.4-1.2,0.8-2,1S383.6,441.5,382.6,441.5z M382.3,431c-0.6,0-1.1,0.2-1.5,0.7s-0.6,1.1-0.7,1.9v0.1h4.2v-0.3
	c0-0.7-0.2-1.3-0.5-1.7S383,431,382.3,431z"/>
<path class="st1" d="M403.3,441.2c-0.1-0.2-0.2-0.4-0.2-0.7s-0.1-0.4-0.2-0.7c-0.4,0.5-0.9,0.8-1.5,1.1s-1.2,0.4-2,0.4
	c-1.2,0-2.2-0.3-3-1s-1.1-1.6-1.1-2.8c0-1.2,0.5-2.1,1.4-2.8s2.4-1,4.2-1h1.7v-1.2c0-0.6-0.2-1.1-0.5-1.4s-0.9-0.5-1.6-0.5
	c-0.4,0-0.7,0-1,0.1s-0.6,0.2-0.7,0.3l-0.2,1.4H396v-2.8c0.6-0.4,1.3-0.8,2.2-1.1s1.7-0.4,2.6-0.4c1.6,0,2.8,0.4,3.8,1.2
	s1.5,1.9,1.5,3.3v5.2c0,0.2,0,0.4,0,0.6s0,0.3,0,0.5l1,0.1v2.1L403.3,441.2L403.3,441.2z M400.3,439c0.5,0,1-0.1,1.4-0.3
	s0.8-0.5,1-0.8V436H401c-0.7,0-1.3,0.2-1.7,0.5s-0.6,0.7-0.6,1.2c0,0.4,0.1,0.8,0.4,1S399.8,439,400.3,439z"/>
<path class="st1" d="M137.4,468.5c-0.4,0.6-0.9,1-1.4,1.3s-1.2,0.5-1.9,0.5c-1.6,0-2.8-0.6-3.6-1.7s-1.3-2.6-1.3-4.5v-0.2
	c0-2,0.4-3.6,1.3-4.8s2.1-1.8,3.7-1.8c0.6,0,1.2,0.1,1.7,0.4s1,0.7,1.3,1.2v-4.5l-1.8-0.4v-2.1h1.8h3.4v15.9l1.6,0.4v2.1h-4.6
	L137.4,468.5z M132.6,464.1c0,1.1,0.2,2,0.6,2.6s1,1,1.8,1c0.5,0,0.9-0.1,1.3-0.3s0.7-0.5,0.9-0.9v-5.4c-0.2-0.4-0.5-0.7-0.9-0.9
	s-0.8-0.3-1.3-0.3c-0.8,0-1.4,0.4-1.8,1.1s-0.6,1.7-0.6,2.9V464.1z"/>
<path class="st1" d="M149,470.3c-1.8,0-3.3-0.6-4.4-1.8s-1.6-2.7-1.6-4.5v-0.5c0-1.9,0.5-3.4,1.6-4.7s2.4-1.8,4.2-1.8
	c1.7,0,3,0.5,4,1.5s1.4,2.4,1.4,4.2v1.9h-7.6v0.1c0.1,0.8,0.3,1.5,0.8,2.1s1.2,0.8,2,0.8s1.4-0.1,1.9-0.2s1-0.4,1.6-0.7l0.9,2.1
	c-0.5,0.4-1.2,0.8-2,1S150,470.3,149,470.3z M148.7,459.8c-0.6,0-1.1,0.2-1.5,0.7s-0.6,1.1-0.7,1.9v0.1h4.2v-0.3
	c0-0.7-0.2-1.3-0.5-1.7S149.4,459.8,148.7,459.8z"/>
<path class="st1" d="M155.3,468l1.6-0.4v-7.9l-1.8-0.4v-2.1h5l0.2,1.8c0.4-0.6,0.9-1.2,1.6-1.5s1.3-0.5,2.1-0.5c1.3,0,2.3,0.4,3,1.2
	s1.1,2.1,1.1,3.8v5.5l1.6,0.4v2.1h-6.5v-2l1.5-0.4v-5.5c0-0.9-0.2-1.5-0.5-1.8s-0.9-0.5-1.6-0.5c-0.5,0-0.9,0.1-1.2,0.3
	s-0.7,0.4-0.9,0.8v6.8l1.4,0.4v2.1h-6.4V468H155.3z"/>
<path class="st1" d="M175.1,454.3v3.1h2.2v2.4h-2.2v6.5c0,0.5,0.1,0.8,0.3,1.1s0.5,0.3,0.8,0.3c0.2,0,0.4,0,0.6,0s0.4-0.1,0.6-0.1
	l0.3,2.5c-0.4,0.1-0.8,0.2-1.1,0.3s-0.8,0.1-1.2,0.1c-1.2,0-2.1-0.3-2.7-1s-1-1.7-1-3.1v-6.5h-1.9v-2.4h1.9v-3.1L175.1,454.3
	L175.1,454.3z"/>
<path class="st1" d="M186.9,470c-0.1-0.2-0.2-0.4-0.2-0.7s-0.1-0.4-0.2-0.7c-0.4,0.5-0.9,0.8-1.5,1.1s-1.2,0.4-2,0.4
	c-1.2,0-2.2-0.3-3-1s-1.1-1.6-1.1-2.8c0-1.2,0.5-2.1,1.4-2.8s2.4-1,4.2-1h1.7v-1.2c0-0.6-0.2-1.1-0.5-1.4s-0.9-0.5-1.6-0.5
	c-0.4,0-0.7,0-1,0.1s-0.6,0.2-0.7,0.3l-0.2,1.4h-2.6v-2.8c0.6-0.4,1.3-0.8,2.2-1.1s1.7-0.4,2.6-0.4c1.6,0,2.8,0.4,3.8,1.2
	s1.5,1.9,1.5,3.3v5.2c0,0.2,0,0.4,0,0.6s0,0.3,0,0.5l1,0.1v2.1L186.9,470L186.9,470z M183.9,467.8c0.5,0,1-0.1,1.4-0.3
	s0.8-0.5,1-0.8v-1.9h-1.7c-0.7,0-1.3,0.2-1.7,0.5s-0.6,0.7-0.6,1.2c0,0.4,0.1,0.8,0.4,1S183.4,467.8,183.9,467.8z"/>
<path class="st1" d="M191.8,453.8v-2.1h5.2v15.9l1.7,0.4v2.1H192V468l1.7-0.4v-13.5L191.8,453.8z"/>
<path class="st1" d="M213.9,468.5c-0.4,0.6-0.9,1-1.4,1.3s-1.2,0.5-1.9,0.5c-1.6,0-2.8-0.6-3.6-1.7s-1.3-2.6-1.3-4.5v-0.2
	c0-2,0.4-3.6,1.3-4.8s2.1-1.8,3.7-1.8c0.6,0,1.2,0.1,1.7,0.4s1,0.7,1.3,1.2v-4.5l-1.8-0.4v-2.1h1.8h3.4v15.9l1.6,0.4v2.1h-4.6
	L213.9,468.5z M209.1,464.1c0,1.1,0.2,2,0.6,2.6s1,1,1.8,1c0.5,0,0.9-0.1,1.3-0.3s0.7-0.5,0.9-0.9v-5.4c-0.2-0.4-0.5-0.7-0.9-0.9
	s-0.8-0.3-1.3-0.3c-0.8,0-1.4,0.4-1.8,1.1s-0.6,1.7-0.6,2.9V464.1z"/>
<path class="st1" d="M227.9,470c-0.1-0.2-0.2-0.4-0.2-0.7s-0.1-0.4-0.2-0.7c-0.4,0.5-0.9,0.8-1.5,1.1s-1.2,0.4-2,0.4
	c-1.2,0-2.2-0.3-3-1s-1.1-1.6-1.1-2.8c0-1.2,0.5-2.1,1.4-2.8s2.4-1,4.2-1h1.7v-1.2c0-0.6-0.2-1.1-0.5-1.4s-0.9-0.5-1.6-0.5
	c-0.4,0-0.7,0-1,0.1s-0.6,0.2-0.7,0.3l-0.2,1.4h-2.6v-2.8c0.6-0.4,1.3-0.8,2.2-1.1s1.7-0.4,2.6-0.4c1.6,0,2.8,0.4,3.8,1.2
	s1.5,1.9,1.5,3.3v5.2c0,0.2,0,0.4,0,0.6s0,0.3,0,0.5l1,0.1v2.1L227.9,470L227.9,470z M225,467.8c0.5,0,1-0.1,1.4-0.3s0.8-0.5,1-0.8
	v-1.9h-1.7c-0.7,0-1.3,0.2-1.7,0.5s-0.6,0.7-0.6,1.2c0,0.4,0.1,0.8,0.4,1S224.5,467.8,225,467.8z"/>
<path class="st1" d="M232.8,459.4v-2.1h5l0.1,1.7c0.4-0.6,0.9-1.1,1.5-1.4s1.3-0.5,2.1-0.5s1.5,0.2,2.1,0.5s1,0.9,1.3,1.6
	c0.4-0.7,0.9-1.2,1.5-1.6s1.4-0.6,2.2-0.6c1.2,0,2.2,0.4,3,1.3s1.1,2.2,1.1,3.9v5.3l1.7,0.4v2.1h-6.6v-2l1.5-0.4v-5.3
	c0-1-0.2-1.6-0.5-2s-0.8-0.6-1.4-0.6c-0.5,0-0.9,0.1-1.3,0.3s-0.6,0.5-0.8,0.9c0,0.1,0,0.3,0,0.4s0,0.2,0,0.3v5.9l1.4,0.4v2.1h-6.2
	v-2l1.4-0.4v-5.3c0-0.9-0.2-1.6-0.5-2s-0.8-0.6-1.4-0.6c-0.5,0-0.9,0.1-1.2,0.3s-0.6,0.4-0.9,0.7v6.8l1.5,0.4v2.1H233v-2l1.7-0.4
	v-7.9L232.8,459.4z"/>
<path class="st1" d="M279.5,459.4l-1.3,0.2l-2.6,10.5h-2.9l-2.4-7.5h-0.1l-2.4,7.5H265l-2.7-10.5l-1.3-0.2v-2.1h5.7v2.1l-1.3,0.3
	l1.2,5.8h0.1l2.4-8.1h2.3l2.4,8.1h0.1l1.2-5.8l-1.4-0.3v-2.1h5.7L279.5,459.4L279.5,459.4z"/>
<path class="st1" d="M280.8,468l1.7-0.4v-7.9l-1.8-0.4v-2.1h5.2v10.3l1.6,0.4v2.1h-6.7L280.8,468L280.8,468z M285.9,454.3h-3.4v-2.6
	h3.4V454.3z"/>
<path class="st1" d="M293.1,454.3v3.1h2.2v2.4h-2.2v6.5c0,0.5,0.1,0.8,0.3,1.1s0.5,0.3,0.8,0.3c0.2,0,0.4,0,0.6,0s0.4-0.1,0.6-0.1
	l0.3,2.5c-0.4,0.1-0.8,0.2-1.1,0.3s-0.8,0.1-1.2,0.1c-1.2,0-2.1-0.3-2.7-1s-1-1.7-1-3.1v-6.5h-1.9v-2.4h1.9v-3.1L293.1,454.3
	L293.1,454.3z"/>
<path class="st1" d="M296.9,468l1.7-0.4v-13.5l-1.8-0.4v-2.1h5.2v7.2c0.4-0.6,0.9-1,1.5-1.4s1.2-0.5,1.9-0.5c1.3,0,2.4,0.4,3.1,1.3
	s1.1,2.2,1.1,4.1v5.1l1.6,0.4v2.1h-6.5V468l1.5-0.4v-5.1c0-1-0.2-1.7-0.5-2.1s-0.9-0.6-1.6-0.6c-0.5,0-0.9,0.1-1.2,0.3
	s-0.7,0.4-0.9,0.7v6.9l1.5,0.4v2.1H297V468H296.9z"/>
<path class="st1" d="M331.3,459.4l-1.2,0.2l-4.7,12.3c-0.4,0.9-0.9,1.7-1.5,2.3s-1.5,0.9-2.8,0.9c-0.3,0-0.6,0-0.8-0.1
	s-0.6-0.1-0.9-0.2l0.4-2.5c0.1,0,0.2,0,0.3,0s0.2,0,0.3,0c0.6,0,1-0.1,1.3-0.4s0.5-0.6,0.7-1l0.4-1l-4-10.4l-1.2-0.2v-2.1h6.2v2.1
	l-1.4,0.2l1.7,5.1l0.2,0.9h0.1l2-6l-1.4-0.2v-2.1h6.2L331.3,459.4L331.3,459.4z"/>
<path class="st1" d="M332,463.6c0-1.9,0.5-3.4,1.6-4.6s2.5-1.8,4.4-1.8s3.3,0.6,4.4,1.8s1.6,2.8,1.6,4.7v0.2c0,1.9-0.5,3.5-1.6,4.7
	s-2.5,1.8-4.4,1.8s-3.4-0.6-4.4-1.8s-1.6-2.8-1.6-4.7V463.6z M335.5,463.8c0,1.2,0.2,2.1,0.6,2.8s1.1,1,2,1s1.5-0.4,1.9-1.1
	s0.6-1.6,0.6-2.8v-0.2c0-1.1-0.2-2-0.6-2.8s-1.1-1.1-2-1.1s-1.5,0.4-1.9,1.1s-0.6,1.6-0.6,2.8V463.8z"/>
<path class="st1" d="M354,468.4c-0.4,0.6-0.9,1.1-1.5,1.4s-1.3,0.5-2,0.5c-1.3,0-2.4-0.4-3.1-1.3s-1.1-2.2-1.1-4v-5.2l-1.4-0.4v-2.1
	h1.4h3.4v7.7c0,0.9,0.2,1.6,0.5,2s0.8,0.6,1.4,0.6c0.5,0,1-0.1,1.4-0.3s0.7-0.4,1-0.8v-6.8l-1.5-0.4v-2.1h1.5h3.4v10.3l1.5,0.4v2.1
	h-4.5L354,468.4z"/>
<path class="st1" d="M360.2,468l1.6-0.4v-7.9l-1.8-0.4v-2.1h5l0.2,1.9c0.3-0.7,0.7-1.2,1.1-1.5s1-0.6,1.6-0.6c0.2,0,0.4,0,0.6,0
	s0.4,0.1,0.5,0.1l-0.4,3.1h-1.4c-0.5,0-0.9,0.1-1.2,0.3s-0.6,0.5-0.8,0.8v6.2l1.6,0.4v2.1h-6.7L360.2,468L360.2,468z"/>
<path class="st1" d="M375.7,459.4v-2.1h5l0.2,1.5c0.4-0.5,0.8-1,1.3-1.3s1.1-0.4,1.8-0.4c1.6,0,2.8,0.6,3.7,1.8s1.3,2.8,1.3,4.8v0.2
	c0,1.9-0.4,3.4-1.3,4.5s-2.1,1.7-3.6,1.7c-0.7,0-1.3-0.1-1.8-0.4s-1-0.6-1.3-1.1v3.7l1.7,0.4v2.1H376v-2.1l1.7-0.4v-12.7
	L375.7,459.4z M385.5,463.8c0-1.2-0.2-2.2-0.6-2.9s-1-1.1-1.8-1.1c-0.5,0-1,0.1-1.3,0.3s-0.7,0.5-0.9,0.9v5.6
	c0.2,0.4,0.5,0.6,0.9,0.8s0.8,0.3,1.3,0.3c0.8,0,1.4-0.3,1.8-1s0.6-1.5,0.6-2.6V463.8z"/>
<path class="st1" d="M398.3,470c-0.1-0.2-0.2-0.4-0.2-0.7s-0.1-0.4-0.2-0.7c-0.4,0.5-0.9,0.8-1.5,1.1s-1.2,0.4-2,0.4
	c-1.2,0-2.2-0.3-3-1s-1.1-1.6-1.1-2.8c0-1.2,0.5-2.1,1.4-2.8s2.4-1,4.2-1h1.7v-1.2c0-0.6-0.2-1.1-0.5-1.4s-0.9-0.5-1.6-0.5
	c-0.4,0-0.7,0-1,0.1s-0.6,0.2-0.7,0.3l-0.2,1.4H391v-2.8c0.6-0.4,1.3-0.8,2.2-1.1s1.7-0.4,2.6-0.4c1.6,0,2.8,0.4,3.8,1.2
	s1.5,1.9,1.5,3.3v5.2c0,0.2,0,0.4,0,0.6s0,0.3,0,0.5l1,0.1v2.1L398.3,470L398.3,470z M395.3,467.8c0.5,0,1-0.1,1.4-0.3
	s0.8-0.5,1-0.8v-1.9H396c-0.7,0-1.3,0.2-1.7,0.5s-0.6,0.7-0.6,1.2c0,0.4,0.1,0.8,0.4,1S394.8,467.8,395.3,467.8z"/>
<path class="st1" d="M403.6,468l1.6-0.4v-7.9l-1.8-0.4v-2.1h5l0.2,1.9c0.3-0.7,0.7-1.2,1.1-1.5s1-0.6,1.6-0.6c0.2,0,0.4,0,0.6,0
	s0.4,0.1,0.5,0.1l-0.4,3.1h-1.4c-0.5,0-0.9,0.1-1.2,0.3s-0.6,0.5-0.8,0.8v6.2l1.6,0.4v2.1h-6.7L403.6,468L403.6,468z"/>
<path class="st1" d="M418.8,454.3v3.1h2.2v2.4h-2.2v6.5c0,0.5,0.1,0.8,0.3,1.1s0.5,0.3,0.8,0.3c0.2,0,0.4,0,0.6,0s0.4-0.1,0.6-0.1
	l0.3,2.5c-0.4,0.1-0.8,0.2-1.1,0.3s-0.8,0.1-1.2,0.1c-1.2,0-2.1-0.3-2.7-1s-1-1.7-1-3.1v-6.5h-1.9v-2.4h1.9v-3.1L418.8,454.3
	L418.8,454.3z"/>
<path class="st1" d="M422.6,468l1.6-0.4v-7.9l-1.8-0.4v-2.1h5l0.2,1.8c0.4-0.6,0.9-1.2,1.6-1.5s1.3-0.5,2.1-0.5c1.3,0,2.3,0.4,3,1.2
	s1.1,2.1,1.1,3.8v5.5l1.6,0.4v2.1h-6.5v-2l1.5-0.4v-5.5c0-0.9-0.2-1.5-0.5-1.8s-0.9-0.5-1.6-0.5c-0.5,0-0.9,0.1-1.2,0.3
	s-0.7,0.4-0.9,0.8v6.8l1.4,0.4v2.1h-6.4V468H422.6z"/>
<path class="st1" d="M443.7,470.3c-1.8,0-3.3-0.6-4.4-1.8s-1.6-2.7-1.6-4.5v-0.5c0-1.9,0.5-3.4,1.6-4.7s2.4-1.8,4.2-1.8
	c1.7,0,3,0.5,4,1.5s1.4,2.4,1.4,4.2v1.9h-7.6v0.1c0.1,0.8,0.3,1.5,0.8,2.1s1.2,0.8,2,0.8s1.4-0.1,1.9-0.2s1-0.4,1.6-0.7l0.9,2.1
	c-0.5,0.4-1.2,0.8-2,1S444.7,470.3,443.7,470.3z M443.4,459.8c-0.6,0-1.1,0.2-1.5,0.7s-0.6,1.1-0.7,1.9v0.1h4.2v-0.3
	c0-0.7-0.2-1.3-0.5-1.7S444.1,459.8,443.4,459.8z"/>
<path class="st1" d="M450.2,468l1.6-0.4v-7.9l-1.8-0.4v-2.1h5l0.2,1.9c0.3-0.7,0.7-1.2,1.1-1.5s1-0.6,1.6-0.6c0.2,0,0.4,0,0.6,0
	s0.4,0.1,0.5,0.1l-0.4,3.1h-1.4c-0.5,0-0.9,0.1-1.2,0.3s-0.6,0.5-0.8,0.8v6.2l1.6,0.4v2.1h-6.7L450.2,468L450.2,468z"/>
<path class="st1" d="M463.3,470h-3.4v-3h3.4V470z"/>
</svg>
