<svg id="Layer_1" data-name="Layer 1" xmlns="http://www.w3.org/2000/svg" viewBox="0 0 214.52 376.7"><defs><style>.cls-1{fill:#6dc065;stroke:#f5faf8;stroke-linecap:round;stroke-linejoin:round;stroke-width:10px;}</style></defs><title>std graphics</title><path class="cls-1" d="M63.56,357.76s6.56-44.6,5.62-74.28-53.11-264.4-24-265.32S86,129.68,86,129.68,83.08,5.8,108.47,5,128.3,134.51,128.3,134.51,127.09,15.09,149.94,14.38,172,134.16,172,134.16s-1.76-69.08,27.14-70-11.87,216.56-11,243.32A188.9,188.9,0,0,0,196.25,356Z"/><path class="cls-1" d="M77.24,278.5S-14.31,147.66,8.71,133.38s86.54,82,86.54,82"/><ellipse class="cls-1" cx="129.94" cy="358.12" rx="66.34" ry="13.43" transform="translate(-11.17 4.25) rotate(-1.8)"/></svg>