<svg id="Layer_1" data-name="Layer 1" xmlns="http://www.w3.org/2000/svg" viewBox="0 0 611.8 611.8"><defs><style>.cls-1{fill:#f5faf8;stroke:#6dc065;stroke-linecap:round;stroke-linejoin:round;stroke-width:11.8px;}.cls-2{font-size:32px;fill:#6dc065;font-family:RobotoSlab-Bold, Roboto Slab;font-weight:700;}.cls-3{letter-spacing:-0.01em;}.cls-4{letter-spacing:-0.02em;}.cls-5{letter-spacing:-0.02em;}.cls-6{letter-spacing:-0.02em;}.cls-7{letter-spacing:-0.01em;}.cls-8{font-size:24px;}.cls-9{letter-spacing:0em;}.cls-10{letter-spacing:-0.02em;}.cls-11{letter-spacing:-0.02em;}.cls-12{letter-spacing:0em;}.cls-13{letter-spacing:-0.02em;}.cls-14{letter-spacing:0.01em;}.cls-15{letter-spacing:-0.03em;}.cls-16{letter-spacing:0em;}.cls-17{letter-spacing:0.01em;}.cls-18{letter-spacing:0.01em;}.cls-19{letter-spacing:-0.02em;}.cls-20{letter-spacing:-0.01em;}.cls-21{letter-spacing:-0.02em;}.cls-22{letter-spacing:-0.02em;}.cls-23{letter-spacing:-0.02em;}.cls-24{letter-spacing:-0.01em;}.cls-25{letter-spacing:-0.01em;}.cls-26{letter-spacing:0.01em;}.cls-27{letter-spacing:0em;}.cls-28{letter-spacing:-0.01em;}.cls-29{letter-spacing:-0.01em;}.cls-30{letter-spacing:0em;}.cls-31{letter-spacing:-0.03em;}.cls-32{letter-spacing:-0.02em;}.cls-33{letter-spacing:-0.01em;}.cls-34{letter-spacing:-0.01em;}.cls-35{letter-spacing:-0.03em;}.cls-36{letter-spacing:0em;}.cls-37{letter-spacing:0em;}.cls-38{letter-spacing:-0.02em;}.cls-39{letter-spacing:0.01em;}.cls-40{letter-spacing:-0.02em;}.cls-41{letter-spacing:0em;}.cls-42{letter-spacing:-0.02em;}.cls-43{letter-spacing:-0.01em;}.cls-44{letter-spacing:-0.01em;}.cls-45{letter-spacing:-0.01em;}.cls-46{letter-spacing:-0.01em;}.cls-47{letter-spacing:-0.01em;}.cls-48{letter-spacing:-0.01em;}.cls-49{letter-spacing:-0.02em;}.cls-50{letter-spacing:-0.01em;}.cls-51{letter-spacing:0em;}.cls-52{letter-spacing:0.01em;}.cls-53{letter-spacing:0em;}.cls-54{letter-spacing:-0.04em;}.cls-55{letter-spacing:-0.01em;}.cls-56{letter-spacing:-0.01em;}.cls-57{letter-spacing:0em;}.cls-58{letter-spacing:-0.02em;}.cls-59{letter-spacing:-0.02em;}.cls-60{letter-spacing:-0.01em;}.cls-61{letter-spacing:0em;}.cls-62{letter-spacing:0.01em;}.cls-63{letter-spacing:-0.01em;}.cls-64{letter-spacing:-0.01em;}.cls-65{letter-spacing:0em;}.cls-66{letter-spacing:-0.02em;}.cls-67{letter-spacing:-0.01em;}.cls-68{letter-spacing:-0.03em;}.cls-69{letter-spacing:-0.02em;}.cls-70{letter-spacing:-0.01em;}.cls-71{letter-spacing:-0.01em;}.cls-72{letter-spacing:-0.01em;}.cls-73{letter-spacing:0.01em;}.cls-74{letter-spacing:-0.02em;}.cls-75{letter-spacing:-0.02em;}.cls-76{letter-spacing:-0.01em;}.cls-77{letter-spacing:-0.02em;}.cls-78{letter-spacing:-0.01em;}.cls-79{letter-spacing:-0.01em;}</style></defs><title>std web mockupsasfd</title><rect class="cls-1" x="5.9" y="5.9" width="600" height="600" rx="300" ry="300"/><text class="cls-2" transform="translate(256.68 173.88)"><tspan class="cls-3">G</tspan><tspan class="cls-4" x="20.88" y="0">l</tspan><tspan class="cls-5" x="30.49" y="0">o</tspan><tspan class="cls-6" x="47.8" y="0">v</tspan><tspan class="cls-7" x="65.42" y="0">e</tspan><tspan x="81.98" y="0">s</tspan><tspan class="cls-8"><tspan class="cls-9" x="-108.31" y="67.2">L</tspan><tspan class="cls-10" x="-94.31" y="67.2">a</tspan><tspan class="cls-11" x="-81.59" y="67.2">t</tspan><tspan class="cls-12" x="-73.13" y="67.2">e</tspan><tspan x="-60.46" y="67.2">x </tspan><tspan class="cls-13" x="-40.62" y="67.2">o</tspan><tspan x="-27.74" y="67.2">r </tspan><tspan class="cls-14" x="-11.75" y="67.2">n</tspan><tspan class="cls-15" x="3.65" y="67.2">i</tspan><tspan class="cls-16" x="10.77" y="67.2">t</tspan><tspan class="cls-17" x="19.61" y="67.2">r</tspan><tspan class="cls-18" x="30" y="67.2">i</tspan><tspan class="cls-19" x="37.94" y="67.2">l</tspan><tspan x="45.18" y="67.2">e </tspan><tspan class="cls-20" x="63.85" y="67.2">g</tspan><tspan class="cls-21" x="77.31" y="67.2">l</tspan><tspan class="cls-22" x="84.58" y="67.2">o</tspan><tspan class="cls-23" x="97.62" y="67.2">v</tspan><tspan class="cls-24" x="110.89" y="67.2">e</tspan><tspan x="123.37" y="67.2">s </tspan><tspan class="cls-25" x="141.61" y="67.2">c</tspan><tspan class="cls-26" x="154.08" y="67.2">a</tspan><tspan x="167.43" y="67.2">n </tspan><tspan class="cls-27" x="188.55" y="67.2">b</tspan><tspan x="202.28" y="67.2">e </tspan><tspan class="cls-28" x="-128.31" y="96">u</tspan><tspan class="cls-29" x="-113.66" y="96">s</tspan><tspan class="cls-30" x="-101.5" y="96">e</tspan><tspan x="-88.78" y="96">d </tspan><tspan class="cls-31" x="-68.7" y="96">w</tspan><tspan class="cls-32" x="-50.13" y="96">h</tspan><tspan class="cls-33" x="-35.28" y="96">e</tspan><tspan x="-22.69" y="96">n </tspan><tspan class="cls-34" x="-1.57" y="96">p</tspan><tspan class="cls-35" x="12.65" y="96">u</tspan><tspan class="cls-36" x="26.94" y="96">t</tspan><tspan class="cls-37" x="35.81" y="96">t</tspan><tspan class="cls-18" x="44.83" y="96">i</tspan><tspan class="cls-38" x="52.77" y="96">n</tspan><tspan x="67.63" y="96">g </tspan><tspan class="cls-39" x="87.23" y="96">fi</tspan><tspan class="cls-40" x="103.05" y="96">n</tspan><tspan class="cls-41" x="117.92" y="96">g</tspan><tspan class="cls-42" x="131.54" y="96">e</tspan><tspan class="cls-43" x="143.9" y="96">r</tspan><tspan x="153.77" y="96">s </tspan><tspan class="cls-13" x="172" y="96">o</tspan><tspan x="184.88" y="96">r </tspan><tspan class="cls-44" x="-128.31" y="124.8">fis</tspan><tspan class="cls-45" x="-100.78" y="124.8">t</tspan><tspan x="-92.18" y="124.8">s </tspan><tspan class="cls-18" x="-73.94" y="124.8">i</tspan><tspan class="cls-46" x="-66.01" y="124.8">n</tspan><tspan class="cls-47" x="-50.96" y="124.8">s</tspan><tspan class="cls-48" x="-38.78" y="124.8">i</tspan><tspan class="cls-49" x="-31.34" y="124.8">d</tspan><tspan x="-17.53" y="124.8">e </tspan><tspan class="cls-4" x="1.14" y="124.8">o</tspan><tspan x="14.16" y="124.8">f a </tspan><tspan class="cls-50" x="48.03" y="124.8">p</tspan><tspan class="cls-51" x="62.33" y="124.8">a</tspan><tspan class="cls-52" x="75.45" y="124.8">r</tspan><tspan class="cls-53" x="85.82" y="124.8">t</tspan><tspan class="cls-49" x="94.89" y="124.8">n</tspan><tspan class="cls-42" x="109.73" y="124.8">e</tspan><tspan class="cls-54" x="122.08" y="124.8">r</tspan><tspan x="131.2" y="124.8">.</tspan><tspan class="cls-55" x="-108.31" y="182.4">I</tspan><tspan x="-100.08" y="182.4">f </tspan><tspan class="cls-49" x="-85.27" y="182.4">y</tspan><tspan class="cls-56" x="-71.46" y="182.4">o</tspan><tspan x="-58.36" y="182.4">u </tspan><tspan class="cls-57" x="-37.5" y="182.4">h</tspan><tspan class="cls-58" x="-22.27" y="182.4">a</tspan><tspan class="cls-23" x="-9.56" y="182.4">v</tspan><tspan x="3.71" y="182.4">e </tspan><tspan class="cls-59" x="22.38" y="182.4">l</tspan><tspan class="cls-60" x="29.65" y="182.4">o</tspan><tspan class="cls-40" x="42.76" y="182.4">n</tspan><tspan x="57.63" y="182.4">g </tspan><tspan class="cls-61" x="77.22" y="182.4">n</tspan><tspan class="cls-62" x="92.44" y="182.4">a</tspan><tspan class="cls-18" x="105.75" y="182.4">i</tspan><tspan class="cls-3" x="113.68" y="182.4">l</tspan><tspan class="cls-63" x="121.14" y="182.4">s</tspan><tspan x="133.23" y="182.4">, </tspan><tspan class="cls-49" x="145.01" y="182.4">y</tspan><tspan class="cls-64" x="158.82" y="182.4">o</tspan><tspan x="171.92" y="182.4">u </tspan><tspan class="cls-65" x="-128.31" y="211.2">m</tspan><tspan class="cls-66" x="-106" y="211.2">a</tspan><tspan x="-93.26" y="211.2">y </tspan><tspan class="cls-67" x="-73.17" y="211.2">w</tspan><tspan class="cls-26" x="-54.29" y="211.2">a</tspan><tspan class="cls-68" x="-40.93" y="211.2">n</tspan><tspan x="-26.41" y="211.2">t </tspan><tspan class="cls-69" x="-11.57" y="211.2">t</tspan><tspan x="-3.09" y="211.2">o </tspan><tspan class="cls-34" x="16.25" y="211.2">p</tspan><tspan class="cls-35" x="30.47" y="211.2">u</tspan><tspan x="44.76" y="211.2">t </tspan><tspan class="cls-70" x="59.59" y="211.2">c</tspan><tspan class="cls-71" x="72.08" y="211.2">o</tspan><tspan class="cls-36" x="85.18" y="211.2">t</tspan><tspan class="cls-69" x="94.05" y="211.2">t</tspan><tspan class="cls-60" x="102.54" y="211.2">o</tspan><tspan x="115.65" y="211.2">n </tspan><tspan class="cls-72" x="136.77" y="211.2">b</tspan><tspan class="cls-26" x="150.34" y="211.2">a</tspan><tspan class="cls-73" x="163.7" y="211.2">l</tspan><tspan class="cls-3" x="171.55" y="211.2">l</tspan><tspan x="179.01" y="211.2">s </tspan><tspan class="cls-18" x="197.24" y="211.2">i</tspan><tspan x="205.18" y="211.2">n </tspan><tspan class="cls-53" x="-128.31" y="240">t</tspan><tspan class="cls-23" x="-119.24" y="240">h</tspan><tspan x="-104.39" y="240">e </tspan><tspan class="cls-39" x="-85.72" y="240">fi</tspan><tspan class="cls-38" x="-69.9" y="240">n</tspan><tspan class="cls-41" x="-55.03" y="240">g</tspan><tspan class="cls-42" x="-41.41" y="240">e</tspan><tspan class="cls-52" x="-29.05" y="240">r</tspan><tspan class="cls-37" x="-18.68" y="240">t</tspan><tspan class="cls-74" x="-9.66" y="240">i</tspan><tspan class="cls-72" x="-2.44" y="240">p</tspan><tspan x="11.82" y="240">s </tspan><tspan class="cls-75" x="30.06" y="240">o</tspan><tspan x="43.07" y="240">f </tspan><tspan class="cls-49" x="57.89" y="240">y</tspan><tspan class="cls-56" x="71.7" y="240">o</tspan><tspan class="cls-76" x="84.79" y="240">u</tspan><tspan x="99.62" y="240">r </tspan><tspan class="cls-20" x="115.6" y="240">g</tspan><tspan class="cls-59" x="129.07" y="240">l</tspan><tspan class="cls-77" x="136.34" y="240">o</tspan><tspan class="cls-23" x="149.38" y="240">v</tspan><tspan class="cls-78" x="162.65" y="240">e</tspan><tspan class="cls-79" x="175.13" y="240">s</tspan><tspan x="187.32" y="240">.</tspan></tspan></text></svg>