<svg id="Layer_1" data-name="Layer 1" xmlns="http://www.w3.org/2000/svg" viewBox="0 0 283 369.6"><defs><style>.cls-1{fill:#f5faf8;stroke:#f4783b;stroke-miterlimit:10;stroke-width:10px;}</style></defs><title>std graphics</title><path class="cls-1" d="M167.51,364.6c-25.6,0-16.36-94.12-18-110C144.31,203,138.45,151.23,132.21,99.79c-2.34-19.28-10.61-55.07-32.13-62.51-31-10.74-47.14,31.95-70,44.36C13.84,90.5-2.88,71.32,9,52.8,13.92,45.19,25.88,36.22,33.43,31c30.22-21.09,76.36-24.19,103.09,3.9C157.37,2.85,194,2,227.82,7.77c11.92,2,29.91,6.16,40.27,12.93,16.8,11,11.23,38.25-9.12,36.21-23.82-2.38-52.39-33.06-78.34-29.41-29.14,4.1-30.9,43.7-28.9,67.95,4.37,53.06,10.75,106,16.12,159C169.29,268.77,196.12,364.6,167.51,364.6Z"/></svg>