<svg id="Layer_1" data-name="Layer 1" xmlns="http://www.w3.org/2000/svg" viewBox="0 0 611.8 611.8"><defs><style>.cls-1{fill:#f5faf8;stroke:#f4783b;stroke-linecap:round;stroke-linejoin:round;stroke-width:11.8px;}.cls-2{font-size:32px;fill:#f4783b;font-family:RobotoSlab-Bold, Roboto Slab;font-weight:700;}.cls-3{letter-spacing:0em;}.cls-4{letter-spacing:0em;}.cls-5{letter-spacing:-0.01em;}.cls-6{font-size:22px;}.cls-7{letter-spacing:0.01em;}.cls-8{letter-spacing:0.01em;}.cls-9{letter-spacing:0.01em;}.cls-10{letter-spacing:0em;}.cls-11{letter-spacing:0em;}.cls-12{letter-spacing:-0.03em;}.cls-13{letter-spacing:0em;}.cls-14{letter-spacing:-0.01em;}.cls-15{letter-spacing:-0.03em;}.cls-16{letter-spacing:-0.02em;}.cls-17{letter-spacing:-0.02em;}.cls-18{letter-spacing:0.01em;}.cls-19{letter-spacing:0.01em;}.cls-20{letter-spacing:-0.02em;}.cls-21{letter-spacing:0em;}.cls-22{letter-spacing:-0.01em;}.cls-23{letter-spacing:0.01em;}.cls-24{letter-spacing:-0.01em;}.cls-25{letter-spacing:-0.01em;}.cls-26{letter-spacing:-0.06em;}.cls-27{letter-spacing:-0.01em;}.cls-28{letter-spacing:-0.03em;}.cls-29{letter-spacing:-0.01em;}.cls-30{letter-spacing:0.01em;}.cls-31{letter-spacing:-0.01em;}.cls-32{letter-spacing:-0.01em;}.cls-33{letter-spacing:-0.02em;}.cls-34{letter-spacing:0.01em;}.cls-35{letter-spacing:0em;}.cls-36{letter-spacing:-0.02em;}.cls-37{letter-spacing:0.01em;}.cls-38{letter-spacing:-0.02em;}.cls-39{letter-spacing:0.01em;}.cls-40{letter-spacing:-0.01em;}.cls-41{letter-spacing:-0.02em;}.cls-42{letter-spacing:-0.02em;}.cls-43{letter-spacing:-0.01em;}.cls-44{letter-spacing:-0.01em;}.cls-45{letter-spacing:0em;}.cls-46{letter-spacing:0.01em;}.cls-47{letter-spacing:-0.02em;}.cls-48{letter-spacing:0em;}.cls-49{letter-spacing:-0.08em;}.cls-50{letter-spacing:-0.03em;}.cls-51{letter-spacing:-0.02em;}.cls-52{letter-spacing:-0.01em;}.cls-53{letter-spacing:-0.01em;}.cls-54{letter-spacing:-0.04em;}.cls-55{letter-spacing:0.02em;}.cls-56{letter-spacing:0em;}.cls-57{letter-spacing:-0.01em;}.cls-58{letter-spacing:-0.01em;}.cls-59{letter-spacing:-0.01em;}.cls-60{letter-spacing:-0.02em;}.cls-61{letter-spacing:-0.02em;}.cls-62{letter-spacing:-0.01em;}.cls-63{letter-spacing:-0.02em;}.cls-64{letter-spacing:0.01em;}.cls-65{letter-spacing:-0.02em;}.cls-66{letter-spacing:-0.01em;}.cls-67{letter-spacing:-0.01em;}.cls-68{letter-spacing:-0.01em;}.cls-69{letter-spacing:0.01em;}.cls-70{letter-spacing:-0.01em;}.cls-71{letter-spacing:0em;}.cls-72{letter-spacing:0em;}.cls-73{letter-spacing:-0.02em;}.cls-74{letter-spacing:-0.01em;}.cls-75{letter-spacing:0em;}.cls-76{letter-spacing:-0.03em;}.cls-77{letter-spacing:0em;}.cls-78{letter-spacing:-0.01em;}.cls-79{letter-spacing:-0.02em;}.cls-80{letter-spacing:-0.02em;}.cls-81{letter-spacing:-0.01em;}.cls-82{letter-spacing:0em;}.cls-83{letter-spacing:-0.01em;}.cls-84{letter-spacing:0em;}.cls-85{letter-spacing:-0.01em;}.cls-86{letter-spacing:-0.02em;}.cls-87{letter-spacing:-0.01em;}.cls-88{letter-spacing:-0.01em;}.cls-89{letter-spacing:-0.08em;}.cls-90{letter-spacing:-0.01em;}.cls-91{letter-spacing:-0.03em;}.cls-92{letter-spacing:-0.01em;}.cls-93{letter-spacing:0em;}.cls-94{letter-spacing:-0.01em;}.cls-95{letter-spacing:0em;}.cls-96{letter-spacing:-0.05em;}.cls-97{letter-spacing:-0.01em;}.cls-98{letter-spacing:-0.02em;}.cls-99{letter-spacing:0.01em;}.cls-100{letter-spacing:-0.01em;}.cls-101{letter-spacing:-0.01em;}.cls-102{letter-spacing:-0.02em;}.cls-103{letter-spacing:0em;}.cls-104{letter-spacing:-0.01em;}.cls-105{letter-spacing:0em;}.cls-106{letter-spacing:-0.01em;}</style></defs><title>std web mockupsasfd</title><rect class="cls-1" x="5.9" y="5.9" width="600" height="600" rx="300" ry="300"/><text class="cls-2" transform="translate(269.03 135.97)"><tspan class="cls-3">I</tspan><tspan class="cls-4" x="11.22" y="0">U</tspan><tspan class="cls-5" x="35.53" y="0">D</tspan><tspan x="57.27" y="0">s</tspan><tspan class="cls-6"><tspan class="cls-7" x="-120.67" y="52.8">A</tspan><tspan x="-104.71" y="52.8">n </tspan><tspan class="cls-8" x="-85.36" y="52.8">I</tspan><tspan class="cls-9" x="-77.58" y="52.8">U</tspan><tspan x="-60.81" y="52.8">D </tspan><tspan class="cls-10" x="-40.26" y="52.8">(</tspan><tspan class="cls-11" x="-32.79" y="52.8">I</tspan><tspan class="cls-12" x="-25.05" y="52.8">n</tspan><tspan class="cls-13" x="-11.72" y="52.8">t</tspan><tspan class="cls-14" x="-3.61" y="52.8">ra</tspan><tspan class="cls-15" x="17.16" y="52.8">u</tspan><tspan class="cls-16" x="30.27" y="52.8">t</tspan><tspan class="cls-17" x="38.04" y="52.8">e</tspan><tspan class="cls-18" x="49.38" y="52.8">r</tspan><tspan class="cls-19" x="58.92" y="52.8">i</tspan><tspan class="cls-20" x="66.21" y="52.8">n</tspan><tspan x="79.83" y="52.8">e </tspan><tspan class="cls-21" x="96.94" y="52.8">D</tspan><tspan class="cls-22" x="112.07" y="52.8">e</tspan><tspan class="cls-23" x="123.52" y="52.8">v</tspan><tspan class="cls-24" x="136.3" y="52.8">i</tspan><tspan class="cls-25" x="143.08" y="52.8">c</tspan><tspan class="cls-26" x="154.52" y="52.8">e</tspan><tspan x="164.88" y="52.8">) </tspan><tspan class="cls-27" x="177.92" y="52.8">i</tspan><tspan x="184.84" y="52.8">s a </tspan><tspan class="cls-11" x="-140.67" y="79.2">t</tspan><tspan class="cls-19" x="-132.39" y="79.2">i</tspan><tspan class="cls-28" x="-125.1" y="79.2">n</tspan><tspan x="-111.72" y="79.2">y </tspan><tspan class="cls-20" x="-93.31" y="79.2">d</tspan><tspan class="cls-29" x="-80.64" y="79.2">e</tspan><tspan class="cls-30" x="-69.19" y="79.2">v</tspan><tspan class="cls-31" x="-56.41" y="79.2">i</tspan><tspan class="cls-25" x="-49.64" y="79.2">c</tspan><tspan x="-38.2" y="79.2">e </tspan><tspan class="cls-19" x="-21.08" y="79.2">i</tspan><tspan class="cls-32" x="-13.79" y="79.2">ns</tspan><tspan class="cls-33" x="11.18" y="79.2">e</tspan><tspan class="cls-34" x="22.53" y="79.2">r</tspan><tspan class="cls-16" x="32.04" y="79.2">t</tspan><tspan class="cls-35" x="39.81" y="79.2">e</tspan><tspan x="51.49" y="79.2">d </tspan><tspan class="cls-19" x="69.9" y="79.2">i</tspan><tspan class="cls-12" x="77.19" y="79.2">n</tspan><tspan class="cls-36" x="90.52" y="79.2">t</tspan><tspan x="98.31" y="79.2">o </tspan><tspan class="cls-37" x="116.04" y="79.2">t</tspan><tspan class="cls-38" x="124.36" y="79.2">h</tspan><tspan x="138" y="79.2">e </tspan><tspan class="cls-15" x="-140.67" y="105.6">u</tspan><tspan class="cls-16" x="-127.56" y="105.6">t</tspan><tspan class="cls-17" x="-119.79" y="105.6">e</tspan><tspan class="cls-39" x="-108.44" y="105.6">r</tspan><tspan class="cls-40" x="-98.88" y="105.6">u</tspan><tspan x="-85.43" y="105.6">s </tspan><tspan class="cls-36" x="-68.72" y="105.6">t</tspan><tspan x="-60.93" y="105.6">o </tspan><tspan class="cls-41" x="-43.2" y="105.6">p</tspan><tspan class="cls-22" x="-30.28" y="105.6">re</tspan><tspan class="cls-42" x="-9.86" y="105.6">v</tspan><tspan class="cls-43" x="2.32" y="105.6">e</tspan><tspan class="cls-12" x="13.87" y="105.6">n</tspan><tspan x="27.21" y="105.6">t </tspan><tspan class="cls-41" x="40.8" y="105.6">p</tspan><tspan class="cls-22" x="53.72" y="105.6">r</tspan><tspan class="cls-44" x="62.71" y="105.6">e</tspan><tspan class="cls-45" x="74.3" y="105.6">g</tspan><tspan x="86.88" y="105.6">n</tspan><tspan class="cls-46" x="100.85" y="105.6">a</tspan><tspan class="cls-47" x="113.11" y="105.6">n</tspan><tspan class="cls-48" x="126.74" y="105.6">c</tspan><tspan class="cls-49" x="138.35" y="105.6">y</tspan><tspan x="149.7" y="105.6">.</tspan><tspan class="cls-50" x="-120.67" y="158.4">I</tspan><tspan x="-113.61" y="158.4">t </tspan><tspan class="cls-27" x="-100.01" y="158.4">i</tspan><tspan x="-93.1" y="158.4">s </tspan><tspan class="cls-51" x="-76.38" y="158.4">l</tspan><tspan class="cls-52" x="-69.7" y="158.4">o</tspan><tspan class="cls-53" x="-57.66" y="158.4">n</tspan><tspan class="cls-29" x="-44.02" y="158.4">g</tspan><tspan class="cls-54" x="-31.73" y="158.4">-</tspan><tspan class="cls-16" x="-23.86" y="158.4">t</tspan><tspan class="cls-17" x="-16.09" y="158.4">e</tspan><tspan class="cls-55" x="-4.75" y="158.4">r</tspan><tspan class="cls-56" x="4.85" y="158.4">m</tspan><tspan x="25.3" y="158.4">, </tspan><tspan class="cls-29" x="36.1" y="158.4">re</tspan><tspan class="cls-42" x="56.52" y="158.4">v</tspan><tspan class="cls-17" x="68.7" y="158.4">e</tspan><tspan class="cls-57" x="80.04" y="158.4">r</tspan><tspan class="cls-58" x="89.1" y="158.4">s</tspan><tspan class="cls-59" x="100.29" y="158.4">i</tspan><tspan class="cls-60" x="107.17" y="158.4">b</tspan><tspan class="cls-42" x="119.51" y="158.4">l</tspan><tspan class="cls-61" x="126.17" y="158.4">e</tspan><tspan x="137.52" y="158.4">, </tspan><tspan class="cls-46" x="148.32" y="158.4">a</tspan><tspan class="cls-62" x="160.57" y="158.4">n</tspan><tspan x="174.31" y="158.4">d </tspan><tspan class="cls-52" x="-140.67" y="184.8">o</tspan><tspan class="cls-60" x="-128.63" y="184.8">n</tspan><tspan x="-115.01" y="184.8">e </tspan><tspan class="cls-63" x="-97.9" y="184.8">o</tspan><tspan x="-85.95" y="184.8">f </tspan><tspan class="cls-64" x="-72.38" y="184.8">t</tspan><tspan class="cls-65" x="-64.05" y="184.8">h</tspan><tspan x="-50.42" y="184.8">e </tspan><tspan class="cls-66" x="-33.3" y="184.8">m</tspan><tspan class="cls-67" x="-13.17" y="184.8">o</tspan><tspan class="cls-68" x="-1.09" y="184.8">s</tspan><tspan x="10.03" y="184.8">t </tspan><tspan class="cls-53" x="23.63" y="184.8">e</tspan><tspan class="cls-69" x="35.02" y="184.8">f</tspan><tspan class="cls-70" x="43.32" y="184.8">f</tspan><tspan class="cls-71" x="51.24" y="184.8">e</tspan><tspan class="cls-72" x="62.86" y="184.8">c</tspan><tspan class="cls-11" x="74.38" y="184.8">t</tspan><tspan class="cls-73" x="82.66" y="184.8">i</tspan><tspan class="cls-42" x="89.25" y="184.8">v</tspan><tspan x="101.43" y="184.8">e </tspan><tspan class="cls-74" x="118.55" y="184.8">b</tspan><tspan class="cls-75" x="130.97" y="184.8">i</tspan><tspan class="cls-34" x="138.05" y="184.8">r</tspan><tspan class="cls-64" x="147.56" y="184.8">t</tspan><tspan x="155.89" y="184.8">h </tspan><tspan class="cls-44" x="-140.67" y="211.2">c</tspan><tspan class="cls-52" x="-129.21" y="211.2">o</tspan><tspan class="cls-76" x="-117.17" y="211.2">n</tspan><tspan class="cls-77" x="-103.84" y="211.2">t</tspan><tspan class="cls-78" x="-95.72" y="211.2">r</tspan><tspan class="cls-79" x="-86.72" y="211.2">o</tspan><tspan x="-74.81" y="211.2">l </tspan><tspan class="cls-80" x="-62.4" y="211.2">m</tspan><tspan class="cls-81" x="-42.28" y="211.2">e</tspan><tspan class="cls-64" x="-30.81" y="211.2">t</tspan><tspan class="cls-47" x="-22.48" y="211.2">h</tspan><tspan class="cls-82" x="-8.83" y="211.2">o</tspan><tspan class="cls-32" x="3.47" y="211.2">d</tspan><tspan class="cls-83" x="16.33" y="211.2">s</tspan><tspan x="27.52" y="211.2">.</tspan><tspan class="cls-7" x="-120.67" y="264">A</tspan><tspan x="-104.71" y="264">n </tspan><tspan class="cls-8" x="-85.36" y="264">I</tspan><tspan class="cls-9" x="-77.58" y="264">U</tspan><tspan x="-60.81" y="264">D </tspan><tspan class="cls-27" x="-40.26" y="264">i</tspan><tspan x="-33.34" y="264">s </tspan><tspan class="cls-84" x="-16.63" y="264">9</tspan><tspan class="cls-85" x="-4.44" y="264">9</tspan><tspan x="7.65" y="264">% </tspan><tspan class="cls-53" x="28.4" y="264">e</tspan><tspan class="cls-69" x="39.79" y="264">f</tspan><tspan class="cls-70" x="48.09" y="264">f</tspan><tspan class="cls-71" x="56" y="264">e</tspan><tspan class="cls-72" x="67.63" y="264">c</tspan><tspan class="cls-11" x="79.14" y="264">t</tspan><tspan class="cls-73" x="87.43" y="264">i</tspan><tspan class="cls-42" x="94.02" y="264">v</tspan><tspan x="106.2" y="264">e </tspan><tspan class="cls-19" x="123.31" y="264">i</tspan><tspan x="130.6" y="264">n </tspan><tspan class="cls-86" x="-140.67" y="290.4">p</tspan><tspan class="cls-29" x="-127.75" y="290.4">re</tspan><tspan class="cls-42" x="-107.33" y="290.4">v</tspan><tspan class="cls-43" x="-95.15" y="290.4">e</tspan><tspan class="cls-12" x="-83.59" y="290.4">n</tspan><tspan class="cls-11" x="-70.26" y="290.4">t</tspan><tspan class="cls-19" x="-61.98" y="290.4">i</tspan><tspan class="cls-87" x="-54.69" y="290.4">n</tspan><tspan x="-41.05" y="290.4">g </tspan><tspan class="cls-86" x="-23.09" y="290.4">p</tspan><tspan class="cls-29" x="-10.17" y="290.4">r</tspan><tspan class="cls-88" x="-1.19" y="290.4">e</tspan><tspan class="cls-45" x="10.4" y="290.4">g</tspan><tspan x="22.99" y="290.4">n</tspan><tspan class="cls-46" x="36.95" y="290.4">a</tspan><tspan class="cls-47" x="49.21" y="290.4">n</tspan><tspan class="cls-48" x="62.85" y="290.4">c</tspan><tspan class="cls-89" x="74.46" y="290.4">y</tspan><tspan x="85.7" y="290.4">, </tspan><tspan class="cls-90" x="96.49" y="290.4">b</tspan><tspan class="cls-91" x="108.89" y="290.4">u</tspan><tspan x="122" y="290.4">t </tspan><tspan class="cls-92" x="135.6" y="290.4">d</tspan><tspan class="cls-93" x="148.3" y="290.4">o</tspan><tspan class="cls-94" x="160.55" y="290.4">e</tspan><tspan class="cls-95" x="172.01" y="290.4">s</tspan><tspan class="cls-96" x="183.23" y="290.4">n</tspan><tspan class="cls-97" x="196.01" y="290.4">’</tspan><tspan x="200.76" y="290.4">t </tspan><tspan class="cls-98" x="-140.67" y="316.8">o</tspan><tspan class="cls-99" x="-128.72" y="316.8">f</tspan><tspan class="cls-70" x="-120.43" y="316.8">f</tspan><tspan class="cls-17" x="-112.51" y="316.8">e</tspan><tspan x="-101.17" y="316.8">r </tspan><tspan class="cls-86" x="-86.52" y="316.8">p</tspan><tspan class="cls-100" x="-73.6" y="316.8">r</tspan><tspan class="cls-101" x="-64.6" y="316.8">o</tspan><tspan class="cls-16" x="-52.57" y="316.8">t</tspan><tspan class="cls-71" x="-44.8" y="316.8">e</tspan><tspan class="cls-72" x="-33.18" y="316.8">c</tspan><tspan class="cls-11" x="-21.66" y="316.8">t</tspan><tspan class="cls-102" x="-13.38" y="316.8">i</tspan><tspan class="cls-52" x="-6.63" y="316.8">o</tspan><tspan x="5.41" y="316.8">n </tspan><tspan class="cls-103" x="24.77" y="316.8">f</tspan><tspan class="cls-78" x="33" y="316.8">r</tspan><tspan class="cls-104" x="42" y="316.8">o</tspan><tspan x="54.05" y="316.8">m </tspan><tspan class="cls-105" x="79.9" y="316.8">S</tspan><tspan class="cls-69" x="93.22" y="316.8">T</tspan><tspan class="cls-106" x="108.13" y="316.8">D</tspan><tspan class="cls-83" x="123.14" y="316.8">s</tspan><tspan x="134.33" y="316.8">.</tspan></tspan></text></svg>