<?xml version="1.0" encoding="utf-8"?>
<!-- Generator: Adobe Illustrator 22.0.1, SVG Export Plug-In . SVG Version: 6.00 Build 0)  -->
<!DOCTYPE svg PUBLIC "-//W3C//DTD SVG 1.1//EN" "http://www.w3.org/Graphics/SVG/1.1/DTD/svg11.dtd">
<svg version="1.1" id="Layer_1" xmlns="http://www.w3.org/2000/svg" xmlns:xlink="http://www.w3.org/1999/xlink" x="0px" y="0px"
	 viewBox="0 0 611.8 611.8" style="enable-background:new 0 0 611.8 611.8;" xml:space="preserve">
<style type="text/css">
	.st0{fill:#F5FAF8;stroke:#F4783B;stroke-width:11.8;stroke-linecap:round;stroke-linejoin:round;}
	.st1{enable-background:new    ;}
	.st2{fill:#F4783B;}
</style>
<title>std web mockupsasfd</title>
<path class="st0" d="M305.9,5.9L305.9,5.9c165.7,0,300,134.3,300,300v0c0,165.7-134.3,300-300,300h0c-165.7,0-300-134.3-300-300v0
	C5.9,140.2,140.2,5.9,305.9,5.9z"/>
<g class="st1">
	<path class="st2" d="M269.9,116v-2.8h9.4v2.8l-2.4,0.5v16.3l2.4,0.5v2.7h-9.4v-2.7l2.4-0.5v-16.3L269.9,116z"/>
</g>
<g class="st1">
	<path class="st2" d="M290.3,113.2v2.8l-2.4,0.5v11.9c0,1.5,0.4,2.6,1.2,3.4c0.8,0.7,1.9,1.1,3.3,1.1c1.4,0,2.5-0.4,3.4-1.1
		c0.8-0.7,1.2-1.9,1.2-3.4v-11.9l-2.4-0.5v-2.8h9.4v2.8l-2.4,0.5v11.9c0,2.6-0.8,4.5-2.5,5.9c-1.7,1.4-3.9,2.1-6.6,2.1
		c-2.7,0-4.9-0.7-6.6-2.1c-1.7-1.4-2.5-3.4-2.5-5.9v-11.9l-2.4-0.5v-2.8h2.4h4.6H290.3z"/>
</g>
<g class="st1">
	<path class="st2" d="M315.7,113.2c2.8,0,5.1,0.9,6.9,2.7c1.8,1.8,2.7,4.1,2.7,6.8v3.8c0,2.8-0.9,5.1-2.7,6.8
		c-1.8,1.8-4.1,2.6-6.9,2.6h-10.2v-2.7l2.4-0.5v-16.3l-2.4-0.5v-2.8h2.4H315.7z M312.4,116.7v15.7h3c1.6,0,2.9-0.6,3.8-1.7
		c0.9-1.1,1.4-2.5,1.4-4.3v-3.8c0-1.8-0.5-3.2-1.4-4.3c-0.9-1.1-2.2-1.7-3.8-1.7H312.4z"/>
</g>
<g class="st1">
	<path class="st2" d="M341.1,124.9H338l-0.5-2.1c-0.3-0.2-0.7-0.5-1.2-0.6c-0.5-0.2-1-0.2-1.6-0.2c-0.8,0-1.4,0.2-1.9,0.5
		s-0.7,0.8-0.7,1.4c0,0.5,0.2,0.9,0.7,1.3c0.4,0.3,1.3,0.6,2.7,0.9c2.1,0.4,3.6,1,4.7,1.8c1,0.8,1.5,1.9,1.5,3.3
		c0,1.5-0.7,2.8-2,3.7c-1.3,1-3,1.4-5.2,1.4c-1.3,0-2.5-0.2-3.6-0.6s-2.1-0.9-2.9-1.6l0-3.8h3.2l0.6,2.2c0.3,0.2,0.6,0.4,1.1,0.5
		s1,0.2,1.5,0.2c0.9,0,1.6-0.2,2.1-0.5c0.5-0.3,0.7-0.8,0.7-1.4c0-0.5-0.2-0.9-0.7-1.3c-0.5-0.4-1.4-0.7-2.7-1c-2-0.4-3.5-1-4.5-1.8
		s-1.5-1.9-1.5-3.3c0-1.4,0.6-2.6,1.8-3.7c1.2-1,2.8-1.5,5-1.5c1.3,0,2.6,0.2,3.7,0.5c1.2,0.4,2.1,0.8,2.8,1.4L341.1,124.9z"/>
</g>
<g class="st1">
	<path class="st2" d="M148.8,186.9l1.1-0.2l4.8-13.6h3.2l4.7,13.6l1.1,0.2v1.9h-5.3v-1.9l1.1-0.2l-0.7-2.1h-5.1l-0.7,2.1l1.1,0.2
		v1.9h-5.3V186.9z M154.5,182.2h3.6l-1.8-5.5h-0.1L154.5,182.2z"/>
</g>
<g class="st1">
	<path class="st2" d="M164.8,186.9l1.5-0.3v-7.2l-1.7-0.3v-1.9h4.6l0.1,1.7c0.4-0.6,0.9-1.1,1.4-1.4c0.6-0.3,1.2-0.5,1.9-0.5
		c1.2,0,2.1,0.4,2.8,1.1c0.7,0.7,1,1.9,1,3.5v5.1l1.5,0.3v1.9h-6v-1.9l1.3-0.3v-5c0-0.8-0.2-1.3-0.5-1.7c-0.3-0.3-0.8-0.5-1.4-0.5
		c-0.4,0-0.8,0.1-1.1,0.3c-0.3,0.2-0.6,0.4-0.8,0.7v6.2l1.3,0.3v1.9h-5.9V186.9z"/>
</g>
<g class="st1">
	<path class="st2" d="M184.3,175v-1.9h6.5v1.9l-1.7,0.3v11.2l1.7,0.3v1.9h-6.5v-1.9l1.7-0.3v-11.2L184.3,175z"/>
</g>
<g class="st1">
	<path class="st2" d="M198.3,173.1v1.9l-1.7,0.3v8.2c0,1,0.3,1.8,0.8,2.3c0.6,0.5,1.3,0.8,2.3,0.8c1,0,1.8-0.3,2.3-0.8
		s0.8-1.3,0.8-2.3v-8.2l-1.7-0.3v-1.9h6.5v1.9l-1.7,0.3v8.2c0,1.8-0.6,3.1-1.7,4.1s-2.7,1.4-4.5,1.4c-1.9,0-3.4-0.5-4.5-1.4
		s-1.7-2.3-1.7-4.1v-8.2l-1.7-0.3v-1.9h1.7h3.1H198.3z"/>
</g>
<g class="st1">
	<path class="st2" d="M215.9,173.1c1.9,0,3.5,0.6,4.7,1.8c1.2,1.2,1.9,2.8,1.9,4.7v2.6c0,1.9-0.6,3.5-1.9,4.7
		c-1.2,1.2-2.8,1.8-4.7,1.8h-7v-1.9l1.7-0.3v-11.2l-1.7-0.3v-1.9h1.7H215.9z M213.6,175.5v10.8h2.1c1.1,0,2-0.4,2.6-1.1s1-1.8,1-3
		v-2.6c0-1.2-0.3-2.2-1-3s-1.5-1.1-2.6-1.1H213.6z"/>
</g>
<g class="st1">
	<path class="st2" d="M229.7,182.4c0-2.8,0.5-5.2,1.6-7.1c1.1-2,2.3-3.2,3.7-3.8h0.1l0.6,1.6c-0.9,0.7-1.7,1.8-2.4,3.4
		c-0.6,1.6-1,3.6-1,6v0.3c0,2.4,0.3,4.4,1,6c0.6,1.6,1.4,2.7,2.4,3.4l-0.6,1.5h-0.1c-1.4-0.6-2.6-1.8-3.7-3.8
		c-1.1-2-1.6-4.3-1.6-7.2V182.4z"/>
</g>
<g class="st1">
	<path class="st2" d="M236.8,175v-1.9h6.5v1.9l-1.7,0.3v11.2l1.7,0.3v1.9h-6.5v-1.9l1.7-0.3v-11.2L236.8,175z"/>
</g>
<g class="st1">
	<path class="st2" d="M244.5,186.9l1.5-0.3v-7.2l-1.7-0.3v-1.9h4.6l0.1,1.7c0.4-0.6,0.9-1.1,1.4-1.4c0.6-0.3,1.2-0.5,1.9-0.5
		c1.2,0,2.1,0.4,2.8,1.1c0.7,0.7,1,1.9,1,3.5v5.1l1.5,0.3v1.9h-6v-1.9l1.3-0.3v-5c0-0.8-0.2-1.3-0.5-1.7c-0.3-0.3-0.8-0.5-1.4-0.5
		c-0.4,0-0.8,0.1-1.1,0.3c-0.3,0.2-0.6,0.4-0.8,0.7v6.2l1.3,0.3v1.9h-5.9V186.9z"/>
</g>
<g class="st1">
	<path class="st2" d="M262.6,174.3v2.8h2v2.2h-2v5.9c0,0.5,0.1,0.8,0.3,1c0.2,0.2,0.4,0.3,0.8,0.3c0.2,0,0.4,0,0.6,0
		c0.2,0,0.3,0,0.5-0.1l0.3,2.3c-0.4,0.1-0.7,0.2-1,0.2c-0.3,0.1-0.7,0.1-1.1,0.1c-1.1,0-1.9-0.3-2.5-0.9c-0.6-0.6-0.9-1.5-0.9-2.8
		v-5.9h-1.7v-2.2h1.7v-2.8H262.6z"/>
</g>
<g class="st1">
	<path class="st2" d="M266.3,186.9l1.5-0.3v-7.2l-1.7-0.3v-1.9h4.6l0.1,1.7c0.3-0.6,0.6-1.1,1.1-1.4s0.9-0.5,1.5-0.5
		c0.2,0,0.3,0,0.5,0c0.2,0,0.3,0.1,0.5,0.1l-0.3,2.9l-1.3,0c-0.5,0-0.8,0.1-1.1,0.3s-0.5,0.4-0.7,0.8v5.7l1.5,0.3v1.9h-6.1V186.9z"
		/>
	<path class="st2" d="M282.3,188.8c-0.1-0.2-0.2-0.4-0.2-0.6c-0.1-0.2-0.1-0.4-0.2-0.6c-0.4,0.4-0.8,0.8-1.4,1
		c-0.5,0.3-1.1,0.4-1.8,0.4c-1.1,0-2-0.3-2.7-0.9c-0.7-0.6-1-1.5-1-2.5c0-1.1,0.4-1.9,1.3-2.5c0.9-0.6,2.2-0.9,3.8-0.9h1.6V181
		c0-0.6-0.2-1-0.5-1.3s-0.8-0.5-1.4-0.5c-0.4,0-0.7,0-1,0.1c-0.3,0.1-0.5,0.2-0.7,0.3l-0.2,1.2h-2.4l0-2.6c0.6-0.4,1.2-0.7,2-1
		s1.5-0.4,2.4-0.4c1.4,0,2.6,0.4,3.5,1.1c0.9,0.7,1.3,1.7,1.3,3v4.8c0,0.2,0,0.3,0,0.5c0,0.2,0,0.3,0,0.5l1,0.1v1.9H282.3z
		 M279.6,186.7c0.5,0,0.9-0.1,1.3-0.3c0.4-0.2,0.7-0.5,0.9-0.8v-1.8h-1.6c-0.7,0-1.2,0.2-1.5,0.5c-0.3,0.3-0.5,0.7-0.5,1.1
		c0,0.4,0.1,0.7,0.4,0.9C278.8,186.6,279.2,186.7,279.6,186.7z"/>
</g>
<g class="st1">
	<path class="st2" d="M295,187.3c-0.4,0.5-0.8,1-1.4,1.3s-1.2,0.4-1.9,0.4c-1.2,0-2.2-0.4-2.9-1.2c-0.7-0.8-1-2-1-3.7v-4.8l-1.3-0.3
		v-1.9h1.3h3.1v7c0,0.8,0.1,1.5,0.4,1.8c0.3,0.4,0.7,0.6,1.3,0.6c0.5,0,0.9-0.1,1.3-0.2c0.4-0.2,0.7-0.4,0.9-0.7v-6.3l-1.4-0.3v-1.9
		h1.4h3.1v9.4l1.4,0.3v1.9h-4.2L295,187.3z"/>
</g>
<g class="st1">
	<path class="st2" d="M304.6,174.3v2.8h2v2.2h-2v5.9c0,0.5,0.1,0.8,0.3,1s0.4,0.3,0.8,0.3c0.2,0,0.4,0,0.6,0c0.2,0,0.3,0,0.5-0.1
		l0.3,2.3c-0.4,0.1-0.7,0.2-1,0.2c-0.3,0.1-0.7,0.1-1.1,0.1c-1.1,0-1.9-0.3-2.5-0.9c-0.6-0.6-0.9-1.5-0.9-2.8v-5.9h-1.7v-2.2h1.7
		v-2.8H304.6z"/>
</g>
<g class="st1">
	<path class="st2" d="M313.3,189c-1.7,0-3-0.5-4-1.6c-1-1.1-1.5-2.4-1.5-4.1v-0.4c0-1.7,0.5-3.1,1.4-4.3s2.2-1.7,3.8-1.7
		c1.6,0,2.8,0.5,3.7,1.4c0.9,0.9,1.3,2.2,1.3,3.8v1.7H311l0,0.1c0.1,0.8,0.3,1.4,0.8,1.9s1.1,0.7,1.9,0.7c0.7,0,1.3-0.1,1.7-0.2
		c0.5-0.1,1-0.4,1.5-0.7l0.8,1.9c-0.5,0.4-1.1,0.7-1.9,1S314.2,189,313.3,189z M313,179.3c-0.6,0-1,0.2-1.4,0.7
		c-0.3,0.4-0.5,1-0.6,1.8l0,0.1h3.8v-0.3c0-0.7-0.2-1.2-0.5-1.6C314.1,179.5,313.7,179.3,313,179.3z"/>
</g>
<g class="st1">
	<path class="st2" d="M319.3,186.9l1.5-0.3v-7.2l-1.7-0.3v-1.9h4.6l0.1,1.7c0.3-0.6,0.6-1.1,1.1-1.4s0.9-0.5,1.5-0.5
		c0.2,0,0.3,0,0.5,0c0.2,0,0.3,0.1,0.5,0.1l-0.3,2.9l-1.3,0c-0.5,0-0.8,0.1-1.1,0.3s-0.5,0.4-0.7,0.8v5.7l1.5,0.3v1.9h-6.1V186.9z"
		/>
</g>
<g class="st1">
	<path class="st2" d="M328.5,186.9l1.5-0.3v-7.2l-1.7-0.3v-1.9h4.8v9.4l1.5,0.3v1.9h-6.2V186.9z M333.2,174.4H330V172h3.1V174.4z"/>
</g>
<g class="st1">
	<path class="st2" d="M335.7,186.9l1.5-0.3v-7.2l-1.7-0.3v-1.9h4.6l0.1,1.7c0.4-0.6,0.9-1.1,1.4-1.4c0.6-0.3,1.2-0.5,1.9-0.5
		c1.2,0,2.1,0.4,2.8,1.1c0.7,0.7,1,1.9,1,3.5v5.1l1.5,0.3v1.9h-6v-1.9l1.3-0.3v-5c0-0.8-0.2-1.3-0.5-1.7c-0.3-0.3-0.8-0.5-1.4-0.5
		c-0.4,0-0.8,0.1-1.1,0.3c-0.3,0.2-0.6,0.4-0.8,0.7v6.2l1.3,0.3v1.9h-5.9V186.9z"/>
</g>
<g class="st1">
	<path class="st2" d="M355.1,189c-1.7,0-3-0.5-4-1.6c-1-1.1-1.5-2.4-1.5-4.1v-0.4c0-1.7,0.5-3.1,1.4-4.3s2.2-1.7,3.8-1.7
		c1.6,0,2.8,0.5,3.7,1.4c0.9,0.9,1.3,2.2,1.3,3.8v1.7h-6.9l0,0.1c0.1,0.8,0.3,1.4,0.8,1.9s1.1,0.7,1.9,0.7c0.7,0,1.3-0.1,1.7-0.2
		c0.5-0.1,1-0.4,1.5-0.7l0.8,1.9c-0.5,0.4-1.1,0.7-1.9,1S356,189,355.1,189z M354.8,179.3c-0.6,0-1,0.2-1.4,0.7
		c-0.3,0.4-0.5,1-0.6,1.8l0,0.1h3.8v-0.3c0-0.7-0.2-1.2-0.5-1.6C355.9,179.5,355.5,179.3,354.8,179.3z"/>
</g>
<g class="st1">
	<path class="st2" d="M373.6,173.1c1.9,0,3.5,0.6,4.7,1.8c1.2,1.2,1.9,2.8,1.9,4.7v2.6c0,1.9-0.6,3.5-1.9,4.7
		c-1.2,1.2-2.8,1.8-4.7,1.8h-7v-1.9l1.7-0.3v-11.2l-1.7-0.3v-1.9h1.7H373.6z M371.4,175.5v10.8h2.1c1.1,0,2-0.4,2.6-1.1s1-1.8,1-3
		v-2.6c0-1.2-0.3-2.2-1-3s-1.5-1.1-2.6-1.1H371.4z"/>
</g>
<g class="st1">
	<path class="st2" d="M387.3,189c-1.7,0-3-0.5-4-1.6s-1.5-2.4-1.5-4.1v-0.4c0-1.7,0.5-3.1,1.4-4.3c0.9-1.1,2.2-1.7,3.8-1.7
		c1.6,0,2.8,0.5,3.7,1.4s1.3,2.2,1.3,3.8v1.7h-6.9l0,0.1c0.1,0.8,0.3,1.4,0.8,1.9c0.5,0.5,1.1,0.7,1.9,0.7c0.7,0,1.3-0.1,1.7-0.2
		c0.5-0.1,1-0.4,1.5-0.7l0.8,1.9c-0.5,0.4-1.1,0.7-1.9,1S388.3,189,387.3,189z M387.1,179.3c-0.6,0-1,0.2-1.4,0.7s-0.5,1-0.6,1.8
		l0,0.1h3.8v-0.3c0-0.7-0.2-1.2-0.5-1.6C388.2,179.5,387.7,179.3,387.1,179.3z"/>
</g>
<g class="st1">
	<path class="st2" d="M398.2,179l-1.1,0.2l1.5,5.2l0.2,1.1h0.1l0.2-1.1l1.5-5.2l-1.1-0.2v-1.9h5.3v1.9l-1,0.2l-3.4,9.6h-3l-3.4-9.6
		l-1-0.2v-1.9h5.3V179z"/>
</g>
<g class="st1">
	<path class="st2" d="M405.9,186.9l1.5-0.3v-7.2l-1.7-0.3v-1.9h4.8v9.4l1.5,0.3v1.9h-6.2V186.9z M410.6,174.4h-3.1V172h3.1V174.4z"
		/>
</g>
<g class="st1">
	<path class="st2" d="M418.2,186.6c0.6,0,1-0.2,1.3-0.5c0.3-0.3,0.5-0.8,0.5-1.3h2.8l0,0.1c0,1.2-0.4,2.2-1.3,2.9
		c-0.9,0.8-2,1.2-3.4,1.2c-1.7,0-3.1-0.5-4-1.6c-0.9-1.1-1.4-2.5-1.4-4.2v-0.3c0-1.7,0.5-3.1,1.4-4.2s2.3-1.7,4.1-1.7
		c0.9,0,1.8,0.1,2.5,0.4c0.7,0.3,1.4,0.7,1.9,1.2l0,3.1h-2.5l-0.5-1.8c-0.2-0.1-0.4-0.2-0.6-0.3c-0.2-0.1-0.5-0.1-0.8-0.1
		c-0.9,0-1.5,0.3-1.9,1s-0.5,1.5-0.5,2.5v0.3c0,1,0.2,1.9,0.5,2.5C416.8,186.3,417.4,186.6,418.2,186.6z"/>
</g>
<g class="st1">
	<path class="st2" d="M429.8,189c-1.7,0-3-0.5-4-1.6s-1.5-2.4-1.5-4.1v-0.4c0-1.7,0.5-3.1,1.4-4.3c0.9-1.1,2.2-1.7,3.8-1.7
		c1.6,0,2.8,0.5,3.7,1.4s1.3,2.2,1.3,3.8v1.7h-6.9l0,0.1c0.1,0.8,0.3,1.4,0.8,1.9c0.5,0.5,1.1,0.7,1.9,0.7c0.7,0,1.3-0.1,1.7-0.2
		c0.5-0.1,1-0.4,1.5-0.7l0.8,1.9c-0.5,0.4-1.1,0.7-1.9,1S430.7,189,429.8,189z M429.5,179.3c-0.6,0-1,0.2-1.4,0.7s-0.5,1-0.6,1.8
		l0,0.1h3.8v-0.3c0-0.7-0.2-1.2-0.5-1.6C430.6,179.5,430.1,179.3,429.5,179.3z"/>
</g>
<g class="st1">
	<path class="st2" d="M440.7,182.6c0,2.7-0.6,5.1-1.7,7.1c-1.1,2-2.4,3.3-3.8,3.9h-0.1l-0.6-1.5c0.9-0.7,1.7-1.8,2.4-3.4s1-3.6,1-6
		v-0.3c0-2.4-0.3-4.4-1-6c-0.7-1.6-1.4-2.7-2.3-3.4l0.6-1.5h0.1c1.4,0.6,2.6,1.9,3.8,3.9c1.1,2,1.7,4.4,1.7,7.1V182.6z"/>
</g>
<g class="st1">
	<path class="st2" d="M447.5,186.9l1.5-0.3v-7.2l-1.7-0.3v-1.9h4.8v9.4l1.5,0.3v1.9h-6.2V186.9z M452.2,174.4H449V172h3.1V174.4z"/>
</g>
<g class="st1">
	<path class="st2" d="M464,181.1h-2.1l-0.3-1.5c-0.2-0.2-0.5-0.3-0.8-0.4s-0.7-0.2-1.1-0.2c-0.6,0-1,0.1-1.3,0.4
		c-0.3,0.2-0.5,0.6-0.5,0.9c0,0.4,0.2,0.6,0.5,0.9c0.3,0.2,0.9,0.4,1.8,0.6c1.4,0.3,2.5,0.7,3.2,1.3c0.7,0.6,1,1.3,1,2.3
		c0,1-0.5,1.9-1.3,2.6c-0.9,0.7-2.1,1-3.5,1c-0.9,0-1.7-0.1-2.5-0.4c-0.7-0.3-1.4-0.6-2-1.1l0-2.6h2.2l0.4,1.5
		c0.2,0.2,0.4,0.3,0.8,0.3c0.3,0.1,0.7,0.1,1,0.1c0.6,0,1.1-0.1,1.5-0.3s0.5-0.5,0.5-0.9c0-0.3-0.2-0.6-0.5-0.9
		c-0.3-0.3-1-0.5-1.9-0.7c-1.4-0.3-2.4-0.7-3.1-1.2c-0.7-0.5-1-1.3-1-2.2c0-1,0.4-1.8,1.2-2.5c0.8-0.7,1.9-1.1,3.4-1.1
		c0.9,0,1.8,0.1,2.6,0.4s1.4,0.6,1.9,0.9L464,181.1z"/>
	<path class="st2" d="M478.7,188.8c-0.1-0.2-0.2-0.4-0.2-0.6c-0.1-0.2-0.1-0.4-0.2-0.6c-0.4,0.4-0.8,0.8-1.4,1s-1.1,0.4-1.8,0.4
		c-1.1,0-2-0.3-2.7-0.9c-0.7-0.6-1-1.5-1-2.5c0-1.1,0.4-1.9,1.3-2.5c0.9-0.6,2.2-0.9,3.8-0.9h1.6V181c0-0.6-0.2-1-0.5-1.3
		s-0.8-0.5-1.4-0.5c-0.4,0-0.7,0-1,0.1c-0.3,0.1-0.5,0.2-0.7,0.3l-0.2,1.2H472l0-2.6c0.6-0.4,1.2-0.7,2-1s1.5-0.4,2.4-0.4
		c1.4,0,2.6,0.4,3.5,1.1c0.9,0.7,1.3,1.7,1.3,3v4.8c0,0.2,0,0.3,0,0.5s0,0.3,0,0.5l1,0.1v1.9H478.7z M475.9,186.7
		c0.5,0,0.9-0.1,1.3-0.3c0.4-0.2,0.7-0.5,0.9-0.8v-1.8h-1.6c-0.7,0-1.2,0.2-1.5,0.5c-0.3,0.3-0.5,0.7-0.5,1.1c0,0.4,0.1,0.7,0.4,0.9
		S475.5,186.7,475.9,186.7z"/>
</g>
<g class="st1">
	<path class="st2" d="M133.7,200.7v2.8h2v2.2h-2v5.9c0,0.5,0.1,0.8,0.3,1c0.2,0.2,0.4,0.3,0.8,0.3c0.2,0,0.4,0,0.6,0
		c0.2,0,0.3,0,0.5-0.1l0.3,2.3c-0.4,0.1-0.7,0.2-1,0.2c-0.3,0.1-0.7,0.1-1.1,0.1c-1.1,0-1.9-0.3-2.5-0.9c-0.6-0.6-0.9-1.5-0.9-2.8
		v-5.9h-1.7v-2.2h1.7v-2.8H133.7z"/>
</g>
<g class="st1">
	<path class="st2" d="M137.2,213.3l1.5-0.3v-7.2l-1.7-0.3v-1.9h4.8v9.4l1.5,0.3v1.9h-6.2V213.3z M141.9,200.8h-3.1v-2.4h3.1V200.8z"
		/>
</g>
<g class="st1">
	<path class="st2" d="M144.4,213.3l1.5-0.3v-7.2l-1.7-0.3v-1.9h4.6l0.1,1.7c0.4-0.6,0.9-1.1,1.4-1.4s1.2-0.5,1.9-0.5
		c1.2,0,2.1,0.4,2.8,1.1s1,1.9,1,3.5v5.1l1.5,0.3v1.9h-6v-1.9l1.3-0.3v-5c0-0.8-0.2-1.3-0.5-1.7c-0.3-0.3-0.8-0.5-1.4-0.5
		c-0.4,0-0.8,0.1-1.1,0.3c-0.3,0.2-0.6,0.4-0.8,0.7v6.2l1.3,0.3v1.9h-5.9V213.3z"/>
</g>
<g class="st1">
	<path class="st2" d="M170,205.4l-1.1,0.2l-4.3,11.3c-0.3,0.8-0.8,1.5-1.3,2.1c-0.6,0.6-1.4,0.8-2.5,0.8c-0.3,0-0.5,0-0.7-0.1
		c-0.2,0-0.5-0.1-0.8-0.2l0.4-2.3c0.1,0,0.2,0,0.3,0s0.2,0,0.3,0c0.5,0,0.9-0.1,1.2-0.4c0.3-0.3,0.5-0.6,0.6-1l0.4-0.9l-3.7-9.6
		l-1.1-0.2v-1.9h5.7v1.9l-1.3,0.2l1.6,4.6l0.2,0.8l0.1,0l1.8-5.5l-1.3-0.2v-1.9h5.7V205.4z"/>
</g>
<g class="st1">
	<path class="st2" d="M184,213.8c-0.4,0.5-0.8,0.9-1.3,1.2c-0.5,0.3-1.1,0.4-1.7,0.4c-1.4,0-2.5-0.5-3.3-1.6c-0.8-1-1.2-2.4-1.2-4.1
		v-0.2c0-1.8,0.4-3.3,1.2-4.4s1.9-1.7,3.4-1.7c0.6,0,1.1,0.1,1.6,0.4c0.5,0.3,0.9,0.6,1.2,1.1v-4.2l-1.7-0.3v-1.9h1.7h3.1V213
		l1.5,0.3v1.9h-4.2L184,213.8z M179.6,209.7c0,1,0.2,1.8,0.5,2.4c0.3,0.6,0.9,0.9,1.7,0.9c0.5,0,0.9-0.1,1.2-0.3s0.6-0.5,0.8-0.8
		v-4.9c-0.2-0.4-0.5-0.7-0.8-0.9c-0.3-0.2-0.7-0.3-1.2-0.3c-0.8,0-1.3,0.3-1.7,1s-0.5,1.6-0.5,2.7V209.7z"/>
</g>
<g class="st1">
	<path class="st2" d="M194.6,215.4c-1.7,0-3-0.5-4-1.6c-1-1.1-1.5-2.4-1.5-4.1v-0.4c0-1.7,0.5-3.1,1.4-4.3c0.9-1.1,2.2-1.7,3.8-1.7
		c1.6,0,2.8,0.5,3.7,1.4c0.9,0.9,1.3,2.2,1.3,3.8v1.7h-6.9l0,0.1c0.1,0.8,0.3,1.4,0.8,1.9c0.5,0.5,1.1,0.7,1.9,0.7
		c0.7,0,1.3-0.1,1.7-0.2c0.5-0.1,1-0.4,1.5-0.7l0.8,1.9c-0.5,0.4-1.1,0.7-1.9,1S195.6,215.4,194.6,215.4z M194.4,205.7
		c-0.6,0-1,0.2-1.4,0.7c-0.3,0.4-0.5,1-0.6,1.8l0,0.1h3.8v-0.3c0-0.7-0.2-1.2-0.5-1.6C195.5,205.9,195,205.7,194.4,205.7z"/>
</g>
<g class="st1">
	<path class="st2" d="M205.4,205.4l-1.1,0.2l1.5,5.2l0.2,1.1h0.1l0.2-1.1l1.5-5.2l-1.1-0.2v-1.9h5.3v1.9l-1,0.2l-3.4,9.6h-3
		l-3.4-9.6l-1-0.2v-1.9h5.3V205.4z"/>
</g>
<g class="st1">
	<path class="st2" d="M213.2,213.3l1.5-0.3v-7.2l-1.7-0.3v-1.9h4.8v9.4l1.5,0.3v1.9h-6.2V213.3z M217.9,200.8h-3.1v-2.4h3.1V200.8z"
		/>
</g>
<g class="st1">
	<path class="st2" d="M225.5,213c0.6,0,1-0.2,1.3-0.5c0.3-0.3,0.5-0.8,0.5-1.3h2.8l0,0.1c0,1.2-0.4,2.2-1.3,2.9
		c-0.9,0.8-2,1.2-3.4,1.2c-1.7,0-3.1-0.5-4-1.6c-0.9-1.1-1.4-2.5-1.4-4.2v-0.3c0-1.7,0.5-3.1,1.4-4.2c1-1.1,2.3-1.7,4.1-1.7
		c0.9,0,1.8,0.1,2.5,0.4c0.7,0.3,1.4,0.7,1.9,1.2l0,3.1h-2.5l-0.5-1.8c-0.2-0.1-0.4-0.2-0.6-0.3c-0.2-0.1-0.5-0.1-0.8-0.1
		c-0.9,0-1.5,0.3-1.9,1s-0.5,1.5-0.5,2.5v0.3c0,1,0.2,1.9,0.5,2.5C224.1,212.7,224.7,213,225.5,213z"/>
</g>
<g class="st1">
	<path class="st2" d="M237.1,215.4c-1.7,0-3-0.5-4-1.6c-1-1.1-1.5-2.4-1.5-4.1v-0.4c0-1.7,0.5-3.1,1.4-4.3c0.9-1.1,2.2-1.7,3.8-1.7
		c1.6,0,2.8,0.5,3.7,1.4c0.9,0.9,1.3,2.2,1.3,3.8v1.7h-6.9l0,0.1c0.1,0.8,0.3,1.4,0.8,1.9c0.5,0.5,1.1,0.7,1.9,0.7
		c0.7,0,1.3-0.1,1.7-0.2c0.5-0.1,1-0.4,1.5-0.7l0.8,1.9c-0.5,0.4-1.1,0.7-1.9,1S238,215.4,237.1,215.4z M236.8,205.7
		c-0.6,0-1,0.2-1.4,0.7c-0.3,0.4-0.5,1-0.6,1.8l0,0.1h3.8v-0.3c0-0.7-0.2-1.2-0.5-1.6C237.9,205.9,237.4,205.7,236.8,205.7z"/>
</g>
<g class="st1">
	<path class="st2" d="M248.5,213.3l1.5-0.3v-7.2l-1.7-0.3v-1.9h4.8v9.4l1.5,0.3v1.9h-6.2V213.3z M253.2,200.8H250v-2.4h3.1V200.8z"
		/>
</g>
<g class="st1">
	<path class="st2" d="M255.7,213.3l1.5-0.3v-7.2l-1.7-0.3v-1.9h4.6l0.1,1.7c0.4-0.6,0.9-1.1,1.4-1.4c0.6-0.3,1.2-0.5,1.9-0.5
		c1.2,0,2.1,0.4,2.8,1.1c0.7,0.7,1,1.9,1,3.5v5.1l1.5,0.3v1.9h-6v-1.9l1.3-0.3v-5c0-0.8-0.2-1.3-0.5-1.7c-0.3-0.3-0.8-0.5-1.4-0.5
		c-0.4,0-0.8,0.1-1.1,0.3c-0.3,0.2-0.6,0.4-0.8,0.7v6.2l1.3,0.3v1.9h-5.9V213.3z"/>
	<path class="st2" d="M279.1,207.5H277l-0.3-1.5c-0.2-0.2-0.5-0.3-0.8-0.4c-0.3-0.1-0.7-0.2-1.1-0.2c-0.6,0-1,0.1-1.3,0.4
		c-0.3,0.2-0.5,0.6-0.5,0.9c0,0.4,0.2,0.6,0.5,0.9c0.3,0.2,0.9,0.4,1.8,0.6c1.4,0.3,2.5,0.7,3.2,1.3c0.7,0.6,1,1.3,1,2.3
		c0,1-0.4,1.9-1.3,2.6c-0.9,0.7-2.1,1-3.6,1c-0.9,0-1.7-0.1-2.5-0.4c-0.7-0.3-1.4-0.6-2-1.1l0-2.6h2.2l0.4,1.5
		c0.2,0.2,0.4,0.3,0.8,0.3c0.3,0.1,0.7,0.1,1,0.1c0.6,0,1.1-0.1,1.5-0.3s0.5-0.5,0.5-0.9c0-0.3-0.2-0.6-0.5-0.9s-1-0.5-1.9-0.7
		c-1.4-0.3-2.4-0.7-3.1-1.2c-0.7-0.5-1-1.3-1-2.2c0-1,0.4-1.8,1.2-2.5c0.8-0.7,1.9-1.1,3.4-1.1c0.9,0,1.8,0.1,2.6,0.4
		s1.4,0.6,1.9,0.9L279.1,207.5z"/>
</g>
<g class="st1">
	<path class="st2" d="M286.5,215.4c-1.7,0-3-0.5-4-1.6c-1-1.1-1.5-2.4-1.5-4.1v-0.4c0-1.7,0.5-3.1,1.4-4.3c0.9-1.1,2.2-1.7,3.8-1.7
		c1.6,0,2.8,0.5,3.7,1.4c0.9,0.9,1.3,2.2,1.3,3.8v1.7h-6.9l0,0.1c0.1,0.8,0.3,1.4,0.8,1.9c0.5,0.5,1.1,0.7,1.9,0.7
		c0.7,0,1.3-0.1,1.7-0.2c0.5-0.1,1-0.4,1.5-0.7l0.8,1.9c-0.5,0.4-1.1,0.7-1.9,1S287.4,215.4,286.5,215.4z M286.2,205.7
		c-0.6,0-1,0.2-1.4,0.7c-0.3,0.4-0.5,1-0.6,1.8l0,0.1h3.8v-0.3c0-0.7-0.2-1.2-0.5-1.6C287.3,205.9,286.8,205.7,286.2,205.7z"/>
</g>
<g class="st1">
	<path class="st2" d="M292.5,213.3l1.5-0.3v-7.2l-1.7-0.3v-1.9h4.6l0.1,1.7c0.3-0.6,0.6-1.1,1.1-1.4s0.9-0.5,1.5-0.5
		c0.2,0,0.3,0,0.5,0c0.2,0,0.3,0.1,0.5,0.1l-0.3,2.9l-1.3,0c-0.5,0-0.8,0.1-1.1,0.3s-0.5,0.4-0.7,0.8v5.7l1.5,0.3v1.9h-6.1V213.3z"
		/>
</g>
<g class="st1">
	<path class="st2" d="M306.4,200.7v2.8h2v2.2h-2v5.9c0,0.5,0.1,0.8,0.3,1c0.2,0.2,0.4,0.3,0.8,0.3c0.2,0,0.4,0,0.6,0
		c0.2,0,0.3,0,0.5-0.1l0.3,2.3c-0.4,0.1-0.7,0.2-1,0.2c-0.3,0.1-0.7,0.1-1.1,0.1c-1.1,0-1.9-0.3-2.5-0.9s-0.9-1.5-0.9-2.8v-5.9h-1.7
		v-2.2h1.7v-2.8H306.4z"/>
</g>
<g class="st1">
	<path class="st2" d="M315.1,215.4c-1.7,0-3-0.5-4-1.6s-1.5-2.4-1.5-4.1v-0.4c0-1.7,0.5-3.1,1.4-4.3c0.9-1.1,2.2-1.7,3.8-1.7
		c1.6,0,2.8,0.5,3.7,1.4s1.3,2.2,1.3,3.8v1.7h-6.9l0,0.1c0.1,0.8,0.3,1.4,0.8,1.9c0.5,0.5,1.1,0.7,1.9,0.7c0.7,0,1.3-0.1,1.7-0.2
		c0.5-0.1,1-0.4,1.5-0.7l0.8,1.9c-0.5,0.4-1.1,0.7-1.9,1S316,215.4,315.1,215.4z M314.8,205.7c-0.6,0-1,0.2-1.4,0.7s-0.5,1-0.6,1.8
		l0,0.1h3.8v-0.3c0-0.7-0.2-1.2-0.5-1.6C315.9,205.9,315.4,205.7,314.8,205.7z"/>
</g>
<g class="st1">
	<path class="st2" d="M328.8,213.8c-0.4,0.5-0.8,0.9-1.3,1.2s-1.1,0.4-1.7,0.4c-1.4,0-2.5-0.5-3.3-1.6c-0.8-1-1.2-2.4-1.2-4.1v-0.2
		c0-1.8,0.4-3.3,1.2-4.4s1.9-1.7,3.4-1.7c0.6,0,1.1,0.1,1.6,0.4c0.5,0.3,0.9,0.6,1.2,1.1v-4.2l-1.7-0.3v-1.9h1.7h3.1V213l1.5,0.3
		v1.9H329L328.8,213.8z M324.4,209.7c0,1,0.2,1.8,0.5,2.4c0.3,0.6,0.9,0.9,1.7,0.9c0.5,0,0.9-0.1,1.2-0.3c0.3-0.2,0.6-0.5,0.8-0.8
		v-4.9c-0.2-0.4-0.5-0.7-0.8-0.9c-0.3-0.2-0.7-0.3-1.2-0.3c-0.8,0-1.3,0.3-1.7,1c-0.4,0.7-0.5,1.6-0.5,2.7V209.7z"/>
</g>
<g class="st1">
	<path class="st2" d="M339.5,213.3l1.5-0.3v-7.2l-1.7-0.3v-1.9h4.8v9.4l1.5,0.3v1.9h-6.2V213.3z M344.2,200.8H341v-2.4h3.1V200.8z"
		/>
</g>
<g class="st1">
	<path class="st2" d="M346.7,213.3l1.5-0.3v-7.2l-1.7-0.3v-1.9h4.6l0.1,1.7c0.4-0.6,0.9-1.1,1.4-1.4s1.2-0.5,1.9-0.5
		c1.2,0,2.1,0.4,2.8,1.1s1,1.9,1,3.5v5.1l1.5,0.3v1.9h-6v-1.9l1.3-0.3v-5c0-0.8-0.2-1.3-0.5-1.7c-0.3-0.3-0.8-0.5-1.4-0.5
		c-0.4,0-0.8,0.1-1.1,0.3c-0.3,0.2-0.6,0.4-0.8,0.7v6.2l1.3,0.3v1.9h-5.9V213.3z"/>
</g>
<g class="st1">
	<path class="st2" d="M364.9,200.7v2.8h2v2.2h-2v5.9c0,0.5,0.1,0.8,0.3,1s0.4,0.3,0.8,0.3c0.2,0,0.4,0,0.6,0c0.2,0,0.3,0,0.5-0.1
		l0.3,2.3c-0.4,0.1-0.7,0.2-1,0.2c-0.3,0.1-0.7,0.1-1.1,0.1c-1.1,0-1.9-0.3-2.5-0.9c-0.6-0.6-0.9-1.5-0.9-2.8v-5.9H360v-2.2h1.7
		v-2.8H364.9z"/>
</g>
<g class="st1">
	<path class="st2" d="M368,209.3c0-1.7,0.5-3.2,1.5-4.3c1-1.1,2.3-1.7,4-1.7c1.7,0,3.1,0.6,4,1.7c1,1.1,1.5,2.5,1.5,4.3v0.2
		c0,1.7-0.5,3.2-1.5,4.3c-1,1.1-2.3,1.6-4,1.6c-1.7,0-3.1-0.5-4-1.6c-1-1.1-1.5-2.5-1.5-4.3V209.3z M371.2,209.5
		c0,1.1,0.2,1.9,0.6,2.6c0.4,0.6,1,1,1.8,1c0.8,0,1.4-0.3,1.8-1s0.6-1.5,0.6-2.5v-0.2c0-1-0.2-1.9-0.6-2.5s-1-1-1.8-1
		s-1.4,0.3-1.8,1s-0.6,1.5-0.6,2.5V209.5z"/>
</g>
<g class="st1">
	<path class="st2" d="M390.4,200.7v2.8h2v2.2h-2v5.9c0,0.5,0.1,0.8,0.3,1c0.2,0.2,0.4,0.3,0.8,0.3c0.2,0,0.4,0,0.6,0
		c0.2,0,0.3,0,0.5-0.1l0.3,2.3c-0.4,0.1-0.7,0.2-1,0.2c-0.3,0.1-0.7,0.1-1.1,0.1c-1.1,0-1.9-0.3-2.5-0.9s-0.9-1.5-0.9-2.8v-5.9h-1.7
		v-2.2h1.7v-2.8H390.4z"/>
</g>
<g class="st1">
	<path class="st2" d="M393.9,213.3l1.5-0.3v-12.3l-1.7-0.3v-1.9h4.8v6.6c0.4-0.5,0.8-1,1.3-1.3c0.5-0.3,1.1-0.4,1.8-0.4
		c1.2,0,2.2,0.4,2.9,1.2c0.7,0.8,1,2,1,3.7v4.7l1.5,0.3v1.9h-6v-1.9l1.4-0.3v-4.7c0-0.9-0.2-1.5-0.5-1.9c-0.3-0.4-0.8-0.6-1.4-0.6
		c-0.4,0-0.8,0.1-1.1,0.2c-0.3,0.2-0.6,0.4-0.8,0.7v6.3l1.4,0.3v1.9h-6V213.3z"/>
</g>
<g class="st1">
	<path class="st2" d="M413.3,215.4c-1.7,0-3-0.5-4-1.6c-1-1.1-1.5-2.4-1.5-4.1v-0.4c0-1.7,0.5-3.1,1.4-4.3s2.2-1.7,3.8-1.7
		c1.6,0,2.8,0.5,3.7,1.4c0.9,0.9,1.3,2.2,1.3,3.8v1.7H411l0,0.1c0.1,0.8,0.3,1.4,0.8,1.9s1.1,0.7,1.9,0.7c0.7,0,1.3-0.1,1.7-0.2
		c0.5-0.1,1-0.4,1.5-0.7l0.8,1.9c-0.5,0.4-1.1,0.7-1.9,1S414.2,215.4,413.3,215.4z M413,205.7c-0.6,0-1,0.2-1.4,0.7
		c-0.3,0.4-0.5,1-0.6,1.8l0,0.1h3.8v-0.3c0-0.7-0.2-1.2-0.5-1.6C414.1,205.9,413.6,205.7,413,205.7z"/>
</g>
<g class="st1">
	<path class="st2" d="M137.2,240.1c-0.4,0.5-0.8,1-1.4,1.3s-1.2,0.4-1.9,0.4c-1.2,0-2.2-0.4-2.9-1.2c-0.7-0.8-1-2-1-3.7v-4.8
		l-1.3-0.3v-1.9h1.3h3.1v7c0,0.8,0.1,1.5,0.4,1.8c0.3,0.4,0.7,0.6,1.3,0.6c0.5,0,0.9-0.1,1.3-0.2c0.4-0.2,0.7-0.4,0.9-0.7v-6.3
		l-1.4-0.3v-1.9h1.4h3.1v9.4l1.4,0.3v1.9h-4.2L137.2,240.1z"/>
</g>
<g class="st1">
	<path class="st2" d="M146.8,227.1v2.8h2v2.2h-2v5.9c0,0.5,0.1,0.8,0.3,1s0.4,0.3,0.8,0.3c0.2,0,0.4,0,0.6,0c0.2,0,0.3,0,0.5-0.1
		l0.3,2.3c-0.4,0.1-0.7,0.2-1,0.2c-0.3,0.1-0.7,0.1-1.1,0.1c-1.1,0-1.9-0.3-2.5-0.9c-0.6-0.6-0.9-1.5-0.9-2.8v-5.9h-1.7v-2.2h1.7
		v-2.8H146.8z"/>
</g>
<g class="st1">
	<path class="st2" d="M155.5,241.8c-1.7,0-3-0.5-4-1.6c-1-1.1-1.5-2.4-1.5-4.1v-0.4c0-1.7,0.5-3.1,1.4-4.3s2.2-1.7,3.8-1.7
		c1.6,0,2.8,0.5,3.7,1.4c0.9,0.9,1.3,2.2,1.3,3.8v1.7h-6.9l0,0.1c0.1,0.8,0.3,1.4,0.8,1.9s1.1,0.7,1.9,0.7c0.7,0,1.3-0.1,1.7-0.2
		c0.5-0.1,1-0.4,1.5-0.7l0.8,1.9c-0.5,0.4-1.1,0.7-1.9,1S156.4,241.8,155.5,241.8z M155.2,232.1c-0.6,0-1,0.2-1.4,0.7
		c-0.3,0.4-0.5,1-0.6,1.8l0,0.1h3.8v-0.3c0-0.7-0.2-1.2-0.5-1.6C156.3,232.3,155.8,232.1,155.2,232.1z"/>
</g>
<g class="st1">
	<path class="st2" d="M161.5,239.7l1.5-0.3v-7.2l-1.7-0.3v-1.9h4.6l0.1,1.7c0.3-0.6,0.6-1.1,1.1-1.4s0.9-0.5,1.5-0.5
		c0.2,0,0.3,0,0.5,0c0.2,0,0.3,0.1,0.5,0.1l-0.3,2.9l-1.3,0c-0.5,0-0.8,0.1-1.1,0.3s-0.5,0.4-0.7,0.8v5.7l1.5,0.3v1.9h-6.1V239.7z"
		/>
</g>
<g class="st1">
	<path class="st2" d="M179,240.1c-0.4,0.5-0.8,1-1.4,1.3s-1.2,0.4-1.9,0.4c-1.2,0-2.2-0.4-2.9-1.2c-0.7-0.8-1-2-1-3.7v-4.8l-1.3-0.3
		v-1.9h1.3h3.1v7c0,0.8,0.1,1.5,0.4,1.8c0.3,0.4,0.7,0.6,1.3,0.6c0.5,0,0.9-0.1,1.3-0.2c0.4-0.2,0.7-0.4,0.9-0.7v-6.3l-1.4-0.3v-1.9
		h1.4h3.1v9.4l1.4,0.3v1.9h-4.2L179,240.1z"/>
</g>
<g class="st1">
	<path class="st2" d="M193.8,233.9h-2.1l-0.3-1.5c-0.2-0.2-0.5-0.3-0.8-0.4c-0.3-0.1-0.7-0.2-1.1-0.2c-0.6,0-1,0.1-1.3,0.4
		c-0.3,0.2-0.5,0.6-0.5,0.9c0,0.4,0.2,0.6,0.5,0.9c0.3,0.2,0.9,0.4,1.8,0.6c1.4,0.3,2.5,0.7,3.2,1.3c0.7,0.6,1,1.3,1,2.3
		c0,1-0.4,1.9-1.3,2.6c-0.9,0.7-2.1,1-3.6,1c-0.9,0-1.7-0.1-2.5-0.4c-0.7-0.3-1.4-0.6-2-1.1l0-2.6h2.2l0.4,1.5
		c0.2,0.2,0.4,0.3,0.8,0.3c0.3,0.1,0.7,0.1,1,0.1c0.6,0,1.1-0.1,1.5-0.3s0.5-0.5,0.5-0.9c0-0.3-0.2-0.6-0.5-0.9
		c-0.3-0.3-1-0.5-1.9-0.7c-1.4-0.3-2.4-0.7-3.1-1.2c-0.7-0.5-1-1.3-1-2.2c0-1,0.4-1.8,1.2-2.5c0.8-0.7,1.9-1.1,3.4-1.1
		c0.9,0,1.8,0.1,2.6,0.4s1.4,0.6,1.9,0.9L193.8,233.9z"/>
</g>
<g class="st1">
	<path class="st2" d="M205.6,227.1v2.8h2v2.2h-2v5.9c0,0.5,0.1,0.8,0.3,1c0.2,0.2,0.4,0.3,0.8,0.3c0.2,0,0.4,0,0.6,0
		c0.2,0,0.3,0,0.5-0.1l0.3,2.3c-0.4,0.1-0.7,0.2-1,0.2c-0.3,0.1-0.7,0.1-1.1,0.1c-1.1,0-1.9-0.3-2.5-0.9c-0.6-0.6-0.9-1.5-0.9-2.8
		v-5.9h-1.7v-2.2h1.7v-2.8H205.6z"/>
</g>
<g class="st1">
	<path class="st2" d="M208.8,235.7c0-1.7,0.5-3.2,1.5-4.3c1-1.1,2.3-1.7,4-1.7c1.7,0,3.1,0.6,4,1.7c1,1.1,1.5,2.5,1.5,4.3v0.2
		c0,1.7-0.5,3.2-1.5,4.3c-1,1.1-2.3,1.6-4,1.6c-1.7,0-3.1-0.5-4-1.6c-1-1.1-1.5-2.5-1.5-4.3V235.7z M211.9,235.9
		c0,1.1,0.2,1.9,0.6,2.6c0.4,0.6,1,1,1.8,1c0.8,0,1.4-0.3,1.8-1s0.6-1.5,0.6-2.5v-0.2c0-1-0.2-1.9-0.6-2.5c-0.4-0.7-1-1-1.8-1
		s-1.4,0.3-1.8,1c-0.4,0.7-0.6,1.5-0.6,2.5V235.9z"/>
</g>
<g class="st1">
	<path class="st2" d="M226.3,231.8v-1.9h4.6l0.2,1.4c0.3-0.5,0.8-0.9,1.2-1.2c0.5-0.3,1-0.4,1.7-0.4c1.4,0,2.6,0.6,3.4,1.7
		s1.2,2.6,1.2,4.4v0.2c0,1.7-0.4,3.1-1.2,4.1s-1.9,1.6-3.3,1.6c-0.6,0-1.1-0.1-1.6-0.3c-0.5-0.2-0.9-0.6-1.2-1v3.4l1.5,0.3v1.9h-6.2
		v-1.9l1.5-0.3v-11.7L226.3,231.8z M235.3,235.9c0-1.1-0.2-2-0.5-2.7s-0.9-1-1.7-1c-0.5,0-0.9,0.1-1.2,0.3s-0.6,0.5-0.8,0.8v5.1
		c0.2,0.3,0.5,0.6,0.8,0.8s0.7,0.3,1.2,0.3c0.8,0,1.3-0.3,1.7-0.9s0.5-1.4,0.5-2.4V235.9z"/>
</g>
<g class="st1">
	<path class="st2" d="M239.7,239.7l1.5-0.3v-7.2l-1.7-0.3v-1.9h4.6l0.1,1.7c0.3-0.6,0.6-1.1,1.1-1.4s0.9-0.5,1.5-0.5
		c0.2,0,0.3,0,0.5,0c0.2,0,0.3,0.1,0.5,0.1l-0.3,2.9l-1.3,0c-0.5,0-0.8,0.1-1.1,0.3s-0.5,0.4-0.7,0.8v5.7l1.5,0.3v1.9h-6.1V239.7z"
		/>
	<path class="st2" d="M253.8,241.8c-1.7,0-3-0.5-4-1.6c-1-1.1-1.5-2.4-1.5-4.1v-0.4c0-1.7,0.5-3.1,1.4-4.3c0.9-1.1,2.2-1.7,3.8-1.7
		c1.6,0,2.8,0.5,3.7,1.4c0.9,0.9,1.3,2.2,1.3,3.8v1.7h-6.9l0,0.1c0.1,0.8,0.3,1.4,0.8,1.9c0.5,0.5,1.1,0.7,1.9,0.7
		c0.7,0,1.3-0.1,1.7-0.2c0.5-0.1,1-0.4,1.5-0.7l0.8,1.9c-0.5,0.4-1.1,0.7-1.9,1S254.8,241.8,253.8,241.8z M253.5,232.1
		c-0.6,0-1,0.2-1.4,0.7c-0.3,0.4-0.5,1-0.6,1.8l0,0.1h3.8v-0.3c0-0.7-0.2-1.2-0.5-1.6C254.6,232.3,254.2,232.1,253.5,232.1z"/>
</g>
<g class="st1">
	<path class="st2" d="M264.8,231.8l-1.1,0.2l1.5,5.2l0.2,1.1h0.1l0.2-1.1l1.5-5.2l-1.1-0.2v-1.9h5.3v1.9l-1,0.2l-3.4,9.6h-3
		l-3.4-9.6l-1-0.2v-1.9h5.3V231.8z"/>
</g>
<g class="st1">
	<path class="st2" d="M277.6,241.8c-1.7,0-3-0.5-4-1.6c-1-1.1-1.5-2.4-1.5-4.1v-0.4c0-1.7,0.5-3.1,1.4-4.3c0.9-1.1,2.2-1.7,3.8-1.7
		c1.6,0,2.8,0.5,3.7,1.4c0.9,0.9,1.3,2.2,1.3,3.8v1.7h-6.9l0,0.1c0.1,0.8,0.3,1.4,0.8,1.9c0.5,0.5,1.1,0.7,1.9,0.7
		c0.7,0,1.3-0.1,1.7-0.2c0.5-0.1,1-0.4,1.5-0.7l0.8,1.9c-0.5,0.4-1.1,0.7-1.9,1S278.5,241.8,277.6,241.8z M277.3,232.1
		c-0.6,0-1,0.2-1.4,0.7c-0.3,0.4-0.5,1-0.6,1.8l0,0.1h3.8v-0.3c0-0.7-0.2-1.2-0.5-1.6C278.4,232.3,277.9,232.1,277.3,232.1z"/>
</g>
<g class="st1">
	<path class="st2" d="M283.4,239.7l1.5-0.3v-7.2l-1.7-0.3v-1.9h4.6l0.1,1.7c0.4-0.6,0.9-1.1,1.4-1.4c0.6-0.3,1.2-0.5,1.9-0.5
		c1.2,0,2.1,0.4,2.8,1.1c0.7,0.7,1,1.9,1,3.5v5.1l1.5,0.3v1.9h-6v-1.9l1.3-0.3v-5c0-0.8-0.2-1.3-0.5-1.7c-0.3-0.3-0.8-0.5-1.4-0.5
		c-0.4,0-0.8,0.1-1.1,0.3c-0.3,0.2-0.6,0.4-0.8,0.7v6.2l1.3,0.3v1.9h-5.9V239.7z"/>
</g>
<g class="st1">
	<path class="st2" d="M301.5,227.1v2.8h2v2.2h-2v5.9c0,0.5,0.1,0.8,0.3,1c0.2,0.2,0.4,0.3,0.8,0.3c0.2,0,0.4,0,0.6,0
		c0.2,0,0.3,0,0.5-0.1l0.3,2.3c-0.4,0.1-0.7,0.2-1,0.2c-0.3,0.1-0.7,0.1-1.1,0.1c-1.1,0-1.9-0.3-2.5-0.9s-0.9-1.5-0.9-2.8v-5.9h-1.7
		v-2.2h1.7v-2.8H301.5z"/>
</g>
<g class="st1">
	<path class="st2" d="M310.3,231.8v-1.9h4.6l0.2,1.4c0.3-0.5,0.8-0.9,1.2-1.2c0.5-0.3,1-0.4,1.7-0.4c1.4,0,2.6,0.6,3.4,1.7
		s1.2,2.6,1.2,4.4v0.2c0,1.7-0.4,3.1-1.2,4.1s-1.9,1.6-3.3,1.6c-0.6,0-1.1-0.1-1.6-0.3c-0.5-0.2-0.9-0.6-1.2-1v3.4l1.5,0.3v1.9h-6.2
		v-1.9l1.5-0.3v-11.7L310.3,231.8z M319.3,235.9c0-1.1-0.2-2-0.5-2.7s-0.9-1-1.7-1c-0.5,0-0.9,0.1-1.2,0.3s-0.6,0.5-0.8,0.8v5.1
		c0.2,0.3,0.5,0.6,0.8,0.8s0.7,0.3,1.2,0.3c0.8,0,1.3-0.3,1.7-0.9s0.5-1.4,0.5-2.4V235.9z"/>
</g>
<g class="st1">
	<path class="st2" d="M323.7,239.7l1.5-0.3v-7.2l-1.7-0.3v-1.9h4.6l0.1,1.7c0.3-0.6,0.6-1.1,1.1-1.4s0.9-0.5,1.5-0.5
		c0.2,0,0.3,0,0.5,0c0.2,0,0.3,0.1,0.5,0.1l-0.3,2.9l-1.3,0c-0.5,0-0.8,0.1-1.1,0.3s-0.5,0.4-0.7,0.8v5.7l1.5,0.3v1.9h-6.1V239.7z"
		/>
</g>
<g class="st1">
	<path class="st2" d="M338,241.8c-1.7,0-3-0.5-4-1.6c-1-1.1-1.5-2.4-1.5-4.1v-0.4c0-1.7,0.5-3.1,1.4-4.3s2.2-1.7,3.8-1.7
		c1.6,0,2.8,0.5,3.7,1.4c0.9,0.9,1.3,2.2,1.3,3.8v1.7h-6.9l0,0.1c0.1,0.8,0.3,1.4,0.8,1.9s1.1,0.7,1.9,0.7c0.7,0,1.3-0.1,1.7-0.2
		c0.5-0.1,1-0.4,1.5-0.7l0.8,1.9c-0.5,0.4-1.1,0.7-1.9,1S338.9,241.8,338,241.8z M337.7,232.1c-0.6,0-1,0.2-1.4,0.7
		c-0.3,0.4-0.5,1-0.6,1.8l0,0.1h3.8v-0.3c0-0.7-0.2-1.2-0.5-1.6C338.8,232.3,338.3,232.1,337.7,232.1z"/>
</g>
<g class="st1">
	<path class="st2" d="M344.2,235.9c0-1.8,0.4-3.3,1.2-4.4c0.8-1.1,1.9-1.7,3.4-1.7c0.7,0,1.2,0.1,1.7,0.4c0.5,0.3,0.9,0.7,1.3,1.2
		l0.2-1.5h2.7v11.3c0,1.5-0.5,2.8-1.4,3.7c-1,0.9-2.3,1.4-4,1.4c-0.6,0-1.2-0.1-1.9-0.2c-0.7-0.2-1.3-0.4-1.8-0.7l0.6-2.2
		c0.5,0.2,1,0.4,1.5,0.5c0.5,0.1,1,0.2,1.6,0.2c0.8,0,1.3-0.2,1.7-0.7c0.4-0.5,0.6-1.1,0.6-1.9v-0.8c-0.3,0.4-0.7,0.8-1.2,1
		c-0.5,0.2-1,0.3-1.6,0.3c-1.4,0-2.5-0.5-3.3-1.6c-0.8-1-1.2-2.4-1.2-4.1V235.9z M347.3,236.1c0,1,0.2,1.8,0.5,2.4
		c0.3,0.6,0.9,0.9,1.7,0.9c0.5,0,0.9-0.1,1.2-0.3c0.3-0.2,0.6-0.4,0.8-0.8v-5c-0.2-0.4-0.5-0.6-0.8-0.8c-0.3-0.2-0.7-0.3-1.2-0.3
		c-0.8,0-1.3,0.3-1.7,1c-0.4,0.7-0.5,1.6-0.5,2.7V236.1z"/>
</g>
<g class="st1">
	<path class="st2" d="M356.4,239.7l1.5-0.3v-7.2l-1.7-0.3v-1.9h4.6l0.1,1.7c0.4-0.6,0.9-1.1,1.4-1.4c0.6-0.3,1.2-0.5,1.9-0.5
		c1.2,0,2.1,0.4,2.8,1.1c0.7,0.7,1,1.9,1,3.5v5.1l1.5,0.3v1.9h-6v-1.9l1.3-0.3v-5c0-0.8-0.2-1.3-0.5-1.7c-0.3-0.3-0.8-0.5-1.4-0.5
		c-0.4,0-0.8,0.1-1.1,0.3c-0.3,0.2-0.6,0.4-0.8,0.7v6.2l1.3,0.3v1.9h-5.9V239.7z"/>
</g>
<g class="st1">
	<path class="st2" d="M378,241.6c-0.1-0.2-0.2-0.4-0.2-0.6c-0.1-0.2-0.1-0.4-0.2-0.6c-0.4,0.4-0.8,0.8-1.4,1
		c-0.5,0.3-1.1,0.4-1.8,0.4c-1.1,0-2-0.3-2.7-0.9c-0.7-0.6-1-1.5-1-2.5c0-1.1,0.4-1.9,1.3-2.5s2.2-0.9,3.8-0.9h1.6v-1.1
		c0-0.6-0.2-1-0.5-1.3s-0.8-0.5-1.4-0.5c-0.4,0-0.7,0-1,0.1c-0.3,0.1-0.5,0.2-0.7,0.3l-0.2,1.2h-2.4l0-2.6c0.6-0.4,1.2-0.7,2-1
		s1.5-0.4,2.4-0.4c1.4,0,2.6,0.4,3.5,1.1c0.9,0.7,1.3,1.7,1.3,3v4.8c0,0.2,0,0.3,0,0.5c0,0.2,0,0.3,0,0.5l1,0.1v1.9H378z
		 M375.2,239.5c0.5,0,0.9-0.1,1.3-0.3c0.4-0.2,0.7-0.5,0.9-0.8v-1.8h-1.6c-0.7,0-1.2,0.2-1.5,0.5c-0.3,0.3-0.5,0.7-0.5,1.1
		c0,0.4,0.1,0.7,0.4,0.9C374.4,239.4,374.8,239.5,375.2,239.5z"/>
</g>
<g class="st1">
	<path class="st2" d="M382.6,239.7l1.5-0.3v-7.2l-1.7-0.3v-1.9h4.6l0.1,1.7c0.4-0.6,0.9-1.1,1.4-1.4s1.2-0.5,1.9-0.5
		c1.2,0,2.1,0.4,2.8,1.1s1,1.9,1,3.5v5.1l1.5,0.3v1.9h-6v-1.9l1.3-0.3v-5c0-0.8-0.2-1.3-0.5-1.7c-0.3-0.3-0.8-0.5-1.4-0.5
		c-0.4,0-0.8,0.1-1.1,0.3c-0.3,0.2-0.6,0.4-0.8,0.7v6.2l1.3,0.3v1.9h-5.9V239.7z"/>
</g>
<g class="st1">
	<path class="st2" d="M401.9,239.4c0.6,0,1-0.2,1.3-0.5c0.3-0.3,0.5-0.8,0.5-1.3h2.8l0,0.1c0,1.2-0.4,2.2-1.3,2.9
		c-0.9,0.8-2,1.2-3.4,1.2c-1.7,0-3.1-0.5-4-1.6c-0.9-1.1-1.4-2.5-1.4-4.2v-0.3c0-1.7,0.5-3.1,1.4-4.2c1-1.1,2.3-1.7,4.1-1.7
		c0.9,0,1.8,0.1,2.5,0.4c0.7,0.3,1.4,0.7,1.9,1.2l0,3.1h-2.5l-0.5-1.8c-0.2-0.1-0.4-0.2-0.6-0.3c-0.2-0.1-0.5-0.1-0.8-0.1
		c-0.9,0-1.5,0.3-1.9,1s-0.5,1.5-0.5,2.5v0.3c0,1,0.2,1.9,0.5,2.5C400.5,239.1,401.1,239.4,401.9,239.4z"/>
</g>
<g class="st1">
	<path class="st2" d="M420.1,231.8L419,232l-4.3,11.3c-0.3,0.8-0.8,1.5-1.3,2.1c-0.6,0.6-1.4,0.8-2.5,0.8c-0.3,0-0.5,0-0.7-0.1
		c-0.2,0-0.5-0.1-0.8-0.2l0.4-2.3c0.1,0,0.2,0,0.3,0s0.2,0,0.3,0c0.5,0,0.9-0.1,1.2-0.4c0.3-0.3,0.5-0.6,0.6-1l0.4-0.9l-3.7-9.6
		l-1.1-0.2v-1.9h5.7v1.9l-1.3,0.2l1.6,4.6l0.2,0.8l0.1,0l1.8-5.5l-1.3-0.2v-1.9h5.7V231.8z"/>
</g>
<g class="st1">
	<path class="st2" d="M423.2,241.6h-3.1v-2.8h3.1V241.6z"/>
</g>
<g class="st1">
	<path class="st2" d="M149,280.6v-1.9h6.5v1.9l-1.7,0.3v11.2l1.7,0.3v1.9H149v-1.9l1.7-0.3v-11.2L149,280.6z"/>
</g>
<g class="st1">
	<path class="st2" d="M160.7,279.9v2.8h2v2.2h-2v5.9c0,0.5,0.1,0.8,0.3,1c0.2,0.2,0.4,0.3,0.8,0.3c0.2,0,0.4,0,0.6,0
		c0.2,0,0.3,0,0.5-0.1l0.3,2.3c-0.4,0.1-0.7,0.2-1,0.2c-0.3,0.1-0.7,0.1-1.1,0.1c-1.1,0-1.9-0.3-2.5-0.9c-0.6-0.6-0.9-1.5-0.9-2.8
		v-5.9h-1.7v-2.2h1.7v-2.8H160.7z"/>
</g>
<g class="st1">
	<path class="st2" d="M169.6,292.5l1.5-0.3V285l-1.7-0.3v-1.9h4.8v9.4l1.5,0.3v1.9h-6.2V292.5z M174.3,280h-3.1v-2.4h3.1V280z"/>
</g>
<g class="st1">
	<path class="st2" d="M186.1,286.7H184l-0.3-1.5c-0.2-0.2-0.5-0.3-0.8-0.4c-0.3-0.1-0.7-0.2-1.1-0.2c-0.6,0-1,0.1-1.3,0.4
		c-0.3,0.2-0.5,0.6-0.5,0.9c0,0.4,0.2,0.6,0.5,0.9c0.3,0.2,0.9,0.4,1.8,0.6c1.4,0.3,2.5,0.7,3.2,1.3c0.7,0.6,1,1.3,1,2.3
		c0,1-0.4,1.9-1.3,2.6c-0.9,0.7-2.1,1-3.6,1c-0.9,0-1.7-0.1-2.5-0.4c-0.7-0.3-1.4-0.6-2-1.1l0-2.6h2.2l0.4,1.5
		c0.2,0.2,0.4,0.3,0.8,0.3c0.3,0.1,0.7,0.1,1,0.1c0.6,0,1.1-0.1,1.5-0.3s0.5-0.5,0.5-0.9c0-0.3-0.2-0.6-0.5-0.9s-1-0.5-1.9-0.7
		c-1.4-0.3-2.4-0.7-3.1-1.2c-0.7-0.5-1-1.3-1-2.2c0-1,0.4-1.8,1.2-2.5c0.8-0.7,1.9-1.1,3.4-1.1c0.9,0,1.8,0.1,2.6,0.4
		s1.4,0.6,1.9,0.9L186.1,286.7z"/>
</g>
<g class="st1">
	<path class="st2" d="M193,279.5v-1.9h4.8v14.6l1.5,0.3v1.9h-6.2v-1.9l1.5-0.3v-12.3L193,279.5z"/>
</g>
<g class="st1">
	<path class="st2" d="M200,288.5c0-1.7,0.5-3.2,1.5-4.3c1-1.1,2.3-1.7,4-1.7c1.7,0,3.1,0.6,4,1.7c1,1.1,1.5,2.5,1.5,4.3v0.2
		c0,1.7-0.5,3.2-1.5,4.3c-1,1.1-2.3,1.6-4,1.6c-1.7,0-3.1-0.5-4-1.6c-1-1.1-1.5-2.5-1.5-4.3V288.5z M203.1,288.7
		c0,1.1,0.2,1.9,0.6,2.6c0.4,0.6,1,1,1.8,1c0.8,0,1.4-0.3,1.8-1s0.6-1.5,0.6-2.5v-0.2c0-1-0.2-1.9-0.6-2.5c-0.4-0.7-1-1-1.8-1
		s-1.4,0.3-1.8,1c-0.4,0.7-0.6,1.5-0.6,2.5V288.7z"/>
</g>
<g class="st1">
	<path class="st2" d="M211.9,292.5l1.5-0.3V285l-1.7-0.3v-1.9h4.6l0.1,1.7c0.4-0.6,0.9-1.1,1.4-1.4c0.6-0.3,1.2-0.5,1.9-0.5
		c1.2,0,2.1,0.4,2.8,1.1c0.7,0.7,1,1.9,1,3.5v5.1l1.5,0.3v1.9h-6v-1.9l1.3-0.3v-5c0-0.8-0.2-1.3-0.5-1.7c-0.3-0.3-0.8-0.5-1.4-0.5
		c-0.4,0-0.8,0.1-1.1,0.3c-0.3,0.2-0.6,0.4-0.8,0.7v6.2l1.3,0.3v1.9h-5.9V292.5z"/>
</g>
<g class="st1">
	<path class="st2" d="M225.9,288.7c0-1.8,0.4-3.3,1.2-4.4c0.8-1.1,1.9-1.7,3.4-1.7c0.7,0,1.2,0.1,1.7,0.4c0.5,0.3,0.9,0.7,1.3,1.2
		l0.2-1.5h2.7V294c0,1.5-0.5,2.8-1.4,3.7c-1,0.9-2.3,1.4-4,1.4c-0.6,0-1.2-0.1-1.9-0.2c-0.7-0.2-1.3-0.4-1.8-0.7l0.6-2.2
		c0.5,0.2,1,0.4,1.5,0.5c0.5,0.1,1,0.2,1.6,0.2c0.8,0,1.3-0.2,1.7-0.7s0.6-1.1,0.6-1.9v-0.8c-0.3,0.4-0.7,0.8-1.2,1s-1,0.3-1.6,0.3
		c-1.4,0-2.5-0.5-3.3-1.6c-0.8-1-1.2-2.4-1.2-4.1V288.7z M229,288.9c0,1,0.2,1.8,0.5,2.4c0.3,0.6,0.9,0.9,1.7,0.9
		c0.5,0,0.9-0.1,1.2-0.3c0.3-0.2,0.6-0.4,0.8-0.8v-5c-0.2-0.4-0.5-0.6-0.8-0.8s-0.7-0.3-1.2-0.3c-0.8,0-1.3,0.3-1.7,1
		s-0.5,1.6-0.5,2.7V288.9z"/>
</g>
<g class="st1">
	<path class="st2" d="M244.8,288.9h-6.1v-2.4h6.1V288.9z"/>
</g>
<g class="st1">
	<path class="st2" d="M250.5,279.9v2.8h2v2.2h-2v5.9c0,0.5,0.1,0.8,0.3,1c0.2,0.2,0.4,0.3,0.8,0.3c0.2,0,0.4,0,0.6,0
		c0.2,0,0.3,0,0.5-0.1l0.3,2.3c-0.4,0.1-0.7,0.2-1,0.2c-0.3,0.1-0.7,0.1-1.1,0.1c-1.1,0-1.9-0.3-2.5-0.9c-0.6-0.6-0.9-1.5-0.9-2.8
		v-5.9h-1.7v-2.2h1.7v-2.8H250.5z"/>
</g>
<g class="st1">
	<path class="st2" d="M259.2,294.6c-1.7,0-3-0.5-4-1.6c-1-1.1-1.5-2.4-1.5-4.1v-0.4c0-1.7,0.5-3.1,1.4-4.3c0.9-1.1,2.2-1.7,3.8-1.7
		c1.6,0,2.8,0.5,3.7,1.4c0.9,0.9,1.3,2.2,1.3,3.8v1.7h-6.9l0,0.1c0.1,0.8,0.3,1.4,0.8,1.9c0.5,0.5,1.1,0.7,1.9,0.7
		c0.7,0,1.3-0.1,1.7-0.2c0.5-0.1,1-0.4,1.5-0.7l0.8,1.9c-0.5,0.4-1.1,0.7-1.9,1S260.1,294.6,259.2,294.6z M258.9,284.9
		c-0.6,0-1,0.2-1.4,0.7c-0.3,0.4-0.5,1-0.6,1.8l0,0.1h3.8v-0.3c0-0.7-0.2-1.2-0.5-1.6C260,285.1,259.5,284.9,258.9,284.9z"/>
</g>
<g class="st1">
	<path class="st2" d="M265.2,292.5l1.5-0.3V285l-1.7-0.3v-1.9h4.6l0.1,1.7c0.3-0.6,0.6-1.1,1.1-1.4s0.9-0.5,1.5-0.5
		c0.2,0,0.3,0,0.5,0c0.2,0,0.3,0.1,0.5,0.1l-0.3,2.9l-1.3,0c-0.5,0-0.8,0.1-1.1,0.3s-0.5,0.4-0.7,0.8v5.7l1.5,0.3v1.9h-6.1V292.5z"
		/>
</g>
<g class="st1">
	<path class="st2" d="M274.2,284.6v-1.9h4.6l0.1,1.5c0.4-0.6,0.8-1,1.4-1.3c0.6-0.3,1.2-0.5,1.9-0.5c0.7,0,1.4,0.2,1.9,0.5
		c0.5,0.3,0.9,0.8,1.2,1.5c0.4-0.6,0.8-1.1,1.4-1.5c0.6-0.4,1.2-0.5,2-0.5c1.1,0,2,0.4,2.7,1.2c0.7,0.8,1,2,1,3.6v4.8l1.5,0.3v1.9
		h-6v-1.9l1.4-0.3v-4.8c0-0.9-0.1-1.5-0.4-1.8c-0.3-0.3-0.7-0.5-1.3-0.5c-0.4,0-0.8,0.1-1.2,0.3c-0.3,0.2-0.6,0.5-0.8,0.8
		c0,0.1,0,0.3,0,0.3c0,0.1,0,0.2,0,0.3v5.4l1.3,0.3v1.9h-5.7v-1.9l1.3-0.3v-4.8c0-0.9-0.1-1.5-0.4-1.8c-0.3-0.4-0.7-0.5-1.3-0.5
		c-0.4,0-0.8,0.1-1.1,0.2c-0.3,0.2-0.6,0.4-0.8,0.7v6.3l1.4,0.3v1.9h-6v-1.9l1.5-0.3V285L274.2,284.6z"/>
</g>
<g class="st1">
	<path class="st2" d="M298.6,294c0,0.7-0.2,1.5-0.6,2.3c-0.4,0.8-0.9,1.5-1.5,2l-1.5-0.8c0.3-0.5,0.5-1,0.6-1.6
		c0.2-0.5,0.2-1.1,0.2-1.8v-2.3h2.8L298.6,294z"/>
</g>
<g class="st1">
	<path class="st2" d="M306,292.5l1.5-0.3V285l-1.7-0.3v-1.9h4.6l0.1,1.7c0.3-0.6,0.6-1.1,1.1-1.4s0.9-0.5,1.5-0.5c0.2,0,0.3,0,0.5,0
		c0.2,0,0.3,0.1,0.5,0.1l-0.3,2.9l-1.3,0c-0.5,0-0.8,0.1-1.1,0.3s-0.5,0.4-0.7,0.8v5.7l1.5,0.3v1.9H306V292.5z"/>
	<path class="st2" d="M320.2,294.6c-1.7,0-3-0.5-4-1.6c-1-1.1-1.5-2.4-1.5-4.1v-0.4c0-1.7,0.5-3.1,1.4-4.3s2.2-1.7,3.8-1.7
		c1.6,0,2.8,0.5,3.7,1.4c0.9,0.9,1.3,2.2,1.3,3.8v1.7h-6.9l0,0.1c0.1,0.8,0.3,1.4,0.8,1.9s1.1,0.7,1.9,0.7c0.7,0,1.3-0.1,1.7-0.2
		c0.5-0.1,1-0.4,1.5-0.7l0.8,1.9c-0.5,0.4-1.1,0.7-1.9,1S321.1,294.6,320.2,294.6z M319.9,284.9c-0.6,0-1,0.2-1.4,0.7
		c-0.3,0.4-0.5,1-0.6,1.8l0,0.1h3.8v-0.3c0-0.7-0.2-1.2-0.5-1.6C321,285.1,320.6,284.9,319.9,284.9z"/>
</g>
<g class="st1">
	<path class="st2" d="M331.2,284.6l-1.1,0.2l1.5,5.2l0.2,1.1h0.1l0.2-1.1l1.5-5.2l-1.1-0.2v-1.9h5.3v1.9l-1,0.2l-3.4,9.6h-3
		l-3.4-9.6l-1-0.2v-1.9h5.3V284.6z"/>
</g>
<g class="st1">
	<path class="st2" d="M344,294.6c-1.7,0-3-0.5-4-1.6c-1-1.1-1.5-2.4-1.5-4.1v-0.4c0-1.7,0.5-3.1,1.4-4.3s2.2-1.7,3.8-1.7
		c1.6,0,2.8,0.5,3.7,1.4c0.9,0.9,1.3,2.2,1.3,3.8v1.7h-6.9l0,0.1c0.1,0.8,0.3,1.4,0.8,1.9s1.1,0.7,1.9,0.7c0.7,0,1.3-0.1,1.7-0.2
		c0.5-0.1,1-0.4,1.5-0.7l0.8,1.9c-0.5,0.4-1.1,0.7-1.9,1S344.9,294.6,344,294.6z M343.7,284.9c-0.6,0-1,0.2-1.4,0.7
		c-0.3,0.4-0.5,1-0.6,1.8l0,0.1h3.8v-0.3c0-0.7-0.2-1.2-0.5-1.6C344.8,285.1,344.3,284.9,343.7,284.9z"/>
</g>
<g class="st1">
	<path class="st2" d="M350,292.5l1.5-0.3V285l-1.7-0.3v-1.9h4.6l0.1,1.7c0.3-0.6,0.6-1.1,1.1-1.4s0.9-0.5,1.5-0.5c0.2,0,0.3,0,0.5,0
		c0.2,0,0.3,0.1,0.5,0.1l-0.3,2.9l-1.3,0c-0.5,0-0.8,0.1-1.1,0.3s-0.5,0.4-0.7,0.8v5.7l1.5,0.3v1.9H350V292.5z"/>
</g>
<g class="st1">
	<path class="st2" d="M368.3,286.7h-2.1l-0.3-1.5c-0.2-0.2-0.5-0.3-0.8-0.4c-0.3-0.1-0.7-0.2-1.1-0.2c-0.6,0-1,0.1-1.3,0.4
		c-0.3,0.2-0.5,0.6-0.5,0.9c0,0.4,0.2,0.6,0.5,0.9c0.3,0.2,0.9,0.4,1.8,0.6c1.4,0.3,2.5,0.7,3.2,1.3c0.7,0.6,1,1.3,1,2.3
		c0,1-0.4,1.9-1.3,2.6c-0.9,0.7-2.1,1-3.6,1c-0.9,0-1.7-0.1-2.5-0.4c-0.7-0.3-1.4-0.6-2-1.1l0-2.6h2.2l0.4,1.5
		c0.2,0.2,0.4,0.3,0.8,0.3c0.3,0.1,0.7,0.1,1,0.1c0.6,0,1.1-0.1,1.5-0.3s0.5-0.5,0.5-0.9c0-0.3-0.2-0.6-0.5-0.9s-1-0.5-1.9-0.7
		c-1.4-0.3-2.4-0.7-3.1-1.2c-0.7-0.5-1-1.3-1-2.2c0-1,0.4-1.8,1.2-2.5c0.8-0.7,1.9-1.1,3.4-1.1c0.9,0,1.8,0.1,2.6,0.4
		s1.4,0.6,1.9,0.9L368.3,286.7z"/>
</g>
<g class="st1">
	<path class="st2" d="M369.9,292.5l1.5-0.3V285l-1.7-0.3v-1.9h4.8v9.4l1.5,0.3v1.9h-6.2V292.5z M374.6,280h-3.1v-2.4h3.1V280z"/>
</g>
<g class="st1">
	<path class="st2" d="M388.1,288.9c0,1.7-0.4,3.1-1.2,4.2s-1.9,1.6-3.4,1.6c-0.7,0-1.3-0.1-1.8-0.4c-0.5-0.3-0.9-0.7-1.3-1.2
		l-0.2,1.4h-2.7v-14.5l-1.7-0.3v-1.9h4.8v6.4c0.3-0.5,0.7-0.8,1.2-1.1s1-0.4,1.6-0.4c1.5,0,2.6,0.6,3.4,1.7c0.8,1.1,1.2,2.6,1.2,4.5
		V288.9z M385,288.7c0-1.1-0.2-2-0.5-2.7c-0.3-0.7-0.9-1-1.7-1c-0.5,0-0.9,0.1-1.2,0.3c-0.3,0.2-0.6,0.5-0.8,0.9v4.9
		c0.2,0.4,0.5,0.6,0.8,0.8s0.8,0.3,1.3,0.3c0.8,0,1.4-0.3,1.7-0.9c0.3-0.6,0.5-1.4,0.5-2.4V288.7z"/>
</g>
<g class="st1">
	<path class="st2" d="M388.9,279.5v-1.9h4.8v14.6l1.5,0.3v1.9H389v-1.9l1.5-0.3v-12.3L388.9,279.5z"/>
</g>
<g class="st1">
	<path class="st2" d="M401.4,294.6c-1.7,0-3-0.5-4-1.6c-1-1.1-1.5-2.4-1.5-4.1v-0.4c0-1.7,0.5-3.1,1.4-4.3s2.2-1.7,3.8-1.7
		c1.6,0,2.8,0.5,3.7,1.4c0.9,0.9,1.3,2.2,1.3,3.8v1.7h-6.9l0,0.1c0.1,0.8,0.3,1.4,0.8,1.9s1.1,0.7,1.9,0.7c0.7,0,1.3-0.1,1.7-0.2
		c0.5-0.1,1-0.4,1.5-0.7l0.8,1.9c-0.5,0.4-1.1,0.7-1.9,1S402.4,294.6,401.4,294.6z M401.2,284.9c-0.6,0-1,0.2-1.4,0.7
		c-0.3,0.4-0.5,1-0.6,1.8l0,0.1h3.8v-0.3c0-0.7-0.2-1.2-0.5-1.6C402.3,285.1,401.8,284.9,401.2,284.9z"/>
</g>
<g class="st1">
	<path class="st2" d="M410.8,294c0,0.7-0.2,1.5-0.6,2.3c-0.4,0.8-0.9,1.5-1.5,2l-1.5-0.8c0.3-0.5,0.5-1,0.6-1.6
		c0.2-0.5,0.2-1.1,0.2-1.8v-2.3h2.8L410.8,294z"/>
</g>
<g class="st1">
	<path class="st2" d="M425.4,294.4c-0.1-0.2-0.2-0.4-0.2-0.6c-0.1-0.2-0.1-0.4-0.2-0.6c-0.4,0.4-0.8,0.8-1.4,1
		c-0.5,0.3-1.1,0.4-1.8,0.4c-1.1,0-2-0.3-2.7-0.9c-0.7-0.6-1-1.5-1-2.5c0-1.1,0.4-1.9,1.3-2.5s2.2-0.9,3.8-0.9h1.6v-1.1
		c0-0.6-0.2-1-0.5-1.3s-0.8-0.5-1.4-0.5c-0.4,0-0.7,0-1,0.1c-0.3,0.1-0.5,0.2-0.7,0.3l-0.2,1.2h-2.4l0-2.6c0.6-0.4,1.2-0.7,2-1
		s1.5-0.4,2.4-0.4c1.4,0,2.6,0.4,3.5,1.1c0.9,0.7,1.3,1.7,1.3,3v4.8c0,0.2,0,0.3,0,0.5c0,0.2,0,0.3,0,0.5l1,0.1v1.9H425.4z
		 M422.7,292.3c0.5,0,0.9-0.1,1.3-0.3c0.4-0.2,0.7-0.5,0.9-0.8v-1.8h-1.6c-0.7,0-1.2,0.2-1.5,0.5c-0.3,0.3-0.5,0.7-0.5,1.1
		c0,0.4,0.1,0.7,0.4,0.9C421.9,292.2,422.3,292.3,422.7,292.3z"/>
</g>
<g class="st1">
	<path class="st2" d="M430.1,292.5l1.5-0.3V285l-1.7-0.3v-1.9h4.6l0.1,1.7c0.4-0.6,0.9-1.1,1.4-1.4s1.2-0.5,1.9-0.5
		c1.2,0,2.1,0.4,2.8,1.1s1,1.9,1,3.5v5.1l1.5,0.3v1.9h-6v-1.9l1.3-0.3v-5c0-0.8-0.2-1.3-0.5-1.7c-0.3-0.3-0.8-0.5-1.4-0.5
		c-0.4,0-0.8,0.1-1.1,0.3c-0.3,0.2-0.6,0.4-0.8,0.7v6.2l1.3,0.3v1.9h-5.9V292.5z"/>
</g>
<g class="st1">
	<path class="st2" d="M451.6,293c-0.4,0.5-0.8,0.9-1.3,1.2c-0.5,0.3-1.1,0.4-1.7,0.4c-1.4,0-2.5-0.5-3.3-1.6c-0.8-1-1.2-2.4-1.2-4.1
		v-0.2c0-1.8,0.4-3.3,1.2-4.4s1.9-1.7,3.4-1.7c0.6,0,1.1,0.1,1.6,0.4c0.5,0.3,0.9,0.6,1.2,1.1v-4.2l-1.7-0.3v-1.9h1.7h3.1v14.6
		l1.5,0.3v1.9h-4.2L451.6,293z M447.2,288.9c0,1,0.2,1.8,0.5,2.4c0.3,0.6,0.9,0.9,1.7,0.9c0.5,0,0.9-0.1,1.2-0.3s0.6-0.5,0.8-0.8
		v-4.9c-0.2-0.4-0.5-0.7-0.8-0.9c-0.3-0.2-0.7-0.3-1.2-0.3c-0.8,0-1.3,0.3-1.7,1s-0.5,1.6-0.5,2.7V288.9z"/>
</g>
<g class="st1">
	<path class="st2" d="M129,314.9c0-1.7,0.5-3.2,1.5-4.3c1-1.1,2.3-1.7,4-1.7c1.7,0,3.1,0.6,4,1.7c1,1.1,1.5,2.5,1.5,4.3v0.2
		c0,1.7-0.5,3.2-1.5,4.3c-1,1.1-2.3,1.7-4,1.7c-1.7,0-3.1-0.6-4-1.7c-1-1.1-1.5-2.5-1.5-4.3V314.9z M132.2,315.1
		c0,1.1,0.2,1.9,0.6,2.6c0.4,0.6,1,1,1.8,1c0.8,0,1.4-0.3,1.8-1s0.6-1.5,0.6-2.5v-0.2c0-1-0.2-1.9-0.6-2.5c-0.4-0.7-1-1-1.8-1
		s-1.4,0.3-1.8,1c-0.4,0.7-0.6,1.5-0.6,2.5V315.1z"/>
</g>
<g class="st1">
	<path class="st2" d="M140.9,318.9l1.5-0.3v-7.2l-1.7-0.3v-1.9h4.6l0.1,1.7c0.4-0.6,0.9-1.1,1.4-1.4c0.6-0.3,1.2-0.5,1.9-0.5
		c1.2,0,2.1,0.4,2.8,1.1c0.7,0.7,1,1.9,1,3.5v5.1l1.5,0.3v1.9h-6v-1.9l1.3-0.3v-5c0-0.8-0.2-1.3-0.5-1.7c-0.3-0.3-0.8-0.5-1.4-0.5
		c-0.4,0-0.8,0.1-1.1,0.3c-0.3,0.2-0.6,0.4-0.8,0.7v6.2l1.3,0.3v1.9h-5.9V318.9z"/>
</g>
<g class="st1">
	<path class="st2" d="M160.3,321c-1.7,0-3-0.5-4-1.6c-1-1.1-1.5-2.4-1.5-4.1v-0.4c0-1.7,0.5-3.1,1.4-4.3c0.9-1.1,2.2-1.7,3.8-1.7
		c1.6,0,2.8,0.5,3.7,1.4c0.9,0.9,1.3,2.2,1.3,3.8v1.7H158l0,0.1c0.1,0.8,0.3,1.4,0.8,1.9c0.5,0.5,1.1,0.7,1.9,0.7
		c0.7,0,1.3-0.1,1.7-0.2c0.5-0.1,1-0.4,1.5-0.7l0.8,1.9c-0.5,0.4-1.1,0.7-1.9,1S161.2,321,160.3,321z M160,311.3
		c-0.6,0-1,0.2-1.4,0.7c-0.3,0.4-0.5,1-0.6,1.8l0,0.1h3.8v-0.3c0-0.7-0.2-1.2-0.5-1.6C161.1,311.5,160.6,311.3,160,311.3z"/>
</g>
<g class="st1">
	<path class="st2" d="M171.8,314.9c0-1.7,0.5-3.2,1.5-4.3c1-1.1,2.3-1.7,4-1.7c1.7,0,3.1,0.6,4,1.7c1,1.1,1.5,2.5,1.5,4.3v0.2
		c0,1.7-0.5,3.2-1.5,4.3c-1,1.1-2.3,1.7-4,1.7c-1.7,0-3.1-0.6-4-1.7c-1-1.1-1.5-2.5-1.5-4.3V314.9z M174.9,315.1
		c0,1.1,0.2,1.9,0.6,2.6c0.4,0.6,1,1,1.8,1c0.8,0,1.4-0.3,1.8-1s0.6-1.5,0.6-2.5v-0.2c0-1-0.2-1.9-0.6-2.5c-0.4-0.7-1-1-1.8-1
		s-1.4,0.3-1.8,1c-0.4,0.7-0.6,1.5-0.6,2.5V315.1z"/>
</g>
<g class="st1">
	<path class="st2" d="M183.9,318.9l1.5-0.3v-7.2h-1.7v-2.2h1.7v-1.3c0-1.3,0.4-2.3,1.1-3c0.8-0.7,1.8-1.1,3.2-1.1
		c0.3,0,0.5,0,0.8,0.1c0.3,0,0.6,0.1,0.9,0.2l-0.3,2.3c-0.2,0-0.3-0.1-0.5-0.1s-0.3,0-0.6,0c-0.5,0-0.9,0.1-1.2,0.4
		c-0.3,0.3-0.4,0.7-0.4,1.2v1.3h2.3v2.2h-2.3v7.2l1.5,0.3v1.9h-6.2V318.9z"/>
</g>
<g class="st1">
	<path class="st2" d="M202,306.3v2.8h2v2.2h-2v5.9c0,0.5,0.1,0.8,0.3,1c0.2,0.2,0.4,0.3,0.8,0.3c0.2,0,0.4,0,0.6,0s0.3,0,0.5-0.1
		l0.3,2.3c-0.4,0.1-0.7,0.2-1,0.2c-0.3,0.1-0.7,0.1-1.1,0.1c-1.1,0-1.9-0.3-2.5-0.9c-0.6-0.6-0.9-1.5-0.9-2.8v-5.9h-1.7v-2.2h1.7
		v-2.8H202z"/>
</g>
<g class="st1">
	<path class="st2" d="M205.5,318.9l1.5-0.3v-12.3l-1.7-0.3V304h4.8v6.6c0.4-0.5,0.8-1,1.3-1.3c0.5-0.3,1.1-0.4,1.8-0.4
		c1.2,0,2.2,0.4,2.9,1.2c0.7,0.8,1,2.1,1,3.7v4.7l1.5,0.3v1.9h-6v-1.9l1.4-0.3v-4.7c0-0.9-0.2-1.5-0.5-1.9c-0.3-0.4-0.8-0.6-1.4-0.6
		c-0.4,0-0.8,0.1-1.1,0.2c-0.3,0.2-0.6,0.4-0.8,0.7v6.3l1.4,0.3v1.9h-6V318.9z"/>
</g>
<g class="st1">
	<path class="st2" d="M224.9,321c-1.7,0-3-0.5-4-1.6c-1-1.1-1.5-2.4-1.5-4.1v-0.4c0-1.7,0.5-3.1,1.4-4.3c0.9-1.1,2.2-1.7,3.8-1.7
		c1.6,0,2.8,0.5,3.7,1.4c0.9,0.9,1.3,2.2,1.3,3.8v1.7h-6.9l0,0.1c0.1,0.8,0.3,1.4,0.8,1.9c0.5,0.5,1.1,0.7,1.9,0.7
		c0.7,0,1.3-0.1,1.7-0.2c0.5-0.1,1-0.4,1.5-0.7l0.8,1.9c-0.5,0.4-1.1,0.7-1.9,1S225.8,321,224.9,321z M224.6,311.3
		c-0.6,0-1,0.2-1.4,0.7c-0.3,0.4-0.5,1-0.6,1.8l0,0.1h3.8v-0.3c0-0.7-0.2-1.2-0.5-1.6C225.7,311.5,225.2,311.3,224.6,311.3z"/>
</g>
<g class="st1">
	<path class="st2" d="M236,311v-1.9h4.6l0.1,1.5c0.4-0.6,0.8-1,1.4-1.3c0.6-0.3,1.2-0.5,1.9-0.5c0.7,0,1.4,0.2,1.9,0.5
		c0.5,0.3,0.9,0.8,1.2,1.5c0.4-0.6,0.8-1.1,1.4-1.5c0.6-0.4,1.2-0.5,2-0.5c1.1,0,2,0.4,2.7,1.2c0.7,0.8,1,2,1,3.6v4.8l1.5,0.3v1.9
		h-6v-1.9l1.4-0.3v-4.8c0-0.9-0.1-1.5-0.4-1.8c-0.3-0.3-0.7-0.5-1.3-0.5c-0.4,0-0.8,0.1-1.2,0.3c-0.3,0.2-0.6,0.5-0.8,0.8
		c0,0.1,0,0.3,0,0.3c0,0.1,0,0.2,0,0.3v5.4l1.3,0.3v1.9h-5.7v-1.9l1.3-0.3v-4.8c0-0.9-0.1-1.5-0.4-1.8c-0.3-0.4-0.7-0.5-1.3-0.5
		c-0.4,0-0.8,0.1-1.1,0.2c-0.3,0.2-0.6,0.4-0.8,0.7v6.3l1.4,0.3v1.9h-6v-1.9l1.5-0.3v-7.2L236,311z"/>
</g>
<g class="st1">
	<path class="st2" d="M256.5,314.9c0-1.7,0.5-3.2,1.5-4.3c1-1.1,2.3-1.7,4-1.7c1.7,0,3.1,0.6,4,1.7c1,1.1,1.5,2.5,1.5,4.3v0.2
		c0,1.7-0.5,3.2-1.5,4.3c-1,1.1-2.3,1.7-4,1.7c-1.7,0-3.1-0.6-4-1.7c-1-1.1-1.5-2.5-1.5-4.3V314.9z M259.7,315.1
		c0,1.1,0.2,1.9,0.6,2.6c0.4,0.6,1,1,1.8,1c0.8,0,1.4-0.3,1.8-1s0.6-1.5,0.6-2.5v-0.2c0-1-0.2-1.9-0.6-2.5c-0.4-0.7-1-1-1.8-1
		s-1.4,0.3-1.8,1c-0.4,0.7-0.6,1.5-0.6,2.5V315.1z"/>
</g>
<g class="st1">
	<path class="st2" d="M278.1,313.1H276l-0.3-1.4c-0.2-0.2-0.5-0.3-0.8-0.4c-0.3-0.1-0.7-0.2-1.1-0.2c-0.6,0-1,0.1-1.3,0.4
		c-0.3,0.2-0.5,0.6-0.5,0.9c0,0.4,0.2,0.6,0.5,0.9c0.3,0.2,0.9,0.4,1.8,0.6c1.4,0.3,2.5,0.7,3.2,1.3c0.7,0.6,1,1.3,1,2.3
		c0,1-0.4,1.9-1.3,2.6c-0.9,0.7-2.1,1-3.6,1c-0.9,0-1.7-0.1-2.5-0.4c-0.7-0.3-1.4-0.6-2-1.1l0-2.6h2.2l0.4,1.5
		c0.2,0.2,0.4,0.3,0.8,0.3c0.3,0.1,0.7,0.1,1,0.1c0.6,0,1.1-0.1,1.5-0.3c0.3-0.2,0.5-0.5,0.5-0.9c0-0.3-0.2-0.6-0.5-0.9
		c-0.3-0.3-1-0.5-1.9-0.7c-1.4-0.3-2.4-0.7-3.1-1.2c-0.7-0.5-1-1.3-1-2.2c0-1,0.4-1.8,1.2-2.5c0.8-0.7,1.9-1.1,3.4-1.1
		c0.9,0,1.8,0.1,2.6,0.4c0.8,0.2,1.4,0.6,1.9,0.9L278.1,313.1z"/>
</g>
<g class="st1">
	<path class="st2" d="M284.4,306.3v2.8h2v2.2h-2v5.9c0,0.5,0.1,0.8,0.3,1c0.2,0.2,0.4,0.3,0.8,0.3c0.2,0,0.4,0,0.6,0s0.3,0,0.5-0.1
		l0.3,2.3c-0.4,0.1-0.7,0.2-1,0.2c-0.3,0.1-0.7,0.1-1.1,0.1c-1.1,0-1.9-0.3-2.5-0.9c-0.6-0.6-0.9-1.5-0.9-2.8v-5.9h-1.7v-2.2h1.7
		v-2.8H284.4z"/>
</g>
<g class="st1">
	<path class="st2" d="M298.9,321c-1.7,0-3-0.5-4-1.6c-1-1.1-1.5-2.4-1.5-4.1v-0.4c0-1.7,0.5-3.1,1.4-4.3c0.9-1.1,2.2-1.7,3.8-1.7
		c1.6,0,2.8,0.5,3.7,1.4c0.9,0.9,1.3,2.2,1.3,3.8v1.7h-6.9l0,0.1c0.1,0.8,0.3,1.4,0.8,1.9c0.5,0.5,1.1,0.7,1.9,0.7
		c0.7,0,1.3-0.1,1.7-0.2c0.5-0.1,1-0.4,1.5-0.7l0.8,1.9c-0.5,0.4-1.1,0.7-1.9,1S299.8,321,298.9,321z M298.6,311.3
		c-0.6,0-1,0.2-1.4,0.7c-0.3,0.4-0.5,1-0.6,1.8l0,0.1h3.8v-0.3c0-0.7-0.2-1.2-0.5-1.6C299.7,311.5,299.3,311.3,298.6,311.3z"/>
</g>
<g class="st1">
	<path class="st2" d="M304.9,318.9l1.5-0.3v-7.2h-1.7v-2.2h1.7v-1.3c0-1.3,0.4-2.3,1.1-3c0.8-0.7,1.8-1.1,3.2-1.1
		c0.3,0,0.5,0,0.8,0.1c0.3,0,0.6,0.1,0.9,0.2l-0.3,2.3c-0.2,0-0.3-0.1-0.5-0.1s-0.3,0-0.6,0c-0.5,0-0.9,0.1-1.2,0.4
		c-0.3,0.3-0.4,0.7-0.4,1.2v1.3h2.3v2.2h-2.3v7.2l1.5,0.3v1.9h-6.2V318.9z"/>
</g>
<g class="st1">
	<path class="st2" d="M313.2,318.9l1.5-0.3v-7.2H313v-2.2h1.7v-1.3c0-1.3,0.4-2.3,1.1-3c0.8-0.7,1.8-1.1,3.2-1.1
		c0.3,0,0.5,0,0.8,0.1c0.3,0,0.6,0.1,0.9,0.2l-0.3,2.3c-0.2,0-0.3-0.1-0.5-0.1s-0.3,0-0.6,0c-0.5,0-0.9,0.1-1.2,0.4
		c-0.3,0.3-0.4,0.7-0.4,1.2v1.3h2.3v2.2h-2.3v7.2l1.5,0.3v1.9h-6.2V318.9z"/>
</g>
<g class="st1">
	<path class="st2" d="M326.5,321c-1.7,0-3-0.5-4-1.6c-1-1.1-1.5-2.4-1.5-4.1v-0.4c0-1.7,0.5-3.1,1.4-4.3c0.9-1.1,2.2-1.7,3.8-1.7
		c1.6,0,2.8,0.5,3.7,1.4c0.9,0.9,1.3,2.2,1.3,3.8v1.7h-6.9l0,0.1c0.1,0.8,0.3,1.4,0.8,1.9c0.5,0.5,1.1,0.7,1.9,0.7
		c0.7,0,1.3-0.1,1.7-0.2c0.5-0.1,1-0.4,1.5-0.7l0.8,1.9c-0.5,0.4-1.1,0.7-1.9,1S327.4,321,326.5,321z M326.2,311.3
		c-0.6,0-1,0.2-1.4,0.7c-0.3,0.4-0.5,1-0.6,1.8l0,0.1h3.8v-0.3c0-0.7-0.2-1.2-0.5-1.6C327.3,311.5,326.9,311.3,326.2,311.3z"/>
</g>
<g class="st1">
	<path class="st2" d="M338,318.6c0.6,0,1-0.2,1.3-0.5c0.3-0.3,0.5-0.8,0.5-1.3h2.8l0,0.1c0,1.2-0.4,2.2-1.3,2.9s-2,1.2-3.4,1.2
		c-1.7,0-3.1-0.5-4-1.6s-1.4-2.5-1.4-4.2v-0.3c0-1.7,0.5-3.1,1.4-4.2c1-1.1,2.3-1.7,4.1-1.7c0.9,0,1.8,0.1,2.5,0.4s1.4,0.7,1.9,1.2
		l0,3.1h-2.5l-0.5-1.8c-0.2-0.1-0.4-0.2-0.6-0.3c-0.2-0.1-0.5-0.1-0.8-0.1c-0.9,0-1.5,0.3-1.9,1s-0.5,1.5-0.5,2.5v0.3
		c0,1,0.2,1.9,0.5,2.5C336.6,318.3,337.2,318.6,338,318.6z"/>
</g>
<g class="st1">
	<path class="st2" d="M348.7,306.3v2.8h2v2.2h-2v5.9c0,0.5,0.1,0.8,0.3,1c0.2,0.2,0.4,0.3,0.8,0.3c0.2,0,0.4,0,0.6,0s0.3,0,0.5-0.1
		l0.3,2.3c-0.4,0.1-0.7,0.2-1,0.2c-0.3,0.1-0.7,0.1-1.1,0.1c-1.1,0-1.9-0.3-2.5-0.9c-0.6-0.6-0.9-1.5-0.9-2.8v-5.9h-1.7v-2.2h1.7
		v-2.8H348.7z"/>
</g>
<g class="st1">
	<path class="st2" d="M352.3,318.9l1.5-0.3v-7.2l-1.7-0.3v-1.9h4.8v9.4l1.5,0.3v1.9h-6.2V318.9z M356.9,306.4h-3.1V304h3.1V306.4z"
		/>
</g>
<g class="st1">
	<path class="st2" d="M363.9,311l-1.1,0.2l1.5,5.2l0.2,1.1h0.1l0.2-1.1l1.5-5.2l-1.1-0.2v-1.9h5.3v1.9l-1,0.2l-3.4,9.6h-3l-3.4-9.6
		l-1-0.2v-1.9h5.3V311z"/>
</g>
<g class="st1">
	<path class="st2" d="M376.7,321c-1.7,0-3-0.5-4-1.6c-1-1.1-1.5-2.4-1.5-4.1v-0.4c0-1.7,0.5-3.1,1.4-4.3c0.9-1.1,2.2-1.7,3.8-1.7
		c1.6,0,2.8,0.5,3.7,1.4c0.9,0.9,1.3,2.2,1.3,3.8v1.7h-6.9l0,0.1c0.1,0.8,0.3,1.4,0.8,1.9c0.5,0.5,1.1,0.7,1.9,0.7
		c0.7,0,1.3-0.1,1.7-0.2c0.5-0.1,1-0.4,1.5-0.7l0.8,1.9c-0.5,0.4-1.1,0.7-1.9,1C378.5,320.9,377.6,321,376.7,321z M376.4,311.3
		c-0.6,0-1,0.2-1.4,0.7c-0.3,0.4-0.5,1-0.6,1.8l0,0.1h3.8v-0.3c0-0.7-0.2-1.2-0.5-1.6C377.5,311.5,377.1,311.3,376.4,311.3z"/>
</g>
<g class="st1">
	<path class="st2" d="M399.5,315.3c0,1.7-0.4,3.1-1.2,4.2c-0.8,1-1.9,1.6-3.4,1.6c-0.7,0-1.3-0.1-1.8-0.4c-0.5-0.3-0.9-0.7-1.3-1.2
		l-0.2,1.4H389v-14.5l-1.7-0.3V304h4.8v6.4c0.3-0.5,0.7-0.8,1.2-1.1c0.5-0.3,1-0.4,1.6-0.4c1.5,0,2.6,0.6,3.4,1.7
		c0.8,1.1,1.2,2.6,1.2,4.5V315.3z M396.4,315.1c0-1.1-0.2-2-0.5-2.7c-0.3-0.7-0.9-1-1.7-1c-0.5,0-0.9,0.1-1.2,0.3
		c-0.3,0.2-0.6,0.5-0.8,0.9v4.9c0.2,0.4,0.5,0.6,0.8,0.8c0.3,0.2,0.8,0.3,1.3,0.3c0.8,0,1.4-0.3,1.7-0.9c0.3-0.6,0.5-1.4,0.5-2.4
		V315.1z"/>
</g>
<g class="st1">
	<path class="st2" d="M400.6,318.9l1.5-0.3v-7.2l-1.7-0.3v-1.9h4.8v9.4l1.5,0.3v1.9h-6.2V318.9z M405.2,306.4h-3.1V304h3.1V306.4z"
		/>
</g>
<g class="st1">
	<path class="st2" d="M408,318.9l1.5-0.3v-7.2l-1.7-0.3v-1.9h4.6l0.1,1.7c0.3-0.6,0.6-1.1,1.1-1.4c0.4-0.3,0.9-0.5,1.5-0.5
		c0.2,0,0.3,0,0.5,0c0.2,0,0.3,0.1,0.5,0.1l-0.3,2.9l-1.3,0c-0.5,0-0.8,0.1-1.1,0.3c-0.3,0.2-0.5,0.4-0.7,0.8v5.7l1.5,0.3v1.9H408
		V318.9z"/>
</g>
<g class="st1">
	<path class="st2" d="M421.9,306.3v2.8h2v2.2h-2v5.9c0,0.5,0.1,0.8,0.3,1s0.4,0.3,0.8,0.3c0.2,0,0.4,0,0.6,0s0.3,0,0.5-0.1l0.3,2.3
		c-0.4,0.1-0.7,0.2-1,0.2c-0.3,0.1-0.7,0.1-1.1,0.1c-1.1,0-1.9-0.3-2.5-0.9c-0.6-0.6-0.9-1.5-0.9-2.8v-5.9h-1.7v-2.2h1.7v-2.8H421.9
		z"/>
</g>
<g class="st1">
	<path class="st2" d="M425.4,318.9l1.5-0.3v-12.3l-1.7-0.3V304h4.8v6.6c0.4-0.5,0.8-1,1.3-1.3c0.5-0.3,1.1-0.4,1.8-0.4
		c1.2,0,2.2,0.4,2.9,1.2c0.7,0.8,1,2.1,1,3.7v4.7l1.5,0.3v1.9h-6v-1.9l1.4-0.3v-4.7c0-0.9-0.2-1.5-0.5-1.9c-0.3-0.4-0.8-0.6-1.4-0.6
		c-0.4,0-0.8,0.1-1.1,0.2c-0.3,0.2-0.6,0.4-0.8,0.7v6.3l1.4,0.3v1.9h-6V318.9z"/>
</g>
<g class="st1">
	<path class="st2" d="M134.5,345c0.6,0,1-0.2,1.3-0.5c0.3-0.3,0.5-0.8,0.5-1.3h2.8l0,0.1c0,1.2-0.4,2.2-1.3,2.9
		c-0.9,0.8-2,1.2-3.4,1.2c-1.7,0-3.1-0.5-4-1.6c-0.9-1.1-1.4-2.5-1.4-4.2v-0.3c0-1.7,0.5-3.1,1.4-4.2c1-1.1,2.3-1.7,4.1-1.7
		c0.9,0,1.8,0.1,2.5,0.4c0.7,0.3,1.4,0.7,1.9,1.2l0,3.1h-2.5l-0.5-1.8c-0.2-0.1-0.4-0.2-0.6-0.3c-0.2-0.1-0.5-0.1-0.8-0.1
		c-0.9,0-1.5,0.3-1.9,1s-0.5,1.5-0.5,2.5v0.3c0,1,0.2,1.9,0.5,2.5C133.1,344.7,133.6,345,134.5,345z"/>
</g>
<g class="st1">
	<path class="st2" d="M140.5,341.3c0-1.7,0.5-3.2,1.5-4.3c1-1.1,2.3-1.7,4-1.7c1.7,0,3.1,0.6,4,1.7c1,1.1,1.5,2.5,1.5,4.3v0.2
		c0,1.7-0.5,3.2-1.5,4.3c-1,1.1-2.3,1.6-4,1.6c-1.7,0-3.1-0.5-4-1.6c-1-1.1-1.5-2.5-1.5-4.3V341.3z M143.6,341.5
		c0,1.1,0.2,1.9,0.6,2.6c0.4,0.6,1,1,1.8,1c0.8,0,1.4-0.3,1.8-1s0.6-1.5,0.6-2.5v-0.2c0-1-0.2-1.9-0.6-2.5c-0.4-0.7-1-1-1.8-1
		s-1.4,0.3-1.8,1c-0.4,0.7-0.6,1.5-0.6,2.5V341.5z"/>
</g>
<g class="st1">
	<path class="st2" d="M152.4,345.3l1.5-0.3v-7.2l-1.7-0.3v-1.9h4.6l0.1,1.7c0.4-0.6,0.9-1.1,1.4-1.4c0.6-0.3,1.2-0.5,1.9-0.5
		c1.2,0,2.1,0.4,2.8,1.1c0.7,0.7,1,1.9,1,3.5v5.1l1.5,0.3v1.9h-6v-1.9l1.3-0.3v-5c0-0.8-0.2-1.3-0.5-1.7c-0.3-0.3-0.8-0.5-1.4-0.5
		c-0.4,0-0.8,0.1-1.1,0.3c-0.3,0.2-0.6,0.4-0.8,0.7v6.2l1.3,0.3v1.9h-5.9V345.3z"/>
</g>
<g class="st1">
	<path class="st2" d="M170.5,332.7v2.8h2v2.2h-2v5.9c0,0.5,0.1,0.8,0.3,1c0.2,0.2,0.4,0.3,0.8,0.3c0.2,0,0.4,0,0.6,0
		c0.2,0,0.3,0,0.5-0.1l0.3,2.3c-0.4,0.1-0.7,0.2-1,0.2c-0.3,0.1-0.7,0.1-1.1,0.1c-1.1,0-1.9-0.3-2.5-0.9c-0.6-0.6-0.9-1.5-0.9-2.8
		v-5.9h-1.7v-2.2h1.7v-2.8H170.5z"/>
</g>
<g class="st1">
	<path class="st2" d="M174.2,345.3l1.5-0.3v-7.2l-1.7-0.3v-1.9h4.6l0.1,1.7c0.3-0.6,0.6-1.1,1.1-1.4s0.9-0.5,1.5-0.5
		c0.2,0,0.3,0,0.5,0c0.2,0,0.3,0.1,0.5,0.1l-0.3,2.9l-1.3,0c-0.5,0-0.8,0.1-1.1,0.3s-0.5,0.4-0.7,0.8v5.7l1.5,0.3v1.9h-6.1V345.3z"
		/>
</g>
<g class="st1">
	<path class="st2" d="M183,341.3c0-1.7,0.5-3.2,1.5-4.3c1-1.1,2.3-1.7,4-1.7c1.7,0,3.1,0.6,4,1.7c1,1.1,1.5,2.5,1.5,4.3v0.2
		c0,1.7-0.5,3.2-1.5,4.3c-1,1.1-2.3,1.6-4,1.6c-1.7,0-3.1-0.5-4-1.6c-1-1.1-1.5-2.5-1.5-4.3V341.3z M186.1,341.5
		c0,1.1,0.2,1.9,0.6,2.6c0.4,0.6,1,1,1.8,1c0.8,0,1.4-0.3,1.8-1s0.6-1.5,0.6-2.5v-0.2c0-1-0.2-1.9-0.6-2.5c-0.4-0.7-1-1-1.8-1
		s-1.4,0.3-1.8,1c-0.4,0.7-0.6,1.5-0.6,2.5V341.5z"/>
</g>
<g class="st1">
	<path class="st2" d="M194.6,332.3v-1.9h4.8V345l1.5,0.3v1.9h-6.2v-1.9l1.5-0.3v-12.3L194.6,332.3z"/>
</g>
<g class="st1">
	<path class="st2" d="M206.9,337.4v-1.9h4.6l0.1,1.5c0.4-0.6,0.8-1,1.4-1.3c0.6-0.3,1.2-0.5,1.9-0.5c0.7,0,1.4,0.2,1.9,0.5
		c0.5,0.3,0.9,0.8,1.2,1.5c0.4-0.6,0.8-1.1,1.4-1.5c0.6-0.4,1.2-0.5,2-0.5c1.1,0,2,0.4,2.7,1.2c0.7,0.8,1,2,1,3.6v4.8l1.5,0.3v1.9
		h-6v-1.9l1.4-0.3v-4.8c0-0.9-0.1-1.5-0.4-1.8c-0.3-0.3-0.7-0.5-1.3-0.5c-0.4,0-0.8,0.1-1.2,0.3c-0.3,0.2-0.6,0.5-0.8,0.8
		c0,0.1,0,0.3,0,0.3c0,0.1,0,0.2,0,0.3v5.4l1.3,0.3v1.9h-5.7v-1.9l1.3-0.3v-4.8c0-0.9-0.1-1.5-0.4-1.8c-0.3-0.4-0.7-0.5-1.3-0.5
		c-0.4,0-0.8,0.1-1.1,0.2c-0.3,0.2-0.6,0.4-0.8,0.7v6.3l1.4,0.3v1.9h-6v-1.9l1.5-0.3v-7.2L206.9,337.4z"/>
</g>
<g class="st1">
	<path class="st2" d="M233,347.4c-1.7,0-3-0.5-4-1.6c-1-1.1-1.5-2.4-1.5-4.1v-0.4c0-1.7,0.5-3.1,1.4-4.3c0.9-1.1,2.2-1.7,3.8-1.7
		c1.6,0,2.8,0.5,3.7,1.4c0.9,0.9,1.3,2.2,1.3,3.8v1.7h-6.9l0,0.1c0.1,0.8,0.3,1.4,0.8,1.9c0.5,0.5,1.1,0.7,1.9,0.7
		c0.7,0,1.3-0.1,1.7-0.2c0.5-0.1,1-0.4,1.5-0.7l0.8,1.9c-0.5,0.4-1.1,0.7-1.9,1S233.9,347.4,233,347.4z M232.7,337.7
		c-0.6,0-1,0.2-1.4,0.7c-0.3,0.4-0.5,1-0.6,1.8l0,0.1h3.8v-0.3c0-0.7-0.2-1.2-0.5-1.6C233.8,337.9,233.3,337.7,232.7,337.7z"/>
</g>
<g class="st1">
	<path class="st2" d="M243.5,332.7v2.8h2v2.2h-2v5.9c0,0.5,0.1,0.8,0.3,1s0.4,0.3,0.8,0.3c0.2,0,0.4,0,0.6,0c0.2,0,0.3,0,0.5-0.1
		l0.3,2.3c-0.4,0.1-0.7,0.2-1,0.2c-0.3,0.1-0.7,0.1-1.1,0.1c-1.1,0-1.9-0.3-2.5-0.9c-0.6-0.6-0.9-1.5-0.9-2.8v-5.9h-1.7v-2.2h1.7
		v-2.8H243.5z"/>
</g>
<g class="st1">
	<path class="st2" d="M247.1,345.3l1.5-0.3v-12.3l-1.7-0.3v-1.9h4.8v6.6c0.4-0.5,0.8-1,1.3-1.3c0.5-0.3,1.1-0.4,1.8-0.4
		c1.2,0,2.2,0.4,2.9,1.2c0.7,0.8,1,2,1,3.7v4.7l1.5,0.3v1.9h-6v-1.9l1.4-0.3v-4.7c0-0.9-0.2-1.5-0.5-1.9c-0.3-0.4-0.8-0.6-1.4-0.6
		c-0.4,0-0.8,0.1-1.1,0.2c-0.3,0.2-0.6,0.4-0.8,0.7v6.3l1.4,0.3v1.9h-6V345.3z"/>
</g>
<g class="st1">
	<path class="st2" d="M260.9,341.3c0-1.7,0.5-3.2,1.5-4.3c1-1.1,2.3-1.7,4-1.7c1.7,0,3.1,0.6,4,1.7s1.5,2.5,1.5,4.3v0.2
		c0,1.7-0.5,3.2-1.5,4.3c-1,1.1-2.3,1.6-4,1.6c-1.7,0-3.1-0.5-4-1.6c-1-1.1-1.5-2.5-1.5-4.3V341.3z M264,341.5
		c0,1.1,0.2,1.9,0.6,2.6c0.4,0.6,1,1,1.8,1c0.8,0,1.4-0.3,1.8-1s0.6-1.5,0.6-2.5v-0.2c0-1-0.2-1.9-0.6-2.5c-0.4-0.7-1-1-1.8-1
		s-1.4,0.3-1.8,1c-0.4,0.7-0.6,1.5-0.6,2.5V341.5z"/>
</g>
<g class="st1">
	<path class="st2" d="M280.7,345.8c-0.4,0.5-0.8,0.9-1.3,1.2c-0.5,0.3-1.1,0.4-1.7,0.4c-1.4,0-2.5-0.5-3.3-1.6
		c-0.8-1-1.2-2.4-1.2-4.1v-0.2c0-1.8,0.4-3.3,1.2-4.4s1.9-1.7,3.4-1.7c0.6,0,1.1,0.1,1.6,0.4c0.5,0.3,0.9,0.6,1.2,1.1v-4.2l-1.7-0.3
		v-1.9h1.7h3.1V345l1.5,0.3v1.9H281L280.7,345.8z M276.4,341.7c0,1,0.2,1.8,0.5,2.4c0.3,0.6,0.9,0.9,1.7,0.9c0.5,0,0.9-0.1,1.2-0.3
		c0.3-0.2,0.6-0.5,0.8-0.8v-4.9c-0.2-0.4-0.5-0.7-0.8-0.9c-0.3-0.2-0.7-0.3-1.2-0.3c-0.8,0-1.3,0.3-1.7,1c-0.4,0.7-0.5,1.6-0.5,2.7
		V341.7z"/>
</g>
<g class="st1">
	<path class="st2" d="M295.5,339.5h-2.1l-0.3-1.5c-0.2-0.2-0.5-0.3-0.8-0.4c-0.3-0.1-0.7-0.2-1.1-0.2c-0.6,0-1,0.1-1.3,0.4
		c-0.3,0.2-0.5,0.6-0.5,0.9c0,0.4,0.2,0.6,0.5,0.9c0.3,0.2,0.9,0.4,1.8,0.6c1.4,0.3,2.5,0.7,3.2,1.3c0.7,0.6,1,1.3,1,2.3
		c0,1-0.4,1.9-1.3,2.6c-0.9,0.7-2.1,1-3.6,1c-0.9,0-1.7-0.1-2.5-0.4c-0.7-0.3-1.4-0.6-2-1.1l0-2.6h2.2l0.4,1.5
		c0.2,0.2,0.4,0.3,0.8,0.3c0.3,0.1,0.7,0.1,1,0.1c0.6,0,1.1-0.1,1.5-0.3s0.5-0.5,0.5-0.9c0-0.3-0.2-0.6-0.5-0.9
		c-0.3-0.3-1-0.5-1.9-0.7c-1.4-0.3-2.4-0.7-3.1-1.2c-0.7-0.5-1-1.3-1-2.2c0-1,0.4-1.8,1.2-2.5c0.8-0.7,1.9-1.1,3.4-1.1
		c0.9,0,1.8,0.1,2.6,0.4s1.4,0.6,1.9,0.9L295.5,339.5z"/>
</g>
<g class="st1">
	<path class="st2" d="M301.1,347.2h-3.1v-2.8h3.1V347.2z"/>
</g>
<g class="st1">
	<path class="st2" d="M148.8,398.1l1.1-0.2l4.8-13.6h3.2l4.7,13.6l1.1,0.2v1.9h-5.3v-1.9l1.1-0.2l-0.7-2.1h-5.1l-0.7,2.1l1.1,0.2
		v1.9h-5.3V398.1z M154.5,393.4h3.6l-1.8-5.5h-0.1L154.5,393.4z"/>
</g>
<g class="st1">
	<path class="st2" d="M164.8,398.1l1.5-0.3v-7.2l-1.7-0.3v-1.9h4.6l0.1,1.7c0.4-0.6,0.9-1.1,1.4-1.4c0.6-0.3,1.2-0.5,1.9-0.5
		c1.2,0,2.1,0.4,2.8,1.1c0.7,0.7,1,1.9,1,3.5v5.1l1.5,0.3v1.9h-6v-1.9l1.3-0.3v-5c0-0.8-0.2-1.3-0.5-1.7c-0.3-0.3-0.8-0.5-1.4-0.5
		c-0.4,0-0.8,0.1-1.1,0.3c-0.3,0.2-0.6,0.4-0.8,0.7v6.2l1.3,0.3v1.9h-5.9V398.1z"/>
</g>
<g class="st1">
	<path class="st2" d="M184.3,386.2v-1.9h6.5v1.9l-1.7,0.3v11.2l1.7,0.3v1.9h-6.5v-1.9l1.7-0.3v-11.2L184.3,386.2z"/>
</g>
<g class="st1">
	<path class="st2" d="M198.3,384.3v1.9l-1.7,0.3v8.2c0,1,0.3,1.8,0.8,2.3c0.6,0.5,1.3,0.8,2.3,0.8c1,0,1.8-0.3,2.3-0.8
		s0.8-1.3,0.8-2.3v-8.2l-1.7-0.3v-1.9h6.5v1.9l-1.7,0.3v8.2c0,1.8-0.6,3.1-1.7,4.1s-2.7,1.4-4.5,1.4c-1.9,0-3.4-0.5-4.5-1.4
		s-1.7-2.3-1.7-4.1v-8.2l-1.7-0.3v-1.9h1.7h3.1H198.3z"/>
</g>
<g class="st1">
	<path class="st2" d="M215.9,384.3c1.9,0,3.5,0.6,4.7,1.8c1.2,1.2,1.9,2.8,1.9,4.7v2.6c0,1.9-0.6,3.5-1.9,4.7
		c-1.2,1.2-2.8,1.8-4.7,1.8h-7v-1.9l1.7-0.3v-11.2l-1.7-0.3v-1.9h1.7H215.9z M213.6,386.7v10.8h2.1c1.1,0,2-0.4,2.6-1.1s1-1.8,1-3
		v-2.6c0-1.2-0.3-2.2-1-3s-1.5-1.1-2.6-1.1H213.6z"/>
</g>
<g class="st1">
	<path class="st2" d="M229.4,398.1l1.5-0.3v-7.2l-1.7-0.3v-1.9h4.8v9.4l1.5,0.3v1.9h-6.2V398.1z M234,385.6h-3.1v-2.4h3.1V385.6z"/>
</g>
<g class="st1">
	<path class="st2" d="M245.9,392.3h-2.1l-0.3-1.5c-0.2-0.2-0.5-0.3-0.8-0.4c-0.3-0.1-0.7-0.2-1.1-0.2c-0.6,0-1,0.1-1.3,0.4
		c-0.3,0.2-0.5,0.6-0.5,0.9c0,0.4,0.2,0.6,0.5,0.9c0.3,0.2,0.9,0.4,1.8,0.6c1.4,0.3,2.5,0.7,3.2,1.3c0.7,0.6,1,1.3,1,2.3
		c0,1-0.4,1.9-1.3,2.6c-0.9,0.7-2.1,1-3.6,1c-0.9,0-1.7-0.1-2.5-0.4c-0.7-0.3-1.4-0.6-2-1.1l0-2.6h2.2l0.4,1.5
		c0.2,0.2,0.4,0.3,0.8,0.3c0.3,0.1,0.7,0.1,1,0.1c0.6,0,1.1-0.1,1.5-0.3s0.5-0.5,0.5-0.9c0-0.3-0.2-0.6-0.5-0.9
		c-0.3-0.3-1-0.5-1.9-0.7c-1.4-0.3-2.4-0.7-3.1-1.2c-0.7-0.5-1-1.3-1-2.2c0-1,0.4-1.8,1.2-2.5c0.8-0.7,1.9-1.1,3.4-1.1
		c0.9,0,1.8,0.1,2.6,0.4s1.4,0.6,1.9,0.9L245.9,392.3z"/>
</g>
<g class="st1">
	<path class="st2" d="M257.8,397.8c0.8,0,1.5-0.3,2-1c0.5-0.6,0.8-1.6,0.8-2.9v-0.2c-0.4,0.5-0.8,0.8-1.3,1c-0.5,0.2-1,0.3-1.6,0.3
		c-1.5,0-2.6-0.5-3.4-1.4c-0.8-1-1.2-2.3-1.2-4c0-1.6,0.5-2.9,1.5-4c1-1.1,2.2-1.6,3.8-1.6c1.6,0,2.9,0.5,3.9,1.6
		c1,1.1,1.5,2.6,1.5,4.6v3.4c0,2-0.6,3.6-1.7,4.7s-2.5,1.7-4.3,1.7c-0.5,0-1.1-0.1-1.7-0.2c-0.6-0.1-1.1-0.3-1.6-0.5l0.4-2.3
		c0.5,0.2,0.9,0.3,1.4,0.4C256.7,397.7,257.2,397.8,257.8,397.8z M258.3,392.8c0.5,0,1-0.1,1.4-0.3c0.4-0.2,0.7-0.5,0.9-0.8V390
		c0-1.1-0.2-2-0.6-2.6c-0.4-0.6-0.9-0.9-1.6-0.9c-0.6,0-1.1,0.3-1.5,0.9c-0.4,0.6-0.6,1.4-0.6,2.2c0,0.9,0.2,1.7,0.5,2.3
		S257.6,392.8,258.3,392.8z"/>
</g>
<g class="st1">
	<path class="st2" d="M270,397.8c0.8,0,1.5-0.3,2-1c0.5-0.6,0.8-1.6,0.8-2.9v-0.2c-0.4,0.5-0.8,0.8-1.3,1c-0.5,0.2-1,0.3-1.6,0.3
		c-1.5,0-2.6-0.5-3.4-1.4c-0.8-1-1.2-2.3-1.2-4c0-1.6,0.5-2.9,1.5-4c1-1.1,2.2-1.6,3.8-1.6c1.6,0,2.9,0.5,3.9,1.6
		c1,1.1,1.5,2.6,1.5,4.6v3.4c0,2-0.6,3.6-1.7,4.7s-2.5,1.7-4.3,1.7c-0.5,0-1.1-0.1-1.7-0.2c-0.6-0.1-1.1-0.3-1.6-0.5l0.4-2.3
		c0.5,0.2,0.9,0.3,1.4,0.4C268.9,397.7,269.4,397.8,270,397.8z M270.5,392.8c0.5,0,1-0.1,1.4-0.3c0.4-0.2,0.7-0.5,0.9-0.8V390
		c0-1.1-0.2-2-0.6-2.6c-0.4-0.6-0.9-0.9-1.6-0.9c-0.6,0-1.1,0.3-1.5,0.9c-0.4,0.6-0.6,1.4-0.6,2.2c0,0.9,0.2,1.7,0.5,2.3
		S269.8,392.8,270.5,392.8z"/>
</g>
<g class="st1">
	<path class="st2" d="M277.2,387.3c0-0.9,0.3-1.7,0.9-2.3c0.6-0.6,1.4-0.9,2.5-0.9c1.1,0,1.9,0.3,2.5,0.9c0.6,0.6,0.9,1.4,0.9,2.3
		v0.8c0,0.9-0.3,1.7-0.9,2.3s-1.4,0.9-2.5,0.9c-1.1,0-1.9-0.3-2.5-0.9s-0.9-1.4-0.9-2.3V387.3z M279.3,388.2c0,0.4,0.1,0.8,0.3,1
		c0.2,0.3,0.6,0.4,1,0.4c0.4,0,0.7-0.1,1-0.4c0.2-0.3,0.3-0.6,0.3-1v-0.8c0-0.4-0.1-0.8-0.3-1.1c-0.2-0.3-0.6-0.4-1-0.4
		s-0.7,0.1-1,0.4c-0.2,0.3-0.3,0.6-0.3,1.1V388.2z M281.5,398.8L280,398l7.6-12.2l1.5,0.8L281.5,398.8z M284.7,396.1
		c0-0.9,0.3-1.7,0.9-2.3s1.4-0.9,2.5-0.9c1.1,0,1.9,0.3,2.5,0.9c0.6,0.6,0.9,1.4,0.9,2.3v0.8c0,0.9-0.3,1.7-0.9,2.3
		s-1.4,0.9-2.5,0.9c-1.1,0-1.9-0.3-2.5-0.9c-0.6-0.6-0.9-1.4-0.9-2.3V396.1z M286.8,397c0,0.4,0.1,0.8,0.4,1c0.2,0.3,0.6,0.4,1,0.4
		c0.5,0,0.8-0.1,1-0.4c0.2-0.3,0.3-0.6,0.3-1.1v-0.8c0-0.4-0.1-0.8-0.3-1c-0.2-0.3-0.6-0.4-1-0.4c-0.4,0-0.8,0.1-1,0.4
		c-0.2,0.3-0.3,0.6-0.3,1V397z"/>
</g>
<g class="st1">
	<path class="st2" d="M303.7,400.2c-1.7,0-3-0.5-4-1.6s-1.5-2.4-1.5-4.1v-0.4c0-1.7,0.5-3.1,1.4-4.3c0.9-1.1,2.2-1.7,3.8-1.7
		c1.6,0,2.8,0.5,3.7,1.4s1.3,2.2,1.3,3.8v1.7h-6.9l0,0.1c0.1,0.8,0.3,1.4,0.8,1.9c0.5,0.5,1.1,0.7,1.9,0.7c0.7,0,1.3-0.1,1.7-0.2
		c0.5-0.1,1-0.4,1.5-0.7l0.8,1.9c-0.5,0.4-1.1,0.7-1.9,1S304.6,400.2,303.7,400.2z M303.4,390.5c-0.6,0-1,0.2-1.4,0.7
		s-0.5,1-0.6,1.8l0,0.1h3.8v-0.3c0-0.7-0.2-1.2-0.5-1.6C304.5,390.7,304,390.5,303.4,390.5z"/>
</g>
<g class="st1">
	<path class="st2" d="M309.7,398.1l1.5-0.3v-7.2h-1.7v-2.2h1.7v-1.3c0-1.3,0.4-2.3,1.1-3c0.8-0.7,1.8-1.1,3.2-1.1
		c0.3,0,0.5,0,0.8,0.1c0.3,0,0.6,0.1,0.9,0.2l-0.3,2.3c-0.2,0-0.3-0.1-0.5-0.1s-0.3,0-0.6,0c-0.5,0-0.9,0.1-1.2,0.4
		s-0.4,0.7-0.4,1.2v1.3h2.3v2.2h-2.3v7.2l1.5,0.3v1.9h-6.2V398.1z"/>
</g>
<g class="st1">
	<path class="st2" d="M318,398.1l1.5-0.3v-7.2h-1.7v-2.2h1.7v-1.3c0-1.3,0.4-2.3,1.1-3c0.8-0.7,1.8-1.1,3.2-1.1c0.3,0,0.5,0,0.8,0.1
		c0.3,0,0.6,0.1,0.9,0.2l-0.3,2.3c-0.2,0-0.3-0.1-0.5-0.1s-0.3,0-0.6,0c-0.5,0-0.9,0.1-1.2,0.4s-0.4,0.7-0.4,1.2v1.3h2.3v2.2h-2.3
		v7.2l1.5,0.3v1.9H318V398.1z"/>
</g>
<g class="st1">
	<path class="st2" d="M331.3,400.2c-1.7,0-3-0.5-4-1.6c-1-1.1-1.5-2.4-1.5-4.1v-0.4c0-1.7,0.5-3.1,1.4-4.3s2.2-1.7,3.8-1.7
		c1.6,0,2.8,0.5,3.7,1.4c0.9,0.9,1.3,2.2,1.3,3.8v1.7H329l0,0.1c0.1,0.8,0.3,1.4,0.8,1.9s1.1,0.7,1.9,0.7c0.7,0,1.3-0.1,1.7-0.2
		c0.5-0.1,1-0.4,1.5-0.7l0.8,1.9c-0.5,0.4-1.1,0.7-1.9,1S332.2,400.2,331.3,400.2z M331,390.5c-0.6,0-1,0.2-1.4,0.7
		c-0.3,0.4-0.5,1-0.6,1.8l0,0.1h3.8v-0.3c0-0.7-0.2-1.2-0.5-1.6C332.1,390.7,331.6,390.5,331,390.5z"/>
</g>
<g class="st1">
	<path class="st2" d="M342.8,397.8c0.6,0,1-0.2,1.3-0.5c0.3-0.3,0.5-0.8,0.5-1.3h2.8l0,0.1c0,1.2-0.4,2.2-1.3,2.9
		c-0.9,0.8-2,1.2-3.4,1.2c-1.7,0-3.1-0.5-4-1.6c-0.9-1.1-1.4-2.5-1.4-4.2V394c0-1.7,0.5-3.1,1.4-4.2s2.3-1.7,4.1-1.7
		c0.9,0,1.8,0.1,2.5,0.4c0.7,0.3,1.4,0.7,1.9,1.2l0,3.1h-2.5l-0.5-1.8c-0.2-0.1-0.4-0.2-0.6-0.3c-0.2-0.1-0.5-0.1-0.8-0.1
		c-0.9,0-1.5,0.3-1.9,1s-0.5,1.5-0.5,2.5v0.3c0,1,0.2,1.9,0.5,2.5C341.4,397.5,341.9,397.8,342.8,397.8z"/>
</g>
<g class="st1">
	<path class="st2" d="M353.5,385.5v2.8h2v2.2h-2v5.9c0,0.5,0.1,0.8,0.3,1c0.2,0.2,0.4,0.3,0.8,0.3c0.2,0,0.4,0,0.6,0
		c0.2,0,0.3,0,0.5-0.1l0.3,2.3c-0.4,0.1-0.7,0.2-1,0.2c-0.3,0.1-0.7,0.1-1.1,0.1c-1.1,0-1.9-0.3-2.5-0.9c-0.6-0.6-0.9-1.5-0.9-2.8
		v-5.9h-1.7v-2.2h1.7v-2.8H353.5z"/>
</g>
<g class="st1">
	<path class="st2" d="M357,398.1l1.5-0.3v-7.2l-1.7-0.3v-1.9h4.8v9.4l1.5,0.3v1.9H357V398.1z M361.7,385.6h-3.1v-2.4h3.1V385.6z"/>
</g>
<g class="st1">
	<path class="st2" d="M368.7,390.2l-1.1,0.2l1.5,5.2l0.2,1.1h0.1l0.2-1.1l1.5-5.2l-1.1-0.2v-1.9h5.3v1.9l-1,0.2l-3.4,9.6h-3
		l-3.4-9.6l-1-0.2v-1.9h5.3V390.2z"/>
</g>
<g class="st1">
	<path class="st2" d="M381.5,400.2c-1.7,0-3-0.5-4-1.6c-1-1.1-1.5-2.4-1.5-4.1v-0.4c0-1.7,0.5-3.1,1.4-4.3s2.2-1.7,3.8-1.7
		c1.6,0,2.8,0.5,3.7,1.4c0.9,0.9,1.3,2.2,1.3,3.8v1.7h-6.9l0,0.1c0.1,0.8,0.3,1.4,0.8,1.9s1.1,0.7,1.9,0.7c0.7,0,1.3-0.1,1.7-0.2
		c0.5-0.1,1-0.4,1.5-0.7l0.8,1.9c-0.5,0.4-1.1,0.7-1.9,1S382.4,400.2,381.5,400.2z M381.2,390.5c-0.6,0-1,0.2-1.4,0.7
		c-0.3,0.4-0.5,1-0.6,1.8l0,0.1h3.8v-0.3c0-0.7-0.2-1.2-0.5-1.6C382.3,390.7,381.8,390.5,381.2,390.5z"/>
</g>
<g class="st1">
	<path class="st2" d="M392.9,398.1l1.5-0.3v-7.2l-1.7-0.3v-1.9h4.8v9.4l1.5,0.3v1.9h-6.2V398.1z M397.6,385.6h-3.1v-2.4h3.1V385.6z"
		/>
</g>
<g class="st1">
	<path class="st2" d="M400.1,398.1l1.5-0.3v-7.2l-1.7-0.3v-1.9h4.6l0.1,1.7c0.4-0.6,0.9-1.1,1.4-1.4s1.2-0.5,1.9-0.5
		c1.2,0,2.1,0.4,2.8,1.1s1,1.9,1,3.5v5.1l1.5,0.3v1.9h-6v-1.9l1.3-0.3v-5c0-0.8-0.2-1.3-0.5-1.7c-0.3-0.3-0.8-0.5-1.4-0.5
		c-0.4,0-0.8,0.1-1.1,0.3c-0.3,0.2-0.6,0.4-0.8,0.7v6.2l1.3,0.3v1.9h-5.9V398.1z"/>
</g>
<g class="st1">
	<path class="st2" d="M128.8,416.6v-1.9h4.6l0.2,1.4c0.3-0.5,0.8-0.9,1.2-1.2c0.5-0.3,1-0.4,1.7-0.4c1.4,0,2.6,0.6,3.4,1.7
		s1.2,2.6,1.2,4.4v0.2c0,1.7-0.4,3.1-1.2,4.1s-1.9,1.6-3.3,1.6c-0.6,0-1.1-0.1-1.6-0.3c-0.5-0.2-0.9-0.6-1.2-1v3.4l1.5,0.3v1.9H129
		v-1.9l1.5-0.3V417L128.8,416.6z M137.8,420.7c0-1.1-0.2-2-0.5-2.7s-0.9-1-1.7-1c-0.5,0-0.9,0.1-1.2,0.3s-0.6,0.5-0.8,0.8v5.1
		c0.2,0.3,0.5,0.6,0.8,0.8s0.7,0.3,1.2,0.3c0.8,0,1.3-0.3,1.7-0.9s0.5-1.4,0.5-2.4V420.7z"/>
</g>
<g class="st1">
	<path class="st2" d="M142.2,424.5l1.5-0.3V417l-1.7-0.3v-1.9h4.6l0.1,1.7c0.3-0.6,0.6-1.1,1.1-1.4s0.9-0.5,1.5-0.5
		c0.2,0,0.3,0,0.5,0c0.2,0,0.3,0.1,0.5,0.1l-0.3,2.9l-1.3,0c-0.5,0-0.8,0.1-1.1,0.3s-0.5,0.4-0.7,0.8v5.7l1.5,0.3v1.9h-6.1V424.5z"
		/>
	<path class="st2" d="M156.4,426.6c-1.7,0-3-0.5-4-1.6s-1.5-2.4-1.5-4.1v-0.4c0-1.7,0.5-3.1,1.4-4.3c0.9-1.1,2.2-1.7,3.8-1.7
		c1.6,0,2.8,0.5,3.7,1.4s1.3,2.2,1.3,3.8v1.7h-6.9l0,0.1c0.1,0.8,0.3,1.4,0.8,1.9c0.5,0.5,1.1,0.7,1.9,0.7c0.7,0,1.3-0.1,1.7-0.2
		c0.5-0.1,1-0.4,1.5-0.7l0.8,1.9c-0.5,0.4-1.1,0.7-1.9,1S157.3,426.6,156.4,426.6z M156.1,416.9c-0.6,0-1,0.2-1.4,0.7
		s-0.5,1-0.6,1.8l0,0.1h3.8v-0.3c0-0.7-0.2-1.2-0.5-1.6C157.2,417.1,156.7,416.9,156.1,416.9z"/>
</g>
<g class="st1">
	<path class="st2" d="M167.3,416.6l-1.1,0.2l1.5,5.2l0.2,1.1h0.1l0.2-1.1l1.5-5.2l-1.1-0.2v-1.9h5.3v1.9l-1,0.2l-3.4,9.6h-3
		l-3.4-9.6l-1-0.2v-1.9h5.3V416.6z"/>
</g>
<g class="st1">
	<path class="st2" d="M180.1,426.6c-1.7,0-3-0.5-4-1.6c-1-1.1-1.5-2.4-1.5-4.1v-0.4c0-1.7,0.5-3.1,1.4-4.3c0.9-1.1,2.2-1.7,3.8-1.7
		c1.6,0,2.8,0.5,3.7,1.4c0.9,0.9,1.3,2.2,1.3,3.8v1.7h-6.9l0,0.1c0.1,0.8,0.3,1.4,0.8,1.9c0.5,0.5,1.1,0.7,1.9,0.7
		c0.7,0,1.3-0.1,1.7-0.2c0.5-0.1,1-0.4,1.5-0.7l0.8,1.9c-0.5,0.4-1.1,0.7-1.9,1S181.1,426.6,180.1,426.6z M179.8,416.9
		c-0.6,0-1,0.2-1.4,0.7c-0.3,0.4-0.5,1-0.6,1.8l0,0.1h3.8v-0.3c0-0.7-0.2-1.2-0.5-1.6C180.9,417.1,180.5,416.9,179.8,416.9z"/>
</g>
<g class="st1">
	<path class="st2" d="M185.9,424.5l1.5-0.3V417l-1.7-0.3v-1.9h4.6l0.1,1.7c0.4-0.6,0.9-1.1,1.4-1.4c0.6-0.3,1.2-0.5,1.9-0.5
		c1.2,0,2.1,0.4,2.8,1.1c0.7,0.7,1,1.9,1,3.5v5.1l1.5,0.3v1.9h-6v-1.9l1.3-0.3v-5c0-0.8-0.2-1.3-0.5-1.7c-0.3-0.3-0.8-0.5-1.4-0.5
		c-0.4,0-0.8,0.1-1.1,0.3c-0.3,0.2-0.6,0.4-0.8,0.7v6.2l1.3,0.3v1.9h-5.9V424.5z"/>
</g>
<g class="st1">
	<path class="st2" d="M204.1,411.9v2.8h2v2.2h-2v5.9c0,0.5,0.1,0.8,0.3,1c0.2,0.2,0.4,0.3,0.8,0.3c0.2,0,0.4,0,0.6,0
		c0.2,0,0.3,0,0.5-0.1l0.3,2.3c-0.4,0.1-0.7,0.2-1,0.2c-0.3,0.1-0.7,0.1-1.1,0.1c-1.1,0-1.9-0.3-2.5-0.9c-0.6-0.6-0.9-1.5-0.9-2.8
		v-5.9h-1.7v-2.2h1.7v-2.8H204.1z"/>
</g>
<g class="st1">
	<path class="st2" d="M207.6,424.5l1.5-0.3V417l-1.7-0.3v-1.9h4.8v9.4l1.5,0.3v1.9h-6.2V424.5z M212.3,412h-3.1v-2.4h3.1V412z"/>
</g>
<g class="st1">
	<path class="st2" d="M214.8,424.5l1.5-0.3V417l-1.7-0.3v-1.9h4.6l0.1,1.7c0.4-0.6,0.9-1.1,1.4-1.4c0.6-0.3,1.2-0.5,1.9-0.5
		c1.2,0,2.1,0.4,2.8,1.1c0.7,0.7,1,1.9,1,3.5v5.1l1.5,0.3v1.9h-6v-1.9l1.3-0.3v-5c0-0.8-0.2-1.3-0.5-1.7c-0.3-0.3-0.8-0.5-1.4-0.5
		c-0.4,0-0.8,0.1-1.1,0.3c-0.3,0.2-0.6,0.4-0.8,0.7v6.2l1.3,0.3v1.9h-5.9V424.5z"/>
</g>
<g class="st1">
	<path class="st2" d="M228.9,420.7c0-1.8,0.4-3.3,1.2-4.4c0.8-1.1,1.9-1.7,3.4-1.7c0.7,0,1.2,0.1,1.7,0.4c0.5,0.3,0.9,0.7,1.3,1.2
		l0.2-1.5h2.7V426c0,1.5-0.5,2.8-1.4,3.7c-1,0.9-2.3,1.4-4,1.4c-0.6,0-1.2-0.1-1.9-0.2c-0.7-0.2-1.3-0.4-1.8-0.7l0.6-2.2
		c0.5,0.2,1,0.4,1.5,0.5c0.5,0.1,1,0.2,1.6,0.2c0.8,0,1.3-0.2,1.7-0.7c0.4-0.5,0.6-1.1,0.6-1.9v-0.8c-0.3,0.4-0.7,0.8-1.2,1
		c-0.5,0.2-1,0.3-1.6,0.3c-1.4,0-2.5-0.5-3.3-1.6c-0.8-1-1.2-2.4-1.2-4.1V420.7z M232,420.9c0,1,0.2,1.8,0.5,2.4
		c0.3,0.6,0.9,0.9,1.7,0.9c0.5,0,0.9-0.1,1.2-0.3c0.3-0.2,0.6-0.4,0.8-0.8v-5c-0.2-0.4-0.5-0.6-0.8-0.8s-0.7-0.3-1.2-0.3
		c-0.8,0-1.3,0.3-1.7,1s-0.5,1.6-0.5,2.7V420.9z"/>
</g>
<g class="st1">
	<path class="st2" d="M246.4,416.6v-1.9h4.6l0.2,1.4c0.3-0.5,0.8-0.9,1.2-1.2c0.5-0.3,1-0.4,1.7-0.4c1.4,0,2.6,0.6,3.4,1.7
		s1.2,2.6,1.2,4.4v0.2c0,1.7-0.4,3.1-1.2,4.1s-1.9,1.6-3.3,1.6c-0.6,0-1.1-0.1-1.6-0.3c-0.5-0.2-0.9-0.6-1.2-1v3.4l1.5,0.3v1.9h-6.2
		v-1.9l1.5-0.3V417L246.4,416.6z M255.4,420.7c0-1.1-0.2-2-0.5-2.7s-0.9-1-1.7-1c-0.5,0-0.9,0.1-1.2,0.3s-0.6,0.5-0.8,0.8v5.1
		c0.2,0.3,0.5,0.6,0.8,0.8s0.7,0.3,1.2,0.3c0.8,0,1.3-0.3,1.7-0.9s0.5-1.4,0.5-2.4V420.7z"/>
</g>
<g class="st1">
	<path class="st2" d="M259.8,424.5l1.5-0.3V417l-1.7-0.3v-1.9h4.6l0.1,1.7c0.3-0.6,0.6-1.1,1.1-1.4s0.9-0.5,1.5-0.5
		c0.2,0,0.3,0,0.5,0c0.2,0,0.3,0.1,0.5,0.1l-0.3,2.9l-1.3,0c-0.5,0-0.8,0.1-1.1,0.3s-0.5,0.4-0.7,0.8v5.7l1.5,0.3v1.9h-6.1V424.5z"
		/>
</g>
<g class="st1">
	<path class="st2" d="M274.1,426.6c-1.7,0-3-0.5-4-1.6c-1-1.1-1.5-2.4-1.5-4.1v-0.4c0-1.7,0.5-3.1,1.4-4.3c0.9-1.1,2.2-1.7,3.8-1.7
		c1.6,0,2.8,0.5,3.7,1.4c0.9,0.9,1.3,2.2,1.3,3.8v1.7h-6.9l0,0.1c0.1,0.8,0.3,1.4,0.8,1.9c0.5,0.5,1.1,0.7,1.9,0.7
		c0.7,0,1.3-0.1,1.7-0.2c0.5-0.1,1-0.4,1.5-0.7l0.8,1.9c-0.5,0.4-1.1,0.7-1.9,1S275,426.6,274.1,426.6z M273.8,416.9
		c-0.6,0-1,0.2-1.4,0.7c-0.3,0.4-0.5,1-0.6,1.8l0,0.1h3.8v-0.3c0-0.7-0.2-1.2-0.5-1.6C274.9,417.1,274.4,416.9,273.8,416.9z"/>
</g>
<g class="st1">
	<path class="st2" d="M280.3,420.7c0-1.8,0.4-3.3,1.2-4.4c0.8-1.1,1.9-1.7,3.4-1.7c0.7,0,1.2,0.1,1.7,0.4c0.5,0.3,0.9,0.7,1.3,1.2
		l0.2-1.5h2.7V426c0,1.5-0.5,2.8-1.4,3.7c-1,0.9-2.3,1.4-4,1.4c-0.6,0-1.2-0.1-1.9-0.2c-0.7-0.2-1.3-0.4-1.8-0.7l0.6-2.2
		c0.5,0.2,1,0.4,1.5,0.5c0.5,0.1,1,0.2,1.6,0.2c0.8,0,1.3-0.2,1.7-0.7s0.6-1.1,0.6-1.9v-0.8c-0.3,0.4-0.7,0.8-1.2,1s-1,0.3-1.6,0.3
		c-1.4,0-2.5-0.5-3.3-1.6c-0.8-1-1.2-2.4-1.2-4.1V420.7z M283.4,420.9c0,1,0.2,1.8,0.5,2.4c0.3,0.6,0.9,0.9,1.7,0.9
		c0.5,0,0.9-0.1,1.2-0.3c0.3-0.2,0.6-0.4,0.8-0.8v-5c-0.2-0.4-0.5-0.6-0.8-0.8s-0.7-0.3-1.2-0.3c-0.8,0-1.3,0.3-1.7,1
		s-0.5,1.6-0.5,2.7V420.9z"/>
</g>
<g class="st1">
	<path class="st2" d="M292.5,424.5l1.5-0.3V417l-1.7-0.3v-1.9h4.6l0.1,1.7c0.4-0.6,0.9-1.1,1.4-1.4c0.6-0.3,1.2-0.5,1.9-0.5
		c1.2,0,2.1,0.4,2.8,1.1c0.7,0.7,1,1.9,1,3.5v5.1l1.5,0.3v1.9h-6v-1.9l1.3-0.3v-5c0-0.8-0.2-1.3-0.5-1.7c-0.3-0.3-0.8-0.5-1.4-0.5
		c-0.4,0-0.8,0.1-1.1,0.3c-0.3,0.2-0.6,0.4-0.8,0.7v6.2l1.3,0.3v1.9h-5.9V424.5z"/>
</g>
<g class="st1">
	<path class="st2" d="M314.1,426.4c-0.1-0.2-0.2-0.4-0.2-0.6c-0.1-0.2-0.1-0.4-0.2-0.6c-0.4,0.4-0.8,0.8-1.4,1
		c-0.5,0.3-1.1,0.4-1.8,0.4c-1.1,0-2-0.3-2.7-0.9c-0.7-0.6-1-1.5-1-2.5c0-1.1,0.4-1.9,1.3-2.5c0.9-0.6,2.2-0.9,3.8-0.9h1.6v-1.1
		c0-0.6-0.2-1-0.5-1.3s-0.8-0.5-1.4-0.5c-0.4,0-0.7,0-1,0.1c-0.3,0.1-0.5,0.2-0.7,0.3l-0.2,1.2h-2.4l0-2.6c0.6-0.4,1.2-0.7,2-1
		s1.5-0.4,2.4-0.4c1.4,0,2.6,0.4,3.5,1.1c0.9,0.7,1.3,1.7,1.3,3v4.8c0,0.2,0,0.3,0,0.5c0,0.2,0,0.3,0,0.5l1,0.1v1.9H314.1z
		 M311.3,424.3c0.5,0,0.9-0.1,1.3-0.3c0.4-0.2,0.7-0.5,0.9-0.8v-1.8h-1.6c-0.7,0-1.2,0.2-1.5,0.5c-0.3,0.3-0.5,0.7-0.5,1.1
		c0,0.4,0.1,0.7,0.4,0.9C310.5,424.2,310.9,424.3,311.3,424.3z"/>
</g>
<g class="st1">
	<path class="st2" d="M318.7,424.5l1.5-0.3V417l-1.7-0.3v-1.9h4.6l0.1,1.7c0.4-0.6,0.9-1.1,1.4-1.4c0.6-0.3,1.2-0.5,1.9-0.5
		c1.2,0,2.1,0.4,2.8,1.1c0.7,0.7,1,1.9,1,3.5v5.1l1.5,0.3v1.9h-6v-1.9l1.3-0.3v-5c0-0.8-0.2-1.3-0.5-1.7c-0.3-0.3-0.8-0.5-1.4-0.5
		c-0.4,0-0.8,0.1-1.1,0.3c-0.3,0.2-0.6,0.4-0.8,0.7v6.2l1.3,0.3v1.9h-5.9V424.5z"/>
</g>
<g class="st1">
	<path class="st2" d="M338,424.2c0.6,0,1-0.2,1.3-0.5c0.3-0.3,0.5-0.8,0.5-1.3h2.8l0,0.1c0,1.2-0.4,2.2-1.3,2.9
		c-0.9,0.8-2,1.2-3.4,1.2c-1.7,0-3.1-0.5-4-1.6s-1.4-2.5-1.4-4.2v-0.3c0-1.7,0.5-3.1,1.4-4.2c1-1.1,2.3-1.7,4.1-1.7
		c0.9,0,1.8,0.1,2.5,0.4s1.4,0.7,1.9,1.2l0,3.1H340l-0.5-1.8c-0.2-0.1-0.4-0.2-0.6-0.3c-0.2-0.1-0.5-0.1-0.8-0.1
		c-0.9,0-1.5,0.3-1.9,1s-0.5,1.5-0.5,2.5v0.3c0,1,0.2,1.9,0.5,2.5C336.6,423.9,337.2,424.2,338,424.2z"/>
</g>
<g class="st1">
	<path class="st2" d="M356.2,416.6l-1.1,0.2l-4.3,11.3c-0.3,0.8-0.8,1.5-1.3,2.1s-1.4,0.8-2.5,0.8c-0.3,0-0.5,0-0.7-0.1
		s-0.5-0.1-0.8-0.2l0.4-2.3c0.1,0,0.2,0,0.3,0s0.2,0,0.3,0c0.5,0,0.9-0.1,1.2-0.4c0.3-0.3,0.5-0.6,0.6-1l0.4-0.9l-3.7-9.6l-1.1-0.2
		v-1.9h5.7v1.9l-1.3,0.2l1.6,4.6l0.2,0.8l0.1,0l1.8-5.5l-1.3-0.2v-1.9h5.7V416.6z"/>
</g>
<g class="st1">
	<path class="st2" d="M359,426c0,0.7-0.2,1.5-0.6,2.3c-0.4,0.8-0.9,1.5-1.5,2l-1.5-0.8c0.3-0.5,0.5-1,0.6-1.6
		c0.2-0.5,0.2-1.1,0.2-1.8v-2.3h2.8L359,426z"/>
</g>
<g class="st1">
	<path class="st2" d="M377.4,420.9c0,1.7-0.4,3.1-1.2,4.2s-1.9,1.6-3.4,1.6c-0.7,0-1.3-0.1-1.8-0.4c-0.5-0.3-0.9-0.7-1.3-1.2
		l-0.2,1.4h-2.7v-14.5l-1.7-0.3v-1.9h4.8v6.4c0.3-0.5,0.7-0.8,1.2-1.1s1-0.4,1.6-0.4c1.5,0,2.6,0.6,3.4,1.7c0.8,1.1,1.2,2.6,1.2,4.5
		V420.9z M374.3,420.7c0-1.1-0.2-2-0.5-2.7c-0.3-0.7-0.9-1-1.7-1c-0.5,0-0.9,0.1-1.2,0.3c-0.3,0.2-0.6,0.5-0.8,0.9v4.9
		c0.2,0.4,0.5,0.6,0.8,0.8s0.8,0.3,1.3,0.3c0.8,0,1.4-0.3,1.7-0.9c0.3-0.6,0.5-1.4,0.5-2.4V420.7z"/>
</g>
<g class="st1">
	<path class="st2" d="M386.7,424.9c-0.4,0.5-0.8,1-1.4,1.3c-0.5,0.3-1.2,0.4-1.9,0.4c-1.2,0-2.2-0.4-2.9-1.2c-0.7-0.8-1-2-1-3.7V417
		l-1.3-0.3v-1.9h1.3h3.1v7c0,0.8,0.1,1.5,0.4,1.8c0.3,0.4,0.7,0.6,1.3,0.6c0.5,0,0.9-0.1,1.3-0.2c0.4-0.2,0.7-0.4,0.9-0.7V417
		l-1.4-0.3v-1.9h1.4h3.1v9.4l1.4,0.3v1.9h-4.2L386.7,424.9z"/>
</g>
<g class="st1">
	<path class="st2" d="M396.3,411.9v2.8h2v2.2h-2v5.9c0,0.5,0.1,0.8,0.3,1c0.2,0.2,0.4,0.3,0.8,0.3c0.2,0,0.4,0,0.6,0
		c0.2,0,0.3,0,0.5-0.1l0.3,2.3c-0.4,0.1-0.7,0.2-1,0.2c-0.3,0.1-0.7,0.1-1.1,0.1c-1.1,0-1.9-0.3-2.5-0.9s-0.9-1.5-0.9-2.8v-5.9h-1.7
		v-2.2h1.7v-2.8H396.3z"/>
</g>
<g class="st1">
	<path class="st2" d="M412.9,425c-0.4,0.5-0.8,0.9-1.3,1.2c-0.5,0.3-1.1,0.4-1.7,0.4c-1.4,0-2.5-0.5-3.3-1.6c-0.8-1-1.2-2.4-1.2-4.1
		v-0.2c0-1.8,0.4-3.3,1.2-4.4s1.9-1.7,3.4-1.7c0.6,0,1.1,0.1,1.6,0.4c0.5,0.3,0.9,0.6,1.2,1.1v-4.2l-1.7-0.3v-1.9h1.7h3.1v14.6
		l1.5,0.3v1.9h-4.2L412.9,425z M408.5,420.9c0,1,0.2,1.8,0.5,2.4c0.3,0.6,0.9,0.9,1.7,0.9c0.5,0,0.9-0.1,1.2-0.3s0.6-0.5,0.8-0.8
		v-4.9c-0.2-0.4-0.5-0.7-0.8-0.9c-0.3-0.2-0.7-0.3-1.2-0.3c-0.8,0-1.3,0.3-1.7,1s-0.5,1.6-0.5,2.7V420.9z"/>
</g>
<g class="st1">
	<path class="st2" d="M418,420.5c0-1.7,0.5-3.2,1.5-4.3c1-1.1,2.3-1.7,4-1.7c1.7,0,3.1,0.6,4,1.7c1,1.1,1.5,2.5,1.5,4.3v0.2
		c0,1.7-0.5,3.2-1.5,4.3c-1,1.1-2.3,1.6-4,1.6c-1.7,0-3.1-0.5-4-1.6c-1-1.1-1.5-2.5-1.5-4.3V420.5z M421.1,420.7
		c0,1.1,0.2,1.9,0.6,2.6c0.4,0.6,1,1,1.8,1c0.8,0,1.4-0.3,1.8-1c0.4-0.6,0.6-1.5,0.6-2.5v-0.2c0-1-0.2-1.9-0.6-2.5
		c-0.4-0.7-1-1-1.8-1s-1.4,0.3-1.8,1s-0.6,1.5-0.6,2.5V420.7z"/>
</g>
<g class="st1">
	<path class="st2" d="M435.8,426.6c-1.7,0-3-0.5-4-1.6s-1.5-2.4-1.5-4.1v-0.4c0-1.7,0.5-3.1,1.4-4.3s2.2-1.7,3.8-1.7
		c1.6,0,2.8,0.5,3.7,1.4s1.3,2.2,1.3,3.8v1.7h-6.9l0,0.1c0.1,0.8,0.3,1.4,0.8,1.9s1.1,0.7,1.9,0.7c0.7,0,1.3-0.1,1.7-0.2
		c0.5-0.1,1-0.4,1.5-0.7l0.8,1.9c-0.5,0.4-1.1,0.7-1.9,1C437.6,426.5,436.8,426.6,435.8,426.6z M435.5,416.9c-0.6,0-1,0.2-1.4,0.7
		s-0.5,1-0.6,1.8l0,0.1h3.8v-0.3c0-0.7-0.2-1.2-0.5-1.6C436.6,417.1,436.2,416.9,435.5,416.9z"/>
</g>
<g class="st1">
	<path class="st2" d="M451.2,418.7h-2.1l-0.3-1.5c-0.2-0.2-0.5-0.3-0.8-0.4c-0.3-0.1-0.7-0.2-1.1-0.2c-0.6,0-1,0.1-1.3,0.4
		c-0.3,0.2-0.5,0.6-0.5,0.9c0,0.4,0.2,0.6,0.5,0.9c0.3,0.2,0.9,0.4,1.8,0.6c1.4,0.3,2.5,0.7,3.2,1.3c0.7,0.6,1,1.3,1,2.3
		c0,1-0.5,1.9-1.3,2.6c-0.9,0.7-2.1,1-3.5,1c-0.9,0-1.7-0.1-2.5-0.4c-0.7-0.3-1.4-0.6-2-1.1l0-2.6h2.2l0.4,1.5
		c0.2,0.2,0.4,0.3,0.8,0.3c0.3,0.1,0.7,0.1,1,0.1c0.6,0,1.1-0.1,1.5-0.3c0.3-0.2,0.5-0.5,0.5-0.9c0-0.3-0.2-0.6-0.5-0.9
		s-1-0.5-1.9-0.7c-1.4-0.3-2.4-0.7-3.1-1.2c-0.7-0.5-1-1.3-1-2.2c0-1,0.4-1.8,1.2-2.5c0.8-0.7,1.9-1.1,3.4-1.1
		c0.9,0,1.8,0.1,2.6,0.4c0.8,0.2,1.4,0.6,1.9,0.9L451.2,418.7z"/>
</g>
<g class="st1">
	<path class="st2" d="M452.8,424.5l1.5-0.3V417l-1.7-0.3v-1.9h4.6l0.1,1.7c0.4-0.6,0.9-1.1,1.4-1.4s1.2-0.5,1.9-0.5
		c1.2,0,2.1,0.4,2.8,1.1s1,1.9,1,3.5v5.1l1.5,0.3v1.9h-6v-1.9l1.3-0.3v-5c0-0.8-0.2-1.3-0.5-1.7c-0.3-0.3-0.8-0.5-1.4-0.5
		c-0.4,0-0.8,0.1-1.1,0.3c-0.3,0.2-0.6,0.4-0.8,0.7v6.2l1.3,0.3v1.9h-5.9V424.5z"/>
</g>
<g class="st1">
	<path class="st2" d="M469.2,411.7c0,0.7-0.2,1.5-0.6,2.3c-0.4,0.8-0.8,1.4-1.4,1.9l-1.5-0.8c0.3-0.5,0.5-1,0.6-1.5
		c0.2-0.5,0.2-1.1,0.2-1.8v-2.1h2.6V411.7z"/>
</g>
<g class="st1">
	<path class="st2" d="M475.1,411.9v2.8h2v2.2h-2v5.9c0,0.5,0.1,0.8,0.3,1s0.4,0.3,0.8,0.3c0.2,0,0.4,0,0.6,0c0.2,0,0.3,0,0.5-0.1
		l0.3,2.3c-0.4,0.1-0.7,0.2-1,0.2c-0.3,0.1-0.7,0.1-1.1,0.1c-1.1,0-1.9-0.3-2.5-0.9s-0.9-1.5-0.9-2.8v-5.9h-1.7v-2.2h1.7v-2.8H475.1
		z"/>
</g>
<g class="st1">
	<path class="st2" d="M129,446.9c0-1.7,0.5-3.2,1.5-4.3c1-1.1,2.3-1.7,4-1.7c1.7,0,3.1,0.6,4,1.7c1,1.1,1.5,2.5,1.5,4.3v0.2
		c0,1.7-0.5,3.2-1.5,4.3c-1,1.1-2.3,1.7-4,1.7c-1.7,0-3.1-0.6-4-1.7c-1-1.1-1.5-2.5-1.5-4.3V446.9z M132.2,447.1
		c0,1.1,0.2,1.9,0.6,2.6c0.4,0.6,1,1,1.8,1c0.8,0,1.4-0.3,1.8-1s0.6-1.5,0.6-2.5v-0.2c0-1-0.2-1.9-0.6-2.5c-0.4-0.7-1-1-1.8-1
		s-1.4,0.3-1.8,1c-0.4,0.7-0.6,1.5-0.6,2.5V447.1z"/>
</g>
<g class="st1">
	<path class="st2" d="M141.2,450.9l1.5-0.3v-7.2h-1.7v-2.2h1.7v-1.3c0-1.3,0.4-2.3,1.1-3c0.8-0.7,1.8-1.1,3.2-1.1
		c0.3,0,0.5,0,0.8,0.1c0.3,0,0.6,0.1,0.9,0.2l-0.3,2.3c-0.2,0-0.3-0.1-0.5-0.1s-0.3,0-0.6,0c-0.5,0-0.9,0.1-1.2,0.4
		c-0.3,0.3-0.4,0.7-0.4,1.2v1.3h2.3v2.2h-2.3v7.2l1.5,0.3v1.9h-6.2V450.9z"/>
</g>
<g class="st1">
	<path class="st2" d="M149.4,450.9l1.5-0.3v-7.2h-1.7v-2.2h1.7v-1.3c0-1.3,0.4-2.3,1.1-3c0.8-0.7,1.8-1.1,3.2-1.1
		c0.3,0,0.5,0,0.8,0.1c0.3,0,0.6,0.1,0.9,0.2l-0.3,2.3c-0.2,0-0.3-0.1-0.5-0.1s-0.3,0-0.6,0c-0.5,0-0.9,0.1-1.2,0.4
		c-0.3,0.3-0.4,0.7-0.4,1.2v1.3h2.3v2.2h-2.3v7.2l1.5,0.3v1.9h-6.2V450.9z"/>
</g>
<g class="st1">
	<path class="st2" d="M162.8,453c-1.7,0-3-0.5-4-1.6c-1-1.1-1.5-2.4-1.5-4.1v-0.4c0-1.7,0.5-3.1,1.4-4.3c0.9-1.1,2.2-1.7,3.8-1.7
		c1.6,0,2.8,0.5,3.7,1.4c0.9,0.9,1.3,2.2,1.3,3.8v1.7h-6.9l0,0.1c0.1,0.8,0.3,1.4,0.8,1.9c0.5,0.5,1.1,0.7,1.9,0.7
		c0.7,0,1.3-0.1,1.7-0.2c0.5-0.1,1-0.4,1.5-0.7l0.8,1.9c-0.5,0.4-1.1,0.7-1.9,1S163.7,453,162.8,453z M162.5,443.3
		c-0.6,0-1,0.2-1.4,0.7c-0.3,0.4-0.5,1-0.6,1.8l0,0.1h3.8v-0.3c0-0.7-0.2-1.2-0.5-1.6C163.6,443.5,163.1,443.3,162.5,443.3z"/>
</g>
<g class="st1">
	<path class="st2" d="M168.8,450.9l1.5-0.3v-7.2l-1.7-0.3v-1.9h4.6l0.1,1.7c0.3-0.6,0.6-1.1,1.1-1.4c0.4-0.3,0.9-0.5,1.5-0.5
		c0.2,0,0.3,0,0.5,0c0.2,0,0.3,0.1,0.5,0.1l-0.3,2.9l-1.3,0c-0.5,0-0.8,0.1-1.1,0.3c-0.3,0.2-0.5,0.4-0.7,0.8v5.7l1.5,0.3v1.9h-6.1
		V450.9z"/>
</g>
<g class="st1">
	<path class="st2" d="M183,443v-1.9h4.6l0.2,1.4c0.3-0.5,0.8-0.9,1.2-1.2c0.5-0.3,1-0.4,1.7-0.4c1.4,0,2.6,0.6,3.4,1.7
		c0.8,1.1,1.2,2.6,1.2,4.4v0.2c0,1.7-0.4,3.1-1.2,4.1c-0.8,1-1.9,1.6-3.3,1.6c-0.6,0-1.1-0.1-1.6-0.3c-0.5-0.2-0.9-0.6-1.2-1v3.4
		l1.5,0.3v1.9h-6.2v-1.9l1.5-0.3v-11.7L183,443z M192,447.1c0-1.1-0.2-2-0.5-2.7c-0.4-0.7-0.9-1-1.7-1c-0.5,0-0.9,0.1-1.2,0.3
		s-0.6,0.5-0.8,0.8v5.1c0.2,0.3,0.5,0.6,0.8,0.8s0.7,0.3,1.2,0.3c0.8,0,1.3-0.3,1.7-0.9c0.4-0.6,0.5-1.4,0.5-2.4V447.1z"/>
</g>
<g class="st1">
	<path class="st2" d="M196.3,450.9l1.5-0.3v-7.2l-1.7-0.3v-1.9h4.6l0.1,1.7c0.3-0.6,0.6-1.1,1.1-1.4c0.4-0.3,0.9-0.5,1.5-0.5
		c0.2,0,0.3,0,0.5,0c0.2,0,0.3,0.1,0.5,0.1l-0.3,2.9l-1.3,0c-0.5,0-0.8,0.1-1.1,0.3c-0.3,0.2-0.5,0.4-0.7,0.8v5.7l1.5,0.3v1.9h-6.1
		V450.9z"/>
</g>
<g class="st1">
	<path class="st2" d="M205.1,446.9c0-1.7,0.5-3.2,1.5-4.3c1-1.1,2.3-1.7,4-1.7c1.7,0,3.1,0.6,4,1.7c1,1.1,1.5,2.5,1.5,4.3v0.2
		c0,1.7-0.5,3.2-1.5,4.3c-1,1.1-2.3,1.7-4,1.7c-1.7,0-3.1-0.6-4-1.7c-1-1.1-1.5-2.5-1.5-4.3V446.9z M208.2,447.1
		c0,1.1,0.2,1.9,0.6,2.6c0.4,0.6,1,1,1.8,1c0.8,0,1.4-0.3,1.8-1s0.6-1.5,0.6-2.5v-0.2c0-1-0.2-1.9-0.6-2.5c-0.4-0.7-1-1-1.8-1
		s-1.4,0.3-1.8,1c-0.4,0.7-0.6,1.5-0.6,2.5V447.1z"/>
</g>
<g class="st1">
	<path class="st2" d="M221.8,438.3v2.8h2v2.2h-2v5.9c0,0.5,0.1,0.8,0.3,1c0.2,0.2,0.4,0.3,0.8,0.3c0.2,0,0.4,0,0.6,0s0.3,0,0.5-0.1
		l0.3,2.3c-0.4,0.1-0.7,0.2-1,0.2c-0.3,0.1-0.7,0.1-1.1,0.1c-1.1,0-1.9-0.3-2.5-0.9c-0.6-0.6-0.9-1.5-0.9-2.8v-5.9h-1.7v-2.2h1.7
		v-2.8H221.8z"/>
</g>
<g class="st1">
	<path class="st2" d="M230.5,453c-1.7,0-3-0.5-4-1.6c-1-1.1-1.5-2.4-1.5-4.1v-0.4c0-1.7,0.5-3.1,1.4-4.3c0.9-1.1,2.2-1.7,3.8-1.7
		c1.6,0,2.8,0.5,3.7,1.4c0.9,0.9,1.3,2.2,1.3,3.8v1.7h-6.9l0,0.1c0.1,0.8,0.3,1.4,0.8,1.9c0.5,0.5,1.1,0.7,1.9,0.7
		c0.7,0,1.3-0.1,1.7-0.2c0.5-0.1,1-0.4,1.5-0.7l0.8,1.9c-0.5,0.4-1.1,0.7-1.9,1S231.4,453,230.5,453z M230.2,443.3
		c-0.6,0-1,0.2-1.4,0.7c-0.3,0.4-0.5,1-0.6,1.8l0,0.1h3.8v-0.3c0-0.7-0.2-1.2-0.5-1.6C231.3,443.5,230.8,443.3,230.2,443.3z"/>
</g>
<g class="st1">
	<path class="st2" d="M242,450.6c0.6,0,1-0.2,1.3-0.5c0.3-0.3,0.5-0.8,0.5-1.3h2.8l0,0.1c0,1.2-0.4,2.2-1.3,2.9
		c-0.9,0.8-2,1.2-3.4,1.2c-1.7,0-3.1-0.5-4-1.6c-0.9-1.1-1.4-2.5-1.4-4.2v-0.3c0-1.7,0.5-3.1,1.4-4.2c1-1.1,2.3-1.7,4.1-1.7
		c0.9,0,1.8,0.1,2.5,0.4c0.7,0.3,1.4,0.7,1.9,1.2l0,3.1H244l-0.5-1.8c-0.2-0.1-0.4-0.2-0.6-0.3c-0.2-0.1-0.5-0.1-0.8-0.1
		c-0.9,0-1.5,0.3-1.9,1s-0.5,1.5-0.5,2.5v0.3c0,1,0.2,1.9,0.5,2.5C240.5,450.3,241.1,450.6,242,450.6z"/>
</g>
<g class="st1">
	<path class="st2" d="M252.7,438.3v2.8h2v2.2h-2v5.9c0,0.5,0.1,0.8,0.3,1c0.2,0.2,0.4,0.3,0.8,0.3c0.2,0,0.4,0,0.6,0s0.3,0,0.5-0.1
		l0.3,2.3c-0.4,0.1-0.7,0.2-1,0.2c-0.3,0.1-0.7,0.1-1.1,0.1c-1.1,0-1.9-0.3-2.5-0.9c-0.6-0.6-0.9-1.5-0.9-2.8v-5.9h-1.7v-2.2h1.7
		v-2.8H252.7z"/>
</g>
<g class="st1">
	<path class="st2" d="M256.2,450.9l1.5-0.3v-7.2l-1.7-0.3v-1.9h4.8v9.4l1.5,0.3v1.9h-6.2V450.9z M260.9,438.4h-3.1V436h3.1V438.4z"
		/>
</g>
<g class="st1">
	<path class="st2" d="M263.1,446.9c0-1.7,0.5-3.2,1.5-4.3c1-1.1,2.3-1.7,4-1.7c1.7,0,3.1,0.6,4,1.7c1,1.1,1.5,2.5,1.5,4.3v0.2
		c0,1.7-0.5,3.2-1.5,4.3c-1,1.1-2.3,1.7-4,1.7c-1.7,0-3.1-0.6-4-1.7c-1-1.1-1.5-2.5-1.5-4.3V446.9z M266.2,447.1
		c0,1.1,0.2,1.9,0.6,2.6c0.4,0.6,1,1,1.8,1c0.8,0,1.4-0.3,1.8-1s0.6-1.5,0.6-2.5v-0.2c0-1-0.2-1.9-0.6-2.5c-0.4-0.7-1-1-1.8-1
		s-1.4,0.3-1.8,1c-0.4,0.7-0.6,1.5-0.6,2.5V447.1z"/>
</g>
<g class="st1">
	<path class="st2" d="M274.9,450.9l1.5-0.3v-7.2l-1.7-0.3v-1.9h4.6l0.1,1.7c0.4-0.6,0.9-1.1,1.4-1.4c0.6-0.3,1.2-0.5,1.9-0.5
		c1.2,0,2.1,0.4,2.8,1.1c0.7,0.7,1,1.9,1,3.5v5.1l1.5,0.3v1.9h-6v-1.9l1.3-0.3v-5c0-0.8-0.2-1.3-0.5-1.7c-0.3-0.3-0.8-0.5-1.4-0.5
		c-0.4,0-0.8,0.1-1.1,0.3c-0.3,0.2-0.6,0.4-0.8,0.7v6.2l1.3,0.3v1.9h-5.9V450.9z"/>
</g>
<g class="st1">
	<path class="st2" d="M294.6,450.9l1.5-0.3v-7.2h-1.7v-2.2h1.7v-1.3c0-1.3,0.4-2.3,1.1-3c0.8-0.7,1.8-1.1,3.2-1.1
		c0.3,0,0.5,0,0.8,0.1c0.3,0,0.6,0.1,0.9,0.2l-0.3,2.3c-0.2,0-0.3-0.1-0.5-0.1s-0.3,0-0.6,0c-0.5,0-0.9,0.1-1.2,0.4
		c-0.3,0.3-0.4,0.7-0.4,1.2v1.3h2.3v2.2h-2.3v7.2l1.5,0.3v1.9h-6.2V450.9z"/>
</g>
<g class="st1">
	<path class="st2" d="M302.9,450.9l1.5-0.3v-7.2l-1.7-0.3v-1.9h4.6l0.1,1.7c0.3-0.6,0.6-1.1,1.1-1.4c0.4-0.3,0.9-0.5,1.5-0.5
		c0.2,0,0.3,0,0.5,0c0.2,0,0.3,0.1,0.5,0.1l-0.3,2.9l-1.3,0c-0.5,0-0.8,0.1-1.1,0.3c-0.3,0.2-0.5,0.4-0.7,0.8v5.7l1.5,0.3v1.9h-6.1
		V450.9z"/>
</g>
<g class="st1">
	<path class="st2" d="M311.7,446.9c0-1.7,0.5-3.2,1.5-4.3c1-1.1,2.3-1.7,4-1.7c1.7,0,3.1,0.6,4,1.7c1,1.1,1.5,2.5,1.5,4.3v0.2
		c0,1.7-0.5,3.2-1.5,4.3c-1,1.1-2.3,1.7-4,1.7c-1.7,0-3.1-0.6-4-1.7c-1-1.1-1.5-2.5-1.5-4.3V446.9z M314.8,447.1
		c0,1.1,0.2,1.9,0.6,2.6c0.4,0.6,1,1,1.8,1c0.8,0,1.4-0.3,1.8-1s0.6-1.5,0.6-2.5v-0.2c0-1-0.2-1.9-0.6-2.5c-0.4-0.7-1-1-1.8-1
		s-1.4,0.3-1.8,1c-0.4,0.7-0.6,1.5-0.6,2.5V447.1z"/>
</g>
<g class="st1">
	<path class="st2" d="M323.4,443v-1.9h4.6l0.1,1.5c0.4-0.6,0.8-1,1.4-1.3s1.2-0.5,2-0.5c0.7,0,1.4,0.2,1.9,0.5
		c0.5,0.3,0.9,0.8,1.2,1.5c0.4-0.6,0.8-1.1,1.4-1.5c0.6-0.4,1.2-0.5,2-0.5c1.1,0,2,0.4,2.7,1.2s1,2,1,3.6v4.8l1.5,0.3v1.9h-6v-1.9
		l1.4-0.3v-4.8c0-0.9-0.1-1.5-0.4-1.8c-0.3-0.3-0.7-0.5-1.3-0.5c-0.4,0-0.8,0.1-1.2,0.3s-0.6,0.5-0.8,0.8c0,0.1,0,0.3,0,0.3
		c0,0.1,0,0.2,0,0.3v5.4l1.3,0.3v1.9h-5.7v-1.9l1.3-0.3v-4.8c0-0.9-0.1-1.5-0.4-1.8c-0.3-0.4-0.7-0.5-1.3-0.5
		c-0.4,0-0.8,0.1-1.1,0.2c-0.3,0.2-0.6,0.4-0.8,0.7v6.3l1.4,0.3v1.9h-6v-1.9l1.5-0.3v-7.2L323.4,443z"/>
</g>
<g class="st1">
	<path class="st2" d="M361.4,442.1h-2.4l-0.4-2.1c-0.3-0.2-0.7-0.3-1.2-0.5s-1.1-0.2-1.7-0.2c-0.9,0-1.5,0.2-2,0.5
		c-0.5,0.4-0.7,0.8-0.7,1.4c0,0.5,0.2,1,0.7,1.3c0.5,0.3,1.3,0.7,2.5,1.1c1.7,0.5,3,1.1,3.9,1.9c0.9,0.8,1.3,1.8,1.3,3.1
		c0,1.3-0.5,2.4-1.6,3.2s-2.5,1.2-4.2,1.2c-1.2,0-2.4-0.2-3.4-0.6c-1-0.4-1.8-0.9-2.5-1.6v-3.3h2.4l0.3,2.2c0.3,0.3,0.7,0.5,1.3,0.6
		c0.5,0.2,1.1,0.3,1.8,0.3c0.9,0,1.5-0.2,2-0.5c0.4-0.4,0.7-0.8,0.7-1.4c0-0.6-0.2-1.1-0.6-1.4c-0.4-0.4-1.2-0.7-2.2-1
		c-1.9-0.5-3.3-1.2-4.2-1.9c-1-0.7-1.4-1.7-1.4-3c0-1.3,0.5-2.3,1.6-3.1c1.1-0.8,2.4-1.2,4-1.2c1.2,0,2.3,0.2,3.3,0.5
		s1.8,0.9,2.5,1.5V442.1z"/>
</g>
<g class="st1">
	<path class="st2" d="M376.6,437.1v4.2h-2.4l-0.1-1.8h-2.9v11l1.7,0.3v1.9h-6.5v-1.9l1.7-0.3v-11h-2.9l-0.1,1.8h-2.4v-4.2H376.6z"/>
</g>
<g class="st1">
	<path class="st2" d="M384.8,437.1c1.9,0,3.5,0.6,4.7,1.8c1.2,1.2,1.9,2.8,1.9,4.7v2.6c0,1.9-0.6,3.5-1.9,4.7
		c-1.2,1.2-2.8,1.8-4.7,1.8h-7v-1.9l1.7-0.3v-11.2l-1.7-0.3v-1.9h1.7H384.8z M382.6,439.5v10.8h2.1c1.1,0,2-0.4,2.6-1.1
		c0.6-0.8,1-1.8,1-3v-2.6c0-1.2-0.3-2.2-1-3c-0.6-0.8-1.5-1.1-2.6-1.1H382.6z"/>
</g>
<g class="st1">
	<path class="st2" d="M402.3,445.1h-2.1l-0.3-1.4c-0.2-0.2-0.5-0.3-0.8-0.4c-0.3-0.1-0.7-0.2-1.1-0.2c-0.6,0-1,0.1-1.3,0.4
		c-0.3,0.2-0.5,0.6-0.5,0.9c0,0.4,0.2,0.6,0.5,0.9c0.3,0.2,0.9,0.4,1.8,0.6c1.4,0.3,2.5,0.7,3.2,1.3s1,1.3,1,2.3
		c0,1-0.4,1.9-1.3,2.6c-0.9,0.7-2.1,1-3.6,1c-0.9,0-1.7-0.1-2.5-0.4c-0.7-0.3-1.4-0.6-2-1.1l0-2.6h2.2l0.4,1.5
		c0.2,0.2,0.4,0.3,0.8,0.3c0.3,0.1,0.7,0.1,1,0.1c0.6,0,1.1-0.1,1.5-0.3c0.3-0.2,0.5-0.5,0.5-0.9c0-0.3-0.2-0.6-0.5-0.9
		c-0.3-0.3-1-0.5-1.9-0.7c-1.4-0.3-2.4-0.7-3.1-1.2c-0.7-0.5-1-1.3-1-2.2c0-1,0.4-1.8,1.2-2.5s1.9-1.1,3.4-1.1
		c0.9,0,1.8,0.1,2.6,0.4c0.8,0.2,1.4,0.6,1.9,0.9L402.3,445.1z"/>
</g>
<g class="st1">
	<path class="st2" d="M407.9,452.8h-3.1V450h3.1V452.8z"/>
</g>
</svg>
