<svg id="Layer_1" data-name="Layer 1" xmlns="http://www.w3.org/2000/svg" xmlns:xlink="http://www.w3.org/1999/xlink" viewBox="0 0 203.63 211.05"><defs><style>.cls-1,.cls-4{fill:none;}.cls-2{clip-path:url(#clip-path);}.cls-3{fill:#f4783b;stroke-width:10px;}.cls-3,.cls-4{stroke:#f5faf8;stroke-miterlimit:10;}.cls-4{stroke-width:5px;}</style><clipPath id="clip-path"><path class="cls-1" d="M155.94,3,41.25,6.72A42.74,42.74,0,0,0,0,50.69L3.72,165.38a42.74,42.74,0,0,0,44,41.23l114.69-3.69a42.2,42.2,0,0,0,21.5-6.65,43.18,43.18,0,0,0,8.2-6.83,42.33,42.33,0,0,0,11.54-30.5L199.92,44.26A42.68,42.68,0,0,0,155.94,3Z"/></clipPath></defs><title>std graphics</title><g class="cls-2"><rect class="cls-3" x="6.82" y="9.82" width="190" height="190" rx="37.63" ry="37.63" transform="matrix(1, -0.03, 0.03, 1, -3.32, 3.33)"/><polyline class="cls-4" points="191.66 47.89 168.12 28.62 145.87 49.37 122.33 30.1 100.08 50.84 76.54 31.57 54.29 52.32 30.75 33.05 8.5 53.79"/><polyline class="cls-4" points="192.23 65.49 168.69 46.23 146.44 66.97 122.9 47.7 100.65 68.44 77.11 49.17 54.85 69.92 31.32 50.65 9.06 71.39"/><polyline class="cls-4" points="192.79 83.1 169.25 63.83 147 84.57 123.46 65.3 101.21 86.05 77.67 66.78 55.42 87.52 31.88 68.25 9.63 88.99"/><polyline class="cls-4" points="193.36 100.7 169.82 81.43 147.57 102.17 124.03 82.9 101.78 103.65 78.24 84.38 55.99 105.12 32.45 85.85 10.2 106.6"/><polyline class="cls-4" points="193.93 118.3 170.39 99.03 148.14 119.77 124.6 100.5 102.35 121.25 78.81 101.98 56.55 122.72 33.02 103.45 10.76 124.2"/><polyline class="cls-4" points="194.5 135.9 170.96 116.63 148.7 137.38 125.16 118.11 102.91 138.85 79.37 119.58 57.12 140.32 33.58 121.06 11.33 141.8"/><polyline class="cls-4" points="195.06 153.5 171.52 134.23 149.27 154.98 125.73 135.71 103.48 156.45 79.94 137.18 57.69 157.93 34.15 138.66 11.9 159.4"/><polyline class="cls-4" points="195.63 171.1 172.09 151.84 149.84 172.58 126.3 153.31 104.05 174.05 80.51 154.78 58.26 175.53 34.72 156.26 12.46 177"/><polyline class="cls-4" points="196.2 188.71 172.66 169.44 150.41 190.18 126.86 170.91 104.61 191.65 81.07 172.39 58.82 193.13 35.28 173.86 13.03 194.6"/><polyline class="cls-4" points="196.76 206.31 173.22 187.04 150.97 207.78 127.43 188.51 105.18 209.26 81.64 189.99 59.39 210.73 35.85 191.46 13.6 212.21"/><polyline class="cls-4" points="191.09 30.29 167.56 11.02 145.3 31.77 121.76 12.5 99.51 33.24 75.97 13.97 53.72 34.72 30.18 15.45 7.93 36.19"/></g></svg>