<?xml version="1.0" encoding="utf-8"?>
<!-- Generator: Adobe Illustrator 22.0.1, SVG Export Plug-In . SVG Version: 6.00 Build 0)  -->
<!DOCTYPE svg PUBLIC "-//W3C//DTD SVG 1.1//EN" "http://www.w3.org/Graphics/SVG/1.1/DTD/svg11.dtd">
<svg version="1.1" id="Layer_1" xmlns="http://www.w3.org/2000/svg" xmlns:xlink="http://www.w3.org/1999/xlink" x="0px" y="0px"
	 viewBox="0 0 611.8 611.8" style="enable-background:new 0 0 611.8 611.8;" xml:space="preserve">
<style type="text/css">
	.st0{fill:#F5FAF8;stroke:#F4783B;stroke-width:11.8;stroke-linecap:round;stroke-linejoin:round;}
	.st1{fill:#F4783B;}
</style>
<title>std web mockupsasfd</title>
<path class="st0" d="M305.9,5.9L305.9,5.9c165.7,0,300,134.3,300,300l0,0c0,165.7-134.3,300-300,300l0,0c-165.7,0-300-134.3-300-300
	l0,0C5.9,140.2,140.2,5.9,305.9,5.9z"/>
<path class="st1" d="M258.8,113.2c2.6,0,4.7,0.7,6.2,2s2.3,3.1,2.3,5.3c0,2.2-0.8,3.9-2.3,5.2c-1.5,1.3-3.6,2-6.2,2H255v5l2.4,0.5
	v2.7H248v-2.7l2.4-0.5v-16.3L248,116v-2.8h2.4H258.8z M255,124.2h3.8c1.3,0,2.2-0.3,2.9-1c0.7-0.7,1-1.6,1-2.6c0-1.1-0.3-2-1-2.7
	s-1.6-1.1-2.9-1.1H255V124.2z"/>
<path class="st1" d="M279,136c-0.1-0.3-0.2-0.6-0.3-0.9s-0.2-0.6-0.2-0.9c-0.5,0.6-1.2,1.1-2,1.5s-1.7,0.6-2.7,0.6
	c-1.7,0-3-0.5-3.9-1.4c-1-0.9-1.5-2.1-1.5-3.7c0-1.6,0.6-2.8,1.9-3.7c1.3-0.9,3.1-1.3,5.6-1.3h2.3v-1.7c0-0.8-0.2-1.4-0.7-1.9
	c-0.5-0.4-1.2-0.7-2.1-0.7c-0.5,0-1,0.1-1.4,0.2s-0.7,0.3-1,0.4l-0.3,1.8h-3.4v-3.8c0.8-0.6,1.8-1,2.9-1.4s2.3-0.6,3.5-0.6
	c2.1,0,3.8,0.5,5.1,1.5c1.3,1,2,2.5,2,4.4v7c0,0.3,0,0.5,0,0.7s0,0.4,0.1,0.7l1.4,0.2v2.7H279V136z M275.1,132.9
	c0.7,0,1.3-0.1,1.9-0.4s1-0.7,1.3-1.1v-2.6H276c-1,0-1.7,0.2-2.2,0.7s-0.8,1-0.8,1.6s0.2,1,0.6,1.3
	C273.9,132.8,274.4,132.9,275.1,132.9z"/>
<path class="st1" d="M291.9,114.9v4.1h3v3.2h-3v8.6c0,0.7,0.1,1.1,0.4,1.4s0.6,0.4,1.1,0.4c0.3,0,0.6,0,0.8,0c0.2,0,0.5-0.1,0.8-0.1
	l0.4,3.3c-0.5,0.2-1,0.3-1.5,0.4s-1,0.1-1.6,0.1c-1.6,0-2.8-0.4-3.6-1.3c-0.8-0.9-1.3-2.2-1.3-4.1v-8.6h-2.5v-3.2h2.5V115
	L291.9,114.9L291.9,114.9z"/>
<path class="st1" d="M304.3,132.8c0.8,0,1.5-0.2,2-0.7s0.7-1.1,0.7-1.9h4.1v0.1c0,1.7-0.6,3.1-1.9,4.3s-3,1.7-4.9,1.7
	c-2.5,0-4.5-0.8-5.8-2.4c-1.4-1.6-2-3.6-2-6.1v-0.5c0-2.5,0.7-4.5,2.1-6.1s3.4-2.4,6-2.4c1.4,0,2.6,0.2,3.7,0.6s2,1,2.7,1.7l0.1,4.5
	h-3.7l-0.7-2.6c-0.2-0.2-0.5-0.4-0.8-0.5s-0.7-0.2-1.1-0.2c-1.3,0-2.2,0.5-2.7,1.4s-0.8,2.1-0.8,3.6v0.5c0,1.5,0.2,2.7,0.7,3.6
	C302.2,132.3,303.1,132.8,304.3,132.8z"/>
<path class="st1" d="M312.6,133.2l2.2-0.5v-18l-2.4-0.5v-2.8h7v9.6c0.5-0.8,1.2-1.4,2-1.8s1.6-0.6,2.6-0.6c1.8,0,3.2,0.6,4.2,1.8
	c1,1.2,1.5,3,1.5,5.4v6.8l2.2,0.5v2.7H323v-2.7l2-0.5v-6.9c0-1.3-0.2-2.2-0.7-2.8c-0.5-0.5-1.2-0.8-2.1-0.8c-0.6,0-1.2,0.1-1.7,0.3
	c-0.5,0.2-0.9,0.6-1.2,1v9.2l2,0.5v2.7h-8.7L312.6,133.2L312.6,133.2z"/>
<path class="st1" d="M340.7,136.3c-2.4,0-4.4-0.8-5.8-2.3c-1.5-1.6-2.2-3.5-2.2-6v-0.6c0-2.5,0.7-4.6,2.1-6.2s3.2-2.4,5.6-2.4
	c2.3,0,4.1,0.7,5.3,2.1c1.3,1.4,1.9,3.2,1.9,5.6v2.5h-10.1v0.1c0.1,1.1,0.5,2,1.1,2.8c0.7,0.7,1.6,1.1,2.7,1.1c1,0,1.8-0.1,2.5-0.3
	s1.4-0.5,2.2-1l1.2,2.8c-0.7,0.6-1.6,1-2.7,1.4S342.1,136.3,340.7,136.3z M340.3,122.3c-0.8,0-1.5,0.3-2,1c-0.5,0.6-0.8,1.5-0.9,2.5
	v0.1h5.6v-0.4c0-1-0.2-1.7-0.7-2.3S341.2,122.3,340.3,122.3z"/>
<path class="st1" d="M363,124.9h-3.1l-0.5-2.1c-0.3-0.2-0.7-0.5-1.2-0.6c-0.5-0.2-1-0.2-1.6-0.2c-0.8,0-1.4,0.2-1.9,0.5
	s-0.7,0.8-0.7,1.4c0,0.5,0.2,0.9,0.7,1.3c0.4,0.3,1.3,0.6,2.7,0.9c2.1,0.4,3.6,1,4.7,1.8c1,0.8,1.5,1.9,1.5,3.3c0,1.5-0.7,2.8-2,3.7
	c-1.3,1-3,1.4-5.2,1.4c-1.3,0-2.5-0.2-3.6-0.6c-1.1-0.4-2.1-0.9-2.9-1.6v-3.8h3.2l0.6,2.2c0.3,0.2,0.6,0.4,1.1,0.5s1,0.2,1.5,0.2
	c0.9,0,1.6-0.2,2.1-0.5s0.7-0.8,0.7-1.4c0-0.5-0.2-0.9-0.7-1.3c-0.5-0.4-1.4-0.7-2.7-1c-2-0.4-3.5-1-4.5-1.8s-1.5-1.9-1.5-3.3
	s0.6-2.6,1.8-3.7c1.2-1,2.8-1.5,5-1.5c1.3,0,2.6,0.2,3.7,0.5c1.2,0.4,2.1,0.8,2.8,1.4V124.9z"/>
<path class="st1" d="M148.8,186.9l1.1-0.2l4.8-13.6h3.2l4.7,13.6l1.1,0.2v1.9h-5.3v-1.9l1.1-0.2l-0.7-2.1h-5.1l-0.7,2.1l1.1,0.2v1.9
	h-5.3L148.8,186.9L148.8,186.9z M154.5,182.2h3.6l-1.8-5.5h-0.1L154.5,182.2z"/>
<path class="st1" d="M170,179v-1.9h4.6l0.2,1.4c0.3-0.5,0.8-0.9,1.2-1.2c0.5-0.3,1-0.4,1.7-0.4c1.4,0,2.6,0.6,3.4,1.7
	s1.2,2.6,1.2,4.4v0.2c0,1.7-0.4,3.1-1.2,4.1s-1.9,1.6-3.3,1.6c-0.6,0-1.1-0.1-1.6-0.3s-0.9-0.6-1.2-1v3.4l1.5,0.3v1.9h-6.2v-1.9
	l1.5-0.3v-11.7L170,179z M179,183.1c0-1.1-0.2-2-0.5-2.7s-0.9-1-1.7-1c-0.5,0-0.9,0.1-1.2,0.3s-0.6,0.5-0.8,0.8v5.1
	c0.2,0.3,0.5,0.6,0.8,0.8s0.7,0.3,1.2,0.3c0.8,0,1.3-0.3,1.7-0.9s0.5-1.4,0.5-2.4V183.1z"/>
<path class="st1" d="M190.8,188.8c-0.1-0.2-0.2-0.4-0.2-0.6c-0.1-0.2-0.1-0.4-0.2-0.6c-0.4,0.4-0.8,0.8-1.4,1
	c-0.5,0.3-1.1,0.4-1.8,0.4c-1.1,0-2-0.3-2.7-0.9c-0.7-0.6-1-1.5-1-2.5c0-1.1,0.4-1.9,1.3-2.5s2.2-0.9,3.8-0.9h1.6V181
	c0-0.6-0.2-1-0.5-1.3s-0.8-0.5-1.4-0.5c-0.4,0-0.7,0-1,0.1s-0.5,0.2-0.7,0.3l-0.2,1.2H184v-2.6c0.6-0.4,1.2-0.7,2-1s1.5-0.4,2.4-0.4
	c1.4,0,2.6,0.4,3.5,1.1c0.9,0.7,1.3,1.7,1.3,3v4.8c0,0.2,0,0.3,0,0.5s0,0.3,0,0.5l1,0.1v1.9L190.8,188.8L190.8,188.8z M188,186.7
	c0.5,0,0.9-0.1,1.3-0.3c0.4-0.2,0.7-0.5,0.9-0.8v-1.8h-1.6c-0.7,0-1.2,0.2-1.5,0.5s-0.5,0.7-0.5,1.1c0,0.4,0.1,0.7,0.4,0.9
	C187.2,186.6,187.6,186.7,188,186.7z"/>
<path class="st1" d="M199.7,174.3v2.8h2v2.2h-2v5.9c0,0.5,0.1,0.8,0.3,1s0.4,0.3,0.8,0.3c0.2,0,0.4,0,0.6,0c0.2,0,0.3,0,0.5-0.1
	l0.3,2.3c-0.4,0.1-0.7,0.2-1,0.2c-0.3,0.1-0.7,0.1-1.1,0.1c-1.1,0-1.9-0.3-2.5-0.9c-0.6-0.6-0.9-1.5-0.9-2.8v-5.9H195v-2.2h1.7v-2.8
	h3V174.3z"/>
<path class="st1" d="M208.3,186.6c0.6,0,1-0.2,1.3-0.5s0.5-0.8,0.5-1.3h2.8v0.1c0,1.2-0.4,2.2-1.3,2.9c-0.9,0.8-2,1.2-3.4,1.2
	c-1.7,0-3.1-0.5-4-1.6s-1.4-2.5-1.4-4.2v-0.3c0-1.7,0.5-3.1,1.4-4.2c1-1.1,2.3-1.7,4.1-1.7c0.9,0,1.8,0.1,2.5,0.4
	c0.7,0.3,1.4,0.7,1.9,1.2v3.1h-2.5l-0.5-1.8c-0.2-0.1-0.4-0.2-0.6-0.3c-0.2-0.1-0.5-0.1-0.8-0.1c-0.9,0-1.5,0.3-1.9,1
	s-0.5,1.5-0.5,2.5v0.3c0,1,0.2,1.9,0.5,2.5C206.8,186.3,207.4,186.6,208.3,186.6z"/>
<path class="st1" d="M214.1,186.9l1.5-0.3v-12.3l-1.7-0.3v-2h4.8v6.6c0.4-0.5,0.8-1,1.3-1.3s1.1-0.4,1.8-0.4c1.2,0,2.2,0.4,2.9,1.2
	s1,2,1,3.7v4.7l1.5,0.3v1.9h-6v-1.9l1.4-0.3v-4.7c0-0.9-0.2-1.5-0.5-1.9s-0.8-0.6-1.4-0.6c-0.4,0-0.8,0.1-1.1,0.2
	c-0.3,0.2-0.6,0.4-0.8,0.7v6.3l1.4,0.3v1.9h-6L214.1,186.9L214.1,186.9z"/>
<path class="st1" d="M250.2,179l-1.2,0.2l-2.4,9.6H244l-2.2-6.9h-0.1l-2.2,6.9H237l-2.4-9.6l-1.2-0.2v-1.9h5.3v1.9l-1.2,0.2l1.1,5.3
	h0.1l2.2-7.4h2.1l2.2,7.5h0.1l1.1-5.3l-1.2-0.2v-1.9h5.3v1.8H250.2z"/>
<path class="st1" d="M250.9,182.9c0-1.7,0.5-3.2,1.5-4.3s2.3-1.7,4-1.7c1.7,0,3.1,0.6,4,1.7c1,1.1,1.5,2.5,1.5,4.3v0.2
	c0,1.7-0.5,3.2-1.5,4.3s-2.3,1.6-4,1.6c-1.7,0-3.1-0.5-4-1.6c-1-1.1-1.5-2.5-1.5-4.3V182.9z M254,183.1c0,1.1,0.2,1.9,0.6,2.6
	c0.4,0.6,1,1,1.8,1s1.4-0.3,1.8-1s0.6-1.5,0.6-2.5V183c0-1-0.2-1.9-0.6-2.5s-1-1-1.8-1s-1.4,0.3-1.8,1S254,182,254,183.1L254,183.1
	L254,183.1z"/>
<path class="st1" d="M262.9,186.9l1.5-0.3v-7.2l-1.7-0.3v-1.9h4.6l0.1,1.7c0.3-0.6,0.6-1.1,1.1-1.4s0.9-0.5,1.5-0.5
	c0.2,0,0.3,0,0.5,0s0.3,0.1,0.5,0.1l-0.3,2.9h-1.3c-0.5,0-0.8,0.1-1.1,0.3s-0.5,0.4-0.7,0.8v5.7l1.5,0.3v1.9H263v-2.1H262.9z"/>
<path class="st1" d="M272.1,186.9l1.5-0.3v-7.2l-1.7-0.3v-1.9h4.6l0.1,1.7c0.4-0.6,0.9-1.1,1.4-1.4c0.6-0.3,1.2-0.5,1.9-0.5
	c1.2,0,2.1,0.4,2.8,1.1c0.7,0.7,1,1.9,1,3.5v5.1l1.5,0.3v1.9h-6V187l1.3-0.3v-5c0-0.8-0.2-1.3-0.5-1.7c-0.3-0.3-0.8-0.5-1.4-0.5
	c-0.4,0-0.8,0.1-1.1,0.3c-0.3,0.2-0.6,0.4-0.8,0.7v6.2l1.3,0.3v1.9h-5.9L272.1,186.9L272.1,186.9z"/>
<path class="st1" d="M291.6,182.9c0-1.7,0.5-3.2,1.5-4.3s2.3-1.7,4-1.7s3.1,0.6,4,1.7c1,1.1,1.5,2.5,1.5,4.3v0.2
	c0,1.7-0.5,3.2-1.5,4.3s-2.3,1.6-4,1.6s-3.1-0.5-4-1.6c-1-1.1-1.5-2.5-1.5-4.3V182.9z M294.8,183.1c0,1.1,0.2,1.9,0.6,2.6
	c0.4,0.6,1,1,1.8,1s1.4-0.3,1.8-1s0.6-1.5,0.6-2.5V183c0-1-0.2-1.9-0.6-2.5c-0.4-0.7-1-1-1.8-1s-1.4,0.3-1.8,1
	S294.8,182,294.8,183.1L294.8,183.1z"/>
<path class="st1" d="M303.5,186.9l1.5-0.3v-7.2l-1.7-0.3v-1.9h4.6l0.1,1.7c0.4-0.6,0.9-1.1,1.4-1.4c0.6-0.3,1.2-0.5,1.9-0.5
	c1.2,0,2.1,0.4,2.8,1.1c0.7,0.7,1,1.9,1,3.5v5.1l1.5,0.3v1.9h-6V187l1.3-0.3v-5c0-0.8-0.2-1.3-0.5-1.7c-0.3-0.3-0.8-0.5-1.4-0.5
	c-0.4,0-0.8,0.1-1.1,0.3c-0.3,0.2-0.6,0.4-0.8,0.7v6.2l1.3,0.3v1.9h-5.9L303.5,186.9L303.5,186.9z"/>
<path class="st1" d="M335,179l-1.1,0.2l-4.3,11.3c-0.3,0.8-0.8,1.5-1.3,2.1c-0.6,0.6-1.4,0.8-2.5,0.8c-0.3,0-0.5,0-0.7-0.1
	c-0.2,0-0.5-0.1-0.8-0.2l0.4-2.3c0.1,0,0.2,0,0.3,0s0.2,0,0.3,0c0.5,0,0.9-0.1,1.2-0.4c0.3-0.3,0.5-0.6,0.6-1l0.4-0.9l-3.7-9.6
	l-1.1-0.2v-1.9h5.7v1.9l-1.3,0.2l1.6,4.6l0.2,0.8h0.1l1.8-5.5l-1.3-0.2v-1.9h5.7v2.3H335z"/>
<path class="st1" d="M335.7,182.9c0-1.7,0.5-3.2,1.5-4.3s2.3-1.7,4-1.7s3.1,0.6,4,1.7s1.5,2.5,1.5,4.3v0.2c0,1.7-0.5,3.2-1.5,4.3
	s-2.3,1.6-4,1.6s-3.1-0.5-4-1.6c-1-1.1-1.5-2.5-1.5-4.3V182.9z M338.8,183.1c0,1.1,0.2,1.9,0.6,2.6c0.4,0.6,1,1,1.8,1s1.4-0.3,1.8-1
	s0.6-1.5,0.6-2.5V183c0-1-0.2-1.9-0.6-2.5c-0.4-0.7-1-1-1.8-1s-1.4,0.3-1.8,1S338.8,182,338.8,183.1L338.8,183.1z"/>
<path class="st1" d="M355.8,187.3c-0.4,0.5-0.8,1-1.4,1.3c-0.5,0.3-1.2,0.4-1.9,0.4c-1.2,0-2.2-0.4-2.9-1.2c-0.7-0.8-1-2-1-3.7v-4.8
	l-1.3-0.3v-1.9h1.3h3.1v7c0,0.8,0.1,1.5,0.4,1.8c0.3,0.4,0.7,0.6,1.3,0.6c0.5,0,0.9-0.1,1.3-0.2c0.4-0.2,0.7-0.4,0.9-0.7v-6.3
	l-1.4-0.3v-1.9h1.4h3.1v9.4l1.4,0.3v1.9h-4.2L355.8,187.3z"/>
<path class="st1" d="M361.6,186.9l1.5-0.3v-7.2l-1.7-0.3v-1.9h4.6l0.1,1.7c0.3-0.6,0.6-1.1,1.1-1.4s0.9-0.5,1.5-0.5
	c0.2,0,0.3,0,0.5,0s0.3,0.1,0.5,0.1l-0.3,2.9h-1.3c-0.5,0-0.8,0.1-1.1,0.3s-0.5,0.4-0.7,0.8v5.7l1.5,0.3v1.9h-6.1v-2.1H361.6z"/>
<path class="st1" d="M387.2,183.3c0,1.7-0.4,3.1-1.2,4.2s-1.9,1.6-3.4,1.6c-0.7,0-1.3-0.1-1.8-0.4c-0.5-0.3-0.9-0.7-1.3-1.2
	l-0.2,1.4h-2.7v-14.5l-1.7-0.3V172h4.8v6.4c0.3-0.5,0.7-0.8,1.2-1.1s1-0.4,1.6-0.4c1.5,0,2.6,0.6,3.4,1.7c0.8,1.1,1.2,2.6,1.2,4.5
	v0.2H387.2z M384.1,183.1c0-1.1-0.2-2-0.5-2.7s-0.9-1-1.7-1c-0.5,0-0.9,0.1-1.2,0.3c-0.3,0.2-0.6,0.5-0.8,0.9v4.9
	c0.2,0.4,0.5,0.6,0.8,0.8s0.8,0.3,1.3,0.3c0.8,0,1.4-0.3,1.7-0.9c0.3-0.6,0.5-1.4,0.5-2.4L384.1,183.1L384.1,183.1z"/>
<path class="st1" d="M394.1,189c-1.7,0-3-0.5-4-1.6s-1.5-2.4-1.5-4.1v-0.4c0-1.7,0.5-3.1,1.4-4.3s2.2-1.7,3.8-1.7
	c1.6,0,2.8,0.5,3.7,1.4c0.9,0.9,1.3,2.2,1.3,3.8v1.7h-6.9v0.1c0.1,0.8,0.3,1.4,0.8,1.9s1.1,0.7,1.9,0.7c0.7,0,1.3-0.1,1.7-0.2
	c0.5-0.1,1-0.4,1.5-0.7l0.8,1.9c-0.5,0.4-1.1,0.7-1.9,1S395.1,189,394.1,189z M393.9,179.3c-0.6,0-1,0.2-1.4,0.7
	c-0.3,0.4-0.5,1-0.6,1.8v0.1h3.8v-0.3c0-0.7-0.2-1.2-0.5-1.6C395,179.5,394.5,179.3,393.9,179.3z"/>
<path class="st1" d="M399.8,173.9V172h4.8v14.6l1.5,0.3v1.9H400v-1.9l1.5-0.3v-12.3L399.8,173.9z"/>
<path class="st1" d="M407,173.9V172h4.8v14.6l1.5,0.3v1.9h-6.2v-1.9l1.5-0.3v-12.3L407,173.9z"/>
<path class="st1" d="M425.9,179l-1.1,0.2l-4.3,11.3c-0.3,0.8-0.8,1.5-1.3,2.1c-0.6,0.6-1.4,0.8-2.5,0.8c-0.3,0-0.5,0-0.7-0.1
	c-0.2,0-0.5-0.1-0.8-0.2l0.4-2.3c0.1,0,0.2,0,0.3,0s0.2,0,0.3,0c0.5,0,0.9-0.1,1.2-0.4c0.3-0.3,0.5-0.6,0.6-1l0.4-0.9l-3.7-9.6
	l-1.1-0.2v-1.9h5.7v1.9l-1.3,0.2l1.6,4.6l0.2,0.8h0.1l1.8-5.5l-1.3-0.2v-1.9h5.7v2.3H425.9z"/>
<path class="st1" d="M428.8,188.4c0,0.7-0.2,1.5-0.6,2.3s-0.9,1.5-1.5,2l-1.5-0.8c0.3-0.5,0.5-1,0.6-1.6c0.2-0.5,0.2-1.1,0.2-1.8
	v-2.3h2.8V188.4z"/>
<path class="st1" d="M137.2,213.7c-0.4,0.5-0.8,1-1.4,1.3s-1.2,0.4-1.9,0.4c-1.2,0-2.2-0.4-2.9-1.2s-1-2-1-3.7v-4.8l-1.3-0.3v-1.9
	h1.3h3.1v7c0,0.8,0.1,1.5,0.4,1.8c0.3,0.4,0.7,0.6,1.3,0.6c0.5,0,0.9-0.1,1.3-0.2c0.4-0.2,0.7-0.4,0.9-0.7v-6.3l-1.4-0.3v-1.9h1.4
	h3.1v9.4l1.4,0.3v1.9h-4.2L137.2,213.7z"/>
<path class="st1" d="M142,205.4v-1.9h4.6l0.2,1.4c0.3-0.5,0.8-0.9,1.2-1.2c0.5-0.3,1-0.4,1.7-0.4c1.4,0,2.6,0.6,3.4,1.7
	s1.2,2.6,1.2,4.4v0.2c0,1.7-0.4,3.1-1.2,4.1s-1.9,1.6-3.3,1.6c-0.6,0-1.1-0.1-1.6-0.3s-0.9-0.6-1.2-1v3.4l1.5,0.3v1.9h-6.2v-1.9
	l1.5-0.3v-11.7L142,205.4z M151,209.5c0-1.1-0.2-2-0.5-2.7s-0.9-1-1.7-1c-0.5,0-0.9,0.1-1.2,0.3s-0.6,0.5-0.8,0.8v5.1
	c0.2,0.3,0.5,0.6,0.8,0.8s0.7,0.3,1.2,0.3c0.8,0,1.3-0.3,1.7-0.9s0.5-1.4,0.5-2.4V209.5z"/>
<path class="st1" d="M154.9,205.4v-1.9h4.6l0.2,1.4c0.3-0.5,0.8-0.9,1.2-1.2c0.5-0.3,1-0.4,1.7-0.4c1.4,0,2.6,0.6,3.4,1.7
	s1.2,2.6,1.2,4.4v0.2c0,1.7-0.4,3.1-1.2,4.1s-1.9,1.6-3.3,1.6c-0.6,0-1.1-0.1-1.6-0.3s-0.9-0.6-1.2-1v3.4l1.5,0.3v1.9h-6.2v-1.9
	l1.5-0.3v-11.7L154.9,205.4z M163.9,209.5c0-1.1-0.2-2-0.5-2.7s-0.9-1-1.7-1c-0.5,0-0.9,0.1-1.2,0.3s-0.6,0.5-0.8,0.8v5.1
	c0.2,0.3,0.5,0.6,0.8,0.8s0.7,0.3,1.2,0.3c0.8,0,1.3-0.3,1.7-0.9s0.5-1.4,0.5-2.4V209.5z"/>
<path class="st1" d="M174,215.4c-1.7,0-3-0.5-4-1.6s-1.5-2.4-1.5-4.1v-0.4c0-1.7,0.5-3.1,1.4-4.3s2.2-1.7,3.8-1.7s2.8,0.5,3.7,1.4
	s1.3,2.2,1.3,3.8v1.7h-6.9v0.1c0.1,0.8,0.3,1.4,0.8,1.9s1.1,0.7,1.9,0.7c0.7,0,1.3-0.1,1.7-0.2c0.5-0.1,1-0.4,1.5-0.7l0.8,1.9
	c-0.5,0.4-1.1,0.7-1.9,1S174.9,215.4,174,215.4z M173.7,205.7c-0.6,0-1,0.2-1.4,0.7c-0.3,0.4-0.5,1-0.6,1.8v0.1h3.8V208
	c0-0.7-0.2-1.2-0.5-1.6C174.8,205.9,174.3,205.7,173.7,205.7z"/>
<path class="st1" d="M180,213.3l1.5-0.3v-7.2l-1.7-0.3v-1.9h4.6l0.1,1.7c0.3-0.6,0.6-1.1,1.1-1.4s0.9-0.5,1.5-0.5c0.2,0,0.3,0,0.5,0
	s0.3,0.1,0.5,0.1l-0.3,2.9h-1.3c-0.5,0-0.8,0.1-1.1,0.3s-0.5,0.4-0.7,0.8v5.7l1.5,0.3v1.9H180V213.3z"/>
<path class="st1" d="M201.8,215.2c-0.1-0.2-0.2-0.4-0.2-0.6c-0.1-0.2-0.1-0.4-0.2-0.6c-0.4,0.4-0.8,0.8-1.4,1s-1.1,0.4-1.8,0.4
	c-1.1,0-2-0.3-2.7-0.9c-0.7-0.6-1-1.5-1-2.5c0-1.1,0.4-1.9,1.3-2.5c0.9-0.6,2.2-0.9,3.8-0.9h1.6v-1.1c0-0.6-0.2-1-0.5-1.3
	s-0.8-0.5-1.4-0.5c-0.4,0-0.7,0-1,0.1s-0.5,0.2-0.7,0.3l-0.2,1.2H195v-2.6c0.6-0.4,1.2-0.7,2-1s1.5-0.4,2.4-0.4
	c1.4,0,2.6,0.4,3.5,1.1c0.9,0.7,1.3,1.7,1.3,3v4.8c0,0.2,0,0.3,0,0.5s0,0.3,0,0.5l1,0.1v1.9H201.8z M199.1,213.1
	c0.5,0,0.9-0.1,1.3-0.3c0.4-0.2,0.7-0.5,0.9-0.8v-1.8h-1.6c-0.7,0-1.2,0.2-1.5,0.5s-0.5,0.7-0.5,1.1c0,0.4,0.1,0.7,0.4,0.9
	S198.6,213.1,199.1,213.1z"/>
<path class="st1" d="M206.7,213.3l1.5-0.3v-7.2l-1.7-0.3v-1.9h4.6l0.1,1.7c0.3-0.6,0.6-1.1,1.1-1.4s0.9-0.5,1.5-0.5
	c0.2,0,0.3,0,0.5,0s0.3,0.1,0.5,0.1l-0.3,2.9h-1.3c-0.5,0-0.8,0.1-1.1,0.3s-0.5,0.4-0.7,0.8v5.7l1.5,0.3v1.9h-6.1v-2.1H206.7z"/>
<path class="st1" d="M215.7,205.4v-1.9h4.6l0.1,1.5c0.4-0.6,0.8-1,1.4-1.3c0.6-0.3,1.2-0.5,1.9-0.5s1.4,0.2,1.9,0.5s0.9,0.8,1.2,1.5
	c0.4-0.6,0.8-1.1,1.4-1.5c0.6-0.4,1.2-0.5,2-0.5c1.1,0,2,0.4,2.7,1.2s1,2,1,3.6v4.8l1.5,0.3v1.9h-6v-1.9l1.4-0.3V208
	c0-0.9-0.1-1.5-0.4-1.8c-0.3-0.3-0.7-0.5-1.3-0.5c-0.4,0-0.8,0.1-1.2,0.3c-0.3,0.2-0.6,0.5-0.8,0.8c0,0.1,0,0.3,0,0.3
	c0,0.1,0,0.2,0,0.3v5.4l1.3,0.3v1.9h-5.7v-1.9l1.3-0.3V208c0-0.9-0.1-1.5-0.4-1.8c-0.3-0.4-0.7-0.5-1.3-0.5c-0.4,0-0.8,0.1-1.1,0.2
	c-0.3,0.2-0.6,0.4-0.8,0.7v6.3l1.4,0.3v1.9h-6v-1.9l1.5-0.3v-7.2L215.7,205.4z"/>
<path class="st1" d="M240.1,214.8c0,0.7-0.2,1.5-0.6,2.3c-0.4,0.8-0.9,1.5-1.5,2l-1.5-0.8c0.3-0.5,0.5-1,0.6-1.6
	c0.2-0.5,0.2-1.1,0.2-1.8v-2.3h2.8V214.8z"/>
<path class="st1" d="M258.5,209.7c0,1.7-0.4,3.1-1.2,4.2s-1.9,1.6-3.4,1.6c-0.7,0-1.3-0.1-1.8-0.4c-0.5-0.3-0.9-0.7-1.3-1.2
	l-0.2,1.4h-2.7v-14.5l-1.7-0.3v-1.9h4.8v6.4c0.3-0.5,0.7-0.8,1.2-1.1s1-0.4,1.6-0.4c1.5,0,2.6,0.6,3.4,1.7
	C258,206.3,258.4,207.8,258.5,209.7L258.5,209.7L258.5,209.7z M255.4,209.5c0-1.1-0.2-2-0.5-2.7s-0.9-1-1.7-1
	c-0.5,0-0.9,0.1-1.2,0.3s-0.6,0.5-0.8,0.9v4.9c0.2,0.4,0.5,0.6,0.8,0.8s0.8,0.3,1.3,0.3c0.8,0,1.4-0.3,1.7-0.9
	c0.3-0.6,0.5-1.4,0.5-2.4v-0.2H255.4z"/>
<path class="st1" d="M267.8,213.7c-0.4,0.5-0.8,1-1.4,1.3s-1.2,0.4-1.9,0.4c-1.2,0-2.2-0.4-2.9-1.2c-0.7-0.8-1-2-1-3.7v-4.8
	l-1.3-0.3v-1.9h1.3h3.1v7c0,0.8,0.1,1.5,0.4,1.8c0.3,0.4,0.7,0.6,1.3,0.6c0.5,0,0.9-0.1,1.3-0.2c0.4-0.2,0.7-0.4,0.9-0.7v-6.3
	l-1.4-0.3v-1.9h1.4h3.1v9.4l1.4,0.3v1.9H268L267.8,213.7z"/>
<path class="st1" d="M277.4,200.7v2.8h2v2.2h-2v5.9c0,0.5,0.1,0.8,0.3,1c0.2,0.2,0.4,0.3,0.8,0.3c0.2,0,0.4,0,0.6,0s0.3,0,0.5-0.1
	l0.3,2.3c-0.4,0.1-0.7,0.2-1,0.2c-0.3,0.1-0.7,0.1-1.1,0.1c-1.1,0-1.9-0.3-2.5-0.9c-0.6-0.6-0.9-1.5-0.9-2.8v-5.9h-1.7v-2.2h1.7
	v-2.8h3V200.7z"/>
<path class="st1" d="M285.6,200.7v2.8h2v2.2h-2v5.9c0,0.5,0.1,0.8,0.3,1c0.2,0.2,0.4,0.3,0.8,0.3c0.2,0,0.4,0,0.6,0s0.3,0,0.5-0.1
	l0.3,2.3c-0.4,0.1-0.7,0.2-1,0.2c-0.3,0.1-0.7,0.1-1.1,0.1c-1.1,0-1.9-0.3-2.5-0.9c-0.6-0.6-0.9-1.5-0.9-2.8v-5.9h-1.7v-2.2h1.7
	v-2.8h3V200.7z"/>
<path class="st1" d="M292.7,214.8c0,0.7-0.2,1.5-0.6,2.3s-0.9,1.5-1.5,2l-1.5-0.8c0.3-0.5,0.5-1,0.6-1.6c0.2-0.5,0.2-1.1,0.2-1.8
	v-2.3h2.8V214.8z"/>
<path class="st1" d="M299.9,209.3c0-1.7,0.5-3.2,1.5-4.3s2.3-1.7,4-1.7s3.1,0.6,4,1.7s1.5,2.5,1.5,4.3v0.2c0,1.7-0.5,3.2-1.5,4.3
	s-2.3,1.6-4,1.6s-3.1-0.5-4-1.6c-1-1.1-1.5-2.5-1.5-4.3V209.3z M303,209.5c0,1.1,0.2,1.9,0.6,2.6c0.4,0.6,1,1,1.8,1s1.4-0.3,1.8-1
	s0.6-1.5,0.6-2.5v-0.2c0-1-0.2-1.9-0.6-2.5c-0.4-0.7-1-1-1.8-1s-1.4,0.3-1.8,1S303,208.4,303,209.5L303,209.5z"/>
<path class="st1" d="M311.9,213.3l1.5-0.3v-7.2l-1.7-0.3v-1.9h4.6l0.1,1.7c0.3-0.6,0.6-1.1,1.1-1.4s0.9-0.5,1.5-0.5
	c0.2,0,0.3,0,0.5,0s0.3,0.1,0.5,0.1l-0.3,2.9h-1.3c-0.5,0-0.8,0.1-1.1,0.3s-0.5,0.4-0.7,0.8v5.7l1.5,0.3v1.9H312v-2.1H311.9z"/>
<path class="st1" d="M337.6,209.7c0,1.7-0.4,3.1-1.2,4.2s-1.9,1.6-3.4,1.6c-0.7,0-1.3-0.1-1.8-0.4c-0.5-0.3-0.9-0.7-1.3-1.2
	l-0.2,1.4H327v-14.5l-1.7-0.3v-1.9h4.8v6.4c0.3-0.5,0.7-0.8,1.2-1.1s1-0.4,1.6-0.4c1.5,0,2.6,0.6,3.4,1.7c0.8,1.1,1.2,2.6,1.2,4.5
	l0,0H337.6z M334.5,209.5c0-1.1-0.2-2-0.5-2.7s-0.9-1-1.7-1c-0.5,0-0.9,0.1-1.2,0.3c-0.3,0.2-0.6,0.5-0.8,0.9v4.9
	c0.2,0.4,0.5,0.6,0.8,0.8s0.8,0.3,1.3,0.3c0.8,0,1.4-0.3,1.7-0.9c0.3-0.6,0.5-1.4,0.5-2.4L334.5,209.5L334.5,209.5z"/>
<path class="st1" d="M346.2,215.2c-0.1-0.2-0.2-0.4-0.2-0.6c-0.1-0.2-0.1-0.4-0.2-0.6c-0.4,0.4-0.8,0.8-1.4,1
	c-0.5,0.3-1.1,0.4-1.8,0.4c-1.1,0-2-0.3-2.7-0.9c-0.7-0.6-1-1.5-1-2.5c0-1.1,0.4-1.9,1.3-2.5s2.2-0.9,3.8-0.9h1.6v-1.1
	c0-0.6-0.2-1-0.5-1.3s-0.8-0.5-1.4-0.5c-0.4,0-0.7,0-1,0.1s-0.5,0.2-0.7,0.3l-0.2,1.2h-2.4v-2.6c0.6-0.4,1.2-0.7,2-1
	s1.5-0.4,2.4-0.4c1.4,0,2.6,0.4,3.5,1.1c0.9,0.7,1.3,1.7,1.3,3v4.8c0,0.2,0,0.3,0,0.5s0,0.3,0,0.5l1,0.1v1.9H346.2z M343.5,213.1
	c0.5,0,0.9-0.1,1.3-0.3s0.7-0.5,0.9-0.8v-1.8h-1.6c-0.7,0-1.2,0.2-1.5,0.5s-0.5,0.7-0.5,1.1c0,0.4,0.1,0.7,0.4,0.9
	C342.7,213,343,213.1,343.5,213.1z"/>
<path class="st1" d="M356.1,213c0.6,0,1-0.2,1.3-0.5s0.5-0.8,0.5-1.3h2.8v0.1c0,1.2-0.4,2.2-1.3,2.9c-0.9,0.8-2,1.2-3.4,1.2
	c-1.7,0-3.1-0.5-4-1.6s-1.4-2.5-1.4-4.2v-0.3c0-1.7,0.5-3.1,1.4-4.2s2.3-1.7,4.1-1.7c0.9,0,1.8,0.1,2.5,0.4c0.7,0.3,1.4,0.7,1.9,1.2
	v3.1H358l-0.5-1.8c-0.2-0.1-0.4-0.2-0.6-0.3s-0.5-0.1-0.8-0.1c-0.9,0-1.5,0.3-1.9,1s-0.5,1.5-0.5,2.5v0.3c0,1,0.2,1.9,0.5,2.5
	C354.7,212.7,355.3,213,356.1,213z"/>
<path class="st1" d="M361.8,200.3v-1.9h4.8v9.7h0.7l1.8-2.5l-1-0.1v-1.9h5.7v1.9l-1.4,0.3l-2.1,2.9l2.9,4.4l1.2,0.2v1.9H369v-1.9
	l0.6-0.1l-1.8-2.9h-1.3v2.7l1.4,0.3v1.9h-6v-1.9l1.5-0.3v-12.3L361.8,200.3z"/>
<path class="st1" d="M385.5,200.7v2.8h2v2.2h-2v5.9c0,0.5,0.1,0.8,0.3,1s0.4,0.3,0.8,0.3c0.2,0,0.4,0,0.6,0s0.3,0,0.5-0.1l0.3,2.3
	c-0.4,0.1-0.7,0.2-1,0.2c-0.3,0.1-0.7,0.1-1.1,0.1c-1.1,0-1.9-0.3-2.5-0.9c-0.6-0.6-0.9-1.5-0.9-2.8v-5.9h-1.7v-2.2h1.7v-2.8h3
	V200.7z"/>
<path class="st1" d="M389.1,213.3l1.5-0.3v-12.3l-1.7-0.3v-1.9h4.8v6.6c0.4-0.5,0.8-1,1.3-1.3s1.1-0.4,1.8-0.4
	c1.2,0,2.2,0.4,2.9,1.2c0.7,0.8,1,2,1,3.7v4.7l1.5,0.3v1.9h-6v-1.9l1.4-0.3v-4.7c0-0.9-0.2-1.5-0.5-1.9s-0.8-0.6-1.4-0.6
	c-0.4,0-0.8,0.1-1.1,0.2c-0.3,0.2-0.6,0.4-0.8,0.7v6.3l1.4,0.3v1.9h-6L389.1,213.3L389.1,213.3z"/>
<path class="st1" d="M410.6,215.2c-0.1-0.2-0.2-0.4-0.2-0.6c-0.1-0.2-0.1-0.4-0.2-0.6c-0.4,0.4-0.8,0.8-1.4,1s-1.1,0.4-1.8,0.4
	c-1.1,0-2-0.3-2.7-0.9c-0.7-0.6-1-1.5-1-2.5c0-1.1,0.4-1.9,1.3-2.5s2.2-0.9,3.8-0.9h1.6v-1.1c0-0.6-0.2-1-0.5-1.3s-0.8-0.5-1.4-0.5
	c-0.4,0-0.7,0-1,0.1s-0.5,0.2-0.7,0.3l-0.2,1.2H404v-2.6c0.6-0.4,1.2-0.7,2-1s1.5-0.4,2.4-0.4c1.4,0,2.6,0.4,3.5,1.1
	c0.9,0.7,1.3,1.7,1.3,3v4.8c0,0.2,0,0.3,0,0.5s0,0.3,0,0.5l1,0.1v1.9H410.6z M407.9,213.1c0.5,0,0.9-0.1,1.3-0.3s0.7-0.5,0.9-0.8
	v-1.8h-1.6c-0.7,0-1.2,0.2-1.5,0.5s-0.5,0.7-0.5,1.1c0,0.4,0.1,0.7,0.4,0.9S407.4,213.1,407.9,213.1z"/>
<path class="st1" d="M419.5,200.7v2.8h2v2.2h-2v5.9c0,0.5,0.1,0.8,0.3,1c0.2,0.2,0.4,0.3,0.8,0.3c0.2,0,0.4,0,0.6,0s0.3,0,0.5-0.1
	l0.3,2.3c-0.4,0.1-0.7,0.2-1,0.2c-0.3,0.1-0.7,0.1-1.1,0.1c-1.1,0-1.9-0.3-2.5-0.9s-0.9-1.5-0.9-2.8v-5.9h-1.7v-2.2h1.7v-2.8h3
	V200.7z"/>
<path class="st1" d="M138.5,233.9h-2.1l-0.3-1.5c-0.2-0.2-0.5-0.3-0.8-0.4c-0.3-0.1-0.7-0.2-1.1-0.2c-0.6,0-1,0.1-1.3,0.4
	c-0.3,0.2-0.5,0.6-0.5,0.9c0,0.4,0.2,0.6,0.5,0.9c0.3,0.2,0.9,0.4,1.8,0.6c1.4,0.3,2.5,0.7,3.2,1.3s1,1.3,1,2.3s-0.4,1.9-1.3,2.6
	c-0.9,0.7-2.1,1-3.6,1c-0.9,0-1.7-0.1-2.5-0.4c-0.7-0.3-1.4-0.6-2-1.1v-2.6h2.2l0.4,1.5c0.2,0.2,0.4,0.3,0.8,0.3
	c0.3,0.1,0.7,0.1,1,0.1c0.6,0,1.1-0.1,1.5-0.3s0.5-0.5,0.5-0.9c0-0.3-0.2-0.6-0.5-0.9c-0.3-0.3-1-0.5-1.9-0.7
	c-1.4-0.3-2.4-0.7-3.1-1.2c-0.7-0.5-1-1.3-1-2.2c0-1,0.4-1.8,1.2-2.5s1.9-1.1,3.4-1.1c0.9,0,1.8,0.1,2.6,0.4s1.4,0.6,1.9,0.9
	L138.5,233.9z"/>
<path class="st1" d="M140.1,239.7l1.5-0.3V227l-1.7-0.3v-1.9h4.8v6.6c0.4-0.5,0.8-1,1.3-1.3s1.1-0.4,1.8-0.4c1.2,0,2.2,0.4,2.9,1.2
	s1,2,1,3.7v4.7l1.5,0.3v1.9h-6v-1.9l1.4-0.3v-4.7c0-0.9-0.2-1.5-0.5-1.9s-0.8-0.6-1.4-0.6c-0.4,0-0.8,0.1-1.1,0.2
	c-0.3,0.2-0.6,0.4-0.8,0.7v6.3l1.4,0.3v1.9h-6L140.1,239.7L140.1,239.7z"/>
<path class="st1" d="M153.9,235.7c0-1.7,0.5-3.2,1.5-4.3s2.3-1.7,4-1.7s3.1,0.6,4,1.7s1.5,2.5,1.5,4.3v0.2c0,1.7-0.5,3.2-1.5,4.3
	s-2.3,1.6-4,1.6s-3.1-0.5-4-1.6c-1-1.1-1.5-2.5-1.5-4.3V235.7z M157.1,235.9c0,1.1,0.2,1.9,0.6,2.6c0.4,0.6,1,1,1.8,1s1.4-0.3,1.8-1
	s0.6-1.5,0.6-2.5v-0.2c0-1-0.2-1.9-0.6-2.5c-0.4-0.7-1-1-1.8-1s-1.4,0.3-1.8,1C157.3,234,157.1,234.8,157.1,235.9L157.1,235.9z"/>
<path class="st1" d="M174.1,240.1c-0.4,0.5-0.8,1-1.4,1.3s-1.2,0.4-1.9,0.4c-1.2,0-2.2-0.4-2.9-1.2s-1-2-1-3.7v-4.8l-1.3-0.3v-1.9
	h1.3h3.1v7c0,0.8,0.1,1.5,0.4,1.8c0.3,0.4,0.7,0.6,1.3,0.6c0.5,0,0.9-0.1,1.3-0.2c0.4-0.2,0.7-0.4,0.9-0.7v-6.3l-1.4-0.3v-1.9h1.4
	h3.1v9.4l1.4,0.3v1.9h-4.2L174.1,240.1z"/>
<path class="st1" d="M179.4,226.7v-1.9h4.8v14.6l1.5,0.3v1.9h-6.2v-1.9l1.5-0.3V227L179.4,226.7z"/>
<path class="st1" d="M194.1,240.2c-0.4,0.5-0.8,0.9-1.3,1.2s-1.1,0.4-1.7,0.4c-1.4,0-2.5-0.5-3.3-1.6c-0.8-1-1.2-2.4-1.2-4.1v-0.2
	c0-1.8,0.4-3.3,1.2-4.4s1.9-1.7,3.4-1.7c0.6,0,1.1,0.1,1.6,0.4c0.5,0.3,0.9,0.6,1.2,1.1V227l-1.7-0.3v-1.9h1.7h3.1v14.6l1.5,0.3v1.9
	h-4.2L194.1,240.2z M189.7,236.1c0,1,0.2,1.8,0.5,2.4c0.3,0.6,0.9,0.9,1.7,0.9c0.5,0,0.9-0.1,1.2-0.3s0.6-0.5,0.8-0.8v-4.9
	c-0.2-0.4-0.5-0.7-0.8-0.9s-0.7-0.3-1.2-0.3c-0.8,0-1.3,0.3-1.7,1s-0.5,1.6-0.5,2.7V236.1z"/>
<path class="st1" d="M216.2,236.1c0,1.7-0.4,3.1-1.2,4.2s-1.9,1.6-3.4,1.6c-0.7,0-1.3-0.1-1.8-0.4c-0.5-0.3-0.9-0.7-1.3-1.2
	l-0.2,1.4h-2.7V227l-1.7-0.3v-1.9h4.8v6.4c0.3-0.5,0.7-0.8,1.2-1.1s1-0.4,1.6-0.4c1.5,0,2.6,0.6,3.4,1.7c0.8,1.1,1.2,2.6,1.2,4.5
	L216.2,236.1L216.2,236.1z M213.1,235.9c0-1.1-0.2-2-0.5-2.7s-0.9-1-1.7-1c-0.5,0-0.9,0.1-1.2,0.3s-0.6,0.5-0.8,0.9v4.9
	c0.2,0.4,0.5,0.6,0.8,0.8s0.8,0.3,1.3,0.3c0.8,0,1.4-0.3,1.7-0.9c0.3-0.6,0.5-1.4,0.5-2.4v-0.2H213.1z"/>
<path class="st1" d="M223.1,241.8c-1.7,0-3-0.5-4-1.6s-1.5-2.4-1.5-4.1v-0.4c0-1.7,0.5-3.1,1.4-4.3c0.9-1.1,2.2-1.7,3.8-1.7
	s2.8,0.5,3.7,1.4s1.3,2.2,1.3,3.8v1.7h-6.9v0.1c0.1,0.8,0.3,1.4,0.8,1.9s1.1,0.7,1.9,0.7c0.7,0,1.3-0.1,1.7-0.2
	c0.5-0.1,1-0.4,1.5-0.7l0.8,1.9c-0.5,0.4-1.1,0.7-1.9,1S224,241.8,223.1,241.8z M222.8,232.1c-0.6,0-1,0.2-1.4,0.7
	c-0.3,0.4-0.5,1-0.6,1.8v0.1h3.8v-0.3c0-0.7-0.2-1.2-0.5-1.6C223.9,232.3,223.5,232.1,222.8,232.1z"/>
<path class="st1" d="M234.9,239.7l1.5-0.3v-7.2l-1.7-0.3V230h4.6l0.1,1.7c0.3-0.6,0.6-1.1,1.1-1.4s0.9-0.5,1.5-0.5
	c0.2,0,0.3,0,0.5,0s0.3,0.1,0.5,0.1l-0.3,2.9h-1.3c-0.5,0-0.8,0.1-1.1,0.3s-0.5,0.4-0.7,0.8v5.7l1.5,0.3v1.9H235v-2.1H234.9z"/>
<path class="st1" d="M249.2,241.8c-1.7,0-3-0.5-4-1.6s-1.5-2.4-1.5-4.1v-0.4c0-1.7,0.5-3.1,1.4-4.3c0.9-1.1,2.2-1.7,3.8-1.7
	s2.8,0.5,3.7,1.4s1.3,2.2,1.3,3.8v1.7H247v0.1c0.1,0.8,0.3,1.4,0.8,1.9s1.1,0.7,1.9,0.7c0.7,0,1.3-0.1,1.7-0.2
	c0.5-0.1,1-0.4,1.5-0.7l0.8,1.9c-0.5,0.4-1.1,0.7-1.9,1S250.1,241.8,249.2,241.8z M248.9,232.1c-0.6,0-1,0.2-1.4,0.7s-0.5,1-0.6,1.8
	v0.1h3.8v-0.3c0-0.7-0.2-1.2-0.5-1.6C250,232.3,249.6,232.1,248.9,232.1z"/>
<path class="st1" d="M254.7,231.8v-1.9h4.6l0.2,1.4c0.3-0.5,0.8-0.9,1.2-1.2c0.5-0.3,1-0.4,1.7-0.4c1.4,0,2.6,0.6,3.4,1.7
	s1.2,2.6,1.2,4.4v0.2c0,1.7-0.4,3.1-1.2,4.1s-1.9,1.6-3.3,1.6c-0.6,0-1.1-0.1-1.6-0.3s-0.9-0.6-1.2-1v3.4l1.5,0.3v1.9H255v-1.9
	l1.5-0.3v-11.7L254.7,231.8z M263.7,235.9c0-1.1-0.2-2-0.5-2.7s-0.9-1-1.7-1c-0.5,0-0.9,0.1-1.2,0.3s-0.6,0.5-0.8,0.8v5.1
	c0.2,0.3,0.5,0.6,0.8,0.8s0.7,0.3,1.2,0.3c0.8,0,1.3-0.3,1.7-0.9s0.5-1.4,0.5-2.4V235.9z"/>
<path class="st1" d="M267.7,226.7v-1.9h4.8v14.6l1.5,0.3v1.9h-6.2v-1.9l1.5-0.3V227L267.7,226.7z"/>
<path class="st1" d="M282.4,241.6c-0.1-0.2-0.2-0.4-0.2-0.6c-0.1-0.2-0.1-0.4-0.2-0.6c-0.4,0.4-0.8,0.8-1.4,1
	c-0.5,0.3-1.1,0.4-1.8,0.4c-1.1,0-2-0.3-2.7-0.9c-0.7-0.6-1-1.5-1-2.5c0-1.1,0.4-1.9,1.3-2.5s2.2-0.9,3.8-0.9h1.6v-1.1
	c0-0.6-0.2-1-0.5-1.3s-0.8-0.5-1.4-0.5c-0.4,0-0.7,0-1,0.1s-0.5,0.2-0.7,0.3l-0.2,1.2h-2.4v-2.6c0.6-0.4,1.2-0.7,2-1
	s1.5-0.4,2.4-0.4c1.4,0,2.6,0.4,3.5,1.1c0.9,0.7,1.3,1.7,1.3,3v4.8c0,0.2,0,0.3,0,0.5s0,0.3,0,0.5l1,0.1v1.9H282.4z M279.7,239.5
	c0.5,0,0.9-0.1,1.3-0.3s0.7-0.5,0.9-0.8v-1.8h-1.6c-0.7,0-1.2,0.2-1.5,0.5s-0.5,0.7-0.5,1.1c0,0.4,0.1,0.7,0.4,0.9
	C278.9,239.4,279.3,239.5,279.7,239.5z"/>
<path class="st1" d="M292.4,239.4c0.6,0,1-0.2,1.3-0.5s0.5-0.8,0.5-1.3h2.8v0.1c0,1.2-0.4,2.2-1.3,2.9c-0.9,0.8-2,1.2-3.4,1.2
	c-1.7,0-3.1-0.5-4-1.6s-1.4-2.5-1.4-4.2v-0.3c0-1.7,0.5-3.1,1.4-4.2c1-1.1,2.3-1.7,4.1-1.7c0.9,0,1.8,0.1,2.5,0.4s1.4,0.7,1.9,1.2
	v3.1h-2.5l-0.5-1.8c-0.2-0.1-0.4-0.2-0.6-0.3s-0.5-0.1-0.8-0.1c-0.9,0-1.5,0.3-1.9,1s-0.5,1.5-0.5,2.5v0.3c0,1,0.2,1.9,0.5,2.5
	C290.9,239.1,291.5,239.4,292.4,239.4z"/>
<path class="st1" d="M303.9,241.8c-1.7,0-3-0.5-4-1.6s-1.5-2.4-1.5-4.1v-0.4c0-1.7,0.5-3.1,1.4-4.3c0.9-1.1,2.2-1.7,3.8-1.7
	c1.6,0,2.8,0.5,3.7,1.4c0.9,0.9,1.3,2.2,1.3,3.8v1.7h-6.9v0.1c0.1,0.8,0.3,1.4,0.8,1.9s1.1,0.7,1.9,0.7c0.7,0,1.3-0.1,1.7-0.2
	c0.5-0.1,1-0.4,1.5-0.7l0.8,1.9c-0.5,0.4-1.1,0.7-1.9,1C305.7,241.7,304.8,241.8,303.9,241.8z M303.6,232.1c-0.6,0-1,0.2-1.4,0.7
	c-0.3,0.4-0.5,1-0.6,1.8v0.1h3.8v-0.3c0-0.7-0.2-1.2-0.5-1.6C304.7,232.3,304.3,232.1,303.6,232.1z"/>
<path class="st1" d="M317.6,240.2c-0.4,0.5-0.8,0.9-1.3,1.2s-1.1,0.4-1.7,0.4c-1.4,0-2.5-0.5-3.3-1.6s-1.2-2.4-1.2-4.1v-0.2
	c0-1.8,0.4-3.3,1.2-4.4s1.9-1.7,3.4-1.7c0.6,0,1.1,0.1,1.6,0.4c0.5,0.3,0.9,0.6,1.2,1.1V227l-1.7-0.3v-1.9h1.7h3.1v14.6l1.5,0.3v1.9
	h-4.2L317.6,240.2z M313.2,236.1c0,1,0.2,1.8,0.5,2.4c0.3,0.6,0.9,0.9,1.7,0.9c0.5,0,0.9-0.1,1.2-0.3c0.3-0.2,0.6-0.5,0.8-0.8v-4.9
	c-0.2-0.4-0.5-0.7-0.8-0.9s-0.7-0.3-1.2-0.3c-0.8,0-1.3,0.3-1.7,1c-0.4,0.7-0.5,1.6-0.5,2.7V236.1z"/>
<path class="st1" d="M334,241.8c-1.7,0-3-0.5-4-1.6s-1.5-2.4-1.5-4.1v-0.4c0-1.7,0.5-3.1,1.4-4.3s2.2-1.7,3.8-1.7
	c1.6,0,2.8,0.5,3.7,1.4s1.3,2.2,1.3,3.8v1.7h-6.9v0.1c0.1,0.8,0.3,1.4,0.8,1.9s1.1,0.7,1.9,0.7c0.7,0,1.3-0.1,1.7-0.2
	c0.5-0.1,1-0.4,1.5-0.7l0.8,1.9c-0.5,0.4-1.1,0.7-1.9,1C335.8,241.7,334.9,241.8,334,241.8z M333.7,232.1c-0.6,0-1,0.2-1.4,0.7
	s-0.5,1-0.6,1.8v0.1h3.8v-0.3c0-0.7-0.2-1.2-0.5-1.6C334.8,232.3,334.3,232.1,333.7,232.1z"/>
<path class="st1" d="M344.8,231.8l-1.1,0.2l1.5,5.2l0.2,1.1h0.1l0.2-1.1l1.5-5.2l-1.1-0.2v-1.9h5.3v1.9l-1,0.2l-3.4,9.6h-3l-3.4-9.6
	l-1-0.2v-1.9h5.3v1.9H344.8z"/>
<path class="st1" d="M357.6,241.8c-1.7,0-3-0.5-4-1.6s-1.5-2.4-1.5-4.1v-0.4c0-1.7,0.5-3.1,1.4-4.3s2.2-1.7,3.8-1.7
	c1.6,0,2.8,0.5,3.7,1.4c0.9,0.9,1.3,2.2,1.3,3.8v1.7h-6.9v0.1c0.1,0.8,0.3,1.4,0.8,1.9s1.1,0.7,1.9,0.7c0.7,0,1.3-0.1,1.7-0.2
	c0.5-0.1,1-0.4,1.5-0.7l0.8,1.9c-0.5,0.4-1.1,0.7-1.9,1S358.5,241.8,357.6,241.8z M357.3,232.1c-0.6,0-1,0.2-1.4,0.7
	c-0.3,0.4-0.5,1-0.6,1.8v0.1h3.8v-0.3c0-0.7-0.2-1.2-0.5-1.6C358.4,232.3,358,232.1,357.3,232.1z"/>
<path class="st1" d="M363.6,239.7l1.5-0.3v-7.2l-1.7-0.3V230h4.6l0.1,1.7c0.3-0.6,0.6-1.1,1.1-1.4s0.9-0.5,1.5-0.5
	c0.2,0,0.3,0,0.5,0s0.3,0.1,0.5,0.1l-0.3,2.9h-1.3c-0.5,0-0.8,0.1-1.1,0.3s-0.5,0.4-0.7,0.8v5.7l1.5,0.3v1.9h-6.1v-2.1H363.6z"/>
<path class="st1" d="M385,231.8l-1.1,0.2l-4.3,11.3c-0.3,0.8-0.8,1.5-1.3,2.1s-1.4,0.8-2.5,0.8c-0.3,0-0.5,0-0.7-0.1
	s-0.5-0.1-0.8-0.2l0.4-2.3c0.1,0,0.2,0,0.3,0s0.2,0,0.3,0c0.5,0,0.9-0.1,1.2-0.4c0.3-0.3,0.5-0.6,0.6-1l0.4-0.9l-3.7-9.6l-1.1-0.2
	v-1.9h5.7v1.9l-1.3,0.2l1.6,4.6l0.2,0.8h0.1l1.8-5.5l-1.3-0.2v-1.9h5.7v2.3H385z"/>
<path class="st1" d="M408,231.8l-1.2,0.2l-2.4,9.6h-2.6l-2.2-6.9h-0.1l-2.2,6.9h-2.6l-2.4-9.6l-1.2-0.2v-1.9h5.3v1.9l-1.2,0.2
	l1.1,5.3h0.1l2.2-7.4h2.1l2.2,7.5h0.1l1.1-5.3l-1.2-0.2V230h5.3v1.8H408z"/>
<path class="st1" d="M414.2,241.8c-1.7,0-3-0.5-4-1.6s-1.5-2.4-1.5-4.1v-0.4c0-1.7,0.5-3.1,1.4-4.3c0.9-1.1,2.2-1.7,3.8-1.7
	c1.6,0,2.8,0.5,3.7,1.4s1.3,2.2,1.3,3.8v1.7H412v0.1c0.1,0.8,0.3,1.4,0.8,1.9s1.1,0.7,1.9,0.7c0.7,0,1.3-0.1,1.7-0.2
	c0.5-0.1,1-0.4,1.5-0.7l0.8,1.9c-0.5,0.4-1.1,0.7-1.9,1S415.1,241.8,414.2,241.8z M413.9,232.1c-0.6,0-1,0.2-1.4,0.7s-0.5,1-0.6,1.8
	v0.1h3.8v-0.3c0-0.7-0.2-1.2-0.5-1.6C415,232.3,414.6,232.1,413.9,232.1z"/>
<path class="st1" d="M425.8,241.8c-1.7,0-3-0.5-4-1.6s-1.5-2.4-1.5-4.1v-0.4c0-1.7,0.5-3.1,1.4-4.3c0.9-1.1,2.2-1.7,3.8-1.7
	c1.6,0,2.8,0.5,3.7,1.4s1.3,2.2,1.3,3.8v1.7h-6.9v0.1c0.1,0.8,0.3,1.4,0.8,1.9s1.1,0.7,1.9,0.7c0.7,0,1.3-0.1,1.7-0.2
	c0.5-0.1,1-0.4,1.5-0.7l0.8,1.9c-0.5,0.4-1.1,0.7-1.9,1S426.8,241.8,425.8,241.8z M425.6,232.1c-0.6,0-1,0.2-1.4,0.7s-0.5,1-0.6,1.8
	v0.1h3.8v-0.3c0-0.7-0.2-1.2-0.5-1.6C426.7,232.3,426.2,232.1,425.6,232.1z"/>
<path class="st1" d="M431.5,226.7v-1.9h4.8v9.7h0.7l1.8-2.5l-1-0.1V230h5.7v1.9l-1.4,0.3L440,235l2.9,4.4l1.2,0.2v1.9h-5.4v-1.9
	l0.6-0.1l-1.8-2.9h-1.3v2.7l1.4,0.3v1.9h-6v-1.9l1.5-0.3V227L431.5,226.7z"/>
<path class="st1" d="M449.2,241.6h-3.1v-2.8h3.1V241.6z"/>
<path class="st1" d="M149,280.6v-1.9h6.5v1.9l-1.7,0.3v11.2l1.7,0.3v1.9H149v-1.9l1.7-0.3v-11.2L149,280.6z"/>
<path class="st1" d="M160.7,279.9v2.8h2v2.2h-2v5.9c0,0.5,0.1,0.8,0.3,1s0.4,0.3,0.8,0.3c0.2,0,0.4,0,0.6,0c0.2,0,0.3,0,0.5-0.1
	l0.3,2.3c-0.4,0.1-0.7,0.2-1,0.2c-0.3,0.1-0.7,0.1-1.1,0.1c-1.1,0-1.9-0.3-2.5-0.9s-0.9-1.5-0.9-2.8V285H156v-2.2h1.7V280h3V279.9z"
	/>
<path class="st1" d="M179.2,286.7h-2.1l-0.3-1.5c-0.2-0.2-0.5-0.3-0.8-0.4s-0.7-0.2-1.1-0.2c-0.6,0-1,0.1-1.3,0.4
	c-0.3,0.2-0.5,0.6-0.5,0.9c0,0.4,0.2,0.6,0.5,0.9c0.3,0.2,0.9,0.4,1.8,0.6c1.4,0.3,2.5,0.7,3.2,1.3c0.7,0.6,1,1.3,1,2.3
	s-0.4,1.9-1.3,2.6c-0.9,0.7-2.1,1-3.6,1c-0.9,0-1.7-0.1-2.5-0.4c-0.7-0.3-1.4-0.6-2-1.1v-2.6h2.2l0.4,1.5c0.2,0.2,0.4,0.3,0.8,0.3
	c0.3,0.1,0.7,0.1,1,0.1c0.6,0,1.1-0.1,1.5-0.3s0.5-0.5,0.5-0.9c0-0.3-0.2-0.6-0.5-0.9s-1-0.5-1.9-0.7c-1.4-0.3-2.4-0.7-3.1-1.2
	c-0.7-0.5-1-1.3-1-2.2c0-1,0.4-1.8,1.2-2.5s1.9-1.1,3.4-1.1c0.9,0,1.8,0.1,2.6,0.4s1.4,0.6,1.9,0.9L179.2,286.7z"/>
<path class="st1" d="M180.7,292.5l1.5-0.3v-12.3l-1.7-0.3v-1.9h4.8v6.6c0.4-0.5,0.8-1,1.3-1.3s1.1-0.4,1.8-0.4
	c1.2,0,2.2,0.4,2.9,1.2c0.7,0.8,1,2,1,3.7v4.7l1.5,0.3v1.9h-6v-1.9l1.4-0.3v-4.7c0-0.9-0.2-1.5-0.5-1.9s-0.8-0.6-1.4-0.6
	c-0.4,0-0.8,0.1-1.1,0.2s-0.6,0.4-0.8,0.7v6.3l1.4,0.3v1.9h-6L180.7,292.5L180.7,292.5z"/>
<path class="st1" d="M194.6,288.5c0-1.7,0.5-3.2,1.5-4.3c1-1.1,2.3-1.7,4-1.7s3.1,0.6,4,1.7c1,1.1,1.5,2.5,1.5,4.3v0.2
	c0,1.7-0.5,3.2-1.5,4.3c-1,1.1-2.3,1.6-4,1.6s-3.1-0.5-4-1.6c-1-1.1-1.5-2.5-1.5-4.3V288.5z M197.7,288.7c0,1.1,0.2,1.9,0.6,2.6
	c0.4,0.6,1,1,1.8,1s1.4-0.3,1.8-1s0.6-1.5,0.6-2.5v-0.2c0-1-0.2-1.9-0.6-2.5c-0.4-0.7-1-1-1.8-1s-1.4,0.3-1.8,1
	c-0.4,0.7-0.6,1.5-0.6,2.5V288.7z"/>
<path class="st1" d="M214.7,292.9c-0.4,0.5-0.8,1-1.4,1.3s-1.2,0.4-1.9,0.4c-1.2,0-2.2-0.4-2.9-1.2c-0.7-0.8-1-2-1-3.7V285l-1.3-0.3
	v-1.9h1.3h3.1v7c0,0.8,0.1,1.5,0.4,1.8c0.3,0.4,0.7,0.6,1.3,0.6c0.5,0,0.9-0.1,1.3-0.2c0.4-0.2,0.7-0.4,0.9-0.7V285l-1.4-0.3v-1.9
	h1.4h3.1v9.4l1.4,0.3v1.9h-4.2L214.7,292.9z"/>
<path class="st1" d="M220.1,279.5v-1.9h4.8v14.6l1.5,0.3v1.9h-6.2v-1.9l1.5-0.3v-12.3L220.1,279.5z"/>
<path class="st1" d="M234.7,293c-0.4,0.5-0.8,0.9-1.3,1.2c-0.5,0.3-1.1,0.4-1.7,0.4c-1.4,0-2.5-0.5-3.3-1.6c-0.8-1-1.2-2.4-1.2-4.1
	v-0.2c0-1.8,0.4-3.3,1.2-4.4s1.9-1.7,3.4-1.7c0.6,0,1.1,0.1,1.6,0.4s0.9,0.6,1.2,1.1v-4.2l-1.7-0.3v-1.9h1.7h3.1v14.6l1.5,0.3v1.9
	H235L234.7,293z M230.4,288.9c0,1,0.2,1.8,0.5,2.4s0.9,0.9,1.7,0.9c0.5,0,0.9-0.1,1.2-0.3s0.6-0.5,0.8-0.8v-4.9
	c-0.2-0.4-0.5-0.7-0.8-0.9c-0.3-0.2-0.7-0.3-1.2-0.3c-0.8,0-1.3,0.3-1.7,1s-0.5,1.6-0.5,2.7V288.9z"/>
<path class="st1" d="M256.8,288.9c0,1.7-0.4,3.1-1.2,4.2s-1.9,1.6-3.4,1.6c-0.7,0-1.3-0.1-1.8-0.4s-0.9-0.7-1.3-1.2l-0.2,1.4h-2.7
	V280l-1.7-0.3v-1.9h4.8v6.4c0.3-0.5,0.7-0.8,1.2-1.1c0.5-0.3,1-0.4,1.6-0.4c1.5,0,2.6,0.6,3.4,1.7S256.7,287,256.8,288.9
	L256.8,288.9L256.8,288.9z M253.7,288.7c0-1.1-0.2-2-0.5-2.7s-0.9-1-1.7-1c-0.5,0-0.9,0.1-1.2,0.3c-0.3,0.2-0.6,0.5-0.8,0.9v4.9
	c0.2,0.4,0.5,0.6,0.8,0.8c0.3,0.2,0.8,0.3,1.3,0.3c0.8,0,1.4-0.3,1.7-0.9s0.5-1.4,0.5-2.4v-0.2H253.7z"/>
<path class="st1" d="M263.8,294.6c-1.7,0-3-0.5-4-1.6s-1.5-2.4-1.5-4.1v-0.4c0-1.7,0.5-3.1,1.4-4.3s2.2-1.7,3.8-1.7
	c1.6,0,2.8,0.5,3.7,1.4c0.9,0.9,1.3,2.2,1.3,3.8v1.7h-6.9v0.1c0.1,0.8,0.3,1.4,0.8,1.9s1.1,0.7,1.9,0.7c0.7,0,1.3-0.1,1.7-0.2
	c0.5-0.1,1-0.4,1.5-0.7l0.8,1.9c-0.5,0.4-1.1,0.7-1.9,1S264.7,294.6,263.8,294.6z M263.5,284.9c-0.6,0-1,0.2-1.4,0.7
	c-0.3,0.4-0.5,1-0.6,1.8v0.1h3.8v-0.3c0-0.7-0.2-1.2-0.5-1.6C264.6,285.1,264.1,284.9,263.5,284.9z"/>
<path class="st1" d="M291.9,284.6l-1.2,0.2l-2.4,9.6h-2.6l-2.2-6.9h-0.1l-2.2,6.9h-2.6l-2.4-9.6l-1.2-0.2v-1.9h5.3v1.9l-1.2,0.2
	l1.1,5.3h0.1l2.2-7.4h2.1l2.2,7.5h0.1l1.1-5.3l-1.2-0.2v-1.9h5.3v1.8H291.9z"/>
<path class="st1" d="M292.6,288.5c0-1.7,0.5-3.2,1.5-4.3c1-1.1,2.3-1.7,4-1.7s3.1,0.6,4,1.7c1,1.1,1.5,2.5,1.5,4.3v0.2
	c0,1.7-0.5,3.2-1.5,4.3c-1,1.1-2.3,1.6-4,1.6s-3.1-0.5-4-1.6c-1-1.1-1.5-2.5-1.5-4.3V288.5z M295.7,288.7c0,1.1,0.2,1.9,0.6,2.6
	c0.4,0.6,1,1,1.8,1s1.4-0.3,1.8-1s0.6-1.5,0.6-2.5v-0.2c0-1-0.2-1.9-0.6-2.5c-0.4-0.7-1-1-1.8-1s-1.4,0.3-1.8,1s-0.6,1.5-0.6,2.5
	V288.7z"/>
<path class="st1" d="M304.6,292.5l1.5-0.3V285l-1.7-0.3v-1.9h4.6l0.1,1.7c0.3-0.6,0.6-1.1,1.1-1.4s0.9-0.5,1.5-0.5
	c0.2,0,0.3,0,0.5,0s0.3,0.1,0.5,0.1l-0.3,2.9h-1.3c-0.5,0-0.8,0.1-1.1,0.3s-0.5,0.4-0.7,0.8v5.7l1.5,0.3v1.9h-6.1v-2.1H304.6z"/>
<path class="st1" d="M313.8,292.5l1.5-0.3V285l-1.7-0.3v-1.9h4.6l0.1,1.7c0.4-0.6,0.9-1.1,1.4-1.4s1.2-0.5,1.9-0.5
	c1.2,0,2.1,0.4,2.8,1.1s1,1.9,1,3.5v5.1l1.5,0.3v1.9h-6v-1.9l1.3-0.3v-5c0-0.8-0.2-1.3-0.5-1.7c-0.3-0.3-0.8-0.5-1.4-0.5
	c-0.4,0-0.8,0.1-1.1,0.3c-0.3,0.2-0.6,0.4-0.8,0.7v6.2l1.3,0.3v1.9h-5.9L313.8,292.5L313.8,292.5z"/>
<path class="st1" d="M333.5,292.5l1.5-0.3V285h-1.7v-2.2h1.7v-1.3c0-1.3,0.4-2.3,1.1-3c0.8-0.7,1.8-1.1,3.2-1.1c0.3,0,0.5,0,0.8,0.1
	c0.3,0,0.6,0.1,0.9,0.2l-0.3,2.3c-0.2,0-0.3-0.1-0.5-0.1s-0.3,0-0.6,0c-0.5,0-0.9,0.1-1.2,0.4s-0.4,0.7-0.4,1.2v1.3h2.3v2.2H338v7.2
	l1.5,0.3v1.9h-6.2v-1.9H333.5z"/>
<path class="st1" d="M341.3,288.5c0-1.7,0.5-3.2,1.5-4.3c1-1.1,2.3-1.7,4-1.7s3.1,0.6,4,1.7c1,1.1,1.5,2.5,1.5,4.3v0.2
	c0,1.7-0.5,3.2-1.5,4.3c-1,1.1-2.3,1.6-4,1.6s-3.1-0.5-4-1.6c-1-1.1-1.5-2.5-1.5-4.3V288.5z M344.4,288.7c0,1.1,0.2,1.9,0.6,2.6
	c0.4,0.6,1,1,1.8,1s1.4-0.3,1.8-1s0.6-1.5,0.6-2.5v-0.2c0-1-0.2-1.9-0.6-2.5s-1-1-1.8-1s-1.4,0.3-1.8,1s-0.6,1.5-0.6,2.5V288.7z"/>
<path class="st1" d="M353.3,292.5l1.5-0.3V285l-1.7-0.3v-1.9h4.6l0.1,1.7c0.3-0.6,0.6-1.1,1.1-1.4s0.9-0.5,1.5-0.5
	c0.2,0,0.3,0,0.5,0s0.3,0.1,0.5,0.1l-0.3,2.9h-1.3c-0.5,0-0.8,0.1-1.1,0.3s-0.5,0.4-0.7,0.8v5.7l1.5,0.3v1.9h-6.1v-2.1H353.3z"/>
<path class="st1" d="M371.2,285.2h1.8c0.7,0,1.3-0.2,1.7-0.6c0.4-0.4,0.5-0.9,0.5-1.6c0-0.6-0.2-1.1-0.5-1.5
	c-0.4-0.4-0.9-0.6-1.6-0.6c-0.6,0-1.1,0.2-1.5,0.5s-0.6,0.8-0.6,1.4h-3v-0.1c0-1.2,0.4-2.2,1.4-3s2.2-1.2,3.7-1.2
	c1.6,0,2.9,0.4,3.9,1.2s1.4,1.9,1.4,3.3c0,0.7-0.2,1.3-0.6,1.9s-1,1.1-1.8,1.4c0.9,0.3,1.5,0.8,2,1.4s0.7,1.4,0.7,2.2
	c0,1.4-0.5,2.6-1.6,3.4c-1,0.8-2.4,1.2-4,1.2c-1.5,0-2.7-0.4-3.7-1.2c-1-0.8-1.5-1.9-1.5-3.3v-0.1h3c0,0.6,0.2,1.1,0.6,1.5
	s1,0.6,1.6,0.6c0.7,0,1.3-0.2,1.7-0.6s0.6-0.9,0.6-1.6c0-0.8-0.2-1.4-0.6-1.8s-1-0.6-1.8-0.6h-1.8L371.2,285.2L371.2,285.2z"/>
<path class="st1" d="M401.6,284.6l-1.2,0.2l-2.4,9.6h-2.6l-2.2-6.9h-0.1l-2.2,6.9h-2.6l-2.4-9.6l-1.2-0.2v-1.9h5.3v1.9l-1.2,0.2
	l1.1,5.3h0.1l2.2-7.4h2.1l2.2,7.5h0.1l1.1-5.3l-1.2-0.2v-1.9h5.3v1.8H401.6z"/>
<path class="st1" d="M407.9,294.6c-1.7,0-3-0.5-4-1.6s-1.5-2.4-1.5-4.1v-0.4c0-1.7,0.5-3.1,1.4-4.3c0.9-1.1,2.2-1.7,3.8-1.7
	c1.6,0,2.8,0.5,3.7,1.4s1.3,2.2,1.3,3.8v1.7h-6.9v0.1c0.1,0.8,0.3,1.4,0.8,1.9s1.1,0.7,1.9,0.7c0.7,0,1.3-0.1,1.7-0.2
	c0.5-0.1,1-0.4,1.5-0.7l0.8,1.9c-0.5,0.4-1.1,0.7-1.9,1S408.8,294.6,407.9,294.6z M407.6,284.9c-0.6,0-1,0.2-1.4,0.7s-0.5,1-0.6,1.8
	v0.1h3.8v-0.3c0-0.7-0.2-1.2-0.5-1.6C408.7,285.1,408.2,284.9,407.6,284.9z"/>
<path class="st1" d="M419.5,294.6c-1.7,0-3-0.5-4-1.6s-1.5-2.4-1.5-4.1v-0.4c0-1.7,0.5-3.1,1.4-4.3c0.9-1.1,2.2-1.7,3.8-1.7
	c1.6,0,2.8,0.5,3.7,1.4s1.3,2.2,1.3,3.8v1.7h-6.9v0.1c0.1,0.8,0.3,1.4,0.8,1.9s1.1,0.7,1.9,0.7c0.7,0,1.3-0.1,1.7-0.2
	c0.5-0.1,1-0.4,1.5-0.7l0.8,1.9c-0.5,0.4-1.1,0.7-1.9,1S420.4,294.6,419.5,294.6z M419.2,284.9c-0.6,0-1,0.2-1.4,0.7s-0.5,1-0.6,1.8
	v0.1h3.8v-0.3c0-0.7-0.2-1.2-0.5-1.6C420.3,285.1,419.9,284.9,419.2,284.9z"/>
<path class="st1" d="M425.2,279.5v-1.9h4.8v9.7h0.7l1.8-2.5l-1-0.1v-1.9h5.7v1.9l-1.4,0.3l-2.1,2.9l2.9,4.4l1.2,0.2v1.9h-5.4v-1.9
	l0.6-0.1l-1.8-2.9H430v2.7l1.4,0.3v1.9h-6v-1.9l1.5-0.3v-12.3L425.2,279.5z"/>
<path class="st1" d="M448.2,286.7h-2.1l-0.3-1.5c-0.2-0.2-0.5-0.3-0.8-0.4s-0.7-0.2-1.1-0.2c-0.6,0-1,0.1-1.3,0.4
	c-0.3,0.2-0.5,0.6-0.5,0.9c0,0.4,0.2,0.6,0.5,0.9c0.3,0.2,0.9,0.4,1.8,0.6c1.4,0.3,2.5,0.7,3.2,1.3c0.7,0.6,1,1.3,1,2.3
	s-0.4,1.9-1.3,2.6s-2.1,1-3.6,1c-0.9,0-1.7-0.1-2.5-0.4c-0.7-0.3-1.4-0.6-2-1.1v-2.6h2.2l0.4,1.5c0.2,0.2,0.4,0.3,0.8,0.3
	c0.3,0.1,0.7,0.1,1,0.1c0.6,0,1.1-0.1,1.5-0.3s0.5-0.5,0.5-0.9c0-0.3-0.2-0.6-0.5-0.9s-1-0.5-1.9-0.7c-1.4-0.3-2.4-0.7-3.1-1.2
	s-1-1.3-1-2.2c0-1,0.4-1.8,1.2-2.5c0.8-0.7,1.9-1.1,3.4-1.1c0.9,0,1.8,0.1,2.6,0.4s1.4,0.6,1.9,0.9L448.2,286.7z"/>
<path class="st1" d="M453.4,294c0,0.7-0.2,1.5-0.6,2.3s-0.9,1.5-1.5,2l-1.5-0.8c0.3-0.5,0.5-1,0.6-1.6c0.2-0.5,0.2-1.1,0.2-1.8v-2.3
	h2.8V294z"/>
<path class="st1" d="M133.7,306.3v2.8h2v2.2h-2v5.9c0,0.5,0.1,0.8,0.3,1s0.4,0.3,0.8,0.3c0.2,0,0.4,0,0.6,0s0.3,0,0.5-0.1l0.3,2.3
	c-0.4,0.1-0.7,0.2-1,0.2c-0.3,0.1-0.7,0.1-1.1,0.1c-1.1,0-1.9-0.3-2.5-0.9s-0.9-1.5-0.9-2.8v-5.9H129v-2.2h1.7v-2.8h3V306.3z"/>
<path class="st1" d="M137.2,318.9l1.5-0.3v-12.3L137,306v-2h4.8v6.6c0.4-0.5,0.8-1,1.3-1.3s1.1-0.4,1.8-0.4c1.2,0,2.2,0.4,2.9,1.2
	c0.7,0.8,1,2.1,1,3.7v4.7l1.5,0.3v1.9h-6v-1.9l1.4-0.3v-4.7c0-0.9-0.2-1.5-0.5-1.9s-0.8-0.6-1.4-0.6c-0.4,0-0.8,0.1-1.1,0.2
	c-0.3,0.2-0.6,0.4-0.8,0.7v6.3l1.4,0.3v1.9h-6L137.2,318.9L137.2,318.9z"/>
<path class="st1" d="M156.6,321c-1.7,0-3-0.5-4-1.6s-1.5-2.4-1.5-4.1v-0.4c0-1.7,0.5-3.1,1.4-4.3s2.2-1.7,3.8-1.7s2.8,0.5,3.7,1.4
	s1.3,2.2,1.3,3.8v1.7h-6.9v0.1c0.1,0.8,0.3,1.4,0.8,1.9s1.1,0.7,1.9,0.7c0.7,0,1.3-0.1,1.7-0.2c0.5-0.1,1-0.4,1.5-0.7l0.8,1.9
	c-0.5,0.4-1.1,0.7-1.9,1S157.5,321,156.6,321z M156.3,311.3c-0.6,0-1,0.2-1.4,0.7c-0.3,0.4-0.5,1-0.6,1.8v0.1h3.8v-0.3
	c0-0.7-0.2-1.2-0.5-1.6C157.4,311.5,156.9,311.3,156.3,311.3z"/>
<path class="st1" d="M162.4,318.9l1.5-0.3v-7.2l-1.7-0.3v-1.9h4.6l0.1,1.7c0.4-0.6,0.9-1.1,1.4-1.4c0.6-0.3,1.2-0.5,1.9-0.5
	c1.2,0,2.1,0.4,2.8,1.1s1,1.9,1,3.5v5.1l1.5,0.3v1.9h-6V319l1.3-0.3v-5c0-0.8-0.2-1.3-0.5-1.7c-0.3-0.3-0.8-0.5-1.4-0.5
	c-0.4,0-0.8,0.1-1.1,0.3c-0.3,0.2-0.6,0.4-0.8,0.7v6.2l1.3,0.3v1.9h-5.9L162.4,318.9L162.4,318.9z"/>
<path class="st1" d="M181.7,318.9l1.5-0.3v-7.2l-1.7-0.3v-1.9h4.6l0.1,1.7c0.4-0.6,0.9-1.1,1.4-1.4c0.6-0.3,1.2-0.5,1.9-0.5
	c1.2,0,2.1,0.4,2.8,1.1s1,1.9,1,3.5v5.1l1.5,0.3v1.9h-6V319l1.3-0.3v-5c0-0.8-0.2-1.3-0.5-1.7c-0.3-0.3-0.8-0.5-1.4-0.5
	c-0.4,0-0.8,0.1-1.1,0.3c-0.3,0.2-0.6,0.4-0.8,0.7v6.2l1.3,0.3v1.9h-5.9L181.7,318.9L181.7,318.9z"/>
<path class="st1" d="M195.6,314.9c0-1.7,0.5-3.2,1.5-4.3c1-1.1,2.3-1.7,4-1.7s3.1,0.6,4,1.7c1,1.1,1.5,2.5,1.5,4.3v0.2
	c0,1.7-0.5,3.2-1.5,4.3c-1,1.1-2.3,1.7-4,1.7s-3.1-0.6-4-1.7c-1-1.1-1.5-2.5-1.5-4.3V314.9z M198.7,315.1c0,1.1,0.2,1.9,0.6,2.6
	c0.4,0.6,1,1,1.8,1s1.4-0.3,1.8-1s0.6-1.5,0.6-2.5V315c0-1-0.2-1.9-0.6-2.5c-0.4-0.7-1-1-1.8-1s-1.4,0.3-1.8,1
	c-0.4,0.7-0.6,1.5-0.6,2.5V315.1z"/>
<path class="st1" d="M212.2,306.3v2.8h2v2.2h-2v5.9c0,0.5,0.1,0.8,0.3,1s0.4,0.3,0.8,0.3c0.2,0,0.4,0,0.6,0s0.3,0,0.5-0.1l0.3,2.3
	c-0.4,0.1-0.7,0.2-1,0.2c-0.3,0.1-0.7,0.1-1.1,0.1c-1.1,0-1.9-0.3-2.5-0.9s-0.9-1.5-0.9-2.8v-5.9h-1.7v-2.2h1.7v-2.8h3V306.3z"/>
<path class="st1" d="M237.7,311l-1.2,0.2l-2.4,9.6h-2.6l-2.2-6.9h-0.1l-2.2,6.9h-2.6l-2.4-9.6l-1.2-0.2v-1.9h5.3v1.9l-1.2,0.2
	l1.1,5.3h0.1l2.2-7.4h2.1l2.2,7.5h0.1l1.1-5.3l-1.2-0.2v-1.9h5.3v1.8H237.7z"/>
<path class="st1" d="M238.4,314.9c0-1.7,0.5-3.2,1.5-4.3c1-1.1,2.3-1.7,4-1.7s3.1,0.6,4,1.7c1,1.1,1.5,2.5,1.5,4.3v0.2
	c0,1.7-0.5,3.2-1.5,4.3c-1,1.1-2.3,1.7-4,1.7s-3.1-0.6-4-1.7c-1-1.1-1.5-2.5-1.5-4.3V314.9z M241.6,315.1c0,1.1,0.2,1.9,0.6,2.6
	c0.4,0.6,1,1,1.8,1s1.4-0.3,1.8-1s0.6-1.5,0.6-2.5V315c0-1-0.2-1.9-0.6-2.5c-0.4-0.7-1-1-1.8-1s-1.4,0.3-1.8,1
	c-0.4,0.7-0.6,1.5-0.6,2.5V315.1z"/>
<path class="st1" d="M250.5,318.9l1.5-0.3v-7.2l-1.7-0.3v-1.9h4.6l0.1,1.7c0.3-0.6,0.6-1.1,1.1-1.4c0.4-0.3,0.9-0.5,1.5-0.5
	c0.2,0,0.3,0,0.5,0s0.3,0.1,0.5,0.1l-0.3,2.9H257c-0.5,0-0.8,0.1-1.1,0.3c-0.3,0.2-0.5,0.4-0.7,0.8v5.7l1.5,0.3v1.9h-6.1v-2.1H250.5
	z"/>
<path class="st1" d="M259.7,318.9l1.5-0.3v-7.2l-1.7-0.3v-1.9h4.6l0.1,1.7c0.4-0.6,0.9-1.1,1.4-1.4c0.6-0.3,1.2-0.5,1.9-0.5
	c1.2,0,2.1,0.4,2.8,1.1c0.7,0.7,1,1.9,1,3.5v5.1l1.5,0.3v1.9h-6V319l1.3-0.3v-5c0-0.8-0.2-1.3-0.5-1.7c-0.3-0.3-0.8-0.5-1.4-0.5
	c-0.4,0-0.8,0.1-1.1,0.3c-0.3,0.2-0.6,0.4-0.8,0.7v6.2l1.3,0.3v1.9h-5.9L259.7,318.9L259.7,318.9z"/>
<path class="st1" d="M279.4,318.9l1.5-0.3v-7.2h-1.7v-2.2h1.7v-1.3c0-1.3,0.4-2.3,1.1-3c0.8-0.7,1.8-1.1,3.2-1.1
	c0.3,0,0.5,0,0.8,0.1c0.3,0,0.6,0.1,0.9,0.2l-0.3,2.3c-0.2,0-0.3-0.1-0.5-0.1s-0.3,0-0.6,0c-0.5,0-0.9,0.1-1.2,0.4
	c-0.3,0.3-0.4,0.7-0.4,1.2v1.3h2.3v2.2H284v7.2l1.5,0.3v1.9h-6.2v-1.9H279.4z"/>
<path class="st1" d="M287.1,314.9c0-1.7,0.5-3.2,1.5-4.3c1-1.1,2.3-1.7,4-1.7s3.1,0.6,4,1.7c1,1.1,1.5,2.5,1.5,4.3v0.2
	c0,1.7-0.5,3.2-1.5,4.3c-1,1.1-2.3,1.7-4,1.7s-3.1-0.6-4-1.7c-1-1.1-1.5-2.5-1.5-4.3V314.9z M290.3,315.1c0,1.1,0.2,1.9,0.6,2.6
	c0.4,0.6,1,1,1.8,1s1.4-0.3,1.8-1s0.6-1.5,0.6-2.5V315c0-1-0.2-1.9-0.6-2.5c-0.4-0.7-1-1-1.8-1s-1.4,0.3-1.8,1s-0.6,1.5-0.6,2.5
	V315.1z"/>
<path class="st1" d="M299.2,318.9l1.5-0.3v-7.2L299,311v-1.9h4.6l0.1,1.7c0.3-0.6,0.6-1.1,1.1-1.4c0.4-0.3,0.9-0.5,1.5-0.5
	c0.2,0,0.3,0,0.5,0s0.3,0.1,0.5,0.1l-0.3,2.9h-1.3c-0.5,0-0.8,0.1-1.1,0.3c-0.3,0.2-0.5,0.4-0.7,0.8v5.7l1.5,0.3v1.9h-6.1v-2H299.2z
	"/>
<path class="st1" d="M321,320.8c-0.1-0.2-0.2-0.4-0.2-0.6c-0.1-0.2-0.1-0.4-0.2-0.6c-0.4,0.4-0.8,0.8-1.4,1
	c-0.5,0.3-1.1,0.4-1.8,0.4c-1.1,0-2-0.3-2.7-0.9s-1-1.5-1-2.5c0-1.1,0.4-1.9,1.3-2.5s2.2-0.9,3.8-0.9h1.6V313c0-0.6-0.2-1-0.5-1.3
	s-0.8-0.5-1.4-0.5c-0.4,0-0.7,0-1,0.1s-0.5,0.2-0.7,0.3l-0.2,1.2h-2.4v-2.6c0.6-0.4,1.2-0.7,2-1c0.7-0.3,1.5-0.4,2.4-0.4
	c1.4,0,2.6,0.4,3.5,1.1s1.3,1.7,1.3,3v4.8c0,0.2,0,0.3,0,0.5s0,0.3,0,0.5l1,0.1v1.9L321,320.8L321,320.8z M318.3,318.7
	c0.5,0,0.9-0.1,1.3-0.3c0.4-0.2,0.7-0.5,0.9-0.8v-1.8h-1.6c-0.7,0-1.2,0.2-1.5,0.5s-0.5,0.7-0.5,1.1s0.1,0.7,0.4,0.9
	C317.5,318.6,317.8,318.7,318.3,318.7z"/>
<path class="st1" d="M347.6,311l-1.2,0.2l-2.4,9.6h-2.6l-2.2-6.9h-0.1l-2.2,6.9h-2.6l-2.4-9.6l-1.2-0.2v-1.9h5.3v1.9l-1.2,0.2
	l1.1,5.3h0.1l2.2-7.4h2.1l2.2,7.5h0.1l1.1-5.3l-1.2-0.2v-1.9h5.3v1.8H347.6z"/>
<path class="st1" d="M353.9,321c-1.7,0-3-0.5-4-1.6s-1.5-2.4-1.5-4.1v-0.4c0-1.7,0.5-3.1,1.4-4.3c0.9-1.1,2.2-1.7,3.8-1.7
	c1.6,0,2.8,0.5,3.7,1.4s1.3,2.2,1.3,3.8v1.7h-6.9v0.1c0.1,0.8,0.3,1.4,0.8,1.9s1.1,0.7,1.9,0.7c0.7,0,1.3-0.1,1.7-0.2
	c0.5-0.1,1-0.4,1.5-0.7l0.8,1.9c-0.5,0.4-1.1,0.7-1.9,1S354.8,321,353.9,321z M353.6,311.3c-0.6,0-1,0.2-1.4,0.7
	c-0.3,0.4-0.5,1-0.6,1.8v0.1h3.8v-0.3c0-0.7-0.2-1.2-0.5-1.6C354.7,311.5,354.2,311.3,353.6,311.3z"/>
<path class="st1" d="M365.5,321c-1.7,0-3-0.5-4-1.6s-1.5-2.4-1.5-4.1v-0.4c0-1.7,0.5-3.1,1.4-4.3c0.9-1.1,2.2-1.7,3.8-1.7
	c1.6,0,2.8,0.5,3.7,1.4s1.3,2.2,1.3,3.8v1.7h-6.9v0.1c0.1,0.8,0.3,1.4,0.8,1.9s1.1,0.7,1.9,0.7c0.7,0,1.3-0.1,1.7-0.2
	c0.5-0.1,1-0.4,1.5-0.7l0.8,1.9c-0.5,0.4-1.1,0.7-1.9,1S366.4,321,365.5,321z M365.2,311.3c-0.6,0-1,0.2-1.4,0.7
	c-0.3,0.4-0.5,1-0.6,1.8v0.1h3.8v-0.3c0-0.7-0.2-1.2-0.5-1.6C366.3,311.5,365.9,311.3,365.2,311.3z"/>
<path class="st1" d="M371.2,305.9V304h4.8v9.7h0.7l1.8-2.5l-1-0.1v-1.9h5.7v1.9l-1.4,0.3l-2.1,2.9l2.9,4.4l1.2,0.2v1.9h-5.4v-1.9
	l0.6-0.1l-1.8-2.9H376v2.7l1.4,0.3v1.9h-6v-1.9l1.5-0.3v-12.3L371.2,305.9z"/>
<path class="st1" d="M388.5,320.4c0,0.7-0.2,1.5-0.6,2.3s-0.9,1.5-1.5,2l-1.5-0.8c0.3-0.5,0.5-1,0.6-1.6c0.2-0.5,0.2-1.1,0.2-1.8
	v-2.3h2.8V320.4z"/>
<path class="st1" d="M129.3,345.3l1.5-0.3v-7.2l-1.7-0.3v-1.9h4.6l0.1,1.7c0.3-0.6,0.6-1.1,1.1-1.4s0.9-0.5,1.5-0.5
	c0.2,0,0.3,0,0.5,0s0.3,0.1,0.5,0.1l-0.3,2.9h-1.3c-0.5,0-0.8,0.1-1.1,0.3s-0.5,0.4-0.7,0.8v5.7l1.5,0.3v1.9h-6.1v-2.1H129.3z"/>
<path class="st1" d="M143.6,347.4c-1.7,0-3-0.5-4-1.6s-1.5-2.4-1.5-4.1v-0.4c0-1.7,0.5-3.1,1.4-4.3c0.9-1.1,2.2-1.7,3.8-1.7
	s2.8,0.5,3.7,1.4s1.3,2.2,1.3,3.8v1.7h-6.9v0.1c0.1,0.8,0.3,1.4,0.8,1.9s1.1,0.7,1.9,0.7c0.7,0,1.3-0.1,1.7-0.2
	c0.5-0.1,1-0.4,1.5-0.7l0.8,1.9c-0.5,0.4-1.1,0.7-1.9,1S144.5,347.4,143.6,347.4z M143.3,337.7c-0.6,0-1,0.2-1.4,0.7
	c-0.3,0.4-0.5,1-0.6,1.8v0.1h3.8V340c0-0.7-0.2-1.2-0.5-1.6C144.4,337.9,143.9,337.7,143.3,337.7z"/>
<path class="st1" d="M149.2,337.4v-1.9h4.6l0.2,1.4c0.3-0.5,0.8-0.9,1.2-1.2c0.5-0.3,1-0.4,1.7-0.4c1.4,0,2.6,0.6,3.4,1.7
	s1.2,2.6,1.2,4.4v0.2c0,1.7-0.4,3.1-1.2,4.1s-1.9,1.6-3.3,1.6c-0.6,0-1.1-0.1-1.6-0.3c-0.5-0.2-0.9-0.6-1.2-1v3.4l1.5,0.3v1.9h-6.2
	v-1.9l1.5-0.3v-11.7L149.2,337.4z M158.2,341.5c0-1.1-0.2-2-0.5-2.7s-0.9-1-1.7-1c-0.5,0-0.9,0.1-1.2,0.3s-0.6,0.5-0.8,0.8v5.1
	c0.2,0.3,0.5,0.6,0.8,0.8s0.7,0.3,1.2,0.3c0.8,0,1.3-0.3,1.7-0.9s0.5-1.4,0.5-2.4V341.5z"/>
<path class="st1" d="M168.2,347.4c-1.7,0-3-0.5-4-1.6s-1.5-2.4-1.5-4.1v-0.4c0-1.7,0.5-3.1,1.4-4.3c0.9-1.1,2.2-1.7,3.8-1.7
	s2.8,0.5,3.7,1.4s1.3,2.2,1.3,3.8v1.7H166v0.1c0.1,0.8,0.3,1.4,0.8,1.9s1.1,0.7,1.9,0.7c0.7,0,1.3-0.1,1.7-0.2
	c0.5-0.1,1-0.4,1.5-0.7l0.8,1.9c-0.5,0.4-1.1,0.7-1.9,1S169.2,347.4,168.2,347.4z M168,337.7c-0.6,0-1,0.2-1.4,0.7
	c-0.3,0.4-0.5,1-0.6,1.8v0.1h3.8V340c0-0.7-0.2-1.2-0.5-1.6C169.1,337.9,168.6,337.7,168,337.7z"/>
<path class="st1" d="M181.6,347.2c-0.1-0.2-0.2-0.4-0.2-0.6c-0.1-0.2-0.1-0.4-0.2-0.6c-0.4,0.4-0.8,0.8-1.4,1
	c-0.5,0.3-1.1,0.4-1.8,0.4c-1.1,0-2-0.3-2.7-0.9s-1-1.5-1-2.5c0-1.1,0.4-1.9,1.3-2.5c0.9-0.6,2.2-0.9,3.8-0.9h1.6v-1.1
	c0-0.6-0.2-1-0.5-1.3s-0.8-0.5-1.4-0.5c-0.4,0-0.7,0-1,0.1s-0.5,0.2-0.7,0.3l-0.2,1.2h-2.4v-2.6c0.6-0.4,1.2-0.7,2-1
	s1.5-0.4,2.4-0.4c1.4,0,2.6,0.4,3.5,1.1s1.3,1.7,1.3,3v4.8c0,0.2,0,0.3,0,0.5s0,0.3,0,0.5l1,0.1v1.9H181.6z M178.8,345.1
	c0.5,0,0.9-0.1,1.3-0.3c0.4-0.2,0.7-0.5,0.9-0.8v-1.8h-1.6c-0.7,0-1.2,0.2-1.5,0.5s-0.5,0.7-0.5,1.1s0.1,0.7,0.4,0.9
	C178,345,178.4,345.1,178.8,345.1z"/>
<path class="st1" d="M190.5,332.7v2.8h2v2.2h-2v5.9c0,0.5,0.1,0.8,0.3,1s0.4,0.3,0.8,0.3c0.2,0,0.4,0,0.6,0c0.2,0,0.3,0,0.5-0.1
	l0.3,2.3c-0.4,0.1-0.7,0.2-1,0.2c-0.3,0.1-0.7,0.1-1.1,0.1c-1.1,0-1.9-0.3-2.5-0.9s-0.9-1.5-0.9-2.8v-5.9h-1.7v-2.2h1.7v-2.8h3
	V332.7z"/>
<path class="st1" d="M194,345.3l1.5-0.3v-7.2l-1.7-0.3v-1.9h4.8v9.4l1.5,0.3v1.9H194V345.3z M198.7,332.8h-3.1v-2.4h3.1V332.8z"/>
<path class="st1" d="M201.2,345.3l1.5-0.3v-7.2l-1.7-0.3v-1.9h4.6l0.1,1.7c0.4-0.6,0.9-1.1,1.4-1.4c0.6-0.3,1.2-0.5,1.9-0.5
	c1.2,0,2.1,0.4,2.8,1.1s1,1.9,1,3.5v5.1l1.5,0.3v1.9h-6v-1.9l1.3-0.3v-5c0-0.8-0.2-1.3-0.5-1.7c-0.3-0.3-0.8-0.5-1.4-0.5
	c-0.4,0-0.8,0.1-1.1,0.3c-0.3,0.2-0.6,0.4-0.8,0.7v6.2l1.3,0.3v1.9h-5.9L201.2,345.3L201.2,345.3z"/>
<path class="st1" d="M215.2,341.5c0-1.8,0.4-3.3,1.2-4.4s1.9-1.7,3.4-1.7c0.7,0,1.2,0.1,1.7,0.4s0.9,0.7,1.3,1.2l0.2-1.5h2.7v11.3
	c0,1.5-0.5,2.8-1.4,3.7c-1,0.9-2.3,1.4-4,1.4c-0.6,0-1.2-0.1-1.9-0.2c-0.7-0.2-1.3-0.4-1.8-0.7l0.6-2.2c0.5,0.2,1,0.4,1.5,0.5
	s1,0.2,1.6,0.2c0.8,0,1.3-0.2,1.7-0.7s0.6-1.1,0.6-1.9v-0.8c-0.3,0.4-0.7,0.8-1.2,1s-1,0.3-1.6,0.3c-1.4,0-2.5-0.5-3.3-1.6
	c-0.8-1-1.2-2.4-1.2-4.1v-0.2H215.2z M218.4,341.7c0,1,0.2,1.8,0.5,2.4s0.9,0.9,1.7,0.9c0.5,0,0.9-0.1,1.2-0.3
	c0.3-0.2,0.6-0.4,0.8-0.8v-5c-0.2-0.4-0.5-0.6-0.8-0.8s-0.7-0.3-1.2-0.3c-0.8,0-1.3,0.3-1.7,1s-0.5,1.6-0.5,2.7V341.7z"/>
<path class="st1" d="M237.6,332.7v2.8h2v2.2h-2v5.9c0,0.5,0.1,0.8,0.3,1s0.4,0.3,0.8,0.3c0.2,0,0.4,0,0.6,0c0.2,0,0.3,0,0.5-0.1
	l0.3,2.3c-0.4,0.1-0.7,0.2-1,0.2c-0.3,0.1-0.7,0.1-1.1,0.1c-1.1,0-1.9-0.3-2.5-0.9s-0.9-1.5-0.9-2.8v-5.9h-1.7v-2.2h1.7v-2.8h3
	V332.7z"/>
<path class="st1" d="M241.2,345.3l1.5-0.3v-12.3l-1.7-0.3v-1.9h4.8v6.6c0.4-0.5,0.8-1,1.3-1.3s1.1-0.4,1.8-0.4
	c1.2,0,2.2,0.4,2.9,1.2c0.7,0.8,1,2,1,3.7v4.7l1.5,0.3v1.9h-6v-1.9l1.4-0.3v-4.7c0-0.9-0.2-1.5-0.5-1.9s-0.8-0.6-1.4-0.6
	c-0.4,0-0.8,0.1-1.1,0.2c-0.3,0.2-0.6,0.4-0.8,0.7v6.3l1.4,0.3v1.9h-6L241.2,345.3L241.2,345.3z"/>
<path class="st1" d="M260.5,347.4c-1.7,0-3-0.5-4-1.6s-1.5-2.4-1.5-4.1v-0.4c0-1.7,0.5-3.1,1.4-4.3c0.9-1.1,2.2-1.7,3.8-1.7
	c1.6,0,2.8,0.5,3.7,1.4c0.9,0.9,1.3,2.2,1.3,3.8v1.7h-6.9v0.1c0.1,0.8,0.3,1.4,0.8,1.9s1.1,0.7,1.9,0.7c0.7,0,1.3-0.1,1.7-0.2
	c0.5-0.1,1-0.4,1.5-0.7l0.8,1.9c-0.5,0.4-1.1,0.7-1.9,1S261.5,347.4,260.5,347.4z M260.3,337.7c-0.6,0-1,0.2-1.4,0.7
	c-0.3,0.4-0.5,1-0.6,1.8v0.1h3.8V340c0-0.7-0.2-1.2-0.5-1.6C261.4,337.9,260.9,337.7,260.3,337.7z"/>
<path class="st1" d="M277.5,345c0.6,0,1-0.2,1.3-0.5s0.5-0.8,0.5-1.3h2.8v0.1c0,1.2-0.4,2.2-1.3,2.9c-0.9,0.8-2,1.2-3.4,1.2
	c-1.7,0-3.1-0.5-4-1.6s-1.4-2.5-1.4-4.2v-0.3c0-1.7,0.5-3.1,1.4-4.2c1-1.1,2.3-1.7,4.1-1.7c0.9,0,1.8,0.1,2.5,0.4s1.4,0.7,1.9,1.2
	v3.1h-2.5l-0.5-1.8c-0.2-0.1-0.4-0.2-0.6-0.3c-0.2-0.1-0.5-0.1-0.8-0.1c-0.9,0-1.5,0.3-1.9,1s-0.5,1.5-0.5,2.5v0.3
	c0,1,0.2,1.9,0.5,2.5C276.1,344.7,276.7,345,277.5,345z"/>
<path class="st1" d="M295.7,337.4l-1.1,0.2l-4.3,11.3c-0.3,0.8-0.8,1.5-1.3,2.1c-0.6,0.6-1.4,0.8-2.5,0.8c-0.3,0-0.5,0-0.7-0.1
	c-0.2,0-0.5-0.1-0.8-0.2l0.4-2.3c0.1,0,0.2,0,0.3,0s0.2,0,0.3,0c0.5,0,0.9-0.1,1.2-0.4c0.3-0.3,0.5-0.6,0.6-1l0.4-0.9l-3.7-9.6
	l-1.1-0.2v-1.9h5.7v1.9l-1.3,0.2l1.6,4.6l0.2,0.8h0.1l1.8-5.5l-1.3-0.2v-1.9h5.7v2.3H295.7z"/>
<path class="st1" d="M301.8,345c0.6,0,1-0.2,1.3-0.5s0.5-0.8,0.5-1.3h2.8v0.1c0,1.2-0.4,2.2-1.3,2.9c-0.9,0.8-2,1.2-3.4,1.2
	c-1.7,0-3.1-0.5-4-1.6s-1.4-2.5-1.4-4.2v-0.3c0-1.7,0.5-3.1,1.4-4.2c1-1.1,2.3-1.7,4.1-1.7c0.9,0,1.8,0.1,2.5,0.4s1.4,0.7,1.9,1.2
	v3.1h-2.5l-0.5-1.8c-0.2-0.1-0.4-0.2-0.6-0.3c-0.2-0.1-0.5-0.1-0.8-0.1c-0.9,0-1.5,0.3-1.9,1s-0.5,1.5-0.5,2.5v0.3
	c0,1,0.2,1.9,0.5,2.5C300.4,344.7,301,345,301.8,345z"/>
<path class="st1" d="M307.4,332.3v-1.9h4.8V345l1.5,0.3v1.9h-6.2v-1.9l1.5-0.3v-12.3L307.4,332.3z"/>
<path class="st1" d="M320,347.4c-1.7,0-3-0.5-4-1.6s-1.5-2.4-1.5-4.1v-0.4c0-1.7,0.5-3.1,1.4-4.3s2.2-1.7,3.8-1.7
	c1.6,0,2.8,0.5,3.7,1.4c0.9,0.9,1.3,2.2,1.3,3.8v1.7h-6.9v0.1c0.1,0.8,0.3,1.4,0.8,1.9s1.1,0.7,1.9,0.7c0.7,0,1.3-0.1,1.7-0.2
	c0.5-0.1,1-0.4,1.5-0.7l0.8,1.9c-0.5,0.4-1.1,0.7-1.9,1S320.9,347.4,320,347.4z M319.7,337.7c-0.6,0-1,0.2-1.4,0.7
	c-0.3,0.4-0.5,1-0.6,1.8v0.1h3.8V340c0-0.7-0.2-1.2-0.5-1.6C320.8,337.9,320.3,337.7,319.7,337.7z"/>
<path class="st1" d="M337.1,347.4c-1.7,0-3-0.5-4-1.6s-1.5-2.4-1.5-4.1v-0.4c0-1.7,0.5-3.1,1.4-4.3c0.9-1.1,2.2-1.7,3.8-1.7
	c1.6,0,2.8,0.5,3.7,1.4s1.3,2.2,1.3,3.8v1.7h-6.9v0.1c0.1,0.8,0.3,1.4,0.8,1.9s1.1,0.7,1.9,0.7c0.7,0,1.3-0.1,1.7-0.2
	c0.5-0.1,1-0.4,1.5-0.7l0.8,1.9c-0.5,0.4-1.1,0.7-1.9,1S338,347.4,337.1,347.4z M336.8,337.7c-0.6,0-1,0.2-1.4,0.7s-0.5,1-0.6,1.8
	v0.1h3.8V340c0-0.7-0.2-1.2-0.5-1.6C337.9,337.9,337.4,337.7,336.8,337.7z"/>
<path class="st1" d="M350.4,347.2c-0.1-0.2-0.2-0.4-0.2-0.6c-0.1-0.2-0.1-0.4-0.2-0.6c-0.4,0.4-0.8,0.8-1.4,1
	c-0.5,0.3-1.1,0.4-1.8,0.4c-1.1,0-2-0.3-2.7-0.9s-1-1.5-1-2.5c0-1.1,0.4-1.9,1.3-2.5s2.2-0.9,3.8-0.9h1.6v-1.1c0-0.6-0.2-1-0.5-1.3
	s-0.8-0.5-1.4-0.5c-0.4,0-0.7,0-1,0.1s-0.5,0.2-0.7,0.3l-0.2,1.2h-2.4v-2.6c0.6-0.4,1.2-0.7,2-1s1.5-0.4,2.4-0.4
	c1.4,0,2.6,0.4,3.5,1.1s1.3,1.7,1.3,3v4.8c0,0.2,0,0.3,0,0.5s0,0.3,0,0.5l1,0.1v1.9H350.4z M347.7,345.1c0.5,0,0.9-0.1,1.3-0.3
	c0.4-0.2,0.7-0.5,0.9-0.8v-1.8h-1.6c-0.7,0-1.2,0.2-1.5,0.5s-0.5,0.7-0.5,1.1s0.1,0.7,0.4,0.9C346.9,345,347.2,345.1,347.7,345.1z"
	/>
<path class="st1" d="M360.3,345c0.6,0,1-0.2,1.3-0.5s0.5-0.8,0.5-1.3h2.8v0.1c0,1.2-0.4,2.2-1.3,2.9c-0.9,0.8-2,1.2-3.4,1.2
	c-1.7,0-3.1-0.5-4-1.6s-1.4-2.5-1.4-4.2v-0.3c0-1.7,0.5-3.1,1.4-4.2c1-1.1,2.3-1.7,4.1-1.7c0.9,0,1.8,0.1,2.5,0.4s1.4,0.7,1.9,1.2
	v3.1h-2.5l-0.5-1.8c-0.2-0.1-0.4-0.2-0.6-0.3c-0.2-0.1-0.5-0.1-0.8-0.1c-0.9,0-1.5,0.3-1.9,1s-0.5,1.5-0.5,2.5v0.3
	c0,1,0.2,1.9,0.5,2.5C358.9,344.7,359.5,345,360.3,345z"/>
<path class="st1" d="M366.1,345.3l1.5-0.3v-12.3l-1.7-0.3v-1.9h4.8v6.6c0.4-0.5,0.8-1,1.3-1.3s1.1-0.4,1.8-0.4
	c1.2,0,2.2,0.4,2.9,1.2c0.7,0.8,1,2,1,3.7v4.7l1.5,0.3v1.9h-6v-1.9l1.4-0.3v-4.7c0-0.9-0.2-1.5-0.5-1.9s-0.8-0.6-1.4-0.6
	c-0.4,0-0.8,0.1-1.1,0.2s-0.6,0.4-0.8,0.7v6.3l1.4,0.3v1.9h-6L366.1,345.3L366.1,345.3z"/>
<path class="st1" d="M385.3,337.4v-1.9h4.6l0.1,1.5c0.4-0.6,0.8-1,1.4-1.3s1.2-0.5,1.9-0.5c0.7,0,1.4,0.2,1.9,0.5s0.9,0.8,1.2,1.5
	c0.4-0.6,0.8-1.1,1.4-1.5s1.2-0.5,2-0.5c1.1,0,2,0.4,2.7,1.2c0.7,0.8,1,2,1,3.6v4.8l1.5,0.3v1.9h-6v-1.9l1.4-0.3V340
	c0-0.9-0.1-1.5-0.4-1.8s-0.7-0.5-1.3-0.5c-0.4,0-0.8,0.1-1.2,0.3c-0.3,0.2-0.6,0.5-0.8,0.8c0,0.1,0,0.3,0,0.3c0,0.1,0,0.2,0,0.3v5.4
	l1.3,0.3v1.9h-5.7v-1.9l1.3-0.3V340c0-0.9-0.1-1.5-0.4-1.8c-0.3-0.4-0.7-0.5-1.3-0.5c-0.4,0-0.8,0.1-1.1,0.2
	c-0.3,0.2-0.6,0.4-0.8,0.7v6.3l1.4,0.3v1.9h-6v-1.9l1.5-0.3v-7.2L385.3,337.4z"/>
<path class="st1" d="M405.8,341.3c0-1.7,0.5-3.2,1.5-4.3c1-1.1,2.3-1.7,4-1.7s3.1,0.6,4,1.7c1,1.1,1.5,2.5,1.5,4.3v0.2
	c0,1.7-0.5,3.2-1.5,4.3c-1,1.1-2.3,1.6-4,1.6s-3.1-0.5-4-1.6c-1-1.1-1.5-2.5-1.5-4.3V341.3z M409,341.5c0,1.1,0.2,1.9,0.6,2.6
	c0.4,0.6,1,1,1.8,1s1.4-0.3,1.8-1s0.6-1.5,0.6-2.5v-0.2c0-1-0.2-1.9-0.6-2.5s-1-1-1.8-1s-1.4,0.3-1.8,1s-0.6,1.5-0.6,2.5V341.5z"/>
<path class="st1" d="M417.7,345.3l1.5-0.3v-7.2l-1.7-0.3v-1.9h4.6l0.1,1.7c0.4-0.6,0.9-1.1,1.4-1.4s1.2-0.5,1.9-0.5
	c1.2,0,2.1,0.4,2.8,1.1c0.7,0.7,1,1.9,1,3.5v5.1l1.5,0.3v1.9h-6v-1.9l1.3-0.3v-5c0-0.8-0.2-1.3-0.5-1.7c-0.3-0.3-0.8-0.5-1.4-0.5
	c-0.4,0-0.8,0.1-1.1,0.3c-0.3,0.2-0.6,0.4-0.8,0.7v6.2l1.3,0.3v1.9h-5.9L417.7,345.3L417.7,345.3z"/>
<path class="st1" d="M435.8,332.7v2.8h2v2.2h-2v5.9c0,0.5,0.1,0.8,0.3,1s0.4,0.3,0.8,0.3c0.2,0,0.4,0,0.6,0s0.3,0,0.5-0.1l0.3,2.3
	c-0.4,0.1-0.7,0.2-1,0.2c-0.3,0.1-0.7,0.1-1.1,0.1c-1.1,0-1.9-0.3-2.5-0.9s-0.9-1.5-0.9-2.8v-5.9H431v-2.2h1.7v-2.8h3.1V332.7z"/>
<path class="st1" d="M439.3,345.3l1.5-0.3v-12.3l-1.7-0.3v-1.9h4.8v6.6c0.4-0.5,0.8-1,1.3-1.3s1.1-0.4,1.8-0.4
	c1.2,0,2.2,0.4,2.9,1.2c0.7,0.8,1,2,1,3.7v4.7l1.5,0.3v1.9h-6v-1.9l1.4-0.3v-4.7c0-0.9-0.2-1.5-0.5-1.9s-0.8-0.6-1.4-0.6
	c-0.4,0-0.8,0.1-1.1,0.2s-0.6,0.4-0.8,0.7v6.3l1.4,0.3v1.9h-6L439.3,345.3L439.3,345.3z"/>
<path class="st1" d="M457.5,347.2h-3.1v-2.8h3.1V347.2z"/>
<path class="st1" d="M162.7,384.3v4.2h-2.4l-0.1-1.8h-2.9v11l1.7,0.3v1.9h-6.5V398l1.7-0.3v-11h-2.9l-0.1,1.8h-2.4v-4.2H162.7z"/>
<path class="st1" d="M163.9,398.1l1.5-0.3v-12.3l-1.7-0.3v-1.9h4.8v6.6c0.4-0.5,0.8-1,1.3-1.3s1.1-0.4,1.8-0.4
	c1.2,0,2.2,0.4,2.9,1.2c0.7,0.8,1,2,1,3.7v4.7l1.5,0.3v1.9h-6v-1.9l1.4-0.3v-4.7c0-0.9-0.2-1.5-0.5-1.9s-0.8-0.6-1.4-0.6
	c-0.4,0-0.8,0.1-1.1,0.2c-0.3,0.2-0.6,0.4-0.8,0.7v6.3l1.4,0.3v1.9h-6L163.9,398.1L163.9,398.1z"/>
<path class="st1" d="M183.3,400.2c-1.7,0-3-0.5-4-1.6s-1.5-2.4-1.5-4.1v-0.4c0-1.7,0.5-3.1,1.4-4.3s2.2-1.7,3.8-1.7s2.8,0.5,3.7,1.4
	s1.3,2.2,1.3,3.8v1.7h-7v0.1c0.1,0.8,0.3,1.4,0.8,1.9s1.1,0.7,1.9,0.7c0.7,0,1.3-0.1,1.7-0.2c0.5-0.1,1-0.4,1.5-0.7l0.8,1.9
	c-0.5,0.4-1.1,0.7-1.9,1S184.2,400.2,183.3,400.2z M183,390.5c-0.6,0-1,0.2-1.4,0.7c-0.3,0.4-0.5,1-0.6,1.8v0.1h3.8v-0.3
	c0-0.7-0.2-1.2-0.5-1.6C184.1,390.7,183.6,390.5,183,390.5z"/>
<path class="st1" d="M194.6,390.2v-1.9h4.6l0.2,1.4c0.3-0.5,0.8-0.9,1.2-1.2c0.5-0.3,1-0.4,1.7-0.4c1.4,0,2.6,0.6,3.4,1.7
	s1.2,2.6,1.2,4.4v0.2c0,1.7-0.4,3.1-1.2,4.1s-1.9,1.6-3.3,1.6c-0.6,0-1.1-0.1-1.6-0.3c-0.5-0.2-0.9-0.6-1.2-1v3.4l1.5,0.3v1.9h-6.2
	v-1.9l1.5-0.3v-11.7L194.6,390.2z M203.6,394.3c0-1.1-0.2-2-0.5-2.7s-0.9-1-1.7-1c-0.5,0-0.9,0.1-1.2,0.3s-0.6,0.5-0.8,0.8v5.1
	c0.2,0.3,0.5,0.6,0.8,0.8s0.7,0.3,1.2,0.3c0.8,0,1.3-0.3,1.7-0.9s0.5-1.4,0.5-2.4V394.3z"/>
<path class="st1" d="M215.3,400c-0.1-0.2-0.2-0.4-0.2-0.6c-0.1-0.2-0.1-0.4-0.2-0.6c-0.4,0.4-0.8,0.8-1.4,1
	c-0.5,0.3-1.1,0.4-1.8,0.4c-1.1,0-2-0.3-2.7-0.9s-1-1.5-1-2.5c0-1.1,0.4-1.9,1.3-2.5s2.2-0.9,3.8-0.9h1.6v-1.1c0-0.6-0.2-1-0.5-1.3
	s-0.8-0.5-1.4-0.5c-0.4,0-0.7,0-1,0.1s-0.5,0.2-0.7,0.3l-0.2,1.2h-2.4v-2.6c0.6-0.4,1.2-0.7,2-1s1.5-0.4,2.4-0.4
	c1.4,0,2.6,0.4,3.5,1.1s1.3,1.7,1.3,3v4.8c0,0.2,0,0.3,0,0.5s0,0.3,0,0.5l1,0.1v1.9H215.3z M212.6,397.9c0.5,0,0.9-0.1,1.3-0.3
	c0.4-0.2,0.7-0.5,0.9-0.8V395h-1.6c-0.7,0-1.2,0.2-1.5,0.5s-0.5,0.7-0.5,1.1s0.1,0.7,0.4,0.9C211.8,397.8,212.2,397.9,212.6,397.9z"
	/>
<path class="st1" d="M224.2,385.5v2.8h2v2.2h-2v5.9c0,0.5,0.1,0.8,0.3,1s0.4,0.3,0.8,0.3c0.2,0,0.4,0,0.6,0c0.2,0,0.3,0,0.5-0.1
	l0.3,2.3c-0.4,0.1-0.7,0.2-1,0.2c-0.3,0.1-0.7,0.1-1.1,0.1c-1.1,0-1.9-0.3-2.5-0.9s-0.9-1.5-0.9-2.8v-5.9h-1.7v-2.2h1.7v-2.8h3
	V385.5z"/>
<path class="st1" d="M232.9,397.8c0.6,0,1-0.2,1.3-0.5s0.5-0.8,0.5-1.3h2.8v0.1c0,1.2-0.4,2.2-1.3,2.9c-0.9,0.8-2,1.2-3.4,1.2
	c-1.7,0-3.1-0.5-4-1.6s-1.4-2.5-1.4-4.2V394c0-1.7,0.5-3.1,1.4-4.2c1-1.1,2.3-1.7,4.1-1.7c0.9,0,1.8,0.1,2.5,0.4s1.4,0.7,1.9,1.2
	v3.1h-2.5l-0.5-1.8c-0.2-0.1-0.4-0.2-0.6-0.3c-0.2-0.1-0.5-0.1-0.8-0.1c-0.9,0-1.5,0.3-1.9,1s-0.5,1.5-0.5,2.5v0.3
	c0,1,0.2,1.9,0.5,2.5C231.4,397.5,232,397.8,232.9,397.8z"/>
<path class="st1" d="M238.6,398.1l1.5-0.3v-12.3l-1.7-0.3v-1.9h4.8v6.6c0.4-0.5,0.8-1,1.3-1.3s1.1-0.4,1.8-0.4
	c1.2,0,2.2,0.4,2.9,1.2c0.7,0.8,1,2,1,3.7v4.7l1.5,0.3v1.9h-6v-1.9l1.4-0.3v-4.7c0-0.9-0.2-1.5-0.5-1.9s-0.8-0.6-1.4-0.6
	c-0.4,0-0.8,0.1-1.1,0.2c-0.3,0.2-0.6,0.4-0.8,0.7v6.3l1.4,0.3v1.9h-6L238.6,398.1L238.6,398.1z"/>
<path class="st1" d="M258.1,398.1l1.5-0.3v-7.2l-1.7-0.3v-1.9h4.8v9.4l1.5,0.3v1.9H258v-1.9H258.1z M262.7,385.6h-3.1v-2.4h3.1
	V385.6z"/>
<path class="st1" d="M274.6,392.3h-2.1l-0.3-1.5c-0.2-0.2-0.5-0.3-0.8-0.4s-0.7-0.2-1.1-0.2c-0.6,0-1,0.1-1.3,0.4
	c-0.3,0.2-0.5,0.6-0.5,0.9c0,0.4,0.2,0.6,0.5,0.9c0.3,0.2,0.9,0.4,1.8,0.6c1.4,0.3,2.5,0.7,3.2,1.3c0.7,0.6,1,1.3,1,2.3
	s-0.4,1.9-1.3,2.6s-2.1,1-3.6,1c-0.9,0-1.7-0.1-2.5-0.4c-0.7-0.3-1.4-0.6-2-1.1v-2.6h2.2l0.4,1.5c0.2,0.2,0.4,0.3,0.8,0.3
	c0.3,0.1,0.7,0.1,1,0.1c0.6,0,1.1-0.1,1.5-0.3s0.5-0.5,0.5-0.9c0-0.3-0.2-0.6-0.5-0.9s-1-0.5-1.9-0.7c-1.4-0.3-2.4-0.7-3.1-1.2
	s-1-1.3-1-2.2c0-1,0.4-1.8,1.2-2.5c0.8-0.7,1.9-1.1,3.4-1.1c0.9,0,1.8,0.1,2.6,0.4s1.4,0.6,1.9,0.9L274.6,392.3z"/>
<path class="st1" d="M286.5,397.8c0.8,0,1.5-0.3,2-1c0.5-0.6,0.8-1.6,0.8-2.9v-0.2c-0.4,0.5-0.8,0.8-1.3,1s-1,0.3-1.6,0.3
	c-1.5,0-2.6-0.5-3.4-1.4c-0.8-1-1.2-2.3-1.2-4c0-1.6,0.5-2.9,1.5-4s2.2-1.6,3.8-1.6c1.6,0,2.9,0.5,3.9,1.6s1.5,2.6,1.5,4.6v3.4
	c0,2-0.6,3.6-1.7,4.7s-2.5,1.7-4.3,1.7c-0.5,0-1.1-0.1-1.7-0.2s-1.1-0.3-1.6-0.5l0.4-2.3c0.5,0.2,0.9,0.3,1.4,0.4
	C285.5,397.7,286,397.8,286.5,397.8z M287,392.8c0.5,0,1-0.1,1.4-0.3c0.4-0.2,0.7-0.5,0.9-0.8V390c0-1.1-0.2-2-0.6-2.6
	s-0.9-0.9-1.6-0.9c-0.6,0-1.1,0.3-1.5,0.9s-0.6,1.4-0.6,2.2c0,0.9,0.2,1.7,0.5,2.3S286.4,392.8,287,392.8z"/>
<path class="st1" d="M293.7,398.1l2.6-0.3v-10.6h-2.7v-1.8l5.8-1.1v13.4l2.6,0.3v1.9h-8.4v-1.8H293.7z"/>
<path class="st1" d="M302,387.3c0-0.9,0.3-1.7,0.9-2.3c0.6-0.6,1.4-0.9,2.5-0.9s1.9,0.3,2.5,0.9s0.9,1.4,0.9,2.3v0.8
	c0,0.9-0.3,1.7-0.9,2.3s-1.4,0.9-2.5,0.9s-1.9-0.3-2.5-0.9s-0.9-1.4-0.9-2.3V387.3z M304.1,388.2c0,0.4,0.1,0.8,0.3,1
	c0.2,0.3,0.6,0.4,1,0.4s0.7-0.1,1-0.4c0.2-0.3,0.3-0.6,0.3-1v-0.8c0-0.4-0.1-0.8-0.3-1.1c-0.2-0.3-0.6-0.4-1-0.4s-0.7,0.1-1,0.4
	c-0.2,0.3-0.3,0.6-0.3,1.1V388.2z M306.3,398.8l-1.5-0.8l7.6-12.2l1.5,0.8L306.3,398.8z M309.5,396.1c0-0.9,0.3-1.7,0.9-2.3
	s1.4-0.9,2.5-0.9s1.9,0.3,2.5,0.9s0.9,1.4,0.9,2.3v0.8c0,0.9-0.3,1.7-0.9,2.3c-0.6,0.6-1.4,0.9-2.5,0.9s-1.9-0.3-2.5-0.9
	s-0.9-1.4-0.9-2.3V396.1z M311.6,397c0,0.4,0.1,0.8,0.4,1c0.2,0.3,0.6,0.4,1,0.4c0.5,0,0.8-0.1,1-0.4s0.3-0.6,0.3-1.1v-0.8
	c0-0.4-0.1-0.8-0.3-1c-0.2-0.3-0.6-0.4-1-0.4s-0.8,0.1-1,0.4s-0.3,0.6-0.3,1v0.9H311.6z"/>
<path class="st1" d="M328.5,400.2c-1.7,0-3-0.5-4-1.6s-1.5-2.4-1.5-4.1v-0.4c0-1.7,0.5-3.1,1.4-4.3s2.2-1.7,3.8-1.7
	c1.6,0,2.8,0.5,3.7,1.4c0.9,0.9,1.3,2.2,1.3,3.8v1.7h-6.9v0.1c0.1,0.8,0.3,1.4,0.8,1.9s1.1,0.7,1.9,0.7c0.7,0,1.3-0.1,1.7-0.2
	c0.5-0.1,1-0.4,1.5-0.7l0.8,1.9c-0.5,0.4-1.1,0.7-1.9,1S329.4,400.2,328.5,400.2z M328.2,390.5c-0.6,0-1,0.2-1.4,0.7
	c-0.3,0.4-0.5,1-0.6,1.8v0.1h3.8v-0.3c0-0.7-0.2-1.2-0.5-1.6C329.3,390.7,328.8,390.5,328.2,390.5z"/>
<path class="st1" d="M334.5,398.1l1.5-0.3v-7.2h-1.7v-2.2h1.7v-1.3c0-1.3,0.4-2.3,1.1-3c0.8-0.7,1.8-1.1,3.2-1.1
	c0.3,0,0.5,0,0.8,0.1c0.3,0,0.6,0.1,0.9,0.2l-0.3,2.3c-0.2,0-0.3-0.1-0.5-0.1s-0.3,0-0.6,0c-0.5,0-0.9,0.1-1.2,0.4
	c-0.3,0.3-0.4,0.7-0.4,1.2v1.3h2.3v2.2H339v7.2l1.5,0.3v1.9h-6.2v-1.9H334.5z"/>
<path class="st1" d="M342.8,398.1l1.5-0.3v-7.2h-1.7v-2.2h1.7v-1.3c0-1.3,0.4-2.3,1.1-3c0.8-0.7,1.8-1.1,3.2-1.1
	c0.3,0,0.5,0,0.8,0.1c0.3,0,0.6,0.1,0.9,0.2l-0.3,2.3c-0.2,0-0.3-0.1-0.5-0.1s-0.3,0-0.6,0c-0.5,0-0.9,0.1-1.2,0.4s-0.4,0.7-0.4,1.2
	v1.3h2.3v2.2h-2.3v7.2l1.5,0.3v1.9h-6.2v-1.9H342.8z"/>
<path class="st1" d="M356.1,400.2c-1.7,0-3-0.5-4-1.6s-1.5-2.4-1.5-4.1v-0.4c0-1.7,0.5-3.1,1.4-4.3c0.9-1.1,2.2-1.7,3.8-1.7
	c1.6,0,2.8,0.5,3.7,1.4s1.3,2.2,1.3,3.8v1.7h-6.9v0.1c0.1,0.8,0.3,1.4,0.8,1.9s1.1,0.7,1.9,0.7c0.7,0,1.3-0.1,1.7-0.2
	c0.5-0.1,1-0.4,1.5-0.7l0.8,1.9c-0.5,0.4-1.1,0.7-1.9,1S357,400.2,356.1,400.2z M355.8,390.5c-0.6,0-1,0.2-1.4,0.7s-0.5,1-0.6,1.8
	v0.1h3.8v-0.3c0-0.7-0.2-1.2-0.5-1.6C356.9,390.7,356.4,390.5,355.8,390.5z"/>
<path class="st1" d="M367.6,397.8c0.6,0,1-0.2,1.3-0.5s0.5-0.8,0.5-1.3h2.8v0.1c0,1.2-0.4,2.2-1.3,2.9c-0.9,0.8-2,1.2-3.4,1.2
	c-1.7,0-3.1-0.5-4-1.6s-1.4-2.5-1.4-4.2V394c0-1.7,0.5-3.1,1.4-4.2s2.3-1.7,4.1-1.7c0.9,0,1.8,0.1,2.5,0.4s1.4,0.7,1.9,1.2v3.1h-2.5
	L369,391c-0.2-0.1-0.4-0.2-0.6-0.3c-0.2-0.1-0.5-0.1-0.8-0.1c-0.9,0-1.5,0.3-1.9,1s-0.5,1.5-0.5,2.5v0.3c0,1,0.2,1.9,0.5,2.5
	C366.2,397.5,366.8,397.8,367.6,397.8z"/>
<path class="st1" d="M378.3,385.5v2.8h2v2.2h-2v5.9c0,0.5,0.1,0.8,0.3,1c0.2,0.2,0.4,0.3,0.8,0.3c0.2,0,0.4,0,0.6,0s0.3,0,0.5-0.1
	l0.3,2.3c-0.4,0.1-0.7,0.2-1,0.2c-0.3,0.1-0.7,0.1-1.1,0.1c-1.1,0-1.9-0.3-2.5-0.9s-0.9-1.5-0.9-2.8v-5.9h-1.7v-2.2h1.7v-2.8h3
	V385.5z"/>
<path class="st1" d="M381.8,398.1l1.5-0.3v-7.2l-1.7-0.3v-1.9h4.8v9.4l1.5,0.3v1.9h-6.2v-1.9H381.8z M386.5,385.6h-3.1v-2.4h3.1
	V385.6z"/>
<path class="st1" d="M393.5,390.2l-1.1,0.2l1.5,5.2l0.2,1.1h0.1l0.2-1.1l1.5-5.2l-1.1-0.2v-1.9h5.3v1.9l-1,0.2l-3.4,9.6h-3l-3.4-9.6
	l-1-0.2v-1.9h5.3v1.9H393.5z"/>
<path class="st1" d="M406.3,400.2c-1.7,0-3-0.5-4-1.6s-1.5-2.4-1.5-4.1v-0.4c0-1.7,0.5-3.1,1.4-4.3c0.9-1.1,2.2-1.7,3.8-1.7
	c1.6,0,2.8,0.5,3.7,1.4s1.3,2.2,1.3,3.8v1.7h-7v0.1c0.1,0.8,0.3,1.4,0.8,1.9s1.1,0.7,1.9,0.7c0.7,0,1.3-0.1,1.7-0.2
	c0.5-0.1,1-0.4,1.5-0.7l0.8,1.9c-0.5,0.4-1.1,0.7-1.9,1S407.2,400.2,406.3,400.2z M406,390.5c-0.6,0-1,0.2-1.4,0.7s-0.5,1-0.6,1.8
	v0.1h3.8v-0.3c0-0.7-0.2-1.2-0.5-1.6C407.1,390.7,406.6,390.5,406,390.5z"/>
<path class="st1" d="M417.7,398.1l1.5-0.3v-7.2l-1.7-0.3v-1.9h4.8v9.4l1.5,0.3v1.9h-6.2v-1.9H417.7z M422.4,385.6h-3.1v-2.4h3.1
	V385.6z"/>
<path class="st1" d="M425,398.1l1.5-0.3v-7.2l-1.7-0.3v-1.9h4.6l0.1,1.7c0.4-0.6,0.9-1.1,1.4-1.4c0.6-0.3,1.2-0.5,1.9-0.5
	c1.2,0,2.1,0.4,2.8,1.1c0.7,0.7,1,1.9,1,3.5v5.1l1.5,0.3v1.9h-6v-1.9l1.3-0.3v-5c0-0.8-0.2-1.3-0.5-1.7c-0.3-0.3-0.8-0.5-1.4-0.5
	c-0.4,0-0.8,0.1-1.1,0.3c-0.3,0.2-0.6,0.4-0.8,0.7v6.2l1.3,0.3v1.9H425V398.1z"/>
<path class="st1" d="M128.8,416.6v-1.9h4.6l0.2,1.4c0.3-0.5,0.8-0.9,1.2-1.2c0.5-0.3,1-0.4,1.7-0.4c1.4,0,2.6,0.6,3.4,1.7
	s1.2,2.6,1.2,4.4v0.2c0,1.7-0.4,3.1-1.2,4.1s-1.9,1.6-3.3,1.6c-0.6,0-1.1-0.1-1.6-0.3c-0.5-0.2-0.9-0.6-1.2-1v3.4l1.5,0.3v1.9H129
	v-1.9l1.5-0.3V417L128.8,416.6z M137.8,420.7c0-1.1-0.2-2-0.5-2.7s-0.9-1-1.7-1c-0.5,0-0.9,0.1-1.2,0.3s-0.6,0.5-0.8,0.8v5.1
	c0.2,0.3,0.5,0.6,0.8,0.8s0.7,0.3,1.2,0.3c0.8,0,1.3-0.3,1.7-0.9s0.5-1.4,0.5-2.4V420.7z"/>
<path class="st1" d="M142.2,424.5l1.5-0.3V417l-1.7-0.3v-1.9h4.6l0.1,1.7c0.3-0.6,0.6-1.1,1.1-1.4s0.9-0.5,1.5-0.5
	c0.2,0,0.3,0,0.5,0s0.3,0.1,0.5,0.1l-0.3,2.9h-1.3c-0.5,0-0.8,0.1-1.1,0.3s-0.5,0.4-0.7,0.8v5.7l1.5,0.3v1.9h-6.1v-2.1H142.2z"/>
<path class="st1" d="M156.4,426.6c-1.7,0-3-0.5-4-1.6s-1.5-2.4-1.5-4.1v-0.4c0-1.7,0.5-3.1,1.4-4.3c0.9-1.1,2.2-1.7,3.8-1.7
	s2.8,0.5,3.7,1.4s1.3,2.2,1.3,3.8v1.7h-6.9v0.1c0.1,0.8,0.3,1.4,0.8,1.9s1.1,0.7,1.9,0.7c0.7,0,1.3-0.1,1.7-0.2
	c0.5-0.1,1-0.4,1.5-0.7l0.8,1.9c-0.5,0.4-1.1,0.7-1.9,1S157.3,426.6,156.4,426.6z M156.1,416.9c-0.6,0-1,0.2-1.4,0.7s-0.5,1-0.6,1.8
	v0.1h3.8v-0.3c0-0.7-0.2-1.2-0.5-1.6C157.2,417.1,156.7,416.9,156.1,416.9z"/>
<path class="st1" d="M167.3,416.6l-1.1,0.2l1.5,5.2l0.2,1.1h0.1l0.2-1.1l1.5-5.2l-1.1-0.2v-1.9h5.3v1.9l-1,0.2l-3.4,9.6h-3l-3.4-9.6
	l-1-0.2v-1.9h5.3v1.9H167.3z"/>
<path class="st1" d="M180.1,426.6c-1.7,0-3-0.5-4-1.6s-1.5-2.4-1.5-4.1v-0.4c0-1.7,0.5-3.1,1.4-4.3c0.9-1.1,2.2-1.7,3.8-1.7
	s2.8,0.5,3.7,1.4s1.3,2.2,1.3,3.8v1.7h-6.9v0.1c0.1,0.8,0.3,1.4,0.8,1.9s1.1,0.7,1.9,0.7c0.7,0,1.3-0.1,1.7-0.2
	c0.5-0.1,1-0.4,1.5-0.7l0.8,1.9c-0.5,0.4-1.1,0.7-1.9,1S181.1,426.6,180.1,426.6z M179.9,416.9c-0.6,0-1,0.2-1.4,0.7
	c-0.3,0.4-0.5,1-0.6,1.8v0.1h3.8v-0.3c0-0.7-0.2-1.2-0.5-1.6C181,417.1,180.5,416.9,179.9,416.9z"/>
<path class="st1" d="M185.9,424.5l1.5-0.3V417l-1.7-0.3v-1.9h4.6l0.1,1.7c0.4-0.6,0.9-1.1,1.4-1.4c0.6-0.3,1.2-0.5,1.9-0.5
	c1.2,0,2.1,0.4,2.8,1.1s1,1.9,1,3.5v5.1l1.5,0.3v1.9h-6v-1.9l1.3-0.3v-5c0-0.8-0.2-1.3-0.5-1.7c-0.3-0.3-0.8-0.5-1.4-0.5
	c-0.4,0-0.8,0.1-1.1,0.3c-0.3,0.2-0.6,0.4-0.8,0.7v6.2l1.3,0.3v1.9h-5.9L185.9,424.5L185.9,424.5z"/>
<path class="st1" d="M204.1,411.9v2.8h2v2.2h-2v5.9c0,0.5,0.1,0.8,0.3,1s0.4,0.3,0.8,0.3c0.2,0,0.4,0,0.6,0c0.2,0,0.3,0,0.5-0.1
	l0.3,2.3c-0.4,0.1-0.7,0.2-1,0.2c-0.3,0.1-0.7,0.1-1.1,0.1c-1.1,0-1.9-0.3-2.5-0.9s-0.9-1.5-0.9-2.8V417h-1.7v-2.2h1.7V412h3V411.9z
	"/>
<path class="st1" d="M207.6,424.5l1.5-0.3V417l-1.7-0.3v-1.9h4.8v9.4l1.5,0.3v1.9h-6.2L207.6,424.5L207.6,424.5z M212.3,412h-3.1
	v-2.4h3.1V412z"/>
<path class="st1" d="M214.8,424.5l1.5-0.3V417l-1.7-0.3v-1.9h4.6l0.1,1.7c0.4-0.6,0.9-1.1,1.4-1.4c0.6-0.3,1.2-0.5,1.9-0.5
	c1.2,0,2.1,0.4,2.8,1.1s1,1.9,1,3.5v5.1l1.5,0.3v1.9h-6v-1.9l1.3-0.3v-5c0-0.8-0.2-1.3-0.5-1.7c-0.3-0.3-0.8-0.5-1.4-0.5
	c-0.4,0-0.8,0.1-1.1,0.3c-0.3,0.2-0.6,0.4-0.8,0.7v6.2l1.3,0.3v1.9h-5.9L214.8,424.5L214.8,424.5z"/>
<path class="st1" d="M228.9,420.7c0-1.8,0.4-3.3,1.2-4.4s1.9-1.7,3.4-1.7c0.7,0,1.2,0.1,1.7,0.4s0.9,0.7,1.3,1.2l0.2-1.5h2.7V426
	c0,1.5-0.5,2.8-1.4,3.7c-1,0.9-2.3,1.4-4,1.4c-0.6,0-1.2-0.1-1.9-0.2c-0.7-0.2-1.3-0.4-1.8-0.7l0.6-2.2c0.5,0.2,1,0.4,1.5,0.5
	s1,0.2,1.6,0.2c0.8,0,1.3-0.2,1.7-0.7s0.6-1.1,0.6-1.9v-0.8c-0.3,0.4-0.7,0.8-1.2,1s-1,0.3-1.6,0.3c-1.4,0-2.5-0.5-3.3-1.6
	c-0.8-1-1.2-2.4-1.2-4.1v-0.2H228.9z M232,420.9c0,1,0.2,1.8,0.5,2.4s0.9,0.9,1.7,0.9c0.5,0,0.9-0.1,1.2-0.3
	c0.3-0.2,0.6-0.4,0.8-0.8v-5c-0.2-0.4-0.5-0.6-0.8-0.8s-0.7-0.3-1.2-0.3c-0.8,0-1.3,0.3-1.7,1s-0.5,1.6-0.5,2.7V420.9z"/>
<path class="st1" d="M246.4,416.6v-1.9h4.6l0.2,1.4c0.3-0.5,0.8-0.9,1.2-1.2c0.5-0.3,1-0.4,1.7-0.4c1.4,0,2.6,0.6,3.4,1.7
	s1.2,2.6,1.2,4.4v0.2c0,1.7-0.4,3.1-1.2,4.1s-1.9,1.6-3.3,1.6c-0.6,0-1.1-0.1-1.6-0.3c-0.5-0.2-0.9-0.6-1.2-1v3.4l1.5,0.3v1.9h-6.2
	v-1.9l1.5-0.3V417L246.4,416.6z M255.4,420.7c0-1.1-0.2-2-0.5-2.7s-0.9-1-1.7-1c-0.5,0-0.9,0.1-1.2,0.3s-0.6,0.5-0.8,0.8v5.1
	c0.2,0.3,0.5,0.6,0.8,0.8s0.7,0.3,1.2,0.3c0.8,0,1.3-0.3,1.7-0.9s0.5-1.4,0.5-2.4V420.7z"/>
<path class="st1" d="M259.8,424.5l1.5-0.3V417l-1.7-0.3v-1.9h4.6l0.1,1.7c0.3-0.6,0.6-1.1,1.1-1.4s0.9-0.5,1.5-0.5
	c0.2,0,0.3,0,0.5,0s0.3,0.1,0.5,0.1l-0.3,2.9h-1.3c-0.5,0-0.8,0.1-1.1,0.3s-0.5,0.4-0.7,0.8v5.7l1.5,0.3v1.9h-6.1v-2.1H259.8z"/>
<path class="st1" d="M274.1,426.6c-1.7,0-3-0.5-4-1.6s-1.5-2.4-1.5-4.1v-0.4c0-1.7,0.5-3.1,1.4-4.3c0.9-1.1,2.2-1.7,3.8-1.7
	c1.6,0,2.8,0.5,3.7,1.4c0.9,0.9,1.3,2.2,1.3,3.8v1.7h-6.9v0.1c0.1,0.8,0.3,1.4,0.8,1.9s1.1,0.7,1.9,0.7c0.7,0,1.3-0.1,1.7-0.2
	c0.5-0.1,1-0.4,1.5-0.7l0.8,1.9c-0.5,0.4-1.1,0.7-1.9,1S275,426.6,274.1,426.6z M273.8,416.9c-0.6,0-1,0.2-1.4,0.7
	c-0.3,0.4-0.5,1-0.6,1.8v0.1h3.8v-0.3c0-0.7-0.2-1.2-0.5-1.6C274.9,417.1,274.4,416.9,273.8,416.9z"/>
<path class="st1" d="M280.3,420.7c0-1.8,0.4-3.3,1.2-4.4c0.8-1.1,1.9-1.7,3.4-1.7c0.7,0,1.2,0.1,1.7,0.4s0.9,0.7,1.3,1.2l0.2-1.5
	h2.7V426c0,1.5-0.5,2.8-1.4,3.7c-1,0.9-2.3,1.4-4,1.4c-0.6,0-1.2-0.1-1.9-0.2c-0.7-0.2-1.3-0.4-1.8-0.7l0.6-2.2
	c0.5,0.2,1,0.4,1.5,0.5s1,0.2,1.6,0.2c0.8,0,1.3-0.2,1.7-0.7c0.4-0.5,0.6-1.1,0.6-1.9v-0.8c-0.3,0.4-0.7,0.8-1.2,1s-1,0.3-1.6,0.3
	c-1.4,0-2.5-0.5-3.3-1.6c-0.8-1-1.2-2.4-1.2-4.1v-0.2H280.3z M283.4,420.9c0,1,0.2,1.8,0.5,2.4s0.9,0.9,1.7,0.9
	c0.5,0,0.9-0.1,1.2-0.3c0.3-0.2,0.6-0.4,0.8-0.8v-5c-0.2-0.4-0.5-0.6-0.8-0.8s-0.7-0.3-1.2-0.3c-0.8,0-1.3,0.3-1.7,1
	s-0.5,1.6-0.5,2.7V420.9z"/>
<path class="st1" d="M292.5,424.5l1.5-0.3V417l-1.7-0.3v-1.9h4.6l0.1,1.7c0.4-0.6,0.9-1.1,1.4-1.4c0.6-0.3,1.2-0.5,1.9-0.5
	c1.2,0,2.1,0.4,2.8,1.1c0.7,0.7,1,1.9,1,3.5v5.1l1.5,0.3v1.9h-6v-1.9l1.3-0.3v-5c0-0.8-0.2-1.3-0.5-1.7c-0.3-0.3-0.8-0.5-1.4-0.5
	c-0.4,0-0.8,0.1-1.1,0.3c-0.3,0.2-0.6,0.4-0.8,0.7v6.2l1.3,0.3v1.9h-5.9L292.5,424.5L292.5,424.5z"/>
<path class="st1" d="M314.1,426.4c-0.1-0.2-0.2-0.4-0.2-0.6c-0.1-0.2-0.1-0.4-0.2-0.6c-0.4,0.4-0.8,0.8-1.4,1s-1.1,0.4-1.8,0.4
	c-1.1,0-2-0.3-2.7-0.9s-1-1.5-1-2.5c0-1.1,0.4-1.9,1.3-2.5s2.2-0.9,3.8-0.9h1.6v-1.1c0-0.6-0.2-1-0.5-1.3s-0.8-0.5-1.4-0.5
	c-0.4,0-0.7,0-1,0.1s-0.5,0.2-0.7,0.3l-0.2,1.2h-2.4v-2.6c0.6-0.4,1.2-0.7,2-1s1.5-0.4,2.4-0.4c1.4,0,2.6,0.4,3.5,1.1s1.3,1.7,1.3,3
	v4.8c0,0.2,0,0.3,0,0.5s0,0.3,0,0.5l1,0.1v1.9H314.1z M311.4,424.3c0.5,0,0.9-0.1,1.3-0.3c0.4-0.2,0.7-0.5,0.9-0.8v-1.8H312
	c-0.7,0-1.2,0.2-1.5,0.5s-0.5,0.7-0.5,1.1s0.1,0.7,0.4,0.9S310.9,424.3,311.4,424.3z"/>
<path class="st1" d="M318.8,424.5l1.5-0.3V417l-1.7-0.3v-1.9h4.6l0.1,1.7c0.4-0.6,0.9-1.1,1.4-1.4s1.2-0.5,1.9-0.5
	c1.2,0,2.1,0.4,2.8,1.1c0.7,0.7,1,1.9,1,3.5v5.1l1.5,0.3v1.9h-6v-1.9l1.3-0.3v-5c0-0.8-0.2-1.3-0.5-1.7c-0.3-0.3-0.8-0.5-1.4-0.5
	c-0.4,0-0.8,0.1-1.1,0.3c-0.3,0.2-0.6,0.4-0.8,0.7v6.2l1.3,0.3v1.9h-5.9L318.8,424.5L318.8,424.5z"/>
<path class="st1" d="M338,424.2c0.6,0,1-0.2,1.3-0.5s0.5-0.8,0.5-1.3h2.8v0.1c0,1.2-0.4,2.2-1.3,2.9c-0.9,0.8-2,1.2-3.4,1.2
	c-1.7,0-3.1-0.5-4-1.6s-1.4-2.5-1.4-4.2v-0.3c0-1.7,0.5-3.1,1.4-4.2c1-1.1,2.3-1.7,4.1-1.7c0.9,0,1.8,0.1,2.5,0.4s1.4,0.7,1.9,1.2
	v3.1H340l-0.5-1.8c-0.2-0.1-0.4-0.2-0.6-0.3c-0.2-0.1-0.5-0.1-0.8-0.1c-0.9,0-1.5,0.3-1.9,1s-0.5,1.5-0.5,2.5v0.3
	c0,1,0.2,1.9,0.5,2.5C336.6,423.9,337.2,424.2,338,424.2z"/>
<path class="st1" d="M356.2,416.6l-1.1,0.2l-4.3,11.3c-0.3,0.8-0.8,1.5-1.3,2.1s-1.4,0.8-2.5,0.8c-0.3,0-0.5,0-0.7-0.1
	s-0.5-0.1-0.8-0.2l0.4-2.3c0.1,0,0.2,0,0.3,0s0.2,0,0.3,0c0.5,0,0.9-0.1,1.2-0.4c0.3-0.3,0.5-0.6,0.6-1l0.4-0.9l-3.7-9.6l-1.1-0.2
	v-1.9h5.7v1.9l-1.3,0.2l1.6,4.6l0.2,0.8h0.1l1.8-5.5l-1.3-0.2v-1.9h5.7v2.3H356.2z"/>
<path class="st1" d="M359,426c0,0.7-0.2,1.5-0.6,2.3s-0.9,1.5-1.5,2l-1.5-0.8c0.3-0.5,0.5-1,0.6-1.6c0.2-0.5,0.2-1.1,0.2-1.8v-2.3
	h2.8V426z"/>
<path class="st1" d="M377.4,420.9c0,1.7-0.4,3.1-1.2,4.2s-1.9,1.6-3.4,1.6c-0.7,0-1.3-0.1-1.8-0.4s-0.9-0.7-1.3-1.2l-0.2,1.4H367
	V412l-1.7-0.3v-1.9h4.8v6.4c0.3-0.5,0.7-0.8,1.2-1.1s1-0.4,1.6-0.4c1.5,0,2.6,0.6,3.4,1.7s1.2,2.6,1.2,4.5v0H377.4z M374.3,420.7
	c0-1.1-0.2-2-0.5-2.7s-0.9-1-1.7-1c-0.5,0-0.9,0.1-1.2,0.3c-0.3,0.2-0.6,0.5-0.8,0.9v4.9c0.2,0.4,0.5,0.6,0.8,0.8s0.8,0.3,1.3,0.3
	c0.8,0,1.4-0.3,1.7-0.9c0.3-0.6,0.5-1.4,0.5-2.4L374.3,420.7L374.3,420.7z"/>
<path class="st1" d="M386.7,424.9c-0.4,0.5-0.8,1-1.4,1.3c-0.5,0.3-1.2,0.4-1.9,0.4c-1.2,0-2.2-0.4-2.9-1.2c-0.7-0.8-1-2-1-3.7V417
	l-1.3-0.3v-1.9h1.3h3.1v7c0,0.8,0.1,1.5,0.4,1.8c0.3,0.4,0.7,0.6,1.3,0.6c0.5,0,0.9-0.1,1.3-0.2c0.4-0.2,0.7-0.4,0.9-0.7V417
	l-1.4-0.3v-1.9h1.4h3.1v9.4l1.4,0.3v1.9h-4.2L386.7,424.9z"/>
<path class="st1" d="M396.3,411.9v2.8h2v2.2h-2v5.9c0,0.5,0.1,0.8,0.3,1s0.4,0.3,0.8,0.3c0.2,0,0.4,0,0.6,0s0.3,0,0.5-0.1l0.3,2.3
	c-0.4,0.1-0.7,0.2-1,0.2c-0.3,0.1-0.7,0.1-1.1,0.1c-1.1,0-1.9-0.3-2.5-0.9s-0.9-1.5-0.9-2.8V417h-1.7v-2.2h1.7V412h3V411.9z"/>
<path class="st1" d="M412.9,425c-0.4,0.5-0.8,0.9-1.3,1.2c-0.5,0.3-1.1,0.4-1.7,0.4c-1.4,0-2.5-0.5-3.3-1.6c-0.8-1-1.2-2.4-1.2-4.1
	v-0.2c0-1.8,0.4-3.3,1.2-4.4s1.9-1.7,3.4-1.7c0.6,0,1.1,0.1,1.6,0.4s0.9,0.6,1.2,1.1v-4.2l-1.7-0.3v-1.9h1.7h3.1v14.6l1.5,0.3v1.9
	h-4.2L412.9,425z M408.5,420.9c0,1,0.2,1.8,0.5,2.4s0.9,0.9,1.7,0.9c0.5,0,0.9-0.1,1.2-0.3s0.6-0.5,0.8-0.8v-4.9
	c-0.2-0.4-0.5-0.7-0.8-0.9c-0.3-0.2-0.7-0.3-1.2-0.3c-0.8,0-1.3,0.3-1.7,1s-0.5,1.6-0.5,2.7V420.9z"/>
<path class="st1" d="M418,420.5c0-1.7,0.5-3.2,1.5-4.3c1-1.1,2.3-1.7,4-1.7s3.1,0.6,4,1.7c1,1.1,1.5,2.5,1.5,4.3v0.2
	c0,1.7-0.5,3.2-1.5,4.3c-1,1.1-2.3,1.6-4,1.6s-3.1-0.5-4-1.6c-1-1.1-1.5-2.5-1.5-4.3V420.5z M421.2,420.7c0,1.1,0.2,1.9,0.6,2.6
	c0.4,0.6,1,1,1.8,1s1.4-0.3,1.8-1s0.6-1.5,0.6-2.5v-0.2c0-1-0.2-1.9-0.6-2.5s-1-1-1.8-1s-1.4,0.3-1.8,1s-0.6,1.5-0.6,2.5V420.7z"/>
<path class="st1" d="M435.8,426.6c-1.7,0-3-0.5-4-1.6s-1.5-2.4-1.5-4.1v-0.4c0-1.7,0.5-3.1,1.4-4.3s2.2-1.7,3.8-1.7
	c1.6,0,2.8,0.5,3.7,1.4s1.3,2.2,1.3,3.8v1.7h-6.9v0.1c0.1,0.8,0.3,1.4,0.8,1.9s1.1,0.7,1.9,0.7c0.7,0,1.3-0.1,1.7-0.2
	c0.5-0.1,1-0.4,1.5-0.7l0.8,1.9c-0.5,0.4-1.1,0.7-1.9,1C437.6,426.5,436.8,426.6,435.8,426.6z M435.5,416.9c-0.6,0-1,0.2-1.4,0.7
	s-0.5,1-0.6,1.8v0.1h3.8v-0.3c0-0.7-0.2-1.2-0.5-1.6C436.6,417.1,436.2,416.9,435.5,416.9z"/>
<path class="st1" d="M451.2,418.7h-2.1l-0.3-1.5c-0.2-0.2-0.5-0.3-0.8-0.4s-0.7-0.2-1.1-0.2c-0.6,0-1,0.1-1.3,0.4
	c-0.3,0.2-0.5,0.6-0.5,0.9c0,0.4,0.2,0.6,0.5,0.9c0.3,0.2,0.9,0.4,1.8,0.6c1.4,0.3,2.5,0.7,3.2,1.3c0.7,0.6,1,1.3,1,2.3
	s-0.5,1.9-1.3,2.6c-0.9,0.7-2.1,1-3.5,1c-0.9,0-1.7-0.1-2.5-0.4c-0.7-0.3-1.4-0.6-2-1.1v-2.6h2.2l0.4,1.5c0.2,0.2,0.4,0.3,0.8,0.3
	c0.3,0.1,0.7,0.1,1,0.1c0.6,0,1.1-0.1,1.5-0.3c0.3-0.2,0.5-0.5,0.5-0.9c0-0.3-0.2-0.6-0.5-0.9s-1-0.5-1.9-0.7
	c-1.4-0.3-2.4-0.7-3.1-1.2s-1-1.3-1-2.2c0-1,0.4-1.8,1.2-2.5c0.8-0.7,1.9-1.1,3.4-1.1c0.9,0,1.8,0.1,2.6,0.4
	c0.8,0.2,1.4,0.6,1.9,0.9L451.2,418.7z"/>
<path class="st1" d="M452.8,424.5l1.5-0.3V417l-1.7-0.3v-1.9h4.6l0.1,1.7c0.4-0.6,0.9-1.1,1.4-1.4c0.6-0.3,1.2-0.5,1.9-0.5
	c1.2,0,2.1,0.4,2.8,1.1c0.7,0.7,1,1.9,1,3.5v5.1l1.5,0.3v1.9h-6v-1.9l1.3-0.3v-5c0-0.8-0.2-1.3-0.5-1.7c-0.3-0.3-0.8-0.5-1.4-0.5
	c-0.4,0-0.8,0.1-1.1,0.3c-0.3,0.2-0.6,0.4-0.8,0.7v6.2l1.3,0.3v1.9h-5.9L452.8,424.5L452.8,424.5z"/>
<path class="st1" d="M469.2,411.7c0,0.7-0.2,1.5-0.6,2.3s-0.8,1.4-1.4,1.9l-1.5-0.8c0.3-0.5,0.5-1,0.6-1.5c0.2-0.5,0.2-1.1,0.2-1.8
	v-2.1h2.6L469.2,411.7L469.2,411.7z"/>
<path class="st1" d="M475.1,411.9v2.8h2v2.2h-2v5.9c0,0.5,0.1,0.8,0.3,1s0.4,0.3,0.8,0.3c0.2,0,0.4,0,0.6,0s0.3,0,0.5-0.1l0.3,2.3
	c-0.4,0.1-0.7,0.2-1,0.2c-0.3,0.1-0.7,0.1-1.1,0.1c-1.1,0-1.9-0.3-2.5-0.9s-0.9-1.5-0.9-2.8V417h-1.7v-2.2h1.7V412h3V411.9z"/>
<path class="st1" d="M129,446.9c0-1.7,0.5-3.2,1.5-4.3c1-1.1,2.3-1.7,4-1.7s3.1,0.6,4,1.7c1,1.1,1.5,2.5,1.5,4.3v0.2
	c0,1.7-0.5,3.2-1.5,4.3c-1,1.1-2.3,1.7-4,1.7s-3.1-0.6-4-1.7c-1-1.1-1.5-2.5-1.5-4.3V446.9z M132.2,447.1c0,1.1,0.2,1.9,0.6,2.6
	c0.4,0.6,1,1,1.8,1s1.4-0.3,1.8-1s0.6-1.5,0.6-2.5V447c0-1-0.2-1.9-0.6-2.5c-0.4-0.7-1-1-1.8-1s-1.4,0.3-1.8,1
	c-0.4,0.7-0.6,1.5-0.6,2.5V447.1z"/>
<path class="st1" d="M141.2,450.9l1.5-0.3v-7.2H141v-2.2h1.7v-1.3c0-1.3,0.4-2.3,1.1-3c0.8-0.7,1.8-1.1,3.2-1.1c0.3,0,0.5,0,0.8,0.1
	c0.3,0,0.6,0.1,0.9,0.2l-0.3,2.3c-0.2,0-0.3-0.1-0.5-0.1s-0.3,0-0.6,0c-0.5,0-0.9,0.1-1.2,0.4s-0.4,0.7-0.4,1.2v1.3h2.3v2.2h-2.3
	v7.2l1.5,0.3v1.9H141v-1.9H141.2z"/>
<path class="st1" d="M149.4,450.9l1.5-0.3v-7.2h-1.7v-2.2h1.7v-1.3c0-1.3,0.4-2.3,1.1-3c0.8-0.7,1.8-1.1,3.2-1.1
	c0.3,0,0.5,0,0.8,0.1c0.3,0,0.6,0.1,0.9,0.2l-0.3,2.3c-0.2,0-0.3-0.1-0.5-0.1s-0.3,0-0.6,0c-0.5,0-0.9,0.1-1.2,0.4s-0.4,0.7-0.4,1.2
	v1.3h2.3v2.2h-2.3v7.2l1.5,0.3v1.9h-6.2v-1.9H149.4z"/>
<path class="st1" d="M162.8,453c-1.7,0-3-0.5-4-1.6s-1.5-2.4-1.5-4.1v-0.4c0-1.7,0.5-3.1,1.4-4.3c0.9-1.1,2.2-1.7,3.8-1.7
	s2.8,0.5,3.7,1.4s1.3,2.2,1.3,3.8v1.7h-6.9v0.1c0.1,0.8,0.3,1.4,0.8,1.9s1.1,0.7,1.9,0.7c0.7,0,1.3-0.1,1.7-0.2
	c0.5-0.1,1-0.4,1.5-0.7l0.8,1.9c-0.5,0.4-1.1,0.7-1.9,1S163.7,453,162.8,453z M162.5,443.3c-0.6,0-1,0.2-1.4,0.7
	c-0.3,0.4-0.5,1-0.6,1.8v0.1h3.8v-0.3c0-0.7-0.2-1.2-0.5-1.6C163.6,443.5,163.1,443.3,162.5,443.3z"/>
<path class="st1" d="M168.8,450.9l1.5-0.3v-7.2l-1.7-0.3v-1.9h4.6l0.1,1.7c0.3-0.6,0.6-1.1,1.1-1.4c0.4-0.3,0.9-0.5,1.5-0.5
	c0.2,0,0.3,0,0.5,0s0.3,0.1,0.5,0.1l-0.3,2.9h-1.3c-0.5,0-0.8,0.1-1.1,0.3c-0.3,0.2-0.5,0.4-0.7,0.8v5.7l1.5,0.3v1.9h-6.1v-2.1
	H168.8z"/>
<path class="st1" d="M183,443v-1.9h4.6l0.2,1.4c0.3-0.5,0.8-0.9,1.2-1.2c0.5-0.3,1-0.4,1.7-0.4c1.4,0,2.6,0.6,3.4,1.7
	c0.8,1.1,1.2,2.6,1.2,4.4v0.2c0,1.7-0.4,3.1-1.2,4.1s-1.9,1.6-3.3,1.6c-0.6,0-1.1-0.1-1.6-0.3c-0.5-0.2-0.9-0.6-1.2-1v3.4l1.5,0.3
	v1.9h-6.2v-1.9l1.5-0.3v-11.7L183,443z M192,447.1c0-1.1-0.2-2-0.5-2.7c-0.4-0.7-0.9-1-1.7-1c-0.5,0-0.9,0.1-1.2,0.3
	s-0.6,0.5-0.8,0.8v5.1c0.2,0.3,0.5,0.6,0.8,0.8s0.7,0.3,1.2,0.3c0.8,0,1.3-0.3,1.7-0.9s0.5-1.4,0.5-2.4V447.1z"/>
<path class="st1" d="M196.3,450.9l1.5-0.3v-7.2l-1.7-0.3v-1.9h4.6l0.1,1.7c0.3-0.6,0.6-1.1,1.1-1.4c0.4-0.3,0.9-0.5,1.5-0.5
	c0.2,0,0.3,0,0.5,0s0.3,0.1,0.5,0.1l-0.3,2.9h-1.3c-0.5,0-0.8,0.1-1.1,0.3c-0.3,0.2-0.5,0.4-0.7,0.8v5.7l1.5,0.3v1.9h-6.1v-2.1
	H196.3z"/>
<path class="st1" d="M205.1,446.9c0-1.7,0.5-3.2,1.5-4.3c1-1.1,2.3-1.7,4-1.7s3.1,0.6,4,1.7c1,1.1,1.5,2.5,1.5,4.3v0.2
	c0,1.7-0.5,3.2-1.5,4.3c-1,1.1-2.3,1.7-4,1.7s-3.1-0.6-4-1.7c-1-1.1-1.5-2.5-1.5-4.3V446.9z M208.3,447.1c0,1.1,0.2,1.9,0.6,2.6
	c0.4,0.6,1,1,1.8,1s1.4-0.3,1.8-1s0.6-1.5,0.6-2.5V447c0-1-0.2-1.9-0.6-2.5c-0.4-0.7-1-1-1.8-1s-1.4,0.3-1.8,1
	c-0.4,0.7-0.6,1.5-0.6,2.5V447.1z"/>
<path class="st1" d="M221.8,438.3v2.8h2v2.2h-2v5.9c0,0.5,0.1,0.8,0.3,1s0.4,0.3,0.8,0.3c0.2,0,0.4,0,0.6,0s0.3,0,0.5-0.1l0.3,2.3
	c-0.4,0.1-0.7,0.2-1,0.2c-0.3,0.1-0.7,0.1-1.1,0.1c-1.1,0-1.9-0.3-2.5-0.9s-0.9-1.5-0.9-2.8v-5.9h-1.7v-2.2h1.7v-2.8h3V438.3z"/>
<path class="st1" d="M230.5,453c-1.7,0-3-0.5-4-1.6s-1.5-2.4-1.5-4.1v-0.4c0-1.7,0.5-3.1,1.4-4.3c0.9-1.1,2.2-1.7,3.8-1.7
	s2.8,0.5,3.7,1.4s1.3,2.2,1.3,3.8v1.7h-6.9v0.1c0.1,0.8,0.3,1.4,0.8,1.9s1.1,0.7,1.9,0.7c0.7,0,1.3-0.1,1.7-0.2
	c0.5-0.1,1-0.4,1.5-0.7l0.8,1.9c-0.5,0.4-1.1,0.7-1.9,1S231.4,453,230.5,453z M230.2,443.3c-0.6,0-1,0.2-1.4,0.7
	c-0.3,0.4-0.5,1-0.6,1.8v0.1h3.8v-0.3c0-0.7-0.2-1.2-0.5-1.6C231.3,443.5,230.8,443.3,230.2,443.3z"/>
<path class="st1" d="M242,450.6c0.6,0,1-0.2,1.3-0.5s0.5-0.8,0.5-1.3h2.8v0.1c0,1.2-0.4,2.2-1.3,2.9c-0.9,0.8-2,1.2-3.4,1.2
	c-1.7,0-3.1-0.5-4-1.6s-1.4-2.5-1.4-4.2v-0.3c0-1.7,0.5-3.1,1.4-4.2c1-1.1,2.3-1.7,4.1-1.7c0.9,0,1.8,0.1,2.5,0.4s1.4,0.7,1.9,1.2
	v3.1H244l-0.5-1.8c-0.2-0.1-0.4-0.2-0.6-0.3c-0.2-0.1-0.5-0.1-0.8-0.1c-0.9,0-1.5,0.3-1.9,1s-0.5,1.5-0.5,2.5v0.3
	c0,1,0.2,1.9,0.5,2.5C240.5,450.3,241.1,450.6,242,450.6z"/>
<path class="st1" d="M252.7,438.3v2.8h2v2.2h-2v5.9c0,0.5,0.1,0.8,0.3,1s0.4,0.3,0.8,0.3c0.2,0,0.4,0,0.6,0s0.3,0,0.5-0.1l0.3,2.3
	c-0.4,0.1-0.7,0.2-1,0.2c-0.3,0.1-0.7,0.1-1.1,0.1c-1.1,0-1.9-0.3-2.5-0.9s-0.9-1.5-0.9-2.8v-5.9H248v-2.2h1.7v-2.8h3V438.3z"/>
<path class="st1" d="M256.2,450.9l1.5-0.3v-7.2l-1.7-0.3v-1.9h4.8v9.4l1.5,0.3v1.9h-6.2v-1.9H256.2z M260.9,438.4h-3.1V436h3.1
	V438.4z"/>
<path class="st1" d="M263.1,446.9c0-1.7,0.5-3.2,1.5-4.3c1-1.1,2.3-1.7,4-1.7s3.1,0.6,4,1.7c1,1.1,1.5,2.5,1.5,4.3v0.2
	c0,1.7-0.5,3.2-1.5,4.3c-1,1.1-2.3,1.7-4,1.7s-3.1-0.6-4-1.7c-1-1.1-1.5-2.5-1.5-4.3V446.9z M266.2,447.1c0,1.1,0.2,1.9,0.6,2.6
	c0.4,0.6,1,1,1.8,1s1.4-0.3,1.8-1s0.6-1.5,0.6-2.5V447c0-1-0.2-1.9-0.6-2.5c-0.4-0.7-1-1-1.8-1s-1.4,0.3-1.8,1s-0.6,1.5-0.6,2.5
	V447.1z"/>
<path class="st1" d="M274.9,450.9l1.5-0.3v-7.2l-1.7-0.3v-1.9h4.6l0.1,1.7c0.4-0.6,0.9-1.1,1.4-1.4c0.6-0.3,1.2-0.5,1.9-0.5
	c1.2,0,2.1,0.4,2.8,1.1c0.7,0.7,1,1.9,1,3.5v5.1l1.5,0.3v1.9h-6V451l1.3-0.3v-5c0-0.8-0.2-1.3-0.5-1.7c-0.3-0.3-0.8-0.5-1.4-0.5
	c-0.4,0-0.8,0.1-1.1,0.3c-0.3,0.2-0.6,0.4-0.8,0.7v6.2l1.3,0.3v1.9h-5.9L274.9,450.9L274.9,450.9z"/>
<path class="st1" d="M294.6,450.9l1.5-0.3v-7.2h-1.7v-2.2h1.7v-1.3c0-1.3,0.4-2.3,1.1-3c0.8-0.7,1.8-1.1,3.2-1.1
	c0.3,0,0.5,0,0.8,0.1c0.3,0,0.6,0.1,0.9,0.2l-0.3,2.3c-0.2,0-0.3-0.1-0.5-0.1s-0.3,0-0.6,0c-0.5,0-0.9,0.1-1.2,0.4
	c-0.3,0.3-0.4,0.7-0.4,1.2v1.3h2.3v2.2h-2.3v7.2l1.5,0.3v1.9h-6.2v-1.9H294.6z"/>
<path class="st1" d="M302.9,450.9l1.5-0.3v-7.2l-1.7-0.3v-1.9h4.6l0.1,1.7c0.3-0.6,0.6-1.1,1.1-1.4c0.4-0.3,0.9-0.5,1.5-0.5
	c0.2,0,0.3,0,0.5,0s0.3,0.1,0.5,0.1l-0.3,2.9h-1.3c-0.5,0-0.8,0.1-1.1,0.3c-0.3,0.2-0.5,0.4-0.7,0.8v5.7l1.5,0.3v1.9H303v-2.1H302.9
	z"/>
<path class="st1" d="M311.7,446.9c0-1.7,0.5-3.2,1.5-4.3c1-1.1,2.3-1.7,4-1.7s3.1,0.6,4,1.7c1,1.1,1.5,2.5,1.5,4.3v0.2
	c0,1.7-0.5,3.2-1.5,4.3c-1,1.1-2.3,1.7-4,1.7s-3.1-0.6-4-1.7c-1-1.1-1.5-2.5-1.5-4.3V446.9z M314.8,447.1c0,1.1,0.2,1.9,0.6,2.6
	c0.4,0.6,1,1,1.8,1s1.4-0.3,1.8-1s0.6-1.5,0.6-2.5V447c0-1-0.2-1.9-0.6-2.5c-0.4-0.7-1-1-1.8-1s-1.4,0.3-1.8,1s-0.6,1.5-0.6,2.5
	V447.1z"/>
<path class="st1" d="M323.4,443v-1.9h4.6l0.1,1.5c0.4-0.6,0.8-1,1.4-1.3s1.2-0.5,1.9-0.5c0.7,0,1.4,0.2,1.9,0.5s0.9,0.8,1.2,1.5
	c0.4-0.6,0.8-1.1,1.4-1.5s1.2-0.5,2-0.5c1.1,0,2,0.4,2.7,1.2c0.7,0.8,1,2,1,3.6v4.8l1.5,0.3v1.9h-6v-1.9l1.4-0.3v-4.8
	c0-0.9-0.1-1.5-0.4-1.8s-0.7-0.5-1.3-0.5c-0.4,0-0.8,0.1-1.2,0.3c-0.3,0.2-0.6,0.5-0.8,0.8c0,0.1,0,0.3,0,0.3c0,0.1,0,0.2,0,0.3v5.4
	l1.3,0.3v1.9h-5.7v-1.9l1.3-0.3v-4.8c0-0.9-0.1-1.5-0.4-1.8c-0.3-0.4-0.7-0.5-1.3-0.5c-0.4,0-0.8,0.1-1.1,0.2
	c-0.3,0.2-0.6,0.4-0.8,0.7v6.3l1.4,0.3v1.9h-6v-1.9l1.5-0.3v-7.2L323.4,443z"/>
<path class="st1" d="M361.4,442.1H359l-0.4-2.1c-0.3-0.2-0.7-0.3-1.2-0.5c-0.5-0.1-1.1-0.2-1.7-0.2c-0.9,0-1.5,0.2-2,0.5
	c-0.5,0.4-0.7,0.8-0.7,1.4c0,0.5,0.2,1,0.7,1.3s1.3,0.7,2.5,1.1c1.7,0.5,3,1.1,3.9,1.9s1.3,1.8,1.3,3.1c0,1.3-0.5,2.4-1.6,3.2
	c-1.1,0.8-2.5,1.2-4.2,1.2c-1.2,0-2.4-0.2-3.4-0.6s-1.8-0.9-2.5-1.6v-3.3h2.4l0.3,2.2c0.3,0.3,0.7,0.5,1.3,0.6s1.1,0.3,1.8,0.3
	c0.9,0,1.5-0.2,2-0.5c0.4-0.4,0.7-0.8,0.7-1.4s-0.2-1.1-0.6-1.4s-1.2-0.7-2.2-1c-1.9-0.5-3.3-1.2-4.2-1.9c-1-0.7-1.4-1.7-1.4-3
	s0.5-2.3,1.6-3.1c1.1-0.8,2.4-1.2,4-1.2c1.2,0,2.3,0.2,3.3,0.5s1.8,0.9,2.5,1.5v3H361.4z"/>
<path class="st1" d="M376.6,437.1v4.2h-2.4l-0.1-1.8h-2.9v11l1.7,0.3v1.9h-6.5v-1.9l1.7-0.3v-11h-2.9l-0.1,1.8h-2.4v-4.2H376.6z"/>
<path class="st1" d="M384.8,437.1c1.9,0,3.5,0.6,4.7,1.8c1.2,1.2,1.9,2.8,1.9,4.7v2.6c0,1.9-0.6,3.5-1.9,4.7
	c-1.2,1.2-2.8,1.8-4.7,1.8h-7v-1.9l1.7-0.3v-11.2l-1.7-0.3v-1.9h1.7L384.8,437.1L384.8,437.1z M382.6,439.5v10.8h2.1
	c1.1,0,2-0.4,2.6-1.1c0.6-0.8,1-1.8,1-3v-2.6c0-1.2-0.3-2.2-1-3c-0.6-0.8-1.5-1.1-2.6-1.1L382.6,439.5L382.6,439.5z"/>
<path class="st1" d="M402.3,445.1h-2.1l-0.3-1.4c-0.2-0.2-0.5-0.3-0.8-0.4s-0.7-0.2-1.1-0.2c-0.6,0-1,0.1-1.3,0.4
	c-0.3,0.2-0.5,0.6-0.5,0.9c0,0.4,0.2,0.6,0.5,0.9c0.3,0.2,0.9,0.4,1.8,0.6c1.4,0.3,2.5,0.7,3.2,1.3s1,1.3,1,2.3s-0.4,1.9-1.3,2.6
	s-2.1,1-3.6,1c-0.9,0-1.7-0.1-2.5-0.4c-0.7-0.3-1.4-0.6-2-1.1V449h2.2l0.4,1.5c0.2,0.2,0.4,0.3,0.8,0.3c0.3,0.1,0.7,0.1,1,0.1
	c0.6,0,1.1-0.1,1.5-0.3c0.3-0.2,0.5-0.5,0.5-0.9c0-0.3-0.2-0.6-0.5-0.9s-1-0.5-1.9-0.7c-1.4-0.3-2.4-0.7-3.1-1.2s-1-1.3-1-2.2
	c0-1,0.4-1.8,1.2-2.5s1.9-1.1,3.4-1.1c0.9,0,1.8,0.1,2.6,0.4c0.8,0.2,1.4,0.6,1.9,0.9L402.3,445.1z"/>
<path class="st1" d="M407.9,452.8h-3.1V450h3.1V452.8z"/>
</svg>
