<svg id="Layer_1" data-name="Layer 1" xmlns="http://www.w3.org/2000/svg" viewBox="0 0 611.8 611.8"><defs><style>.cls-1{fill:#f5faf8;stroke:#f4783b;stroke-linecap:round;stroke-linejoin:round;stroke-width:11.8px;}.cls-2{font-size:32px;fill:#f4783b;font-family:RobotoSlab-Bold, Roboto Slab;font-weight:700;}.cls-3{letter-spacing:-0.02em;}.cls-4{letter-spacing:-0.02em;}.cls-5{letter-spacing:-0.02em;}.cls-6{letter-spacing:-0.01em;}.cls-7{letter-spacing:-0.02em;}.cls-8{letter-spacing:-0.02em;}.cls-58,.cls-9{font-size:22px;}.cls-10{letter-spacing:-0.01em;}.cls-11{letter-spacing:-0.02em;}.cls-12{letter-spacing:-0.02em;}.cls-13{letter-spacing:-0.01em;}.cls-14{letter-spacing:-0.02em;}.cls-15{letter-spacing:-0.02em;}.cls-16{letter-spacing:0.01em;}.cls-17{letter-spacing:-0.01em;}.cls-18{letter-spacing:-0.02em;}.cls-19{letter-spacing:-0.01em;}.cls-20{letter-spacing:-0.01em;}.cls-21{letter-spacing:0em;}.cls-22{letter-spacing:-0.01em;}.cls-23{letter-spacing:0.01em;}.cls-24{letter-spacing:-0.02em;}.cls-25{letter-spacing:-0.08em;}.cls-26{letter-spacing:-0.03em;}.cls-27{letter-spacing:-0.02em;}.cls-28{letter-spacing:0em;}.cls-29{letter-spacing:-0.02em;}.cls-30{letter-spacing:0em;}.cls-31{letter-spacing:0.02em;}.cls-32{letter-spacing:0em;}.cls-33{letter-spacing:-0.01em;}.cls-34{letter-spacing:-0.03em;}.cls-35{letter-spacing:0em;}.cls-36{letter-spacing:0em;}.cls-37{letter-spacing:-0.02em;}.cls-38{letter-spacing:-0.01em;}.cls-39{letter-spacing:-0.01em;}.cls-40{letter-spacing:-0.01em;}.cls-41{letter-spacing:0.01em;}.cls-42{letter-spacing:0em;}.cls-43{letter-spacing:0em;}.cls-44{letter-spacing:-0.02em;}.cls-45{letter-spacing:0em;}.cls-46{letter-spacing:-0.01em;}.cls-47{letter-spacing:0em;}.cls-48{letter-spacing:-0.01em;}.cls-49{letter-spacing:-0.01em;}.cls-50{letter-spacing:0em;}.cls-51{letter-spacing:-0.02em;}.cls-52{letter-spacing:-0.02em;}.cls-53{letter-spacing:0.02em;}.cls-54{letter-spacing:-0.02em;}.cls-55{letter-spacing:0em;}.cls-56{letter-spacing:-0.01em;}.cls-57{letter-spacing:0.01em;}.cls-58{letter-spacing:-0.23em;}.cls-59{letter-spacing:-0.03em;}.cls-60{letter-spacing:-0.02em;}.cls-61{letter-spacing:-0.02em;}.cls-62{letter-spacing:0.01em;}.cls-63{letter-spacing:-0.01em;}.cls-64{letter-spacing:0em;}.cls-65{letter-spacing:-0.01em;}.cls-66{letter-spacing:-0.01em;}.cls-67{letter-spacing:-0.02em;}.cls-68{letter-spacing:-0.01em;}.cls-69{letter-spacing:-0.01em;}.cls-70{letter-spacing:0em;}.cls-71{letter-spacing:-0.01em;}.cls-72{letter-spacing:0em;}.cls-73{letter-spacing:0.01em;}.cls-74{letter-spacing:-0.01em;}.cls-75{letter-spacing:0em;}.cls-76{letter-spacing:-0.02em;}.cls-77{letter-spacing:-0.01em;}.cls-78{letter-spacing:-0.01em;}.cls-79{letter-spacing:-0.01em;}.cls-80{letter-spacing:-0.03em;}.cls-81{letter-spacing:0.01em;}.cls-82{letter-spacing:0.01em;}.cls-83{letter-spacing:-0.02em;}.cls-84{letter-spacing:-0.01em;}.cls-85{letter-spacing:-0.02em;}.cls-86{letter-spacing:-0.05em;}.cls-87{letter-spacing:-0.01em;}.cls-88{letter-spacing:0.01em;}.cls-89{letter-spacing:-0.01em;}.cls-90{letter-spacing:0em;}.cls-91{letter-spacing:-0.02em;}.cls-92{letter-spacing:-0.02em;}.cls-93{letter-spacing:-0.01em;}.cls-94{letter-spacing:0em;}.cls-95{letter-spacing:0.01em;}.cls-96{letter-spacing:0em;}.cls-97{letter-spacing:-0.01em;}.cls-98{letter-spacing:-0.03em;}.cls-99{letter-spacing:0em;}.cls-100{letter-spacing:-0.01em;}.cls-101{letter-spacing:-0.05em;}.cls-102{letter-spacing:-0.01em;}.cls-103{letter-spacing:0.01em;}.cls-104{letter-spacing:-0.01em;}.cls-105{letter-spacing:-0.01em;}.cls-106{letter-spacing:-0.02em;}.cls-107{letter-spacing:-0.02em;}.cls-108{letter-spacing:0em;}.cls-109{letter-spacing:-0.01em;}.cls-110{letter-spacing:-0.01em;}.cls-111{letter-spacing:0em;}.cls-112{letter-spacing:-0.01em;}.cls-113{letter-spacing:-0.01em;}</style></defs><title>std web mockupsasfd</title><rect class="cls-1" x="5.9" y="5.9" width="600" height="600" rx="300" ry="300"/><text class="cls-2" transform="translate(247.14 135.97)"><tspan class="cls-3">P</tspan><tspan class="cls-4" x="20.15" y="0">a</tspan><tspan class="cls-5" x="37.04" y="0">t</tspan><tspan class="cls-6" x="48.25" y="0">c</tspan><tspan class="cls-7" x="64.76" y="0">h</tspan><tspan class="cls-8" x="84.48" y="0">e</tspan><tspan x="101.05" y="0">s</tspan><tspan class="cls-9"><tspan x="-98.78" y="52.8">A </tspan><tspan class="cls-10" x="-77.58" y="52.8">p</tspan><tspan class="cls-11" x="-64.46" y="52.8">a</tspan><tspan class="cls-12" x="-52.79" y="52.8">t</tspan><tspan class="cls-13" x="-45" y="52.8">c</tspan><tspan x="-33.59" y="52.8">h </tspan><tspan class="cls-14" x="-14.21" y="52.8">w</tspan><tspan class="cls-15" x="3.04" y="52.8">o</tspan><tspan class="cls-16" x="14.86" y="52.8">r</tspan><tspan x="24.45" y="52.8">n </tspan><tspan class="cls-17" x="43.8" y="52.8">o</tspan><tspan x="55.84" y="52.8">n </tspan><tspan class="cls-18" x="75.2" y="52.8">y</tspan><tspan class="cls-19" x="87.88" y="52.8">o</tspan><tspan class="cls-20" x="99.9" y="52.8">u</tspan><tspan x="113.5" y="52.8">r </tspan><tspan class="cls-21" x="128.16" y="52.8">b</tspan><tspan class="cls-22" x="140.76" y="52.8">e</tspan><tspan class="cls-23" x="152.32" y="52.8">l</tspan><tspan class="cls-24" x="159.53" y="52.8">l</tspan><tspan class="cls-25" x="166.09" y="52.8">y</tspan><tspan x="177.33" y="52.8">, </tspan><tspan class="cls-26" x="-118.78" y="79.2">u</tspan><tspan class="cls-27" x="-105.62" y="79.2">p</tspan><tspan class="cls-28" x="-92.66" y="79.2">p</tspan><tspan class="cls-29" x="-79.4" y="79.2">e</tspan><tspan x="-68.05" y="79.2">r </tspan><tspan class="cls-30" x="-53.4" y="79.2">a</tspan><tspan class="cls-31" x="-41.36" y="79.2">r</tspan><tspan class="cls-32" x="-31.76" y="79.2">m</tspan><tspan x="-11.31" y="79.2">, </tspan><tspan class="cls-33" x="-0.51" y="79.2">b</tspan><tspan class="cls-34" x="11.88" y="79.2">u</tspan><tspan class="cls-35" x="25" y="79.2">t</tspan><tspan class="cls-36" x="33.15" y="79.2">t</tspan><tspan x="41.25" y="79.2">, </tspan><tspan class="cls-37" x="52.05" y="79.2">o</tspan><tspan x="63.87" y="79.2">r </tspan><tspan class="cls-38" x="78.53" y="79.2">b</tspan><tspan class="cls-39" x="90.99" y="79.2">a</tspan><tspan class="cls-40" x="102.86" y="79.2">c</tspan><tspan x="114.27" y="79.2">k </tspan><tspan class="cls-41" x="133.08" y="79.2">t</tspan><tspan class="cls-42" x="141.41" y="79.2">h</tspan><tspan class="cls-11" x="155.39" y="79.2">a</tspan><tspan x="167.06" y="79.2">t </tspan><tspan class="cls-43" x="-118.78" y="105.6">s</tspan><tspan class="cls-44" x="-107.55" y="105.6">h</tspan><tspan class="cls-19" x="-93.9" y="105.6">o</tspan><tspan class="cls-45" x="-81.87" y="105.6">u</tspan><tspan class="cls-46" x="-68.05" y="105.6">l</tspan><tspan x="-61.28" y="105.6">d </tspan><tspan class="cls-47" x="-42.87" y="105.6">b</tspan><tspan x="-30.27" y="105.6">e </tspan><tspan class="cls-48" x="-13.16" y="105.6">r</tspan><tspan class="cls-44" x="-4.17" y="105.6">ep</tspan><tspan class="cls-42" x="20.2" y="105.6">l</tspan><tspan class="cls-39" x="27.21" y="105.6">a</tspan><tspan class="cls-49" x="39.08" y="105.6">c</tspan><tspan class="cls-50" x="50.52" y="105.6">e</tspan><tspan x="62.19" y="105.6">d </tspan><tspan class="cls-48" x="80.61" y="105.6">e</tspan><tspan class="cls-51" x="92.05" y="105.6">v</tspan><tspan class="cls-52" x="104.23" y="105.6">e</tspan><tspan class="cls-53" x="115.57" y="105.6">r</tspan><tspan x="125.18" y="105.6">y </tspan><tspan class="cls-54" x="143.59" y="105.6">w</tspan><tspan class="cls-55" x="160.83" y="105.6">e</tspan><tspan class="cls-56" x="172.45" y="105.6">e</tspan><tspan class="cls-57" x="184" y="105.6">k</tspan><tspan x="197.57" y="105.6">.</tspan></tspan><tspan class="cls-58"><tspan x="-98.78" y="132">	</tspan></tspan><tspan class="cls-9"><tspan class="cls-59" x="-98.78" y="158.4">I</tspan><tspan x="-91.72" y="158.4">t </tspan><tspan class="cls-43" x="-78.12" y="158.4">s</tspan><tspan class="cls-60" x="-66.9" y="158.4">h</tspan><tspan class="cls-19" x="-53.24" y="158.4">o</tspan><tspan class="cls-45" x="-41.22" y="158.4">u</tspan><tspan class="cls-46" x="-27.4" y="158.4">l</tspan><tspan x="-20.63" y="158.4">d </tspan><tspan class="cls-21" x="-2.22" y="158.4">b</tspan><tspan x="10.39" y="158.4">e </tspan><tspan class="cls-61" x="27.5" y="158.4">w</tspan><tspan class="cls-37" x="44.75" y="158.4">o</tspan><tspan class="cls-62" x="56.58" y="158.4">r</tspan><tspan x="66.16" y="158.4">n </tspan><tspan class="cls-63" x="85.52" y="158.4">f</tspan><tspan class="cls-37" x="93.45" y="158.4">o</tspan><tspan x="105.27" y="158.4">r 3 </tspan><tspan class="cls-54" x="137.26" y="158.4">w</tspan><tspan class="cls-64" x="154.5" y="158.4">e</tspan><tspan class="cls-22" x="166.12" y="158.4">e</tspan><tspan class="cls-65" x="177.67" y="158.4">k</tspan><tspan class="cls-66" x="190.88" y="158.4">s</tspan><tspan x="201.98" y="158.4">, </tspan><tspan class="cls-41" x="-118.78" y="184.8">t</tspan><tspan class="cls-67" x="-110.45" y="184.8">h</tspan><tspan class="cls-22" x="-96.82" y="184.8">e</tspan><tspan x="-85.26" y="184.8">n </tspan><tspan class="cls-68" x="-65.91" y="184.8">n</tspan><tspan class="cls-69" x="-52.26" y="184.8">o</tspan><tspan x="-40.24" y="184.8">t </tspan><tspan class="cls-61" x="-26.64" y="184.8">w</tspan><tspan class="cls-15" x="-9.39" y="184.8">o</tspan><tspan class="cls-16" x="2.43" y="184.8">r</tspan><tspan x="12.02" y="184.8">n </tspan><tspan class="cls-63" x="31.38" y="184.8">f</tspan><tspan class="cls-15" x="39.3" y="184.8">o</tspan><tspan x="51.13" y="184.8">r a </tspan><tspan class="cls-54" x="83.26" y="184.8">w</tspan><tspan class="cls-64" x="100.49" y="184.8">e</tspan><tspan class="cls-22" x="112.12" y="184.8">e</tspan><tspan class="cls-70" x="123.67" y="184.8">k</tspan><tspan x="137.02" y="184.8">, </tspan><tspan class="cls-48" x="-118.78" y="211.2">r</tspan><tspan class="cls-44" x="-109.79" y="211.2">e</tspan><tspan class="cls-28" x="-98.41" y="211.2">p</tspan><tspan class="cls-71" x="-85.14" y="211.2">e</tspan><tspan class="cls-11" x="-73.66" y="211.2">a</tspan><tspan class="cls-72" x="-61.98" y="211.2">t</tspan><tspan class="cls-73" x="-53.7" y="211.2">i</tspan><tspan class="cls-74" x="-46.41" y="211.2">n</tspan><tspan x="-32.77" y="211.2">g </tspan><tspan class="cls-41" x="-14.81" y="211.2">t</tspan><tspan class="cls-67" x="-6.48" y="211.2">h</tspan><tspan x="7.15" y="211.2">e </tspan><tspan class="cls-75" x="24.26" y="211.2">c</tspan><tspan class="cls-76" x="35.88" y="211.2">y</tspan><tspan class="cls-40" x="48.53" y="211.2">c</tspan><tspan class="cls-51" x="59.94" y="211.2">l</tspan><tspan x="66.6" y="211.2">e </tspan><tspan class="cls-71" x="83.71" y="211.2">e</tspan><tspan class="cls-77" x="95.2" y="211.2">a</tspan><tspan class="cls-13" x="107.07" y="211.2">c</tspan><tspan x="118.48" y="211.2">h </tspan><tspan class="cls-78" x="137.86" y="211.2">m</tspan><tspan class="cls-79" x="158" y="211.2">o</tspan><tspan class="cls-80" x="170.03" y="211.2">n</tspan><tspan class="cls-41" x="183.37" y="211.2">t</tspan><tspan class="cls-81" x="191.69" y="211.2">h</tspan><tspan x="205.88" y="211.2">.</tspan></tspan><tspan class="cls-58"><tspan x="-98.78" y="237.6">	</tspan></tspan><tspan class="cls-9"><tspan class="cls-82" x="-98.78" y="264">T</tspan><tspan class="cls-67" x="-83.74" y="264">h</tspan><tspan x="-70.11" y="264">e </tspan><tspan class="cls-10" x="-53" y="264">p</tspan><tspan class="cls-11" x="-39.88" y="264">a</tspan><tspan class="cls-83" x="-28.2" y="264">t</tspan><tspan class="cls-40" x="-20.42" y="264">c</tspan><tspan x="-9.01" y="264">h </tspan><tspan class="cls-84" x="10.37" y="264">i</tspan><tspan x="17.29" y="264">s </tspan><tspan class="cls-85" x="34.01" y="264">9</tspan><tspan class="cls-86" x="45.83" y="264">1</tspan><tspan x="54.36" y="264">% </tspan><tspan class="cls-87" x="75.1" y="264">e</tspan><tspan class="cls-88" x="86.5" y="264">f</tspan><tspan class="cls-89" x="94.8" y="264">f</tspan><tspan class="cls-64" x="102.71" y="264">e</tspan><tspan class="cls-90" x="114.34" y="264">c</tspan><tspan class="cls-72" x="125.85" y="264">t</tspan><tspan class="cls-91" x="134.13" y="264">i</tspan><tspan class="cls-51" x="140.73" y="264">v</tspan><tspan x="152.91" y="264">e </tspan><tspan class="cls-73" x="170.02" y="264">i</tspan><tspan x="177.31" y="264">n </tspan><tspan class="cls-92" x="-118.78" y="290.4">p</tspan><tspan class="cls-48" x="-105.86" y="290.4">re</tspan><tspan class="cls-51" x="-85.43" y="290.4">v</tspan><tspan class="cls-22" x="-73.25" y="290.4">e</tspan><tspan class="cls-80" x="-61.7" y="290.4">n</tspan><tspan class="cls-72" x="-48.37" y="290.4">t</tspan><tspan class="cls-73" x="-40.09" y="290.4">i</tspan><tspan class="cls-87" x="-32.8" y="290.4">n</tspan><tspan x="-19.16" y="290.4">g </tspan><tspan class="cls-92" x="-1.2" y="290.4">p</tspan><tspan class="cls-48" x="11.72" y="290.4">r</tspan><tspan class="cls-93" x="20.7" y="290.4">e</tspan><tspan class="cls-94" x="32.3" y="290.4">g</tspan><tspan x="44.88" y="290.4">n</tspan><tspan class="cls-95" x="58.85" y="290.4">a</tspan><tspan class="cls-44" x="71.11" y="290.4">n</tspan><tspan class="cls-96" x="84.74" y="290.4">c</tspan><tspan class="cls-25" x="96.35" y="290.4">y</tspan><tspan x="107.59" y="290.4">, </tspan><tspan class="cls-97" x="118.39" y="290.4">b</tspan><tspan class="cls-98" x="130.78" y="290.4">u</tspan><tspan x="143.9" y="290.4">t </tspan><tspan class="cls-68" x="157.5" y="290.4">d</tspan><tspan class="cls-99" x="170.2" y="290.4">o</tspan><tspan class="cls-100" x="182.44" y="290.4">e</tspan><tspan class="cls-43" x="193.9" y="290.4">s</tspan><tspan class="cls-101" x="205.13" y="290.4">n</tspan><tspan class="cls-102" x="217.9" y="290.4">’</tspan><tspan x="222.66" y="290.4">t </tspan><tspan class="cls-61" x="-118.78" y="316.8">o</tspan><tspan class="cls-103" x="-106.83" y="316.8">f</tspan><tspan class="cls-89" x="-98.54" y="316.8">f</tspan><tspan class="cls-29" x="-90.62" y="316.8">e</tspan><tspan x="-79.28" y="316.8">r </tspan><tspan class="cls-92" x="-64.63" y="316.8">p</tspan><tspan class="cls-104" x="-51.71" y="316.8">r</tspan><tspan class="cls-105" x="-42.7" y="316.8">o</tspan><tspan class="cls-106" x="-30.68" y="316.8">t</tspan><tspan class="cls-64" x="-22.91" y="316.8">e</tspan><tspan class="cls-90" x="-11.29" y="316.8">c</tspan><tspan class="cls-72" x="0.23" y="316.8">t</tspan><tspan class="cls-107" x="8.51" y="316.8">i</tspan><tspan class="cls-17" x="15.26" y="316.8">o</tspan><tspan x="27.3" y="316.8">n </tspan><tspan class="cls-108" x="46.66" y="316.8">f</tspan><tspan class="cls-109" x="54.89" y="316.8">r</tspan><tspan class="cls-110" x="63.89" y="316.8">o</tspan><tspan x="75.94" y="316.8">m </tspan><tspan class="cls-111" x="101.8" y="316.8">S</tspan><tspan class="cls-88" x="115.11" y="316.8">T</tspan><tspan class="cls-112" x="130.02" y="316.8">D</tspan><tspan class="cls-113" x="145.03" y="316.8">s</tspan><tspan x="156.22" y="316.8">.</tspan></tspan></text></svg>