<?xml version="1.0" encoding="utf-8"?>
<!-- Generator: Adobe Illustrator 22.0.1, SVG Export Plug-In . SVG Version: 6.00 Build 0)  -->
<!DOCTYPE svg PUBLIC "-//W3C//DTD SVG 1.1//EN" "http://www.w3.org/Graphics/SVG/1.1/DTD/svg11.dtd">
<svg version="1.1" id="Layer_1" xmlns="http://www.w3.org/2000/svg" xmlns:xlink="http://www.w3.org/1999/xlink" x="0px" y="0px"
	 viewBox="0 0 611.8 611.8" style="enable-background:new 0 0 611.8 611.8;" xml:space="preserve">
<style type="text/css">
	.st0{fill:#F5FAF8;stroke:#F4783B;stroke-width:11.8;stroke-linecap:round;stroke-linejoin:round;}
	.st1{fill:#F4783B;}
</style>
<title>std web mockupsasfd</title>
<path class="st0" d="M305.9,5.9L305.9,5.9c165.7,0,300,134.3,300,300l0,0c0,165.7-134.3,300-300,300l0,0c-165.7,0-300-134.3-300-300
	l0,0C5.9,140.2,140.2,5.9,305.9,5.9z"/>
<path class="st1" d="M283.5,99.5c2.6,0,4.7,0.7,6.2,2s2.3,3.1,2.3,5.3c0,2.2-0.8,3.9-2.3,5.2c-1.5,1.3-3.6,2-6.2,2h-3.8v5l2.4,0.5
	v2.7h-9.4v-2.7l2.4-0.5v-16.3l-2.4-0.5v-2.8h2.4h8.4V99.5z M279.7,110.5h3.8c1.3,0,2.2-0.3,2.9-1c0.7-0.7,1-1.6,1-2.6
	c0-1.1-0.3-2-1-2.7s-1.6-1.1-2.9-1.1h-3.8V110.5z"/>
<path class="st1" d="M293.6,119.5l2.2-0.5v-10.5l-2.4-0.5v-2.8h7v13.7l2.2,0.5v2.7h-9L293.6,119.5L293.6,119.5z M300.3,101.3h-4.6
	v-3.4h4.6V101.3z"/>
<path class="st1" d="M303.7,100.7v-2.8h7v21.2l2.2,0.5v2.7h-9v-2.7l2.2-0.5v-18L303.7,100.7z"/>
<path class="st1" d="M314.2,100.7v-2.8h7v21.2l2.2,0.5v2.7h-9v-2.7l2.2-0.5v-18L314.2,100.7z"/>
<path class="st1" d="M338.3,111.2h-3.1l-0.5-2.1c-0.3-0.2-0.7-0.5-1.2-0.6c-0.5-0.2-1-0.2-1.6-0.2c-0.8,0-1.4,0.2-1.9,0.5
	s-0.7,0.8-0.7,1.4c0,0.5,0.2,0.9,0.7,1.3c0.4,0.3,1.3,0.6,2.7,0.9c2.1,0.4,3.6,1,4.7,1.8c1,0.8,1.5,1.9,1.5,3.3c0,1.5-0.7,2.8-2,3.7
	c-1.3,1-3,1.4-5.2,1.4c-1.3,0-2.5-0.2-3.6-0.6s-2.1-0.9-2.9-1.6v-3.8h3.2l0.6,2.2c0.3,0.2,0.6,0.4,1.1,0.5s1,0.2,1.5,0.2
	c0.9,0,1.6-0.2,2.1-0.5s0.7-0.8,0.7-1.4c0-0.5-0.2-0.9-0.7-1.3s-1.4-0.7-2.7-1c-2-0.4-3.5-1-4.5-1.8s-1.5-1.9-1.5-3.3
	s0.6-2.6,1.8-3.7c1.2-1,2.8-1.5,5-1.5c1.3,0,2.6,0.2,3.7,0.5c1.2,0.4,2.1,0.8,2.8,1.4V111.2z"/>
<path class="st1" d="M155.9,159.4c1.8,0,3.3,0.4,4.3,1.1s1.5,1.8,1.5,3.2c0,0.7-0.2,1.4-0.6,1.9c-0.4,0.6-0.9,1-1.7,1.3
	c0.9,0.2,1.6,0.6,2.1,1.3s0.7,1.4,0.7,2.3c0,1.5-0.5,2.6-1.5,3.4c-1,0.8-2.4,1.2-4.2,1.2H149v-1.9l1.7-0.3v-11.2l-1.7-0.3v-1.9h1.7
	h5.2V159.4z M153.8,166h2.3c0.8,0,1.5-0.2,1.9-0.5s0.7-0.8,0.7-1.5s-0.2-1.3-0.7-1.6s-1.1-0.5-2-0.5h-2.1L153.8,166L153.8,166z
	 M153.8,168.2v4.5h2.9c0.8,0,1.5-0.2,1.9-0.5c0.4-0.4,0.7-0.9,0.7-1.6c0-0.8-0.2-1.4-0.6-1.8c-0.4-0.4-1-0.6-1.8-0.6L153.8,168.2
	L153.8,168.2z"/>
<path class="st1" d="M163.4,173.2l1.5-0.3v-7.2l-1.7-0.3v-1.9h4.8v9.4l1.5,0.3v1.9h-6.2L163.4,173.2L163.4,173.2z M168.1,160.7H165
	v-2.4h3.1V160.7z"/>
<path class="st1" d="M170.8,173.2l1.5-0.3v-7.2l-1.7-0.3v-1.9h4.6l0.1,1.7c0.3-0.6,0.6-1.1,1.1-1.4s0.9-0.5,1.5-0.5
	c0.2,0,0.3,0,0.5,0s0.3,0.1,0.5,0.1l-0.3,2.9h-1.3c-0.5,0-0.8,0.1-1.1,0.3s-0.5,0.4-0.7,0.8v5.7l1.5,0.3v1.9h-6.1v-2.1H170.8z"/>
<path class="st1" d="M184.7,160.6v2.8h2v2.2h-2v5.9c0,0.5,0.1,0.8,0.3,1s0.4,0.3,0.8,0.3c0.2,0,0.4,0,0.6,0c0.2,0,0.3,0,0.5-0.1
	l0.3,2.3c-0.4,0.1-0.7,0.2-1,0.2c-0.3,0.1-0.7,0.1-1.1,0.1c-1.1,0-1.9-0.3-2.5-0.9c-0.6-0.6-0.9-1.5-0.9-2.8v-5.9H180v-2.2h1.7v-2.8
	h3V160.6z"/>
<path class="st1" d="M188.3,173.2l1.5-0.3v-12.3l-1.7-0.3v-1.9h4.8v6.6c0.4-0.5,0.8-1,1.3-1.3s1.1-0.4,1.8-0.4
	c1.2,0,2.2,0.4,2.9,1.2s1,2,1,3.7v4.7l1.5,0.3v1.9h-6v-1.9l1.4-0.3v-4.7c0-0.9-0.2-1.5-0.5-1.9s-0.8-0.6-1.4-0.6
	c-0.4,0-0.8,0.1-1.1,0.2c-0.3,0.2-0.6,0.4-0.8,0.7v6.3l1.4,0.3v1.9h-6L188.3,173.2L188.3,173.2z"/>
<path class="st1" d="M213.3,172.9c0.6,0,1-0.2,1.3-0.5s0.5-0.8,0.5-1.3h2.8v0.1c0,1.2-0.4,2.2-1.3,2.9c-0.9,0.8-2,1.2-3.4,1.2
	c-1.7,0-3.1-0.5-4-1.6s-1.4-2.5-1.4-4.2v-0.3c0-1.7,0.5-3.1,1.4-4.2c1-1.1,2.3-1.7,4.1-1.7c0.9,0,1.8,0.1,2.5,0.4
	c0.7,0.3,1.4,0.7,1.9,1.2v3.1h-2.5l-0.5-1.8c-0.2-0.1-0.4-0.2-0.6-0.3c-0.2-0.1-0.5-0.1-0.8-0.1c-0.9,0-1.5,0.3-1.9,1
	s-0.5,1.5-0.5,2.5v0.3c0,1,0.2,1.9,0.5,2.5C211.8,172.6,212.4,172.9,213.3,172.9z"/>
<path class="st1" d="M219.3,169.2c0-1.7,0.5-3.2,1.5-4.3s2.3-1.7,4-1.7s3.1,0.6,4,1.7c1,1.1,1.5,2.5,1.5,4.3v0.2
	c0,1.7-0.5,3.2-1.5,4.3s-2.3,1.6-4,1.6s-3.1-0.5-4-1.6c-1-1.1-1.5-2.5-1.5-4.3V169.2z M222.4,169.4c0,1.1,0.2,1.9,0.6,2.6
	c0.4,0.6,1,1,1.8,1s1.4-0.3,1.8-1s0.6-1.5,0.6-2.5v-0.2c0-1-0.2-1.9-0.6-2.5c-0.4-0.7-1-1-1.8-1s-1.4,0.3-1.8,1
	C222.6,167.5,222.4,168.3,222.4,169.4L222.4,169.4z"/>
<path class="st1" d="M231.1,173.2l1.5-0.3v-7.2l-1.7-0.3v-1.9h4.6l0.1,1.7c0.4-0.6,0.9-1.1,1.4-1.4c0.6-0.3,1.2-0.5,1.9-0.5
	c1.2,0,2.1,0.4,2.8,1.1c0.7,0.7,1,1.9,1,3.5v5.1l1.5,0.3v1.9h-6v-1.9l1.3-0.3v-5c0-0.8-0.2-1.3-0.5-1.7c-0.3-0.3-0.8-0.5-1.4-0.5
	c-0.4,0-0.8,0.1-1.1,0.3s-0.6,0.4-0.8,0.7v6.2l1.3,0.3v1.9h-5.9L231.1,173.2L231.1,173.2z"/>
<path class="st1" d="M249.3,160.6v2.8h2v2.2h-2v5.9c0,0.5,0.1,0.8,0.3,1s0.4,0.3,0.8,0.3c0.2,0,0.4,0,0.6,0c0.2,0,0.3,0,0.5-0.1
	l0.3,2.3c-0.4,0.1-0.7,0.2-1,0.2c-0.3,0.1-0.7,0.1-1.1,0.1c-1.1,0-1.9-0.3-2.5-0.9c-0.6-0.6-0.9-1.5-0.9-2.8v-5.9h-1.7v-2.2h1.7
	v-2.8h3V160.6z"/>
<path class="st1" d="M253,173.2l1.5-0.3v-7.2l-1.7-0.3v-1.9h4.6l0.1,1.7c0.3-0.6,0.6-1.1,1.1-1.4s0.9-0.5,1.5-0.5c0.2,0,0.3,0,0.5,0
	s0.3,0.1,0.5,0.1l-0.3,2.9h-1.3c-0.5,0-0.8,0.1-1.1,0.3s-0.5,0.4-0.7,0.8v5.7l1.5,0.3v1.9H253V173.2z"/>
<path class="st1" d="M261.8,169.2c0-1.7,0.5-3.2,1.5-4.3s2.3-1.7,4-1.7s3.1,0.6,4,1.7c1,1.1,1.5,2.5,1.5,4.3v0.2
	c0,1.7-0.5,3.2-1.5,4.3s-2.3,1.6-4,1.6s-3.1-0.5-4-1.6c-1-1.1-1.5-2.5-1.5-4.3V169.2z M264.9,169.4c0,1.1,0.2,1.9,0.6,2.6
	c0.4,0.6,1,1,1.8,1s1.4-0.3,1.8-1s0.6-1.5,0.6-2.5v-0.2c0-1-0.2-1.9-0.6-2.5c-0.4-0.7-1-1-1.8-1s-1.4,0.3-1.8,1
	S264.9,168.3,264.9,169.4L264.9,169.4z"/>
<path class="st1" d="M273.3,160.2v-1.9h4.8v14.6l1.5,0.3v1.9h-6.2v-1.9l1.5-0.3v-12.3L273.3,160.2z"/>
<path class="st1" d="M285.8,165.3v-1.9h4.6l0.2,1.4c0.3-0.5,0.8-0.9,1.2-1.2c0.5-0.3,1-0.4,1.7-0.4c1.4,0,2.6,0.6,3.4,1.7
	s1.2,2.6,1.2,4.4v0.2c0,1.7-0.4,3.1-1.2,4.1s-1.9,1.6-3.3,1.6c-0.6,0-1.1-0.1-1.6-0.3s-0.9-0.6-1.2-1v3.4l1.5,0.3v1.9H286v-1.9
	l1.5-0.3v-11.7L285.8,165.3z M294.9,169.4c0-1.1-0.2-2-0.5-2.7s-0.9-1-1.7-1c-0.5,0-0.9,0.1-1.2,0.3s-0.6,0.5-0.8,0.8v5.1
	c0.2,0.3,0.5,0.6,0.8,0.8s0.7,0.3,1.2,0.3c0.8,0,1.3-0.3,1.7-0.9s0.5-1.4,0.5-2.4V169.4z"/>
<path class="st1" d="M299.1,173.2l1.5-0.3v-7.2l-1.7-0.3v-1.9h4.8v9.4l1.5,0.3v1.9H299v-1.9H299.1z M303.7,160.7h-3.1v-2.4h3.1
	V160.7z"/>
<path class="st1" d="M306.1,160.2v-1.9h4.8v14.6l1.5,0.3v1.9h-6.2v-1.9l1.5-0.3v-12.3L306.1,160.2z"/>
<path class="st1" d="M313.3,160.2v-1.9h4.8v14.6l1.5,0.3v1.9h-6.2v-1.9l1.5-0.3v-12.3L313.3,160.2z"/>
<path class="st1" d="M330,167.5h-2.1l-0.3-1.5c-0.2-0.2-0.5-0.3-0.8-0.4s-0.7-0.2-1.1-0.2c-0.6,0-1,0.1-1.3,0.4
	c-0.3,0.2-0.5,0.6-0.5,0.9c0,0.4,0.2,0.6,0.5,0.9c0.3,0.2,0.9,0.4,1.8,0.6c1.4,0.3,2.5,0.7,3.2,1.3s1,1.3,1,2.3s-0.5,1.9-1.3,2.6
	c-0.9,0.7-2.1,1-3.5,1c-0.9,0-1.7-0.1-2.5-0.4c-0.7-0.3-1.4-0.6-2-1.1v-2.6h2.2l0.4,1.5c0.2,0.2,0.4,0.3,0.8,0.3
	c0.3,0.1,0.7,0.1,1,0.1c0.6,0,1.1-0.1,1.5-0.3s0.5-0.5,0.5-0.9c0-0.3-0.2-0.6-0.5-0.9c-0.3-0.3-1-0.5-1.9-0.7
	c-1.4-0.3-2.4-0.7-3.1-1.2s-1-1.3-1-2.2c0-1,0.4-1.8,1.2-2.5c0.8-0.7,1.9-1.1,3.4-1.1c0.9,0,1.8,0.1,2.6,0.4s1.4,0.6,1.9,0.9
	L330,167.5z"/>
<path class="st1" d="M344.6,175.1c-0.1-0.2-0.2-0.4-0.2-0.6c-0.1-0.2-0.1-0.4-0.2-0.6c-0.4,0.4-0.8,0.8-1.4,1
	c-0.5,0.3-1.1,0.4-1.8,0.4c-1.1,0-2-0.3-2.7-0.9c-0.7-0.6-1-1.5-1-2.5c0-1.1,0.4-1.9,1.3-2.5s2.2-0.9,3.8-0.9h1.6v-1.1
	c0-0.6-0.2-1-0.5-1.3s-0.8-0.5-1.4-0.5c-0.4,0-0.7,0-1,0.1s-0.5,0.2-0.7,0.3l-0.2,1.2H338v-2.6c0.6-0.4,1.2-0.7,2-1s1.5-0.4,2.4-0.4
	c1.4,0,2.6,0.4,3.5,1.1c0.9,0.7,1.3,1.7,1.3,3v4.8c0,0.2,0,0.3,0,0.5s0,0.3,0,0.5l1,0.1v1.9H344.6z M341.9,173
	c0.5,0,0.9-0.1,1.3-0.3s0.7-0.5,0.9-0.8v-1.8h-1.6c-0.7,0-1.2,0.2-1.5,0.5s-0.5,0.7-0.5,1.1c0,0.4,0.1,0.7,0.4,0.9
	C341.1,172.9,341.5,173,341.9,173z"/>
<path class="st1" d="M349.5,173.2l1.5-0.3v-7.2l-1.7-0.3v-1.9h4.6l0.1,1.7c0.3-0.6,0.6-1.1,1.1-1.4s0.9-0.5,1.5-0.5
	c0.2,0,0.3,0,0.5,0s0.3,0.1,0.5,0.1l-0.3,2.9H356c-0.5,0-0.8,0.1-1.1,0.3s-0.5,0.4-0.7,0.8v5.7l1.5,0.3v1.9h-6.1v-2.1H349.5z"/>
<path class="st1" d="M363.8,175.3c-1.7,0-3-0.5-4-1.6s-1.5-2.4-1.5-4.1v-0.4c0-1.7,0.5-3.1,1.4-4.3s2.2-1.7,3.8-1.7
	c1.6,0,2.8,0.5,3.7,1.4c0.9,0.9,1.3,2.2,1.3,3.8v1.7h-6.9v0.1c0.1,0.8,0.3,1.4,0.8,1.9s1.1,0.7,1.9,0.7c0.7,0,1.3-0.1,1.7-0.2
	c0.5-0.1,1-0.4,1.5-0.7l0.8,1.9c-0.5,0.4-1.1,0.7-1.9,1S364.7,175.3,363.8,175.3z M363.5,165.7c-0.6,0-1,0.2-1.4,0.7
	c-0.3,0.4-0.5,1-0.6,1.8v0.1h3.8V168c0-0.7-0.2-1.2-0.5-1.6C364.6,165.9,364.2,165.7,363.5,165.7z"/>
<path class="st1" d="M380,160.6v2.8h2v2.2h-2v5.9c0,0.5,0.1,0.8,0.3,1c0.2,0.2,0.4,0.3,0.8,0.3c0.2,0,0.4,0,0.6,0s0.3,0,0.5-0.1
	l0.3,2.3c-0.4,0.1-0.7,0.2-1,0.2c-0.3,0.1-0.7,0.1-1.1,0.1c-1.1,0-1.9-0.3-2.5-0.9s-0.9-1.5-0.9-2.8v-5.9h-1.7v-2.2h1.7v-2.8h3
	V160.6z"/>
<path class="st1" d="M390.8,175.1c-0.1-0.2-0.2-0.4-0.2-0.6c-0.1-0.2-0.1-0.4-0.2-0.6c-0.4,0.4-0.8,0.8-1.4,1
	c-0.5,0.3-1.1,0.4-1.8,0.4c-1.1,0-2-0.3-2.7-0.9c-0.7-0.6-1-1.5-1-2.5c0-1.1,0.4-1.9,1.3-2.5s2.2-0.9,3.8-0.9h1.6v-1.1
	c0-0.6-0.2-1-0.5-1.3s-0.8-0.5-1.4-0.5c-0.4,0-0.7,0-1,0.1s-0.5,0.2-0.7,0.3l-0.2,1.2H384v-2.6c0.6-0.4,1.2-0.7,2-1s1.5-0.4,2.4-0.4
	c1.4,0,2.6,0.4,3.5,1.1c0.9,0.7,1.3,1.7,1.3,3v4.8c0,0.2,0,0.3,0,0.5s0,0.3,0,0.5l1,0.1v1.9H390.8z M388.1,173
	c0.5,0,0.9-0.1,1.3-0.3s0.7-0.5,0.9-0.8v-1.8h-1.6c-0.7,0-1.2,0.2-1.5,0.5s-0.5,0.7-0.5,1.1c0,0.4,0.1,0.7,0.4,0.9
	C387.3,172.9,387.6,173,388.1,173z"/>
<path class="st1" d="M395.3,160.2v-1.9h4.8v9.7h0.7l1.8-2.5l-1-0.1v-1.9h5.7v1.9l-1.4,0.3l-2.1,2.9l2.9,4.4l1.2,0.2v1.9h-5.4v-1.9
	l0.6-0.1l-1.8-2.9H400v2.7l1.4,0.3v1.9h-6v-1.9l1.5-0.3v-12.3L395.3,160.2z"/>
<path class="st1" d="M414.2,175.3c-1.7,0-3-0.5-4-1.6s-1.5-2.4-1.5-4.1v-0.4c0-1.7,0.5-3.1,1.4-4.3s2.2-1.7,3.8-1.7
	c1.6,0,2.8,0.5,3.7,1.4s1.3,2.2,1.3,3.8v1.7H412v0.1c0.1,0.8,0.3,1.4,0.8,1.9s1.1,0.7,1.9,0.7c0.7,0,1.3-0.1,1.7-0.2
	c0.5-0.1,1-0.4,1.5-0.7l0.8,1.9c-0.5,0.4-1.1,0.7-1.9,1C416,175.2,415.2,175.3,414.2,175.3z M414,165.7c-0.6,0-1,0.2-1.4,0.7
	s-0.5,1-0.6,1.8v0.1h3.8V168c0-0.7-0.2-1.2-0.5-1.6C415.1,165.9,414.6,165.7,414,165.7z"/>
<path class="st1" d="M420.1,173.2l1.5-0.3v-7.2l-1.7-0.3v-1.9h4.6l0.1,1.7c0.4-0.6,0.9-1.1,1.4-1.4s1.2-0.5,1.9-0.5
	c1.2,0,2.1,0.4,2.8,1.1s1,1.9,1,3.5v5.1l1.5,0.3v1.9h-6v-1.9l1.3-0.3v-5c0-0.8-0.2-1.3-0.5-1.7c-0.3-0.3-0.8-0.5-1.4-0.5
	c-0.4,0-0.8,0.1-1.1,0.3c-0.3,0.2-0.6,0.4-0.8,0.7v6.2l1.3,0.3v1.9h-5.9L420.1,173.2L420.1,173.2z"/>
<path class="st1" d="M136.6,200.1c-0.4,0.5-0.8,0.9-1.3,1.2s-1.1,0.4-1.7,0.4c-1.4,0-2.5-0.5-3.3-1.6c-0.8-1-1.2-2.4-1.2-4.1v-0.2
	c0-1.8,0.4-3.3,1.2-4.4s1.9-1.7,3.4-1.7c0.6,0,1.1,0.1,1.6,0.4c0.5,0.3,0.9,0.6,1.2,1.1V187l-1.7-0.3v-1.9h1.7h3.1v14.6l1.5,0.3v1.9
	h-4.2L136.6,200.1z M132.2,196c0,1,0.2,1.8,0.5,2.4c0.3,0.6,0.9,0.9,1.7,0.9c0.5,0,0.9-0.1,1.2-0.3s0.6-0.5,0.8-0.8v-4.9
	c-0.2-0.4-0.5-0.7-0.8-0.9s-0.7-0.3-1.2-0.3c-0.8,0-1.3,0.3-1.7,1s-0.5,1.6-0.5,2.7V196z"/>
<path class="st1" d="M149.5,201.5c-0.1-0.2-0.2-0.4-0.2-0.6c-0.1-0.2-0.1-0.4-0.2-0.6c-0.4,0.4-0.8,0.8-1.4,1
	c-0.5,0.3-1.1,0.4-1.8,0.4c-1.1,0-2-0.3-2.7-0.9c-0.7-0.6-1-1.5-1-2.5c0-1.1,0.4-1.9,1.3-2.5c0.9-0.6,2.2-0.9,3.8-0.9h1.6v-1.1
	c0-0.6-0.2-1-0.5-1.3s-0.8-0.5-1.4-0.5c-0.4,0-0.7,0-1,0.1s-0.5,0.2-0.7,0.3l-0.2,1.2h-2.4V191c0.6-0.4,1.2-0.7,2-1s1.5-0.4,2.4-0.4
	c1.4,0,2.6,0.4,3.5,1.1c0.9,0.7,1.3,1.7,1.3,3v4.8c0,0.2,0,0.3,0,0.5s0,0.3,0,0.5l1,0.1v1.9H149.5z M146.7,199.4
	c0.5,0,0.9-0.1,1.3-0.3c0.4-0.2,0.7-0.5,0.9-0.8v-1.8h-1.6c-0.7,0-1.2,0.2-1.5,0.5s-0.5,0.7-0.5,1.1c0,0.4,0.1,0.7,0.4,0.9
	C145.9,199.3,146.3,199.4,146.7,199.4z"/>
<path class="st1" d="M154.2,199.6l1.5-0.3v-7.2l-1.7-0.3v-1.9h4.8v9.4l1.5,0.3v1.9h-6.2L154.2,199.6L154.2,199.6z M158.8,187.1h-3.1
	v-2.4h3.1V187.1z"/>
<path class="st1" d="M161.2,186.6v-1.9h4.8v14.6l1.5,0.3v1.9h-6.2v-1.9l1.5-0.3V187L161.2,186.6z"/>
<path class="st1" d="M180.1,191.7l-1.1,0.2l-4.3,11.3c-0.3,0.8-0.8,1.5-1.3,2.1c-0.6,0.6-1.4,0.8-2.5,0.8c-0.3,0-0.5,0-0.7-0.1
	c-0.2,0-0.5-0.1-0.8-0.2l0.4-2.3c0.1,0,0.2,0,0.3,0s0.2,0,0.3,0c0.5,0,0.9-0.1,1.2-0.4c0.3-0.3,0.5-0.6,0.6-1l0.4-0.9l-3.7-9.6
	l-1.1-0.2v-1.9h5.7v1.9l-1.3,0.2l1.6,4.6l0.2,0.8h0.1l1.8-5.5l-1.3-0.2v-1.9h5.7v2.3H180.1z"/>
<path class="st1" d="M193.9,201.5c-0.1-0.2-0.2-0.4-0.2-0.6c-0.1-0.2-0.1-0.4-0.2-0.6c-0.4,0.4-0.8,0.8-1.4,1
	c-0.5,0.3-1.1,0.4-1.8,0.4c-1.1,0-2-0.3-2.7-0.9c-0.7-0.6-1-1.5-1-2.5c0-1.1,0.4-1.9,1.3-2.5c0.9-0.6,2.2-0.9,3.8-0.9h1.6v-1.1
	c0-0.6-0.2-1-0.5-1.3s-0.8-0.5-1.4-0.5c-0.4,0-0.7,0-1,0.1s-0.5,0.2-0.7,0.3l-0.2,1.2h-2.4V191c0.6-0.4,1.2-0.7,2-1s1.5-0.4,2.4-0.4
	c1.4,0,2.6,0.4,3.5,1.1c0.9,0.7,1.3,1.7,1.3,3v4.8c0,0.2,0,0.3,0,0.5s0,0.3,0,0.5l1,0.1v1.9H193.9z M191.2,199.4
	c0.5,0,0.9-0.1,1.3-0.3c0.4-0.2,0.7-0.5,0.9-0.8v-1.8h-1.6c-0.7,0-1.2,0.2-1.5,0.5s-0.5,0.7-0.5,1.1c0,0.4,0.1,0.7,0.4,0.9
	C190.4,199.3,190.8,199.4,191.2,199.4z"/>
<path class="st1" d="M198.6,199.6l1.5-0.3v-7.2l-1.7-0.3v-1.9h4.6l0.1,1.7c0.4-0.6,0.9-1.1,1.4-1.4c0.6-0.3,1.2-0.5,1.9-0.5
	c1.2,0,2.1,0.4,2.8,1.1c0.7,0.7,1,1.9,1,3.5v5.1l1.5,0.3v1.9h-6v-1.9l1.3-0.3v-5c0-0.8-0.2-1.3-0.5-1.7c-0.3-0.3-0.8-0.5-1.4-0.5
	c-0.4,0-0.8,0.1-1.1,0.3s-0.6,0.4-0.8,0.7v6.2l1.3,0.3v1.9h-5.9L198.6,199.6L198.6,199.6z"/>
<path class="st1" d="M220.1,200.1c-0.4,0.5-0.8,0.9-1.3,1.2s-1.1,0.4-1.7,0.4c-1.4,0-2.5-0.5-3.3-1.6c-0.8-1-1.2-2.4-1.2-4.1v-0.2
	c0-1.8,0.4-3.3,1.2-4.4s1.9-1.7,3.4-1.7c0.6,0,1.1,0.1,1.6,0.4c0.5,0.3,0.9,0.6,1.2,1.1V187l-1.7-0.3v-1.9h1.7h3.1v14.6l1.5,0.3v1.9
	h-4.2L220.1,200.1z M215.7,196c0,1,0.2,1.8,0.5,2.4c0.3,0.6,0.9,0.9,1.7,0.9c0.5,0,0.9-0.1,1.2-0.3s0.6-0.5,0.8-0.8v-4.9
	c-0.2-0.4-0.5-0.7-0.8-0.9s-0.7-0.3-1.2-0.3c-0.8,0-1.3,0.3-1.7,1s-0.5,1.6-0.5,2.7V196z"/>
<path class="st1" d="M236.4,199.3c0.6,0,1-0.2,1.3-0.5s0.5-0.8,0.5-1.3h2.8v0.1c0,1.2-0.4,2.2-1.3,2.9c-0.9,0.8-2,1.2-3.4,1.2
	c-1.7,0-3.1-0.5-4-1.6s-1.4-2.5-1.4-4.2v-0.3c0-1.7,0.5-3.1,1.4-4.2c1-1.1,2.3-1.7,4.1-1.7c0.9,0,1.8,0.1,2.5,0.4s1.4,0.7,1.9,1.2
	v3.1h-2.5l-0.5-1.8c-0.2-0.1-0.4-0.2-0.6-0.3c-0.2-0.1-0.5-0.1-0.8-0.1c-0.9,0-1.5,0.3-1.9,1s-0.5,1.5-0.5,2.5v0.3
	c0,1,0.2,1.9,0.5,2.5C235,199,235.5,199.3,236.4,199.3z"/>
<path class="st1" d="M242.4,195.6c0-1.7,0.5-3.2,1.5-4.3s2.3-1.7,4-1.7s3.1,0.6,4,1.7c1,1.1,1.5,2.5,1.5,4.3v0.2
	c0,1.7-0.5,3.2-1.5,4.3s-2.3,1.6-4,1.6s-3.1-0.5-4-1.6c-1-1.1-1.5-2.5-1.5-4.3V195.6z M245.5,195.8c0,1.1,0.2,1.9,0.6,2.6
	c0.4,0.6,1,1,1.8,1s1.4-0.3,1.8-1s0.6-1.5,0.6-2.5v-0.2c0-1-0.2-1.9-0.6-2.5s-1-1-1.8-1s-1.4,0.3-1.8,1S245.5,194.7,245.5,195.8
	L245.5,195.8z"/>
<path class="st1" d="M254.3,199.6l1.5-0.3v-7.2l-1.7-0.3v-1.9h4.6l0.1,1.7c0.4-0.6,0.9-1.1,1.4-1.4s1.2-0.5,1.9-0.5
	c1.2,0,2.1,0.4,2.8,1.1s1,1.9,1,3.5v5.1l1.5,0.3v1.9h-6v-1.9l1.3-0.3v-5c0-0.8-0.2-1.3-0.5-1.7c-0.3-0.3-0.8-0.5-1.4-0.5
	c-0.4,0-0.8,0.1-1.1,0.3c-0.3,0.2-0.6,0.4-0.8,0.7v6.2l1.3,0.3v1.9h-5.9L254.3,199.6L254.3,199.6z"/>
<path class="st1" d="M272.4,187v2.8h2v2.2h-2v5.9c0,0.5,0.1,0.8,0.3,1c0.2,0.2,0.4,0.3,0.8,0.3c0.2,0,0.4,0,0.6,0s0.3,0,0.5-0.1
	l0.3,2.3c-0.4,0.1-0.7,0.2-1,0.2c-0.3,0.1-0.7,0.1-1.1,0.1c-1.1,0-1.9-0.3-2.5-0.9c-0.6-0.6-0.9-1.5-0.9-2.8v-5.9h-1.7v-2.2h1.7V187
	H272.4z"/>
<path class="st1" d="M283.2,201.5c-0.1-0.2-0.2-0.4-0.2-0.6c-0.1-0.2-0.1-0.4-0.2-0.6c-0.4,0.4-0.8,0.8-1.4,1
	c-0.5,0.3-1.1,0.4-1.8,0.4c-1.1,0-2-0.3-2.7-0.9c-0.7-0.6-1-1.5-1-2.5c0-1.1,0.4-1.9,1.3-2.5s2.2-0.9,3.8-0.9h1.6v-1.1
	c0-0.6-0.2-1-0.5-1.3s-0.8-0.5-1.4-0.5c-0.4,0-0.7,0-1,0.1s-0.5,0.2-0.7,0.3l-0.2,1.2h-2.4V191c0.6-0.4,1.2-0.7,2-1s1.5-0.4,2.4-0.4
	c1.4,0,2.6,0.4,3.5,1.1c0.9,0.7,1.3,1.7,1.3,3v4.8c0,0.2,0,0.3,0,0.5s0,0.3,0,0.5l1,0.1v1.9H283.2z M280.5,199.4
	c0.5,0,0.9-0.1,1.3-0.3s0.7-0.5,0.9-0.8v-1.8h-1.6c-0.7,0-1.2,0.2-1.5,0.5s-0.5,0.7-0.5,1.1c0,0.4,0.1,0.7,0.4,0.9
	C279.7,199.3,280,199.4,280.5,199.4z"/>
<path class="st1" d="M287.9,199.6l1.5-0.3v-7.2l-1.7-0.3v-1.9h4.8v9.4l1.5,0.3v1.9h-6.2v-1.9H287.9z M292.6,187.1h-3.1v-2.4h3.1
	V187.1z"/>
<path class="st1" d="M295.1,199.6l1.5-0.3v-7.2l-1.7-0.3v-1.9h4.6l0.1,1.7c0.4-0.6,0.9-1.1,1.4-1.4c0.6-0.3,1.2-0.5,1.9-0.5
	c1.2,0,2.1,0.4,2.8,1.1c0.7,0.7,1,1.9,1,3.5v5.1l1.5,0.3v1.9h-6v-1.9l1.3-0.3v-5c0-0.8-0.2-1.3-0.5-1.7c-0.3-0.3-0.8-0.5-1.4-0.5
	c-0.4,0-0.8,0.1-1.1,0.3c-0.3,0.2-0.6,0.4-0.8,0.7v6.2l1.3,0.3v1.9h-5.9L295.1,199.6L295.1,199.6z"/>
<path class="st1" d="M314.5,199.6l1.5-0.3V187l-1.7-0.3v-1.9h4.8v6.6c0.4-0.5,0.8-1,1.3-1.3s1.1-0.4,1.8-0.4c1.2,0,2.2,0.4,2.9,1.2
	c0.7,0.8,1,2,1,3.7v4.7l1.5,0.3v1.9h-6v-1.9l1.4-0.3v-4.7c0-0.9-0.2-1.5-0.5-1.9s-0.8-0.6-1.4-0.6c-0.4,0-0.8,0.1-1.1,0.2
	s-0.6,0.4-0.8,0.7v6.3l1.4,0.3v1.9h-6L314.5,199.6L314.5,199.6z"/>
<path class="st1" d="M328.3,195.6c0-1.7,0.5-3.2,1.5-4.3s2.3-1.7,4-1.7s3.1,0.6,4,1.7c1,1.1,1.5,2.5,1.5,4.3v0.2
	c0,1.7-0.5,3.2-1.5,4.3s-2.3,1.6-4,1.6s-3.1-0.5-4-1.6c-1-1.1-1.5-2.5-1.5-4.3V195.6z M331.5,195.8c0,1.1,0.2,1.9,0.6,2.6
	c0.4,0.6,1,1,1.8,1s1.4-0.3,1.8-1s0.6-1.5,0.6-2.5v-0.2c0-1-0.2-1.9-0.6-2.5s-1-1-1.8-1s-1.4,0.3-1.8,1S331.5,194.7,331.5,195.8
	L331.5,195.8z"/>
<path class="st1" d="M340.4,199.6l1.5-0.3v-7.2l-1.7-0.3v-1.9h4.6l0.1,1.7c0.3-0.6,0.6-1.1,1.1-1.4s0.9-0.5,1.5-0.5
	c0.2,0,0.3,0,0.5,0s0.3,0.1,0.5,0.1l-0.3,2.9h-1.3c-0.5,0-0.8,0.1-1.1,0.3s-0.5,0.4-0.7,0.8v5.7l1.5,0.3v1.9h-6.1v-2.1H340.4z"/>
<path class="st1" d="M349.4,191.7v-1.9h4.6l0.1,1.5c0.4-0.6,0.8-1,1.4-1.3s1.2-0.5,2-0.5c0.7,0,1.4,0.2,1.9,0.5s0.9,0.8,1.2,1.5
	c0.4-0.6,0.8-1.1,1.4-1.5s1.2-0.5,2-0.5c1.1,0,2,0.4,2.7,1.2s1,2,1,3.6v4.8l1.5,0.3v1.9h-6v-1.9l1.4-0.3v-4.8c0-0.9-0.1-1.5-0.4-1.8
	s-0.7-0.5-1.3-0.5c-0.4,0-0.8,0.1-1.2,0.3c-0.3,0.2-0.6,0.5-0.8,0.8c0,0.1,0,0.3,0,0.3c0,0.1,0,0.2,0,0.3v5.4l1.3,0.3v1.9h-5.7v-1.9
	l1.3-0.3v-4.8c0-0.9-0.1-1.5-0.4-1.8c-0.3-0.4-0.7-0.5-1.3-0.5c-0.4,0-0.8,0.1-1.1,0.2c-0.3,0.2-0.6,0.4-0.8,0.7v6.3l1.4,0.3v1.9h-6
	v-1.9l1.5-0.3V192L349.4,191.7z"/>
<path class="st1" d="M369.9,195.6c0-1.7,0.5-3.2,1.5-4.3s2.3-1.7,4-1.7s3.1,0.6,4,1.7s1.5,2.5,1.5,4.3v0.2c0,1.7-0.5,3.2-1.5,4.3
	s-2.3,1.6-4,1.6s-3.1-0.5-4-1.6c-1-1.1-1.5-2.5-1.5-4.3V195.6z M373,195.8c0,1.1,0.2,1.9,0.6,2.6c0.4,0.6,1,1,1.8,1s1.4-0.3,1.8-1
	s0.6-1.5,0.6-2.5v-0.2c0-1-0.2-1.9-0.6-2.5c-0.4-0.7-1-1-1.8-1s-1.4,0.3-1.8,1S373,194.7,373,195.8L373,195.8z"/>
<path class="st1" d="M381.7,199.6l1.5-0.3v-7.2l-1.7-0.3v-1.9h4.6l0.1,1.7c0.4-0.6,0.9-1.1,1.4-1.4c0.6-0.3,1.2-0.5,1.9-0.5
	c1.2,0,2.1,0.4,2.8,1.1c0.7,0.7,1,1.9,1,3.5v5.1l1.5,0.3v1.9h-6v-1.9l1.3-0.3v-5c0-0.8-0.2-1.3-0.5-1.7c-0.3-0.3-0.8-0.5-1.4-0.5
	c-0.4,0-0.8,0.1-1.1,0.3c-0.3,0.2-0.6,0.4-0.8,0.7v6.2l1.3,0.3v1.9h-5.9L381.7,199.6L381.7,199.6z"/>
<path class="st1" d="M401.1,201.7c-1.7,0-3-0.5-4-1.6s-1.5-2.4-1.5-4.1v-0.4c0-1.7,0.5-3.1,1.4-4.3s2.2-1.7,3.8-1.7
	c1.6,0,2.8,0.5,3.7,1.4c0.9,0.9,1.3,2.2,1.3,3.8v1.7h-6.9v0.1c0.1,0.8,0.3,1.4,0.8,1.9s1.1,0.7,1.9,0.7c0.7,0,1.3-0.1,1.7-0.2
	c0.5-0.1,1-0.4,1.5-0.7l0.8,1.9c-0.5,0.4-1.1,0.7-1.9,1S402,201.7,401.1,201.7z M400.8,192.1c-0.6,0-1,0.2-1.4,0.7
	c-0.3,0.4-0.5,1-0.6,1.8v0.1h3.8v-0.3c0-0.7-0.2-1.2-0.5-1.6C401.9,192.3,401.5,192.1,400.8,192.1z"/>
<path class="st1" d="M416.5,193.9h-2.1l-0.3-1.5c-0.2-0.2-0.5-0.3-0.8-0.4s-0.7-0.2-1.1-0.2c-0.6,0-1,0.1-1.3,0.4
	c-0.3,0.2-0.5,0.6-0.5,0.9c0,0.4,0.2,0.6,0.5,0.9c0.3,0.2,0.9,0.4,1.8,0.6c1.4,0.3,2.5,0.7,3.2,1.3s1,1.3,1,2.3s-0.5,1.9-1.3,2.6
	c-0.9,0.7-2.1,1-3.5,1c-0.9,0-1.7-0.1-2.5-0.4c-0.7-0.3-1.4-0.6-2-1.1v-2.6h2.2l0.4,1.5c0.2,0.2,0.4,0.3,0.8,0.3
	c0.3,0.1,0.7,0.1,1,0.1c0.6,0,1.1-0.1,1.5-0.3s0.5-0.5,0.5-0.9c0-0.3-0.2-0.6-0.5-0.9c-0.3-0.3-1-0.5-1.9-0.7
	c-1.4-0.3-2.4-0.7-3.1-1.2s-1-1.3-1-2.2c0-1,0.4-1.8,1.2-2.5c0.8-0.7,1.9-1.1,3.4-1.1c0.9,0,1.8,0.1,2.6,0.4s1.4,0.6,1.9,0.9
	L416.5,193.9z"/>
<path class="st1" d="M133.7,213.4v2.8h2v2.2h-2v5.9c0,0.5,0.1,0.8,0.3,1s0.4,0.3,0.8,0.3c0.2,0,0.4,0,0.6,0c0.2,0,0.3,0,0.5-0.1
	l0.3,2.3c-0.4,0.1-0.7,0.2-1,0.2c-0.3,0.1-0.7,0.1-1.1,0.1c-1.1,0-1.9-0.3-2.5-0.9c-0.6-0.6-0.9-1.5-0.9-2.8v-5.9H129v-2.2h1.7v-2.8
	h3V213.4z"/>
<path class="st1" d="M137.2,226l1.5-0.3v-12.3L137,213v-1.9h4.8v6.6c0.4-0.5,0.8-1,1.3-1.3s1.1-0.4,1.8-0.4c1.2,0,2.2,0.4,2.9,1.2
	s1,2,1,3.7v4.7l1.5,0.3v1.9h-6V226l1.4-0.3V221c0-0.9-0.2-1.5-0.5-1.9s-0.8-0.6-1.4-0.6c-0.4,0-0.8,0.1-1.1,0.2
	c-0.3,0.2-0.6,0.4-0.8,0.7v6.3l1.4,0.3v1.9h-6L137.2,226L137.2,226z"/>
<path class="st1" d="M158.7,227.9c-0.1-0.2-0.2-0.4-0.2-0.6c-0.1-0.2-0.1-0.4-0.2-0.6c-0.4,0.4-0.8,0.8-1.4,1
	c-0.5,0.3-1.1,0.4-1.8,0.4c-1.1,0-2-0.3-2.7-0.9c-0.7-0.6-1-1.5-1-2.5c0-1.1,0.4-1.9,1.3-2.5c0.9-0.6,2.2-0.9,3.8-0.9h1.6v-1.1
	c0-0.6-0.2-1-0.5-1.3s-0.8-0.5-1.4-0.5c-0.4,0-0.7,0-1,0.1s-0.5,0.2-0.7,0.3l-0.2,1.2h-2.4v-2.6c0.6-0.4,1.2-0.7,2-1
	s1.5-0.4,2.4-0.4c1.4,0,2.6,0.4,3.5,1.1c0.9,0.7,1.3,1.7,1.3,3v4.8c0,0.2,0,0.3,0,0.5s0,0.3,0,0.5l1,0.1v1.9H158.7z M156,225.8
	c0.5,0,0.9-0.1,1.3-0.3c0.4-0.2,0.7-0.5,0.9-0.8v-1.8h-1.6c-0.7,0-1.2,0.2-1.5,0.5s-0.5,0.7-0.5,1.1c0,0.4,0.1,0.7,0.4,0.9
	C155.2,225.7,155.6,225.8,156,225.8z"/>
<path class="st1" d="M167.6,213.4v2.8h2v2.2h-2v5.9c0,0.5,0.1,0.8,0.3,1s0.4,0.3,0.8,0.3c0.2,0,0.4,0,0.6,0c0.2,0,0.3,0,0.5-0.1
	l0.3,2.3c-0.4,0.1-0.7,0.2-1,0.2c-0.3,0.1-0.7,0.1-1.1,0.1c-1.1,0-1.9-0.3-2.5-0.9c-0.6-0.6-0.9-1.5-0.9-2.8v-5.9h-1.7v-2.2h1.7
	v-2.8h3V213.4z"/>
<path class="st1" d="M176.4,218.1v-1.9h4.6l0.2,1.4c0.3-0.5,0.8-0.9,1.2-1.2c0.5-0.3,1-0.4,1.7-0.4c1.4,0,2.6,0.6,3.4,1.7
	s1.2,2.6,1.2,4.4v0.2c0,1.7-0.4,3.1-1.2,4.1s-1.9,1.6-3.3,1.6c-0.6,0-1.1-0.1-1.6-0.3s-0.9-0.6-1.2-1v3.4l1.5,0.3v1.9h-6.2v-1.9
	l1.5-0.3v-11.7L176.4,218.1z M185.4,222.2c0-1.1-0.2-2-0.5-2.7s-0.9-1-1.7-1c-0.5,0-0.9,0.1-1.2,0.3s-0.6,0.5-0.8,0.8v5.1
	c0.2,0.3,0.5,0.6,0.8,0.8s0.7,0.3,1.2,0.3c0.8,0,1.3-0.3,1.7-0.9s0.5-1.4,0.5-2.4V222.2z"/>
<path class="st1" d="M189.8,226l1.5-0.3v-7.2l-1.7-0.3v-1.9h4.6l0.1,1.7c0.3-0.6,0.6-1.1,1.1-1.4s0.9-0.5,1.5-0.5c0.2,0,0.3,0,0.5,0
	s0.3,0.1,0.5,0.1l-0.3,2.9h-1.3c-0.5,0-0.8,0.1-1.1,0.3s-0.5,0.4-0.7,0.8v5.7l1.5,0.3v1.9h-6.1V226H189.8z"/>
<path class="st1" d="M203.9,228.1c-1.7,0-3-0.5-4-1.6s-1.5-2.4-1.5-4.1V222c0-1.7,0.5-3.1,1.4-4.3c0.9-1.1,2.2-1.7,3.8-1.7
	s2.8,0.5,3.7,1.4s1.3,2.2,1.3,3.8v1.7h-6.9v0.1c0.1,0.8,0.3,1.4,0.8,1.9s1.1,0.7,1.9,0.7c0.7,0,1.3-0.1,1.7-0.2
	c0.5-0.1,1-0.4,1.5-0.7l0.8,1.9c-0.5,0.4-1.1,0.7-1.9,1S204.9,228.1,203.9,228.1z M203.7,218.5c-0.6,0-1,0.2-1.4,0.7
	c-0.3,0.4-0.5,1-0.6,1.8v0.1h3.8v-0.3c0-0.7-0.2-1.2-0.5-1.6C204.8,218.7,204.3,218.5,203.7,218.5z"/>
<path class="st1" d="M214.9,218.1l-1.1,0.2l1.5,5.2l0.2,1.1h0.1l0.2-1.1l1.5-5.2l-1.1-0.2v-1.9h5.3v1.9l-1,0.2l-3.4,9.6h-3l-3.4-9.6
	l-1-0.2v-1.9h5.3v1.9H214.9z"/>
<path class="st1" d="M227.7,228.1c-1.7,0-3-0.5-4-1.6s-1.5-2.4-1.5-4.1V222c0-1.7,0.5-3.1,1.4-4.3c0.9-1.1,2.2-1.7,3.8-1.7
	s2.8,0.5,3.7,1.4s1.3,2.2,1.3,3.8v1.7h-6.9v0.1c0.1,0.8,0.3,1.4,0.8,1.9s1.1,0.7,1.9,0.7c0.7,0,1.3-0.1,1.7-0.2
	c0.5-0.1,1-0.4,1.5-0.7l0.8,1.9c-0.5,0.4-1.1,0.7-1.9,1S228.6,228.1,227.7,228.1z M227.4,218.5c-0.6,0-1,0.2-1.4,0.7s-0.5,1-0.6,1.8
	v0.1h3.8v-0.3c0-0.7-0.2-1.2-0.5-1.6C228.5,218.7,228.1,218.5,227.4,218.5z"/>
<path class="st1" d="M233.5,226l1.5-0.3v-7.2l-1.7-0.3v-1.9h4.6l0.1,1.7c0.4-0.6,0.9-1.1,1.4-1.4c0.6-0.3,1.2-0.5,1.9-0.5
	c1.2,0,2.1,0.4,2.8,1.1c0.7,0.7,1,1.9,1,3.5v5.1l1.5,0.3v1.9h-6v-2l1.3-0.3v-5c0-0.8-0.2-1.3-0.5-1.7c-0.3-0.3-0.8-0.5-1.4-0.5
	c-0.4,0-0.8,0.1-1.1,0.3s-0.6,0.4-0.8,0.7v6.2l1.3,0.3v1.9h-5.9L233.5,226L233.5,226z"/>
<path class="st1" d="M251.7,213.4v2.8h2v2.2h-2v5.9c0,0.5,0.1,0.8,0.3,1s0.4,0.3,0.8,0.3c0.2,0,0.4,0,0.6,0c0.2,0,0.3,0,0.5-0.1
	l0.3,2.3c-0.4,0.1-0.7,0.2-1,0.2c-0.3,0.1-0.7,0.1-1.1,0.1c-1.1,0-1.9-0.3-2.5-0.9c-0.6-0.6-0.9-1.5-0.9-2.8v-5.9H247v-2.2h1.7v-2.8
	h3V213.4z"/>
<path class="st1" d="M260.4,218.1v-1.9h4.6l0.2,1.4c0.3-0.5,0.8-0.9,1.2-1.2c0.5-0.3,1-0.4,1.7-0.4c1.4,0,2.6,0.6,3.4,1.7
	s1.2,2.6,1.2,4.4v0.2c0,1.7-0.4,3.1-1.2,4.1s-1.9,1.6-3.3,1.6c-0.6,0-1.1-0.1-1.6-0.3s-0.9-0.6-1.2-1v3.4l1.5,0.3v1.9h-6.2v-1.9
	l1.5-0.3v-11.7L260.4,218.1z M269.4,222.2c0-1.1-0.2-2-0.5-2.7s-0.9-1-1.7-1c-0.5,0-0.9,0.1-1.2,0.3s-0.6,0.5-0.8,0.8v5.1
	c0.2,0.3,0.5,0.6,0.8,0.8s0.7,0.3,1.2,0.3c0.8,0,1.3-0.3,1.7-0.9s0.5-1.4,0.5-2.4V222.2z"/>
<path class="st1" d="M273.8,226l1.5-0.3v-7.2l-1.7-0.3v-1.9h4.6l0.1,1.7c0.3-0.6,0.6-1.1,1.1-1.4s0.9-0.5,1.5-0.5c0.2,0,0.3,0,0.5,0
	s0.3,0.1,0.5,0.1l-0.3,2.9h-1.3c-0.5,0-0.8,0.1-1.1,0.3s-0.5,0.4-0.7,0.8v5.7l1.5,0.3v1.9h-6.1V226H273.8z"/>
<path class="st1" d="M288.1,228.1c-1.7,0-3-0.5-4-1.6s-1.5-2.4-1.5-4.1V222c0-1.7,0.5-3.1,1.4-4.3c0.9-1.1,2.2-1.7,3.8-1.7
	c1.6,0,2.8,0.5,3.7,1.4c0.9,0.9,1.3,2.2,1.3,3.8v1.7h-6.9v0.1c0.1,0.8,0.3,1.4,0.8,1.9s1.1,0.7,1.9,0.7c0.7,0,1.3-0.1,1.7-0.2
	c0.5-0.1,1-0.4,1.5-0.7l0.8,1.9c-0.5,0.4-1.1,0.7-1.9,1S289,228.1,288.1,228.1z M287.8,218.5c-0.6,0-1,0.2-1.4,0.7
	c-0.3,0.4-0.5,1-0.6,1.8v0.1h3.8v-0.3c0-0.7-0.2-1.2-0.5-1.6C288.9,218.7,288.4,218.5,287.8,218.5z"/>
<path class="st1" d="M294.3,222.2c0-1.8,0.4-3.3,1.2-4.4c0.8-1.1,1.9-1.7,3.4-1.7c0.7,0,1.2,0.1,1.7,0.4c0.5,0.3,0.9,0.7,1.3,1.2
	l0.2-1.5h2.7v11.3c0,1.5-0.5,2.8-1.4,3.7c-1,0.9-2.3,1.4-4,1.4c-0.6,0-1.2-0.1-1.9-0.2c-0.7-0.2-1.3-0.4-1.8-0.7l0.6-2.2
	c0.5,0.2,1,0.4,1.5,0.5s1,0.2,1.6,0.2c0.8,0,1.3-0.2,1.7-0.7c0.4-0.5,0.6-1.1,0.6-1.9v-0.8c-0.3,0.4-0.7,0.8-1.2,1s-1,0.3-1.6,0.3
	c-1.4,0-2.5-0.5-3.3-1.6c-0.8-1-1.2-2.4-1.2-4.1v-0.2H294.3z M297.4,222.4c0,1,0.2,1.8,0.5,2.4c0.3,0.6,0.9,0.9,1.7,0.9
	c0.5,0,0.9-0.1,1.2-0.3c0.3-0.2,0.6-0.4,0.8-0.8v-5c-0.2-0.4-0.5-0.6-0.8-0.8s-0.7-0.3-1.2-0.3c-0.8,0-1.3,0.3-1.7,1
	s-0.5,1.6-0.5,2.7V222.4z"/>
<path class="st1" d="M306.5,226l1.5-0.3v-7.2l-1.7-0.3v-1.9h4.6l0.1,1.7c0.4-0.6,0.9-1.1,1.4-1.4c0.6-0.3,1.2-0.5,1.9-0.5
	c1.2,0,2.1,0.4,2.8,1.1c0.7,0.7,1,1.9,1,3.5v5.1l1.5,0.3v1.9h-6v-2l1.3-0.3v-5c0-0.8-0.2-1.3-0.5-1.7c-0.3-0.3-0.8-0.5-1.4-0.5
	c-0.4,0-0.8,0.1-1.1,0.3c-0.3,0.2-0.6,0.4-0.8,0.7v6.2l1.3,0.3v1.9h-5.9L306.5,226L306.5,226z"/>
<path class="st1" d="M328.1,227.9c-0.1-0.2-0.2-0.4-0.2-0.6c-0.1-0.2-0.1-0.4-0.2-0.6c-0.4,0.4-0.8,0.8-1.4,1s-1.1,0.4-1.8,0.4
	c-1.1,0-2-0.3-2.7-0.9c-0.7-0.6-1-1.5-1-2.5c0-1.1,0.4-1.9,1.3-2.5s2.2-0.9,3.8-0.9h1.6v-1.1c0-0.6-0.2-1-0.5-1.3s-0.8-0.5-1.4-0.5
	c-0.4,0-0.7,0-1,0.1s-0.5,0.2-0.7,0.3l-0.2,1.2h-2.4v-2.6c0.6-0.4,1.2-0.7,2-1s1.5-0.4,2.4-0.4c1.4,0,2.6,0.4,3.5,1.1
	c0.9,0.7,1.3,1.7,1.3,3v4.8c0,0.2,0,0.3,0,0.5s0,0.3,0,0.5l1,0.1v1.9H328.1z M325.4,225.8c0.5,0,0.9-0.1,1.3-0.3s0.7-0.5,0.9-0.8
	v-1.8H326c-0.7,0-1.2,0.2-1.5,0.5s-0.5,0.7-0.5,1.1c0,0.4,0.1,0.7,0.4,0.9S324.9,225.8,325.4,225.8z"/>
<path class="st1" d="M332.8,226l1.5-0.3v-7.2l-1.7-0.3v-1.9h4.6l0.1,1.7c0.4-0.6,0.9-1.1,1.4-1.4s1.2-0.5,1.9-0.5
	c1.2,0,2.1,0.4,2.8,1.1c0.7,0.7,1,1.9,1,3.5v5.1l1.5,0.3v1.9h-6v-2l1.3-0.3v-5c0-0.8-0.2-1.3-0.5-1.7c-0.3-0.3-0.8-0.5-1.4-0.5
	c-0.4,0-0.8,0.1-1.1,0.3c-0.3,0.2-0.6,0.4-0.8,0.7v6.2l1.3,0.3v1.9h-5.9L332.8,226L332.8,226z"/>
<path class="st1" d="M352,225.7c0.6,0,1-0.2,1.3-0.5s0.5-0.8,0.5-1.3h2.8v0.1c0,1.2-0.4,2.2-1.3,2.9c-0.9,0.8-2,1.2-3.4,1.2
	c-1.7,0-3.1-0.5-4-1.6s-1.4-2.5-1.4-4.2V222c0-1.7,0.5-3.1,1.4-4.2c1-1.1,2.3-1.7,4.1-1.7c0.9,0,1.8,0.1,2.5,0.4s1.4,0.7,1.9,1.2
	v3.1H354l-0.5-1.8c-0.2-0.1-0.4-0.2-0.6-0.3s-0.5-0.1-0.8-0.1c-0.9,0-1.5,0.3-1.9,1s-0.5,1.5-0.5,2.5v0.3c0,1,0.2,1.9,0.5,2.5
	C350.6,225.4,351.2,225.7,352,225.7z"/>
<path class="st1" d="M370.2,218.1l-1.1,0.2l-4.3,11.3c-0.3,0.8-0.8,1.5-1.3,2.1c-0.6,0.6-1.4,0.8-2.5,0.8c-0.3,0-0.5,0-0.7-0.1
	c-0.2,0-0.5-0.1-0.8-0.2l0.4-2.3c0.1,0,0.2,0,0.3,0s0.2,0,0.3,0c0.5,0,0.9-0.1,1.2-0.4c0.3-0.3,0.5-0.6,0.6-1l0.4-0.9L359,218
	l-1.1-0.2v-1.9h5.7v1.9l-1.3,0.2l1.6,4.6l0.2,0.8h0.1l1.8-5.5l-1.3-0.2v-1.9h5.7v2.3H370.2z"/>
<path class="st1" d="M373.4,227.9h-3.1v-2.8h3.1V227.9z"/>
<path class="st1" d="M155.9,265c1.8,0,3.3,0.4,4.3,1.1s1.5,1.8,1.5,3.2c0,0.7-0.2,1.4-0.6,1.9c-0.4,0.6-0.9,1-1.7,1.3
	c0.9,0.2,1.6,0.6,2.1,1.3c0.5,0.7,0.7,1.4,0.7,2.3c0,1.5-0.5,2.6-1.5,3.4s-2.4,1.2-4.2,1.2H149v-1.9l1.7-0.3v-11.2L149,267v-2h1.7
	H155.9z M153.8,271.6h2.3c0.8,0,1.5-0.2,1.9-0.5s0.7-0.8,0.7-1.5s-0.2-1.3-0.7-1.6c-0.5-0.3-1.1-0.5-2-0.5h-2.1L153.8,271.6
	L153.8,271.6z M153.8,273.8v4.5h2.9c0.8,0,1.5-0.2,1.9-0.5c0.4-0.4,0.7-0.9,0.7-1.6c0-0.8-0.2-1.4-0.6-1.8c-0.4-0.4-1-0.6-1.8-0.6
	H153.8z"/>
<path class="st1" d="M163.4,278.8l1.5-0.3v-7.2l-1.7-0.3v-1.9h4.8v9.4l1.5,0.3v1.9h-6.2L163.4,278.8L163.4,278.8z M168.1,266.3H165
	v-2.4h3.1V266.3z"/>
<path class="st1" d="M170.8,278.8l1.5-0.3v-7.2l-1.7-0.3v-1.9h4.6l0.1,1.7c0.3-0.6,0.6-1.1,1.1-1.4s0.9-0.5,1.5-0.5
	c0.2,0,0.3,0,0.5,0s0.3,0.1,0.5,0.1l-0.3,2.9h-1.3c-0.5,0-0.8,0.1-1.1,0.3s-0.5,0.4-0.7,0.8v5.7l1.5,0.3v1.9h-6.1v-2.1H170.8z"/>
<path class="st1" d="M184.7,266.2v2.8h2v2.2h-2v5.9c0,0.5,0.1,0.8,0.3,1s0.4,0.3,0.8,0.3c0.2,0,0.4,0,0.6,0c0.2,0,0.3,0,0.5-0.1
	l0.3,2.3c-0.4,0.1-0.7,0.2-1,0.2c-0.3,0.1-0.7,0.1-1.1,0.1c-1.1,0-1.9-0.3-2.5-0.9s-0.9-1.5-0.9-2.8v-5.9H180v-2.2h1.7v-2.8h3V266.2
	z"/>
<path class="st1" d="M188.3,278.8l1.5-0.3v-12.3l-1.7-0.3V264h4.8v6.6c0.4-0.5,0.8-1,1.3-1.3s1.1-0.4,1.8-0.4c1.2,0,2.2,0.4,2.9,1.2
	c0.7,0.8,1,2,1,3.7v4.7l1.5,0.3v1.9h-6v-1.9l1.4-0.3v-4.7c0-0.9-0.2-1.5-0.5-1.9s-0.8-0.6-1.4-0.6c-0.4,0-0.8,0.1-1.1,0.2
	c-0.3,0.2-0.6,0.4-0.8,0.7v6.3l1.4,0.3v1.9h-6L188.3,278.8L188.3,278.8z"/>
<path class="st1" d="M213.3,278.5c0.6,0,1-0.2,1.3-0.5s0.5-0.8,0.5-1.3h2.8v0.1c0,1.2-0.4,2.2-1.3,2.9c-0.9,0.8-2,1.2-3.4,1.2
	c-1.7,0-3.1-0.5-4-1.6s-1.4-2.5-1.4-4.2v-0.3c0-1.7,0.5-3.1,1.4-4.2c1-1.1,2.3-1.7,4.1-1.7c0.9,0,1.8,0.1,2.5,0.4s1.4,0.7,1.9,1.2
	v3.1h-2.5l-0.5-1.8c-0.2-0.1-0.4-0.2-0.6-0.3c-0.2-0.1-0.5-0.1-0.8-0.1c-0.9,0-1.5,0.3-1.9,1s-0.5,1.5-0.5,2.5v0.3
	c0,1,0.2,1.9,0.5,2.5C211.8,278.2,212.4,278.5,213.3,278.5z"/>
<path class="st1" d="M219.3,274.8c0-1.7,0.5-3.2,1.5-4.3c1-1.1,2.3-1.7,4-1.7s3.1,0.6,4,1.7c1,1.1,1.5,2.5,1.5,4.3v0.2
	c0,1.7-0.5,3.2-1.5,4.3c-1,1.1-2.3,1.6-4,1.6s-3.1-0.5-4-1.6c-1-1.1-1.5-2.5-1.5-4.3V274.8z M222.4,275c0,1.1,0.2,1.9,0.6,2.6
	c0.4,0.6,1,1,1.8,1s1.4-0.3,1.8-1s0.6-1.5,0.6-2.5v-0.2c0-1-0.2-1.9-0.6-2.5c-0.4-0.7-1-1-1.8-1s-1.4,0.3-1.8,1
	c-0.4,0.7-0.6,1.5-0.6,2.5V275z"/>
<path class="st1" d="M231.1,278.8l1.5-0.3v-7.2l-1.7-0.3v-1.9h4.6l0.1,1.7c0.4-0.6,0.9-1.1,1.4-1.4c0.6-0.3,1.2-0.5,1.9-0.5
	c1.2,0,2.1,0.4,2.8,1.1s1,1.9,1,3.5v5.1l1.5,0.3v1.9h-6v-1.9l1.3-0.3v-5c0-0.8-0.2-1.3-0.5-1.7c-0.3-0.3-0.8-0.5-1.4-0.5
	c-0.4,0-0.8,0.1-1.1,0.3c-0.3,0.2-0.6,0.4-0.8,0.7v6.2l1.3,0.3v1.9h-5.9L231.1,278.8L231.1,278.8z"/>
<path class="st1" d="M249.3,266.2v2.8h2v2.2h-2v5.9c0,0.5,0.1,0.8,0.3,1s0.4,0.3,0.8,0.3c0.2,0,0.4,0,0.6,0c0.2,0,0.3,0,0.5-0.1
	l0.3,2.3c-0.4,0.1-0.7,0.2-1,0.2c-0.3,0.1-0.7,0.1-1.1,0.1c-1.1,0-1.9-0.3-2.5-0.9s-0.9-1.5-0.9-2.8v-5.9h-1.7v-2.2h1.7v-2.8h3
	V266.2z"/>
<path class="st1" d="M253,278.8l1.5-0.3v-7.2l-1.7-0.3v-1.9h4.6l0.1,1.7c0.3-0.6,0.6-1.1,1.1-1.4s0.9-0.5,1.5-0.5c0.2,0,0.3,0,0.5,0
	s0.3,0.1,0.5,0.1l-0.3,2.9h-1.3c-0.5,0-0.8,0.1-1.1,0.3s-0.5,0.4-0.7,0.8v5.7l1.5,0.3v1.9H253V278.8z"/>
<path class="st1" d="M261.8,274.8c0-1.7,0.5-3.2,1.5-4.3c1-1.1,2.3-1.7,4-1.7s3.1,0.6,4,1.7c1,1.1,1.5,2.5,1.5,4.3v0.2
	c0,1.7-0.5,3.2-1.5,4.3c-1,1.1-2.3,1.6-4,1.6s-3.1-0.5-4-1.6c-1-1.1-1.5-2.5-1.5-4.3V274.8z M264.9,275c0,1.1,0.2,1.9,0.6,2.6
	c0.4,0.6,1,1,1.8,1s1.4-0.3,1.8-1s0.6-1.5,0.6-2.5v-0.2c0-1-0.2-1.9-0.6-2.5c-0.4-0.7-1-1-1.8-1s-1.4,0.3-1.8,1s-0.6,1.5-0.6,2.5
	V275z"/>
<path class="st1" d="M273.3,265.8v-1.9h4.8v14.6l1.5,0.3v1.9h-6.2v-1.9l1.5-0.3v-12.3L273.3,265.8z"/>
<path class="st1" d="M285.8,270.9V269h4.6l0.2,1.4c0.3-0.5,0.8-0.9,1.2-1.2c0.5-0.3,1-0.4,1.7-0.4c1.4,0,2.6,0.6,3.4,1.7
	s1.2,2.6,1.2,4.4v0.2c0,1.7-0.4,3.1-1.2,4.1s-1.9,1.6-3.3,1.6c-0.6,0-1.1-0.1-1.6-0.3c-0.5-0.2-0.9-0.6-1.2-1v3.4l1.5,0.3v1.9H286
	v-1.9l1.5-0.3v-11.7L285.8,270.9z M294.9,275c0-1.1-0.2-2-0.5-2.7s-0.9-1-1.7-1c-0.5,0-0.9,0.1-1.2,0.3s-0.6,0.5-0.8,0.8v5.1
	c0.2,0.3,0.5,0.6,0.8,0.8s0.7,0.3,1.2,0.3c0.8,0,1.3-0.3,1.7-0.9s0.5-1.4,0.5-2.4V275z"/>
<path class="st1" d="M299.1,278.8l1.5-0.3v-7.2l-1.7-0.3v-1.9h4.8v9.4l1.5,0.3v1.9H299v-1.9H299.1z M303.7,266.3h-3.1v-2.4h3.1
	V266.3z"/>
<path class="st1" d="M306.1,265.8v-1.9h4.8v14.6l1.5,0.3v1.9h-6.2v-1.9l1.5-0.3v-12.3L306.1,265.8z"/>
<path class="st1" d="M313.3,265.8v-1.9h4.8v14.6l1.5,0.3v1.9h-6.2v-1.9l1.5-0.3v-12.3L313.3,265.8z"/>
<path class="st1" d="M330,273.1h-2.1l-0.3-1.5c-0.2-0.2-0.5-0.3-0.8-0.4s-0.7-0.2-1.1-0.2c-0.6,0-1,0.1-1.3,0.4
	c-0.3,0.2-0.5,0.6-0.5,0.9c0,0.4,0.2,0.6,0.5,0.9c0.3,0.2,0.9,0.4,1.8,0.6c1.4,0.3,2.5,0.7,3.2,1.3c0.7,0.6,1,1.3,1,2.3
	s-0.5,1.9-1.3,2.6c-0.9,0.7-2.1,1-3.5,1c-0.9,0-1.7-0.1-2.5-0.4c-0.7-0.3-1.4-0.6-2-1.1v-2.6h2.2l0.4,1.5c0.2,0.2,0.4,0.3,0.8,0.3
	c0.3,0.1,0.7,0.1,1,0.1c0.6,0,1.1-0.1,1.5-0.3s0.5-0.5,0.5-0.9c0-0.3-0.2-0.6-0.5-0.9s-1-0.5-1.9-0.7c-1.4-0.3-2.4-0.7-3.1-1.2
	s-1-1.3-1-2.2c0-1,0.4-1.8,1.2-2.5c0.8-0.7,1.9-1.1,3.4-1.1c0.9,0,1.8,0.1,2.6,0.4s1.4,0.6,1.9,0.9L330,273.1z"/>
<path class="st1" d="M337.1,278.8l1.5-0.3v-12.3l-1.7-0.3V264h4.8v6.6c0.4-0.5,0.8-1,1.3-1.3s1.1-0.4,1.8-0.4c1.2,0,2.2,0.4,2.9,1.2
	c0.7,0.8,1,2,1,3.7v4.7l1.5,0.3v1.9h-6v-1.9l1.4-0.3v-4.7c0-0.9-0.2-1.5-0.5-1.9s-0.8-0.6-1.4-0.6c-0.4,0-0.8,0.1-1.1,0.2
	c-0.3,0.2-0.6,0.4-0.8,0.7v6.3l1.4,0.3v1.9h-6L337.1,278.8L337.1,278.8z"/>
<path class="st1" d="M358.6,280.7c-0.1-0.2-0.2-0.4-0.2-0.6c-0.1-0.2-0.1-0.4-0.2-0.6c-0.4,0.4-0.8,0.8-1.4,1s-1.1,0.4-1.8,0.4
	c-1.1,0-2-0.3-2.7-0.9s-1-1.5-1-2.5c0-1.1,0.4-1.9,1.3-2.5s2.2-0.9,3.8-0.9h1.6V273c0-0.6-0.2-1-0.5-1.3s-0.8-0.5-1.4-0.5
	c-0.4,0-0.7,0-1,0.1s-0.5,0.2-0.7,0.3l-0.2,1.2H352v-2.6c0.6-0.4,1.2-0.7,2-1s1.5-0.4,2.4-0.4c1.4,0,2.6,0.4,3.5,1.1s1.3,1.7,1.3,3
	v4.8c0,0.2,0,0.3,0,0.5s0,0.3,0,0.5l1,0.1v1.9H358.6z M355.9,278.6c0.5,0,0.9-0.1,1.3-0.3c0.4-0.2,0.7-0.5,0.9-0.8v-1.8h-1.6
	c-0.7,0-1.2,0.2-1.5,0.5s-0.5,0.7-0.5,1.1s0.1,0.7,0.4,0.9S355.4,278.6,355.9,278.6z"/>
<path class="st1" d="M367.8,270.9l-1.1,0.2l1.5,5.2l0.2,1.1h0.1l0.2-1.1l1.5-5.2l-1.1-0.2V269h5.3v1.9l-1,0.2l-3.4,9.6h-3l-3.4-9.6
	l-1-0.2V269h5.3v1.9H367.8z"/>
<path class="st1" d="M380.6,280.9c-1.7,0-3-0.5-4-1.6s-1.5-2.4-1.5-4.1v-0.4c0-1.7,0.5-3.1,1.4-4.3s2.2-1.7,3.8-1.7
	c1.6,0,2.8,0.5,3.7,1.4c0.9,0.9,1.3,2.2,1.3,3.8v1.7h-6.9v0.1c0.1,0.8,0.3,1.4,0.8,1.9s1.1,0.7,1.9,0.7c0.7,0,1.3-0.1,1.7-0.2
	c0.5-0.1,1-0.4,1.5-0.7l0.8,1.9c-0.5,0.4-1.1,0.7-1.9,1S381.5,280.9,380.6,280.9z M380.3,271.3c-0.6,0-1,0.2-1.4,0.7
	c-0.3,0.4-0.5,1-0.6,1.8v0.1h3.8v-0.3c0-0.7-0.2-1.2-0.5-1.6C381.4,271.5,381,271.3,380.3,271.3z"/>
<path class="st1" d="M391.8,270.9V269h4.6l0.1,1.5c0.4-0.6,0.8-1,1.4-1.3s1.2-0.5,2-0.5c0.7,0,1.4,0.2,1.9,0.5s0.9,0.8,1.2,1.5
	c0.4-0.6,0.8-1.1,1.4-1.5s1.2-0.5,2-0.5c1.1,0,2,0.4,2.7,1.2c0.7,0.8,1,2,1,3.6v4.8l1.5,0.3v1.9h-6v-1.9l1.4-0.3v-4.8
	c0-0.9-0.1-1.5-0.4-1.8s-0.7-0.5-1.3-0.5c-0.4,0-0.8,0.1-1.2,0.3c-0.3,0.2-0.6,0.5-0.8,0.8c0,0.1,0,0.3,0,0.3c0,0.1,0,0.2,0,0.3v5.4
	l1.3,0.3v1.9h-5.7v-1.9l1.3-0.3v-4.8c0-0.9-0.1-1.5-0.4-1.8c-0.3-0.4-0.7-0.5-1.3-0.5c-0.4,0-0.8,0.1-1.1,0.2
	c-0.3,0.2-0.6,0.4-0.8,0.7v6.3l1.4,0.3v1.9h-6v-1.9l1.5-0.3v-7.2L391.8,270.9z"/>
<path class="st1" d="M420,280.7c-0.1-0.2-0.2-0.4-0.2-0.6c-0.1-0.2-0.1-0.4-0.2-0.6c-0.4,0.4-0.8,0.8-1.4,1s-1.1,0.4-1.8,0.4
	c-1.1,0-2-0.3-2.7-0.9s-1-1.5-1-2.5c0-1.1,0.4-1.9,1.3-2.5s2.2-0.9,3.8-0.9h1.6V273c0-0.6-0.2-1-0.5-1.3s-0.8-0.5-1.4-0.5
	c-0.4,0-0.7,0-1,0.1s-0.5,0.2-0.7,0.3l-0.2,1.2h-2.4v-2.6c0.6-0.4,1.2-0.7,2-1s1.5-0.4,2.4-0.4c1.4,0,2.6,0.4,3.5,1.1s1.3,1.7,1.3,3
	v4.8c0,0.2,0,0.3,0,0.5s0,0.3,0,0.5l1,0.1v1.9H420z M417.3,278.6c0.5,0,0.9-0.1,1.3-0.3c0.4-0.2,0.7-0.5,0.9-0.8v-1.8h-1.6
	c-0.7,0-1.2,0.2-1.5,0.5s-0.5,0.7-0.5,1.1s0.1,0.7,0.4,0.9S416.9,278.6,417.3,278.6z"/>
<path class="st1" d="M424.7,278.8l1.5-0.3v-7.2l-1.7-0.3v-1.9h4.6l0.1,1.7c0.4-0.6,0.9-1.1,1.4-1.4c0.6-0.3,1.2-0.5,1.9-0.5
	c1.2,0,2.1,0.4,2.8,1.1c0.7,0.7,1,1.9,1,3.5v5.1l1.5,0.3v1.9h-6v-1.9l1.3-0.3v-5c0-0.8-0.2-1.3-0.5-1.7c-0.3-0.3-0.8-0.5-1.4-0.5
	c-0.4,0-0.8,0.1-1.1,0.3c-0.3,0.2-0.6,0.4-0.8,0.7v6.2l1.3,0.3v1.9h-5.9L424.7,278.8L424.7,278.8z"/>
<path class="st1" d="M450.3,270.9l-1.1,0.2l-4.3,11.3c-0.3,0.8-0.8,1.5-1.3,2.1c-0.6,0.6-1.4,0.8-2.5,0.8c-0.3,0-0.5,0-0.7-0.1
	c-0.2,0-0.5-0.1-0.8-0.2l0.4-2.3c0.1,0,0.2,0,0.3,0s0.2,0,0.3,0c0.5,0,0.9-0.1,1.2-0.4c0.3-0.3,0.5-0.6,0.6-1l0.4-0.9l-3.7-9.6
	l-1.1-0.2v-1.9h5.7v1.9l-1.3,0.2l1.6,4.6l0.2,0.8h0.1l1.8-5.5l-1.3-0.2v-1.9h5.7v2.3H450.3z"/>
<path class="st1" d="M128.8,297.3v-1.9h4.6l0.2,1.4c0.3-0.5,0.8-0.9,1.2-1.2c0.5-0.3,1-0.4,1.7-0.4c1.4,0,2.6,0.6,3.4,1.7
	s1.2,2.6,1.2,4.4v0.2c0,1.7-0.4,3.1-1.2,4.1s-1.9,1.6-3.3,1.6c-0.6,0-1.1-0.1-1.6-0.3c-0.5-0.2-0.9-0.6-1.2-1v3.4l1.5,0.3v1.9H129
	v-1.9l1.5-0.3v-11.7L128.8,297.3z M137.8,301.4c0-1.1-0.2-2-0.5-2.7s-0.9-1-1.7-1c-0.5,0-0.9,0.1-1.2,0.3s-0.6,0.5-0.8,0.8v5.1
	c0.2,0.3,0.5,0.6,0.8,0.8s0.7,0.3,1.2,0.3c0.8,0,1.3-0.3,1.7-0.9s0.5-1.4,0.5-2.4V301.4z"/>
<path class="st1" d="M142.3,301.2c0-1.7,0.5-3.2,1.5-4.3c1-1.1,2.3-1.7,4-1.7s3.1,0.6,4,1.7c1,1.1,1.5,2.5,1.5,4.3v0.2
	c0,1.7-0.5,3.2-1.5,4.3c-1,1.1-2.3,1.6-4,1.6s-3.1-0.5-4-1.6c-1-1.1-1.5-2.5-1.5-4.3V301.2z M145.5,301.4c0,1.1,0.2,1.9,0.6,2.6
	c0.4,0.6,1,1,1.8,1s1.4-0.3,1.8-1s0.6-1.5,0.6-2.5v-0.2c0-1-0.2-1.9-0.6-2.5c-0.4-0.7-1-1-1.8-1s-1.4,0.3-1.8,1
	c-0.4,0.7-0.6,1.5-0.6,2.5V301.4z"/>
<path class="st1" d="M163.9,299.5h-2.1l-0.3-1.5c-0.2-0.2-0.5-0.3-0.8-0.4s-0.7-0.2-1.1-0.2c-0.6,0-1,0.1-1.3,0.4
	c-0.3,0.2-0.5,0.6-0.5,0.9c0,0.4,0.2,0.6,0.5,0.9c0.3,0.2,0.9,0.4,1.8,0.6c1.4,0.3,2.5,0.7,3.2,1.3c0.7,0.6,1,1.3,1,2.3
	s-0.4,1.9-1.3,2.6c-0.9,0.7-2.1,1-3.6,1c-0.9,0-1.7-0.1-2.5-0.4c-0.7-0.3-1.4-0.6-2-1.1v-2.6h2.2l0.4,1.5c0.2,0.2,0.4,0.3,0.8,0.3
	c0.3,0.1,0.7,0.1,1,0.1c0.6,0,1.1-0.1,1.5-0.3s0.5-0.5,0.5-0.9c0-0.3-0.2-0.6-0.5-0.9s-1-0.5-1.9-0.7c-1.4-0.3-2.4-0.7-3.1-1.2
	c-0.7-0.5-1-1.3-1-2.2c0-1,0.4-1.8,1.2-2.5s1.9-1.1,3.4-1.1c0.9,0,1.8,0.1,2.6,0.4s1.4,0.6,1.9,0.9L163.9,299.5z"/>
<path class="st1" d="M165.5,305.2l1.5-0.3v-7.2l-1.7-0.3v-1.9h4.8v9.4l1.5,0.3v1.9h-6.2L165.5,305.2L165.5,305.2z M170.1,292.7H167
	v-2.4h3.1V292.7z"/>
<path class="st1" d="M176.8,292.6v2.8h2v2.2h-2v5.9c0,0.5,0.1,0.8,0.3,1s0.4,0.3,0.8,0.3c0.2,0,0.4,0,0.6,0c0.2,0,0.3,0,0.5-0.1
	l0.3,2.3c-0.4,0.1-0.7,0.2-1,0.2c-0.3,0.1-0.7,0.1-1.1,0.1c-1.1,0-1.9-0.3-2.5-0.9s-0.9-1.5-0.9-2.8v-5.9h-1.7v-2.2h1.7v-2.8h3
	V292.6z"/>
<path class="st1" d="M180.3,305.2l1.5-0.3v-7.2l-1.7-0.3v-1.9h4.8v9.4l1.5,0.3v1.9h-6.2L180.3,305.2L180.3,305.2z M185,292.7h-3.1
	v-2.4h3.1V292.7z"/>
<path class="st1" d="M191.9,297.3l-1.1,0.2l1.5,5.2l0.2,1.1h0.1l0.2-1.1l1.5-5.2l-1.1-0.2v-1.9h5.3v1.9l-1,0.2l-3.4,9.6h-3l-3.4-9.6
	l-1-0.2v-1.9h5.3v1.9H191.9z"/>
<path class="st1" d="M204.8,307.3c-1.7,0-3-0.5-4-1.6s-1.5-2.4-1.5-4.1v-0.4c0-1.7,0.5-3.1,1.4-4.3c0.9-1.1,2.2-1.7,3.8-1.7
	s2.8,0.5,3.7,1.4s1.3,2.2,1.3,3.8v1.7h-6.9v0.1c0.1,0.8,0.3,1.4,0.8,1.9s1.1,0.7,1.9,0.7c0.7,0,1.3-0.1,1.7-0.2
	c0.5-0.1,1-0.4,1.5-0.7l0.8,1.9c-0.5,0.4-1.1,0.7-1.9,1S205.7,307.3,204.8,307.3z M204.5,297.7c-0.6,0-1,0.2-1.4,0.7s-0.5,1-0.6,1.8
	v0.1h3.8V300c0-0.7-0.2-1.2-0.5-1.6C205.6,297.9,205.1,297.7,204.5,297.7z"/>
<path class="st1" d="M225.8,299.5h-2.1l-0.3-1.5c-0.2-0.2-0.5-0.3-0.8-0.4s-0.7-0.2-1.1-0.2c-0.6,0-1,0.1-1.3,0.4
	c-0.3,0.2-0.5,0.6-0.5,0.9c0,0.4,0.2,0.6,0.5,0.9c0.3,0.2,0.9,0.4,1.8,0.6c1.4,0.3,2.5,0.7,3.2,1.3c0.7,0.6,1,1.3,1,2.3
	s-0.4,1.9-1.3,2.6c-0.9,0.7-2.1,1-3.6,1c-0.9,0-1.7-0.1-2.5-0.4c-0.7-0.3-1.4-0.6-2-1.1v-2.6h2.2l0.4,1.5c0.2,0.2,0.4,0.3,0.8,0.3
	c0.3,0.1,0.7,0.1,1,0.1c0.6,0,1.1-0.1,1.5-0.3s0.5-0.5,0.5-0.9c0-0.3-0.2-0.6-0.5-0.9s-1-0.5-1.9-0.7c-1.4-0.3-2.4-0.7-3.1-1.2
	c-0.7-0.5-1-1.3-1-2.2c0-1,0.4-1.8,1.2-2.5s1.9-1.1,3.4-1.1c0.9,0,1.8,0.1,2.6,0.4s1.4,0.6,1.9,0.9L225.8,299.5z"/>
<path class="st1" d="M227.4,305.2l1.5-0.3v-7.2l-1.7-0.3v-1.9h4.8v9.4l1.5,0.3v1.9h-6.2L227.4,305.2L227.4,305.2z M232,292.7h-3.1
	v-2.4h3.1V292.7z"/>
<path class="st1" d="M241.9,305.7c-0.4,0.5-0.8,0.9-1.3,1.2c-0.5,0.3-1.1,0.4-1.7,0.4c-1.4,0-2.5-0.5-3.3-1.6
	c-0.8-1-1.2-2.4-1.2-4.1v-0.2c0-1.8,0.4-3.3,1.2-4.4s1.9-1.7,3.4-1.7c0.6,0,1.1,0.1,1.6,0.4s0.9,0.6,1.2,1.1v-4.2l-1.7-0.3v-1.9h1.7
	h3.1V305l1.5,0.3v1.9h-4.2L241.9,305.7z M237.5,301.6c0,1,0.2,1.8,0.5,2.4s0.9,0.9,1.7,0.9c0.5,0,0.9-0.1,1.2-0.3
	c0.3-0.2,0.6-0.5,0.8-0.8v-4.9c-0.2-0.4-0.5-0.7-0.8-0.9c-0.3-0.2-0.7-0.3-1.2-0.3c-0.8,0-1.3,0.3-1.7,1s-0.5,1.6-0.5,2.7V301.6z"/>
<path class="st1" d="M252.6,307.3c-1.7,0-3-0.5-4-1.6s-1.5-2.4-1.5-4.1v-0.4c0-1.7,0.5-3.1,1.4-4.3c0.9-1.1,2.2-1.7,3.8-1.7
	s2.8,0.5,3.7,1.4s1.3,2.2,1.3,3.8v1.7h-6.9v0.1c0.1,0.8,0.3,1.4,0.8,1.9s1.1,0.7,1.9,0.7c0.7,0,1.3-0.1,1.7-0.2
	c0.5-0.1,1-0.4,1.5-0.7l0.8,1.9c-0.5,0.4-1.1,0.7-1.9,1S253.5,307.3,252.6,307.3z M252.3,297.7c-0.6,0-1,0.2-1.4,0.7
	c-0.3,0.4-0.5,1-0.6,1.8v0.1h3.8V300c0-0.7-0.2-1.2-0.5-1.6C253.4,297.9,252.9,297.7,252.3,297.7z"/>
<path class="st1" d="M269.7,307.3c-1.7,0-3-0.5-4-1.6s-1.5-2.4-1.5-4.1v-0.4c0-1.7,0.5-3.1,1.4-4.3c0.9-1.1,2.2-1.7,3.8-1.7
	c1.6,0,2.8,0.5,3.7,1.4s1.3,2.2,1.3,3.8v1.7h-6.9v0.1c0.1,0.8,0.3,1.4,0.8,1.9s1.1,0.7,1.9,0.7c0.7,0,1.3-0.1,1.7-0.2
	c0.5-0.1,1-0.4,1.5-0.7l0.8,1.9c-0.5,0.4-1.1,0.7-1.9,1S270.6,307.3,269.7,307.3z M269.4,297.7c-0.6,0-1,0.2-1.4,0.7s-0.5,1-0.6,1.8
	v0.1h3.8V300c0-0.7-0.2-1.2-0.5-1.6C270.5,297.9,270,297.7,269.4,297.7z"/>
<path class="st1" d="M275.7,305.2l1.5-0.3v-7.2h-1.7v-2.2h1.7v-1.3c0-1.3,0.4-2.3,1.1-3c0.8-0.7,1.8-1.1,3.2-1.1
	c0.3,0,0.5,0,0.8,0.1c0.3,0,0.6,0.1,0.9,0.2l-0.3,2.3c-0.2,0-0.3-0.1-0.5-0.1s-0.3,0-0.6,0c-0.5,0-0.9,0.1-1.2,0.4
	c-0.3,0.3-0.4,0.7-0.4,1.2v1.3h2.3v2.2h-2.3v7.2l1.5,0.3v1.9h-6.2v-1.9H275.7z"/>
<path class="st1" d="M284,305.2l1.5-0.3v-7.2h-1.7v-2.2h1.7v-1.3c0-1.3,0.4-2.3,1.1-3c0.8-0.7,1.8-1.1,3.2-1.1c0.3,0,0.5,0,0.8,0.1
	c0.3,0,0.6,0.1,0.9,0.2l-0.3,2.3c-0.2,0-0.3-0.1-0.5-0.1s-0.3,0-0.6,0c-0.5,0-0.9,0.1-1.2,0.4c-0.3,0.3-0.4,0.7-0.4,1.2v1.3h2.3v2.2
	h-2.3v7.2l1.5,0.3v1.9h-6V305.2z"/>
<path class="st1" d="M297.3,307.3c-1.7,0-3-0.5-4-1.6s-1.5-2.4-1.5-4.1v-0.4c0-1.7,0.5-3.1,1.4-4.3c0.9-1.1,2.2-1.7,3.8-1.7
	c1.6,0,2.8,0.5,3.7,1.4c0.9,0.9,1.3,2.2,1.3,3.8v1.7h-7v0.1c0.1,0.8,0.3,1.4,0.8,1.9s1.1,0.7,1.9,0.7c0.7,0,1.3-0.1,1.7-0.2
	c0.5-0.1,1-0.4,1.5-0.7l0.8,1.9c-0.5,0.4-1.1,0.7-1.9,1S298.2,307.3,297.3,307.3z M297,297.7c-0.6,0-1,0.2-1.4,0.7
	c-0.3,0.4-0.5,1-0.6,1.8v0.1h3.8V300c0-0.7-0.2-1.2-0.5-1.6C298.1,297.9,297.6,297.7,297,297.7z"/>
<path class="st1" d="M308.8,304.9c0.6,0,1-0.2,1.3-0.5s0.5-0.8,0.5-1.3h2.8v0.1c0,1.2-0.4,2.2-1.3,2.9c-0.9,0.8-2,1.2-3.4,1.2
	c-1.7,0-3.1-0.5-4-1.6s-1.4-2.5-1.4-4.2v-0.3c0-1.7,0.5-3.1,1.4-4.2c1-1.1,2.3-1.7,4.1-1.7c0.9,0,1.8,0.1,2.5,0.4s1.4,0.7,1.9,1.2
	v3.1h-2.5l-0.5-1.8c-0.2-0.1-0.4-0.2-0.6-0.3c-0.2-0.1-0.5-0.1-0.8-0.1c-0.9,0-1.5,0.3-1.9,1s-0.5,1.5-0.5,2.5v0.3
	c0,1,0.2,1.9,0.5,2.5C307.4,304.6,308,304.9,308.8,304.9z"/>
<path class="st1" d="M319.5,292.6v2.8h2v2.2h-2v5.9c0,0.5,0.1,0.8,0.3,1s0.4,0.3,0.8,0.3c0.2,0,0.4,0,0.6,0s0.3,0,0.5-0.1l0.3,2.3
	c-0.4,0.1-0.7,0.2-1,0.2c-0.3,0.1-0.7,0.1-1.1,0.1c-1.1,0-1.9-0.3-2.5-0.9s-0.9-1.5-0.9-2.8v-5.9h-1.7v-2.2h1.7v-2.8h3V292.6z"/>
<path class="st1" d="M332.3,299.5h-2.1l-0.3-1.5c-0.2-0.2-0.5-0.3-0.8-0.4s-0.7-0.2-1.1-0.2c-0.6,0-1,0.1-1.3,0.4
	c-0.3,0.2-0.5,0.6-0.5,0.9c0,0.4,0.2,0.6,0.5,0.9c0.3,0.2,0.9,0.4,1.8,0.6c1.4,0.3,2.5,0.7,3.2,1.3c0.7,0.6,1,1.3,1,2.3
	s-0.4,1.9-1.3,2.6s-2.1,1-3.6,1c-0.9,0-1.7-0.1-2.5-0.4c-0.7-0.3-1.4-0.6-2-1.1v-2.6h2.2l0.4,1.5c0.2,0.2,0.4,0.3,0.8,0.3
	c0.3,0.1,0.7,0.1,1,0.1c0.6,0,1.1-0.1,1.5-0.3s0.5-0.5,0.5-0.9c0-0.3-0.2-0.6-0.5-0.9s-1-0.5-1.9-0.7c-1.4-0.3-2.4-0.7-3.1-1.2
	s-1-1.3-1-2.2c0-1,0.4-1.8,1.2-2.5c0.8-0.7,1.9-1.1,3.4-1.1c0.9,0,1.8,0.1,2.6,0.4s1.4,0.6,1.9,0.9L332.3,299.5z"/>
<path class="st1" d="M346.9,307.1c-0.1-0.2-0.2-0.4-0.2-0.6c-0.1-0.2-0.1-0.4-0.2-0.6c-0.4,0.4-0.8,0.8-1.4,1
	c-0.5,0.3-1.1,0.4-1.8,0.4c-1.1,0-2-0.3-2.7-0.9s-1-1.5-1-2.5c0-1.1,0.4-1.9,1.3-2.5s2.2-0.9,3.8-0.9h1.6v-1.1c0-0.6-0.2-1-0.5-1.3
	s-0.8-0.5-1.4-0.5c-0.4,0-0.7,0-1,0.1s-0.5,0.2-0.7,0.3l-0.2,1.2h-2.4v-2.6c0.6-0.4,1.2-0.7,2-1s1.5-0.4,2.4-0.4
	c1.4,0,2.6,0.4,3.5,1.1s1.3,1.7,1.3,3v4.8c0,0.2,0,0.3,0,0.5s0,0.3,0,0.5l1,0.1v1.9H346.9z M344.2,305c0.5,0,0.9-0.1,1.3-0.3
	c0.4-0.2,0.7-0.5,0.9-0.8v-1.8h-1.6c-0.7,0-1.2,0.2-1.5,0.5s-0.5,0.7-0.5,1.1s0.1,0.7,0.4,0.9C343.4,304.9,343.7,305,344.2,305z"/>
<path class="st1" d="M351.6,305.2l1.5-0.3v-7.2l-1.7-0.3v-1.9h4.6l0.1,1.7c0.4-0.6,0.9-1.1,1.4-1.4c0.6-0.3,1.2-0.5,1.9-0.5
	c1.2,0,2.1,0.4,2.8,1.1c0.7,0.7,1,1.9,1,3.5v5.1l1.5,0.3v1.9h-6v-1.9l1.3-0.3v-5c0-0.8-0.2-1.3-0.5-1.7c-0.3-0.3-0.8-0.5-1.4-0.5
	c-0.4,0-0.8,0.1-1.1,0.3c-0.3,0.2-0.6,0.4-0.8,0.7v6.2l1.3,0.3v1.9h-5.9L351.6,305.2L351.6,305.2z"/>
<path class="st1" d="M373,305.7c-0.4,0.5-0.8,0.9-1.3,1.2s-1.1,0.4-1.7,0.4c-1.4,0-2.5-0.5-3.3-1.6c-0.8-1-1.2-2.4-1.2-4.1v-0.2
	c0-1.8,0.4-3.3,1.2-4.4s1.9-1.7,3.4-1.7c0.6,0,1.1,0.1,1.6,0.4s0.9,0.6,1.2,1.1v-4.2l-1.7-0.3v-1.9h1.7h3.1V305l1.5,0.3v1.9h-4.2
	L373,305.7z M368.6,301.6c0,1,0.2,1.8,0.5,2.4s0.9,0.9,1.7,0.9c0.5,0,0.9-0.1,1.2-0.3c0.3-0.2,0.6-0.5,0.8-0.8v-4.9
	c-0.2-0.4-0.5-0.7-0.8-0.9c-0.3-0.2-0.7-0.3-1.2-0.3c-0.8,0-1.3,0.3-1.7,1s-0.5,1.6-0.5,2.7V301.6z"/>
<path class="st1" d="M383.9,301.2c0-1.7,0.5-3.2,1.5-4.3c1-1.1,2.3-1.7,4-1.7s3.1,0.6,4,1.7s1.5,2.5,1.5,4.3v0.2
	c0,1.7-0.5,3.2-1.5,4.3c-1,1.1-2.3,1.6-4,1.6s-3.1-0.5-4-1.6c-1-1.1-1.5-2.5-1.5-4.3V301.2z M387,301.4c0,1.1,0.2,1.9,0.6,2.6
	c0.4,0.6,1,1,1.8,1s1.4-0.3,1.8-1c0.4-0.6,0.6-1.5,0.6-2.5v-0.2c0-1-0.2-1.9-0.6-2.5s-1-1-1.8-1s-1.4,0.3-1.8,1s-0.6,1.5-0.6,2.5
	V301.4z"/>
<path class="st1" d="M400.5,292.6v2.8h2v2.2h-2v5.9c0,0.5,0.1,0.8,0.3,1c0.2,0.2,0.4,0.3,0.8,0.3c0.2,0,0.4,0,0.6,0s0.3,0,0.5-0.1
	l0.3,2.3c-0.4,0.1-0.7,0.2-1,0.2c-0.3,0.1-0.7,0.1-1.1,0.1c-1.1,0-1.9-0.3-2.5-0.9s-0.9-1.5-0.9-2.8v-5.9h-1.7v-2.2h1.7v-2.8h3
	V292.6z"/>
<path class="st1" d="M404.1,305.2l1.5-0.3v-12.3l-1.7-0.3v-1.9h4.8v6.6c0.4-0.5,0.8-1,1.3-1.3s1.1-0.4,1.8-0.4
	c1.2,0,2.2,0.4,2.9,1.2c0.7,0.8,1,2,1,3.7v4.7l1.5,0.3v1.9h-6v-1.9l1.4-0.3v-4.7c0-0.9-0.2-1.5-0.5-1.9s-0.8-0.6-1.4-0.6
	c-0.4,0-0.8,0.1-1.1,0.2s-0.6,0.4-0.8,0.7v6.3l1.4,0.3v1.9h-6L404.1,305.2L404.1,305.2z"/>
<path class="st1" d="M423.4,307.3c-1.7,0-3-0.5-4-1.6s-1.5-2.4-1.5-4.1v-0.4c0-1.7,0.5-3.1,1.4-4.3c0.9-1.1,2.2-1.7,3.8-1.7
	c1.6,0,2.8,0.5,3.7,1.4c0.9,0.9,1.3,2.2,1.3,3.8v1.7h-6.9v0.1c0.1,0.8,0.3,1.4,0.8,1.9s1.1,0.7,1.9,0.7c0.7,0,1.3-0.1,1.7-0.2
	c0.5-0.1,1-0.4,1.5-0.7l0.8,1.9c-0.5,0.4-1.1,0.7-1.9,1S424.4,307.3,423.4,307.3z M423.2,297.7c-0.6,0-1,0.2-1.4,0.7
	c-0.3,0.4-0.5,1-0.6,1.8v0.1h3.8V300c0-0.7-0.2-1.2-0.5-1.6C424.3,297.9,423.8,297.7,423.2,297.7z"/>
<path class="st1" d="M429.4,305.2l1.5-0.3v-7.2l-1.7-0.3v-1.9h4.6l0.1,1.7c0.3-0.6,0.6-1.1,1.1-1.4s0.9-0.5,1.5-0.5
	c0.2,0,0.3,0,0.5,0s0.3,0.1,0.5,0.1l-0.3,2.9h-1.3c-0.5,0-0.8,0.1-1.1,0.3s-0.5,0.4-0.7,0.8v5.7l1.5,0.3v1.9h-6.1v-2.1H429.4z"/>
<path class="st1" d="M128.9,331.6l1.5-0.3v-7.2l-1.7-0.3v-1.9h4.6l0.1,1.7c0.4-0.6,0.9-1.1,1.4-1.4c0.6-0.3,1.2-0.5,1.9-0.5
	c1.2,0,2.1,0.4,2.8,1.1s1,1.9,1,3.5v5.1l1.5,0.3v1.9h-6v-1.9l1.3-0.3v-5c0-0.8-0.2-1.3-0.5-1.7c-0.3-0.3-0.8-0.5-1.4-0.5
	c-0.4,0-0.8,0.1-1.1,0.3c-0.3,0.2-0.6,0.4-0.8,0.7v6.2l1.3,0.3v1.9h-5.9L128.9,331.6L128.9,331.6z"/>
<path class="st1" d="M142.7,327.6c0-1.7,0.5-3.2,1.5-4.3c1-1.1,2.3-1.7,4-1.7s3.1,0.6,4,1.7c1,1.1,1.5,2.5,1.5,4.3v0.2
	c0,1.7-0.5,3.2-1.5,4.3c-1,1.1-2.3,1.6-4,1.6s-3.1-0.5-4-1.6c-1-1.1-1.5-2.5-1.5-4.3V327.6z M145.8,327.8c0,1.1,0.2,1.9,0.6,2.6
	c0.4,0.6,1,1,1.8,1s1.4-0.3,1.8-1s0.6-1.5,0.6-2.5v-0.2c0-1-0.2-1.9-0.6-2.5c-0.4-0.7-1-1-1.8-1s-1.4,0.3-1.8,1
	c-0.4,0.7-0.6,1.5-0.6,2.5V327.8z"/>
<path class="st1" d="M154.5,331.6l1.5-0.3v-7.2l-1.7-0.3v-1.9h4.6l0.1,1.7c0.4-0.6,0.9-1.1,1.4-1.4c0.6-0.3,1.2-0.5,1.9-0.5
	c1.2,0,2.1,0.4,2.8,1.1s1,1.9,1,3.5v5.1l1.5,0.3v1.9h-6v-1.9l1.3-0.3v-5c0-0.8-0.2-1.3-0.5-1.7c-0.3-0.3-0.8-0.5-1.4-0.5
	c-0.4,0-0.8,0.1-1.1,0.3c-0.3,0.2-0.6,0.4-0.8,0.7v6.2l1.3,0.3v1.9h-5.9L154.5,331.6L154.5,331.6z"/>
<path class="st1" d="M174.8,328h-6.1v-2.4h6.1V328z"/>
<path class="st1" d="M176,331.6l1.5-0.3v-7.2l-1.7-0.3v-1.9h4.6l0.1,1.7c0.3-0.6,0.6-1.1,1.1-1.4c0.4-0.3,0.9-0.5,1.5-0.5
	c0.2,0,0.3,0,0.5,0s0.3,0.1,0.5,0.1l-0.3,2.9h-1.3c-0.5,0-0.8,0.1-1.1,0.3c-0.3,0.2-0.5,0.4-0.7,0.8v5.7l1.5,0.3v1.9H176V331.6z"/>
<path class="st1" d="M190.3,333.7c-1.7,0-3-0.5-4-1.6s-1.5-2.4-1.5-4.1v-0.4c0-1.7,0.5-3.1,1.4-4.3s2.2-1.7,3.8-1.7s2.8,0.5,3.7,1.4
	s1.3,2.2,1.3,3.8v1.7h-7v0.1c0.1,0.8,0.3,1.4,0.8,1.9s1.1,0.7,1.9,0.7c0.7,0,1.3-0.1,1.7-0.2c0.5-0.1,1-0.4,1.5-0.7l0.8,1.9
	c-0.5,0.4-1.1,0.7-1.9,1S191.2,333.7,190.3,333.7z M190,324.1c-0.6,0-1,0.2-1.4,0.7c-0.3,0.4-0.5,1-0.6,1.8v0.1h3.8v-0.3
	c0-0.7-0.2-1.2-0.5-1.6C191.1,324.3,190.7,324.1,190,324.1z"/>
<path class="st1" d="M195.9,323.7v-1.9h4.6l0.2,1.4c0.3-0.5,0.8-0.9,1.2-1.2c0.5-0.3,1-0.4,1.7-0.4c1.4,0,2.6,0.6,3.4,1.7
	c0.8,1.1,1.2,2.6,1.2,4.4v0.2c0,1.7-0.4,3.1-1.2,4.1s-1.9,1.6-3.3,1.6c-0.6,0-1.1-0.1-1.6-0.3c-0.5-0.2-0.9-0.6-1.2-1v3.4l1.5,0.3
	v1.9h-6.2V336l1.5-0.3V324L195.9,323.7z M204.9,327.8c0-1.1-0.2-2-0.5-2.7c-0.4-0.7-0.9-1-1.7-1c-0.5,0-0.9,0.1-1.2,0.3
	s-0.6,0.5-0.8,0.8v5.1c0.2,0.3,0.5,0.6,0.8,0.8s0.7,0.3,1.2,0.3c0.8,0,1.3-0.3,1.7-0.9s0.5-1.4,0.5-2.4V327.8z"/>
<path class="st1" d="M209.3,331.6l1.5-0.3v-7.2l-1.7-0.3v-1.9h4.6l0.1,1.7c0.3-0.6,0.6-1.1,1.1-1.4c0.4-0.3,0.9-0.5,1.5-0.5
	c0.2,0,0.3,0,0.5,0s0.3,0.1,0.5,0.1l-0.3,2.9h-1.3c-0.5,0-0.8,0.1-1.1,0.3c-0.3,0.2-0.5,0.4-0.7,0.8v5.7l1.5,0.3v1.9h-6.1v-2.1
	H209.3z"/>
<path class="st1" d="M218.1,327.6c0-1.7,0.5-3.2,1.5-4.3c1-1.1,2.3-1.7,4-1.7s3.1,0.6,4,1.7c1,1.1,1.5,2.5,1.5,4.3v0.2
	c0,1.7-0.5,3.2-1.5,4.3c-1,1.1-2.3,1.6-4,1.6s-3.1-0.5-4-1.6c-1-1.1-1.5-2.5-1.5-4.3V327.6z M221.2,327.8c0,1.1,0.2,1.9,0.6,2.6
	c0.4,0.6,1,1,1.8,1s1.4-0.3,1.8-1s0.6-1.5,0.6-2.5v-0.2c0-1-0.2-1.9-0.6-2.5c-0.4-0.7-1-1-1.8-1s-1.4,0.3-1.8,1
	c-0.4,0.7-0.6,1.5-0.6,2.5V327.8z"/>
<path class="st1" d="M237.9,332.1c-0.4,0.5-0.8,0.9-1.3,1.2c-0.5,0.3-1.1,0.4-1.7,0.4c-1.4,0-2.5-0.5-3.3-1.6
	c-0.8-1-1.2-2.4-1.2-4.1v-0.2c0-1.8,0.4-3.3,1.2-4.4s1.9-1.7,3.4-1.7c0.6,0,1.1,0.1,1.6,0.4s0.9,0.6,1.2,1.1V319l-1.7-0.3v-1.9h1.7
	h3.1v14.6l1.5,0.3v1.9h-4.2L237.9,332.1z M233.5,328c0,1,0.2,1.8,0.5,2.4s0.9,0.9,1.7,0.9c0.5,0,0.9-0.1,1.2-0.3
	c0.3-0.2,0.6-0.5,0.8-0.8v-4.9c-0.2-0.4-0.5-0.7-0.8-0.9c-0.3-0.2-0.7-0.3-1.2-0.3c-0.8,0-1.3,0.3-1.7,1s-0.5,1.6-0.5,2.7V328z"/>
<path class="st1" d="M251.1,332c-0.4,0.5-0.8,1-1.4,1.3c-0.5,0.3-1.2,0.4-1.9,0.4c-1.2,0-2.2-0.4-2.9-1.2c-0.7-0.8-1-2-1-3.7V324
	l-1.3-0.3v-1.9h1.3h3.1v7c0,0.8,0.1,1.5,0.4,1.8c0.3,0.4,0.7,0.6,1.3,0.6c0.5,0,0.9-0.1,1.3-0.2c0.4-0.2,0.7-0.4,0.9-0.7V324
	l-1.4-0.3v-1.9h1.4h3.1v9.4l1.4,0.3v1.9h-4.2L251.1,332z"/>
<path class="st1" d="M261.7,331.3c0.6,0,1-0.2,1.3-0.5s0.5-0.8,0.5-1.3h2.8v0.1c0,1.2-0.4,2.2-1.3,2.9c-0.9,0.8-2,1.2-3.4,1.2
	c-1.7,0-3.1-0.5-4-1.6s-1.4-2.5-1.4-4.2v-0.3c0-1.7,0.5-3.1,1.4-4.2c1-1.1,2.3-1.7,4.1-1.7c0.9,0,1.8,0.1,2.5,0.4s1.4,0.7,1.9,1.2
	v3.1h-2.5l-0.5-1.8c-0.2-0.1-0.4-0.2-0.6-0.3c-0.2-0.1-0.5-0.1-0.8-0.1c-0.9,0-1.5,0.3-1.9,1s-0.5,1.5-0.5,2.5v0.3
	c0,1,0.2,1.9,0.5,2.5C260.3,331,260.9,331.3,261.7,331.3z"/>
<path class="st1" d="M272.4,319v2.8h2v2.2h-2v5.9c0,0.5,0.1,0.8,0.3,1c0.2,0.2,0.4,0.3,0.8,0.3c0.2,0,0.4,0,0.6,0s0.3,0,0.5-0.1
	l0.3,2.3c-0.4,0.1-0.7,0.2-1,0.2c-0.3,0.1-0.7,0.1-1.1,0.1c-1.1,0-1.9-0.3-2.5-0.9s-0.9-1.5-0.9-2.8v-5.9h-1.7v-2.2h1.7V319H272.4z"
	/>
<path class="st1" d="M276,331.6l1.5-0.3v-7.2l-1.7-0.3v-1.9h4.8v9.4l1.5,0.3v1.9H276V331.6z M280.6,319.1h-3.1v-2.4h3.1V319.1z"/>
<path class="st1" d="M287.6,323.7l-1.1,0.2l1.5,5.2l0.2,1.1h0.1l0.2-1.1l1.5-5.2l-1.1-0.2v-1.9h5.3v1.9l-1,0.2l-3.4,9.6h-3l-3.4-9.6
	l-1-0.2v-1.9h5.3v1.9H287.6z"/>
<path class="st1" d="M300.4,333.7c-1.7,0-3-0.5-4-1.6s-1.5-2.4-1.5-4.1v-0.4c0-1.7,0.5-3.1,1.4-4.3c0.9-1.1,2.2-1.7,3.8-1.7
	c1.6,0,2.8,0.5,3.7,1.4c0.9,0.9,1.3,2.2,1.3,3.8v1.7h-6.9v0.1c0.1,0.8,0.3,1.4,0.8,1.9s1.1,0.7,1.9,0.7c0.7,0,1.3-0.1,1.7-0.2
	c0.5-0.1,1-0.4,1.5-0.7l0.8,1.9c-0.5,0.4-1.1,0.7-1.9,1S301.3,333.7,300.4,333.7z M300.1,324.1c-0.6,0-1,0.2-1.4,0.7
	c-0.3,0.4-0.5,1-0.6,1.8v0.1h3.8v-0.3c0-0.7-0.2-1.2-0.5-1.6C301.2,324.3,300.8,324.1,300.1,324.1z"/>
<path class="st1" d="M311.8,331.6l1.5-0.3V319l-1.7-0.3v-1.9h4.8v6.6c0.4-0.5,0.8-1,1.3-1.3s1.1-0.4,1.8-0.4c1.2,0,2.2,0.4,2.9,1.2
	c0.7,0.8,1,2,1,3.7v4.7l1.5,0.3v1.9h-6v-1.9l1.4-0.3v-4.7c0-0.9-0.2-1.5-0.5-1.9s-0.8-0.6-1.4-0.6c-0.4,0-0.8,0.1-1.1,0.2
	c-0.3,0.2-0.6,0.4-0.8,0.7v6.3l1.4,0.3v1.9h-6L311.8,331.6L311.8,331.6z"/>
<path class="st1" d="M331.2,333.7c-1.7,0-3-0.5-4-1.6s-1.5-2.4-1.5-4.1v-0.4c0-1.7,0.5-3.1,1.4-4.3s2.2-1.7,3.8-1.7
	c1.6,0,2.8,0.5,3.7,1.4s1.3,2.2,1.3,3.8v1.7H329v0.1c0.1,0.8,0.3,1.4,0.8,1.9s1.1,0.7,1.9,0.7c0.7,0,1.3-0.1,1.7-0.2
	c0.5-0.1,1-0.4,1.5-0.7l0.8,1.9c-0.5,0.4-1.1,0.7-1.9,1C332.9,333.6,332.1,333.7,331.2,333.7z M330.9,324.1c-0.6,0-1,0.2-1.4,0.7
	c-0.3,0.4-0.5,1-0.6,1.8v0.1h3.8v-0.3c0-0.7-0.2-1.2-0.5-1.6C332,324.3,331.5,324.1,330.9,324.1z"/>
<path class="st1" d="M344.5,333.5c-0.1-0.2-0.2-0.4-0.2-0.6c-0.1-0.2-0.1-0.4-0.2-0.6c-0.4,0.4-0.8,0.8-1.4,1
	c-0.5,0.3-1.1,0.4-1.8,0.4c-1.1,0-2-0.3-2.7-0.9s-1-1.5-1-2.5c0-1.1,0.4-1.9,1.3-2.5s2.2-0.9,3.8-0.9h1.6v-1.1c0-0.6-0.2-1-0.5-1.3
	s-0.8-0.5-1.4-0.5c-0.4,0-0.7,0-1,0.1s-0.5,0.2-0.7,0.3l-0.2,1.2h-2.4V323c0.6-0.4,1.2-0.7,2-1c0.7-0.3,1.5-0.4,2.4-0.4
	c1.4,0,2.6,0.4,3.5,1.1s1.3,1.7,1.3,3v4.8c0,0.2,0,0.3,0,0.5s0,0.3,0,0.5l1,0.1v1.9H344.5z M341.8,331.4c0.5,0,0.9-0.1,1.3-0.3
	c0.4-0.2,0.7-0.5,0.9-0.8v-1.8h-1.6c-0.7,0-1.2,0.2-1.5,0.5s-0.5,0.7-0.5,1.1s0.1,0.7,0.4,0.9C341,331.3,341.3,331.4,341.8,331.4z"
	/>
<path class="st1" d="M349,318.6v-1.9h4.8v14.6l1.5,0.3v1.9h-6.2v-1.9l1.5-0.3V319L349,318.6z"/>
<path class="st1" d="M360.4,319v2.8h2v2.2h-2v5.9c0,0.5,0.1,0.8,0.3,1s0.4,0.3,0.8,0.3c0.2,0,0.4,0,0.6,0s0.3,0,0.5-0.1l0.3,2.3
	c-0.4,0.1-0.7,0.2-1,0.2c-0.3,0.1-0.7,0.1-1.1,0.1c-1.1,0-1.9-0.3-2.5-0.9s-0.9-1.5-0.9-2.8v-5.9h-1.7v-2.2h1.7V319H360.4z"/>
<path class="st1" d="M364,331.6l1.5-0.3V319l-1.7-0.3v-1.9h4.8v6.6c0.4-0.5,0.8-1,1.3-1.3s1.1-0.4,1.8-0.4c1.2,0,2.2,0.4,2.9,1.2
	c0.7,0.8,1,2,1,3.7v4.7l1.5,0.3v1.9h-6v-1.9l1.4-0.3v-4.7c0-0.9-0.2-1.5-0.5-1.9s-0.8-0.6-1.4-0.6c-0.4,0-0.8,0.1-1.1,0.2
	c-0.3,0.2-0.6,0.4-0.8,0.7v6.3l1.4,0.3v1.9h-6L364,331.6L364,331.6z"/>
<path class="st1" d="M394.8,328c0,1.7-0.4,3.1-1.2,4.2c-0.8,1-1.9,1.6-3.4,1.6c-0.7,0-1.3-0.1-1.8-0.4s-0.9-0.7-1.3-1.2l-0.2,1.4
	h-2.7v-14.5l-1.7-0.3v-1.9h4.8v6.4c0.3-0.5,0.7-0.8,1.2-1.1c0.5-0.2,1-0.4,1.6-0.4c1.5,0,2.6,0.6,3.4,1.7s1.2,2.6,1.2,4.5v0H394.8z
	 M391.6,327.8c0-1.1-0.2-2-0.5-2.7s-0.9-1-1.7-1c-0.5,0-0.9,0.1-1.2,0.3c-0.3,0.2-0.6,0.5-0.8,0.9v4.9c0.2,0.4,0.5,0.6,0.8,0.8
	c0.3,0.2,0.8,0.3,1.3,0.3c0.8,0,1.4-0.3,1.7-0.9c0.3-0.6,0.5-1.4,0.5-2.4L391.6,327.8L391.6,327.8z"/>
<path class="st1" d="M401.7,333.7c-1.7,0-3-0.5-4-1.6s-1.5-2.4-1.5-4.1v-0.4c0-1.7,0.5-3.1,1.4-4.3c0.9-1.1,2.2-1.7,3.8-1.7
	c1.6,0,2.8,0.5,3.7,1.4c0.9,0.9,1.3,2.2,1.3,3.8v1.7h-6.9v0.1c0.1,0.8,0.3,1.4,0.8,1.9s1.1,0.7,1.9,0.7c0.7,0,1.3-0.1,1.7-0.2
	c0.5-0.1,1-0.4,1.5-0.7l0.8,1.9c-0.5,0.4-1.1,0.7-1.9,1S402.6,333.7,401.7,333.7z M401.4,324.1c-0.6,0-1,0.2-1.4,0.7
	c-0.3,0.4-0.5,1-0.6,1.8v0.1h3.8v-0.3c0-0.7-0.2-1.2-0.5-1.6C402.5,324.3,402,324.1,401.4,324.1z"/>
<path class="st1" d="M407.5,331.6l1.5-0.3v-7.2l-1.7-0.3v-1.9h4.6l0.1,1.7c0.4-0.6,0.9-1.1,1.4-1.4c0.6-0.3,1.2-0.5,1.9-0.5
	c1.2,0,2.1,0.4,2.8,1.1c0.7,0.7,1,1.9,1,3.5v5.1l1.5,0.3v1.9h-6v-1.9l1.3-0.3v-5c0-0.8-0.2-1.3-0.5-1.7c-0.3-0.3-0.8-0.5-1.4-0.5
	c-0.4,0-0.8,0.1-1.1,0.3c-0.3,0.2-0.6,0.4-0.8,0.7v6.2l1.3,0.3v1.9h-5.9L407.5,331.6L407.5,331.6z"/>
<path class="st1" d="M426.9,333.7c-1.7,0-3-0.5-4-1.6s-1.5-2.4-1.5-4.1v-0.4c0-1.7,0.5-3.1,1.4-4.3s2.2-1.7,3.8-1.7
	c1.6,0,2.8,0.5,3.7,1.4c0.9,0.9,1.3,2.2,1.3,3.8v1.7h-6.9v0.1c0.1,0.8,0.3,1.4,0.8,1.9s1.1,0.7,1.9,0.7c0.7,0,1.3-0.1,1.7-0.2
	c0.5-0.1,1-0.4,1.5-0.7l0.8,1.9c-0.5,0.4-1.1,0.7-1.9,1S427.8,333.7,426.9,333.7z M426.6,324.1c-0.6,0-1,0.2-1.4,0.7
	c-0.3,0.4-0.5,1-0.6,1.8v0.1h3.8v-0.3c0-0.7-0.2-1.2-0.5-1.6C427.7,324.3,427.2,324.1,426.6,324.1z"/>
<path class="st1" d="M432.6,324.1v-2.2h1.7v-0.8c0-1.5,0.4-2.6,1.3-3.4s2.1-1.2,3.8-1.2c0.6,0,1.1,0.1,1.7,0.2
	c0.5,0.1,1.2,0.3,1.9,0.5l-0.5,2.5c-0.5-0.2-1-0.3-1.4-0.4s-0.9-0.1-1.5-0.1c-0.7,0-1.3,0.2-1.6,0.5c-0.4,0.3-0.5,0.8-0.5,1.5v0.8h7
	v9.4l1.7,0.3v1.9h-6.3v-1.9l1.5-0.3v-7.2h-3.9v7.2l1.5,0.3v1.9h-6.3v-1.9l1.7-0.3v-7.2L432.6,324.1L432.6,324.1z"/>
<path class="st1" d="M451.2,319v2.8h2v2.2h-2v5.9c0,0.5,0.1,0.8,0.3,1c0.2,0.2,0.4,0.3,0.8,0.3c0.2,0,0.4,0,0.6,0s0.3,0,0.5-0.1
	l0.3,2.3c-0.4,0.1-0.7,0.2-1,0.2c-0.3,0.1-0.7,0.1-1.1,0.1c-1.1,0-1.9-0.3-2.5-0.9s-0.9-1.5-0.9-2.8v-5.9h-1.7v-2.2h1.7V319H451.2z"
	/>
<path class="st1" d="M464,325.9h-2.1l-0.3-1.5c-0.2-0.2-0.5-0.3-0.8-0.4s-0.7-0.2-1.1-0.2c-0.6,0-1,0.1-1.3,0.4
	c-0.3,0.2-0.5,0.6-0.5,0.9s0.2,0.6,0.5,0.9s0.9,0.4,1.8,0.6c1.4,0.3,2.5,0.7,3.2,1.3c0.7,0.6,1,1.3,1,2.3s-0.4,1.9-1.3,2.6
	s-2.1,1-3.6,1c-0.9,0-1.7-0.1-2.5-0.4c-0.7-0.3-1.4-0.6-2-1.1v-2.6h2.2l0.4,1.5c0.2,0.2,0.4,0.3,0.8,0.3c0.3,0.1,0.7,0.1,1,0.1
	c0.6,0,1.1-0.1,1.5-0.3c0.3-0.2,0.5-0.5,0.5-0.9c0-0.3-0.2-0.6-0.5-0.9c-0.3-0.2-1-0.5-1.9-0.7c-1.4-0.3-2.4-0.7-3.1-1.2
	s-1-1.3-1-2.2c0-1,0.4-1.8,1.2-2.5c0.8-0.7,1.9-1.1,3.4-1.1c0.9,0,1.8,0.1,2.6,0.4c0.8,0.2,1.4,0.6,1.9,0.9L464,325.9z"/>
<path class="st1" d="M469.5,333.5h-3.1v-2.8h3.1V333.5z"/>
<path class="st1" d="M162.7,370.6v4.2h-2.4l-0.1-1.8h-2.9v11l1.7,0.3v1.9h-6.5v-1.9l1.7-0.3v-11h-2.9l-0.1,1.8h-2.4v-4.2H162.7z"/>
<path class="st1" d="M163.9,384.4l1.5-0.3v-12.3l-1.7-0.3v-1.9h4.8v6.6c0.4-0.5,0.8-1,1.3-1.3s1.1-0.4,1.8-0.4
	c1.2,0,2.2,0.4,2.9,1.2c0.7,0.8,1,2,1,3.7v4.7l1.5,0.3v1.9h-6v-1.9l1.4-0.3v-4.7c0-0.9-0.2-1.5-0.5-1.9s-0.8-0.6-1.4-0.6
	c-0.4,0-0.8,0.1-1.1,0.2c-0.3,0.2-0.6,0.4-0.8,0.7v6.3l1.4,0.3v1.9h-6L163.9,384.4L163.9,384.4z"/>
<path class="st1" d="M183.3,386.5c-1.7,0-3-0.5-4-1.6s-1.5-2.4-1.5-4.1v-0.4c0-1.7,0.5-3.1,1.4-4.3s2.2-1.7,3.8-1.7s2.8,0.5,3.7,1.4
	s1.3,2.2,1.3,3.8v1.7h-7v0.1c0.1,0.8,0.3,1.4,0.8,1.9s1.1,0.7,1.9,0.7c0.7,0,1.3-0.1,1.7-0.2c0.5-0.1,1-0.4,1.5-0.7l0.8,1.9
	c-0.5,0.4-1.1,0.7-1.9,1S184.2,386.5,183.3,386.5z M183,376.9c-0.6,0-1,0.2-1.4,0.7c-0.3,0.4-0.5,1-0.6,1.8v0.1h3.8v-0.3
	c0-0.7-0.2-1.2-0.5-1.6C184.1,377.1,183.6,376.9,183,376.9z"/>
<path class="st1" d="M194.6,376.5v-1.9h4.6l0.2,1.4c0.3-0.5,0.8-0.9,1.2-1.2c0.5-0.3,1-0.4,1.7-0.4c1.4,0,2.6,0.6,3.4,1.7
	s1.2,2.6,1.2,4.4v0.2c0,1.7-0.4,3.1-1.2,4.1s-1.9,1.6-3.3,1.6c-0.6,0-1.1-0.1-1.6-0.3c-0.5-0.2-0.9-0.6-1.2-1v3.4l1.5,0.3v1.9h-6.2
	v-1.9l1.5-0.3v-11.7L194.6,376.5z M203.6,380.6c0-1.1-0.2-2-0.5-2.7s-0.9-1-1.7-1c-0.5,0-0.9,0.1-1.2,0.3s-0.6,0.5-0.8,0.8v5.1
	c0.2,0.3,0.5,0.6,0.8,0.8s0.7,0.3,1.2,0.3c0.8,0,1.3-0.3,1.7-0.9s0.5-1.4,0.5-2.4V380.6z"/>
<path class="st1" d="M207.8,384.4l1.5-0.3v-7.2l-1.7-0.3v-1.9h4.8v9.4l1.5,0.3v1.9h-6.2L207.8,384.4L207.8,384.4z M212.5,371.9h-3.1
	v-2.4h3.1V371.9z"/>
<path class="st1" d="M214.9,371.4v-1.9h4.8v14.6l1.5,0.3v1.9H215v-1.9l1.5-0.3v-12.3L214.9,371.4z"/>
<path class="st1" d="M222.1,371.4v-1.9h4.8v14.6l1.5,0.3v1.9h-6.2v-1.9l1.5-0.3v-12.3L222.1,371.4z"/>
<path class="st1" d="M234.7,384.4l1.5-0.3v-7.2l-1.7-0.3v-1.9h4.8v9.4l1.5,0.3v1.9h-6.2L234.7,384.4L234.7,384.4z M239.4,371.9h-3.1
	v-2.4h3.1V371.9z"/>
<path class="st1" d="M251.2,378.7h-2.1l-0.3-1.5c-0.2-0.2-0.5-0.3-0.8-0.4s-0.7-0.2-1.1-0.2c-0.6,0-1,0.1-1.3,0.4
	c-0.3,0.2-0.5,0.6-0.5,0.9c0,0.4,0.2,0.6,0.5,0.9c0.3,0.2,0.9,0.4,1.8,0.6c1.4,0.3,2.5,0.7,3.2,1.3c0.7,0.6,1,1.3,1,2.3
	s-0.4,1.9-1.3,2.6c-0.9,0.7-2.1,1-3.6,1c-0.9,0-1.7-0.1-2.5-0.4c-0.7-0.3-1.4-0.6-2-1.1v-2.6h2.2l0.4,1.5c0.2,0.2,0.4,0.3,0.8,0.3
	c0.3,0.1,0.7,0.1,1,0.1c0.6,0,1.1-0.1,1.5-0.3s0.5-0.5,0.5-0.9c0-0.3-0.2-0.6-0.5-0.9s-1-0.5-1.9-0.7c-1.4-0.3-2.4-0.7-3.1-1.2
	c-0.7-0.5-1-1.3-1-2.2c0-1,0.4-1.8,1.2-2.5s1.9-1.1,3.4-1.1c0.9,0,1.8,0.1,2.6,0.4s1.4,0.6,1.9,0.9L251.2,378.7z"/>
<path class="st1" d="M263.2,384.1c0.8,0,1.5-0.3,2-1c0.5-0.6,0.8-1.6,0.8-2.9V380c-0.4,0.5-0.8,0.8-1.3,1s-1,0.3-1.6,0.3
	c-1.5,0-2.6-0.5-3.4-1.4c-0.8-1-1.2-2.3-1.2-4c0-1.6,0.5-2.9,1.5-4s2.2-1.6,3.8-1.6c1.6,0,2.9,0.5,3.9,1.6s1.5,2.6,1.5,4.6v3.4
	c0,2-0.6,3.6-1.7,4.7s-2.5,1.7-4.3,1.7c-0.5,0-1.1-0.1-1.7-0.2s-1.1-0.3-1.6-0.5l0.4-2.3c0.5,0.2,0.9,0.3,1.4,0.4
	C262.1,384.1,262.6,384.1,263.2,384.1z M263.7,379.1c0.5,0,1-0.1,1.4-0.3c0.4-0.2,0.7-0.5,0.9-0.8v-1.7c0-1.1-0.2-2-0.6-2.6
	s-0.9-0.9-1.6-0.9c-0.6,0-1.1,0.3-1.5,0.9s-0.6,1.4-0.6,2.2c0,0.9,0.2,1.7,0.5,2.3S263,379.1,263.7,379.1z"/>
<path class="st1" d="M270.3,384.4l2.6-0.3v-10.6h-2.7v-1.8l5.8-1.1V384l2.6,0.3v1.9h-8.4v-1.8H270.3z"/>
<path class="st1" d="M278.6,373.6c0-0.9,0.3-1.7,0.9-2.3c0.6-0.6,1.4-0.9,2.5-0.9s1.9,0.3,2.5,0.9s0.9,1.4,0.9,2.3v0.8
	c0,0.9-0.3,1.7-0.9,2.3c-0.6,0.6-1.4,0.9-2.5,0.9s-1.9-0.3-2.5-0.9s-0.9-1.4-0.9-2.3V373.6z M280.7,374.5c0,0.4,0.1,0.8,0.3,1
	c0.2,0.3,0.6,0.4,1,0.4s0.7-0.1,1-0.4c0.2-0.3,0.3-0.6,0.3-1v-0.8c0-0.4-0.1-0.8-0.3-1.1c-0.2-0.3-0.6-0.4-1-0.4s-0.7,0.1-1,0.4
	c-0.2,0.3-0.3,0.6-0.3,1.1V374.5z M283,385.1l-1.5-0.8l7.6-12.2l1.5,0.8L283,385.1z M286.1,382.4c0-0.9,0.3-1.7,0.9-2.3
	s1.4-0.9,2.5-0.9s1.9,0.3,2.5,0.9s0.9,1.4,0.9,2.3v0.8c0,0.9-0.3,1.7-0.9,2.3c-0.6,0.6-1.4,0.9-2.5,0.9s-1.9-0.3-2.5-0.9
	s-0.9-1.4-0.9-2.3V382.4z M288.2,383.3c0,0.4,0.1,0.8,0.4,1c0.2,0.3,0.6,0.4,1,0.4c0.5,0,0.8-0.1,1-0.4s0.3-0.6,0.3-1.1v-0.8
	c0-0.4-0.1-0.8-0.3-1c-0.2-0.3-0.6-0.4-1-0.4s-0.8,0.1-1,0.4s-0.3,0.6-0.3,1v0.9H288.2z"/>
<path class="st1" d="M305.1,386.5c-1.7,0-3-0.5-4-1.6s-1.5-2.4-1.5-4.1v-0.4c0-1.7,0.5-3.1,1.4-4.3c0.9-1.1,2.2-1.7,3.8-1.7
	c1.6,0,2.8,0.5,3.7,1.4c0.9,0.9,1.3,2.2,1.3,3.8v1.7h-6.9v0.1c0.1,0.8,0.3,1.4,0.8,1.9s1.1,0.7,1.9,0.7c0.7,0,1.3-0.1,1.7-0.2
	c0.5-0.1,1-0.4,1.5-0.7l0.8,1.9c-0.5,0.4-1.1,0.7-1.9,1S306,386.5,305.1,386.5z M304.8,376.9c-0.6,0-1,0.2-1.4,0.7
	c-0.3,0.4-0.5,1-0.6,1.8v0.1h3.8v-0.3c0-0.7-0.2-1.2-0.5-1.6C305.9,377.1,305.5,376.9,304.8,376.9z"/>
<path class="st1" d="M311.1,384.4l1.5-0.3v-7.2h-1.7v-2.2h1.7v-1.3c0-1.3,0.4-2.3,1.1-3c0.8-0.7,1.8-1.1,3.2-1.1
	c0.3,0,0.5,0,0.8,0.1c0.3,0,0.6,0.1,0.9,0.2l-0.3,2.3c-0.2,0-0.3-0.1-0.5-0.1s-0.3,0-0.6,0c-0.5,0-0.9,0.1-1.2,0.4
	c-0.3,0.3-0.4,0.7-0.4,1.2v1.3h2.3v2.2h-2.3v7.2l1.5,0.3v1.9h-6.2v-1.9H311.1z"/>
<path class="st1" d="M319.4,384.4l1.5-0.3v-7.2h-1.7v-2.2h1.7v-1.3c0-1.3,0.4-2.3,1.1-3c0.8-0.7,1.8-1.1,3.2-1.1
	c0.3,0,0.5,0,0.8,0.1c0.3,0,0.6,0.1,0.9,0.2l-0.3,2.3c-0.2,0-0.3-0.1-0.5-0.1s-0.3,0-0.6,0c-0.5,0-0.9,0.1-1.2,0.4
	c-0.3,0.3-0.4,0.7-0.4,1.2v1.3h2.3v2.2h-2.3v7.2l1.5,0.3v1.9h-6.2v-1.9H319.4z"/>
<path class="st1" d="M332.7,386.5c-1.7,0-3-0.5-4-1.6s-1.5-2.4-1.5-4.1v-0.4c0-1.7,0.5-3.1,1.4-4.3c0.9-1.1,2.2-1.7,3.8-1.7
	c1.6,0,2.8,0.5,3.7,1.4s1.3,2.2,1.3,3.8v1.7h-6.9v0.1c0.1,0.8,0.3,1.4,0.8,1.9s1.1,0.7,1.9,0.7c0.7,0,1.3-0.1,1.7-0.2
	c0.5-0.1,1-0.4,1.5-0.7l0.8,1.9c-0.5,0.4-1.1,0.7-1.9,1S333.6,386.5,332.7,386.5z M332.4,376.9c-0.6,0-1,0.2-1.4,0.7s-0.5,1-0.6,1.8
	v0.1h3.8v-0.3c0-0.7-0.2-1.2-0.5-1.6C333.5,377.1,333.1,376.9,332.4,376.9z"/>
<path class="st1" d="M344.2,384.1c0.6,0,1-0.2,1.3-0.5s0.5-0.8,0.5-1.3h2.8v0.1c0,1.2-0.4,2.2-1.3,2.9c-0.9,0.8-2,1.2-3.4,1.2
	c-1.7,0-3.1-0.5-4-1.6s-1.4-2.5-1.4-4.2v-0.3c0-1.7,0.5-3.1,1.4-4.2c1-1.1,2.3-1.7,4.1-1.7c0.9,0,1.8,0.1,2.5,0.4s1.4,0.7,1.9,1.2
	v3.1h-2.5l-0.5-1.8c-0.2-0.1-0.4-0.2-0.6-0.3c-0.2-0.1-0.5-0.1-0.8-0.1c-0.9,0-1.5,0.3-1.9,1s-0.5,1.5-0.5,2.5v0.3
	c0,1,0.2,1.9,0.5,2.5C342.8,383.8,343.4,384.1,344.2,384.1z"/>
<path class="st1" d="M354.9,371.8v2.8h2v2.2h-2v5.9c0,0.5,0.1,0.8,0.3,1c0.2,0.2,0.4,0.3,0.8,0.3c0.2,0,0.4,0,0.6,0s0.3,0,0.5-0.1
	l0.3,2.3c-0.4,0.1-0.7,0.2-1,0.2c-0.3,0.1-0.7,0.1-1.1,0.1c-1.1,0-1.9-0.3-2.5-0.9s-0.9-1.5-0.9-2.8v-5.9h-1.7v-2.2h1.7v-2.8h3
	V371.8z"/>
<path class="st1" d="M358.5,384.4l1.5-0.3v-7.2l-1.7-0.3v-1.9h4.8v9.4l1.5,0.3v1.9h-6.2v-1.9H358.5z M363.1,371.9H360v-2.4h3.1
	V371.9z"/>
<path class="st1" d="M370.1,376.5l-1.1,0.2l1.5,5.2l0.2,1.1h0.1l0.2-1.1l1.5-5.2l-1.1-0.2v-1.9h5.3v1.9l-1,0.2l-3.4,9.6h-3l-3.4-9.6
	l-1-0.2v-1.9h5.3v1.9H370.1z"/>
<path class="st1" d="M382.9,386.5c-1.7,0-3-0.5-4-1.6s-1.5-2.4-1.5-4.1v-0.4c0-1.7,0.5-3.1,1.4-4.3s2.2-1.7,3.8-1.7
	c1.6,0,2.8,0.5,3.7,1.4s1.3,2.2,1.3,3.8v1.7h-6.9v0.1c0.1,0.8,0.3,1.4,0.8,1.9s1.1,0.7,1.9,0.7c0.7,0,1.3-0.1,1.7-0.2
	c0.5-0.1,1-0.4,1.5-0.7l0.8,1.9c-0.5,0.4-1.1,0.7-1.9,1C384.7,386.4,383.8,386.5,382.9,386.5z M382.6,376.9c-0.6,0-1,0.2-1.4,0.7
	s-0.5,1-0.6,1.8v0.1h3.8v-0.3c0-0.7-0.2-1.2-0.5-1.6C383.7,377.1,383.3,376.9,382.6,376.9z"/>
<path class="st1" d="M394.4,384.4l1.5-0.3v-7.2l-1.7-0.3v-1.9h4.8v9.4l1.5,0.3v1.9h-6.2v-1.9H394.4z M399,371.9h-3.1v-2.4h3.1V371.9
	z"/>
<path class="st1" d="M401.6,384.4l1.5-0.3v-7.2l-1.7-0.3v-1.9h4.6l0.1,1.7c0.4-0.6,0.9-1.1,1.4-1.4c0.6-0.3,1.2-0.5,1.9-0.5
	c1.2,0,2.1,0.4,2.8,1.1c0.7,0.7,1,1.9,1,3.5v5.1l1.5,0.3v1.9h-6v-1.9l1.3-0.3v-5c0-0.8-0.2-1.3-0.5-1.7c-0.3-0.3-0.8-0.5-1.4-0.5
	c-0.4,0-0.8,0.1-1.1,0.3c-0.3,0.2-0.6,0.4-0.8,0.7v6.2l1.3,0.3v1.9h-5.9L401.6,384.4L401.6,384.4z"/>
<path class="st1" d="M128.8,402.9V401h4.6l0.2,1.4c0.3-0.5,0.8-0.9,1.2-1.2c0.5-0.3,1-0.4,1.7-0.4c1.4,0,2.6,0.6,3.4,1.7
	s1.2,2.6,1.2,4.4v0.2c0,1.7-0.4,3.1-1.2,4.1s-1.9,1.6-3.3,1.6c-0.6,0-1.1-0.1-1.6-0.3c-0.5-0.2-0.9-0.6-1.2-1v3.4l1.5,0.3v1.9H129
	v-1.9l1.5-0.3v-11.7L128.8,402.9z M137.8,407c0-1.1-0.2-2-0.5-2.7s-0.9-1-1.7-1c-0.5,0-0.9,0.1-1.2,0.3s-0.6,0.5-0.8,0.8v5.1
	c0.2,0.3,0.5,0.6,0.8,0.8s0.7,0.3,1.2,0.3c0.8,0,1.3-0.3,1.7-0.9s0.5-1.4,0.5-2.4V407z"/>
<path class="st1" d="M142.2,410.8l1.5-0.3v-7.2L142,403v-1.9h4.6l0.1,1.7c0.3-0.6,0.6-1.1,1.1-1.4s0.9-0.5,1.5-0.5
	c0.2,0,0.3,0,0.5,0s0.3,0.1,0.5,0.1l-0.3,2.9h-1.3c-0.5,0-0.8,0.1-1.1,0.3s-0.5,0.4-0.7,0.8v5.7l1.5,0.3v1.9h-6.1v-2.1H142.2z"/>
<path class="st1" d="M156.4,412.9c-1.7,0-3-0.5-4-1.6s-1.5-2.4-1.5-4.1v-0.4c0-1.7,0.5-3.1,1.4-4.3c0.9-1.1,2.2-1.7,3.8-1.7
	s2.8,0.5,3.7,1.4s1.3,2.2,1.3,3.8v1.7h-6.9v0.1c0.1,0.8,0.3,1.4,0.8,1.9s1.1,0.7,1.9,0.7c0.7,0,1.3-0.1,1.7-0.2
	c0.5-0.1,1-0.4,1.5-0.7l0.8,1.9c-0.5,0.4-1.1,0.7-1.9,1S157.3,412.9,156.4,412.9z M156.1,403.3c-0.6,0-1,0.2-1.4,0.7s-0.5,1-0.6,1.8
	v0.1h3.8v-0.3c0-0.7-0.2-1.2-0.5-1.6C157.2,403.5,156.7,403.3,156.1,403.3z"/>
<path class="st1" d="M167.3,402.9l-1.1,0.2l1.5,5.2l0.2,1.1h0.1l0.2-1.1l1.5-5.2l-1.1-0.2V401h5.3v1.9l-1,0.2l-3.4,9.6h-3l-3.4-9.6
	l-1-0.2V401h5.3v1.9H167.3z"/>
<path class="st1" d="M180.1,412.9c-1.7,0-3-0.5-4-1.6s-1.5-2.4-1.5-4.1v-0.4c0-1.7,0.5-3.1,1.4-4.3c0.9-1.1,2.2-1.7,3.8-1.7
	s2.8,0.5,3.7,1.4s1.3,2.2,1.3,3.8v1.7h-6.9v0.1c0.1,0.8,0.3,1.4,0.8,1.9s1.1,0.7,1.9,0.7c0.7,0,1.3-0.1,1.7-0.2
	c0.5-0.1,1-0.4,1.5-0.7l0.8,1.9c-0.5,0.4-1.1,0.7-1.9,1S181.1,412.9,180.1,412.9z M179.8,403.3c-0.6,0-1,0.2-1.4,0.7
	c-0.3,0.4-0.5,1-0.6,1.8v0.1h3.8v-0.3c0-0.7-0.2-1.2-0.5-1.6C180.9,403.5,180.5,403.3,179.8,403.3z"/>
<path class="st1" d="M185.9,410.8l1.5-0.3v-7.2l-1.7-0.3v-1.9h4.6l0.1,1.7c0.4-0.6,0.9-1.1,1.4-1.4c0.6-0.3,1.2-0.5,1.9-0.5
	c1.2,0,2.1,0.4,2.8,1.1s1,1.9,1,3.5v5.1l1.5,0.3v1.9h-6v-1.9l1.3-0.3v-5c0-0.8-0.2-1.3-0.5-1.7c-0.3-0.3-0.8-0.5-1.4-0.5
	c-0.4,0-0.8,0.1-1.1,0.3c-0.3,0.2-0.6,0.4-0.8,0.7v6.2l1.3,0.3v1.9h-5.9L185.9,410.8L185.9,410.8z"/>
<path class="st1" d="M204.1,398.2v2.8h2v2.2h-2v5.9c0,0.5,0.1,0.8,0.3,1s0.4,0.3,0.8,0.3c0.2,0,0.4,0,0.6,0c0.2,0,0.3,0,0.5-0.1
	l0.3,2.3c-0.4,0.1-0.7,0.2-1,0.2c-0.3,0.1-0.7,0.1-1.1,0.1c-1.1,0-1.9-0.3-2.5-0.9s-0.9-1.5-0.9-2.8v-5.9h-1.7v-2.2h1.7v-2.8h3
	V398.2z"/>
<path class="st1" d="M207.6,410.8l1.5-0.3v-7.2l-1.7-0.3v-1.9h4.8v9.4l1.5,0.3v1.9h-6.2L207.6,410.8L207.6,410.8z M212.3,398.3h-3.1
	v-2.4h3.1V398.3z"/>
<path class="st1" d="M214.8,410.8l1.5-0.3v-7.2l-1.7-0.3v-1.9h4.6l0.1,1.7c0.4-0.6,0.9-1.1,1.4-1.4c0.6-0.3,1.2-0.5,1.9-0.5
	c1.2,0,2.1,0.4,2.8,1.1s1,1.9,1,3.5v5.1l1.5,0.3v1.9h-6v-1.9l1.3-0.3v-5c0-0.8-0.2-1.3-0.5-1.7c-0.3-0.3-0.8-0.5-1.4-0.5
	c-0.4,0-0.8,0.1-1.1,0.3c-0.3,0.2-0.6,0.4-0.8,0.7v6.2l1.3,0.3v1.9h-5.9L214.8,410.8L214.8,410.8z"/>
<path class="st1" d="M228.9,407c0-1.8,0.4-3.3,1.2-4.4s1.9-1.7,3.4-1.7c0.7,0,1.2,0.1,1.7,0.4s0.9,0.7,1.3,1.2l0.2-1.5h2.7v11.3
	c0,1.5-0.5,2.8-1.4,3.7c-1,0.9-2.3,1.4-4,1.4c-0.6,0-1.2-0.1-1.9-0.2c-0.7-0.2-1.3-0.4-1.8-0.7l0.6-2.2c0.5,0.2,1,0.4,1.5,0.5
	s1,0.2,1.6,0.2c0.8,0,1.3-0.2,1.7-0.7s0.6-1.1,0.6-1.9v-0.8c-0.3,0.4-0.7,0.8-1.2,1s-1,0.3-1.6,0.3c-1.4,0-2.5-0.5-3.3-1.6
	c-0.8-1-1.2-2.4-1.2-4.1V407H228.9z M232,407.2c0,1,0.2,1.8,0.5,2.4s0.9,0.9,1.7,0.9c0.5,0,0.9-0.1,1.2-0.3c0.3-0.2,0.6-0.4,0.8-0.8
	v-5c-0.2-0.4-0.5-0.6-0.8-0.8s-0.7-0.3-1.2-0.3c-0.8,0-1.3,0.3-1.7,1s-0.5,1.6-0.5,2.7V407.2z"/>
<path class="st1" d="M246.4,402.9V401h4.6l0.2,1.4c0.3-0.5,0.8-0.9,1.2-1.2c0.5-0.3,1-0.4,1.7-0.4c1.4,0,2.6,0.6,3.4,1.7
	s1.2,2.6,1.2,4.4v0.2c0,1.7-0.4,3.1-1.2,4.1s-1.9,1.6-3.3,1.6c-0.6,0-1.1-0.1-1.6-0.3c-0.5-0.2-0.9-0.6-1.2-1v3.4l1.5,0.3v1.9h-6.2
	v-1.9l1.5-0.3v-11.7L246.4,402.9z M255.4,407c0-1.1-0.2-2-0.5-2.7s-0.9-1-1.7-1c-0.5,0-0.9,0.1-1.2,0.3s-0.6,0.5-0.8,0.8v5.1
	c0.2,0.3,0.5,0.6,0.8,0.8s0.7,0.3,1.2,0.3c0.8,0,1.3-0.3,1.7-0.9s0.5-1.4,0.5-2.4V407z"/>
<path class="st1" d="M259.8,410.8l1.5-0.3v-7.2l-1.7-0.3v-1.9h4.6l0.1,1.7c0.3-0.6,0.6-1.1,1.1-1.4s0.9-0.5,1.5-0.5
	c0.2,0,0.3,0,0.5,0s0.3,0.1,0.5,0.1l-0.3,2.9h-1.3c-0.5,0-0.8,0.1-1.1,0.3s-0.5,0.4-0.7,0.8v5.7l1.5,0.3v1.9h-6.1v-2.1H259.8z"/>
<path class="st1" d="M274.1,412.9c-1.7,0-3-0.5-4-1.6s-1.5-2.4-1.5-4.1v-0.4c0-1.7,0.5-3.1,1.4-4.3c0.9-1.1,2.2-1.7,3.8-1.7
	c1.6,0,2.8,0.5,3.7,1.4c0.9,0.9,1.3,2.2,1.3,3.8v1.7h-6.9v0.1c0.1,0.8,0.3,1.4,0.8,1.9s1.1,0.7,1.9,0.7c0.7,0,1.3-0.1,1.7-0.2
	c0.5-0.1,1-0.4,1.5-0.7l0.8,1.9c-0.5,0.4-1.1,0.7-1.9,1S275,412.9,274.1,412.9z M273.8,403.3c-0.6,0-1,0.2-1.4,0.7
	c-0.3,0.4-0.5,1-0.6,1.8v0.1h3.8v-0.3c0-0.7-0.2-1.2-0.5-1.6C274.9,403.5,274.4,403.3,273.8,403.3z"/>
<path class="st1" d="M280.3,407c0-1.8,0.4-3.3,1.2-4.4c0.8-1.1,1.9-1.7,3.4-1.7c0.7,0,1.2,0.1,1.7,0.4s0.9,0.7,1.3,1.2l0.2-1.5h2.7
	v11.3c0,1.5-0.5,2.8-1.4,3.7c-1,0.9-2.3,1.4-4,1.4c-0.6,0-1.2-0.1-1.9-0.2c-0.7-0.2-1.3-0.4-1.8-0.7l0.6-2.2c0.5,0.2,1,0.4,1.5,0.5
	s1,0.2,1.6,0.2c0.8,0,1.3-0.2,1.7-0.7s0.6-1.1,0.6-1.9v-0.8c-0.3,0.4-0.7,0.8-1.2,1s-1,0.3-1.6,0.3c-1.4,0-2.5-0.5-3.3-1.6
	c-0.8-1-1.2-2.4-1.2-4.1V407H280.3z M283.4,407.2c0,1,0.2,1.8,0.5,2.4s0.9,0.9,1.7,0.9c0.5,0,0.9-0.1,1.2-0.3
	c0.3-0.2,0.6-0.4,0.8-0.8v-5c-0.2-0.4-0.5-0.6-0.8-0.8s-0.7-0.3-1.2-0.3c-0.8,0-1.3,0.3-1.7,1s-0.5,1.6-0.5,2.7V407.2z"/>
<path class="st1" d="M292.5,410.8l1.5-0.3v-7.2l-1.7-0.3v-1.9h4.6l0.1,1.7c0.4-0.6,0.9-1.1,1.4-1.4c0.6-0.3,1.2-0.5,1.9-0.5
	c1.2,0,2.1,0.4,2.8,1.1c0.7,0.7,1,1.9,1,3.5v5.1l1.5,0.3v1.9h-6v-1.9l1.3-0.3v-5c0-0.8-0.2-1.3-0.5-1.7c-0.3-0.3-0.8-0.5-1.4-0.5
	c-0.4,0-0.8,0.1-1.1,0.3c-0.3,0.2-0.6,0.4-0.8,0.7v6.2l1.3,0.3v1.9h-5.9L292.5,410.8L292.5,410.8z"/>
<path class="st1" d="M314.1,412.7c-0.1-0.2-0.2-0.4-0.2-0.6c-0.1-0.2-0.1-0.4-0.2-0.6c-0.4,0.4-0.8,0.8-1.4,1
	c-0.5,0.3-1.1,0.4-1.8,0.4c-1.1,0-2-0.3-2.7-0.9s-1-1.5-1-2.5c0-1.1,0.4-1.9,1.3-2.5s2.2-0.9,3.8-0.9h1.6V405c0-0.6-0.2-1-0.5-1.3
	s-0.8-0.5-1.4-0.5c-0.4,0-0.7,0-1,0.1s-0.5,0.2-0.7,0.3l-0.2,1.2h-2.4v-2.6c0.6-0.4,1.2-0.7,2-1s1.5-0.4,2.4-0.4
	c1.4,0,2.6,0.4,3.5,1.1s1.3,1.7,1.3,3v4.8c0,0.2,0,0.3,0,0.5s0,0.3,0,0.5l1,0.1v1.9H314.1z M311.3,410.6c0.5,0,0.9-0.1,1.3-0.3
	c0.4-0.2,0.7-0.5,0.9-0.8v-1.8h-1.6c-0.7,0-1.2,0.2-1.5,0.5s-0.5,0.7-0.5,1.1s0.1,0.7,0.4,0.9C310.5,410.5,310.9,410.6,311.3,410.6z
	"/>
<path class="st1" d="M318.7,410.8l1.5-0.3v-7.2l-1.7-0.3v-1.9h4.6l0.1,1.7c0.4-0.6,0.9-1.1,1.4-1.4c0.6-0.3,1.2-0.5,1.9-0.5
	c1.2,0,2.1,0.4,2.8,1.1c0.7,0.7,1,1.9,1,3.5v5.1l1.5,0.3v1.9h-6v-1.9l1.3-0.3v-5c0-0.8-0.2-1.3-0.5-1.7c-0.3-0.3-0.8-0.5-1.4-0.5
	c-0.4,0-0.8,0.1-1.1,0.3c-0.3,0.2-0.6,0.4-0.8,0.7v6.2l1.3,0.3v1.9h-5.9L318.7,410.8L318.7,410.8z"/>
<path class="st1" d="M338,410.5c0.6,0,1-0.2,1.3-0.5s0.5-0.8,0.5-1.3h2.8v0.1c0,1.2-0.4,2.2-1.3,2.9c-0.9,0.8-2,1.2-3.4,1.2
	c-1.7,0-3.1-0.5-4-1.6s-1.4-2.5-1.4-4.2v-0.3c0-1.7,0.5-3.1,1.4-4.2c1-1.1,2.3-1.7,4.1-1.7c0.9,0,1.8,0.1,2.5,0.4s1.4,0.7,1.9,1.2
	v3.1H340l-0.5-1.8c-0.2-0.1-0.4-0.2-0.6-0.3c-0.2-0.1-0.5-0.1-0.8-0.1c-0.9,0-1.5,0.3-1.9,1s-0.5,1.5-0.5,2.5v0.3
	c0,1,0.2,1.9,0.5,2.5C336.6,410.2,337.2,410.5,338,410.5z"/>
<path class="st1" d="M356.2,402.9l-1.1,0.2l-4.3,11.3c-0.3,0.8-0.8,1.5-1.3,2.1s-1.4,0.8-2.5,0.8c-0.3,0-0.5,0-0.7-0.1
	s-0.5-0.1-0.8-0.2l0.4-2.3c0.1,0,0.2,0,0.3,0s0.2,0,0.3,0c0.5,0,0.9-0.1,1.2-0.4c0.3-0.3,0.5-0.6,0.6-1l0.4-0.9l-3.7-9.6l-1.1-0.2
	v-1.9h5.7v1.9l-1.3,0.2l1.6,4.6l0.2,0.8h0.1l1.8-5.5l-1.3-0.2v-1.9h5.7v2.3H356.2z"/>
<path class="st1" d="M359,412.3c0,0.7-0.2,1.5-0.6,2.3s-0.9,1.5-1.5,2l-1.5-0.8c0.3-0.5,0.5-1,0.6-1.6c0.2-0.5,0.2-1.1,0.2-1.8v-2.3
	h2.8V412.3z"/>
<path class="st1" d="M377.4,407.2c0,1.7-0.4,3.1-1.2,4.2s-1.9,1.6-3.4,1.6c-0.7,0-1.3-0.1-1.8-0.4s-0.9-0.7-1.3-1.2l-0.2,1.4h-2.7
	v-14.5l-1.7-0.3v-1.9h4.8v6.4c0.3-0.5,0.7-0.8,1.2-1.1s1-0.4,1.6-0.4c1.5,0,2.6,0.6,3.4,1.7s1.2,2.6,1.2,4.5v0H377.4z M374.3,407
	c0-1.1-0.2-2-0.5-2.7s-0.9-1-1.7-1c-0.5,0-0.9,0.1-1.2,0.3c-0.3,0.2-0.6,0.5-0.8,0.9v4.9c0.2,0.4,0.5,0.6,0.8,0.8s0.8,0.3,1.3,0.3
	c0.8,0,1.4-0.3,1.7-0.9c0.3-0.6,0.5-1.4,0.5-2.4L374.3,407L374.3,407z"/>
<path class="st1" d="M386.7,411.2c-0.4,0.5-0.8,1-1.4,1.3c-0.5,0.3-1.2,0.4-1.9,0.4c-1.2,0-2.2-0.4-2.9-1.2c-0.7-0.8-1-2-1-3.7v-4.8
	l-1.3-0.3V401h1.3h3.1v7c0,0.8,0.1,1.5,0.4,1.8c0.3,0.4,0.7,0.6,1.3,0.6c0.5,0,0.9-0.1,1.3-0.2c0.4-0.2,0.7-0.4,0.9-0.7v-6.3
	l-1.4-0.3V401h1.4h3.1v9.4l1.4,0.3v1.9h-4.2L386.7,411.2z"/>
<path class="st1" d="M396.3,398.2v2.8h2v2.2h-2v5.9c0,0.5,0.1,0.8,0.3,1s0.4,0.3,0.8,0.3c0.2,0,0.4,0,0.6,0s0.3,0,0.5-0.1l0.3,2.3
	c-0.4,0.1-0.7,0.2-1,0.2c-0.3,0.1-0.7,0.1-1.1,0.1c-1.1,0-1.9-0.3-2.5-0.9s-0.9-1.5-0.9-2.8v-5.9h-1.7v-2.2h1.7v-2.8h3V398.2z"/>
<path class="st1" d="M412.9,411.3c-0.4,0.5-0.8,0.9-1.3,1.2c-0.5,0.3-1.1,0.4-1.7,0.4c-1.4,0-2.5-0.5-3.3-1.6
	c-0.8-1-1.2-2.4-1.2-4.1V407c0-1.8,0.4-3.3,1.2-4.4s1.9-1.7,3.4-1.7c0.6,0,1.1,0.1,1.6,0.4s0.9,0.6,1.2,1.1v-4.2l-1.7-0.3V396h1.7
	h3.1v14.6l1.5,0.3v1.9h-4.2L412.9,411.3z M408.5,407.2c0,1,0.2,1.8,0.5,2.4s0.9,0.9,1.7,0.9c0.5,0,0.9-0.1,1.2-0.3s0.6-0.5,0.8-0.8
	v-4.9c-0.2-0.4-0.5-0.7-0.8-0.9c-0.3-0.2-0.7-0.3-1.2-0.3c-0.8,0-1.3,0.3-1.7,1s-0.5,1.6-0.5,2.7V407.2z"/>
<path class="st1" d="M418,406.8c0-1.7,0.5-3.2,1.5-4.3c1-1.1,2.3-1.7,4-1.7s3.1,0.6,4,1.7c1,1.1,1.5,2.5,1.5,4.3v0.2
	c0,1.7-0.5,3.2-1.5,4.3c-1,1.1-2.3,1.6-4,1.6s-3.1-0.5-4-1.6c-1-1.1-1.5-2.5-1.5-4.3V406.8z M421.1,407c0,1.1,0.2,1.9,0.6,2.6
	c0.4,0.6,1,1,1.8,1s1.4-0.3,1.8-1c0.4-0.6,0.6-1.5,0.6-2.5v-0.2c0-1-0.2-1.9-0.6-2.5c-0.4-0.7-1-1-1.8-1s-1.4,0.3-1.8,1
	s-0.6,1.5-0.6,2.5V407z"/>
<path class="st1" d="M435.8,412.9c-1.7,0-3-0.5-4-1.6s-1.5-2.4-1.5-4.1v-0.4c0-1.7,0.5-3.1,1.4-4.3s2.2-1.7,3.8-1.7
	c1.6,0,2.8,0.5,3.7,1.4s1.3,2.2,1.3,3.8v1.7h-6.9v0.1c0.1,0.8,0.3,1.4,0.8,1.9s1.1,0.7,1.9,0.7c0.7,0,1.3-0.1,1.7-0.2
	c0.5-0.1,1-0.4,1.5-0.7l0.8,1.9c-0.5,0.4-1.1,0.7-1.9,1C437.6,412.8,436.8,412.9,435.8,412.9z M435.5,403.3c-0.6,0-1,0.2-1.4,0.7
	s-0.5,1-0.6,1.8v0.1h3.8v-0.3c0-0.7-0.2-1.2-0.5-1.6C436.6,403.5,436.2,403.3,435.5,403.3z"/>
<path class="st1" d="M451.2,405.1h-2.1l-0.3-1.5c-0.2-0.2-0.5-0.3-0.8-0.4s-0.7-0.2-1.1-0.2c-0.6,0-1,0.1-1.3,0.4
	c-0.3,0.2-0.5,0.6-0.5,0.9c0,0.4,0.2,0.6,0.5,0.9c0.3,0.2,0.9,0.4,1.8,0.6c1.4,0.3,2.5,0.7,3.2,1.3c0.7,0.6,1,1.3,1,2.3
	s-0.5,1.9-1.3,2.6c-0.9,0.7-2.1,1-3.5,1c-0.9,0-1.7-0.1-2.5-0.4c-0.7-0.3-1.4-0.6-2-1.1v-2.6h2.2l0.4,1.5c0.2,0.2,0.4,0.3,0.8,0.3
	c0.3,0.1,0.7,0.1,1,0.1c0.6,0,1.1-0.1,1.5-0.3c0.3-0.2,0.5-0.5,0.5-0.9c0-0.3-0.2-0.6-0.5-0.9s-1-0.5-1.9-0.7
	c-1.4-0.3-2.4-0.7-3.1-1.2s-1-1.3-1-2.2c0-1,0.4-1.8,1.2-2.5c0.8-0.7,1.9-1.1,3.4-1.1c0.9,0,1.8,0.1,2.6,0.4
	c0.8,0.2,1.4,0.6,1.9,0.9L451.2,405.1z"/>
<path class="st1" d="M452.8,410.8l1.5-0.3v-7.2l-1.7-0.3v-1.9h4.6l0.1,1.7c0.4-0.6,0.9-1.1,1.4-1.4s1.2-0.5,1.9-0.5
	c1.2,0,2.1,0.4,2.8,1.1s1,1.9,1,3.5v5.1l1.5,0.3v1.9h-6v-1.9l1.3-0.3v-5c0-0.8-0.2-1.3-0.5-1.7c-0.3-0.3-0.8-0.5-1.4-0.5
	c-0.4,0-0.8,0.1-1.1,0.3c-0.3,0.2-0.6,0.4-0.8,0.7v6.2l1.3,0.3v1.9h-5.9L452.8,410.8L452.8,410.8z"/>
<path class="st1" d="M469.2,398c0,0.7-0.2,1.5-0.6,2.3s-0.8,1.4-1.4,1.9l-1.5-0.8c0.3-0.5,0.5-1,0.6-1.5c0.2-0.5,0.2-1.1,0.2-1.8
	V396h2.6L469.2,398L469.2,398z"/>
<path class="st1" d="M475.1,398.2v2.8h2v2.2h-2v5.9c0,0.5,0.1,0.8,0.3,1s0.4,0.3,0.8,0.3c0.2,0,0.4,0,0.6,0s0.3,0,0.5-0.1l0.3,2.3
	c-0.4,0.1-0.7,0.2-1,0.2c-0.3,0.1-0.7,0.1-1.1,0.1c-1.1,0-1.9-0.3-2.5-0.9s-0.9-1.5-0.9-2.8v-5.9h-1.7v-2.2h1.7v-2.8h3V398.2z"/>
<path class="st1" d="M129,433.2c0-1.7,0.5-3.2,1.5-4.3c1-1.1,2.3-1.7,4-1.7s3.1,0.6,4,1.7c1,1.1,1.5,2.5,1.5,4.3v0.2
	c0,1.7-0.5,3.2-1.5,4.3c-1,1.1-2.3,1.6-4,1.6s-3.1-0.5-4-1.6c-1-1.1-1.5-2.5-1.5-4.3V433.2z M132.2,433.4c0,1.1,0.2,1.9,0.6,2.6
	c0.4,0.6,1,1,1.8,1s1.4-0.3,1.8-1s0.6-1.5,0.6-2.5v-0.2c0-1-0.2-1.9-0.6-2.5c-0.4-0.7-1-1-1.8-1s-1.4,0.3-1.8,1
	c-0.4,0.7-0.6,1.5-0.6,2.5V433.4z"/>
<path class="st1" d="M141.2,437.2l1.5-0.3v-7.2H141v-2.2h1.7v-1.3c0-1.3,0.4-2.3,1.1-3c0.8-0.7,1.8-1.1,3.2-1.1c0.3,0,0.5,0,0.8,0.1
	c0.3,0,0.6,0.1,0.9,0.2l-0.3,2.3c-0.2,0-0.3-0.1-0.5-0.1s-0.3,0-0.6,0c-0.5,0-0.9,0.1-1.2,0.4s-0.4,0.7-0.4,1.2v1.3h2.3v2.2h-2.3
	v7.2l1.5,0.3v1.9H141v-1.9H141.2z"/>
<path class="st1" d="M149.4,437.2l1.5-0.3v-7.2h-1.7v-2.2h1.7v-1.3c0-1.3,0.4-2.3,1.1-3c0.8-0.7,1.8-1.1,3.2-1.1
	c0.3,0,0.5,0,0.8,0.1c0.3,0,0.6,0.1,0.9,0.2l-0.3,2.3c-0.2,0-0.3-0.1-0.5-0.1s-0.3,0-0.6,0c-0.5,0-0.9,0.1-1.2,0.4s-0.4,0.7-0.4,1.2
	v1.3h2.3v2.2h-2.3v7.2l1.5,0.3v1.9h-6.2v-1.9H149.4z"/>
<path class="st1" d="M162.8,439.3c-1.7,0-3-0.5-4-1.6s-1.5-2.4-1.5-4.1v-0.4c0-1.7,0.5-3.1,1.4-4.3c0.9-1.1,2.2-1.7,3.8-1.7
	s2.8,0.5,3.7,1.4s1.3,2.2,1.3,3.8v1.7h-6.9v0.1c0.1,0.8,0.3,1.4,0.8,1.9s1.1,0.7,1.9,0.7c0.7,0,1.3-0.1,1.7-0.2
	c0.5-0.1,1-0.4,1.5-0.7l0.8,1.9c-0.5,0.4-1.1,0.7-1.9,1S163.7,439.3,162.8,439.3z M162.5,429.7c-0.6,0-1,0.2-1.4,0.7
	c-0.3,0.4-0.5,1-0.6,1.8v0.1h3.8V432c0-0.7-0.2-1.2-0.5-1.6C163.6,429.9,163.1,429.7,162.5,429.7z"/>
<path class="st1" d="M168.8,437.2l1.5-0.3v-7.2l-1.7-0.3v-1.9h4.6l0.1,1.7c0.3-0.6,0.6-1.1,1.1-1.4s0.9-0.5,1.5-0.5
	c0.2,0,0.3,0,0.5,0s0.3,0.1,0.5,0.1l-0.3,2.9h-1.3c-0.5,0-0.8,0.1-1.1,0.3s-0.5,0.4-0.7,0.8v5.7l1.5,0.3v1.9h-6.1v-2.1H168.8z"/>
<path class="st1" d="M183,429.3v-1.9h4.6l0.2,1.4c0.3-0.5,0.8-0.9,1.2-1.2s1-0.4,1.7-0.4c1.4,0,2.6,0.6,3.4,1.7s1.2,2.6,1.2,4.4v0.2
	c0,1.7-0.4,3.1-1.2,4.1s-1.9,1.6-3.3,1.6c-0.6,0-1.1-0.1-1.6-0.3c-0.5-0.2-0.9-0.6-1.2-1v3.4l1.5,0.3v1.9h-6.2v-1.9l1.5-0.3v-11.7
	L183,429.3z M192,433.4c0-1.1-0.2-2-0.5-2.7s-0.9-1-1.7-1c-0.5,0-0.9,0.1-1.2,0.3s-0.6,0.5-0.8,0.8v5.1c0.2,0.3,0.5,0.6,0.8,0.8
	s0.7,0.3,1.2,0.3c0.8,0,1.3-0.3,1.7-0.9s0.5-1.4,0.5-2.4V433.4z"/>
<path class="st1" d="M196.3,437.2l1.5-0.3v-7.2l-1.7-0.3v-1.9h4.6l0.1,1.7c0.3-0.6,0.6-1.1,1.1-1.4s0.9-0.5,1.5-0.5
	c0.2,0,0.3,0,0.5,0s0.3,0.1,0.5,0.1l-0.3,2.9h-1.3c-0.5,0-0.8,0.1-1.1,0.3s-0.5,0.4-0.7,0.8v5.7l1.5,0.3v1.9h-6.1v-2.1H196.3z"/>
<path class="st1" d="M205.1,433.2c0-1.7,0.5-3.2,1.5-4.3c1-1.1,2.3-1.7,4-1.7s3.1,0.6,4,1.7c1,1.1,1.5,2.5,1.5,4.3v0.2
	c0,1.7-0.5,3.2-1.5,4.3c-1,1.1-2.3,1.6-4,1.6s-3.1-0.5-4-1.6c-1-1.1-1.5-2.5-1.5-4.3V433.2z M208.2,433.4c0,1.1,0.2,1.9,0.6,2.6
	c0.4,0.6,1,1,1.8,1s1.4-0.3,1.8-1s0.6-1.5,0.6-2.5v-0.2c0-1-0.2-1.9-0.6-2.5s-1-1-1.8-1s-1.4,0.3-1.8,1s-0.6,1.5-0.6,2.5V433.4z"/>
<path class="st1" d="M221.8,424.6v2.8h2v2.2h-2v5.9c0,0.5,0.1,0.8,0.3,1s0.4,0.3,0.8,0.3c0.2,0,0.4,0,0.6,0c0.2,0,0.3,0,0.5-0.1
	l0.3,2.3c-0.4,0.1-0.7,0.2-1,0.2c-0.3,0.1-0.7,0.1-1.1,0.1c-1.1,0-1.9-0.3-2.5-0.9s-0.9-1.5-0.9-2.8v-5.9h-1.7v-2.2h1.7v-2.8h3
	V424.6z"/>
<path class="st1" d="M230.5,439.3c-1.7,0-3-0.5-4-1.6s-1.5-2.4-1.5-4.1v-0.4c0-1.7,0.5-3.1,1.4-4.3c0.9-1.1,2.2-1.7,3.8-1.7
	s2.8,0.5,3.7,1.4s1.3,2.2,1.3,3.8v1.7h-6.9v0.1c0.1,0.8,0.3,1.4,0.8,1.9s1.1,0.7,1.9,0.7c0.7,0,1.3-0.1,1.7-0.2
	c0.5-0.1,1-0.4,1.5-0.7l0.8,1.9c-0.5,0.4-1.1,0.7-1.9,1S231.4,439.3,230.5,439.3z M230.2,429.7c-0.6,0-1,0.2-1.4,0.7
	c-0.3,0.4-0.5,1-0.6,1.8v0.1h3.8V432c0-0.7-0.2-1.2-0.5-1.6C231.3,429.9,230.8,429.7,230.2,429.7z"/>
<path class="st1" d="M242,436.9c0.6,0,1-0.2,1.3-0.5s0.5-0.8,0.5-1.3h2.8v0.1c0,1.2-0.4,2.2-1.3,2.9c-0.9,0.8-2,1.2-3.4,1.2
	c-1.7,0-3.1-0.5-4-1.6s-1.4-2.5-1.4-4.2v-0.3c0-1.7,0.5-3.1,1.4-4.2c1-1.1,2.3-1.7,4.1-1.7c0.9,0,1.8,0.1,2.5,0.4s1.4,0.7,1.9,1.2
	v3.1H244l-0.5-1.8c-0.2-0.1-0.4-0.2-0.6-0.3c-0.2-0.1-0.5-0.1-0.8-0.1c-0.9,0-1.5,0.3-1.9,1s-0.5,1.5-0.5,2.5v0.3
	c0,1,0.2,1.9,0.5,2.5C240.5,436.6,241.1,436.9,242,436.9z"/>
<path class="st1" d="M252.7,424.6v2.8h2v2.2h-2v5.9c0,0.5,0.1,0.8,0.3,1s0.4,0.3,0.8,0.3c0.2,0,0.4,0,0.6,0c0.2,0,0.3,0,0.5-0.1
	l0.3,2.3c-0.4,0.1-0.7,0.2-1,0.2c-0.3,0.1-0.7,0.1-1.1,0.1c-1.1,0-1.9-0.3-2.5-0.9s-0.9-1.5-0.9-2.8v-5.9H248v-2.2h1.7v-2.8h3V424.6
	z"/>
<path class="st1" d="M256.2,437.2l1.5-0.3v-7.2l-1.7-0.3v-1.9h4.8v9.4l1.5,0.3v1.9h-6.2v-1.9H256.2z M260.9,424.7h-3.1v-2.4h3.1
	V424.7z"/>
<path class="st1" d="M263.1,433.2c0-1.7,0.5-3.2,1.5-4.3c1-1.1,2.3-1.7,4-1.7s3.1,0.6,4,1.7c1,1.1,1.5,2.5,1.5,4.3v0.2
	c0,1.7-0.5,3.2-1.5,4.3c-1,1.1-2.3,1.6-4,1.6s-3.1-0.5-4-1.6c-1-1.1-1.5-2.5-1.5-4.3V433.2z M266.2,433.4c0,1.1,0.2,1.9,0.6,2.6
	c0.4,0.6,1,1,1.8,1s1.4-0.3,1.8-1s0.6-1.5,0.6-2.5v-0.2c0-1-0.2-1.9-0.6-2.5c-0.4-0.7-1-1-1.8-1s-1.4,0.3-1.8,1s-0.6,1.5-0.6,2.5
	V433.4z"/>
<path class="st1" d="M274.9,437.2l1.5-0.3v-7.2l-1.7-0.3v-1.9h4.6l0.1,1.7c0.4-0.6,0.9-1.1,1.4-1.4c0.6-0.3,1.2-0.5,1.9-0.5
	c1.2,0,2.1,0.4,2.8,1.1c0.7,0.7,1,1.9,1,3.5v5.1l1.5,0.3v1.9h-6v-1.9l1.3-0.3v-5c0-0.8-0.2-1.3-0.5-1.7c-0.3-0.3-0.8-0.5-1.4-0.5
	c-0.4,0-0.8,0.1-1.1,0.3c-0.3,0.2-0.6,0.4-0.8,0.7v6.2l1.3,0.3v1.9h-5.9L274.9,437.2L274.9,437.2z"/>
<path class="st1" d="M294.6,437.2l1.5-0.3v-7.2h-1.7v-2.2h1.7v-1.3c0-1.3,0.4-2.3,1.1-3c0.8-0.7,1.8-1.1,3.2-1.1
	c0.3,0,0.5,0,0.8,0.1c0.3,0,0.6,0.1,0.9,0.2l-0.3,2.3c-0.2,0-0.3-0.1-0.5-0.1s-0.3,0-0.6,0c-0.5,0-0.9,0.1-1.2,0.4
	c-0.3,0.3-0.4,0.7-0.4,1.2v1.3h2.3v2.2h-2.3v7.2l1.5,0.3v1.9h-6.2v-1.9H294.6z"/>
<path class="st1" d="M302.9,437.2l1.5-0.3v-7.2l-1.7-0.3v-1.9h4.6l0.1,1.7c0.3-0.6,0.6-1.1,1.1-1.4s0.9-0.5,1.5-0.5
	c0.2,0,0.3,0,0.5,0s0.3,0.1,0.5,0.1l-0.3,2.9h-1.3c-0.5,0-0.8,0.1-1.1,0.3s-0.5,0.4-0.7,0.8v5.7l1.5,0.3v1.9H303v-2.1H302.9z"/>
<path class="st1" d="M311.7,433.2c0-1.7,0.5-3.2,1.5-4.3c1-1.1,2.3-1.7,4-1.7s3.1,0.6,4,1.7s1.5,2.5,1.5,4.3v0.2
	c0,1.7-0.5,3.2-1.5,4.3c-1,1.1-2.3,1.6-4,1.6s-3.1-0.5-4-1.6c-1-1.1-1.5-2.5-1.5-4.3V433.2z M314.8,433.4c0,1.1,0.2,1.9,0.6,2.6
	c0.4,0.6,1,1,1.8,1s1.4-0.3,1.8-1s0.6-1.5,0.6-2.5v-0.2c0-1-0.2-1.9-0.6-2.5c-0.4-0.7-1-1-1.8-1s-1.4,0.3-1.8,1s-0.6,1.5-0.6,2.5
	V433.4z"/>
<path class="st1" d="M323.4,429.3v-1.9h4.6l0.1,1.5c0.4-0.6,0.8-1,1.4-1.3s1.2-0.5,2-0.5c0.7,0,1.4,0.2,1.9,0.5s0.9,0.8,1.2,1.5
	c0.4-0.6,0.8-1.1,1.4-1.5s1.2-0.5,2-0.5c1.1,0,2,0.4,2.7,1.2c0.7,0.8,1,2,1,3.6v4.8l1.5,0.3v1.9h-6V437l1.4-0.3V432
	c0-0.9-0.1-1.5-0.4-1.8s-0.7-0.5-1.3-0.5c-0.4,0-0.8,0.1-1.2,0.3c-0.3,0.2-0.6,0.5-0.8,0.8c0,0.1,0,0.3,0,0.3c0,0.1,0,0.2,0,0.3v5.4
	l1.3,0.3v1.9h-5.7v-1.9l1.3-0.3V432c0-0.9-0.1-1.5-0.4-1.8c-0.3-0.4-0.7-0.5-1.3-0.5c-0.4,0-0.8,0.1-1.1,0.2
	c-0.3,0.2-0.6,0.4-0.8,0.7v6.3l1.4,0.3v1.9h-6v-1.9l1.5-0.3v-7.2L323.4,429.3z"/>
<path class="st1" d="M361.4,428.4H359l-0.4-2.1c-0.3-0.2-0.7-0.3-1.2-0.5c-0.5-0.1-1.1-0.2-1.7-0.2c-0.9,0-1.5,0.2-2,0.5
	c-0.5,0.4-0.7,0.8-0.7,1.4c0,0.5,0.2,1,0.7,1.3s1.3,0.7,2.5,1.1c1.7,0.5,3,1.1,3.9,1.9s1.3,1.8,1.3,3.1c0,1.3-0.5,2.4-1.6,3.2
	c-1.1,0.8-2.5,1.2-4.2,1.2c-1.2,0-2.4-0.2-3.4-0.6s-1.8-0.9-2.5-1.6v-3.3h2.4l0.3,2.2c0.3,0.3,0.7,0.5,1.3,0.6
	c0.5,0.2,1.1,0.3,1.8,0.3c0.9,0,1.5-0.2,2-0.5c0.4-0.4,0.7-0.8,0.7-1.4s-0.2-1.1-0.6-1.5s-1.2-0.7-2.2-1c-1.9-0.5-3.3-1.2-4.2-1.9
	c-1-0.7-1.4-1.7-1.4-3s0.5-2.3,1.6-3.1c1.1-0.8,2.4-1.2,4-1.2c1.2,0,2.3,0.2,3.3,0.5s1.8,0.9,2.5,1.5v3.1H361.4z"/>
<path class="st1" d="M376.6,423.4v4.2h-2.4l-0.1-1.8h-2.9v11l1.7,0.3v1.9h-6.5v-1.9l1.7-0.3v-11h-2.9l-0.1,1.8h-2.4v-4.2H376.6z"/>
<path class="st1" d="M384.8,423.4c1.9,0,3.5,0.6,4.7,1.8c1.2,1.2,1.9,2.8,1.9,4.7v2.6c0,1.9-0.6,3.5-1.9,4.7
	c-1.2,1.2-2.8,1.8-4.7,1.8h-7v-1.9l1.7-0.3v-11.2l-1.7-0.3v-1.9h1.7L384.8,423.4L384.8,423.4z M382.6,425.9v10.8h2.1
	c1.1,0,2-0.4,2.6-1.1c0.6-0.8,1-1.8,1-3V430c0-1.2-0.3-2.2-1-3c-0.6-0.8-1.5-1.1-2.6-1.1L382.6,425.9L382.6,425.9z"/>
<path class="st1" d="M402.3,431.5h-2.1l-0.3-1.5c-0.2-0.2-0.5-0.3-0.8-0.4s-0.7-0.2-1.1-0.2c-0.6,0-1,0.1-1.3,0.4
	c-0.3,0.2-0.5,0.6-0.5,0.9c0,0.4,0.2,0.6,0.5,0.9c0.3,0.2,0.9,0.4,1.8,0.6c1.4,0.3,2.5,0.7,3.2,1.3c0.7,0.6,1,1.3,1,2.3
	s-0.4,1.9-1.3,2.6s-2.1,1-3.6,1c-0.9,0-1.7-0.1-2.5-0.4c-0.7-0.3-1.4-0.6-2-1.1v-2.6h2.2l0.4,1.5c0.2,0.2,0.4,0.3,0.8,0.3
	c0.3,0.1,0.7,0.1,1,0.1c0.6,0,1.1-0.1,1.5-0.3c0.3-0.2,0.5-0.5,0.5-0.9c0-0.3-0.2-0.6-0.5-0.9s-1-0.5-1.9-0.7
	c-1.4-0.3-2.4-0.7-3.1-1.2s-1-1.3-1-2.2c0-1,0.4-1.8,1.2-2.5c0.8-0.7,1.9-1.1,3.4-1.1c0.9,0,1.8,0.1,2.6,0.4
	c0.8,0.2,1.4,0.6,1.9,0.9L402.3,431.5z"/>
<path class="st1" d="M407.9,439.1h-3.1v-2.8h3.1V439.1z"/>
</svg>
