<svg id="Layer_1" data-name="Layer 1" xmlns="http://www.w3.org/2000/svg" viewBox="0 0 611.8 611.8"><defs><style>.cls-1{fill:#f5faf8;stroke:#f4783b;stroke-linecap:round;stroke-linejoin:round;stroke-width:11.8px;}.cls-2{font-size:32px;fill:#f4783b;font-family:RobotoSlab-Bold, Roboto Slab;font-weight:700;}.cls-3{letter-spacing:0.01em;}.cls-4{letter-spacing:0.01em;}.cls-5{letter-spacing:0.01em;}.cls-6{letter-spacing:-0.01em;}.cls-7{font-size:22px;}.cls-8{letter-spacing:0em;}.cls-9{letter-spacing:0em;}.cls-10{letter-spacing:0.01em;}.cls-11{letter-spacing:0.01em;}.cls-12{letter-spacing:-0.01em;}.cls-13{letter-spacing:-0.01em;}.cls-14{letter-spacing:-0.03em;}.cls-15{letter-spacing:0em;}.cls-16{letter-spacing:-0.01em;}.cls-17{letter-spacing:-0.02em;}.cls-18{letter-spacing:-0.01em;}.cls-19{letter-spacing:0.01em;}.cls-20{letter-spacing:-0.01em;}.cls-21{letter-spacing:0em;}.cls-22{letter-spacing:-0.01em;}.cls-23{letter-spacing:-0.01em;}.cls-24{letter-spacing:0.01em;}.cls-25{letter-spacing:-0.02em;}.cls-26{letter-spacing:-0.01em;}.cls-27{letter-spacing:0.01em;}.cls-28{letter-spacing:-0.02em;}.cls-29{letter-spacing:-0.01em;}.cls-30{letter-spacing:-0.03em;}.cls-31{letter-spacing:0.01em;}.cls-32{letter-spacing:-0.02em;}.cls-33{letter-spacing:-0.02em;}.cls-34{letter-spacing:0.02em;}.cls-35{letter-spacing:-0.01em;}.cls-36{letter-spacing:-0.02em;}.cls-37{letter-spacing:-0.01em;}.cls-38{letter-spacing:0em;}.cls-39{letter-spacing:-0.02em;}.cls-40{letter-spacing:-0.02em;}.cls-41{letter-spacing:-0.02em;}.cls-42{letter-spacing:0em;}.cls-43{letter-spacing:0em;}.cls-44{letter-spacing:-0.08em;}.cls-45{letter-spacing:-0.02em;}.cls-46{letter-spacing:-0.02em;}.cls-47{letter-spacing:-0.03em;}.cls-48{letter-spacing:0em;}.cls-49{letter-spacing:-0.01em;}.cls-50{letter-spacing:-0.01em;}.cls-51{letter-spacing:-0.02em;}.cls-52{letter-spacing:0em;}.cls-53{letter-spacing:-0.02em;}.cls-54{letter-spacing:-0.01em;}.cls-55{letter-spacing:-0.02em;}.cls-56{letter-spacing:-0.01em;}.cls-57{letter-spacing:0.01em;}.cls-58{letter-spacing:-0.01em;}.cls-59{letter-spacing:0em;}.cls-60{letter-spacing:-0.01em;}.cls-61{letter-spacing:-0.01em;}.cls-62{letter-spacing:-0.02em;}.cls-63{letter-spacing:-0.02em;}.cls-64{letter-spacing:-0.01em;}.cls-65{letter-spacing:-0.03em;}.cls-66{letter-spacing:-0.04em;}.cls-67{letter-spacing:-0.02em;}.cls-68{letter-spacing:0em;}.cls-69{letter-spacing:-0.02em;}.cls-70{letter-spacing:-0.02em;}.cls-71{letter-spacing:0em;}.cls-72{letter-spacing:0em;}.cls-73{letter-spacing:-0.01em;}.cls-74{letter-spacing:-0.02em;}.cls-75{letter-spacing:0.01em;}.cls-76{letter-spacing:0em;}.cls-77{letter-spacing:-0.01em;}.cls-78{letter-spacing:-0.03em;}.cls-79{letter-spacing:-0.01em;}.cls-80{letter-spacing:0.01em;}.cls-81{letter-spacing:-0.01em;}.cls-82{letter-spacing:-0.02em;}.cls-83{letter-spacing:-0.05em;}.cls-84{letter-spacing:-0.01em;}.cls-85{letter-spacing:-0.01em;}.cls-86{letter-spacing:0em;}.cls-87{letter-spacing:-0.08em;}.cls-88{letter-spacing:-0.01em;}.cls-89{letter-spacing:-0.03em;}.cls-90{letter-spacing:0em;}.cls-91{letter-spacing:0em;}.cls-92{letter-spacing:-0.05em;}.cls-93{letter-spacing:-0.02em;}.cls-94{letter-spacing:0.01em;}.cls-95{letter-spacing:-0.01em;}.cls-96{letter-spacing:-0.01em;}.cls-97{letter-spacing:-0.02em;}.cls-98{letter-spacing:-0.02em;}.cls-99{letter-spacing:0em;}.cls-100{letter-spacing:-0.01em;}.cls-101{letter-spacing:0em;}.cls-102{letter-spacing:-0.01em;}</style></defs><title>std web mockupsasfd</title><rect class="cls-1" x="5.9" y="5.9" width="600" height="600" rx="300" ry="300"/><text class="cls-2" transform="translate(271.81 122.28)"><tspan class="cls-3">P</tspan><tspan class="cls-4" x="20.91" y="0">i</tspan><tspan class="cls-5" x="31.43" y="0">l</tspan><tspan class="cls-6" x="41.84" y="0">l</tspan><tspan x="51.71" y="0">s</tspan><tspan class="cls-7"><tspan class="cls-8" x="-123.45" y="52.8">B</tspan><tspan class="cls-9" x="-108.98" y="52.8">i</tspan><tspan class="cls-10" x="-101.91" y="52.8">r</tspan><tspan class="cls-11" x="-92.39" y="52.8">t</tspan><tspan x="-84.06" y="52.8">h </tspan><tspan class="cls-12" x="-64.68" y="52.8">c</tspan><tspan class="cls-13" x="-53.22" y="52.8">o</tspan><tspan class="cls-14" x="-41.18" y="52.8">n</tspan><tspan class="cls-15" x="-27.85" y="52.8">t</tspan><tspan class="cls-16" x="-19.74" y="52.8">r</tspan><tspan class="cls-17" x="-10.73" y="52.8">o</tspan><tspan x="1.18" y="52.8">l </tspan><tspan class="cls-18" x="13.59" y="52.8">p</tspan><tspan class="cls-19" x="26.67" y="52.8">il</tspan><tspan class="cls-20" x="41.17" y="52.8">l</tspan><tspan x="48.02" y="52.8">s </tspan><tspan class="cls-21" x="64.74" y="52.8">a</tspan><tspan class="cls-22" x="76.78" y="52.8">r</tspan><tspan x="85.76" y="52.8">e </tspan><tspan class="cls-23" x="102.88" y="52.8">t</tspan><tspan class="cls-24" x="110.91" y="52.8">a</tspan><tspan class="cls-25" x="123.17" y="52.8">k</tspan><tspan class="cls-26" x="136.19" y="52.8">e</tspan><tspan x="147.74" y="52.8">n </tspan><tspan x="-143.45" y="79.2">d</tspan><tspan class="cls-27" x="-130.43" y="79.2">a</tspan><tspan class="cls-19" x="-118.21" y="79.2">i</tspan><tspan class="cls-28" x="-110.93" y="79.2">l</tspan><tspan x="-104.37" y="79.2">y </tspan><tspan class="cls-24" x="-85.96" y="79.2">a</tspan><tspan class="cls-29" x="-73.7" y="79.2">n</tspan><tspan x="-59.96" y="79.2">d </tspan><tspan class="cls-12" x="-41.55" y="79.2">c</tspan><tspan class="cls-13" x="-30.09" y="79.2">o</tspan><tspan class="cls-30" x="-18.05" y="79.2">n</tspan><tspan class="cls-23" x="-4.72" y="79.2">t</tspan><tspan class="cls-27" x="3.32" y="79.2">a</tspan><tspan class="cls-31" x="15.53" y="79.2">i</tspan><tspan x="22.82" y="79.2">n </tspan><tspan class="cls-32" x="42.18" y="79.2">h</tspan><tspan class="cls-33" x="55.83" y="79.2">o</tspan><tspan class="cls-34" x="67.65" y="79.2">r</tspan><tspan class="cls-35" x="77.25" y="79.2">m</tspan><tspan class="cls-13" x="97.39" y="79.2">o</tspan><tspan class="cls-36" x="109.43" y="79.2">n</tspan><tspan class="cls-37" x="123.05" y="79.2">e</tspan><tspan x="134.51" y="79.2" xml:space="preserve">s     </tspan><tspan class="cls-11" x="-143.45" y="105.6">t</tspan><tspan class="cls-38" x="-135.12" y="105.6">h</tspan><tspan class="cls-39" x="-121.14" y="105.6">a</tspan><tspan x="-109.47" y="105.6">t </tspan><tspan class="cls-40" x="-95.87" y="105.6">p</tspan><tspan class="cls-22" x="-82.95" y="105.6">re</tspan><tspan class="cls-41" x="-62.52" y="105.6">v</tspan><tspan class="cls-20" x="-50.34" y="105.6">e</tspan><tspan class="cls-30" x="-38.79" y="105.6">n</tspan><tspan x="-25.46" y="105.6">t </tspan><tspan class="cls-40" x="-11.86" y="105.6">p</tspan><tspan class="cls-22" x="1.06" y="105.6">r</tspan><tspan class="cls-12" x="10.04" y="105.6">e</tspan><tspan class="cls-42" x="21.63" y="105.6">g</tspan><tspan x="34.22" y="105.6">n</tspan><tspan class="cls-24" x="48.18" y="105.6">a</tspan><tspan class="cls-32" x="60.44" y="105.6">n</tspan><tspan class="cls-43" x="74.07" y="105.6">c</tspan><tspan class="cls-44" x="85.69" y="105.6">y</tspan><tspan x="97.03" y="105.6">.</tspan><tspan class="cls-8" x="-123.45" y="158.4">B</tspan><tspan class="cls-9" x="-108.98" y="158.4">i</tspan><tspan class="cls-10" x="-101.91" y="158.4">r</tspan><tspan class="cls-11" x="-92.39" y="158.4">t</tspan><tspan x="-84.06" y="158.4">h </tspan><tspan class="cls-12" x="-64.68" y="158.4">c</tspan><tspan class="cls-13" x="-53.22" y="158.4">o</tspan><tspan class="cls-14" x="-41.18" y="158.4">n</tspan><tspan class="cls-15" x="-27.85" y="158.4">t</tspan><tspan class="cls-16" x="-19.74" y="158.4">r</tspan><tspan class="cls-17" x="-10.73" y="158.4">o</tspan><tspan x="1.18" y="158.4">l </tspan><tspan class="cls-18" x="13.59" y="158.4">p</tspan><tspan class="cls-19" x="26.67" y="158.4">il</tspan><tspan class="cls-20" x="41.17" y="158.4">l</tspan><tspan x="48.02" y="158.4">s </tspan><tspan class="cls-38" x="64.74" y="158.4">h</tspan><tspan class="cls-45" x="78.71" y="158.4">a</tspan><tspan class="cls-46" x="90.38" y="158.4">v</tspan><tspan x="102.56" y="158.4">e m</tspan><tspan class="cls-24" x="140.14" y="158.4">a</tspan><tspan class="cls-47" x="152.39" y="158.4">n</tspan><tspan x="165.77" y="158.4">y </tspan><tspan class="cls-48" x="-143.45" y="184.8">p</tspan><tspan class="cls-49" x="-130.16" y="184.8">o</tspan><tspan class="cls-50" x="-118.08" y="184.8">s</tspan><tspan class="cls-51" x="-106.9" y="184.8">i</tspan><tspan class="cls-52" x="-100.36" y="184.8">t</tspan><tspan class="cls-53" x="-92.07" y="184.8">i</tspan><tspan class="cls-41" x="-85.48" y="184.8">v</tspan><tspan x="-73.3" y="184.8">e </tspan><tspan class="cls-50" x="-56.19" y="184.8">s</tspan><tspan class="cls-54" x="-45" y="184.8">i</tspan><tspan class="cls-55" x="-38.16" y="184.8">d</tspan><tspan x="-25.49" y="184.8">e </tspan><tspan class="cls-56" x="-8.38" y="184.8">e</tspan><tspan class="cls-57" x="3.02" y="184.8">f</tspan><tspan class="cls-58" x="11.32" y="184.8">f</tspan><tspan class="cls-59" x="19.23" y="184.8">e</tspan><tspan class="cls-8" x="30.86" y="184.8">c</tspan><tspan class="cls-60" x="42.37" y="184.8">t</tspan><tspan x="50.28" y="184.8">s </tspan><tspan class="cls-24" x="66.99" y="184.8">a</tspan><tspan class="cls-29" x="79.25" y="184.8">n</tspan><tspan x="92.98" y="184.8">d </tspan><tspan class="cls-61" x="111.4" y="184.8">o</tspan><tspan class="cls-11" x="123.42" y="184.8">t</tspan><tspan class="cls-62" x="131.75" y="184.8">h</tspan><tspan class="cls-63" x="145.38" y="184.8">e</tspan><tspan x="156.72" y="184.8">r </tspan><tspan class="cls-64" x="-143.45" y="211.2">n</tspan><tspan class="cls-13" x="-129.81" y="211.2">o</tspan><tspan class="cls-65" x="-117.77" y="211.2">n</tspan><tspan class="cls-66" x="-104.52" y="211.2">-</tspan><tspan class="cls-22" x="-96.72" y="211.2">r</tspan><tspan class="cls-32" x="-87.74" y="211.2">e</tspan><tspan class="cls-67" x="-76.35" y="211.2">p</tspan><tspan class="cls-16" x="-63.44" y="211.2">r</tspan><tspan class="cls-68" x="-54.43" y="211.2">o</tspan><tspan class="cls-69" x="-42.14" y="211.2">d</tspan><tspan class="cls-70" x="-29.51" y="211.2">u</tspan><tspan class="cls-71" x="-16.21" y="211.2">c</tspan><tspan class="cls-72" x="-4.7" y="211.2">t</tspan><tspan class="cls-53" x="3.59" y="211.2">i</tspan><tspan class="cls-46" x="10.18" y="211.2">v</tspan><tspan x="22.36" y="211.2">e </tspan><tspan class="cls-62" x="39.47" y="211.2">h</tspan><tspan class="cls-73" x="53.11" y="211.2">e</tspan><tspan class="cls-24" x="64.59" y="211.2">a</tspan><tspan class="cls-74" x="76.85" y="211.2">l</tspan><tspan class="cls-75" x="83.32" y="211.2">t</tspan><tspan x="91.65" y="211.2">h </tspan><tspan class="cls-76" x="111.03" y="211.2">b</tspan><tspan class="cls-20" x="123.63" y="211.2">e</tspan><tspan class="cls-55" x="135.19" y="211.2">n</tspan><tspan class="cls-77" x="148.81" y="211.2">e</tspan><tspan class="cls-78" x="160.41" y="211.2">fi</tspan><tspan class="cls-60" x="174.11" y="211.2">t</tspan><tspan class="cls-79" x="182.02" y="211.2">s</tspan><tspan x="193.21" y="211.2">.</tspan><tspan class="cls-80" x="-123.45" y="264">T</tspan><tspan class="cls-62" x="-108.41" y="264">h</tspan><tspan x="-94.78" y="264">e </tspan><tspan class="cls-18" x="-77.67" y="264">p</tspan><tspan class="cls-19" x="-64.58" y="264">il</tspan><tspan x="-50.08" y="264">l </tspan><tspan class="cls-81" x="-37.68" y="264">i</tspan><tspan x="-30.76" y="264">s </tspan><tspan class="cls-82" x="-14.04" y="264">9</tspan><tspan class="cls-83" x="-2.22" y="264">1</tspan><tspan x="6.31" y="264">% </tspan><tspan class="cls-56" x="27.05" y="264">e</tspan><tspan class="cls-57" x="38.45" y="264">f</tspan><tspan class="cls-58" x="46.75" y="264">f</tspan><tspan class="cls-59" x="54.66" y="264">e</tspan><tspan class="cls-8" x="66.29" y="264">c</tspan><tspan class="cls-52" x="77.8" y="264">t</tspan><tspan class="cls-53" x="86.08" y="264">i</tspan><tspan class="cls-41" x="92.68" y="264">v</tspan><tspan x="104.86" y="264">e </tspan><tspan class="cls-19" x="121.97" y="264">i</tspan><tspan x="129.26" y="264">n </tspan><tspan class="cls-40" x="-143.45" y="290.4">p</tspan><tspan class="cls-22" x="-130.53" y="290.4">re</tspan><tspan class="cls-41" x="-110.11" y="290.4">v</tspan><tspan class="cls-20" x="-97.93" y="290.4">e</tspan><tspan class="cls-30" x="-86.37" y="290.4">n</tspan><tspan class="cls-52" x="-73.04" y="290.4">t</tspan><tspan class="cls-19" x="-64.76" y="290.4">i</tspan><tspan class="cls-84" x="-57.47" y="290.4">n</tspan><tspan x="-43.83" y="290.4">g </tspan><tspan class="cls-40" x="-25.87" y="290.4">p</tspan><tspan class="cls-22" x="-12.95" y="290.4">r</tspan><tspan class="cls-85" x="-3.97" y="290.4">e</tspan><tspan class="cls-42" x="7.62" y="290.4">g</tspan><tspan x="20.21" y="290.4">n</tspan><tspan class="cls-24" x="34.17" y="290.4">a</tspan><tspan class="cls-32" x="46.43" y="290.4">n</tspan><tspan class="cls-86" x="60.07" y="290.4">c</tspan><tspan class="cls-87" x="71.68" y="290.4">y</tspan><tspan x="82.92" y="290.4">, </tspan><tspan class="cls-88" x="93.71" y="290.4">b</tspan><tspan class="cls-89" x="106.11" y="290.4">u</tspan><tspan x="119.23" y="290.4">t </tspan><tspan class="cls-64" x="132.83" y="290.4">d</tspan><tspan class="cls-90" x="145.52" y="290.4">o</tspan><tspan class="cls-37" x="157.77" y="290.4">e</tspan><tspan class="cls-91" x="169.23" y="290.4">s</tspan><tspan class="cls-92" x="180.45" y="290.4">n</tspan><tspan class="cls-60" x="193.23" y="290.4">’</tspan><tspan x="197.98" y="290.4">t </tspan><tspan class="cls-93" x="-143.45" y="316.8">o</tspan><tspan class="cls-94" x="-131.5" y="316.8">f</tspan><tspan class="cls-58" x="-123.21" y="316.8">f</tspan><tspan class="cls-63" x="-115.29" y="316.8">e</tspan><tspan x="-103.95" y="316.8">r </tspan><tspan class="cls-40" x="-89.3" y="316.8">p</tspan><tspan class="cls-95" x="-76.38" y="316.8">r</tspan><tspan class="cls-96" x="-67.38" y="316.8">o</tspan><tspan class="cls-97" x="-55.35" y="316.8">t</tspan><tspan class="cls-59" x="-47.58" y="316.8">e</tspan><tspan class="cls-8" x="-35.96" y="316.8">c</tspan><tspan class="cls-52" x="-24.44" y="316.8">t</tspan><tspan class="cls-98" x="-16.16" y="316.8">i</tspan><tspan class="cls-13" x="-9.41" y="316.8">o</tspan><tspan x="2.63" y="316.8">n </tspan><tspan class="cls-99" x="21.99" y="316.8">f</tspan><tspan class="cls-16" x="30.22" y="316.8">r</tspan><tspan class="cls-100" x="39.22" y="316.8">o</tspan><tspan x="51.27" y="316.8">m </tspan><tspan class="cls-101" x="77.13" y="316.8">S</tspan><tspan class="cls-57" x="90.44" y="316.8">T</tspan><tspan class="cls-102" x="105.35" y="316.8">D</tspan><tspan class="cls-79" x="120.36" y="316.8">s</tspan><tspan x="131.55" y="316.8">.</tspan></tspan></text></svg>