<svg id="Layer_1" data-name="Layer 1" xmlns="http://www.w3.org/2000/svg" viewBox="0 0 611.8 611.8"><defs><style>.cls-1{fill:#f5faf8;stroke:#f4783b;stroke-linecap:round;stroke-linejoin:round;stroke-width:11.8px;}.cls-2{font-size:32px;fill:#f4783b;font-family:RobotoSlab-Bold, Roboto Slab;font-weight:700;}.cls-3{letter-spacing:-0.01em;}.cls-4{letter-spacing:-0.02em;}.cls-5{letter-spacing:-0.02em;}.cls-6{letter-spacing:-0.02em;}.cls-7,.cls-8{font-size:22px;}.cls-7{letter-spacing:-0.23em;}.cls-9{letter-spacing:0em;}.cls-10{letter-spacing:-0.02em;}.cls-11{letter-spacing:0em;}.cls-12{letter-spacing:0em;}.cls-13{letter-spacing:-0.03em;}.cls-14{letter-spacing:0em;}.cls-15{letter-spacing:-0.01em;}.cls-16{letter-spacing:-0.02em;}.cls-17{letter-spacing:-0.02em;}.cls-18{letter-spacing:-0.02em;}.cls-19{letter-spacing:-0.01em;}.cls-20{letter-spacing:-0.01em;}.cls-21{letter-spacing:0.01em;}.cls-22{letter-spacing:0.01em;}.cls-23{letter-spacing:-0.03em;}.cls-24{letter-spacing:0em;}.cls-25{letter-spacing:0em;}.cls-26{letter-spacing:0em;}.cls-27{letter-spacing:0em;}.cls-28{letter-spacing:-0.02em;}.cls-29{letter-spacing:-0.01em;}.cls-30{letter-spacing:0.01em;}.cls-31{letter-spacing:0em;}.cls-32{letter-spacing:-0.02em;}.cls-33{letter-spacing:0em;}.cls-34{letter-spacing:-0.01em;}.cls-35{letter-spacing:0em;}.cls-36{letter-spacing:-0.01em;}.cls-37{letter-spacing:0em;}.cls-38{letter-spacing:-0.01em;}.cls-39{letter-spacing:-0.01em;}.cls-40{letter-spacing:-0.04em;}.cls-41{letter-spacing:-0.02em;}.cls-42{letter-spacing:0em;}.cls-43{letter-spacing:-0.01em;}.cls-44{letter-spacing:0.02em;}.cls-45{letter-spacing:-0.01em;}.cls-46{letter-spacing:-0.03em;}.cls-47{letter-spacing:-0.01em;}.cls-48{letter-spacing:-0.01em;}.cls-49{letter-spacing:0.22em;}.cls-50{letter-spacing:0.01em;}.cls-51{letter-spacing:-0.02em;}.cls-52{letter-spacing:-0.01em;}.cls-53{letter-spacing:-0.01em;}.cls-54{letter-spacing:0em;}.cls-55{letter-spacing:-0.03em;}.cls-56{letter-spacing:-0.01em;}.cls-57{letter-spacing:0.01em;}.cls-58{letter-spacing:-0.01em;}.cls-59{letter-spacing:-0.02em;}.cls-60{letter-spacing:-0.02em;}.cls-61{letter-spacing:-0.01em;}.cls-62{letter-spacing:-0.01em;}.cls-63{letter-spacing:0em;}.cls-64{letter-spacing:0em;}.cls-65{letter-spacing:-0.08em;}.cls-66{letter-spacing:-0.01em;}.cls-67{letter-spacing:-0.03em;}.cls-68{letter-spacing:-0.01em;}.cls-69{letter-spacing:0em;}.cls-70{letter-spacing:-0.01em;}.cls-71{letter-spacing:-0.05em;}.cls-72{letter-spacing:-0.01em;}.cls-73{letter-spacing:-0.02em;}.cls-74{letter-spacing:0.01em;}.cls-75{letter-spacing:-0.01em;}.cls-76{letter-spacing:-0.01em;}.cls-77{letter-spacing:0em;}.cls-78{letter-spacing:-0.01em;}.cls-79{letter-spacing:0em;}</style></defs><title>std web mockupsasfd</title><rect class="cls-1" x="5.9" y="5.9" width="600" height="600" rx="300" ry="300"/><text class="cls-2" transform="translate(263.86 188.6)"><tspan class="cls-3">S</tspan><tspan class="cls-4" x="19.06" y="0">h</tspan><tspan class="cls-5" x="38.82" y="0">o</tspan><tspan class="cls-6" x="56.21" y="0">t</tspan><tspan x="67.61" y="0">s</tspan><tspan class="cls-7"><tspan x="-115.5" y="26.4">	</tspan></tspan><tspan class="cls-8"><tspan class="cls-9" x="-115.5" y="52.8">D</tspan><tspan class="cls-10" x="-100.37" y="52.8">e</tspan><tspan class="cls-11" x="-88.98" y="52.8">p</tspan><tspan class="cls-12" x="-75.69" y="52.8">o</tspan><tspan class="cls-13" x="-63.45" y="52.8">-</tspan><tspan class="cls-14" x="-55.3" y="52.8">P</tspan><tspan class="cls-15" x="-41.03" y="52.8">r</tspan><tspan class="cls-16" x="-32.02" y="52.8">o</tspan><tspan class="cls-17" x="-20.06" y="52.8">v</tspan><tspan class="cls-18" x="-7.88" y="52.8">e</tspan><tspan class="cls-19" x="3.47" y="52.8">r</tspan><tspan x="12.44" y="52.8">a </tspan><tspan class="cls-20" x="29.91" y="52.8">i</tspan><tspan x="36.83" y="52.8">s </tspan><tspan class="cls-21" x="53.55" y="52.8">a</tspan><tspan x="65.8" y="52.8">n </tspan><tspan class="cls-22" x="85.16" y="52.8">i</tspan><tspan class="cls-23" x="92.45" y="52.8">n</tspan><tspan class="cls-24" x="105.82" y="52.8">j</tspan><tspan class="cls-25" x="112.22" y="52.8">e</tspan><tspan class="cls-26" x="123.85" y="52.8">c</tspan><tspan class="cls-27" x="135.36" y="52.8">t</tspan><tspan class="cls-28" x="143.65" y="52.8">i</tspan><tspan class="cls-29" x="150.4" y="52.8">o</tspan><tspan x="162.43" y="52.8">n </tspan><tspan class="cls-30" x="-135.5" y="79.2">t</tspan><tspan class="cls-31" x="-127.17" y="79.2">h</tspan><tspan class="cls-32" x="-113.19" y="79.2">a</tspan><tspan x="-101.51" y="79.2">t </tspan><tspan class="cls-33" x="-87.91" y="79.2">s</tspan><tspan class="cls-10" x="-76.69" y="79.2">h</tspan><tspan class="cls-34" x="-63.03" y="79.2">o</tspan><tspan class="cls-35" x="-51.01" y="79.2">u</tspan><tspan class="cls-36" x="-37.19" y="79.2">l</tspan><tspan x="-30.42" y="79.2">d </tspan><tspan class="cls-37" x="-12.01" y="79.2">b</tspan><tspan x="0.6" y="79.2">e </tspan><tspan class="cls-38" x="17.71" y="79.2">r</tspan><tspan class="cls-39" x="26.69" y="79.2">e</tspan><tspan class="cls-40" x="38.26" y="79.2">-</tspan><tspan class="cls-22" x="46.23" y="79.2">i</tspan><tspan class="cls-23" x="53.52" y="79.2">n</tspan><tspan class="cls-24" x="66.88" y="79.2">j</tspan><tspan class="cls-25" x="73.29" y="79.2">e</tspan><tspan class="cls-26" x="84.91" y="79.2">c</tspan><tspan class="cls-41" x="96.43" y="79.2">t</tspan><tspan class="cls-42" x="104.2" y="79.2">e</tspan><tspan x="115.87" y="79.2">d </tspan><tspan class="cls-43" x="134.28" y="79.2">e</tspan><tspan class="cls-17" x="145.72" y="79.2">v</tspan><tspan class="cls-18" x="157.9" y="79.2">e</tspan><tspan class="cls-44" x="169.25" y="79.2">r</tspan><tspan x="178.85" y="79.2">y </tspan><tspan class="cls-30" x="-135.5" y="105.6">t</tspan><tspan class="cls-31" x="-127.17" y="105.6">h</tspan><tspan class="cls-43" x="-113.19" y="105.6">r</tspan><tspan class="cls-25" x="-104.21" y="105.6">e</tspan><tspan x="-92.58" y="105.6">e </tspan><tspan class="cls-45" x="-75.47" y="105.6">m</tspan><tspan class="cls-29" x="-55.33" y="105.6">o</tspan><tspan class="cls-46" x="-43.3" y="105.6">n</tspan><tspan class="cls-30" x="-29.96" y="105.6">t</tspan><tspan class="cls-47" x="-21.64" y="105.6">h</tspan><tspan class="cls-48" x="-7.82" y="105.6">s</tspan><tspan x="3.37" y="105.6">.</tspan></tspan><tspan class="cls-7"><tspan x="-115.5" y="132">	</tspan><tspan class="cls-49" x="-115.06" y="132">	</tspan></tspan><tspan class="cls-8"><tspan class="cls-50" x="-115.5" y="158.4">T</tspan><tspan class="cls-51" x="-100.46" y="158.4">h</tspan><tspan x="-86.83" y="158.4">e </tspan><tspan class="cls-33" x="-69.72" y="158.4">s</tspan><tspan class="cls-10" x="-58.49" y="158.4">h</tspan><tspan class="cls-52" x="-44.84" y="158.4">o</tspan><tspan x="-32.82" y="158.4">t </tspan><tspan class="cls-53" x="-19.22" y="158.4">i</tspan><tspan x="-12.3" y="158.4">s </tspan><tspan class="cls-54" x="4.42" y="158.4">9</tspan><tspan class="cls-55" x="16.62" y="158.4">4</tspan><tspan x="28.38" y="158.4">% </tspan><tspan class="cls-56" x="49.12" y="158.4">e</tspan><tspan class="cls-57" x="60.52" y="158.4">f</tspan><tspan class="cls-58" x="68.82" y="158.4">f</tspan><tspan class="cls-25" x="76.73" y="158.4">e</tspan><tspan class="cls-26" x="88.36" y="158.4">c</tspan><tspan class="cls-27" x="99.87" y="158.4">t</tspan><tspan class="cls-59" x="108.15" y="158.4">i</tspan><tspan class="cls-17" x="114.75" y="158.4">v</tspan><tspan x="126.93" y="158.4">e </tspan><tspan class="cls-22" x="144.04" y="158.4">i</tspan><tspan x="151.33" y="158.4">n </tspan><tspan class="cls-60" x="-135.5" y="184.8">p</tspan><tspan class="cls-43" x="-122.58" y="184.8">re</tspan><tspan class="cls-17" x="-102.15" y="184.8">v</tspan><tspan class="cls-47" x="-89.97" y="184.8">e</tspan><tspan class="cls-46" x="-78.42" y="184.8">n</tspan><tspan class="cls-27" x="-65.09" y="184.8">t</tspan><tspan class="cls-22" x="-56.81" y="184.8">i</tspan><tspan class="cls-61" x="-49.52" y="184.8">n</tspan><tspan x="-35.88" y="184.8">g </tspan><tspan class="cls-60" x="-17.92" y="184.8">p</tspan><tspan class="cls-43" x="-5" y="184.8">r</tspan><tspan class="cls-62" x="3.98" y="184.8">e</tspan><tspan class="cls-63" x="15.58" y="184.8">g</tspan><tspan x="28.16" y="184.8">n</tspan><tspan class="cls-21" x="42.13" y="184.8">a</tspan><tspan class="cls-10" x="54.39" y="184.8">n</tspan><tspan class="cls-64" x="68.02" y="184.8">c</tspan><tspan class="cls-65" x="79.63" y="184.8">y</tspan><tspan x="90.87" y="184.8">, </tspan><tspan class="cls-66" x="101.67" y="184.8">b</tspan><tspan class="cls-67" x="114.06" y="184.8">u</tspan><tspan x="127.18" y="184.8">t </tspan><tspan class="cls-68" x="140.78" y="184.8">d</tspan><tspan class="cls-69" x="153.48" y="184.8">o</tspan><tspan class="cls-70" x="165.72" y="184.8">e</tspan><tspan class="cls-33" x="177.18" y="184.8">s</tspan><tspan class="cls-71" x="188.41" y="184.8">n</tspan><tspan class="cls-72" x="201.18" y="184.8">’</tspan><tspan x="205.94" y="184.8">t </tspan><tspan class="cls-73" x="-135.5" y="211.2">o</tspan><tspan class="cls-74" x="-123.55" y="211.2">f</tspan><tspan class="cls-58" x="-115.25" y="211.2">f</tspan><tspan class="cls-18" x="-107.34" y="211.2">e</tspan><tspan x="-96" y="211.2">r </tspan><tspan class="cls-60" x="-81.35" y="211.2">p</tspan><tspan class="cls-75" x="-68.43" y="211.2">r</tspan><tspan class="cls-76" x="-59.42" y="211.2">o</tspan><tspan class="cls-41" x="-47.4" y="211.2">t</tspan><tspan class="cls-25" x="-39.63" y="211.2">e</tspan><tspan class="cls-26" x="-28" y="211.2">c</tspan><tspan class="cls-27" x="-16.49" y="211.2">t</tspan><tspan class="cls-28" x="-8.21" y="211.2">i</tspan><tspan class="cls-29" x="-1.46" y="211.2">o</tspan><tspan x="10.58" y="211.2">n </tspan><tspan class="cls-77" x="29.94" y="211.2">f</tspan><tspan class="cls-15" x="38.17" y="211.2">r</tspan><tspan class="cls-78" x="47.17" y="211.2">o</tspan><tspan x="59.22" y="211.2">m </tspan><tspan class="cls-79" x="85.08" y="211.2">S</tspan><tspan class="cls-57" x="98.39" y="211.2">T</tspan><tspan class="cls-39" x="113.3" y="211.2">D</tspan><tspan class="cls-48" x="128.31" y="211.2">s</tspan><tspan x="139.5" y="211.2">.</tspan></tspan></text></svg>