<svg id="Layer_1" data-name="Layer 1" xmlns="http://www.w3.org/2000/svg" viewBox="0 0 102.7 365.61"><defs><style>.cls-1{fill:#f5faf8;stroke:#f4783b;stroke-linecap:round;stroke-linejoin:round;stroke-width:6.04px;}</style></defs><title>std graphics</title><path class="cls-1" d="M31.42,109.74,28,92.4a9.21,9.21,0,0,0-4.42-6.2l-3.5-2L3,3,20.11,84.18l-2.55,2.62A9.21,9.21,0,0,0,15.14,95l3.28,16.71L12,115.9a2.22,2.22,0,0,0-.94,2.35L48.47,281.13l-8.18,3.48a2.25,2.25,0,0,0-1.36,1.93v.18A2.25,2.25,0,0,0,41.68,289l46.26-11a2.25,2.25,0,0,0,1.36-3.42h0a2.25,2.25,0,0,0-2.14-1l-8.82,1L41,111.92a2.22,2.22,0,0,0-2-1.72Z"/><polyline class="cls-1" points="71.63 283.57 65.44 258.86 73.18 252.23 43.36 258.86 52.95 262.24 58.43 286.24"/><path class="cls-1" d="M71.63,283.57l15.45,69a1.08,1.08,0,0,0,1.12.84l10.34-.6a1.08,1.08,0,0,1,.5,2.06,107.38,107.38,0,0,1-15.88,5.7,56.41,56.41,0,0,1-15.45,2,1.08,1.08,0,0,1-.42-2.06l7.95-3.65a1.08,1.08,0,0,0,.6-1.24l-17.4-69.39a1.08,1.08,0,0,1,.84-1.32l11.1-2.16A1.08,1.08,0,0,1,71.63,283.57Z"/><polygon class="cls-1" points="52.95 262.24 65.44 258.86 63.48 255.47 49.53 257.49 52.95 262.24"/><line class="cls-1" x1="13.61" y1="129.28" x2="24.53" y2="127.32"/><line class="cls-1" x1="16.17" y1="140.11" x2="27.09" y2="138.15"/><line class="cls-1" x1="18.78" y1="150.95" x2="29.7" y2="148.99"/><line class="cls-1" x1="21.2" y1="161.78" x2="32.12" y2="159.82"/><line class="cls-1" x1="24.17" y1="172.61" x2="35.1" y2="170.66"/><line class="cls-1" x1="27.51" y1="183.45" x2="38.44" y2="181.49"/><line class="cls-1" x1="29.76" y1="194.28" x2="40.69" y2="192.32"/><line class="cls-1" x1="31.68" y1="205.12" x2="42.61" y2="203.16"/><line class="cls-1" x1="33.9" y1="215.95" x2="44.82" y2="213.99"/><line class="cls-1" x1="36.19" y1="226.78" x2="47.12" y2="224.82"/><line class="cls-1" x1="38.56" y1="237.62" x2="49.48" y2="235.66"/><path class="cls-1" d="M18.41,111.7l1.42-.5a27.22,27.22,0,0,1,11.54-1.46h.05"/></svg>