<?xml version="1.0" encoding="utf-8"?>
<!-- Generator: Adobe Illustrator 22.0.1, SVG Export Plug-In . SVG Version: 6.00 Build 0)  -->
<!DOCTYPE svg PUBLIC "-//W3C//DTD SVG 1.1//EN" "http://www.w3.org/Graphics/SVG/1.1/DTD/svg11.dtd">
<svg version="1.1" id="Layer_1" xmlns="http://www.w3.org/2000/svg" xmlns:xlink="http://www.w3.org/1999/xlink" x="0px" y="0px"
	 viewBox="0 0 611.8 611.8" style="enable-background:new 0 0 611.8 611.8;" xml:space="preserve">
<style type="text/css">
	.st0{fill:#F5FAF8;stroke:#F4783B;stroke-width:11.8;stroke-linecap:round;stroke-linejoin:round;}
	.st1{fill:#F4783B;}
</style>
<title>std web mockupsasfd</title>
<path class="st0" d="M305.9,5.9L305.9,5.9c165.7,0,300,134.3,300,300l0,0c0,165.7-134.3,300-300,300l0,0c-165.7,0-300-134.3-300-300
	l0,0C5.9,140.2,140.2,5.9,305.9,5.9z"/>
<path class="st1" d="M282,173.1h-3.4L278,170c-0.4-0.2-1-0.5-1.7-0.7c-0.8-0.2-1.6-0.3-2.4-0.3c-1.2,0-2.2,0.3-2.9,0.8
	c-0.7,0.5-1,1.2-1,2s0.4,1.4,1.1,1.9s1.9,1,3.7,1.6c2.5,0.7,4.4,1.6,5.7,2.8c1.3,1.1,1.9,2.7,1.9,4.5c0,1.9-0.8,3.5-2.3,4.6
	s-3.6,1.7-6.1,1.7c-1.8,0-3.4-0.3-4.9-0.9s-2.7-1.4-3.6-2.4v-4.8h3.5l0.5,3.2c0.5,0.4,1.1,0.7,1.9,0.9s1.7,0.4,2.6,0.4
	c1.2,0,2.2-0.3,2.9-0.8c0.7-0.5,1-1.2,1-2c0-0.9-0.3-1.6-0.9-2.1s-1.7-1-3.3-1.5c-2.7-0.8-4.7-1.7-6.1-2.8s-2.1-2.5-2.1-4.4
	c0-1.8,0.8-3.4,2.3-4.5s3.5-1.8,5.9-1.8c1.8,0,3.3,0.3,4.8,0.8s2.6,1.2,3.6,2.1v4.8H282z"/>
<path class="st1" d="M283.7,185.9l2.2-0.5v-18l-2.4-0.5v-2.8h7v9.6c0.5-0.8,1.2-1.4,2-1.8c0.8-0.4,1.6-0.6,2.6-0.6
	c1.8,0,3.2,0.6,4.2,1.8s1.5,3,1.5,5.4v6.8l2.2,0.5v2.7h-8.7v-2.7l2-0.5v-6.9c0-1.3-0.2-2.2-0.7-2.8c-0.5-0.5-1.2-0.8-2.1-0.8
	c-0.6,0-1.2,0.1-1.7,0.3s-0.9,0.6-1.2,1v9.2l2,0.5v2.7h-8.7v-2.6H283.7z"/>
<path class="st1" d="M303.7,180c0-2.5,0.7-4.6,2.1-6.2s3.4-2.4,5.9-2.4s4.5,0.8,5.9,2.4c1.4,1.6,2.1,3.7,2.1,6.2v0.3
	c0,2.5-0.7,4.6-2.1,6.2c-1.4,1.6-3.4,2.4-5.8,2.4c-2.5,0-4.5-0.8-5.9-2.4c-1.4-1.6-2.1-3.7-2.1-6.2V180H303.7z M308.2,180.3
	c0,1.5,0.3,2.8,0.8,3.7s1.4,1.4,2.6,1.4s2-0.5,2.6-1.4s0.8-2.2,0.8-3.7V180c0-1.5-0.3-2.7-0.8-3.7c-0.6-0.9-1.4-1.4-2.6-1.4
	s-2.1,0.5-2.6,1.4s-0.8,2.2-0.8,3.7V180.3z"/>
<path class="st1" d="M327.8,167.6v4.1h3v3.2h-3v8.6c0,0.7,0.1,1.1,0.4,1.4c0.3,0.3,0.6,0.4,1.1,0.4c0.3,0,0.6,0,0.8,0
	c0.2,0,0.5-0.1,0.8-0.1l0.4,3.3c-0.5,0.2-1,0.3-1.5,0.4s-1,0.1-1.6,0.1c-1.6,0-2.8-0.4-3.6-1.3c-0.8-0.9-1.3-2.2-1.3-4.1V175h-2.5
	v-3.2h2.5v-4.1L327.8,167.6L327.8,167.6z"/>
<path class="st1" d="M346.3,177.5h-3.1l-0.5-2.1c-0.3-0.2-0.7-0.5-1.2-0.6c-0.5-0.2-1-0.2-1.6-0.2c-0.8,0-1.4,0.2-1.9,0.5
	s-0.7,0.8-0.7,1.4c0,0.5,0.2,0.9,0.7,1.3c0.4,0.3,1.3,0.6,2.7,0.9c2.1,0.4,3.6,1,4.7,1.8c1,0.8,1.5,1.9,1.5,3.3c0,1.5-0.7,2.8-2,3.7
	c-1.3,1-3,1.4-5.2,1.4c-1.3,0-2.5-0.2-3.6-0.6s-2.1-0.9-2.9-1.6v-3.8h3.2l0.6,2.2c0.3,0.2,0.6,0.4,1.1,0.5s1,0.2,1.5,0.2
	c0.9,0,1.6-0.2,2.1-0.5s0.7-0.8,0.7-1.4c0-0.5-0.2-0.9-0.7-1.3c-0.5-0.4-1.4-0.7-2.7-1c-2-0.4-3.5-1-4.5-1.8s-1.5-1.9-1.5-3.3
	c0-1.4,0.6-2.6,1.8-3.7c1.2-1,2.8-1.5,5-1.5c1.3,0,2.6,0.2,3.7,0.5c1.2,0.4,2.1,0.8,2.8,1.4V177.5z"/>
<path class="st1" d="M156,225.8c1.9,0,3.5,0.6,4.7,1.8s1.9,2.8,1.9,4.7v2.6c0,1.9-0.6,3.5-1.9,4.7c-1.2,1.2-2.8,1.8-4.7,1.8h-7v-1.9
	l1.7-0.3V228l-1.7-0.3v-1.9h1.7H156z M153.8,228.2V239h2.1c1.1,0,2-0.4,2.6-1.1c0.6-0.8,1-1.8,1-3v-2.6c0-1.2-0.3-2.2-1-3
	c-0.6-0.8-1.5-1.1-2.6-1.1L153.8,228.2L153.8,228.2z"/>
<path class="st1" d="M169.7,241.6c-1.7,0-3-0.5-4-1.6s-1.5-2.4-1.5-4.1v-0.4c0-1.7,0.5-3.1,1.4-4.3s2.2-1.7,3.8-1.7s2.8,0.5,3.7,1.4
	s1.3,2.2,1.3,3.8v1.7h-6.9v0.1c0.1,0.8,0.3,1.4,0.8,1.9s1.1,0.7,1.9,0.7c0.7,0,1.3-0.1,1.7-0.2c0.5-0.1,1-0.4,1.5-0.7l0.8,1.9
	c-0.5,0.4-1.1,0.7-1.9,1S170.7,241.6,169.7,241.6z M169.5,232c-0.6,0-1,0.2-1.4,0.7c-0.3,0.4-0.5,1-0.6,1.8v0.1h3.8v-0.3
	c0-0.7-0.2-1.2-0.5-1.6C170.6,232.2,170.1,232,169.5,232z"/>
<path class="st1" d="M175.3,231.7v-1.9h4.6l0.2,1.4c0.3-0.5,0.8-0.9,1.2-1.2c0.5-0.3,1-0.4,1.7-0.4c1.4,0,2.6,0.6,3.4,1.7
	s1.2,2.6,1.2,4.4v0.2c0,1.7-0.4,3.1-1.2,4.1s-1.9,1.6-3.3,1.6c-0.6,0-1.1-0.1-1.6-0.3s-0.9-0.6-1.2-1v3.4l1.5,0.3v1.9h-6.2V244
	l1.5-0.3V232L175.3,231.7z M184.3,235.7c0-1.1-0.2-2-0.5-2.7s-0.9-1-1.7-1c-0.5,0-0.9,0.1-1.2,0.3s-0.6,0.5-0.8,0.8v5.1
	c0.2,0.3,0.5,0.6,0.8,0.8s0.7,0.3,1.2,0.3c0.8,0,1.3-0.3,1.7-0.9s0.5-1.4,0.5-2.4V235.7z"/>
<path class="st1" d="M188.8,235.5c0-1.7,0.5-3.2,1.5-4.3s2.3-1.7,4-1.7s3.1,0.6,4,1.7c1,1.1,1.5,2.5,1.5,4.3v0.2
	c0,1.7-0.5,3.2-1.5,4.3s-2.3,1.6-4,1.6s-3.1-0.5-4-1.6c-1-1.1-1.5-2.5-1.5-4.3V235.5z M192,235.7c0,1.1,0.2,1.9,0.6,2.6
	c0.4,0.6,1,1,1.8,1s1.4-0.3,1.8-1s0.6-1.5,0.6-2.5v-0.2c0-1-0.2-1.9-0.6-2.5c-0.4-0.7-1-1-1.8-1s-1.4,0.3-1.8,1
	C192.2,233.8,192,234.6,192,235.7L192,235.7z"/>
<path class="st1" d="M207.9,235.9h-6.1v-2.4h6.1V235.9z"/>
<path class="st1" d="M216.6,225.8c1.8,0,3.2,0.5,4.2,1.4s1.6,2.1,1.6,3.6s-0.5,2.7-1.6,3.6c-1,0.9-2.4,1.4-4.2,1.4H214v3.5l1.7,0.3
	v1.9h-6.5v-1.9l1.7-0.3V228l-1.7-0.3v-1.9h1.7H216.6z M214,233.3h2.6c0.9,0,1.5-0.2,2-0.7c0.4-0.5,0.7-1.1,0.7-1.8
	c0-0.8-0.2-1.4-0.7-1.9c-0.4-0.5-1.1-0.7-2-0.7H214V233.3z"/>
<path class="st1" d="M223.7,239.5l1.5-0.3V232l-1.7-0.3v-1.9h4.6l0.1,1.7c0.3-0.6,0.6-1.1,1.1-1.4s0.9-0.5,1.5-0.5
	c0.2,0,0.3,0,0.5,0s0.3,0.1,0.5,0.1l-0.3,2.9h-1.3c-0.5,0-0.8,0.1-1.1,0.3s-0.5,0.4-0.7,0.8v5.7l1.5,0.3v1.9h-6.1v-2.1H223.7z"/>
<path class="st1" d="M232.5,235.5c0-1.7,0.5-3.2,1.5-4.3s2.3-1.7,4-1.7s3.1,0.6,4,1.7c1,1.1,1.5,2.5,1.5,4.3v0.2
	c0,1.7-0.5,3.2-1.5,4.3s-2.3,1.6-4,1.6s-3.1-0.5-4-1.6c-1-1.1-1.5-2.5-1.5-4.3V235.5z M235.7,235.7c0,1.1,0.2,1.9,0.6,2.6
	c0.4,0.6,1,1,1.8,1s1.4-0.3,1.8-1s0.6-1.5,0.6-2.5v-0.2c0-1-0.2-1.9-0.6-2.5c-0.4-0.7-1-1-1.8-1s-1.4,0.3-1.8,1
	C235.9,233.8,235.7,234.6,235.7,235.7L235.7,235.7z"/>
<path class="st1" d="M249.4,231.7l-1.1,0.2l1.5,5.2l0.2,1.1h0.1l0.2-1.1l1.5-5.2l-1.1-0.2v-1.9h5.3v1.9l-1,0.2l-3.4,9.6h-3l-3.4-9.6
	l-1-0.2v-1.9h5.3v1.9H249.4z"/>
<path class="st1" d="M262.2,241.6c-1.7,0-3-0.5-4-1.6s-1.5-2.4-1.5-4.1v-0.4c0-1.7,0.5-3.1,1.4-4.3c0.9-1.1,2.2-1.7,3.8-1.7
	c1.6,0,2.8,0.5,3.7,1.4c0.9,0.9,1.3,2.2,1.3,3.8v1.7H260v0.1c0.1,0.8,0.3,1.4,0.8,1.9s1.1,0.7,1.9,0.7c0.7,0,1.3-0.1,1.7-0.2
	c0.5-0.1,1-0.4,1.5-0.7l0.8,1.9c-0.5,0.4-1.1,0.7-1.9,1S263.2,241.6,262.2,241.6z M261.9,232c-0.6,0-1,0.2-1.4,0.7
	c-0.3,0.4-0.5,1-0.6,1.8v0.1h3.8v-0.3c0-0.7-0.2-1.2-0.5-1.6C263,232.2,262.6,232,261.9,232z"/>
<path class="st1" d="M268.2,239.5l1.5-0.3V232l-1.7-0.3v-1.9h4.6l0.1,1.7c0.3-0.6,0.6-1.1,1.1-1.4s0.9-0.5,1.5-0.5
	c0.2,0,0.3,0,0.5,0s0.3,0.1,0.5,0.1l-0.3,2.9h-1.3c-0.5,0-0.8,0.1-1.1,0.3s-0.5,0.4-0.7,0.8v5.7l1.5,0.3v1.9h-6.1v-2.1H268.2z"/>
<path class="st1" d="M284.4,241.4c-0.1-0.2-0.2-0.4-0.2-0.6c-0.1-0.2-0.1-0.4-0.2-0.6c-0.4,0.4-0.8,0.8-1.4,1
	c-0.5,0.3-1.1,0.4-1.8,0.4c-1.1,0-2-0.3-2.7-0.9c-0.7-0.6-1-1.5-1-2.5c0-1.1,0.4-1.9,1.3-2.5s2.2-0.9,3.8-0.9h1.6v-1.1
	c0-0.6-0.2-1-0.5-1.3s-0.8-0.5-1.4-0.5c-0.4,0-0.7,0-1,0.1s-0.5,0.2-0.7,0.3l-0.2,1.2h-2.4v-2.6c0.6-0.4,1.2-0.7,2-1
	s1.5-0.4,2.4-0.4c1.4,0,2.6,0.4,3.5,1.1c0.9,0.7,1.3,1.7,1.3,3v4.8c0,0.2,0,0.3,0,0.5s0,0.3,0,0.5l1,0.1v1.9H284.4z M281.7,239.3
	c0.5,0,0.9-0.1,1.3-0.3s0.7-0.5,0.9-0.8v-1.8h-1.6c-0.7,0-1.2,0.2-1.5,0.5s-0.5,0.7-0.5,1.1c0,0.4,0.1,0.7,0.4,0.9
	C280.9,239.2,281.2,239.3,281.7,239.3z"/>
<path class="st1" d="M294.4,239.5l1.5-0.3V232l-1.7-0.3v-1.9h4.8v9.4l1.5,0.3v1.9h-6.2v-1.9H294.4z M299,227h-3.1v-2.4h3.1V227z"/>
<path class="st1" d="M310.9,233.8h-2.1l-0.3-1.5c-0.2-0.2-0.5-0.3-0.8-0.4c-0.3-0.1-0.7-0.2-1.1-0.2c-0.6,0-1,0.1-1.3,0.4
	c-0.3,0.2-0.5,0.6-0.5,0.9c0,0.4,0.2,0.6,0.5,0.9c0.3,0.2,0.9,0.4,1.8,0.6c1.4,0.3,2.5,0.7,3.2,1.3s1,1.3,1,2.3s-0.4,1.9-1.3,2.6
	c-0.9,0.7-2.1,1-3.6,1c-0.9,0-1.7-0.1-2.5-0.4c-0.7-0.3-1.4-0.6-2-1.1v-2.6h2.2l0.4,1.5c0.2,0.2,0.4,0.3,0.8,0.3
	c0.3,0.1,0.7,0.1,1,0.1c0.6,0,1.1-0.1,1.5-0.3s0.5-0.5,0.5-0.9c0-0.3-0.2-0.6-0.5-0.9c-0.3-0.3-1-0.5-1.9-0.7
	c-1.4-0.3-2.4-0.7-3.1-1.2s-1-1.3-1-2.2c0-1,0.4-1.8,1.2-2.5c0.8-0.7,1.9-1.1,3.4-1.1c0.9,0,1.8,0.1,2.6,0.4s1.4,0.6,1.9,0.9
	L310.9,233.8z"/>
<path class="st1" d="M325.5,241.4c-0.1-0.2-0.2-0.4-0.2-0.6c-0.1-0.2-0.1-0.4-0.2-0.6c-0.4,0.4-0.8,0.8-1.4,1s-1.1,0.4-1.8,0.4
	c-1.1,0-2-0.3-2.7-0.9c-0.7-0.6-1-1.5-1-2.5c0-1.1,0.4-1.9,1.3-2.5s2.2-0.9,3.8-0.9h1.6v-1.1c0-0.6-0.2-1-0.5-1.3s-0.8-0.5-1.4-0.5
	c-0.4,0-0.7,0-1,0.1s-0.5,0.2-0.7,0.3l-0.2,1.2h-2.4v-2.6c0.6-0.4,1.2-0.7,2-1s1.5-0.4,2.4-0.4c1.4,0,2.6,0.4,3.5,1.1
	c0.9,0.7,1.3,1.7,1.3,3v4.8c0,0.2,0,0.3,0,0.5s0,0.3,0,0.5l1,0.1v1.9H325.5z M322.8,239.3c0.5,0,0.9-0.1,1.3-0.3s0.7-0.5,0.9-0.8
	v-1.8h-1.6c-0.7,0-1.2,0.2-1.5,0.5s-0.5,0.7-0.5,1.1c0,0.4,0.1,0.7,0.4,0.9S322.3,239.3,322.8,239.3z"/>
<path class="st1" d="M330.2,239.5l1.5-0.3V232l-1.7-0.3v-1.9h4.6l0.1,1.7c0.4-0.6,0.9-1.1,1.4-1.4c0.6-0.3,1.2-0.5,1.9-0.5
	c1.2,0,2.1,0.4,2.8,1.1c0.7,0.7,1,1.9,1,3.5v5.1l1.5,0.3v1.9h-6v-1.9l1.3-0.3v-5c0-0.8-0.2-1.3-0.5-1.7c-0.3-0.3-0.8-0.5-1.4-0.5
	c-0.4,0-0.8,0.1-1.1,0.3c-0.3,0.2-0.6,0.4-0.8,0.7v6.2l1.3,0.3v1.9h-5.9L330.2,239.5L330.2,239.5z"/>
<path class="st1" d="M349.6,239.5l1.5-0.3V232l-1.7-0.3v-1.9h4.8v9.4l1.5,0.3v1.9h-6.2v-1.9H349.6z M354.3,227h-3.1v-2.4h3.1V227z"
	/>
<path class="st1" d="M356.8,239.5l1.5-0.3V232l-1.7-0.3v-1.9h4.6l0.1,1.7c0.4-0.6,0.9-1.1,1.4-1.4c0.6-0.3,1.2-0.5,1.9-0.5
	c1.2,0,2.1,0.4,2.8,1.1c0.7,0.7,1,1.9,1,3.5v5.1l1.5,0.3v1.9h-6v-1.9l1.3-0.3v-5c0-0.8-0.2-1.3-0.5-1.7c-0.3-0.3-0.8-0.5-1.4-0.5
	c-0.4,0-0.8,0.1-1.1,0.3c-0.3,0.2-0.6,0.4-0.8,0.7v6.2l1.3,0.3v1.9h-5.9L356.8,239.5L356.8,239.5z"/>
<path class="st1" d="M375,241.8c0,1.4-0.4,2.4-1.1,3.2c-0.7,0.7-1.7,1.1-3,1.1c-0.3,0-0.6,0-0.8,0c-0.2,0-0.5-0.1-0.7-0.1l0.2-2.4
	c0.2,0,0.3,0.1,0.5,0.1s0.3,0,0.5,0c0.4,0,0.8-0.1,1-0.4c0.2-0.3,0.3-0.8,0.3-1.4V232l-1.7-0.3v-1.9h4.8L375,241.8L375,241.8z
	 M374.9,227h-3.1v-2.3h3.1V227z"/>
<path class="st1" d="M382.3,241.6c-1.7,0-3-0.5-4-1.6s-1.5-2.4-1.5-4.1v-0.4c0-1.7,0.5-3.1,1.4-4.3s2.2-1.7,3.8-1.7
	c1.6,0,2.8,0.5,3.7,1.4c0.9,0.9,1.3,2.2,1.3,3.8v1.7h-6.9v0.1c0.1,0.8,0.3,1.4,0.8,1.9s1.1,0.7,1.9,0.7c0.7,0,1.3-0.1,1.7-0.2
	c0.5-0.1,1-0.4,1.5-0.7l0.8,1.9c-0.5,0.4-1.1,0.7-1.9,1S383.3,241.6,382.3,241.6z M382,232c-0.6,0-1,0.2-1.4,0.7
	c-0.3,0.4-0.5,1-0.6,1.8v0.1h3.8v-0.3c0-0.7-0.2-1.2-0.5-1.6C383.1,232.2,382.7,232,382,232z"/>
<path class="st1" d="M393.8,239.2c0.6,0,1-0.2,1.3-0.5s0.5-0.8,0.5-1.3h2.8v0.1c0,1.2-0.4,2.2-1.3,2.9c-0.9,0.8-2,1.2-3.4,1.2
	c-1.7,0-3.1-0.5-4-1.6s-1.4-2.5-1.4-4.2v-0.3c0-1.7,0.5-3.1,1.4-4.2c1-1.1,2.3-1.7,4.1-1.7c0.9,0,1.8,0.1,2.5,0.4s1.4,0.7,1.9,1.2
	v3.1h-2.5l-0.5-1.8c-0.2-0.1-0.4-0.2-0.6-0.3s-0.5-0.1-0.8-0.1c-0.9,0-1.5,0.3-1.9,1s-0.5,1.5-0.5,2.5v0.3c0,1,0.2,1.9,0.5,2.5
	C392.4,238.9,393,239.2,393.8,239.2z"/>
<path class="st1" d="M404.5,226.9v2.8h2v2.2h-2v5.9c0,0.5,0.1,0.8,0.3,1s0.4,0.3,0.8,0.3c0.2,0,0.4,0,0.6,0s0.3,0,0.5-0.1l0.3,2.3
	c-0.4,0.1-0.7,0.2-1,0.2c-0.3,0.1-0.7,0.1-1.1,0.1c-1.1,0-1.9-0.3-2.5-0.9c-0.6-0.6-0.9-1.5-0.9-2.8V232h-1.7v-2.2h1.7V227h3V226.9z
	"/>
<path class="st1" d="M408.1,239.5l1.5-0.3V232l-1.7-0.3v-1.9h4.8v9.4l1.5,0.3v1.9H408v-1.9H408.1z M412.7,227h-3.1v-2.4h3.1V227z"/>
<path class="st1" d="M414.9,235.5c0-1.7,0.5-3.2,1.5-4.3s2.3-1.7,4-1.7s3.1,0.6,4,1.7c1,1.1,1.5,2.5,1.5,4.3v0.2
	c0,1.7-0.5,3.2-1.5,4.3s-2.3,1.6-4,1.6s-3.1-0.5-4-1.6c-1-1.1-1.5-2.5-1.5-4.3V235.5z M418.1,235.7c0,1.1,0.2,1.9,0.6,2.6
	c0.4,0.6,1,1,1.8,1s1.4-0.3,1.8-1s0.6-1.5,0.6-2.5v-0.2c0-1-0.2-1.9-0.6-2.5s-1-1-1.8-1s-1.4,0.3-1.8,1S418.1,234.6,418.1,235.7
	L418.1,235.7z"/>
<path class="st1" d="M426.8,239.5l1.5-0.3V232l-1.7-0.3v-1.9h4.6l0.1,1.7c0.4-0.6,0.9-1.1,1.4-1.4c0.6-0.3,1.2-0.5,1.9-0.5
	c1.2,0,2.1,0.4,2.8,1.1s1,1.9,1,3.5v5.1l1.5,0.3v1.9h-6v-1.9l1.3-0.3v-5c0-0.8-0.2-1.3-0.5-1.7c-0.3-0.3-0.8-0.5-1.4-0.5
	c-0.4,0-0.8,0.1-1.1,0.3c-0.3,0.2-0.6,0.4-0.8,0.7v6.2l1.3,0.3v1.9h-5.9L426.8,239.5L426.8,239.5z"/>
<path class="st1" d="M133.7,253.3v2.8h2v2.2h-2v5.9c0,0.5,0.1,0.8,0.3,1s0.4,0.3,0.8,0.3c0.2,0,0.4,0,0.6,0c0.2,0,0.3,0,0.5-0.1
	l0.3,2.3c-0.4,0.1-0.7,0.2-1,0.2c-0.3,0.1-0.7,0.1-1.1,0.1c-1.1,0-1.9-0.3-2.5-0.9s-0.9-1.5-0.9-2.8v-5.9H129v-2.2h1.7v-2.8h3V253.3
	z"/>
<path class="st1" d="M137.2,265.9l1.5-0.3v-12.3L137,253v-2h4.8v6.6c0.4-0.5,0.8-1,1.3-1.3s1.1-0.4,1.8-0.4c1.2,0,2.2,0.4,2.9,1.2
	c0.7,0.8,1,2,1,3.7v4.7l1.5,0.3v1.9h-6v-1.9l1.4-0.3v-4.7c0-0.9-0.2-1.5-0.5-1.9s-0.8-0.6-1.4-0.6c-0.4,0-0.8,0.1-1.1,0.2
	c-0.3,0.2-0.6,0.4-0.8,0.7v6.3l1.4,0.3v1.9h-6L137.2,265.9L137.2,265.9z"/>
<path class="st1" d="M158.7,267.8c-0.1-0.2-0.2-0.4-0.2-0.6c-0.1-0.2-0.1-0.4-0.2-0.6c-0.4,0.4-0.8,0.8-1.4,1
	c-0.5,0.3-1.1,0.4-1.8,0.4c-1.1,0-2-0.3-2.7-0.9s-1-1.5-1-2.5c0-1.1,0.4-1.9,1.3-2.5c0.9-0.6,2.2-0.9,3.8-0.9h1.6V260
	c0-0.6-0.2-1-0.5-1.3s-0.8-0.5-1.4-0.5c-0.4,0-0.7,0-1,0.1s-0.5,0.2-0.7,0.3l-0.2,1.2h-2.4v-2.6c0.6-0.4,1.2-0.7,2-1
	s1.5-0.4,2.4-0.4c1.4,0,2.6,0.4,3.5,1.1s1.3,1.7,1.3,3v4.8c0,0.2,0,0.3,0,0.5s0,0.3,0,0.5l1,0.1v1.9L158.7,267.8L158.7,267.8z
	 M156,265.7c0.5,0,0.9-0.1,1.3-0.3c0.4-0.2,0.7-0.5,0.9-0.8v-1.8h-1.6c-0.7,0-1.2,0.2-1.5,0.5s-0.5,0.7-0.5,1.1s0.1,0.7,0.4,0.9
	C155.2,265.6,155.6,265.7,156,265.7z"/>
<path class="st1" d="M167.7,253.3v2.8h2v2.2h-2v5.9c0,0.5,0.1,0.8,0.3,1s0.4,0.3,0.8,0.3c0.2,0,0.4,0,0.6,0c0.2,0,0.3,0,0.5-0.1
	l0.3,2.3c-0.4,0.1-0.7,0.2-1,0.2c-0.3,0.1-0.7,0.1-1.1,0.1c-1.1,0-1.9-0.3-2.5-0.9s-0.9-1.5-0.9-2.8v-5.9H163v-2.2h1.7v-2.8h3V253.3
	z"/>
<path class="st1" d="M186.1,260.2H184l-0.3-1.5c-0.2-0.2-0.5-0.3-0.8-0.4s-0.7-0.2-1.1-0.2c-0.6,0-1,0.1-1.3,0.4
	c-0.3,0.2-0.5,0.6-0.5,0.9c0,0.4,0.2,0.6,0.5,0.9c0.3,0.2,0.9,0.4,1.8,0.6c1.4,0.3,2.5,0.7,3.2,1.3c0.7,0.6,1,1.3,1,2.3
	s-0.5,1.9-1.3,2.6c-0.9,0.7-2.1,1-3.5,1c-0.9,0-1.7-0.1-2.5-0.4c-0.7-0.3-1.4-0.6-2-1.1V264h2.2l0.4,1.5c0.2,0.2,0.4,0.3,0.8,0.3
	c0.3,0.1,0.7,0.1,1,0.1c0.6,0,1.1-0.1,1.5-0.3s0.5-0.5,0.5-0.9c0-0.3-0.2-0.6-0.5-0.9s-1-0.5-1.9-0.7c-1.4-0.3-2.4-0.7-3.1-1.2
	c-0.7-0.5-1-1.3-1-2.2c0-1,0.4-1.8,1.2-2.5s1.9-1.1,3.4-1.1c0.9,0,1.8,0.1,2.6,0.4s1.4,0.6,1.9,0.9L186.1,260.2z"/>
<path class="st1" d="M187.7,265.9l1.5-0.3v-12.3l-1.7-0.3v-2h4.8v6.6c0.4-0.5,0.8-1,1.3-1.3s1.1-0.4,1.8-0.4c1.2,0,2.2,0.4,2.9,1.2
	c0.7,0.8,1,2,1,3.7v4.7l1.5,0.3v1.9h-6v-1.9l1.4-0.3v-4.7c0-0.9-0.2-1.5-0.5-1.9s-0.8-0.6-1.4-0.6c-0.4,0-0.8,0.1-1.1,0.2
	c-0.3,0.2-0.6,0.4-0.8,0.7v6.3l1.4,0.3v1.9h-6L187.7,265.9L187.7,265.9z"/>
<path class="st1" d="M201.5,261.9c0-1.7,0.5-3.2,1.5-4.3c1-1.1,2.3-1.7,4-1.7s3.1,0.6,4,1.7c1,1.1,1.5,2.5,1.5,4.3v0.2
	c0,1.7-0.5,3.2-1.5,4.3c-1,1.1-2.3,1.6-4,1.6s-3.1-0.5-4-1.6c-1-1.1-1.5-2.5-1.5-4.3V261.9z M204.6,262.1c0,1.1,0.2,1.9,0.6,2.6
	c0.4,0.6,1,1,1.8,1s1.4-0.3,1.8-1s0.6-1.5,0.6-2.5V262c0-1-0.2-1.9-0.6-2.5c-0.4-0.7-1-1-1.8-1s-1.4,0.3-1.8,1
	c-0.4,0.7-0.6,1.5-0.6,2.5V262.1z"/>
<path class="st1" d="M221.7,266.3c-0.4,0.5-0.8,1-1.4,1.3s-1.2,0.4-1.9,0.4c-1.2,0-2.2-0.4-2.9-1.2c-0.7-0.8-1-2-1-3.7v-4.8
	l-1.3-0.3v-1.9h1.3h3.1v7c0,0.8,0.1,1.5,0.4,1.8c0.3,0.4,0.7,0.6,1.3,0.6c0.5,0,0.9-0.1,1.3-0.2c0.4-0.2,0.7-0.4,0.9-0.7v-6.3
	l-1.4-0.3v-1.9h1.4h3.1v9.4l1.4,0.3v1.9h-4.2L221.7,266.3z"/>
<path class="st1" d="M227,252.9V251h4.8v14.6l1.5,0.3v1.9h-6.2v-1.9l1.5-0.3v-12.3L227,252.9z"/>
<path class="st1" d="M241.7,266.4c-0.4,0.5-0.8,0.9-1.3,1.2c-0.5,0.3-1.1,0.4-1.7,0.4c-1.4,0-2.5-0.5-3.3-1.6
	c-0.8-1-1.2-2.4-1.2-4.1v-0.2c0-1.8,0.4-3.3,1.2-4.4s1.9-1.7,3.4-1.7c0.6,0,1.1,0.1,1.6,0.4c0.5,0.3,0.9,0.6,1.2,1.1v-4.2l-1.7-0.3
	v-2h1.7h3.1v14.6l1.5,0.3v1.9H242L241.7,266.4z M237.3,262.3c0,1,0.2,1.8,0.5,2.4s0.9,0.9,1.7,0.9c0.5,0,0.9-0.1,1.2-0.3
	c0.3-0.2,0.6-0.5,0.8-0.8v-4.9c-0.2-0.4-0.5-0.7-0.8-0.9c-0.3-0.2-0.7-0.3-1.2-0.3c-0.8,0-1.3,0.3-1.7,1s-0.5,1.6-0.5,2.7V262.3z"/>
<path class="st1" d="M263.8,262.3c0,1.7-0.4,3.1-1.2,4.2s-1.9,1.6-3.4,1.6c-0.7,0-1.3-0.1-1.8-0.4s-0.9-0.7-1.3-1.2l-0.2,1.4h-2.7
	v-14.5l-1.7-0.3V251h4.8v6.4c0.3-0.5,0.7-0.8,1.2-1.1c0.5-0.3,1-0.4,1.6-0.4c1.5,0,2.6,0.6,3.4,1.7s1.2,2.6,1.2,4.5L263.8,262.3
	L263.8,262.3z M260.6,262.1c0-1.1-0.2-2-0.5-2.7s-0.9-1-1.7-1c-0.5,0-0.9,0.1-1.2,0.3c-0.3,0.2-0.6,0.5-0.8,0.9v4.9
	c0.2,0.4,0.5,0.6,0.8,0.8c0.3,0.2,0.8,0.3,1.3,0.3c0.8,0,1.4-0.3,1.7-0.9c0.3-0.6,0.5-1.4,0.5-2.4L260.6,262.1L260.6,262.1z"/>
<path class="st1" d="M270.7,268c-1.7,0-3-0.5-4-1.6s-1.5-2.4-1.5-4.1v-0.4c0-1.7,0.5-3.1,1.4-4.3c0.9-1.1,2.2-1.7,3.8-1.7
	c1.6,0,2.8,0.5,3.7,1.4c0.9,0.9,1.3,2.2,1.3,3.8v1.7h-6.9v0.1c0.1,0.8,0.3,1.4,0.8,1.9s1.1,0.7,1.9,0.7c0.7,0,1.3-0.1,1.7-0.2
	c0.5-0.1,1-0.4,1.5-0.7l0.8,1.9c-0.5,0.4-1.1,0.7-1.9,1S271.6,268,270.7,268z M270.4,258.4c-0.6,0-1,0.2-1.4,0.7
	c-0.3,0.4-0.5,1-0.6,1.8v0.1h3.8v-0.3c0-0.7-0.2-1.2-0.5-1.6C271.5,258.6,271.1,258.4,270.4,258.4z"/>
<path class="st1" d="M282.5,265.9l1.5-0.3v-7.2l-1.7-0.3v-1.9h4.6l0.1,1.7c0.3-0.6,0.6-1.1,1.1-1.4s0.9-0.5,1.5-0.5
	c0.2,0,0.3,0,0.5,0s0.3,0.1,0.5,0.1l-0.3,2.9H289c-0.5,0-0.8,0.1-1.1,0.3s-0.5,0.4-0.7,0.8v5.7l1.5,0.3v1.9h-6.1v-2.1H282.5z"/>
<path class="st1" d="M296.8,268c-1.7,0-3-0.5-4-1.6s-1.5-2.4-1.5-4.1v-0.4c0-1.7,0.5-3.1,1.4-4.3c0.9-1.1,2.2-1.7,3.8-1.7
	c1.6,0,2.8,0.5,3.7,1.4s1.3,2.2,1.3,3.8v1.7h-6.9v0.1c0.1,0.8,0.3,1.4,0.8,1.9s1.1,0.7,1.9,0.7c0.7,0,1.3-0.1,1.7-0.2
	c0.5-0.1,1-0.4,1.5-0.7l0.8,1.9c-0.5,0.4-1.1,0.7-1.9,1S297.7,268,296.8,268z M296.5,258.4c-0.6,0-1,0.2-1.4,0.7s-0.5,1-0.6,1.8v0.1
	h3.8v-0.3c0-0.7-0.2-1.2-0.5-1.6C297.6,258.6,297.1,258.4,296.5,258.4z"/>
<path class="st1" d="M309.6,262.3h-6.1v-2.4h6.1V262.3z"/>
<path class="st1" d="M310.7,265.9l1.5-0.3v-7.2l-1.7-0.3v-1.9h4.8v9.4l1.5,0.3v1.9h-6.2v-1.9H310.7z M315.3,253.4h-3.1V251h3.1
	V253.4z"/>
<path class="st1" d="M317.9,265.9l1.5-0.3v-7.2l-1.7-0.3v-1.9h4.6l0.1,1.7c0.4-0.6,0.9-1.1,1.4-1.4s1.2-0.5,1.9-0.5
	c1.2,0,2.1,0.4,2.8,1.1s1,1.9,1,3.5v5.1l1.5,0.3v1.9h-6V266l1.3-0.3v-5c0-0.8-0.2-1.3-0.5-1.7c-0.3-0.3-0.8-0.5-1.4-0.5
	c-0.4,0-0.8,0.1-1.1,0.3c-0.3,0.2-0.6,0.4-0.8,0.7v6.2l1.3,0.3v1.9h-5.9L317.9,265.9L317.9,265.9z"/>
<path class="st1" d="M336,268.2c0,1.4-0.4,2.4-1.1,3.2c-0.7,0.7-1.7,1.1-3,1.1c-0.3,0-0.6,0-0.8,0s-0.5-0.1-0.7-0.1l0.2-2.4
	c0.2,0,0.3,0.1,0.5,0.1s0.3,0,0.5,0c0.4,0,0.8-0.1,1-0.4s0.3-0.8,0.3-1.4v-9.8l-1.7-0.3v-1.9h4.8L336,268.2L336,268.2z M336,253.4
	h-3.1V251h3.1V253.4z"/>
<path class="st1" d="M343.4,268c-1.7,0-3-0.5-4-1.6s-1.5-2.4-1.5-4.1v-0.4c0-1.7,0.5-3.1,1.4-4.3s2.2-1.7,3.8-1.7
	c1.6,0,2.8,0.5,3.7,1.4c0.9,0.9,1.3,2.2,1.3,3.8v1.7h-6.9v0.1c0.1,0.8,0.3,1.4,0.8,1.9s1.1,0.7,1.9,0.7c0.7,0,1.3-0.1,1.7-0.2
	c0.5-0.1,1-0.4,1.5-0.7l0.8,1.9c-0.5,0.4-1.1,0.7-1.9,1S344.3,268,343.4,268z M343.1,258.4c-0.6,0-1,0.2-1.4,0.7
	c-0.3,0.4-0.5,1-0.6,1.8v0.1h3.8v-0.3c0-0.7-0.2-1.2-0.5-1.6C344.2,258.6,343.7,258.4,343.1,258.4z"/>
<path class="st1" d="M354.9,265.6c0.6,0,1-0.2,1.3-0.5s0.5-0.8,0.5-1.3h2.8v0.1c0,1.2-0.4,2.2-1.3,2.9c-0.9,0.8-2,1.2-3.4,1.2
	c-1.7,0-3.1-0.5-4-1.6s-1.4-2.5-1.4-4.2v-0.3c0-1.7,0.5-3.1,1.4-4.2c1-1.1,2.3-1.7,4.1-1.7c0.9,0,1.8,0.1,2.5,0.4s1.4,0.7,1.9,1.2
	v3.1h-2.5l-0.5-1.8c-0.2-0.1-0.4-0.2-0.6-0.3c-0.2-0.1-0.5-0.1-0.8-0.1c-0.9,0-1.5,0.3-1.9,1s-0.5,1.5-0.5,2.5v0.3
	c0,1,0.2,1.9,0.5,2.5C353.5,265.3,354.1,265.6,354.9,265.6z"/>
<path class="st1" d="M365.6,253.3v2.8h2v2.2h-2v5.9c0,0.5,0.1,0.8,0.3,1s0.4,0.3,0.8,0.3c0.2,0,0.4,0,0.6,0s0.3,0,0.5-0.1l0.3,2.3
	c-0.4,0.1-0.7,0.2-1,0.2c-0.3,0.1-0.7,0.1-1.1,0.1c-1.1,0-1.9-0.3-2.5-0.9s-0.9-1.5-0.9-2.8v-5.9h-1.7v-2.2h1.7v-2.8h3V253.3z"/>
<path class="st1" d="M374.3,268c-1.7,0-3-0.5-4-1.6s-1.5-2.4-1.5-4.1v-0.4c0-1.7,0.5-3.1,1.4-4.3s2.2-1.7,3.8-1.7
	c1.6,0,2.8,0.5,3.7,1.4c0.9,0.9,1.3,2.2,1.3,3.8v1.7h-7v0.1c0.1,0.8,0.3,1.4,0.8,1.9s1.1,0.7,1.9,0.7c0.7,0,1.3-0.1,1.7-0.2
	c0.5-0.1,1-0.4,1.5-0.7l0.8,1.9c-0.5,0.4-1.1,0.7-1.9,1S375.2,268,374.3,268z M374,258.4c-0.6,0-1,0.2-1.4,0.7
	c-0.3,0.4-0.5,1-0.6,1.8v0.1h3.8v-0.3c0-0.7-0.2-1.2-0.5-1.6C375.1,258.6,374.7,258.4,374,258.4z"/>
<path class="st1" d="M388,266.4c-0.4,0.5-0.8,0.9-1.3,1.2c-0.5,0.3-1.1,0.4-1.7,0.4c-1.4,0-2.5-0.5-3.3-1.6s-1.2-2.4-1.2-4.1v-0.2
	c0-1.8,0.4-3.3,1.2-4.4s1.9-1.7,3.4-1.7c0.6,0,1.1,0.1,1.6,0.4c0.5,0.3,0.9,0.6,1.2,1.1v-4.2l-1.7-0.3v-2h1.7h3.1v14.6l1.5,0.3v1.9
	h-4.2L388,266.4z M383.6,262.3c0,1,0.2,1.8,0.5,2.4s0.9,0.9,1.7,0.9c0.5,0,0.9-0.1,1.2-0.3c0.3-0.2,0.6-0.5,0.8-0.8v-4.9
	c-0.2-0.4-0.5-0.7-0.8-0.9c-0.3-0.2-0.7-0.3-1.2-0.3c-0.8,0-1.3,0.3-1.7,1c-0.4,0.7-0.5,1.6-0.5,2.7V262.3z"/>
<path class="st1" d="M404.4,268c-1.7,0-3-0.5-4-1.6s-1.5-2.4-1.5-4.1v-0.4c0-1.7,0.5-3.1,1.4-4.3c0.9-1.1,2.2-1.7,3.8-1.7
	c1.6,0,2.8,0.5,3.7,1.4s1.3,2.2,1.3,3.8v1.7h-6.9v0.1c0.1,0.8,0.3,1.4,0.8,1.9s1.1,0.7,1.9,0.7c0.7,0,1.3-0.1,1.7-0.2
	c0.5-0.1,1-0.4,1.5-0.7l0.8,1.9c-0.5,0.4-1.1,0.7-1.9,1S405.3,268,404.4,268z M404.1,258.4c-0.6,0-1,0.2-1.4,0.7s-0.5,1-0.6,1.8v0.1
	h3.8v-0.3c0-0.7-0.2-1.2-0.5-1.6C405.2,258.6,404.7,258.4,404.1,258.4z"/>
<path class="st1" d="M415.2,258.1l-1.1,0.2l1.5,5.2l0.2,1.1h0.1l0.2-1.1l1.5-5.2l-1.1-0.2v-1.9h5.3v1.9l-1,0.2l-3.4,9.6h-3l-3.4-9.6
	l-1-0.2v-1.9h5.3v1.9H415.2z"/>
<path class="st1" d="M428,268c-1.7,0-3-0.5-4-1.6s-1.5-2.4-1.5-4.1v-0.4c0-1.7,0.5-3.1,1.4-4.3c0.9-1.1,2.2-1.7,3.8-1.7
	c1.6,0,2.8,0.5,3.7,1.4s1.3,2.2,1.3,3.8v1.7h-6.9v0.1c0.1,0.8,0.3,1.4,0.8,1.9s1.1,0.7,1.9,0.7c0.7,0,1.3-0.1,1.7-0.2
	c0.5-0.1,1-0.4,1.5-0.7l0.8,1.9c-0.5,0.4-1.1,0.7-1.9,1S428.9,268,428,268z M427.7,258.4c-0.6,0-1,0.2-1.4,0.7s-0.5,1-0.6,1.8v0.1
	h3.8v-0.3c0-0.7-0.2-1.2-0.5-1.6C428.8,258.6,428.4,258.4,427.7,258.4z"/>
<path class="st1" d="M434,265.9l1.5-0.3v-7.2l-1.7-0.3v-1.9h4.6l0.1,1.7c0.3-0.6,0.6-1.1,1.1-1.4s0.9-0.5,1.5-0.5c0.2,0,0.3,0,0.5,0
	s0.3,0.1,0.5,0.1l-0.3,2.9h-1.3c-0.5,0-0.8,0.1-1.1,0.3s-0.5,0.4-0.7,0.8v5.7l1.5,0.3v1.9H434V265.9z"/>
<path class="st1" d="M455.4,258.1l-1.1,0.2l-4.3,11.3c-0.3,0.8-0.8,1.5-1.3,2.1s-1.4,0.8-2.5,0.8c-0.3,0-0.5,0-0.7-0.1
	s-0.5-0.1-0.8-0.2l0.4-2.3c0.1,0,0.2,0,0.3,0s0.2,0,0.3,0c0.5,0,0.9-0.1,1.2-0.4c0.3-0.3,0.5-0.6,0.6-1l0.4-0.9l-3.7-9.6l-1.1-0.2
	v-1.9h5.7v1.9l-1.3,0.2l1.6,4.6l0.2,0.8h0.1l1.8-5.5l-1.3-0.2v-1.9h5.7v2.3H455.4z"/>
<path class="st1" d="M133.7,279.7v2.8h2v2.2h-2v5.9c0,0.5,0.1,0.8,0.3,1s0.4,0.3,0.8,0.3c0.2,0,0.4,0,0.6,0c0.2,0,0.3,0,0.5-0.1
	l0.3,2.3c-0.4,0.1-0.7,0.2-1,0.2c-0.3,0.1-0.7,0.1-1.1,0.1c-1.1,0-1.9-0.3-2.5-0.9s-0.9-1.5-0.9-2.8v-5.9H129v-2.2h1.7v-2.8h3V279.7
	z"/>
<path class="st1" d="M137.2,292.3l1.5-0.3v-12.3l-1.7-0.3v-1.9h4.8v6.6c0.4-0.5,0.8-1,1.3-1.3s1.1-0.4,1.8-0.4
	c1.2,0,2.2,0.4,2.9,1.2c0.7,0.8,1,2,1,3.7v4.7l1.5,0.3v1.9h-6v-1.9l1.4-0.3v-4.7c0-0.9-0.2-1.5-0.5-1.9s-0.8-0.6-1.4-0.6
	c-0.4,0-0.8,0.1-1.1,0.2c-0.3,0.2-0.6,0.4-0.8,0.7v6.3l1.4,0.3v1.9h-6L137.2,292.3L137.2,292.3z"/>
<path class="st1" d="M151.6,292.3l1.5-0.3v-7.2l-1.7-0.3v-1.9h4.6l0.1,1.7c0.3-0.6,0.6-1.1,1.1-1.4s0.9-0.5,1.5-0.5
	c0.2,0,0.3,0,0.5,0s0.3,0.1,0.5,0.1l-0.3,2.9h-1.3c-0.5,0-0.8,0.1-1.1,0.3s-0.5,0.4-0.7,0.8v5.7l1.5,0.3v1.9h-6.1v-2.1H151.6z"/>
<path class="st1" d="M165.9,294.4c-1.7,0-3-0.5-4-1.6s-1.5-2.4-1.5-4.1v-0.4c0-1.7,0.5-3.1,1.4-4.3c0.9-1.1,2.2-1.7,3.8-1.7
	s2.8,0.5,3.7,1.4s1.3,2.2,1.3,3.8v1.7h-6.9v0.1c0.1,0.8,0.3,1.4,0.8,1.9s1.1,0.7,1.9,0.7c0.7,0,1.3-0.1,1.7-0.2
	c0.5-0.1,1-0.4,1.5-0.7l0.8,1.9c-0.5,0.4-1.1,0.7-1.9,1S166.8,294.4,165.9,294.4z M165.6,284.8c-0.6,0-1,0.2-1.4,0.7
	c-0.3,0.4-0.5,1-0.6,1.8v0.1h3.8V287c0-0.7-0.2-1.2-0.5-1.6C166.7,285,166.2,284.8,165.6,284.8z"/>
<path class="st1" d="M177.5,294.4c-1.7,0-3-0.5-4-1.6s-1.5-2.4-1.5-4.1v-0.4c0-1.7,0.5-3.1,1.4-4.3s2.2-1.7,3.8-1.7s2.8,0.5,3.7,1.4
	s1.3,2.2,1.3,3.8v1.7h-6.9v0.1c0.1,0.8,0.3,1.4,0.8,1.9s1.1,0.7,1.9,0.7c0.7,0,1.3-0.1,1.7-0.2c0.5-0.1,1-0.4,1.5-0.7l0.8,1.9
	c-0.5,0.4-1.1,0.7-1.9,1S178.5,294.4,177.5,294.4z M177.2,284.8c-0.6,0-1,0.2-1.4,0.7c-0.3,0.4-0.5,1-0.6,1.8v0.1h3.8V287
	c0-0.7-0.2-1.2-0.5-1.6C178.3,285,177.9,284.8,177.2,284.8z"/>
<path class="st1" d="M188.7,284.5v-1.9h4.6l0.1,1.5c0.4-0.6,0.8-1,1.4-1.3c0.6-0.3,1.2-0.5,1.9-0.5s1.4,0.2,1.9,0.5s0.9,0.8,1.2,1.5
	c0.4-0.6,0.8-1.1,1.4-1.5c0.6-0.4,1.2-0.5,2-0.5c1.1,0,2,0.4,2.7,1.2c0.7,0.8,1,2,1,3.6v4.8l1.5,0.3v1.9h-6v-1.9l1.4-0.3v-4.8
	c0-0.9-0.1-1.5-0.4-1.8c-0.3-0.3-0.7-0.5-1.3-0.5c-0.4,0-0.8,0.1-1.2,0.3c-0.3,0.2-0.6,0.5-0.8,0.8c0,0.1,0,0.3,0,0.3
	c0,0.1,0,0.2,0,0.3v5.4l1.3,0.3v1.9h-5.7v-1.9l1.3-0.3v-4.8c0-0.9-0.1-1.5-0.4-1.8c-0.3-0.4-0.7-0.5-1.3-0.5c-0.4,0-0.8,0.1-1.1,0.2
	c-0.3,0.2-0.6,0.4-0.8,0.7v6.3l1.4,0.3v1.9h-6v-1.9l1.5-0.3v-7.2L188.7,284.5z"/>
<path class="st1" d="M209.2,288.3c0-1.7,0.5-3.2,1.5-4.3c1-1.1,2.3-1.7,4-1.7s3.1,0.6,4,1.7s1.5,2.5,1.5,4.3v0.2
	c0,1.7-0.5,3.2-1.5,4.3c-1,1.1-2.3,1.6-4,1.6s-3.1-0.5-4-1.6c-1-1.1-1.5-2.5-1.5-4.3V288.3z M212.3,288.5c0,1.1,0.2,1.9,0.6,2.6
	c0.4,0.6,1,1,1.8,1s1.4-0.3,1.8-1s0.6-1.5,0.6-2.5v-0.2c0-1-0.2-1.9-0.6-2.5c-0.4-0.7-1-1-1.8-1s-1.4,0.3-1.8,1
	c-0.4,0.7-0.6,1.5-0.6,2.5V288.5z"/>
<path class="st1" d="M221.1,292.3l1.5-0.3v-7.2l-1.7-0.3v-1.9h4.6l0.1,1.7c0.4-0.6,0.9-1.1,1.4-1.4c0.6-0.3,1.2-0.5,1.9-0.5
	c1.2,0,2.1,0.4,2.8,1.1s1,1.9,1,3.5v5.1l1.5,0.3v1.9h-6v-1.9l1.3-0.3v-5c0-0.8-0.2-1.3-0.5-1.7c-0.3-0.3-0.8-0.5-1.4-0.5
	c-0.4,0-0.8,0.1-1.1,0.3c-0.3,0.2-0.6,0.4-0.8,0.7v6.2l1.3,0.3v1.9h-5.9L221.1,292.3L221.1,292.3z"/>
<path class="st1" d="M239.2,279.7v2.8h2v2.2h-2v5.9c0,0.5,0.1,0.8,0.3,1s0.4,0.3,0.8,0.3c0.2,0,0.4,0,0.6,0c0.2,0,0.3,0,0.5-0.1
	l0.3,2.3c-0.4,0.1-0.7,0.2-1,0.2c-0.3,0.1-0.7,0.1-1.1,0.1c-1.1,0-1.9-0.3-2.5-0.9s-0.9-1.5-0.9-2.8v-5.9h-1.7v-2.2h1.7v-2.8h3
	V279.7z"/>
<path class="st1" d="M242.7,292.3l1.5-0.3v-12.3l-1.7-0.3v-1.9h4.8v6.6c0.4-0.5,0.8-1,1.3-1.3s1.1-0.4,1.8-0.4
	c1.2,0,2.2,0.4,2.9,1.2c0.7,0.8,1,2,1,3.7v4.7l1.5,0.3v1.9h-6v-1.9l1.4-0.3v-4.7c0-0.9-0.2-1.5-0.5-1.9s-0.8-0.6-1.4-0.6
	c-0.4,0-0.8,0.1-1.1,0.2c-0.3,0.2-0.6,0.4-0.8,0.7v6.3l1.4,0.3v1.9h-6L242.7,292.3L242.7,292.3z"/>
<path class="st1" d="M266.2,286.6h-2.1l-0.3-1.5c-0.2-0.2-0.5-0.3-0.8-0.4s-0.7-0.2-1.1-0.2c-0.6,0-1,0.1-1.3,0.4
	c-0.3,0.2-0.5,0.6-0.5,0.9c0,0.4,0.2,0.6,0.5,0.9c0.3,0.2,0.9,0.4,1.8,0.6c1.4,0.3,2.5,0.7,3.2,1.3c0.7,0.6,1,1.3,1,2.3
	s-0.4,1.9-1.3,2.6s-2.1,1-3.6,1c-0.9,0-1.7-0.1-2.5-0.4c-0.7-0.3-1.4-0.6-2-1.1v-2.6h2.2l0.4,1.5c0.2,0.2,0.4,0.3,0.8,0.3
	c0.3,0.1,0.7,0.1,1,0.1c0.6,0,1.1-0.1,1.5-0.3s0.5-0.5,0.5-0.9c0-0.3-0.2-0.6-0.5-0.9s-1-0.5-1.9-0.7c-1.4-0.3-2.4-0.7-3.1-1.2
	s-1-1.3-1-2.2c0-1,0.4-1.8,1.2-2.5c0.8-0.7,1.9-1.1,3.4-1.1c0.9,0,1.8,0.1,2.6,0.4s1.4,0.6,1.9,0.9L266.2,286.6z"/>
<path class="st1" d="M271.7,294.2h-3.1v-2.8h3.1V294.2z"/>
<path class="st1" d="M162.7,331.4v4.2h-2.4l-0.1-1.8h-2.9v11l1.7,0.3v1.9h-6.5v-1.9l1.7-0.3v-11h-2.9l-0.1,1.8h-2.4v-4.2H162.7z"/>
<path class="st1" d="M163.9,345.1l1.5-0.3v-12.3l-1.7-0.3v-1.9h4.8v6.6c0.4-0.5,0.8-1,1.3-1.3s1.1-0.4,1.8-0.4
	c1.2,0,2.2,0.4,2.9,1.2c0.7,0.8,1,2,1,3.7v4.7l1.5,0.3v1.9h-6v-1.9l1.4-0.3v-4.7c0-0.9-0.2-1.5-0.5-1.9s-0.8-0.6-1.4-0.6
	c-0.4,0-0.8,0.1-1.1,0.2c-0.3,0.2-0.6,0.4-0.8,0.7v6.3l1.4,0.3v1.9h-6L163.9,345.1L163.9,345.1z"/>
<path class="st1" d="M183.3,347.2c-1.7,0-3-0.5-4-1.6s-1.5-2.4-1.5-4.1v-0.4c0-1.7,0.5-3.1,1.4-4.3s2.2-1.7,3.8-1.7s2.8,0.5,3.7,1.4
	s1.3,2.2,1.3,3.8v1.7h-7v0.1c0.1,0.8,0.3,1.4,0.8,1.9s1.1,0.7,1.9,0.7c0.7,0,1.3-0.1,1.7-0.2c0.5-0.1,1-0.4,1.5-0.7l0.8,1.9
	c-0.5,0.4-1.1,0.7-1.9,1S184.2,347.2,183.3,347.2z M183,337.6c-0.6,0-1,0.2-1.4,0.7c-0.3,0.4-0.5,1-0.6,1.8v0.1h3.8v-0.3
	c0-0.7-0.2-1.2-0.5-1.6C184.1,337.8,183.6,337.6,183,337.6z"/>
<path class="st1" d="M204.3,339.4h-2.1l-0.3-1.5c-0.2-0.2-0.5-0.3-0.8-0.4s-0.7-0.2-1.1-0.2c-0.6,0-1,0.1-1.3,0.4
	c-0.3,0.2-0.5,0.6-0.5,0.9c0,0.4,0.2,0.6,0.5,0.9c0.3,0.2,0.9,0.4,1.8,0.6c1.4,0.3,2.5,0.7,3.2,1.3c0.7,0.6,1,1.3,1,2.3
	s-0.4,1.9-1.3,2.6c-0.9,0.7-2.1,1-3.6,1c-0.9,0-1.7-0.1-2.5-0.4c-0.7-0.3-1.4-0.6-2-1.1v-2.6h2.2l0.4,1.5c0.2,0.2,0.4,0.3,0.8,0.3
	c0.3,0.1,0.7,0.1,1,0.1c0.6,0,1.1-0.1,1.5-0.3s0.5-0.5,0.5-0.9c0-0.3-0.2-0.6-0.5-0.9s-1-0.5-1.9-0.7c-1.4-0.3-2.4-0.7-3.1-1.2
	c-0.7-0.5-1-1.3-1-2.2c0-1,0.4-1.8,1.2-2.5s1.9-1.1,3.4-1.1c0.9,0,1.8,0.1,2.6,0.4s1.4,0.6,1.9,0.9L204.3,339.4z"/>
<path class="st1" d="M205.9,345.1l1.5-0.3v-12.3l-1.7-0.3v-1.9h4.8v6.6c0.4-0.5,0.8-1,1.3-1.3s1.1-0.4,1.8-0.4
	c1.2,0,2.2,0.4,2.9,1.2c0.7,0.8,1,2,1,3.7v4.7l1.5,0.3v1.9h-6v-1.9l1.4-0.3v-4.7c0-0.9-0.2-1.5-0.5-1.9s-0.8-0.6-1.4-0.6
	c-0.4,0-0.8,0.1-1.1,0.2c-0.3,0.2-0.6,0.4-0.8,0.7v6.3l1.4,0.3v1.9h-6L205.9,345.1L205.9,345.1z"/>
<path class="st1" d="M219.7,341.1c0-1.7,0.5-3.2,1.5-4.3c1-1.1,2.3-1.7,4-1.7s3.1,0.6,4,1.7c1,1.1,1.5,2.5,1.5,4.3v0.2
	c0,1.7-0.5,3.2-1.5,4.3c-1,1.1-2.3,1.6-4,1.6s-3.1-0.5-4-1.6c-1-1.1-1.5-2.5-1.5-4.3V341.1z M222.8,341.3c0,1.1,0.2,1.9,0.6,2.6
	c0.4,0.6,1,1,1.8,1s1.4-0.3,1.8-1s0.6-1.5,0.6-2.5v-0.2c0-1-0.2-1.9-0.6-2.5c-0.4-0.7-1-1-1.8-1s-1.4,0.3-1.8,1
	c-0.4,0.7-0.6,1.5-0.6,2.5V341.3z"/>
<path class="st1" d="M236.3,332.5v2.8h2v2.2h-2v5.9c0,0.5,0.1,0.8,0.3,1s0.4,0.3,0.8,0.3c0.2,0,0.4,0,0.6,0c0.2,0,0.3,0,0.5-0.1
	l0.3,2.3c-0.4,0.1-0.7,0.2-1,0.2c-0.3,0.1-0.7,0.1-1.1,0.1c-1.1,0-1.9-0.3-2.5-0.9s-0.9-1.5-0.9-2.8v-5.9h-1.7v-2.2h1.7v-2.8h3
	V332.5z"/>
<path class="st1" d="M245.2,345.1l1.5-0.3v-7.2l-1.7-0.3v-1.9h4.8v9.4l1.5,0.3v1.9h-6.2L245.2,345.1L245.2,345.1z M249.9,332.6h-3.1
	v-2.4h3.1V332.6z"/>
<path class="st1" d="M261.7,339.4h-2.1l-0.3-1.5c-0.2-0.2-0.5-0.3-0.8-0.4s-0.7-0.2-1.1-0.2c-0.6,0-1,0.1-1.3,0.4
	c-0.3,0.2-0.5,0.6-0.5,0.9c0,0.4,0.2,0.6,0.5,0.9c0.3,0.2,0.9,0.4,1.8,0.6c1.4,0.3,2.5,0.7,3.2,1.3c0.7,0.6,1,1.3,1,2.3
	s-0.4,1.9-1.3,2.6s-2.1,1-3.6,1c-0.9,0-1.7-0.1-2.5-0.4c-0.7-0.3-1.4-0.6-2-1.1v-2.6h2.2l0.4,1.5c0.2,0.2,0.4,0.3,0.8,0.3
	c0.3,0.1,0.7,0.1,1,0.1c0.6,0,1.1-0.1,1.5-0.3s0.5-0.5,0.5-0.9c0-0.3-0.2-0.6-0.5-0.9s-1-0.5-1.9-0.7c-1.4-0.3-2.4-0.7-3.1-1.2
	c-0.7-0.5-1-1.3-1-2.2c0-1,0.4-1.8,1.2-2.5s1.9-1.1,3.4-1.1c0.9,0,1.8,0.1,2.6,0.4s1.4,0.6,1.9,0.9L261.7,339.4z"/>
<path class="st1" d="M273.7,344.8c0.8,0,1.5-0.3,2-1c0.5-0.6,0.8-1.6,0.8-2.9v-0.2c-0.4,0.5-0.8,0.8-1.3,1s-1,0.3-1.6,0.3
	c-1.5,0-2.6-0.5-3.4-1.4c-0.8-1-1.2-2.3-1.2-4c0-1.6,0.5-2.9,1.5-4s2.2-1.6,3.8-1.6c1.6,0,2.9,0.5,3.9,1.6s1.5,2.6,1.5,4.6v3.4
	c0,2-0.6,3.6-1.7,4.7s-2.5,1.7-4.3,1.7c-0.5,0-1.1-0.1-1.7-0.2s-1.1-0.3-1.6-0.5l0.4-2.3c0.5,0.2,0.9,0.3,1.4,0.4
	C272.6,344.8,273.1,344.8,273.7,344.8z M274.2,339.8c0.5,0,1-0.1,1.4-0.3c0.4-0.2,0.7-0.5,0.9-0.8V337c0-1.1-0.2-2-0.6-2.6
	s-0.9-0.9-1.6-0.9c-0.6,0-1.1,0.3-1.5,0.9s-0.6,1.4-0.6,2.2c0,0.9,0.2,1.7,0.5,2.3S273.5,339.8,274.2,339.8z"/>
<path class="st1" d="M290.5,341.2h1.8v2.1h-1.8v1.5l1.7,0.3v1.9h-6.5v-1.9l1.7-0.3v-1.5H281l-0.2-1.5l6.5-10.4h3.2V341.2z
	 M283.8,341.2h3.6v-5.6h-0.1l-0.3,0.5L283.8,341.2z"/>
<path class="st1" d="M292.8,334.4c0-0.9,0.3-1.7,0.9-2.3s1.4-0.9,2.5-0.9s1.9,0.3,2.5,0.9s0.9,1.4,0.9,2.3v0.8
	c0,0.9-0.3,1.7-0.9,2.3c-0.6,0.6-1.4,0.9-2.5,0.9s-1.9-0.3-2.5-0.9s-0.9-1.4-0.9-2.3V334.4z M294.9,335.2c0,0.4,0.1,0.8,0.3,1
	c0.2,0.3,0.6,0.4,1,0.4s0.7-0.1,1-0.4c0.2-0.3,0.3-0.6,0.3-1v-0.8c0-0.4-0.1-0.8-0.3-1.1c-0.2-0.3-0.6-0.4-1-0.4s-0.7,0.1-1,0.4
	c-0.2,0.3-0.3,0.6-0.3,1.1V335.2z M297.1,345.8l-1.5-0.8l7.6-12.2l1.5,0.8L297.1,345.8z M300.2,343.2c0-0.9,0.3-1.7,0.9-2.3
	s1.4-0.9,2.5-0.9s1.9,0.3,2.5,0.9s0.9,1.4,0.9,2.3v0.8c0,0.9-0.3,1.7-0.9,2.3c-0.6,0.6-1.4,0.9-2.5,0.9s-1.9-0.3-2.5-0.9
	s-0.9-1.4-0.9-2.3V343.2z M302.3,344c0,0.4,0.1,0.8,0.4,1c0.2,0.3,0.6,0.4,1,0.4c0.5,0,0.8-0.1,1-0.4s0.3-0.6,0.3-1.1v-0.8
	c0-0.4-0.1-0.8-0.3-1c-0.2-0.3-0.6-0.4-1-0.4s-0.8,0.1-1,0.4s-0.3,0.6-0.3,1v0.9H302.3z"/>
<path class="st1" d="M319.2,347.2c-1.7,0-3-0.5-4-1.6s-1.5-2.4-1.5-4.1v-0.4c0-1.7,0.5-3.1,1.4-4.3s2.2-1.7,3.8-1.7
	c1.6,0,2.8,0.5,3.7,1.4c0.9,0.9,1.3,2.2,1.3,3.8v1.7H317v0.1c0.1,0.8,0.3,1.4,0.8,1.9s1.1,0.7,1.9,0.7c0.7,0,1.3-0.1,1.7-0.2
	c0.5-0.1,1-0.4,1.5-0.7l0.8,1.9c-0.5,0.4-1.1,0.7-1.9,1S320.2,347.2,319.2,347.2z M318.9,337.6c-0.6,0-1,0.2-1.4,0.7
	c-0.3,0.4-0.5,1-0.6,1.8v0.1h3.8v-0.3c0-0.7-0.2-1.2-0.5-1.6C320,337.8,319.6,337.6,318.9,337.6z"/>
<path class="st1" d="M325.2,345.1l1.5-0.3v-7.2H325v-2.2h1.7v-1.3c0-1.3,0.4-2.3,1.1-3c0.8-0.7,1.8-1.1,3.2-1.1c0.3,0,0.5,0,0.8,0.1
	c0.3,0,0.6,0.1,0.9,0.2l-0.3,2.3c-0.2,0-0.3-0.1-0.5-0.1s-0.3,0-0.6,0c-0.5,0-0.9,0.1-1.2,0.4c-0.3,0.3-0.4,0.7-0.4,1.2v1.3h2.3v2.2
	h-2.3v7.2l1.5,0.3v1.9H325v-1.9H325.2z"/>
<path class="st1" d="M333.5,345.1l1.5-0.3v-7.2h-1.7v-2.2h1.7v-1.3c0-1.3,0.4-2.3,1.1-3c0.8-0.7,1.8-1.1,3.2-1.1
	c0.3,0,0.5,0,0.8,0.1c0.3,0,0.6,0.1,0.9,0.2l-0.3,2.3c-0.2,0-0.3-0.1-0.5-0.1s-0.3,0-0.6,0c-0.5,0-0.9,0.1-1.2,0.4
	c-0.3,0.3-0.4,0.7-0.4,1.2v1.3h2.3v2.2H338v7.2l1.5,0.3v1.9h-6.2v-1.9H333.5z"/>
<path class="st1" d="M346.8,347.2c-1.7,0-3-0.5-4-1.6s-1.5-2.4-1.5-4.1v-0.4c0-1.7,0.5-3.1,1.4-4.3c0.9-1.1,2.2-1.7,3.8-1.7
	c1.6,0,2.8,0.5,3.7,1.4s1.3,2.2,1.3,3.8v1.7h-6.9v0.1c0.1,0.8,0.3,1.4,0.8,1.9s1.1,0.7,1.9,0.7c0.7,0,1.3-0.1,1.7-0.2
	c0.5-0.1,1-0.4,1.5-0.7l0.8,1.9c-0.5,0.4-1.1,0.7-1.9,1S347.8,347.2,346.8,347.2z M346.6,337.6c-0.6,0-1,0.2-1.4,0.7s-0.5,1-0.6,1.8
	v0.1h3.8v-0.3c0-0.7-0.2-1.2-0.5-1.6C347.7,337.8,347.2,337.6,346.6,337.6z"/>
<path class="st1" d="M358.4,344.8c0.6,0,1-0.2,1.3-0.5s0.5-0.8,0.5-1.3h2.8v0.1c0,1.2-0.4,2.2-1.3,2.9c-0.9,0.8-2,1.2-3.4,1.2
	c-1.7,0-3.1-0.5-4-1.6s-1.4-2.5-1.4-4.2V341c0-1.7,0.5-3.1,1.4-4.2c1-1.1,2.3-1.7,4.1-1.7c0.9,0,1.8,0.1,2.5,0.4s1.4,0.7,1.9,1.2
	v3.1h-2.5l-0.5-1.8c-0.2-0.1-0.4-0.2-0.6-0.3c-0.2-0.1-0.5-0.1-0.8-0.1c-0.9,0-1.5,0.3-1.9,1s-0.5,1.5-0.5,2.5v0.3
	c0,1,0.2,1.9,0.5,2.5C356.9,344.5,357.5,344.8,358.4,344.8z"/>
<path class="st1" d="M369,332.5v2.8h2v2.2h-2v5.9c0,0.5,0.1,0.8,0.3,1c0.2,0.2,0.4,0.3,0.8,0.3c0.2,0,0.4,0,0.6,0s0.3,0,0.5-0.1
	l0.3,2.3c-0.4,0.1-0.7,0.2-1,0.2c-0.3,0.1-0.7,0.1-1.1,0.1c-1.1,0-1.9-0.3-2.5-0.9s-0.9-1.5-0.9-2.8v-5.9h-1.7v-2.2h1.7v-2.8h3
	V332.5z"/>
<path class="st1" d="M372.6,345.1l1.5-0.3v-7.2l-1.7-0.3v-1.9h4.8v9.4l1.5,0.3v1.9h-6.2v-1.9H372.6z M377.2,332.6h-3.1v-2.4h3.1
	V332.6z"/>
<path class="st1" d="M384.2,337.3l-1.1,0.2l1.5,5.2l0.2,1.1h0.1l0.2-1.1l1.5-5.2l-1.1-0.2v-1.9h5.3v1.9l-1,0.2l-3.4,9.6h-3l-3.4-9.6
	l-1-0.2v-1.9h5.3v1.9H384.2z"/>
<path class="st1" d="M397,347.2c-1.7,0-3-0.5-4-1.6s-1.5-2.4-1.5-4.1v-0.4c0-1.7,0.5-3.1,1.4-4.3c0.9-1.1,2.2-1.7,3.8-1.7
	c1.6,0,2.8,0.5,3.7,1.4c0.9,0.9,1.3,2.2,1.3,3.8v1.7h-6.9v0.1c0.1,0.8,0.3,1.4,0.8,1.9s1.1,0.7,1.9,0.7c0.7,0,1.3-0.1,1.7-0.2
	c0.5-0.1,1-0.4,1.5-0.7l0.8,1.9c-0.5,0.4-1.1,0.7-1.9,1C398.8,347.1,398,347.2,397,347.2z M396.8,337.6c-0.6,0-1,0.2-1.4,0.7
	c-0.3,0.4-0.5,1-0.6,1.8v0.1h3.8v-0.3c0-0.7-0.2-1.2-0.5-1.6C397.9,337.8,397.4,337.6,396.8,337.6z"/>
<path class="st1" d="M408.5,345.1l1.5-0.3v-7.2l-1.7-0.3v-1.9h4.8v9.4l1.5,0.3v1.9h-6.2v-1.9H408.5z M413.1,332.6H410v-2.4h3.1
	V332.6z"/>
<path class="st1" d="M415.7,345.1l1.5-0.3v-7.2l-1.7-0.3v-1.9h4.6l0.1,1.7c0.4-0.6,0.9-1.1,1.4-1.4c0.6-0.3,1.2-0.5,1.9-0.5
	c1.2,0,2.1,0.4,2.8,1.1c0.7,0.7,1,1.9,1,3.5v5.1l1.5,0.3v1.9h-6v-1.9l1.3-0.3v-5c0-0.8-0.2-1.3-0.5-1.7c-0.3-0.3-0.8-0.5-1.4-0.5
	c-0.4,0-0.8,0.1-1.1,0.3c-0.3,0.2-0.6,0.4-0.8,0.7v6.2l1.3,0.3v1.9h-5.9L415.7,345.1L415.7,345.1z"/>
<path class="st1" d="M128.8,363.7v-1.9h4.6l0.2,1.4c0.3-0.5,0.8-0.9,1.2-1.2c0.5-0.3,1-0.4,1.7-0.4c1.4,0,2.6,0.6,3.4,1.7
	s1.2,2.6,1.2,4.4v0.2c0,1.7-0.4,3.1-1.2,4.1s-1.9,1.6-3.3,1.6c-0.6,0-1.1-0.1-1.6-0.3c-0.5-0.2-0.9-0.6-1.2-1v3.4l1.5,0.3v1.9H129
	V376l1.5-0.3V364L128.8,363.7z M137.8,367.7c0-1.1-0.2-2-0.5-2.7s-0.9-1-1.7-1c-0.5,0-0.9,0.1-1.2,0.3s-0.6,0.5-0.8,0.8v5.1
	c0.2,0.3,0.5,0.6,0.8,0.8s0.7,0.3,1.2,0.3c0.8,0,1.3-0.3,1.7-0.9s0.5-1.4,0.5-2.4V367.7z"/>
<path class="st1" d="M142.2,371.5l1.5-0.3V364l-1.7-0.3v-1.9h4.6l0.1,1.7c0.3-0.6,0.6-1.1,1.1-1.4s0.9-0.5,1.5-0.5
	c0.2,0,0.3,0,0.5,0s0.3,0.1,0.5,0.1l-0.3,2.9h-1.3c-0.5,0-0.8,0.1-1.1,0.3s-0.5,0.4-0.7,0.8v5.7l1.5,0.3v1.9h-6.1v-2.1H142.2z"/>
<path class="st1" d="M156.4,373.6c-1.7,0-3-0.5-4-1.6s-1.5-2.4-1.5-4.1v-0.4c0-1.7,0.5-3.1,1.4-4.3c0.9-1.1,2.2-1.7,3.8-1.7
	s2.8,0.5,3.7,1.4s1.3,2.2,1.3,3.8v1.7h-6.9v0.1c0.1,0.8,0.3,1.4,0.8,1.9s1.1,0.7,1.9,0.7c0.7,0,1.3-0.1,1.7-0.2
	c0.5-0.1,1-0.4,1.5-0.7l0.8,1.9c-0.5,0.4-1.1,0.7-1.9,1S157.3,373.6,156.4,373.6z M156.1,364c-0.6,0-1,0.2-1.4,0.7s-0.5,1-0.6,1.8
	v0.1h3.8v-0.3c0-0.7-0.2-1.2-0.5-1.6C157.2,364.2,156.7,364,156.1,364z"/>
<path class="st1" d="M167.3,363.7l-1.1,0.2l1.5,5.2l0.2,1.1h0.1l0.2-1.1l1.5-5.2l-1.1-0.2v-1.9h5.3v1.9l-1,0.2l-3.4,9.6h-3l-3.4-9.6
	l-1-0.2v-1.9h5.3v1.9H167.3z"/>
<path class="st1" d="M180.1,373.6c-1.7,0-3-0.5-4-1.6s-1.5-2.4-1.5-4.1v-0.4c0-1.7,0.5-3.1,1.4-4.3c0.9-1.1,2.2-1.7,3.8-1.7
	s2.8,0.5,3.7,1.4s1.3,2.2,1.3,3.8v1.7h-6.9v0.1c0.1,0.8,0.3,1.4,0.8,1.9s1.1,0.7,1.9,0.7c0.7,0,1.3-0.1,1.7-0.2
	c0.5-0.1,1-0.4,1.5-0.7l0.8,1.9c-0.5,0.4-1.1,0.7-1.9,1S181.1,373.6,180.1,373.6z M179.9,364c-0.6,0-1,0.2-1.4,0.7
	c-0.3,0.4-0.5,1-0.6,1.8v0.1h3.8v-0.3c0-0.7-0.2-1.2-0.5-1.6C181,364.2,180.5,364,179.9,364z"/>
<path class="st1" d="M185.9,371.5l1.5-0.3V364l-1.7-0.3v-1.9h4.6l0.1,1.7c0.4-0.6,0.9-1.1,1.4-1.4c0.6-0.3,1.2-0.5,1.9-0.5
	c1.2,0,2.1,0.4,2.8,1.1s1,1.9,1,3.5v5.1l1.5,0.3v1.9h-6v-1.9l1.3-0.3v-5c0-0.8-0.2-1.3-0.5-1.7c-0.3-0.3-0.8-0.5-1.4-0.5
	c-0.4,0-0.8,0.1-1.1,0.3c-0.3,0.2-0.6,0.4-0.8,0.7v6.2l1.3,0.3v1.9h-5.9L185.9,371.5L185.9,371.5z"/>
<path class="st1" d="M204.1,358.9v2.8h2v2.2h-2v5.9c0,0.5,0.1,0.8,0.3,1s0.4,0.3,0.8,0.3c0.2,0,0.4,0,0.6,0c0.2,0,0.3,0,0.5-0.1
	l0.3,2.3c-0.4,0.1-0.7,0.2-1,0.2c-0.3,0.1-0.7,0.1-1.1,0.1c-1.1,0-1.9-0.3-2.5-0.9s-0.9-1.5-0.9-2.8V364h-1.7v-2.2h1.7V359h3V358.9z
	"/>
<path class="st1" d="M207.6,371.5l1.5-0.3V364l-1.7-0.3v-1.9h4.8v9.4l1.5,0.3v1.9h-6.2L207.6,371.5L207.6,371.5z M212.3,359h-3.1
	v-2.4h3.1V359z"/>
<path class="st1" d="M214.8,371.5l1.5-0.3V364l-1.7-0.3v-1.9h4.6l0.1,1.7c0.4-0.6,0.9-1.1,1.4-1.4c0.6-0.3,1.2-0.5,1.9-0.5
	c1.2,0,2.1,0.4,2.8,1.1s1,1.9,1,3.5v5.1l1.5,0.3v1.9h-6v-1.9l1.3-0.3v-5c0-0.8-0.2-1.3-0.5-1.7c-0.3-0.3-0.8-0.5-1.4-0.5
	c-0.4,0-0.8,0.1-1.1,0.3c-0.3,0.2-0.6,0.4-0.8,0.7v6.2l1.3,0.3v1.9h-5.9L214.8,371.5L214.8,371.5z"/>
<path class="st1" d="M228.9,367.7c0-1.8,0.4-3.3,1.2-4.4s1.9-1.7,3.4-1.7c0.7,0,1.2,0.1,1.7,0.4s0.9,0.7,1.3,1.2l0.2-1.5h2.7V373
	c0,1.5-0.5,2.8-1.4,3.7c-1,0.9-2.3,1.4-4,1.4c-0.6,0-1.2-0.1-1.9-0.2c-0.7-0.2-1.3-0.4-1.8-0.7l0.6-2.2c0.5,0.2,1,0.4,1.5,0.5
	s1,0.2,1.6,0.2c0.8,0,1.3-0.2,1.7-0.7s0.6-1.1,0.6-1.9v-0.8c-0.3,0.4-0.7,0.8-1.2,1s-1,0.3-1.6,0.3c-1.4,0-2.5-0.5-3.3-1.6
	c-0.8-1-1.2-2.4-1.2-4.1v-0.2H228.9z M232,367.9c0,1,0.2,1.8,0.5,2.4s0.9,0.9,1.7,0.9c0.5,0,0.9-0.1,1.2-0.3
	c0.3-0.2,0.6-0.4,0.8-0.8v-5c-0.2-0.4-0.5-0.6-0.8-0.8s-0.7-0.3-1.2-0.3c-0.8,0-1.3,0.3-1.7,1s-0.5,1.6-0.5,2.7V367.9z"/>
<path class="st1" d="M246.4,363.7v-1.9h4.6l0.2,1.4c0.3-0.5,0.8-0.9,1.2-1.2c0.5-0.3,1-0.4,1.7-0.4c1.4,0,2.6,0.6,3.4,1.7
	s1.2,2.6,1.2,4.4v0.2c0,1.7-0.4,3.1-1.2,4.1s-1.9,1.6-3.3,1.6c-0.6,0-1.1-0.1-1.6-0.3c-0.5-0.2-0.9-0.6-1.2-1v3.4l1.5,0.3v1.9h-6.2
	V376l1.5-0.3V364L246.4,363.7z M255.4,367.7c0-1.1-0.2-2-0.5-2.7s-0.9-1-1.7-1c-0.5,0-0.9,0.1-1.2,0.3s-0.6,0.5-0.8,0.8v5.1
	c0.2,0.3,0.5,0.6,0.8,0.8s0.7,0.3,1.2,0.3c0.8,0,1.3-0.3,1.7-0.9s0.5-1.4,0.5-2.4V367.7z"/>
<path class="st1" d="M259.8,371.5l1.5-0.3V364l-1.7-0.3v-1.9h4.6l0.1,1.7c0.3-0.6,0.6-1.1,1.1-1.4s0.9-0.5,1.5-0.5
	c0.2,0,0.3,0,0.5,0s0.3,0.1,0.5,0.1l-0.3,2.9h-1.3c-0.5,0-0.8,0.1-1.1,0.3s-0.5,0.4-0.7,0.8v5.7l1.5,0.3v1.9h-6.1v-2.1H259.8z"/>
<path class="st1" d="M274.1,373.6c-1.7,0-3-0.5-4-1.6s-1.5-2.4-1.5-4.1v-0.4c0-1.7,0.5-3.1,1.4-4.3c0.9-1.1,2.2-1.7,3.8-1.7
	c1.6,0,2.8,0.5,3.7,1.4c0.9,0.9,1.3,2.2,1.3,3.8v1.7h-6.9v0.1c0.1,0.8,0.3,1.4,0.8,1.9s1.1,0.7,1.9,0.7c0.7,0,1.3-0.1,1.7-0.2
	c0.5-0.1,1-0.4,1.5-0.7l0.8,1.9c-0.5,0.4-1.1,0.7-1.9,1S275,373.6,274.1,373.6z M273.8,364c-0.6,0-1,0.2-1.4,0.7
	c-0.3,0.4-0.5,1-0.6,1.8v0.1h3.8v-0.3c0-0.7-0.2-1.2-0.5-1.6C274.9,364.2,274.4,364,273.8,364z"/>
<path class="st1" d="M280.3,367.7c0-1.8,0.4-3.3,1.2-4.4c0.8-1.1,1.9-1.7,3.4-1.7c0.7,0,1.2,0.1,1.7,0.4s0.9,0.7,1.3,1.2l0.2-1.5
	h2.7V373c0,1.5-0.5,2.8-1.4,3.7c-1,0.9-2.3,1.4-4,1.4c-0.6,0-1.2-0.1-1.9-0.2c-0.7-0.2-1.3-0.4-1.8-0.7l0.6-2.2
	c0.5,0.2,1,0.4,1.5,0.5s1,0.2,1.6,0.2c0.8,0,1.3-0.2,1.7-0.7c0.4-0.5,0.6-1.1,0.6-1.9v-0.8c-0.3,0.4-0.7,0.8-1.2,1s-1,0.3-1.6,0.3
	c-1.4,0-2.5-0.5-3.3-1.6c-0.8-1-1.2-2.4-1.2-4.1v-0.2H280.3z M283.4,367.9c0,1,0.2,1.8,0.5,2.4s0.9,0.9,1.7,0.9
	c0.5,0,0.9-0.1,1.2-0.3c0.3-0.2,0.6-0.4,0.8-0.8v-5c-0.2-0.4-0.5-0.6-0.8-0.8s-0.7-0.3-1.2-0.3c-0.8,0-1.3,0.3-1.7,1
	s-0.5,1.6-0.5,2.7V367.9z"/>
<path class="st1" d="M292.5,371.5l1.5-0.3V364l-1.7-0.3v-1.9h4.6l0.1,1.7c0.4-0.6,0.9-1.1,1.4-1.4c0.6-0.3,1.2-0.5,1.9-0.5
	c1.2,0,2.1,0.4,2.8,1.1c0.7,0.7,1,1.9,1,3.5v5.1l1.5,0.3v1.9h-6v-1.9l1.3-0.3v-5c0-0.8-0.2-1.3-0.5-1.7c-0.3-0.3-0.8-0.5-1.4-0.5
	c-0.4,0-0.8,0.1-1.1,0.3c-0.3,0.2-0.6,0.4-0.8,0.7v6.2l1.3,0.3v1.9h-5.9L292.5,371.5L292.5,371.5z"/>
<path class="st1" d="M314.1,373.4c-0.1-0.2-0.2-0.4-0.2-0.6c-0.1-0.2-0.1-0.4-0.2-0.6c-0.4,0.4-0.8,0.8-1.4,1s-1.1,0.4-1.8,0.4
	c-1.1,0-2-0.3-2.7-0.9s-1-1.5-1-2.5c0-1.1,0.4-1.9,1.3-2.5s2.2-0.9,3.8-0.9h1.6v-1.1c0-0.6-0.2-1-0.5-1.3s-0.8-0.5-1.4-0.5
	c-0.4,0-0.7,0-1,0.1s-0.5,0.2-0.7,0.3l-0.2,1.2h-2.4v-2.6c0.6-0.4,1.2-0.7,2-1s1.5-0.4,2.4-0.4c1.4,0,2.6,0.4,3.5,1.1s1.3,1.7,1.3,3
	v4.8c0,0.2,0,0.3,0,0.5s0,0.3,0,0.5l1,0.1v1.9H314.1z M311.4,371.3c0.5,0,0.9-0.1,1.3-0.3c0.4-0.2,0.7-0.5,0.9-0.8v-1.8H312
	c-0.7,0-1.2,0.2-1.5,0.5s-0.5,0.7-0.5,1.1s0.1,0.7,0.4,0.9S310.9,371.3,311.4,371.3z"/>
<path class="st1" d="M318.8,371.5l1.5-0.3V364l-1.7-0.3v-1.9h4.6l0.1,1.7c0.4-0.6,0.9-1.1,1.4-1.4s1.2-0.5,1.9-0.5
	c1.2,0,2.1,0.4,2.8,1.1c0.7,0.7,1,1.9,1,3.5v5.1l1.5,0.3v1.9h-6v-1.9l1.3-0.3v-5c0-0.8-0.2-1.3-0.5-1.7c-0.3-0.3-0.8-0.5-1.4-0.5
	c-0.4,0-0.8,0.1-1.1,0.3c-0.3,0.2-0.6,0.4-0.8,0.7v6.2l1.3,0.3v1.9h-5.9L318.8,371.5L318.8,371.5z"/>
<path class="st1" d="M338,371.2c0.6,0,1-0.2,1.3-0.5s0.5-0.8,0.5-1.3h2.8v0.1c0,1.2-0.4,2.2-1.3,2.9c-0.9,0.8-2,1.2-3.4,1.2
	c-1.7,0-3.1-0.5-4-1.6s-1.4-2.5-1.4-4.2v-0.3c0-1.7,0.5-3.1,1.4-4.2c1-1.1,2.3-1.7,4.1-1.7c0.9,0,1.8,0.1,2.5,0.4s1.4,0.7,1.9,1.2
	v3.1H340l-0.5-1.8c-0.2-0.1-0.4-0.2-0.6-0.3c-0.2-0.1-0.5-0.1-0.8-0.1c-0.9,0-1.5,0.3-1.9,1s-0.5,1.5-0.5,2.5v0.3
	c0,1,0.2,1.9,0.5,2.5C336.6,370.9,337.2,371.2,338,371.2z"/>
<path class="st1" d="M356.2,363.7l-1.1,0.2l-4.3,11.3c-0.3,0.8-0.8,1.5-1.3,2.1s-1.4,0.8-2.5,0.8c-0.3,0-0.5,0-0.7-0.1
	s-0.5-0.1-0.8-0.2l0.4-2.3c0.1,0,0.2,0,0.3,0s0.2,0,0.3,0c0.5,0,0.9-0.1,1.2-0.4c0.3-0.3,0.5-0.6,0.6-1l0.4-0.9l-3.7-9.6l-1.1-0.2
	v-1.9h5.7v1.9l-1.3,0.2l1.6,4.6l0.2,0.8h0.1l1.8-5.5l-1.3-0.2v-1.9h5.7v2.3H356.2z"/>
<path class="st1" d="M359,373c0,0.7-0.2,1.5-0.6,2.3s-0.9,1.5-1.5,2l-1.5-0.8c0.3-0.5,0.5-1,0.6-1.6c0.2-0.5,0.2-1.1,0.2-1.8v-2.3
	h2.8V373z"/>
<path class="st1" d="M377.4,367.9c0,1.7-0.4,3.1-1.2,4.2s-1.9,1.6-3.4,1.6c-0.7,0-1.3-0.1-1.8-0.4s-0.9-0.7-1.3-1.2l-0.2,1.4H367
	V359l-1.7-0.3v-1.9h4.8v6.4c0.3-0.5,0.7-0.8,1.2-1.1s1-0.4,1.6-0.4c1.5,0,2.6,0.6,3.4,1.7s1.2,2.6,1.2,4.5v0H377.4z M374.3,367.7
	c0-1.1-0.2-2-0.5-2.7s-0.9-1-1.7-1c-0.5,0-0.9,0.1-1.2,0.3c-0.3,0.2-0.6,0.5-0.8,0.9v4.9c0.2,0.4,0.5,0.6,0.8,0.8s0.8,0.3,1.3,0.3
	c0.8,0,1.4-0.3,1.7-0.9c0.3-0.6,0.5-1.4,0.5-2.4L374.3,367.7L374.3,367.7z"/>
<path class="st1" d="M386.7,371.9c-0.4,0.5-0.8,1-1.4,1.3c-0.5,0.3-1.2,0.4-1.9,0.4c-1.2,0-2.2-0.4-2.9-1.2c-0.7-0.8-1-2-1-3.7V364
	l-1.3-0.3v-1.9h1.3h3.1v7c0,0.8,0.1,1.5,0.4,1.8c0.3,0.4,0.7,0.6,1.3,0.6c0.5,0,0.9-0.1,1.3-0.2c0.4-0.2,0.7-0.4,0.9-0.7V364
	l-1.4-0.3v-1.9h1.4h3.1v9.4l1.4,0.3v1.9h-4.2L386.7,371.9z"/>
<path class="st1" d="M396.3,358.9v2.8h2v2.2h-2v5.9c0,0.5,0.1,0.8,0.3,1s0.4,0.3,0.8,0.3c0.2,0,0.4,0,0.6,0s0.3,0,0.5-0.1l0.3,2.3
	c-0.4,0.1-0.7,0.2-1,0.2c-0.3,0.1-0.7,0.1-1.1,0.1c-1.1,0-1.9-0.3-2.5-0.9s-0.9-1.5-0.9-2.8V364h-1.7v-2.2h1.7V359h3V358.9z"/>
<path class="st1" d="M412.9,372c-0.4,0.5-0.8,0.9-1.3,1.2c-0.5,0.3-1.1,0.4-1.7,0.4c-1.4,0-2.5-0.5-3.3-1.6c-0.8-1-1.2-2.4-1.2-4.1
	v-0.2c0-1.8,0.4-3.3,1.2-4.4s1.9-1.7,3.4-1.7c0.6,0,1.1,0.1,1.6,0.4s0.9,0.6,1.2,1.1v-4.2l-1.7-0.3v-1.9h1.7h3.1v14.6l1.5,0.3v1.9
	h-4.2L412.9,372z M408.5,367.9c0,1,0.2,1.8,0.5,2.4s0.9,0.9,1.7,0.9c0.5,0,0.9-0.1,1.2-0.3s0.6-0.5,0.8-0.8v-4.9
	c-0.2-0.4-0.5-0.7-0.8-0.9c-0.3-0.2-0.7-0.3-1.2-0.3c-0.8,0-1.3,0.3-1.7,1s-0.5,1.6-0.5,2.7V367.9z"/>
<path class="st1" d="M418,367.5c0-1.7,0.5-3.2,1.5-4.3c1-1.1,2.3-1.7,4-1.7s3.1,0.6,4,1.7c1,1.1,1.5,2.5,1.5,4.3v0.2
	c0,1.7-0.5,3.2-1.5,4.3c-1,1.1-2.3,1.6-4,1.6s-3.1-0.5-4-1.6c-1-1.1-1.5-2.5-1.5-4.3V367.5z M421.2,367.7c0,1.1,0.2,1.9,0.6,2.6
	c0.4,0.6,1,1,1.8,1s1.4-0.3,1.8-1s0.6-1.5,0.6-2.5v-0.2c0-1-0.2-1.9-0.6-2.5s-1-1-1.8-1s-1.4,0.3-1.8,1s-0.6,1.5-0.6,2.5V367.7z"/>
<path class="st1" d="M435.8,373.6c-1.7,0-3-0.5-4-1.6s-1.5-2.4-1.5-4.1v-0.4c0-1.7,0.5-3.1,1.4-4.3s2.2-1.7,3.8-1.7
	c1.6,0,2.8,0.5,3.7,1.4c0.9,0.9,1.3,2.2,1.3,3.8v1.7h-6.9v0.1c0.1,0.8,0.3,1.4,0.8,1.9s1.1,0.7,1.9,0.7c0.7,0,1.3-0.1,1.7-0.2
	c0.5-0.1,1-0.4,1.5-0.7l0.8,1.9c-0.5,0.4-1.1,0.7-1.9,1S436.8,373.6,435.8,373.6z M435.5,364c-0.6,0-1,0.2-1.4,0.7
	c-0.3,0.4-0.5,1-0.6,1.8v0.1h3.8v-0.3c0-0.7-0.2-1.2-0.5-1.6C436.6,364.2,436.2,364,435.5,364z"/>
<path class="st1" d="M451.2,365.8h-2.1l-0.3-1.5c-0.2-0.2-0.5-0.3-0.8-0.4s-0.7-0.2-1.1-0.2c-0.6,0-1,0.1-1.3,0.4
	c-0.3,0.2-0.5,0.6-0.5,0.9c0,0.4,0.2,0.6,0.5,0.9c0.3,0.2,0.9,0.4,1.8,0.6c1.4,0.3,2.5,0.7,3.2,1.3c0.7,0.6,1,1.3,1,2.3
	s-0.5,1.9-1.3,2.6c-0.9,0.7-2.1,1-3.5,1c-0.9,0-1.7-0.1-2.5-0.4c-0.7-0.3-1.4-0.6-2-1.1v-2.6h2.2l0.4,1.5c0.2,0.2,0.4,0.3,0.8,0.3
	c0.3,0.1,0.7,0.1,1,0.1c0.6,0,1.1-0.1,1.5-0.3c0.3-0.2,0.5-0.5,0.5-0.9c0-0.3-0.2-0.6-0.5-0.9s-1-0.5-1.9-0.7
	c-1.4-0.3-2.4-0.7-3.1-1.2s-1-1.3-1-2.2c0-1,0.4-1.8,1.2-2.5c0.8-0.7,1.9-1.1,3.4-1.1c0.9,0,1.8,0.1,2.6,0.4
	c0.8,0.2,1.4,0.6,1.9,0.9L451.2,365.8z"/>
<path class="st1" d="M452.8,371.5l1.5-0.3V364l-1.7-0.3v-1.9h4.6l0.1,1.7c0.4-0.6,0.9-1.1,1.4-1.4c0.6-0.3,1.2-0.5,1.9-0.5
	c1.2,0,2.1,0.4,2.8,1.1c0.7,0.7,1,1.9,1,3.5v5.1l1.5,0.3v1.9h-6v-1.9l1.3-0.3v-5c0-0.8-0.2-1.3-0.5-1.7c-0.3-0.3-0.8-0.5-1.4-0.5
	c-0.4,0-0.8,0.1-1.1,0.3c-0.3,0.2-0.6,0.4-0.8,0.7v6.2l1.3,0.3v1.9h-5.9L452.8,371.5L452.8,371.5z"/>
<path class="st1" d="M469.2,358.7c0,0.7-0.2,1.5-0.6,2.3s-0.8,1.4-1.4,1.9l-1.5-0.8c0.3-0.5,0.5-1,0.6-1.5c0.2-0.5,0.2-1.1,0.2-1.8
	v-2.1h2.6L469.2,358.7L469.2,358.7z"/>
<path class="st1" d="M475.1,358.9v2.8h2v2.2h-2v5.9c0,0.5,0.1,0.8,0.3,1s0.4,0.3,0.8,0.3c0.2,0,0.4,0,0.6,0s0.3,0,0.5-0.1l0.3,2.3
	c-0.4,0.1-0.7,0.2-1,0.2c-0.3,0.1-0.7,0.1-1.1,0.1c-1.1,0-1.9-0.3-2.5-0.9s-0.9-1.5-0.9-2.8V364h-1.7v-2.2h1.7V359h3V358.9z"/>
<path class="st1" d="M129,393.9c0-1.7,0.5-3.2,1.5-4.3c1-1.1,2.3-1.7,4-1.7s3.1,0.6,4,1.7c1,1.1,1.5,2.5,1.5,4.3v0.2
	c0,1.7-0.5,3.2-1.5,4.3c-1,1.1-2.3,1.6-4,1.6s-3.1-0.5-4-1.6c-1-1.1-1.5-2.5-1.5-4.3V393.9z M132.2,394.1c0,1.1,0.2,1.9,0.6,2.6
	c0.4,0.6,1,1,1.8,1s1.4-0.3,1.8-1s0.6-1.5,0.6-2.5V394c0-1-0.2-1.9-0.6-2.5c-0.4-0.7-1-1-1.8-1s-1.4,0.3-1.8,1
	c-0.4,0.7-0.6,1.5-0.6,2.5V394.1z"/>
<path class="st1" d="M141.2,397.9l1.5-0.3v-7.2H141v-2.2h1.7v-1.3c0-1.3,0.4-2.3,1.1-3c0.8-0.7,1.8-1.1,3.2-1.1c0.3,0,0.5,0,0.8,0.1
	c0.3,0,0.6,0.1,0.9,0.2l-0.3,2.3c-0.2,0-0.3-0.1-0.5-0.1s-0.3,0-0.6,0c-0.5,0-0.9,0.1-1.2,0.4s-0.4,0.7-0.4,1.2v1.3h2.3v2.2h-2.3
	v7.2l1.5,0.3v1.9H141v-1.9H141.2z"/>
<path class="st1" d="M149.5,397.9l1.5-0.3v-7.2h-1.7v-2.2h1.7v-1.3c0-1.3,0.4-2.3,1.1-3c0.8-0.7,1.8-1.1,3.2-1.1
	c0.3,0,0.5,0,0.8,0.1c0.3,0,0.6,0.1,0.9,0.2l-0.3,2.3c-0.2,0-0.3-0.1-0.5-0.1s-0.3,0-0.6,0c-0.5,0-0.9,0.1-1.2,0.4s-0.4,0.7-0.4,1.2
	v1.3h2.3v2.2H154v7.2l1.5,0.3v1.9h-6.2v-1.9H149.5z"/>
<path class="st1" d="M162.8,400c-1.7,0-3-0.5-4-1.6s-1.5-2.4-1.5-4.1v-0.4c0-1.7,0.5-3.1,1.4-4.3c0.9-1.1,2.2-1.7,3.8-1.7
	s2.8,0.5,3.7,1.4s1.3,2.2,1.3,3.8v1.7h-6.9v0.1c0.1,0.8,0.3,1.4,0.8,1.9s1.1,0.7,1.9,0.7c0.7,0,1.3-0.1,1.7-0.2
	c0.5-0.1,1-0.4,1.5-0.7l0.8,1.9c-0.5,0.4-1.1,0.7-1.9,1S163.7,400,162.8,400z M162.5,390.4c-0.6,0-1,0.2-1.4,0.7
	c-0.3,0.4-0.5,1-0.6,1.8v0.1h3.8v-0.3c0-0.7-0.2-1.2-0.5-1.6C163.6,390.6,163.1,390.4,162.5,390.4z"/>
<path class="st1" d="M168.8,397.9l1.5-0.3v-7.2l-1.7-0.3v-1.9h4.6l0.1,1.7c0.3-0.6,0.6-1.1,1.1-1.4s0.9-0.5,1.5-0.5
	c0.2,0,0.3,0,0.5,0s0.3,0.1,0.5,0.1l-0.3,2.9h-1.3c-0.5,0-0.8,0.1-1.1,0.3s-0.5,0.4-0.7,0.8v5.7l1.5,0.3v1.9h-6.1v-2.1H168.8z"/>
<path class="st1" d="M183,390.1v-1.9h4.6l0.2,1.4c0.3-0.5,0.8-0.9,1.2-1.2s1-0.4,1.7-0.4c1.4,0,2.6,0.6,3.4,1.7s1.2,2.6,1.2,4.4v0.2
	c0,1.7-0.4,3.1-1.2,4.1s-1.9,1.6-3.3,1.6c-0.6,0-1.1-0.1-1.6-0.3c-0.5-0.2-0.9-0.6-1.2-1v3.4l1.5,0.3v1.9h-6.2v-1.9l1.5-0.3v-11.7
	L183,390.1z M192,394.1c0-1.1-0.2-2-0.5-2.7s-0.9-1-1.7-1c-0.5,0-0.9,0.1-1.2,0.3s-0.6,0.5-0.8,0.8v5.1c0.2,0.3,0.5,0.6,0.8,0.8
	s0.7,0.3,1.2,0.3c0.8,0,1.3-0.3,1.7-0.9s0.5-1.4,0.5-2.4V394.1z"/>
<path class="st1" d="M196.3,397.9l1.5-0.3v-7.2l-1.7-0.3v-1.9h4.6l0.1,1.7c0.3-0.6,0.6-1.1,1.1-1.4s0.9-0.5,1.5-0.5
	c0.2,0,0.3,0,0.5,0s0.3,0.1,0.5,0.1l-0.3,2.9h-1.3c-0.5,0-0.8,0.1-1.1,0.3s-0.5,0.4-0.7,0.8v5.7l1.5,0.3v1.9h-6.1v-2.1H196.3z"/>
<path class="st1" d="M205.1,393.9c0-1.7,0.5-3.2,1.5-4.3c1-1.1,2.3-1.7,4-1.7s3.1,0.6,4,1.7c1,1.1,1.5,2.5,1.5,4.3v0.2
	c0,1.7-0.5,3.2-1.5,4.3c-1,1.1-2.3,1.6-4,1.6s-3.1-0.5-4-1.6c-1-1.1-1.5-2.5-1.5-4.3V393.9z M208.3,394.1c0,1.1,0.2,1.9,0.6,2.6
	c0.4,0.6,1,1,1.8,1s1.4-0.3,1.8-1s0.6-1.5,0.6-2.5V394c0-1-0.2-1.9-0.6-2.5c-0.4-0.7-1-1-1.8-1s-1.4,0.3-1.8,1
	c-0.4,0.7-0.6,1.5-0.6,2.5V394.1z"/>
<path class="st1" d="M221.8,385.3v2.8h2v2.2h-2v5.9c0,0.5,0.1,0.8,0.3,1s0.4,0.3,0.8,0.3c0.2,0,0.4,0,0.6,0c0.2,0,0.3,0,0.5-0.1
	l0.3,2.3c-0.4,0.1-0.7,0.2-1,0.2c-0.3,0.1-0.7,0.1-1.1,0.1c-1.1,0-1.9-0.3-2.5-0.9s-0.9-1.5-0.9-2.8v-5.9h-1.7v-2.2h1.7v-2.8h3
	V385.3z"/>
<path class="st1" d="M230.5,400c-1.7,0-3-0.5-4-1.6s-1.5-2.4-1.5-4.1v-0.4c0-1.7,0.5-3.1,1.4-4.3c0.9-1.1,2.2-1.7,3.8-1.7
	s2.8,0.5,3.7,1.4s1.3,2.2,1.3,3.8v1.7h-6.9v0.1c0.1,0.8,0.3,1.4,0.8,1.9s1.1,0.7,1.9,0.7c0.7,0,1.3-0.1,1.7-0.2
	c0.5-0.1,1-0.4,1.5-0.7l0.8,1.9c-0.5,0.4-1.1,0.7-1.9,1S231.4,400,230.5,400z M230.2,390.4c-0.6,0-1,0.2-1.4,0.7
	c-0.3,0.4-0.5,1-0.6,1.8v0.1h3.8v-0.3c0-0.7-0.2-1.2-0.5-1.6C231.3,390.6,230.8,390.4,230.2,390.4z"/>
<path class="st1" d="M242,397.6c0.6,0,1-0.2,1.3-0.5s0.5-0.8,0.5-1.3h2.8v0.1c0,1.2-0.4,2.2-1.3,2.9c-0.9,0.8-2,1.2-3.4,1.2
	c-1.7,0-3.1-0.5-4-1.6s-1.4-2.5-1.4-4.2v-0.3c0-1.7,0.5-3.1,1.4-4.2c1-1.1,2.3-1.7,4.1-1.7c0.9,0,1.8,0.1,2.5,0.4s1.4,0.7,1.9,1.2
	v3.1H244l-0.5-1.8c-0.2-0.1-0.4-0.2-0.6-0.3c-0.2-0.1-0.5-0.1-0.8-0.1c-0.9,0-1.5,0.3-1.9,1s-0.5,1.5-0.5,2.5v0.3
	c0,1,0.2,1.9,0.5,2.5C240.6,397.3,241.1,397.6,242,397.6z"/>
<path class="st1" d="M252.7,385.3v2.8h2v2.2h-2v5.9c0,0.5,0.1,0.8,0.3,1s0.4,0.3,0.8,0.3c0.2,0,0.4,0,0.6,0c0.2,0,0.3,0,0.5-0.1
	l0.3,2.3c-0.4,0.1-0.7,0.2-1,0.2c-0.3,0.1-0.7,0.1-1.1,0.1c-1.1,0-1.9-0.3-2.5-0.9s-0.9-1.5-0.9-2.8v-5.9H248v-2.2h1.7v-2.8h3V385.3
	z"/>
<path class="st1" d="M256.2,397.9l1.5-0.3v-7.2l-1.7-0.3v-1.9h4.8v9.4l1.5,0.3v1.9h-6.2v-1.9H256.2z M260.9,385.4h-3.1V383h3.1
	V385.4z"/>
<path class="st1" d="M263.1,393.9c0-1.7,0.5-3.2,1.5-4.3c1-1.1,2.3-1.7,4-1.7s3.1,0.6,4,1.7c1,1.1,1.5,2.5,1.5,4.3v0.2
	c0,1.7-0.5,3.2-1.5,4.3c-1,1.1-2.3,1.6-4,1.6s-3.1-0.5-4-1.6c-1-1.1-1.5-2.5-1.5-4.3V393.9z M266.2,394.1c0,1.1,0.2,1.9,0.6,2.6
	c0.4,0.6,1,1,1.8,1s1.4-0.3,1.8-1s0.6-1.5,0.6-2.5V394c0-1-0.2-1.9-0.6-2.5c-0.4-0.7-1-1-1.8-1s-1.4,0.3-1.8,1s-0.6,1.5-0.6,2.5
	V394.1z"/>
<path class="st1" d="M274.9,397.9l1.5-0.3v-7.2l-1.7-0.3v-1.9h4.6l0.1,1.7c0.4-0.6,0.9-1.1,1.4-1.4c0.6-0.3,1.2-0.5,1.9-0.5
	c1.2,0,2.1,0.4,2.8,1.1c0.7,0.7,1,1.9,1,3.5v5.1l1.5,0.3v1.9h-6V398l1.3-0.3v-5c0-0.8-0.2-1.3-0.5-1.7c-0.3-0.3-0.8-0.5-1.4-0.5
	c-0.4,0-0.8,0.1-1.1,0.3c-0.3,0.2-0.6,0.4-0.8,0.7v6.2l1.3,0.3v1.9h-5.9L274.9,397.9L274.9,397.9z"/>
<path class="st1" d="M294.6,397.9l1.5-0.3v-7.2h-1.7v-2.2h1.7v-1.3c0-1.3,0.4-2.3,1.1-3c0.8-0.7,1.8-1.1,3.2-1.1
	c0.3,0,0.5,0,0.8,0.1c0.3,0,0.6,0.1,0.9,0.2l-0.3,2.3c-0.2,0-0.3-0.1-0.5-0.1s-0.3,0-0.6,0c-0.5,0-0.9,0.1-1.2,0.4
	c-0.3,0.3-0.4,0.7-0.4,1.2v1.3h2.3v2.2h-2.3v7.2l1.5,0.3v1.9h-6.2v-1.9H294.6z"/>
<path class="st1" d="M302.9,397.9l1.5-0.3v-7.2l-1.7-0.3v-1.9h4.6l0.1,1.7c0.3-0.6,0.6-1.1,1.1-1.4s0.9-0.5,1.5-0.5
	c0.2,0,0.3,0,0.5,0s0.3,0.1,0.5,0.1l-0.3,2.9h-1.3c-0.5,0-0.8,0.1-1.1,0.3s-0.5,0.4-0.7,0.8v5.7l1.5,0.3v1.9H303v-2.1H302.9z"/>
<path class="st1" d="M311.7,393.9c0-1.7,0.5-3.2,1.5-4.3c1-1.1,2.3-1.7,4-1.7s3.1,0.6,4,1.7s1.5,2.5,1.5,4.3v0.2
	c0,1.7-0.5,3.2-1.5,4.3c-1,1.1-2.3,1.6-4,1.6s-3.1-0.5-4-1.6c-1-1.1-1.5-2.5-1.5-4.3V393.9z M314.8,394.1c0,1.1,0.2,1.9,0.6,2.6
	c0.4,0.6,1,1,1.8,1s1.4-0.3,1.8-1s0.6-1.5,0.6-2.5V394c0-1-0.2-1.9-0.6-2.5c-0.4-0.7-1-1-1.8-1s-1.4,0.3-1.8,1s-0.6,1.5-0.6,2.5
	V394.1z"/>
<path class="st1" d="M323.4,390.1v-1.9h4.6l0.1,1.5c0.4-0.6,0.8-1,1.4-1.3s1.2-0.5,2-0.5c0.7,0,1.4,0.2,1.9,0.5s0.9,0.8,1.2,1.5
	c0.4-0.6,0.8-1.1,1.4-1.5s1.2-0.5,2-0.5c1.1,0,2,0.4,2.7,1.2c0.7,0.8,1,2,1,3.6v4.8l1.5,0.3v1.9h-6v-1.9l1.4-0.3v-4.8
	c0-0.9-0.1-1.5-0.4-1.8s-0.7-0.5-1.3-0.5c-0.4,0-0.8,0.1-1.2,0.3c-0.3,0.2-0.6,0.5-0.8,0.8c0,0.1,0,0.3,0,0.3c0,0.1,0,0.2,0,0.3v5.4
	l1.3,0.3v1.9h-5.7v-1.9l1.3-0.3v-4.8c0-0.9-0.1-1.5-0.4-1.8c-0.3-0.4-0.7-0.5-1.3-0.5c-0.4,0-0.8,0.1-1.1,0.2
	c-0.3,0.2-0.6,0.4-0.8,0.7v6.3l1.4,0.3v1.9h-6v-1.9l1.5-0.3v-7.2L323.4,390.1z"/>
<path class="st1" d="M361.4,389.2H359l-0.4-2.1c-0.3-0.2-0.7-0.3-1.2-0.5c-0.5-0.1-1.1-0.2-1.7-0.2c-0.9,0-1.5,0.2-2,0.5
	c-0.5,0.4-0.7,0.8-0.7,1.4c0,0.5,0.2,1,0.7,1.3s1.3,0.7,2.5,1.1c1.7,0.5,3,1.1,3.9,1.9s1.3,1.8,1.3,3.1c0,1.3-0.5,2.4-1.6,3.2
	c-1.1,0.8-2.5,1.2-4.2,1.2c-1.2,0-2.4-0.2-3.4-0.6s-1.8-0.9-2.5-1.6v-3.3h2.4l0.3,2.2c0.3,0.3,0.7,0.5,1.3,0.6
	c0.5,0.2,1.1,0.3,1.8,0.3c0.9,0,1.5-0.2,2-0.5c0.4-0.4,0.7-0.8,0.7-1.4s-0.2-1.1-0.6-1.5s-1.2-0.7-2.2-1c-1.9-0.5-3.3-1.2-4.2-1.9
	c-1-0.7-1.4-1.7-1.4-3s0.5-2.3,1.6-3.1c1.1-0.8,2.4-1.2,4-1.2c1.2,0,2.3,0.2,3.3,0.5s1.8,0.9,2.5,1.5v3.1H361.4z"/>
<path class="st1" d="M376.6,384.2v4.2h-2.4l-0.1-1.8h-2.9v11l1.7,0.3v1.9h-6.5v-1.9l1.7-0.3v-11h-2.9l-0.1,1.8h-2.4v-4.2H376.6z"/>
<path class="st1" d="M384.8,384.2c1.9,0,3.5,0.6,4.7,1.8c1.2,1.2,1.9,2.8,1.9,4.7v2.6c0,1.9-0.6,3.5-1.9,4.7
	c-1.2,1.2-2.8,1.8-4.7,1.8h-7v-1.9l1.7-0.3v-11.2l-1.7-0.3v-1.9h1.7L384.8,384.2L384.8,384.2z M382.6,386.6v10.8h2.1
	c1.1,0,2-0.4,2.6-1.1c0.6-0.8,1-1.8,1-3v-2.6c0-1.2-0.3-2.2-1-3c-0.6-0.8-1.5-1.1-2.6-1.1L382.6,386.6L382.6,386.6z"/>
<path class="st1" d="M402.3,392.2h-2.1l-0.3-1.5c-0.2-0.2-0.5-0.3-0.8-0.4s-0.7-0.2-1.1-0.2c-0.6,0-1,0.1-1.3,0.4
	c-0.3,0.2-0.5,0.6-0.5,0.9c0,0.4,0.2,0.6,0.5,0.9c0.3,0.2,0.9,0.4,1.8,0.6c1.4,0.3,2.5,0.7,3.2,1.3c0.7,0.6,1,1.3,1,2.3
	s-0.4,1.9-1.3,2.6s-2.1,1-3.6,1c-0.9,0-1.7-0.1-2.5-0.4c-0.7-0.3-1.4-0.6-2-1.1V396h2.2l0.4,1.5c0.2,0.2,0.4,0.3,0.8,0.3
	c0.3,0.1,0.7,0.1,1,0.1c0.6,0,1.1-0.1,1.5-0.3c0.3-0.2,0.5-0.5,0.5-0.9c0-0.3-0.2-0.6-0.5-0.9s-1-0.5-1.9-0.7
	c-1.4-0.3-2.4-0.7-3.1-1.2s-1-1.3-1-2.2c0-1,0.4-1.8,1.2-2.5c0.8-0.7,1.9-1.1,3.4-1.1c0.9,0,1.8,0.1,2.6,0.4
	c0.8,0.2,1.4,0.6,1.9,0.9L402.3,392.2z"/>
<path class="st1" d="M407.9,399.8h-3.1V397h3.1V399.8z"/>
</svg>
