<svg id="Layer_1" data-name="Layer 1" xmlns="http://www.w3.org/2000/svg" viewBox="0 0 611.8 611.8"><defs><style>.cls-1{fill:#f5faf8;stroke:#a967aa;stroke-linecap:round;stroke-linejoin:round;stroke-width:11.8px;}.cls-2{font-size:32px;fill:#a967aa;font-family:RobotoSlab-Bold, Roboto Slab;font-weight:700;}.cls-3{letter-spacing:0em;}.cls-4{letter-spacing:-0.02em;}.cls-5{letter-spacing:-0.01em;}.cls-6{letter-spacing:-0.06em;}.cls-7{letter-spacing:-0.02em;}.cls-8{letter-spacing:-0.01em;}.cls-9{font-size:24px;}.cls-10{letter-spacing:-0.01em;}.cls-11{letter-spacing:-0.01em;}.cls-12{letter-spacing:-0.01em;}.cls-13{letter-spacing:0.01em;}.cls-14{letter-spacing:0.01em;}.cls-15{letter-spacing:0em;}.cls-16{letter-spacing:-0.01em;}.cls-17{letter-spacing:0.01em;}.cls-18{letter-spacing:-0.02em;}.cls-19{letter-spacing:-0.01em;}.cls-20{letter-spacing:0em;}.cls-21{letter-spacing:-0.01em;}.cls-22{letter-spacing:-0.01em;}.cls-23{letter-spacing:-0.02em;}.cls-24{letter-spacing:-0.01em;}.cls-25{letter-spacing:-0.01em;}.cls-26{letter-spacing:0em;}.cls-27{letter-spacing:0em;}.cls-28{letter-spacing:-0.01em;}.cls-29{letter-spacing:-0.02em;}.cls-30{letter-spacing:-0.01em;}.cls-31{letter-spacing:-0.02em;}.cls-32{letter-spacing:-0.01em;}.cls-33{letter-spacing:-0.01em;}.cls-34{letter-spacing:-0.01em;}.cls-35{letter-spacing:-0.03em;}.cls-36{letter-spacing:-0.02em;}.cls-37{letter-spacing:-0.02em;}.cls-38{letter-spacing:0.01em;}.cls-39{letter-spacing:0em;}.cls-40{letter-spacing:0em;}.cls-41{letter-spacing:-0.01em;}.cls-42{letter-spacing:0.01em;}.cls-43{letter-spacing:-0.03em;}.cls-44{letter-spacing:-0.01em;}.cls-45{letter-spacing:0.01em;}.cls-46{letter-spacing:0em;}.cls-47{letter-spacing:-0.02em;}.cls-48{letter-spacing:0em;}.cls-49{letter-spacing:0em;}.cls-50{letter-spacing:0em;}.cls-51{letter-spacing:-0.03em;}.cls-52{letter-spacing:0em;}.cls-53{letter-spacing:-0.01em;}.cls-54{letter-spacing:-0.01em;}.cls-55{letter-spacing:0em;}.cls-56{letter-spacing:0.01em;}.cls-57{letter-spacing:0.01em;}.cls-58{letter-spacing:0.01em;}.cls-59{letter-spacing:-0.01em;}.cls-60{letter-spacing:-0.01em;}.cls-61{letter-spacing:-0.01em;}.cls-62{letter-spacing:-0.01em;}.cls-63{letter-spacing:-0.02em;}.cls-64{letter-spacing:0em;}.cls-65{letter-spacing:-0.01em;}.cls-66{letter-spacing:-0.02em;}.cls-67{letter-spacing:0em;}.cls-68{letter-spacing:-0.02em;}.cls-69{letter-spacing:-0.02em;}.cls-70{letter-spacing:-0.01em;}.cls-71{letter-spacing:0em;}.cls-72{letter-spacing:-0.01em;}.cls-73{letter-spacing:0.01em;}.cls-74{letter-spacing:-0.03em;}.cls-75{letter-spacing:-0.01em;}.cls-76{letter-spacing:0em;}.cls-77{letter-spacing:-0.1em;}.cls-78{letter-spacing:0.01em;}.cls-79{letter-spacing:0em;}.cls-80{letter-spacing:-0.01em;}.cls-81{letter-spacing:-0.01em;}.cls-82{letter-spacing:0em;}.cls-83{letter-spacing:0.01em;}.cls-84{letter-spacing:-0.01em;}.cls-85{letter-spacing:-0.01em;}.cls-86{letter-spacing:0em;}.cls-87{letter-spacing:-0.02em;}.cls-88{letter-spacing:-0.01em;}.cls-89{letter-spacing:-0.01em;}.cls-90{letter-spacing:-0.02em;}</style></defs><title>std web mockupsasfd</title><rect class="cls-1" x="5.9" y="5.9" width="600" height="600" rx="300" ry="300"/><text class="cls-2" transform="translate(229.83 176.6)"><tspan class="cls-3">S</tspan><tspan class="cls-4" x="19.28" y="0">w</tspan><tspan class="cls-5" x="44.38" y="0">a</tspan><tspan x="61.56" y="0">b </tspan><tspan class="cls-6" x="87.86" y="0">T</tspan><tspan class="cls-7" x="107.57" y="0">e</tspan><tspan class="cls-8" x="124.14" y="0">s</tspan><tspan x="140.21" y="0">t</tspan><tspan class="cls-9"><tspan x="-81.46" y="57.6">A </tspan><tspan class="cls-10" x="-58.34" y="57.6">s</tspan><tspan class="cls-11" x="-46.22" y="57.6">w</tspan><tspan class="cls-12" x="-27.34" y="57.6">a</tspan><tspan x="-14.4" y="57.6">b </tspan><tspan class="cls-13" x="5.32" y="57.6">w</tspan><tspan class="cls-14" x="24.77" y="57.6">il</tspan><tspan x="40.56" y="57.6">l </tspan><tspan class="cls-15" x="54.09" y="57.6">b</tspan><tspan x="67.82" y="57.6">e </tspan><tspan class="cls-16" x="86.49" y="57.6">t</tspan><tspan class="cls-17" x="95.24" y="57.6">a</tspan><tspan class="cls-18" x="108.6" y="57.6">k</tspan><tspan class="cls-19" x="122.78" y="57.6">e</tspan><tspan x="135.37" y="57.6">n </tspan><tspan class="cls-20" x="156.49" y="57.6">f</tspan><tspan class="cls-21" x="165.45" y="57.6">r</tspan><tspan class="cls-22" x="175.25" y="57.6">o</tspan><tspan x="188.37" y="57.6">m </tspan><tspan class="cls-23" x="-101.46" y="86.4">y</tspan><tspan class="cls-24" x="-87.65" y="86.4">o</tspan><tspan class="cls-25" x="-74.55" y="86.4">u</tspan><tspan x="-59.73" y="86.4">r </tspan><tspan class="cls-26" x="-43.75" y="86.4">t</tspan><tspan class="cls-27" x="-34.68" y="86.4">h</tspan><tspan class="cls-21" x="-19.45" y="86.4">r</tspan><tspan class="cls-28" x="-9.64" y="86.4">o</tspan><tspan class="cls-29" x="3.57" y="86.4">a</tspan><tspan class="cls-30" x="16.29" y="86.4">t</tspan><tspan x="25.11" y="86.4">, </tspan><tspan class="cls-17" x="36.89" y="86.4">a</tspan><tspan class="cls-31" x="50.25" y="86.4">n</tspan><tspan class="cls-32" x="64.95" y="86.4">u</tspan><tspan class="cls-33" x="79.6" y="86.4">s</tspan><tspan x="91.7" y="86.4">, </tspan><tspan class="cls-17" x="103.48" y="86.4">a</tspan><tspan class="cls-34" x="116.83" y="86.4">n</tspan><tspan x="131.8" y="86.4">d </tspan><tspan class="cls-14" x="151.88" y="86.4">i</tspan><tspan class="cls-35" x="159.82" y="86.4">n</tspan><tspan class="cls-36" x="174.34" y="86.4">t</tspan><tspan class="cls-37" x="182.8" y="86.4">e</tspan><tspan class="cls-38" x="195.15" y="86.4">r</tspan><tspan class="cls-39" x="205.59" y="86.4">n</tspan><tspan class="cls-17" x="220.82" y="86.4">a</tspan><tspan x="234.17" y="86.4">l </tspan><tspan class="cls-40" x="-101.46" y="115.2">g</tspan><tspan class="cls-41" x="-87.84" y="115.2">e</tspan><tspan class="cls-42" x="-75.25" y="115.2">n</tspan><tspan class="cls-43" x="-59.85" y="115.2">i</tspan><tspan class="cls-44" x="-52.72" y="115.2">t</tspan><tspan class="cls-17" x="-43.97" y="115.2">a</tspan><tspan class="cls-45" x="-30.62" y="115.2">l</tspan><tspan class="cls-46" x="-22.81" y="115.2">i</tspan><tspan x="-15.1" y="115.2">a </tspan><tspan class="cls-47" x="3.96" y="115.2">t</tspan><tspan x="12.44" y="115.2">o </tspan><tspan class="cls-48" x="31.78" y="115.2">b</tspan><tspan x="45.51" y="115.2">e </tspan><tspan class="cls-49" x="64.18" y="115.2">c</tspan><tspan class="cls-50" x="76.78" y="115.2">u</tspan><tspan class="cls-51" x="91.84" y="115.2">l</tspan><tspan class="cls-52" x="98.89" y="115.2">t</tspan><tspan class="cls-53" x="107.82" y="115.2">u</tspan><tspan class="cls-54" x="122.64" y="115.2">r</tspan><tspan class="cls-55" x="132.42" y="115.2">e</tspan><tspan class="cls-56" x="145.14" y="115.2">d</tspan><tspan x="159.56" y="115.2">.</tspan><tspan class="cls-57" x="-81.46" y="172.8">T</tspan><tspan class="cls-58" x="-65.08" y="172.8">h</tspan><tspan class="cls-59" x="-49.66" y="172.8">i</tspan><tspan x="-42.13" y="172.8">s </tspan><tspan class="cls-36" x="-23.9" y="172.8">t</tspan><tspan class="cls-60" x="-15.44" y="172.8">e</tspan><tspan class="cls-28" x="-2.96" y="172.8">s</tspan><tspan class="cls-61" x="9.15" y="172.8">t</tspan><tspan x="17.75" y="172.8">s </tspan><tspan class="cls-62" x="35.99" y="172.8">f</tspan><tspan class="cls-63" x="44.62" y="172.8">o</tspan><tspan x="57.5" y="172.8">r </tspan><tspan class="cls-64" x="73.48" y="172.8">g</tspan><tspan class="cls-65" x="87.09" y="172.8">o</tspan><tspan class="cls-66" x="100.21" y="172.8">n</tspan><tspan class="cls-63" x="115.07" y="172.8">o</tspan><tspan class="cls-67" x="127.95" y="172.8">r</tspan><tspan class="cls-68" x="138.16" y="172.8">r</tspan><tspan class="cls-69" x="147.67" y="172.8">h</tspan><tspan class="cls-70" x="162.52" y="172.8">e</tspan><tspan class="cls-71" x="175.03" y="172.8">a</tspan><tspan x="188.26" y="172.8">, </tspan><tspan class="cls-72" x="-101.46" y="201.6">c</tspan><tspan class="cls-13" x="-89.03" y="201.6">h</tspan><tspan class="cls-27" x="-73.57" y="201.6">l</tspan><tspan class="cls-73" x="-65.94" y="201.6">a</tspan><tspan class="cls-74" x="-52.57" y="201.6">m</tspan><tspan class="cls-75" x="-30.95" y="201.6">y</tspan><tspan class="cls-42" x="-17.08" y="201.6">d</tspan><tspan class="cls-46" x="-2.71" y="201.6">i</tspan><tspan class="cls-71" x="5" y="201.6">a</tspan><tspan x="18.23" y="201.6">, </tspan><tspan class="cls-76" x="30" y="201.6">H</tspan><tspan class="cls-19" x="48.76" y="201.6">P</tspan><tspan class="cls-77" x="64.09" y="201.6">V</tspan><tspan x="79" y="201.6">, </tspan><tspan class="cls-69" x="90.77" y="201.6">h</tspan><tspan class="cls-37" x="105.63" y="201.6">e</tspan><tspan class="cls-78" x="117.98" y="201.6">r</tspan><tspan class="cls-79" x="128.36" y="201.6">p</tspan><tspan class="cls-60" x="142.81" y="201.6">e</tspan><tspan class="cls-33" x="155.29" y="201.6">s</tspan><tspan x="167.39" y="201.6">, </tspan><tspan class="cls-80" x="-101.46" y="230.4">b</tspan><tspan class="cls-81" x="-87.89" y="230.4">a</tspan><tspan class="cls-82" x="-74.95" y="230.4">c</tspan><tspan class="cls-36" x="-62.41" y="230.4">t</tspan><tspan class="cls-37" x="-53.95" y="230.4">e</tspan><tspan class="cls-83" x="-41.59" y="230.4">r</tspan><tspan class="cls-46" x="-31.2" y="230.4">i</tspan><tspan class="cls-17" x="-23.5" y="230.4">a</tspan><tspan x="-10.14" y="230.4">l </tspan><tspan class="cls-84" x="3.39" y="230.4">v</tspan><tspan class="cls-85" x="16.76" y="230.4">a</tspan><tspan class="cls-86" x="29.67" y="230.4">g</tspan><tspan class="cls-14" x="43.34" y="230.4">i</tspan><tspan class="cls-87" x="51.28" y="230.4">n</tspan><tspan class="cls-88" x="66.14" y="230.4">o</tspan><tspan class="cls-89" x="79.3" y="230.4">s</tspan><tspan class="cls-59" x="91.48" y="230.4">i</tspan><tspan class="cls-33" x="99.01" y="230.4">s</tspan><tspan x="111.1" y="230.4">, </tspan><tspan class="cls-17" x="122.88" y="230.4">a</tspan><tspan class="cls-34" x="136.24" y="230.4">n</tspan><tspan x="151.2" y="230.4">d </tspan><tspan class="cls-90" x="171.29" y="230.4">m</tspan><tspan class="cls-63" x="193.24" y="230.4">o</tspan><tspan class="cls-54" x="206.12" y="230.4">r</tspan><tspan class="cls-24" x="215.9" y="230.4">e</tspan><tspan x="228.33" y="230.4">.</tspan></tspan></text></svg>