<svg id="Layer_1" data-name="Layer 1" xmlns="http://www.w3.org/2000/svg" viewBox="0 0 324.7 173.51"><defs><style>.cls-1{fill:#f5faf8;stroke:#a967aa;stroke-linecap:round;stroke-linejoin:round;stroke-width:10px;}</style></defs><title>std graphics</title><path class="cls-1" d="M287.19,67.27c14.44-6.58,36.82-25,31.79-36s-35.69-6.3-51,.66-35.43,21.27-28.86,35.71L37.57,159.47,239.14,67.62C246.5,83.76,272.75,73.85,287.19,67.27Z"/><path class="cls-1" d="M256.88,49.23c13.62-8.14,33.83-28.91,27.6-39.32s-36.17-2.31-50.59,6.31S201,41.28,209.17,54.9L19,168.51,209.17,54.9C218.26,70.13,243.26,57.37,256.88,49.23Z"/><path class="cls-1" d="M266,105.57c15.29-4.24,40.28-18.91,37-30.6s-34.26-11.81-50.45-7.33S214.23,83.1,218.47,98.39L5,157.54,218.47,98.39C223.21,115.48,250.69,109.8,266,105.57Z"/></svg>