<?xml version="1.0" encoding="utf-8"?>
<!-- Generator: Adobe Illustrator 22.0.1, SVG Export Plug-In . SVG Version: 6.00 Build 0)  -->
<!DOCTYPE svg PUBLIC "-//W3C//DTD SVG 1.1//EN" "http://www.w3.org/Graphics/SVG/1.1/DTD/svg11.dtd">
<svg version="1.1" id="Layer_1" xmlns="http://www.w3.org/2000/svg" xmlns:xlink="http://www.w3.org/1999/xlink" x="0px" y="0px"
	 viewBox="0 0 611.8 611.8" style="enable-background:new 0 0 611.8 611.8;" xml:space="preserve">
<style type="text/css">
	.st0{fill:#F5FAF8;stroke:#A967AA;stroke-width:11.8;stroke-linecap:round;stroke-linejoin:round;}
	.st1{fill:#A967AA;}
</style>
<title>std web mockupsasfd</title>
<path class="st0" d="M305.9,5.9L305.9,5.9c165.7,0,300,134.3,300,300l0,0c0,165.7-134.3,300-300,300l0,0c-165.7,0-300-134.3-300-300
	l0,0C5.9,140.2,140.2,5.9,305.9,5.9z"/>
<path class="st1" d="M248,161.1h-3.4L244,158c-0.4-0.2-1-0.5-1.7-0.7c-0.8-0.2-1.6-0.3-2.4-0.3c-1.2,0-2.2,0.3-2.9,0.8s-1,1.2-1,2
	s0.4,1.4,1.1,1.9c0.7,0.5,1.9,1,3.7,1.6c2.5,0.7,4.4,1.6,5.7,2.8c1.3,1.1,1.9,2.7,1.9,4.5c0,1.9-0.8,3.5-2.3,4.6s-3.6,1.7-6.1,1.7
	c-1.8,0-3.4-0.3-4.9-0.9s-2.7-1.4-3.6-2.4v-4.8h3.5l0.5,3.2c0.5,0.4,1.1,0.7,1.9,0.9c0.8,0.2,1.7,0.4,2.6,0.4c1.2,0,2.2-0.3,2.9-0.8
	s1-1.2,1-2c0-0.9-0.3-1.6-0.9-2.1c-0.6-0.5-1.7-1-3.3-1.5c-2.7-0.8-4.7-1.7-6.1-2.8c-1.4-1.1-2.1-2.5-2.1-4.4c0-1.8,0.8-3.4,2.3-4.5
	s3.5-1.8,5.9-1.8c1.8,0,3.3,0.3,4.8,0.8s2.6,1.2,3.6,2.1L248,161.1L248,161.1z"/>
<path class="st1" d="M274.2,162.4l-1.7,0.2l-3.5,13.9h-3.8l-3.1-10.1H262l-3.1,10.1H255l-3.5-13.9l-1.7-0.2v-2.8h7.7v2.8l-1.8,0.3
	l1.6,7.7h0.1l3.2-10.8h3.1l3.2,10.9h0.1l1.6-7.8l-1.8-0.4v-2.8h7.7v2.9H274.2z"/>
<path class="st1" d="M286,176.6c-0.1-0.3-0.2-0.6-0.3-0.9s-0.2-0.6-0.2-0.9c-0.5,0.6-1.2,1.1-2,1.5s-1.7,0.6-2.7,0.6
	c-1.7,0-3-0.5-3.9-1.4c-1-0.9-1.5-2.1-1.5-3.7c0-1.6,0.6-2.8,1.9-3.7s3.1-1.3,5.6-1.3h2.3v-1.7c0-0.8-0.2-1.4-0.7-1.9
	c-0.5-0.4-1.2-0.7-2.1-0.7c-0.5,0-1,0.1-1.4,0.2c-0.4,0.1-0.7,0.3-1,0.4l-0.3,1.8h-3.4v-3.8c0.8-0.6,1.8-1,2.9-1.4s2.3-0.6,3.5-0.6
	c2.1,0,3.8,0.5,5.1,1.5c1.3,1,2,2.5,2,4.4v7c0,0.3,0,0.5,0,0.7s0,0.4,0.1,0.7l1.4,0.2v2.7H286V176.6z M282,173.6
	c0.7,0,1.3-0.1,1.9-0.4s1-0.7,1.3-1.1v-2.6h-2.3c-1,0-1.7,0.2-2.2,0.7s-0.8,1-0.8,1.6s0.2,1,0.6,1.3
	C280.8,173.4,281.4,173.6,282,173.6z"/>
<path class="st1" d="M308.7,168.6c0,2.5-0.6,4.5-1.7,6s-2.7,2.3-4.9,2.3c-1,0-1.8-0.2-2.6-0.6c-0.7-0.4-1.3-1-1.8-1.8l-0.3,2.1h-3.9
	v-21.2L291,155v-2.8h7v9.3c0.5-0.7,1.1-1.2,1.8-1.6c0.7-0.4,1.5-0.5,2.4-0.5c2.1,0,3.8,0.8,4.9,2.4c1.1,1.6,1.7,3.8,1.7,6.5
	L308.7,168.6L308.7,168.6z M304.2,168.3c0-1.6-0.2-3-0.7-3.9c-0.5-1-1.3-1.4-2.5-1.4c-0.7,0-1.3,0.1-1.8,0.4
	c-0.5,0.3-0.9,0.7-1.2,1.3v7.1c0.3,0.5,0.7,0.9,1.2,1.2s1.1,0.4,1.8,0.4c1.2,0,2-0.4,2.5-1.2s0.7-2,0.7-3.5V168.3z"/>
<path class="st1" d="M338.6,153.9v6.1h-3.5l-0.2-2.5h-4.2v16l2.4,0.5v2.7h-9.4V174l2.4-0.5v-16H322l-0.2,2.5h-3.5v-6.1H338.6z"/>
<path class="st1" d="M346.5,176.9c-2.4,0-4.4-0.8-5.8-2.3c-1.5-1.6-2.2-3.5-2.2-6V168c0-2.5,0.7-4.6,2.1-6.2
	c1.4-1.6,3.2-2.4,5.6-2.4c2.3,0,4.1,0.7,5.3,2.1c1.3,1.4,1.9,3.2,1.9,5.6v2.5h-10.1v0.1c0.1,1.1,0.5,2,1.1,2.8
	c0.7,0.7,1.6,1.1,2.7,1.1c1,0,1.8-0.1,2.5-0.3s1.4-0.5,2.2-1l1.2,2.8c-0.7,0.6-1.6,1-2.7,1.4S347.8,176.9,346.5,176.9z M346.1,162.9
	c-0.8,0-1.5,0.3-2,1c-0.5,0.6-0.8,1.5-0.9,2.5v0.1h5.6v-0.4c0-1-0.2-1.7-0.7-2.3S347,162.9,346.1,162.9z"/>
<path class="st1" d="M368.8,165.5h-3.1l-0.5-2.1c-0.3-0.2-0.7-0.5-1.2-0.6c-0.5-0.2-1-0.2-1.6-0.2c-0.8,0-1.4,0.2-1.9,0.5
	s-0.7,0.8-0.7,1.4c0,0.5,0.2,0.9,0.7,1.3c0.4,0.3,1.3,0.6,2.7,0.9c2.1,0.4,3.6,1,4.7,1.8c1,0.8,1.5,1.9,1.5,3.3c0,1.5-0.7,2.8-2,3.7
	c-1.3,1-3,1.4-5.2,1.4c-1.3,0-2.5-0.2-3.6-0.6s-2.1-0.9-2.9-1.6v-3.8h3.2l0.6,2.2c0.3,0.2,0.6,0.4,1.1,0.5s1,0.2,1.5,0.2
	c0.9,0,1.6-0.2,2.1-0.5s0.7-0.8,0.7-1.4c0-0.5-0.2-0.9-0.7-1.3c-0.5-0.4-1.4-0.7-2.7-1c-2-0.4-3.5-1-4.5-1.8s-1.5-1.9-1.5-3.3
	c0-1.4,0.6-2.6,1.8-3.7c1.2-1,2.8-1.5,5-1.5c1.3,0,2.6,0.2,3.7,0.5c1.2,0.4,2.1,0.8,2.8,1.4V165.5z"/>
<path class="st1" d="M377.8,155.6v4.1h3v3.2h-3v8.6c0,0.7,0.1,1.1,0.4,1.4s0.6,0.4,1.1,0.4c0.3,0,0.6,0,0.8,0c0.2,0,0.5-0.1,0.8-0.1
	l0.4,3.3c-0.5,0.2-1,0.3-1.5,0.4s-1,0.1-1.6,0.1c-1.6,0-2.8-0.4-3.6-1.3c-0.8-0.9-1.3-2.2-1.3-4.1V163h-2.5v-3.2h2.5v-4.1
	L377.8,155.6L377.8,155.6z"/>
<path class="st1" d="M148.9,232.1l1.2-0.2l5.2-14.8h3.5l5.2,14.8l1.2,0.2v2.1h-5.8v-2.1l1.2-0.2l-0.8-2.3h-5.5l-0.8,2.3l1.2,0.2v2.1
	h-5.8L148.9,232.1L148.9,232.1z M155,227.1h3.9l-1.9-6l0,0L155,227.1z"/>
<path class="st1" d="M182.6,225.9h-2.3l-0.4-1.6c-0.2-0.2-0.5-0.3-0.9-0.5s-0.7-0.2-1.2-0.2c-0.6,0-1.1,0.1-1.4,0.4s-0.5,0.6-0.5,1
	s0.2,0.7,0.5,1s1,0.5,2,0.7c1.6,0.3,2.7,0.8,3.5,1.4s1.1,1.4,1.1,2.5s-0.5,2.1-1.5,2.8s-2.3,1.1-3.9,1.1c-1,0-1.9-0.1-2.7-0.4
	s-1.5-0.7-2.2-1.2v-2.8h2.4l0.5,1.7c0.2,0.2,0.5,0.3,0.8,0.4s0.7,0.1,1.1,0.1c0.7,0,1.2-0.1,1.6-0.4s0.5-0.6,0.5-1s-0.2-0.7-0.6-1
	s-1-0.5-2-0.7c-1.5-0.3-2.6-0.8-3.4-1.4s-1.1-1.4-1.1-2.4c0-1.1,0.4-2,1.3-2.7s2.1-1.2,3.7-1.2c1,0,1.9,0.1,2.8,0.4s1.6,0.6,2.1,1
	L182.6,225.9z"/>
<path class="st1" d="M202.4,223.6l-1.3,0.2l-2.6,10.5h-2.9l-2.4-7.5h-0.1l-2.4,7.5H188l-2.7-10.5l-1.3-0.2v-2.1h5.7v2.1l-1.3,0.3
	l1.2,5.8h0.1l2.4-8.1h2.3l2.4,8.1h0.1l1.2-5.8l-1.4-0.3v-2.1h5.7V223.6z"/>
<path class="st1" d="M211.3,234.2c-0.1-0.2-0.2-0.4-0.2-0.7s-0.1-0.4-0.2-0.7c-0.4,0.5-0.9,0.8-1.5,1.1s-1.2,0.4-2,0.4
	c-1.2,0-2.2-0.3-3-1s-1.1-1.6-1.1-2.8s0.5-2.1,1.4-2.8s2.4-1,4.2-1h1.7v-1.2c0-0.6-0.2-1.1-0.5-1.4s-0.9-0.5-1.6-0.5
	c-0.4,0-0.7,0-1,0.1s-0.6,0.2-0.7,0.3l-0.2,1.4H204v-2.8c0.6-0.4,1.3-0.8,2.2-1.1s1.7-0.4,2.6-0.4c1.6,0,2.8,0.4,3.8,1.2
	s1.5,1.9,1.5,3.3v5.2c0,0.2,0,0.4,0,0.6s0,0.3,0,0.5l1,0.1v2.1L211.3,234.2L211.3,234.2z M208.3,231.9c0.5,0,1-0.1,1.4-0.3
	s0.8-0.5,1-0.8v-1.9H209c-0.7,0-1.3,0.2-1.7,0.5s-0.6,0.7-0.6,1.2c0,0.4,0.1,0.8,0.4,1S207.8,231.9,208.3,231.9z"/>
<path class="st1" d="M228.4,228.2c0,1.9-0.4,3.4-1.3,4.5s-2.1,1.7-3.7,1.7c-0.7,0-1.4-0.2-1.9-0.5s-1-0.8-1.4-1.3l-0.2,1.6h-3v-15.9
	l-1.8-0.4v-2.1h5.2v6.9c0.4-0.5,0.8-0.9,1.3-1.2s1.1-0.4,1.8-0.4c1.6,0,2.8,0.6,3.7,1.8s1.3,2.8,1.3,4.9L228.4,228.2L228.4,228.2z
	 M225,228c0-1.2-0.2-2.2-0.5-2.9s-1-1.1-1.9-1.1c-0.5,0-1,0.1-1.3,0.3s-0.7,0.5-0.9,1v5.4c0.2,0.4,0.5,0.7,0.9,0.9s0.8,0.3,1.4,0.3
	c0.9,0,1.5-0.3,1.9-0.9s0.5-1.5,0.5-2.6L225,228L225,228z"/>
<path class="st1" d="M254,223.6l-1.3,0.2l-2.6,10.5h-2.9l-2.4-7.5h-0.1l-2.4,7.5h-2.8l-2.7-10.5l-1.3-0.2v-2.1h5.7v2.1l-1.3,0.3
	l1.2,5.8h0.1l2.4-8.1h2.3l2.4,8.1h0.1l1.2-5.8l-1.4-0.3v-2.1h5.7v2.1H254z"/>
<path class="st1" d="M255.2,232.1l1.7-0.4v-7.9l-1.8-0.4v-2.1h5.2v10.3l1.6,0.4v2.1h-6.7V232.1z M260.3,218.5h-3.4v-2.6h3.4V218.5z"
	/>
<path class="st1" d="M262.9,218v-2.1h5.2v15.9l1.7,0.4v2.1h-6.7v-2.1l1.7-0.4v-13.5L262.9,218z"/>
<path class="st1" d="M270.8,218v-2.1h5.2v15.9l1.7,0.4v2.1H271v-2.1l1.7-0.4v-13.5L270.8,218z"/>
<path class="st1" d="M296.9,228.2c0,1.9-0.4,3.4-1.3,4.5s-2.1,1.7-3.7,1.7c-0.7,0-1.4-0.2-1.9-0.5s-1-0.8-1.4-1.3l-0.2,1.6h-3v-15.9
	l-1.8-0.4v-2.1h5.2v6.9c0.4-0.5,0.8-0.9,1.3-1.2s1.1-0.4,1.8-0.4c1.6,0,2.8,0.6,3.7,1.8s1.3,2.8,1.3,4.9V228.2z M293.5,228
	c0-1.2-0.2-2.2-0.5-2.9s-1-1.1-1.9-1.1c-0.5,0-1,0.1-1.3,0.3s-0.7,0.5-0.9,1v5.4c0.2,0.4,0.5,0.7,0.9,0.9s0.8,0.3,1.4,0.3
	c0.9,0,1.5-0.3,1.9-0.9s0.5-1.5,0.5-2.6V228H293.5z"/>
<path class="st1" d="M304.5,234.4c-1.8,0-3.3-0.6-4.4-1.8s-1.6-2.7-1.6-4.5v-0.5c0-1.9,0.5-3.4,1.6-4.7s2.4-1.8,4.2-1.8
	c1.7,0,3,0.5,4,1.5s1.4,2.4,1.4,4.2v1.9H302v0.1c0.1,0.8,0.3,1.5,0.8,2.1s1.2,0.8,2,0.8s1.4-0.1,1.9-0.2c0.5-0.2,1-0.4,1.6-0.7
	l0.9,2.1c-0.5,0.4-1.2,0.8-2,1C306.4,234.3,305.5,234.4,304.5,234.4z M304.2,223.9c-0.6,0-1.1,0.2-1.5,0.7s-0.6,1.1-0.7,1.9v0.1h4.2
	v-0.3c0-0.7-0.2-1.3-0.5-1.7S304.8,223.9,304.2,223.9z"/>
<path class="st1" d="M322.1,218.4v3.1h2.2v2.4h-2.2v6.5c0,0.5,0.1,0.8,0.3,1.1s0.5,0.3,0.8,0.3c0.2,0,0.4,0,0.6,0s0.4-0.1,0.6-0.1
	l0.3,2.5c-0.4,0.1-0.8,0.2-1.1,0.3s-0.8,0.1-1.2,0.1c-1.2,0-2.1-0.3-2.7-1s-1-1.7-1-3.1V224h-1.9v-2.4h1.9v-3.1h3.4V218.4z"/>
<path class="st1" d="M333.9,234.2c-0.1-0.2-0.2-0.4-0.2-0.7s-0.1-0.4-0.2-0.7c-0.4,0.5-0.9,0.8-1.5,1.1s-1.2,0.4-2,0.4
	c-1.2,0-2.2-0.3-3-1s-1.1-1.6-1.1-2.8s0.5-2.1,1.4-2.8s2.4-1,4.2-1h1.7v-1.2c0-0.6-0.2-1.1-0.5-1.4s-0.9-0.5-1.6-0.5
	c-0.4,0-0.7,0-1,0.1s-0.6,0.2-0.7,0.3l-0.2,1.4h-2.6v-2.8c0.6-0.4,1.3-0.8,2.2-1.1s1.7-0.4,2.6-0.4c1.6,0,2.8,0.4,3.8,1.2
	s1.5,1.9,1.5,3.3v5.2c0,0.2,0,0.4,0,0.6s0,0.3,0,0.5l1,0.1v2.1L333.9,234.2L333.9,234.2z M330.9,231.9c0.5,0,1-0.1,1.4-0.3
	s0.8-0.5,1-0.8v-1.9h-1.7c-0.7,0-1.3,0.2-1.7,0.5s-0.6,0.7-0.6,1.2c0,0.4,0.1,0.8,0.4,1S330.4,231.9,330.9,231.9z"/>
<path class="st1" d="M338.8,218v-2.1h5.2v10.6h0.8l2-2.8l-1.1-0.2v-2.1h6.2v2.1l-1.5,0.3l-2.3,3.1l3.2,4.8l1.3,0.3v2.1h-5.9V232
	l0.7-0.1l-1.9-3.1H344v2.9l1.5,0.4v2.1H339v-2.1l1.7-0.4v-13.5L338.8,218z"/>
<path class="st1" d="M359.4,234.4c-1.8,0-3.3-0.6-4.4-1.8s-1.6-2.7-1.6-4.5v-0.5c0-1.9,0.5-3.4,1.6-4.7s2.4-1.8,4.2-1.8
	c1.7,0,3,0.5,4,1.5s1.4,2.4,1.4,4.2v1.9H357v0.1c0.1,0.8,0.3,1.5,0.8,2.1s1.2,0.8,2,0.8s1.4-0.1,1.9-0.2s1-0.4,1.6-0.7l0.9,2.1
	c-0.5,0.4-1.2,0.8-2,1S360.4,234.4,359.4,234.4z M359.1,223.9c-0.6,0-1.1,0.2-1.5,0.7s-0.6,1.1-0.7,1.9v0.1h4.2v-0.3
	c0-0.7-0.2-1.3-0.5-1.7S359.8,223.9,359.1,223.9z"/>
<path class="st1" d="M365.8,232.1l1.6-0.4v-7.9l-1.8-0.4v-2.1h5l0.2,1.8c0.4-0.6,0.9-1.2,1.6-1.5s1.3-0.5,2.1-0.5
	c1.3,0,2.3,0.4,3,1.2s1.1,2.1,1.1,3.8v5.5l1.6,0.4v2.1h-6.5V232l1.5-0.4v-5.5c0-0.9-0.2-1.5-0.5-1.8s-0.9-0.5-1.6-0.5
	c-0.5,0-0.9,0.1-1.2,0.3s-0.7,0.4-0.9,0.8v6.8l1.4,0.4v2.1H366v-2.1H365.8z"/>
<path class="st1" d="M387.2,232.1l1.7-0.4v-7.9H387v-2.4h1.9V220c0-1.4,0.4-2.5,1.2-3.3s2-1.2,3.5-1.2c0.3,0,0.6,0,0.9,0.1
	s0.6,0.1,1,0.2l-0.3,2.5c-0.2,0-0.4-0.1-0.5-0.1s-0.4,0-0.6,0c-0.6,0-1,0.2-1.3,0.5s-0.4,0.7-0.4,1.3v1.4h2.5v2.4h-2.5v7.9l1.7,0.4
	v2.1h-6.7v-2.1H387.2z"/>
<path class="st1" d="M396.3,232.1l1.6-0.4v-7.9l-1.8-0.4v-2.1h5l0.2,1.9c0.3-0.7,0.7-1.2,1.1-1.5s1-0.6,1.6-0.6c0.2,0,0.4,0,0.6,0
	s0.4,0.1,0.5,0.1l-0.4,3.1h-1.4c-0.5,0-0.9,0.1-1.2,0.3s-0.6,0.5-0.8,0.8v6.2l1.6,0.4v2.1h-6.7L396.3,232.1L396.3,232.1z"/>
<path class="st1" d="M405.8,227.7c0-1.9,0.5-3.4,1.6-4.6s2.5-1.8,4.4-1.8s3.3,0.6,4.4,1.8s1.6,2.8,1.6,4.7v0.2
	c0,1.9-0.5,3.5-1.6,4.7s-2.5,1.8-4.4,1.8s-3.4-0.6-4.4-1.8s-1.6-2.8-1.6-4.7V227.7z M409.2,228c0,1.2,0.2,2.1,0.6,2.8s1.1,1,2,1
	s1.5-0.4,1.9-1.1s0.6-1.6,0.6-2.8v-0.2c0-1.1-0.2-2-0.6-2.8s-1.1-1.1-2-1.1s-1.5,0.4-1.9,1.1s-0.6,1.6-0.6,2.8V228z"/>
<path class="st1" d="M418.5,223.6v-2.1h5l0.1,1.7c0.4-0.6,0.9-1.1,1.5-1.4s1.3-0.5,2.1-0.5c0.8,0,1.5,0.2,2.1,0.5s1,0.9,1.3,1.6
	c0.4-0.7,0.9-1.2,1.5-1.6s1.4-0.6,2.2-0.6c1.2,0,2.2,0.4,3,1.3s1.1,2.2,1.1,3.9v5.3l1.7,0.4v2.1h-6.6v-2.1l1.5-0.4v-5.3
	c0-1-0.2-1.6-0.5-2s-0.8-0.6-1.4-0.6c-0.5,0-0.9,0.1-1.3,0.3s-0.6,0.5-0.8,0.9c0,0.1,0,0.3,0,0.4s0,0.2,0,0.3v5.9l1.4,0.4v2.1h-6.2
	V232l1.4-0.4v-5.3c0-0.9-0.2-1.6-0.5-2s-0.8-0.6-1.4-0.6c-0.5,0-0.9,0.1-1.2,0.3s-0.6,0.4-0.9,0.7v6.8l1.5,0.4v2.1h-6.5v-2.1
	l1.7-0.4v-7.9L418.5,223.6z"/>
<path class="st1" d="M142.2,252.4l-1.2,0.2l-4.7,12.3c-0.4,0.9-0.9,1.7-1.5,2.3s-1.5,0.9-2.8,0.9c-0.3,0-0.6,0-0.8-0.1
	s-0.6-0.1-0.9-0.2l0.4-2.5c0.1,0,0.2,0,0.3,0s0.2,0,0.3,0c0.6,0,1-0.1,1.3-0.4s0.5-0.6,0.7-1l0.4-1l-4-10.4l-1.2-0.2v-2.1h6.2v2.1
	l-1.4,0.2l1.7,5.1l0.2,0.9h0.1l2-6l-1.4-0.2v-2.1h6.2L142.2,252.4L142.2,252.4z"/>
<path class="st1" d="M142.9,256.5c0-1.9,0.5-3.4,1.6-4.6s2.5-1.8,4.4-1.8s3.3,0.6,4.4,1.8s1.6,2.8,1.6,4.7v0.2
	c0,1.9-0.5,3.5-1.6,4.7s-2.5,1.8-4.4,1.8s-3.4-0.6-4.4-1.8s-1.6-2.8-1.6-4.7V256.5z M146.3,256.8c0,1.2,0.2,2.1,0.6,2.8s1.1,1,2,1
	s1.5-0.4,1.9-1.1s0.6-1.6,0.6-2.8v-0.2c0-1.1-0.2-2-0.6-2.8s-1.1-1.1-2-1.1s-1.5,0.4-1.9,1.1s-0.6,1.6-0.6,2.8V256.8z"/>
<path class="st1" d="M164.9,261.4c-0.4,0.6-0.9,1.1-1.5,1.4s-1.3,0.5-2,0.5c-1.3,0-2.4-0.4-3.1-1.3s-1.1-2.2-1.1-4v-5.2l-1.4-0.4
	v-2.1h1.4h3.4v7.7c0,0.9,0.2,1.6,0.5,2s0.8,0.6,1.4,0.6c0.5,0,1-0.1,1.4-0.3s0.7-0.4,1-0.8v-6.8l-1.5-0.4v-2.1h1.5h3.4v10.3l1.5,0.4
	v2.1h-4.5L164.9,261.4z"/>
<path class="st1" d="M171.1,260.9l1.6-0.4v-7.9l-1.8-0.4v-2.1h5l0.2,1.9c0.3-0.7,0.7-1.2,1.1-1.5s1-0.6,1.6-0.6c0.2,0,0.4,0,0.6,0
	s0.4,0.1,0.5,0.1l-0.4,3.1h-1.4c-0.5,0-0.9,0.1-1.2,0.3s-0.6,0.5-0.8,0.8v6.2l1.6,0.4v2.1H171L171.1,260.9L171.1,260.9z"/>
<path class="st1" d="M191.9,247.2v3.1h2.2v2.4h-2.2v6.5c0,0.5,0.1,0.8,0.3,1.1s0.5,0.3,0.8,0.3c0.2,0,0.4,0,0.6,0s0.4-0.1,0.6-0.1
	l0.3,2.5c-0.4,0.1-0.8,0.2-1.1,0.3s-0.8,0.1-1.2,0.1c-1.2,0-2.1-0.3-2.7-1s-1-1.7-1-3.1v-6.5h-1.9v-2.4h1.9v-3.1L191.9,247.2
	L191.9,247.2z"/>
<path class="st1" d="M195.7,260.9l1.7-0.4V247l-1.8-0.4v-2.1h5.2v7.2c0.4-0.6,0.9-1,1.5-1.4s1.2-0.5,1.9-0.5c1.3,0,2.4,0.4,3.1,1.3
	s1.1,2.2,1.1,4.1v5.1l1.6,0.4v2.1h-6.5v-2.1l1.5-0.4v-5.1c0-1-0.2-1.7-0.5-2.1s-0.9-0.6-1.6-0.6c-0.5,0-0.9,0.1-1.2,0.3
	s-0.7,0.4-0.9,0.7v6.9l1.5,0.4v2.1h-6.5v-2H195.7z"/>
<path class="st1" d="M211.4,260.9l1.6-0.4v-7.9l-1.8-0.4v-2.1h5l0.2,1.9c0.3-0.7,0.7-1.2,1.1-1.5s1-0.6,1.6-0.6c0.2,0,0.4,0,0.6,0
	s0.4,0.1,0.5,0.1l-0.4,3.1h-1.4c-0.5,0-0.9,0.1-1.2,0.3s-0.6,0.5-0.8,0.8v6.2l1.6,0.4v2.1h-6.7L211.4,260.9L211.4,260.9z"/>
<path class="st1" d="M220.9,256.5c0-1.9,0.5-3.4,1.6-4.6s2.5-1.8,4.4-1.8s3.3,0.6,4.4,1.8s1.6,2.8,1.6,4.7v0.2
	c0,1.9-0.5,3.5-1.6,4.7s-2.5,1.8-4.4,1.8s-3.4-0.6-4.4-1.8s-1.6-2.8-1.6-4.7V256.5z M224.4,256.8c0,1.2,0.2,2.1,0.6,2.8s1.1,1,2,1
	s1.5-0.4,1.9-1.1s0.6-1.6,0.6-2.8v-0.2c0-1.1-0.2-2-0.6-2.8s-1.1-1.1-2-1.1s-1.5,0.4-1.9,1.1s-0.6,1.6-0.6,2.8V256.8z"/>
<path class="st1" d="M242.2,263c-0.1-0.2-0.2-0.4-0.2-0.7s-0.1-0.4-0.2-0.7c-0.4,0.5-0.9,0.8-1.5,1.1s-1.2,0.4-2,0.4
	c-1.2,0-2.2-0.3-3-1s-1.1-1.6-1.1-2.8c0-1.2,0.5-2.1,1.4-2.8s2.4-1,4.2-1h1.7v-1.2c0-0.6-0.2-1.1-0.5-1.4s-0.9-0.5-1.6-0.5
	c-0.4,0-0.7,0-1,0.1s-0.6,0.2-0.7,0.3l-0.2,1.4H235v-2.8c0.6-0.4,1.3-0.8,2.2-1.1s1.7-0.4,2.6-0.4c1.6,0,2.8,0.4,3.8,1.2
	s1.5,1.9,1.5,3.3v5.2c0,0.2,0,0.4,0,0.6s0,0.3,0,0.5l1,0.1v2.1L242.2,263L242.2,263z M239.2,260.7c0.5,0,1-0.1,1.4-0.3
	s0.8-0.5,1-0.8v-1.9h-1.7c-0.7,0-1.3,0.2-1.7,0.5s-0.6,0.7-0.6,1.2c0,0.4,0.1,0.8,0.4,1S238.8,260.7,239.2,260.7z"/>
<path class="st1" d="M251.9,247.2v3.1h2.2v2.4h-2.2v6.5c0,0.5,0.1,0.8,0.3,1.1s0.5,0.3,0.8,0.3c0.2,0,0.4,0,0.6,0s0.4-0.1,0.6-0.1
	l0.3,2.5c-0.4,0.1-0.8,0.2-1.1,0.3s-0.8,0.1-1.2,0.1c-1.2,0-2.1-0.3-2.7-1s-1-1.7-1-3.1v-6.5h-1.9v-2.4h1.9v-3.1L251.9,247.2
	L251.9,247.2z"/>
<path class="st1" d="M259.6,262.5c0,0.8-0.2,1.6-0.7,2.5s-1,1.6-1.6,2.2l-1.7-0.9c0.3-0.5,0.5-1.1,0.7-1.7s0.2-1.2,0.2-2V260h3.1
	V262.5z"/>
<path class="st1" d="M275.5,263c-0.1-0.2-0.2-0.4-0.2-0.7s-0.1-0.4-0.2-0.7c-0.4,0.5-0.9,0.8-1.5,1.1s-1.2,0.4-2,0.4
	c-1.2,0-2.2-0.3-3-1s-1.1-1.6-1.1-2.8c0-1.2,0.5-2.1,1.4-2.8s2.4-1,4.2-1h1.7v-1.2c0-0.6-0.2-1.1-0.5-1.4s-0.9-0.5-1.6-0.5
	c-0.4,0-0.7,0-1,0.1s-0.6,0.2-0.7,0.3l-0.2,1.4h-2.6v-2.8c0.6-0.4,1.3-0.8,2.2-1.1s1.7-0.4,2.6-0.4c1.6,0,2.8,0.4,3.8,1.2
	s1.5,1.9,1.5,3.3v5.2c0,0.2,0,0.4,0,0.6s0,0.3,0,0.5l1,0.1v2.1L275.5,263L275.5,263z M272.6,260.7c0.5,0,1-0.1,1.4-0.3
	s0.8-0.5,1-0.8v-1.9h-1.7c-0.7,0-1.3,0.2-1.7,0.5s-0.6,0.7-0.6,1.2c0,0.4,0.1,0.8,0.4,1S272.1,260.7,272.6,260.7z"/>
<path class="st1" d="M280.6,260.9l1.6-0.4v-7.9l-1.8-0.4v-2.1h5l0.2,1.8c0.4-0.6,0.9-1.2,1.6-1.5s1.3-0.5,2.1-0.5
	c1.3,0,2.3,0.4,3,1.2s1.1,2.1,1.1,3.8v5.5l1.6,0.4v2.1h-6.5v-2.1l1.5-0.4v-5.5c0-0.9-0.2-1.5-0.5-1.8s-0.9-0.5-1.6-0.5
	c-0.5,0-0.9,0.1-1.2,0.3s-0.7,0.4-0.9,0.8v6.8l1.4,0.4v2.1h-6.4v-2.1H280.6z"/>
<path class="st1" d="M304.4,261.4c-0.4,0.6-0.9,1.1-1.5,1.4s-1.3,0.5-2,0.5c-1.3,0-2.4-0.4-3.1-1.3s-1.1-2.2-1.1-4v-5.2l-1.4-0.4
	v-2.1h1.4h3.4v7.7c0,0.9,0.2,1.6,0.5,2s0.8,0.6,1.4,0.6c0.5,0,1-0.1,1.4-0.3s0.7-0.4,1-0.8v-6.8l-1.5-0.4v-2.1h1.5h3.4v10.3l1.5,0.4
	v2.1h-4.5L304.4,261.4z"/>
<path class="st1" d="M320.5,254.7h-2.3l-0.4-1.6c-0.2-0.2-0.5-0.3-0.9-0.5s-0.7-0.2-1.2-0.2c-0.6,0-1.1,0.1-1.4,0.4s-0.5,0.6-0.5,1
	s0.2,0.7,0.5,1s1,0.5,2,0.7c1.6,0.3,2.7,0.8,3.5,1.4s1.1,1.4,1.1,2.5s-0.5,2.1-1.5,2.8s-2.3,1.1-3.9,1.1c-1,0-1.9-0.1-2.7-0.4
	s-1.5-0.7-2.2-1.2v-2.8h2.4l0.5,1.7c0.2,0.2,0.5,0.3,0.8,0.4s0.7,0.1,1.1,0.1c0.7,0,1.2-0.1,1.6-0.4s0.5-0.6,0.5-1s-0.2-0.7-0.6-1
	s-1-0.5-2-0.7c-1.5-0.3-2.6-0.8-3.4-1.4s-1.1-1.4-1.1-2.4c0-1.1,0.4-2,1.3-2.7s2.1-1.2,3.7-1.2c1,0,1.9,0.1,2.8,0.4s1.6,0.6,2.1,1
	L320.5,254.7z"/>
<path class="st1" d="M326.2,262.5c0,0.8-0.2,1.6-0.7,2.5s-1,1.6-1.6,2.2l-1.7-0.9c0.3-0.5,0.5-1.1,0.7-1.7s0.2-1.2,0.2-2V260h3.1
	V262.5z"/>
<path class="st1" d="M342.1,263c-0.1-0.2-0.2-0.4-0.2-0.7s-0.1-0.4-0.2-0.7c-0.4,0.5-0.9,0.8-1.5,1.1s-1.2,0.4-2,0.4
	c-1.2,0-2.2-0.3-3-1s-1.1-1.6-1.1-2.8c0-1.2,0.5-2.1,1.4-2.8s2.4-1,4.2-1h1.7v-1.2c0-0.6-0.2-1.1-0.5-1.4s-0.9-0.5-1.6-0.5
	c-0.4,0-0.7,0-1,0.1s-0.6,0.2-0.7,0.3l-0.2,1.4h-2.6v-2.8c0.6-0.4,1.3-0.8,2.2-1.1s1.7-0.4,2.6-0.4c1.6,0,2.8,0.4,3.8,1.2
	s1.5,1.9,1.5,3.3v5.2c0,0.2,0,0.4,0,0.6s0,0.3,0,0.5l1,0.1v2.1L342.1,263L342.1,263z M339.2,260.7c0.5,0,1-0.1,1.4-0.3
	s0.8-0.5,1-0.8v-1.9h-1.7c-0.7,0-1.3,0.2-1.7,0.5s-0.6,0.7-0.6,1.2c0,0.4,0.1,0.8,0.4,1S338.7,260.7,339.2,260.7z"/>
<path class="st1" d="M347.2,260.9l1.6-0.4v-7.9l-1.8-0.4v-2.1h5l0.2,1.8c0.4-0.6,0.9-1.2,1.6-1.5s1.3-0.5,2.1-0.5
	c1.3,0,2.3,0.4,3,1.2s1.1,2.1,1.1,3.8v5.5l1.6,0.4v2.1H355v-2.1l1.5-0.4v-5.5c0-0.9-0.2-1.5-0.5-1.8s-0.9-0.5-1.6-0.5
	c-0.5,0-0.9,0.1-1.2,0.3s-0.7,0.4-0.9,0.8v6.8l1.4,0.4v2.1h-6.4L347.2,260.9L347.2,260.9z"/>
<path class="st1" d="M370.6,261.5c-0.4,0.6-0.9,1-1.4,1.3s-1.2,0.5-1.9,0.5c-1.6,0-2.8-0.6-3.6-1.7s-1.3-2.6-1.3-4.5v-0.2
	c0-2,0.4-3.6,1.3-4.8s2.1-1.8,3.7-1.8c0.6,0,1.2,0.1,1.7,0.4s1,0.7,1.3,1.2v-4.5l-1.8-0.4v-2.1h1.8h3.4v15.9l1.6,0.4v2.1h-4.6
	L370.6,261.5z M365.8,257c0,1.1,0.2,2,0.6,2.6s1,1,1.8,1c0.5,0,0.9-0.1,1.3-0.3s0.7-0.5,0.9-0.9V254c-0.2-0.4-0.5-0.7-0.9-0.9
	s-0.8-0.3-1.3-0.3c-0.8,0-1.4,0.4-1.8,1.1s-0.6,1.7-0.6,2.9V257z"/>
<path class="st1" d="M382.3,260.9l1.7-0.4v-7.9l-1.8-0.4v-2.1h5.2v10.3l1.6,0.4v2.1h-6.7L382.3,260.9L382.3,260.9z M387.4,247.3H384
	v-2.6h3.4V247.3z"/>
<path class="st1" d="M390.2,260.9l1.6-0.4v-7.9l-1.8-0.4v-2.1h5l0.2,1.8c0.4-0.6,0.9-1.2,1.6-1.5s1.3-0.5,2.1-0.5
	c1.3,0,2.3,0.4,3,1.2s1.1,2.1,1.1,3.8v5.5l1.6,0.4v2.1H398v-2.1l1.5-0.4v-5.5c0-0.9-0.2-1.5-0.5-1.8s-0.9-0.5-1.6-0.5
	c-0.5,0-0.9,0.1-1.2,0.3s-0.7,0.4-0.9,0.8v6.8l1.4,0.4v2.1h-6.4L390.2,260.9L390.2,260.9z"/>
<path class="st1" d="M410,247.2v3.1h2.2v2.4H410v6.5c0,0.5,0.1,0.8,0.3,1.1s0.5,0.3,0.8,0.3c0.2,0,0.4,0,0.6,0s0.4-0.1,0.6-0.1
	l0.3,2.5c-0.4,0.1-0.8,0.2-1.1,0.3s-0.8,0.1-1.2,0.1c-1.2,0-2.1-0.3-2.7-1s-1-1.7-1-3.1v-6.5h-1.9v-2.4h1.9v-3.1L410,247.2
	L410,247.2z"/>
<path class="st1" d="M419.4,263.2c-1.8,0-3.3-0.6-4.4-1.8s-1.6-2.7-1.6-4.5v-0.5c0-1.9,0.5-3.4,1.6-4.7s2.4-1.8,4.2-1.8
	c1.7,0,3,0.5,4,1.5s1.4,2.4,1.4,4.2v1.9H417v0.1c0.1,0.8,0.3,1.5,0.8,2.1s1.2,0.8,2,0.8s1.4-0.1,1.9-0.2s1-0.4,1.6-0.7l0.9,2.1
	c-0.5,0.4-1.2,0.8-2,1S420.5,263.2,419.4,263.2z M419.1,252.7c-0.6,0-1.1,0.2-1.5,0.7s-0.6,1.1-0.7,1.9v0.1h4.2v-0.3
	c0-0.7-0.2-1.3-0.5-1.7S419.8,252.7,419.1,252.7z"/>
<path class="st1" d="M426,260.9l1.6-0.4v-7.9l-1.8-0.4v-2.1h5l0.2,1.9c0.3-0.7,0.7-1.2,1.1-1.5s1-0.6,1.6-0.6c0.2,0,0.4,0,0.6,0
	s0.4,0.1,0.5,0.1l-0.4,3.1H433c-0.5,0-0.9,0.1-1.2,0.3s-0.6,0.5-0.8,0.8v6.2l1.6,0.4v2.1H426V260.9z"/>
<path class="st1" d="M436,260.9l1.6-0.4v-7.9l-1.8-0.4v-2.1h5l0.2,1.8c0.4-0.6,0.9-1.2,1.6-1.5s1.3-0.5,2.1-0.5c1.3,0,2.3,0.4,3,1.2
	s1.1,2.1,1.1,3.8v5.5l1.6,0.4v2.1h-6.5v-2.1l1.5-0.4v-5.5c0-0.9-0.2-1.5-0.5-1.8s-0.9-0.5-1.6-0.5c-0.5,0-0.9,0.1-1.2,0.3
	s-0.7,0.4-0.9,0.8v6.8l1.4,0.4v2.1H436V260.9z"/>
<path class="st1" d="M459.5,263c-0.1-0.2-0.2-0.4-0.2-0.7s-0.1-0.4-0.2-0.7c-0.4,0.5-0.9,0.8-1.5,1.1s-1.2,0.4-2,0.4
	c-1.2,0-2.2-0.3-3-1s-1.1-1.6-1.1-2.8c0-1.2,0.5-2.1,1.4-2.8s2.4-1,4.2-1h1.7v-1.2c0-0.6-0.2-1.1-0.5-1.4s-0.9-0.5-1.6-0.5
	c-0.4,0-0.7,0-1,0.1s-0.6,0.2-0.7,0.3l-0.2,1.4h-2.6v-2.8c0.6-0.4,1.3-0.8,2.2-1.1s1.7-0.4,2.6-0.4c1.6,0,2.8,0.4,3.8,1.2
	s1.5,1.9,1.5,3.3v5.2c0,0.2,0,0.4,0,0.6s0,0.3,0,0.5l1,0.1v2.1L459.5,263L459.5,263z M456.5,260.7c0.5,0,1-0.1,1.4-0.3
	s0.8-0.5,1-0.8v-1.9h-1.7c-0.7,0-1.3,0.2-1.7,0.5s-0.6,0.7-0.6,1.2c0,0.4,0.1,0.8,0.4,1S456,260.7,456.5,260.7z"/>
<path class="st1" d="M464.4,246.8v-2.1h5.2v15.9l1.7,0.4v2.1h-6.7V261l1.7-0.4v-13.5L464.4,246.8z"/>
<path class="st1" d="M129.3,285.6c0-2,0.4-3.6,1.3-4.8s2.1-1.8,3.7-1.8c0.7,0,1.3,0.2,1.9,0.5s1,0.8,1.4,1.4l0.2-1.6h3v12.3
	c0,1.7-0.5,3-1.6,4s-2.5,1.5-4.3,1.5c-0.6,0-1.3-0.1-2-0.3s-1.4-0.4-2-0.7l0.6-2.4c0.5,0.2,1.1,0.4,1.6,0.6s1.1,0.2,1.7,0.2
	c0.8,0,1.5-0.3,1.9-0.8s0.6-1.2,0.6-2.1v-0.8c-0.4,0.5-0.8,0.8-1.3,1.1s-1.1,0.4-1.7,0.4c-1.6,0-2.8-0.6-3.6-1.7s-1.3-2.7-1.3-4.5
	L129.3,285.6L129.3,285.6z M132.7,285.8c0,1.1,0.2,2,0.6,2.6s1,1,1.8,1c0.5,0,1-0.1,1.3-0.3s0.7-0.5,0.9-0.8v-5.5
	c-0.2-0.4-0.5-0.7-0.9-0.9s-0.8-0.3-1.3-0.3c-0.8,0-1.4,0.4-1.8,1.1s-0.6,1.7-0.6,2.9V285.8z"/>
<path class="st1" d="M148.8,292c-1.8,0-3.3-0.6-4.4-1.8s-1.6-2.7-1.6-4.5v-0.5c0-1.9,0.5-3.4,1.6-4.7s2.4-1.8,4.2-1.8
	c1.7,0,3,0.5,4,1.5s1.4,2.4,1.4,4.2v1.9h-7.6v0.1c0.1,0.8,0.3,1.5,0.8,2.1s1.2,0.8,2,0.8s1.4-0.1,1.9-0.2s1-0.4,1.6-0.7l0.9,2.1
	c-0.5,0.4-1.2,0.8-2,1S149.8,292,148.8,292z M148.5,281.5c-0.6,0-1.1,0.2-1.5,0.7s-0.6,1.1-0.7,1.9v0.1h4.2v-0.3
	c0-0.7-0.2-1.3-0.5-1.7S149.2,281.5,148.5,281.5z"/>
<path class="st1" d="M155.1,289.7l1.6-0.4v-7.9l-1.8-0.4v-2.1h5l0.2,1.8c0.4-0.6,0.9-1.2,1.6-1.5s1.3-0.5,2.1-0.5
	c1.3,0,2.3,0.4,3,1.2s1.1,2.1,1.1,3.8v5.5l1.6,0.4v2.1H163v-2.1l1.5-0.4v-5.5c0-0.9-0.2-1.5-0.5-1.8s-0.9-0.5-1.6-0.5
	c-0.5,0-0.9,0.1-1.2,0.3s-0.7,0.4-0.9,0.8v6.8l1.4,0.4v2.1h-6.4v-2.1H155.1z"/>
<path class="st1" d="M170.6,289.7l1.7-0.4v-7.9l-1.8-0.4v-2.1h5.2v10.3l1.6,0.4v2.1h-6.7V289.7z M175.7,276.1h-3.4v-2.6h3.4V276.1z"
	/>
<path class="st1" d="M182.9,276v3.1h2.2v2.4h-2.2v6.5c0,0.5,0.1,0.8,0.3,1.1s0.5,0.3,0.8,0.3c0.2,0,0.4,0,0.6,0s0.4-0.1,0.6-0.1
	l0.3,2.5c-0.4,0.1-0.8,0.2-1.1,0.3s-0.8,0.1-1.2,0.1c-1.2,0-2.1-0.3-2.7-1s-1-1.7-1-3.1v-6.5h-1.9v-2.4h1.9V276H182.9z"/>
<path class="st1" d="M194.7,291.8c-0.1-0.2-0.2-0.4-0.2-0.7s-0.1-0.4-0.2-0.7c-0.4,0.5-0.9,0.8-1.5,1.1s-1.2,0.4-2,0.4
	c-1.2,0-2.2-0.3-3-1s-1.1-1.6-1.1-2.8c0-1.2,0.5-2.1,1.4-2.8s2.4-1,4.2-1h1.7v-1.2c0-0.6-0.2-1.1-0.5-1.4s-0.9-0.5-1.6-0.5
	c-0.4,0-0.7,0-1,0.1s-0.6,0.2-0.7,0.3L190,283h-2.6v-2.8c0.6-0.4,1.3-0.8,2.2-1.1s1.7-0.4,2.6-0.4c1.6,0,2.8,0.4,3.8,1.2
	s1.5,1.9,1.5,3.3v5.2c0,0.2,0,0.4,0,0.6s0,0.3,0,0.5l1,0.1v2.1L194.7,291.8L194.7,291.8z M191.7,289.5c0.5,0,1-0.1,1.4-0.3
	s0.8-0.5,1-0.8v-1.9h-1.7c-0.7,0-1.3,0.2-1.7,0.5s-0.6,0.7-0.6,1.2c0,0.4,0.1,0.8,0.4,1S191.2,289.5,191.7,289.5z"/>
<path class="st1" d="M199.6,275.6v-2.1h5.2v15.9l1.7,0.4v2.1h-6.7v-2.1l1.7-0.4v-13.5L199.6,275.6z"/>
<path class="st1" d="M207.7,289.7l1.7-0.4v-7.9l-1.8-0.4v-2.1h5.2v10.3l1.6,0.4v2.1h-6.7V289.7z M212.7,276.1h-3.4v-2.6h3.4V276.1z"
	/>
<path class="st1" d="M223.5,291.8c-0.1-0.2-0.2-0.4-0.2-0.7s-0.1-0.4-0.2-0.7c-0.4,0.5-0.9,0.8-1.5,1.1s-1.2,0.4-2,0.4
	c-1.2,0-2.2-0.3-3-1s-1.1-1.6-1.1-2.8c0-1.2,0.5-2.1,1.4-2.8s2.4-1,4.2-1h1.7v-1.2c0-0.6-0.2-1.1-0.5-1.4s-0.9-0.5-1.6-0.5
	c-0.4,0-0.7,0-1,0.1s-0.6,0.2-0.7,0.3l-0.2,1.4h-2.6v-2.8c0.6-0.4,1.3-0.8,2.2-1.1s1.7-0.4,2.6-0.4c1.6,0,2.8,0.4,3.8,1.2
	s1.5,1.9,1.5,3.3v5.2c0,0.2,0,0.4,0,0.6s0,0.3,0,0.5l1,0.1v2.1L223.5,291.8L223.5,291.8z M220.6,289.5c0.5,0,1-0.1,1.4-0.3
	s0.8-0.5,1-0.8v-1.9h-1.7c-0.7,0-1.3,0.2-1.7,0.5s-0.6,0.7-0.6,1.2c0,0.4,0.1,0.8,0.4,1S220.1,289.5,220.6,289.5z"/>
<path class="st1" d="M239.6,276v3.1h2.2v2.4h-2.2v6.5c0,0.5,0.1,0.8,0.3,1.1s0.5,0.3,0.8,0.3c0.2,0,0.4,0,0.6,0s0.4-0.1,0.6-0.1
	l0.3,2.5c-0.4,0.1-0.8,0.2-1.1,0.3s-0.8,0.1-1.2,0.1c-1.2,0-2.1-0.3-2.7-1s-1-1.7-1-3.1v-6.5h-1.9v-2.4h1.9V276H239.6z"/>
<path class="st1" d="M243,285.3c0-1.9,0.5-3.4,1.6-4.6s2.5-1.8,4.4-1.8s3.3,0.6,4.4,1.8s1.6,2.8,1.6,4.7v0.2c0,1.9-0.5,3.5-1.6,4.7
	s-2.5,1.8-4.4,1.8s-3.4-0.6-4.4-1.8s-1.6-2.8-1.6-4.7V285.3z M246.4,285.6c0,1.2,0.2,2.1,0.6,2.8s1.1,1,2,1s1.5-0.4,1.9-1.1
	s0.6-1.6,0.6-2.8v-0.2c0-1.1-0.2-2-0.6-2.8s-1.1-1.1-2-1.1s-1.5,0.4-1.9,1.1s-0.6,1.6-0.6,2.8V285.6z"/>
<path class="st1" d="M274.6,285.8c0,1.9-0.4,3.4-1.3,4.5s-2.1,1.7-3.7,1.7c-0.7,0-1.4-0.2-1.9-0.5s-1-0.8-1.4-1.3l-0.2,1.6h-3v-15.9
	l-1.8-0.4v-2.1h5.2v6.9c0.4-0.5,0.8-0.9,1.3-1.2s1.1-0.4,1.8-0.4c1.6,0,2.8,0.6,3.7,1.8s1.3,2.8,1.3,4.9V285.8z M271.2,285.6
	c0-1.2-0.2-2.2-0.5-2.9s-1-1.1-1.9-1.1c-0.5,0-1,0.1-1.3,0.3s-0.7,0.5-0.9,1v5.4c0.2,0.4,0.5,0.7,0.9,0.9s0.8,0.3,1.4,0.3
	c0.9,0,1.5-0.3,1.9-0.9s0.5-1.5,0.5-2.6v-0.4H271.2z"/>
<path class="st1" d="M282.1,292c-1.8,0-3.3-0.6-4.4-1.8s-1.6-2.7-1.6-4.5v-0.5c0-1.9,0.5-3.4,1.6-4.7s2.4-1.8,4.2-1.8
	c1.7,0,3,0.5,4,1.5s1.4,2.4,1.4,4.2v1.9h-7.6v0.1c0.1,0.8,0.3,1.5,0.8,2.1s1.2,0.8,2,0.8s1.4-0.1,1.9-0.2s1-0.4,1.6-0.7l0.9,2.1
	c-0.5,0.4-1.2,0.8-2,1S283.2,292,282.1,292z M281.8,281.5c-0.6,0-1.1,0.2-1.5,0.7s-0.6,1.1-0.7,1.9v0.1h4.2v-0.3
	c0-0.7-0.2-1.3-0.5-1.7S282.5,281.5,281.8,281.5z"/>
<path class="st1" d="M300.7,289.4c0.6,0,1.1-0.2,1.5-0.5s0.6-0.8,0.6-1.4h3.1v0.1c0,1.3-0.4,2.4-1.4,3.2s-2.2,1.3-3.7,1.3
	c-1.9,0-3.3-0.6-4.4-1.8s-1.5-2.7-1.5-4.6v-0.4c0-1.9,0.5-3.4,1.6-4.6s2.5-1.8,4.5-1.8c1,0,1.9,0.2,2.8,0.5s1.5,0.7,2,1.3v3.4H303
	l-0.6-2c-0.2-0.1-0.4-0.3-0.6-0.4s-0.5-0.1-0.9-0.1c-1,0-1.7,0.4-2.1,1.1s-0.6,1.6-0.6,2.7v0.4c0,1.1,0.2,2,0.6,2.7
	S299.8,289.4,300.7,289.4z"/>
<path class="st1" d="M316.2,290.2c-0.4,0.6-0.9,1.1-1.5,1.4s-1.3,0.5-2,0.5c-1.3,0-2.4-0.4-3.1-1.3s-1.1-2.2-1.1-4v-5.2l-1.4-0.4
	v-2.1h1.4h3.4v7.7c0,0.9,0.2,1.6,0.5,2s0.8,0.6,1.4,0.6c0.5,0,1-0.1,1.4-0.3s0.7-0.4,1-0.8v-6.8l-1.5-0.4V279h1.5h3.4v10.3l1.5,0.4
	v2.1h-4.5L316.2,290.2z"/>
<path class="st1" d="M322,275.6v-2.1h5.2v15.9l1.7,0.4v2.1h-6.7v-2.1l1.7-0.4v-13.5L322,275.6z"/>
<path class="st1" d="M334.5,276v3.1h2.2v2.4h-2.2v6.5c0,0.5,0.1,0.8,0.3,1.1s0.5,0.3,0.8,0.3c0.2,0,0.4,0,0.6,0s0.4-0.1,0.6-0.1
	l0.3,2.5c-0.4,0.1-0.8,0.2-1.1,0.3s-0.8,0.1-1.2,0.1c-1.2,0-2.1-0.3-2.7-1s-1-1.7-1-3.1v-6.5h-1.9v-2.4h1.9V276H334.5z"/>
<path class="st1" d="M347.3,290.2c-0.4,0.6-0.9,1.1-1.5,1.4s-1.3,0.5-2,0.5c-1.3,0-2.4-0.4-3.1-1.3s-1.1-2.2-1.1-4v-5.2l-1.4-0.4
	v-2.1h1.4h3.4v7.7c0,0.9,0.2,1.6,0.5,2s0.8,0.6,1.4,0.6c0.5,0,1-0.1,1.4-0.3s0.7-0.4,1-0.8v-6.8l-1.5-0.4V279h1.5h3.4v10.3l1.5,0.4
	v2.1h-4.5L347.3,290.2z"/>
<path class="st1" d="M353.5,289.7l1.6-0.4v-7.9l-1.8-0.4v-2.1h5l0.2,1.9c0.3-0.7,0.7-1.2,1.1-1.5s1-0.6,1.6-0.6c0.2,0,0.4,0,0.6,0
	s0.4,0.1,0.5,0.1l-0.4,3.1h-1.4c-0.5,0-0.9,0.1-1.2,0.3s-0.6,0.5-0.8,0.8v6.2l1.6,0.4v2.1h-6.7L353.5,289.7L353.5,289.7z"/>
<path class="st1" d="M369.1,292c-1.8,0-3.3-0.6-4.4-1.8s-1.6-2.7-1.6-4.5v-0.5c0-1.9,0.5-3.4,1.6-4.7s2.4-1.8,4.2-1.8
	c1.7,0,3,0.5,4,1.5s1.4,2.4,1.4,4.2v1.9h-7.6v0.1c0.1,0.8,0.3,1.5,0.8,2.1s1.2,0.8,2,0.8s1.4-0.1,1.9-0.2s1-0.4,1.6-0.7l0.9,2.1
	c-0.5,0.4-1.2,0.8-2,1S370.1,292,369.1,292z M368.8,281.5c-0.6,0-1.1,0.2-1.5,0.7s-0.6,1.1-0.7,1.9v0.1h4.2v-0.3
	c0-0.7-0.2-1.3-0.5-1.7S369.4,281.5,368.8,281.5z"/>
<path class="st1" d="M384,290.3c-0.4,0.6-0.9,1-1.4,1.3s-1.2,0.5-1.9,0.5c-1.6,0-2.8-0.6-3.6-1.7s-1.3-2.6-1.3-4.5v-0.2
	c0-2,0.4-3.6,1.3-4.8s2.1-1.8,3.7-1.8c0.6,0,1.2,0.1,1.7,0.4s1,0.7,1.3,1.2v-4.5l-1.8-0.4v-2.1h1.8h3.4v15.9l1.6,0.4v2.1h-4.6
	L384,290.3z M379.2,285.8c0,1.1,0.2,2,0.6,2.6s1,1,1.8,1c0.5,0,0.9-0.1,1.3-0.3s0.7-0.5,0.9-0.9v-5.4c-0.2-0.4-0.5-0.7-0.9-0.9
	s-0.8-0.3-1.3-0.3c-0.8,0-1.4,0.4-1.8,1.1s-0.6,1.7-0.6,2.9V285.8z"/>
<path class="st1" d="M394.3,291.8h-3.4v-3h3.4V291.8z"/>
<path class="st1" d="M164,332.3v4.5h-2.6l-0.1-1.9h-3.1v12l1.8,0.4v2.1h-7.1v-2.1l1.8-0.4v-12h-3.1l-0.1,1.9h-2.6v-4.5H164z"/>
<path class="st1" d="M165.3,347.3l1.7-0.4v-13.5l-1.8-0.4v-2.1h5.2v7.2c0.4-0.6,0.9-1,1.5-1.4s1.2-0.5,1.9-0.5
	c1.3,0,2.4,0.4,3.1,1.3s1.1,2.2,1.1,4.1v5.1l1.6,0.4v2.1h-6.5v-2.1l1.5-0.4v-5.1c0-1-0.2-1.7-0.5-2.1s-0.9-0.6-1.6-0.6
	c-0.5,0-0.9,0.1-1.2,0.3s-0.7,0.4-0.9,0.7v6.9l1.5,0.4v2.1h-6.5v-2H165.3z"/>
<path class="st1" d="M180.8,347.3l1.7-0.4V339l-1.8-0.4v-2.1h5.2V347l1.6,0.4v2.1h-6.7V347.3z M185.9,333.7h-3.4v-2.6h3.4V333.7z"/>
<path class="st1" d="M198.8,341.1h-2.3l-0.4-1.6c-0.2-0.2-0.5-0.3-0.9-0.5s-0.7-0.2-1.2-0.2c-0.6,0-1.1,0.1-1.4,0.4s-0.5,0.6-0.5,1
	s0.2,0.7,0.5,1s1,0.5,2,0.7c1.6,0.3,2.7,0.8,3.5,1.4s1.1,1.4,1.1,2.5s-0.5,2.1-1.5,2.8s-2.3,1.1-3.9,1.1c-1,0-1.9-0.1-2.7-0.4
	s-1.5-0.7-2.2-1.2v-2.8h2.4l0.5,1.7c0.2,0.2,0.5,0.3,0.8,0.4s0.7,0.1,1.1,0.1c0.7,0,1.2-0.1,1.6-0.4s0.5-0.6,0.5-1s-0.2-0.7-0.6-1
	s-1-0.5-2-0.7c-1.5-0.3-2.6-0.8-3.4-1.4s-1.1-1.4-1.1-2.4c0-1.1,0.4-2,1.3-2.7s2.1-1.2,3.7-1.2c1,0,1.9,0.1,2.8,0.4s1.6,0.6,2.1,1
	L198.8,341.1z"/>
<path class="st1" d="M211.7,333.6v3.1h2.2v2.4h-2.2v6.5c0,0.5,0.1,0.8,0.3,1.1s0.5,0.3,0.8,0.3c0.2,0,0.4,0,0.6,0s0.4-0.1,0.6-0.1
	l0.3,2.5c-0.4,0.1-0.8,0.2-1.1,0.3s-0.8,0.1-1.2,0.1c-1.2,0-2.1-0.3-2.7-1s-1-1.7-1-3.1v-6.5h-1.9v-2.4h1.9v-3.1L211.7,333.6
	L211.7,333.6z"/>
<path class="st1" d="M221.2,349.6c-1.8,0-3.3-0.6-4.4-1.8s-1.6-2.7-1.6-4.5V343c0-1.9,0.5-3.4,1.6-4.7s2.4-1.8,4.2-1.8
	c1.7,0,3,0.5,4,1.5s1.4,2.4,1.4,4.2v1.9h-7.6v0.1c0.1,0.8,0.3,1.5,0.8,2.1s1.2,0.8,2,0.8s1.4-0.1,1.9-0.2s1-0.4,1.6-0.7l0.9,2.1
	c-0.5,0.4-1.2,0.8-2,1S222.2,349.6,221.2,349.6z M220.9,339.1c-0.6,0-1.1,0.2-1.5,0.7s-0.6,1.1-0.7,1.9v0.1h4.2v-0.3
	c0-0.7-0.2-1.3-0.5-1.7S221.6,339.1,220.9,339.1z"/>
<path class="st1" d="M238,341.1h-2.3l-0.4-1.6c-0.2-0.2-0.5-0.3-0.9-0.5s-0.7-0.2-1.2-0.2c-0.6,0-1.1,0.1-1.4,0.4s-0.5,0.6-0.5,1
	s0.2,0.7,0.5,1s1,0.5,2,0.7c1.6,0.3,2.7,0.8,3.5,1.4s1.1,1.4,1.1,2.5s-0.5,2.1-1.5,2.8s-2.3,1.1-3.9,1.1c-1,0-1.9-0.1-2.7-0.4
	s-1.5-0.7-2.2-1.2v-2.8h2.4l0.5,1.7c0.2,0.2,0.5,0.3,0.8,0.4s0.7,0.1,1.1,0.1c0.7,0,1.2-0.1,1.6-0.4s0.5-0.6,0.5-1s-0.2-0.7-0.6-1
	s-1-0.5-2-0.7c-1.5-0.3-2.6-0.8-3.4-1.4s-1.1-1.4-1.1-2.4c0-1.1,0.4-2,1.3-2.7s2.1-1.2,3.7-1.2c1,0,1.9,0.1,2.8,0.4s1.6,0.6,2.1,1
	L238,341.1z"/>
<path class="st1" d="M244.8,333.6v3.1h2.2v2.4h-2.2v6.5c0,0.5,0.1,0.8,0.3,1.1s0.5,0.3,0.8,0.3c0.2,0,0.4,0,0.6,0s0.4-0.1,0.6-0.1
	l0.3,2.5c-0.4,0.1-0.8,0.2-1.1,0.3s-0.8,0.1-1.2,0.1c-1.2,0-2.1-0.3-2.7-1s-1-1.7-1-3.1v-6.5h-1.9v-2.4h1.9v-3.1L244.8,333.6
	L244.8,333.6z"/>
<path class="st1" d="M258.7,341.1h-2.3l-0.4-1.6c-0.2-0.2-0.5-0.3-0.9-0.5s-0.7-0.2-1.2-0.2c-0.6,0-1.1,0.1-1.4,0.4s-0.5,0.6-0.5,1
	s0.2,0.7,0.5,1s1,0.5,2,0.7c1.6,0.3,2.7,0.8,3.5,1.4s1.1,1.4,1.1,2.5s-0.5,2.1-1.5,2.8s-2.3,1.1-3.9,1.1c-1,0-1.9-0.1-2.7-0.4
	s-1.5-0.7-2.2-1.2v-2.8h2.4l0.5,1.7c0.2,0.2,0.5,0.3,0.8,0.4s0.7,0.1,1.1,0.1c0.7,0,1.2-0.1,1.6-0.4s0.5-0.6,0.5-1s-0.2-0.7-0.6-1
	s-1-0.5-2-0.7c-1.5-0.3-2.6-0.8-3.4-1.4s-1.1-1.4-1.1-2.4c0-1.1,0.4-2,1.3-2.7s2.1-1.2,3.7-1.2c1,0,1.9,0.1,2.8,0.4
	c0.9,0.3,1.6,0.6,2.1,1L258.7,341.1z"/>
<path class="st1" d="M266.7,347.3l1.7-0.4V339h-1.9v-2.4h1.9v-1.4c0-1.4,0.4-2.5,1.2-3.3s2-1.2,3.5-1.2c0.3,0,0.6,0,0.9,0.1
	s0.6,0.1,1,0.2l-0.3,2.5c-0.2,0-0.4-0.1-0.5-0.1s-0.4,0-0.6,0c-0.6,0-1,0.2-1.3,0.5s-0.4,0.7-0.4,1.3v1.4h2.5v2.4h-2.5v7.9l1.7,0.4
	v2.1h-6.7v-2.1H266.7z"/>
<path class="st1" d="M275.2,342.9c0-1.9,0.5-3.4,1.6-4.6s2.5-1.8,4.4-1.8s3.3,0.6,4.4,1.8s1.6,2.8,1.6,4.7v0.2
	c0,1.9-0.5,3.5-1.6,4.7s-2.5,1.8-4.4,1.8s-3.4-0.6-4.4-1.8s-1.6-2.8-1.6-4.7V342.9z M278.6,343.2c0,1.2,0.2,2.1,0.6,2.8s1.1,1,2,1
	s1.5-0.4,1.9-1.1s0.6-1.6,0.6-2.8v-0.2c0-1.1-0.2-2-0.6-2.8s-1.1-1.1-2-1.1s-1.5,0.4-1.9,1.1s-0.6,1.6-0.6,2.8V343.2z"/>
<path class="st1" d="M288.3,347.3l1.6-0.4V339l-1.8-0.4v-2.1h5l0.2,1.9c0.3-0.7,0.7-1.2,1.1-1.5s1-0.6,1.6-0.6c0.2,0,0.4,0,0.6,0
	s0.4,0.1,0.5,0.1l-0.4,3.1h-1.4c-0.5,0-0.9,0.1-1.2,0.3s-0.6,0.5-0.8,0.8v6.2l1.6,0.4v2.1h-6.7L288.3,347.3L288.3,347.3z"/>
<path class="st1" d="M304.3,343.2c0-2,0.4-3.6,1.3-4.8s2.1-1.8,3.7-1.8c0.7,0,1.3,0.2,1.9,0.5s1,0.8,1.4,1.4l0.2-1.6h3V349
	c0,1.7-0.5,3-1.6,4s-2.5,1.5-4.3,1.5c-0.6,0-1.3-0.1-2-0.3s-1.4-0.4-2-0.7l0.6-2.4c0.5,0.2,1.1,0.4,1.6,0.6s1.1,0.2,1.7,0.2
	c0.8,0,1.5-0.3,1.9-0.8s0.6-1.2,0.6-2.1v-0.8c-0.4,0.5-0.8,0.8-1.3,1.1s-1.1,0.4-1.7,0.4c-1.6,0-2.8-0.6-3.6-1.7s-1.3-2.7-1.3-4.5
	v-0.3H304.3z M307.7,343.4c0,1.1,0.2,2,0.6,2.6s1,1,1.8,1c0.5,0,1-0.1,1.3-0.3s0.7-0.5,0.9-0.8v-5.5c-0.2-0.4-0.5-0.7-0.9-0.9
	s-0.8-0.3-1.3-0.3c-0.8,0-1.4,0.4-1.8,1.1s-0.6,1.7-0.6,2.9V343.4z"/>
<path class="st1" d="M317.7,342.9c0-1.9,0.5-3.4,1.6-4.6s2.5-1.8,4.4-1.8s3.3,0.6,4.4,1.8s1.6,2.8,1.6,4.7v0.2
	c0,1.9-0.5,3.5-1.6,4.7s-2.5,1.8-4.4,1.8s-3.4-0.6-4.4-1.8s-1.6-2.8-1.6-4.7V342.9z M321.1,343.2c0,1.2,0.2,2.1,0.6,2.8s1.1,1,2,1
	s1.5-0.4,1.9-1.1s0.6-1.6,0.6-2.8v-0.2c0-1.1-0.2-2-0.6-2.8s-1.1-1.1-2-1.1s-1.5,0.4-1.9,1.1s-0.6,1.6-0.6,2.8V343.2z"/>
<path class="st1" d="M330.6,347.3l1.6-0.4V339l-1.8-0.4v-2.1h5l0.2,1.8c0.4-0.6,0.9-1.2,1.6-1.5s1.3-0.5,2.1-0.5
	c1.3,0,2.3,0.4,3,1.2s1.1,2.1,1.1,3.8v5.5l1.6,0.4v2.1h-6.5v-2.1l1.5-0.4v-5.5c0-0.9-0.2-1.5-0.5-1.8s-0.9-0.5-1.6-0.5
	c-0.5,0-0.9,0.1-1.2,0.3s-0.7,0.4-0.9,0.8v6.8l1.4,0.4v2.1h-6.4v-2.1H330.6z"/>
<path class="st1" d="M345.6,342.9c0-1.9,0.5-3.4,1.6-4.6s2.5-1.8,4.4-1.8s3.3,0.6,4.4,1.8s1.6,2.8,1.6,4.7v0.2
	c0,1.9-0.5,3.5-1.6,4.7s-2.5,1.8-4.4,1.8s-3.4-0.6-4.4-1.8s-1.6-2.8-1.6-4.7V342.9z M349.1,343.2c0,1.2,0.2,2.1,0.6,2.8s1.1,1,2,1
	s1.5-0.4,1.9-1.1s0.6-1.6,0.6-2.8v-0.2c0-1.1-0.2-2-0.6-2.8s-1.1-1.1-2-1.1s-1.5,0.4-1.9,1.1s-0.6,1.6-0.6,2.8V343.2z"/>
<path class="st1" d="M358.8,347.3l1.6-0.4V339l-1.8-0.4v-2.1h5l0.2,1.9c0.3-0.7,0.7-1.2,1.1-1.5s1-0.6,1.6-0.6c0.2,0,0.4,0,0.6,0
	s0.4,0.1,0.5,0.1l-0.4,3.1h-1.4c-0.5,0-0.9,0.1-1.2,0.3s-0.6,0.5-0.8,0.8v6.2l1.6,0.4v2.1h-6.7L358.8,347.3L358.8,347.3z"/>
<path class="st1" d="M369,347.3l1.6-0.4V339l-1.8-0.4v-2.1h5l0.2,1.9c0.3-0.7,0.7-1.2,1.1-1.5s1-0.6,1.6-0.6c0.2,0,0.4,0,0.6,0
	s0.4,0.1,0.5,0.1l-0.4,3.1H376c-0.5,0-0.9,0.1-1.2,0.3s-0.6,0.5-0.8,0.8v6.2l1.6,0.4v2.1H369V347.3z"/>
<path class="st1" d="M378.1,347.3l1.7-0.4v-13.5L378,333v-2.1h5.2v7.2c0.4-0.6,0.9-1,1.5-1.4s1.2-0.5,1.9-0.5c1.3,0,2.4,0.4,3.1,1.3
	s1.1,2.2,1.1,4.1v5.1l1.6,0.4v2.1h-6.5v-2.1l1.5-0.4v-5.1c0-1-0.2-1.7-0.5-2.1s-0.9-0.6-1.6-0.6c-0.5,0-0.9,0.1-1.2,0.3
	s-0.7,0.4-0.9,0.7v6.9l1.5,0.4v2.1h-6.5v-2H378.1z"/>
<path class="st1" d="M399.2,349.6c-1.8,0-3.3-0.6-4.4-1.8s-1.6-2.7-1.6-4.5V343c0-1.9,0.5-3.4,1.6-4.7s2.4-1.8,4.2-1.8
	c1.7,0,3,0.5,4,1.5s1.4,2.4,1.4,4.2v1.9h-7.6v0.1c0.1,0.8,0.3,1.5,0.8,2.1s1.2,0.8,2,0.8s1.4-0.1,1.9-0.2s1-0.4,1.6-0.7l0.9,2.1
	c-0.5,0.4-1.2,0.8-2,1S400.2,349.6,399.2,349.6z M398.9,339.1c-0.6,0-1.1,0.2-1.5,0.7s-0.6,1.1-0.7,1.9v0.1h4.2v-0.3
	c0-0.7-0.2-1.3-0.5-1.7S399.5,339.1,398.9,339.1z"/>
<path class="st1" d="M413.7,349.4c-0.1-0.2-0.2-0.4-0.2-0.7s-0.1-0.4-0.2-0.7c-0.4,0.5-0.9,0.8-1.5,1.1s-1.2,0.4-2,0.4
	c-1.2,0-2.2-0.3-3-1s-1.1-1.6-1.1-2.8c0-1.2,0.5-2.1,1.4-2.8s2.4-1,4.2-1h1.7v-1.2c0-0.6-0.2-1.1-0.5-1.4s-0.9-0.5-1.6-0.5
	c-0.4,0-0.7,0-1,0.1s-0.6,0.2-0.7,0.3l-0.2,1.4h-2.6v-2.8c0.6-0.4,1.3-0.8,2.2-1.1s1.7-0.4,2.6-0.4c1.6,0,2.8,0.4,3.8,1.2
	s1.5,1.9,1.5,3.3v5.2c0,0.2,0,0.4,0,0.6s0,0.3,0,0.5l1,0.1v2.1L413.7,349.4L413.7,349.4z M410.7,347.1c0.5,0,1-0.1,1.4-0.3
	s0.8-0.5,1-0.8v-2h-1.7c-0.7,0-1.3,0.2-1.7,0.5s-0.6,0.7-0.6,1.2c0,0.4,0.1,0.8,0.4,1S410.2,347.1,410.7,347.1z"/>
<path class="st1" d="M422.8,348.9c0,0.8-0.2,1.6-0.7,2.5s-1,1.6-1.6,2.2l-1.7-0.9c0.3-0.5,0.5-1.1,0.7-1.7s0.2-1.2,0.2-2v-2.6h3.1
	V348.9z"/>
<path class="st1" d="M135.1,375.8c0.6,0,1.1-0.2,1.5-0.5s0.6-0.8,0.6-1.4h3.1v0.1c0,1.3-0.4,2.4-1.4,3.2s-2.2,1.3-3.7,1.3
	c-1.9,0-3.3-0.6-4.4-1.8s-1.5-2.7-1.5-4.6v-0.4c0-1.9,0.5-3.4,1.6-4.6s2.5-1.8,4.5-1.8c1,0,1.9,0.2,2.8,0.5s1.5,0.7,2,1.3v3.4h-2.8
	l-0.6-2c-0.2-0.1-0.4-0.3-0.6-0.4s-0.5-0.1-0.9-0.1c-1,0-1.7,0.4-2.1,1.1s-0.6,1.6-0.6,2.7v0.4c0,1.1,0.2,2,0.6,2.7
	S134.1,375.8,135.1,375.8z"/>
<path class="st1" d="M141.4,376.1l1.7-0.4v-13.5l-1.8-0.4v-2.1h5.2v7.2c0.4-0.6,0.9-1,1.5-1.4s1.2-0.5,1.9-0.5
	c1.3,0,2.4,0.4,3.1,1.3s1.1,2.2,1.1,4.1v5.1l1.6,0.4v2.1h-6.5v-2.1l1.5-0.4v-5.1c0-1-0.2-1.7-0.5-2.1s-0.9-0.6-1.6-0.6
	c-0.5,0-0.9,0.1-1.2,0.3s-0.7,0.4-0.9,0.7v6.9l1.5,0.4v2.1h-6.5v-2H141.4z"/>
<path class="st1" d="M156.6,362v-2.1h5.2v15.9l1.7,0.4v2.1h-6.7v-2.1l1.7-0.4v-13.5L156.6,362z"/>
<path class="st1" d="M172.7,378.2c-0.1-0.2-0.2-0.4-0.2-0.7s-0.1-0.4-0.2-0.7c-0.4,0.5-0.9,0.8-1.5,1.1s-1.2,0.4-2,0.4
	c-1.2,0-2.2-0.3-3-1s-1.1-1.6-1.1-2.8c0-1.2,0.5-2.1,1.4-2.8s2.4-1,4.2-1h1.7v-1.2c0-0.6-0.2-1.1-0.5-1.4s-0.9-0.5-1.6-0.5
	c-0.4,0-0.7,0-1,0.1s-0.6,0.2-0.7,0.3l-0.2,1.4h-2.6v-2.8c0.6-0.4,1.3-0.8,2.2-1.1s1.7-0.4,2.6-0.4c1.6,0,2.8,0.4,3.8,1.2
	s1.5,1.9,1.5,3.3v5.2c0,0.2,0,0.4,0,0.6s0,0.3,0,0.5l1,0.1v2.1L172.7,378.2L172.7,378.2z M169.7,375.9c0.5,0,1-0.1,1.4-0.3
	s0.8-0.5,1-0.8v-1.9h-1.7c-0.7,0-1.3,0.2-1.7,0.5s-0.6,0.7-0.6,1.2c0,0.4,0.1,0.8,0.4,1S169.2,375.9,169.7,375.9z"/>
<path class="st1" d="M177.6,367.6v-2.1h5l0.1,1.7c0.4-0.6,0.9-1.1,1.5-1.4s1.3-0.5,2.1-0.5s1.5,0.2,2.1,0.5s1,0.9,1.3,1.6
	c0.4-0.7,0.9-1.2,1.5-1.6s1.4-0.6,2.2-0.6c1.2,0,2.2,0.4,3,1.3s1.1,2.2,1.1,3.9v5.3l1.7,0.4v2.1h-6.6v-2.1l1.5-0.4v-5.3
	c0-1-0.2-1.6-0.5-2s-0.8-0.6-1.4-0.6c-0.5,0-0.9,0.1-1.3,0.3s-0.6,0.5-0.8,0.9c0,0.1,0,0.3,0,0.4s0,0.2,0,0.3v5.9l1.4,0.4v2.1h-6.2
	V376l1.4-0.4v-5.3c0-0.9-0.2-1.6-0.5-2s-0.8-0.6-1.4-0.6c-0.5,0-0.9,0.1-1.2,0.3s-0.6,0.4-0.9,0.7v6.8l1.5,0.4v2.1h-6.5v-2.1
	l1.7-0.4v-7.9L177.6,367.6z"/>
<path class="st1" d="M212.7,367.6l-1.2,0.2l-4.7,12.3c-0.4,0.9-0.9,1.7-1.5,2.3s-1.5,0.9-2.8,0.9c-0.3,0-0.6,0-0.8-0.1
	s-0.6-0.1-0.9-0.2l0.4-2.5c0.1,0,0.2,0,0.3,0s0.2,0,0.3,0c0.6,0,1-0.1,1.3-0.4s0.5-0.6,0.7-1l0.4-1l-4-10.4l-1.2-0.2v-2.1h6.2v2.1
	l-1.4,0.2l1.7,5.1l0.2,0.9h0.1l2-6l-1.4-0.2v-2.1h6.2L212.7,367.6L212.7,367.6z"/>
<path class="st1" d="M221.7,376.7c-0.4,0.6-0.9,1-1.4,1.3s-1.2,0.5-1.9,0.5c-1.6,0-2.8-0.6-3.6-1.7s-1.3-2.6-1.3-4.5V372
	c0-2,0.4-3.6,1.3-4.8s2.1-1.8,3.7-1.8c0.6,0,1.2,0.1,1.7,0.4s1,0.7,1.3,1.2v-4.5l-1.8-0.4V360h1.8h3.4v15.9l1.6,0.4v2.1H222
	L221.7,376.7z M217,372.2c0,1.1,0.2,2,0.6,2.6s1,1,1.8,1c0.5,0,0.9-0.1,1.3-0.3s0.7-0.5,0.9-0.9v-5.4c-0.2-0.4-0.5-0.7-0.9-0.9
	s-0.8-0.3-1.3-0.3c-0.8,0-1.4,0.4-1.8,1.1s-0.6,1.7-0.6,2.9V372.2z"/>
<path class="st1" d="M227.8,376.1l1.7-0.4v-7.9l-1.8-0.4v-2.1h5.2v10.3l1.6,0.4v2.1h-6.7V376.1z M232.8,362.5h-3.4v-2.6h3.4V362.5z"
	/>
<path class="st1" d="M243.6,378.2c-0.1-0.2-0.2-0.4-0.2-0.7s-0.1-0.4-0.2-0.7c-0.4,0.5-0.9,0.8-1.5,1.1s-1.2,0.4-2,0.4
	c-1.2,0-2.2-0.3-3-1s-1.1-1.6-1.1-2.8c0-1.2,0.5-2.1,1.4-2.8s2.4-1,4.2-1h1.7v-1.2c0-0.6-0.2-1.1-0.5-1.4s-0.9-0.5-1.6-0.5
	c-0.4,0-0.7,0-1,0.1s-0.6,0.2-0.7,0.3l-0.2,1.4h-2.6v-2.8c0.6-0.4,1.3-0.8,2.2-1.1s1.7-0.4,2.6-0.4c1.6,0,2.8,0.4,3.8,1.2
	s1.5,1.9,1.5,3.3v5.2c0,0.2,0,0.4,0,0.6s0,0.3,0,0.5l1,0.1v2.1L243.6,378.2L243.6,378.2z M240.7,375.9c0.5,0,1-0.1,1.4-0.3
	s0.8-0.5,1-0.8v-1.9h-1.7c-0.7,0-1.3,0.2-1.7,0.5s-0.6,0.7-0.6,1.2c0,0.4,0.1,0.8,0.4,1S240.2,375.9,240.7,375.9z"/>
<path class="st1" d="M252.7,377.7c0,0.8-0.2,1.6-0.7,2.5s-1,1.6-1.6,2.2l-1.7-0.9c0.3-0.5,0.5-1.1,0.7-1.7s0.2-1.2,0.2-2v-2.6h3.1
	V377.7z"/>
<path class="st1" d="M260.5,363.2v-2.1h7.1v2.1l-1.8,0.4v4.9h7v-4.9l-1.8-0.4v-2.1h1.8h3.4h1.8v2.1l-1.8,0.4v12.2l1.8,0.4v2.1h-7.1
	v-2.1l1.8-0.4v-4.7h-7v4.7l1.8,0.4v2.1h-7.1v-2.1l1.8-0.4v-12.2L260.5,363.2z"/>
<path class="st1" d="M287.4,361.1c2,0,3.5,0.5,4.6,1.5s1.7,2.3,1.7,3.9s-0.6,2.9-1.7,3.9s-2.7,1.5-4.6,1.5h-2.9v3.8l1.8,0.4v2.1
	h-7.1v-2.1l1.8-0.4v-12.2l-1.8-0.4V361h1.8h6.4V361.1z M284.5,369.4h2.9c1,0,1.7-0.3,2.2-0.8s0.7-1.2,0.7-2s-0.2-1.5-0.7-2
	s-1.2-0.8-2.2-0.8h-2.9V369.4z"/>
<path class="st1" d="M300.6,363.2l-1.3,0.2l3,10.2l0.2,0.9h0.1l0.2-0.9l3-10.3l-1.3-0.2V361h6.2v2.1l-1.4,0.2l-5,14.8h-3.5l-5-14.8
	l-1.4-0.2V361h6.2L300.6,363.2L300.6,363.2z"/>
<path class="st1" d="M313.5,377.7c0,0.8-0.2,1.6-0.7,2.5s-1,1.6-1.6,2.2l-1.7-0.9c0.3-0.5,0.5-1.1,0.7-1.7s0.2-1.2,0.2-2v-2.6h3.1
	V377.7z"/>
<path class="st1" d="M321.2,376.1l1.7-0.4v-13.5L321,362v-2.1h5.2v7.2c0.4-0.6,0.9-1,1.5-1.4s1.2-0.5,1.9-0.5c1.3,0,2.4,0.4,3.1,1.3
	s1.1,2.2,1.1,4.1v5.1l1.6,0.4v2.1H329v-2.1l1.5-0.4v-5.1c0-1-0.2-1.7-0.5-2.1s-0.9-0.6-1.6-0.6c-0.5,0-0.9,0.1-1.2,0.3
	s-0.7,0.4-0.9,0.7v6.9l1.5,0.4v2.1h-6.5L321.2,376.1L321.2,376.1z"/>
<path class="st1" d="M342.3,378.4c-1.8,0-3.3-0.6-4.4-1.8s-1.6-2.7-1.6-4.5v-0.5c0-1.9,0.5-3.4,1.6-4.7s2.4-1.8,4.2-1.8
	c1.7,0,3,0.5,4,1.5s1.4,2.4,1.4,4.2v1.9h-7.6v0.1c0.1,0.8,0.3,1.5,0.8,2.1s1.2,0.8,2,0.8s1.4-0.1,1.9-0.2s1-0.4,1.6-0.7l0.9,2.1
	c-0.5,0.4-1.2,0.8-2,1S343.3,378.4,342.3,378.4z M342,367.9c-0.6,0-1.1,0.2-1.5,0.7s-0.6,1.1-0.7,1.9v0.1h4.2v-0.3
	c0-0.7-0.2-1.3-0.5-1.7S342.7,367.9,342,367.9z"/>
<path class="st1" d="M348.8,376.1l1.6-0.4v-7.9l-1.8-0.4v-2.1h5l0.2,1.9c0.3-0.7,0.7-1.2,1.1-1.5s1-0.6,1.6-0.6c0.2,0,0.4,0,0.6,0
	s0.4,0.1,0.5,0.1l-0.4,3.1h-1.4c-0.5,0-0.9,0.1-1.2,0.3s-0.6,0.5-0.8,0.8v6.2l1.6,0.4v2.1h-6.7L348.8,376.1L348.8,376.1z"/>
<path class="st1" d="M358.7,367.6v-2.1h5l0.2,1.5c0.4-0.5,0.8-1,1.3-1.3s1.1-0.4,1.8-0.4c1.6,0,2.8,0.6,3.7,1.8s1.3,2.8,1.3,4.8v0.2
	c0,1.9-0.4,3.4-1.3,4.5s-2.1,1.7-3.6,1.7c-0.7,0-1.3-0.1-1.8-0.4s-1-0.6-1.3-1.1v3.7l1.7,0.4v2.1H359v-2l1.7-0.4v-12.7L358.7,367.6z
	 M368.5,372c0-1.2-0.2-2.2-0.6-2.9s-1-1.1-1.8-1.1c-0.5,0-1,0.1-1.3,0.3s-0.7,0.5-0.9,0.9v5.6c0.2,0.4,0.5,0.6,0.9,0.8
	s0.8,0.3,1.3,0.3c0.8,0,1.4-0.3,1.8-1s0.6-1.5,0.6-2.6V372z"/>
<path class="st1" d="M379.4,378.4c-1.8,0-3.3-0.6-4.4-1.8s-1.6-2.7-1.6-4.5v-0.5c0-1.9,0.5-3.4,1.6-4.7s2.4-1.8,4.2-1.8
	c1.7,0,3,0.5,4,1.5s1.4,2.4,1.4,4.2v1.9H377v0.1c0.1,0.8,0.3,1.5,0.8,2.1s1.2,0.8,2,0.8s1.4-0.1,1.9-0.2s1-0.4,1.6-0.7l0.9,2.1
	c-0.5,0.4-1.2,0.8-2,1S380.5,378.4,379.4,378.4z M379.1,367.9c-0.6,0-1.1,0.2-1.5,0.7s-0.6,1.1-0.7,1.9v0.1h4.2v-0.3
	c0-0.7-0.2-1.3-0.5-1.7S379.8,367.9,379.1,367.9z"/>
<path class="st1" d="M396.2,369.9h-2.3l-0.4-1.6c-0.2-0.2-0.5-0.3-0.9-0.5s-0.7-0.2-1.2-0.2c-0.6,0-1.1,0.1-1.4,0.4s-0.5,0.6-0.5,1
	s0.2,0.7,0.5,1s1,0.5,2,0.7c1.6,0.3,2.7,0.8,3.5,1.4s1.1,1.4,1.1,2.5s-0.5,2.1-1.5,2.8s-2.3,1.1-3.9,1.1c-1,0-1.9-0.1-2.7-0.4
	s-1.5-0.7-2.2-1.2v-2.8h2.4l0.5,1.7c0.2,0.2,0.5,0.3,0.8,0.4s0.7,0.1,1.1,0.1c0.7,0,1.2-0.1,1.6-0.4s0.5-0.6,0.5-1s-0.2-0.7-0.6-1
	s-1-0.5-2-0.7c-1.5-0.3-2.6-0.8-3.4-1.4s-1.1-1.4-1.1-2.4c0-1.1,0.4-2,1.3-2.7s2.1-1.2,3.7-1.2c1,0,1.9,0.1,2.8,0.4s1.6,0.6,2.1,1
	L396.2,369.9z"/>
<path class="st1" d="M401.9,377.7c0,0.8-0.2,1.6-0.7,2.5s-1,1.6-1.6,2.2l-1.7-0.9c0.3-0.5,0.5-1.1,0.7-1.7s0.2-1.2,0.2-2v-2.6h3.1
	V377.7z"/>
<path class="st1" d="M141.4,401c0,1.9-0.4,3.4-1.3,4.5s-2.1,1.7-3.7,1.7c-0.7,0-1.4-0.2-1.9-0.5s-1-0.8-1.4-1.3l-0.2,1.6h-3v-15.9
	l-1.8-0.4v-2.1h5.2v6.9c0.4-0.5,0.8-0.9,1.3-1.2s1.1-0.4,1.8-0.4c1.6,0,2.8,0.6,3.7,1.8s1.3,2.8,1.3,4.9L141.4,401L141.4,401z
	 M138,400.8c0-1.2-0.2-2.2-0.5-2.9s-1-1.1-1.9-1.1c-0.5,0-1,0.1-1.3,0.3s-0.7,0.5-0.9,1v5.4c0.2,0.4,0.5,0.7,0.9,0.9
	s0.8,0.3,1.4,0.3c0.9,0,1.5-0.3,1.9-0.9s0.5-1.5,0.5-2.6L138,400.8L138,400.8z"/>
<path class="st1" d="M150.8,407c-0.1-0.2-0.2-0.4-0.2-0.7s-0.1-0.4-0.2-0.7c-0.4,0.5-0.9,0.8-1.5,1.1s-1.2,0.4-2,0.4
	c-1.2,0-2.2-0.3-3-1s-1.1-1.6-1.1-2.8c0-1.2,0.5-2.1,1.4-2.8s2.4-1,4.2-1h1.7v-1.2c0-0.6-0.2-1.1-0.5-1.4s-0.9-0.5-1.6-0.5
	c-0.4,0-0.7,0-1,0.1s-0.6,0.2-0.7,0.3l-0.2,1.4h-2.6v-2.8c0.6-0.4,1.3-0.8,2.2-1.1s1.7-0.4,2.6-0.4c1.6,0,2.8,0.4,3.8,1.2
	s1.5,1.9,1.5,3.3v5.2c0,0.2,0,0.4,0,0.6s0,0.3,0,0.5l1,0.1v2.1L150.8,407L150.8,407z M147.8,404.7c0.5,0,1-0.1,1.4-0.3
	s0.8-0.5,1-0.8v-1.9h-1.7c-0.7,0-1.3,0.2-1.7,0.5s-0.6,0.7-0.6,1.2c0,0.4,0.1,0.8,0.4,1S147.3,404.7,147.8,404.7z"/>
<path class="st1" d="M161.6,404.6c0.6,0,1.1-0.2,1.5-0.5s0.6-0.8,0.6-1.4h3.1v0.1c0,1.3-0.4,2.4-1.4,3.2s-2.2,1.3-3.7,1.3
	c-1.9,0-3.3-0.6-4.4-1.8s-1.5-2.7-1.5-4.6v-0.4c0-1.9,0.5-3.4,1.6-4.6s2.5-1.8,4.5-1.8c1,0,1.9,0.2,2.8,0.5s1.5,0.7,2,1.3v3.4h-2.8
	l-0.6-2c-0.2-0.1-0.4-0.3-0.6-0.4s-0.5-0.1-0.9-0.1c-1,0-1.7,0.4-2.1,1.1s-0.6,1.6-0.6,2.7v0.4c0,1.1,0.2,2,0.6,2.7
	S160.6,404.6,161.6,404.6z"/>
<path class="st1" d="M173.2,391.2v3.1h2.2v2.4h-2.2v6.5c0,0.5,0.1,0.8,0.3,1.1s0.5,0.3,0.8,0.3c0.2,0,0.4,0,0.6,0s0.4-0.1,0.6-0.1
	l0.3,2.5c-0.4,0.1-0.8,0.2-1.1,0.3s-0.8,0.1-1.2,0.1c-1.2,0-2.1-0.3-2.7-1s-1-1.7-1-3.1v-6.5h-1.9v-2.4h1.9v-3.1L173.2,391.2
	L173.2,391.2z"/>
<path class="st1" d="M182.7,407.2c-1.8,0-3.3-0.6-4.4-1.8s-1.6-2.7-1.6-4.5v-0.5c0-1.9,0.5-3.4,1.6-4.7s2.4-1.8,4.2-1.8
	c1.7,0,3,0.5,4,1.5s1.4,2.4,1.4,4.2v1.9h-7.6v0.1c0.1,0.8,0.3,1.5,0.8,2.1s1.2,0.8,2,0.8s1.4-0.1,1.9-0.2s1-0.4,1.6-0.7l0.9,2.1
	c-0.5,0.4-1.2,0.8-2,1S183.7,407.2,182.7,407.2z M182.4,396.7c-0.6,0-1.1,0.2-1.5,0.7s-0.6,1.1-0.7,1.9v0.1h4.2v-0.3
	c0-0.7-0.2-1.3-0.5-1.7S183.1,396.7,182.4,396.7z"/>
<path class="st1" d="M189.2,404.9l1.6-0.4v-7.9l-1.8-0.4v-2.1h5l0.2,1.9c0.3-0.7,0.7-1.2,1.1-1.5s1-0.6,1.6-0.6c0.2,0,0.4,0,0.6,0
	s0.4,0.1,0.5,0.1l-0.4,3.1h-1.4c-0.5,0-0.9,0.1-1.2,0.3s-0.6,0.5-0.8,0.8v6.2l1.6,0.4v2.1h-6.7L189.2,404.9L189.2,404.9z"/>
<path class="st1" d="M199.3,404.9l1.7-0.4v-7.9l-1.8-0.4v-2.1h5.2v10.3l1.6,0.4v2.1h-6.7V404.9z M204.3,391.3h-3.4v-2.6h3.4V391.3z"
	/>
<path class="st1" d="M215.1,407c-0.1-0.2-0.2-0.4-0.2-0.7s-0.1-0.4-0.2-0.7c-0.4,0.5-0.9,0.8-1.5,1.1s-1.2,0.4-2,0.4
	c-1.2,0-2.2-0.3-3-1s-1.1-1.6-1.1-2.8c0-1.2,0.5-2.1,1.4-2.8s2.4-1,4.2-1h1.7v-1.2c0-0.6-0.2-1.1-0.5-1.4s-0.9-0.5-1.6-0.5
	c-0.4,0-0.7,0-1,0.1s-0.6,0.2-0.7,0.3l-0.2,1.4h-2.6v-2.8c0.6-0.4,1.3-0.8,2.2-1.1s1.7-0.4,2.6-0.4c1.6,0,2.8,0.4,3.8,1.2
	s1.5,1.9,1.5,3.3v5.2c0,0.2,0,0.4,0,0.6s0,0.3,0,0.5l1,0.1v2.1L215.1,407L215.1,407z M212.2,404.7c0.5,0,1-0.1,1.4-0.3
	s0.8-0.5,1-0.8v-1.9h-1.7c-0.7,0-1.3,0.2-1.7,0.5s-0.6,0.7-0.6,1.2c0,0.4,0.1,0.8,0.4,1S211.7,404.7,212.2,404.7z"/>
<path class="st1" d="M220.1,390.8v-2.1h5.2v15.9l1.7,0.4v2.1h-6.7V405l1.7-0.4v-13.5L220.1,390.8z"/>
<path class="st1" d="M239.3,396.4l-1.2,0.2l1.7,5.7l0.2,1.2h0.1l0.2-1.2l1.7-5.7l-1.2-0.2v-2.1h5.8v2.1l-1.1,0.2l-3.7,10.4h-3.3
	l-3.8-10.4l-1.1-0.2v-2.1h5.8L239.3,396.4L239.3,396.4z"/>
<path class="st1" d="M255.4,407c-0.1-0.2-0.2-0.4-0.2-0.7s-0.1-0.4-0.2-0.7c-0.4,0.5-0.9,0.8-1.5,1.1s-1.2,0.4-2,0.4
	c-1.2,0-2.2-0.3-3-1s-1.1-1.6-1.1-2.8c0-1.2,0.5-2.1,1.4-2.8s2.4-1,4.2-1h1.7v-1.2c0-0.6-0.2-1.1-0.5-1.4s-0.9-0.5-1.6-0.5
	c-0.4,0-0.7,0-1,0.1s-0.6,0.2-0.7,0.3l-0.2,1.4h-2.6v-2.8c0.6-0.4,1.3-0.8,2.2-1.1s1.7-0.4,2.6-0.4c1.6,0,2.8,0.4,3.8,1.2
	s1.5,1.9,1.5,3.3v5.2c0,0.2,0,0.4,0,0.6s0,0.3,0,0.5l1,0.1v2.1L255.4,407L255.4,407z M252.4,404.7c0.5,0,1-0.1,1.4-0.3
	s0.8-0.5,1-0.8v-1.9h-1.7c-0.7,0-1.3,0.2-1.7,0.5s-0.6,0.7-0.6,1.2c0,0.4,0.1,0.8,0.4,1S251.9,404.7,252.4,404.7z"/>
<path class="st1" d="M260.4,400.8c0-2,0.4-3.6,1.3-4.8s2.1-1.8,3.7-1.8c0.7,0,1.3,0.2,1.9,0.5s1,0.8,1.4,1.4l0.2-1.6h3v12.3
	c0,1.7-0.5,3-1.6,4s-2.5,1.5-4.3,1.5c-0.6,0-1.3-0.1-2-0.3s-1.4-0.4-2-0.7l0.6-2.4c0.5,0.2,1.1,0.4,1.6,0.6s1.1,0.2,1.7,0.2
	c0.8,0,1.5-0.3,1.9-0.8s0.6-1.2,0.6-2.1V406c-0.4,0.5-0.8,0.8-1.3,1.1s-1.1,0.4-1.7,0.4c-1.6,0-2.8-0.6-3.6-1.7s-1.3-2.7-1.3-4.5
	v-0.5H260.4z M263.9,401c0,1.1,0.2,2,0.6,2.6s1,1,1.8,1c0.5,0,1-0.1,1.3-0.3s0.7-0.5,0.9-0.8V398c-0.2-0.4-0.5-0.7-0.9-0.9
	s-0.8-0.3-1.3-0.3c-0.8,0-1.4,0.4-1.8,1.1s-0.6,1.7-0.6,2.9V401z"/>
<path class="st1" d="M273.8,404.9l1.7-0.4v-7.9l-1.8-0.4v-2.1h5.2v10.3l1.6,0.4v2.1h-6.7L273.8,404.9L273.8,404.9z M278.9,391.3
	h-3.4v-2.6h3.4V391.3z"/>
<path class="st1" d="M281.7,404.9l1.6-0.4v-7.9l-1.8-0.4v-2.1h5l0.2,1.8c0.4-0.6,0.9-1.2,1.6-1.5s1.3-0.5,2.1-0.5
	c1.3,0,2.3,0.4,3,1.2s1.1,2.1,1.1,3.8v5.5l1.6,0.4v2.1h-6.5v-2.1l1.5-0.4v-5.5c0-0.9-0.2-1.5-0.5-1.8s-0.9-0.5-1.6-0.5
	c-0.5,0-0.9,0.1-1.2,0.3s-0.7,0.4-0.9,0.8v6.8l1.4,0.4v2.1h-6.4v-2.1H281.7z"/>
<path class="st1" d="M296.7,400.5c0-1.9,0.5-3.4,1.6-4.6s2.5-1.8,4.4-1.8s3.3,0.6,4.4,1.8s1.6,2.8,1.6,4.7v0.2
	c0,1.9-0.5,3.5-1.6,4.7s-2.5,1.8-4.4,1.8s-3.4-0.6-4.4-1.8s-1.6-2.8-1.6-4.7V400.5z M300.1,400.8c0,1.2,0.2,2.1,0.6,2.8s1.1,1,2,1
	s1.5-0.4,1.9-1.1s0.6-1.6,0.6-2.8v-0.2c0-1.1-0.2-2-0.6-2.8s-1.1-1.1-2-1.1s-1.5,0.4-1.9,1.1s-0.6,1.6-0.6,2.8V400.8z"/>
<path class="st1" d="M320.2,398.7h-2.3l-0.4-1.6c-0.2-0.2-0.5-0.3-0.9-0.5s-0.7-0.2-1.2-0.2c-0.6,0-1.1,0.1-1.4,0.4s-0.5,0.6-0.5,1
	s0.2,0.7,0.5,1s1,0.5,2,0.7c1.6,0.3,2.7,0.8,3.5,1.4s1.1,1.4,1.1,2.5s-0.5,2.1-1.5,2.8s-2.3,1.1-3.9,1.1c-1,0-1.9-0.1-2.7-0.4
	s-1.5-0.7-2.2-1.2v-2.8h2.4l0.5,1.7c0.2,0.2,0.5,0.3,0.8,0.4s0.7,0.1,1.1,0.1c0.7,0,1.2-0.1,1.6-0.4s0.5-0.6,0.5-1s-0.2-0.7-0.6-1
	s-1-0.5-2-0.7c-1.5-0.3-2.6-0.8-3.4-1.4s-1.1-1.4-1.1-2.4c0-1.1,0.4-2,1.3-2.7s2.1-1.2,3.7-1.2c1,0,1.9,0.1,2.8,0.4s1.6,0.6,2.1,1
	L320.2,398.7z"/>
<path class="st1" d="M321.9,404.9l1.7-0.4v-7.9l-1.8-0.4v-2.1h5.2v10.3l1.6,0.4v2.1h-6.7L321.9,404.9L321.9,404.9z M327,391.3h-3.4
	v-2.6h3.4V391.3z"/>
<path class="st1" d="M339.9,398.7h-2.3l-0.4-1.6c-0.2-0.2-0.5-0.3-0.9-0.5s-0.7-0.2-1.2-0.2c-0.6,0-1.1,0.1-1.4,0.4s-0.5,0.6-0.5,1
	s0.2,0.7,0.5,1s1,0.5,2,0.7c1.6,0.3,2.7,0.8,3.5,1.4s1.1,1.4,1.1,2.5s-0.5,2.1-1.5,2.8s-2.3,1.1-3.9,1.1c-1,0-1.9-0.1-2.7-0.4
	s-1.5-0.7-2.2-1.2v-2.8h2.4l0.5,1.7c0.2,0.2,0.5,0.3,0.8,0.4s0.7,0.1,1.1,0.1c0.7,0,1.2-0.1,1.6-0.4s0.5-0.6,0.5-1s-0.2-0.7-0.6-1
	s-1-0.5-2-0.7c-1.5-0.3-2.6-0.8-3.4-1.4S330,399,330,398c0-1.1,0.4-2,1.3-2.7s2.1-1.2,3.7-1.2c1,0,1.9,0.1,2.8,0.4s1.6,0.6,2.1,1
	V398.7z"/>
<path class="st1" d="M345.6,406.5c0,0.8-0.2,1.6-0.7,2.5s-1,1.6-1.6,2.2l-1.7-0.9c0.3-0.5,0.5-1.1,0.7-1.7s0.2-1.2,0.2-2V404h3.1
	V406.5z"/>
<path class="st1" d="M361.5,407c-0.1-0.2-0.2-0.4-0.2-0.7s-0.1-0.4-0.2-0.7c-0.4,0.5-0.9,0.8-1.5,1.1s-1.2,0.4-2,0.4
	c-1.2,0-2.2-0.3-3-1s-1.1-1.6-1.1-2.8c0-1.2,0.5-2.1,1.4-2.8s2.4-1,4.2-1h1.7v-1.2c0-0.6-0.2-1.1-0.5-1.4s-0.9-0.5-1.6-0.5
	c-0.4,0-0.7,0-1,0.1s-0.6,0.2-0.7,0.3l-0.2,1.4h-2.6v-2.8c0.6-0.4,1.3-0.8,2.2-1.1s1.7-0.4,2.6-0.4c1.6,0,2.8,0.4,3.8,1.2
	s1.5,1.9,1.5,3.3v5.2c0,0.2,0,0.4,0,0.6s0,0.3,0,0.5l1,0.1v2.1L361.5,407L361.5,407z M358.6,404.7c0.5,0,1-0.1,1.4-0.3
	s0.8-0.5,1-0.8v-1.9h-1.7c-0.7,0-1.3,0.2-1.7,0.5s-0.6,0.7-0.6,1.2c0,0.4,0.1,0.8,0.4,1S358.1,404.7,358.6,404.7z"/>
<path class="st1" d="M366.6,404.9l1.6-0.4v-7.9l-1.8-0.4v-2.1h5l0.2,1.8c0.4-0.6,0.9-1.2,1.6-1.5s1.3-0.5,2.1-0.5
	c1.3,0,2.3,0.4,3,1.2s1.1,2.1,1.1,3.8v5.5l1.6,0.4v2.1h-6.5v-2.1l1.5-0.4v-5.5c0-0.9-0.2-1.5-0.5-1.8s-0.9-0.5-1.6-0.5
	c-0.5,0-0.9,0.1-1.2,0.3s-0.7,0.4-0.9,0.8v6.8l1.4,0.4v2.1h-6.4v-2.1H366.6z"/>
<path class="st1" d="M390,405.5c-0.4,0.6-0.9,1-1.4,1.3s-1.2,0.5-1.9,0.5c-1.6,0-2.8-0.6-3.6-1.7s-1.3-2.6-1.3-4.5v-0.2
	c0-2,0.4-3.6,1.3-4.8s2.1-1.8,3.7-1.8c0.6,0,1.2,0.1,1.7,0.4s1,0.7,1.3,1.2v-4.5L388,391v-2.1h1.8h3.4v15.9l1.6,0.4v2.1h-4.6
	L390,405.5z M385.2,401c0,1.1,0.2,2,0.6,2.6s1,1,1.8,1c0.5,0,0.9-0.1,1.3-0.3s0.7-0.5,0.9-0.9V398c-0.2-0.4-0.5-0.7-0.9-0.9
	s-0.8-0.3-1.3-0.3c-0.8,0-1.4,0.4-1.8,1.1s-0.6,1.7-0.6,2.9V401z"/>
<path class="st1" d="M401.5,396.4v-2.1h5l0.1,1.7c0.4-0.6,0.9-1.1,1.5-1.4s1.3-0.5,2.1-0.5c0.8,0,1.5,0.2,2.1,0.5s1,0.9,1.3,1.6
	c0.4-0.7,0.9-1.2,1.5-1.6s1.4-0.6,2.2-0.6c1.2,0,2.2,0.4,3,1.3s1.1,2.2,1.1,3.9v5.3l1.7,0.4v2.1h-6.6v-2.1l1.5-0.4v-5.3
	c0-1-0.2-1.6-0.5-2s-0.8-0.6-1.4-0.6c-0.5,0-0.9,0.1-1.3,0.3s-0.6,0.5-0.8,0.9c0,0.1,0,0.3,0,0.4s0,0.2,0,0.3v5.9l1.4,0.4v2.1h-6.2
	v-2.1l1.4-0.4v-5.3c0-0.9-0.2-1.6-0.5-2s-0.8-0.6-1.4-0.6c-0.5,0-0.9,0.1-1.2,0.3s-0.6,0.4-0.9,0.7v6.8l1.5,0.4v2.1h-6.5v-2.1
	l1.7-0.4v-7.9L401.5,396.4z"/>
<path class="st1" d="M423.8,400.5c0-1.9,0.5-3.4,1.6-4.6s2.5-1.8,4.4-1.8s3.3,0.6,4.4,1.8s1.6,2.8,1.6,4.7v0.2
	c0,1.9-0.5,3.5-1.6,4.7s-2.5,1.8-4.4,1.8s-3.4-0.6-4.4-1.8s-1.6-2.8-1.6-4.7V400.5z M427.2,400.8c0,1.2,0.2,2.1,0.6,2.8s1.1,1,2,1
	s1.5-0.4,1.9-1.1s0.6-1.6,0.6-2.8v-0.2c0-1.1-0.2-2-0.6-2.8s-1.1-1.1-2-1.1s-1.5,0.4-1.9,1.1s-0.6,1.6-0.6,2.8V400.8z"/>
<path class="st1" d="M436.9,404.9l1.6-0.4v-7.9l-1.8-0.4v-2.1h5l0.2,1.9c0.3-0.7,0.7-1.2,1.1-1.5s1-0.6,1.6-0.6c0.2,0,0.4,0,0.6,0
	s0.4,0.1,0.5,0.1l-0.4,3.1h-1.4c-0.5,0-0.9,0.1-1.2,0.3s-0.6,0.5-0.8,0.8v6.2l1.6,0.4v2.1h-6.7L436.9,404.9L436.9,404.9z"/>
<path class="st1" d="M452.5,407.2c-1.8,0-3.3-0.6-4.4-1.8s-1.6-2.7-1.6-4.5v-0.5c0-1.9,0.5-3.4,1.6-4.7s2.4-1.8,4.2-1.8
	c1.7,0,3,0.5,4,1.5s1.4,2.4,1.4,4.2v1.9h-7.6v0.1c0.1,0.8,0.3,1.5,0.8,2.1s1.2,0.8,2,0.8s1.4-0.1,1.9-0.2s1-0.4,1.6-0.7l0.9,2.1
	c-0.5,0.4-1.2,0.8-2,1S453.6,407.2,452.5,407.2z M452.2,396.7c-0.6,0-1.1,0.2-1.5,0.7s-0.6,1.1-0.7,1.9v0.1h4.2v-0.3
	c0-0.7-0.2-1.3-0.5-1.7S452.9,396.7,452.2,396.7z"/>
<path class="st1" d="M463.1,407h-3.4v-3h3.4V407z"/>
</svg>
