<svg id="Layer_1" data-name="Layer 1" xmlns="http://www.w3.org/2000/svg" viewBox="0 0 248.73 272.51"><defs><style>.cls-1{fill:#a967aa;}.cls-1,.cls-2{stroke:#f5faf8;}.cls-1,.cls-2,.cls-3{stroke-linecap:round;stroke-linejoin:round;stroke-width:10px;}.cls-2{fill:none;}.cls-3{fill:#f5faf8;stroke:#a967aa;}</style></defs><title>std graphics</title><polyline class="cls-1" points="33.75 184.42 5.02 26.88 243.73 26.62 215.34 184.22"/><polyline class="cls-2" points="34.09 186.34 5.01 26.88 243.72 26.62 214.89 186.69"/><path class="cls-1" d="M5.08,24.94c5.88,32.22,233,30.7,238.59-.26C248.09.14-.07-3.3,5.08,24.94Z"/><path class="cls-3" d="M33.75,184.42l11.13,61c0,12.23,35.72,22.11,79.76,22.06s79.72-10,79.71-22.24l11-61.05C218.71,165.55,29.83,162.93,33.75,184.42Z"/><path class="cls-3" d="M33.74,184.42c-3.36,18.67,185.51,21.29,181.59-.2"/></svg>