<?xml version="1.0" encoding="utf-8"?>
<!-- Generator: Adobe Illustrator 22.0.1, SVG Export Plug-In . SVG Version: 6.00 Build 0)  -->
<!DOCTYPE svg PUBLIC "-//W3C//DTD SVG 1.1//EN" "http://www.w3.org/Graphics/SVG/1.1/DTD/svg11.dtd">
<svg version="1.1" id="Layer_1" xmlns="http://www.w3.org/2000/svg" xmlns:xlink="http://www.w3.org/1999/xlink" x="0px" y="0px"
	 viewBox="0 0 611.8 611.8" style="enable-background:new 0 0 611.8 611.8;" xml:space="preserve">
<style type="text/css">
	.st0{fill:#F5FAF8;stroke:#A967AA;stroke-width:11.8;stroke-linecap:round;stroke-linejoin:round;}
	.st1{enable-background:new    ;}
	.st2{fill:#A967AA;}
</style>
<title>std web mockupsasfd</title>
<path class="st0" d="M305.9,5.9L305.9,5.9c165.7,0,300,134.3,300,300v0c0,165.7-134.3,300-300,300h0c-165.7,0-300-134.3-300-300v0
	C5.9,140.2,140.2,5.9,305.9,5.9z"/>
<g class="st1">
	<path class="st2" d="M237.9,167.2v2.8l-2.4,0.5v11.9c0,1.5,0.4,2.6,1.2,3.4c0.8,0.7,1.9,1.1,3.3,1.1c1.4,0,2.5-0.4,3.4-1.1
		c0.8-0.7,1.2-1.9,1.2-3.4v-11.9l-2.4-0.5v-2.8h9.4v2.8l-2.4,0.5v11.9c0,2.6-0.8,4.5-2.5,5.9c-1.7,1.4-3.9,2.1-6.6,2.1
		c-2.7,0-4.9-0.7-6.6-2.1c-1.7-1.4-2.5-3.4-2.5-5.9v-11.9l-2.4-0.5v-2.8h2.4h4.6H237.9z"/>
</g>
<g class="st1">
	<path class="st2" d="M252.1,187.3l2.2-0.5v-10.5l-2.4-0.5v-2.8h6.7l0.2,2.5c0.4-0.9,0.9-1.6,1.5-2c0.6-0.5,1.3-0.7,2.2-0.7
		c0.2,0,0.5,0,0.8,0.1c0.3,0,0.5,0.1,0.7,0.1l-0.5,4.2l-1.9,0c-0.7,0-1.2,0.1-1.7,0.4c-0.4,0.3-0.8,0.6-1,1.1v8.2l2.2,0.5v2.7h-8.9
		V187.3z"/>
</g>
<g class="st1">
	<path class="st2" d="M265.4,187.3l2.2-0.5v-10.5l-2.4-0.5v-2.8h7v13.7l2.2,0.5v2.7h-9V187.3z M272.2,169h-4.6v-3.4h4.6V169z"/>
</g>
<g class="st1">
	<path class="st2" d="M275.8,187.3l2.2-0.5v-10.5l-2.4-0.5v-2.8h6.7l0.2,2.4c0.6-0.9,1.3-1.5,2.1-2c0.8-0.5,1.7-0.7,2.8-0.7
		c1.7,0,3,0.5,4,1.6c1,1.1,1.4,2.8,1.4,5v7.4l2.2,0.5v2.7h-8.7v-2.7l2-0.5v-7.3c0-1.1-0.2-1.9-0.7-2.4c-0.5-0.5-1.2-0.7-2.1-0.7
		c-0.6,0-1.1,0.1-1.6,0.4c-0.5,0.2-0.9,0.6-1.2,1v9.1l1.8,0.5v2.7h-8.6V187.3z"/>
</g>
<g class="st1">
	<path class="st2" d="M303.9,190.3c-2.4,0-4.4-0.8-5.8-2.3c-1.5-1.6-2.2-3.5-2.2-6v-0.6c0-2.5,0.7-4.6,2.1-6.2
		c1.4-1.6,3.2-2.4,5.6-2.4c2.3,0,4.1,0.7,5.3,2.1c1.3,1.4,1.9,3.2,1.9,5.6v2.5h-10.1l0,0.1c0.1,1.1,0.5,2,1.1,2.8
		c0.7,0.7,1.6,1.1,2.7,1.1c1,0,1.8-0.1,2.5-0.3c0.7-0.2,1.4-0.5,2.2-1l1.2,2.8c-0.7,0.6-1.6,1-2.7,1.4S305.2,190.3,303.9,190.3z
		 M303.5,176.3c-0.8,0-1.5,0.3-2,1c-0.5,0.6-0.8,1.5-0.9,2.5l0,0.1h5.6v-0.4c0-1-0.2-1.7-0.7-2.3S304.4,176.3,303.5,176.3z"/>
</g>
<g class="st1">
	<path class="st2" d="M340.6,167.2v6.1h-3.5l-0.2-2.5h-4.2v16l2.4,0.5v2.7h-9.4v-2.7l2.4-0.5v-16H324l-0.2,2.5h-3.5v-6.1H340.6z"/>
</g>
<g class="st1">
	<path class="st2" d="M348.5,190.3c-2.4,0-4.4-0.8-5.8-2.3s-2.2-3.5-2.2-6v-0.6c0-2.5,0.7-4.6,2.1-6.2s3.2-2.4,5.6-2.4
		c2.3,0,4.1,0.7,5.3,2.1s1.9,3.2,1.9,5.6v2.5h-10.1l0,0.1c0.1,1.1,0.5,2,1.1,2.8s1.6,1.1,2.7,1.1c1,0,1.8-0.1,2.5-0.3s1.4-0.5,2.2-1
		l1.2,2.8c-0.7,0.6-1.6,1-2.7,1.4S349.8,190.3,348.5,190.3z M348.1,176.3c-0.8,0-1.5,0.3-2,1c-0.5,0.6-0.8,1.5-0.9,2.5l0,0.1h5.6
		v-0.4c0-1-0.2-1.7-0.7-2.3S349,176.3,348.1,176.3z"/>
</g>
<g class="st1">
	<path class="st2" d="M370.7,178.9h-3.1l-0.5-2.1c-0.3-0.2-0.7-0.5-1.2-0.6c-0.5-0.2-1-0.2-1.6-0.2c-0.8,0-1.4,0.2-1.9,0.5
		s-0.7,0.8-0.7,1.4c0,0.5,0.2,0.9,0.7,1.3c0.4,0.3,1.3,0.6,2.7,0.9c2.1,0.4,3.6,1,4.7,1.8c1,0.8,1.5,1.9,1.5,3.3
		c0,1.5-0.7,2.8-2,3.7c-1.3,1-3,1.4-5.2,1.4c-1.3,0-2.5-0.2-3.6-0.6s-2.1-0.9-2.9-1.6l0-3.8h3.2l0.6,2.2c0.3,0.2,0.6,0.4,1.1,0.5
		s1,0.2,1.5,0.2c0.9,0,1.6-0.2,2.1-0.5c0.5-0.3,0.7-0.8,0.7-1.4c0-0.5-0.2-0.9-0.7-1.3c-0.5-0.4-1.4-0.7-2.7-1c-2-0.4-3.5-1-4.5-1.8
		s-1.5-1.9-1.5-3.3c0-1.4,0.6-2.6,1.8-3.7c1.2-1,2.8-1.5,5-1.5c1.3,0,2.6,0.2,3.7,0.5c1.2,0.4,2.1,0.8,2.8,1.4L370.7,178.9z"/>
</g>
<g class="st1">
	<path class="st2" d="M379.7,169v4.1h3v3.2h-3v8.6c0,0.7,0.1,1.1,0.4,1.4c0.3,0.3,0.6,0.4,1.1,0.4c0.3,0,0.6,0,0.8,0
		c0.2,0,0.5-0.1,0.8-0.1l0.4,3.3c-0.5,0.2-1,0.3-1.5,0.4s-1,0.1-1.6,0.1c-1.6,0-2.8-0.4-3.6-1.3c-0.8-0.9-1.3-2.2-1.3-4.1v-8.6h-2.5
		v-3.2h2.5V169H379.7z"/>
</g>
<g class="st1">
	<path class="st2" d="M148.8,255.1l1.2-0.2l5.2-14.8h3.5l5.2,14.8l1.2,0.2v2.1h-5.8v-2.1l1.2-0.2l-0.8-2.3h-5.5l-0.8,2.3l1.2,0.2
		v2.1h-5.8V255.1z M155,250.1h3.9l-1.9-6h-0.1L155,250.1z"/>
</g>
<g class="st1">
	<path class="st2" d="M182.6,248.9h-2.3l-0.4-1.6c-0.2-0.2-0.5-0.3-0.9-0.5s-0.7-0.2-1.2-0.2c-0.6,0-1.1,0.1-1.4,0.4s-0.5,0.6-0.5,1
		c0,0.4,0.2,0.7,0.5,1s1,0.5,2,0.7c1.6,0.3,2.7,0.8,3.5,1.4s1.1,1.4,1.1,2.5c0,1.1-0.5,2.1-1.5,2.8s-2.3,1.1-3.9,1.1
		c-1,0-1.9-0.1-2.7-0.4s-1.5-0.7-2.2-1.2l0-2.8h2.4l0.5,1.7c0.2,0.2,0.5,0.3,0.8,0.4s0.7,0.1,1.1,0.1c0.7,0,1.2-0.1,1.6-0.4
		s0.5-0.6,0.5-1c0-0.4-0.2-0.7-0.6-1s-1-0.5-2-0.7c-1.5-0.3-2.6-0.8-3.4-1.4s-1.1-1.4-1.1-2.4c0-1.1,0.4-2,1.3-2.7s2.1-1.2,3.7-1.2
		c1,0,1.9,0.1,2.8,0.4s1.6,0.6,2.1,1L182.6,248.9z"/>
</g>
<g class="st1">
	<path class="st2" d="M184.1,246.6v-2.1h5l0.1,1.7c0.4-0.6,0.9-1.1,1.5-1.4s1.3-0.5,2.1-0.5c0.8,0,1.5,0.2,2.1,0.5s1,0.9,1.3,1.6
		c0.4-0.7,0.9-1.2,1.5-1.6s1.4-0.6,2.2-0.6c1.2,0,2.2,0.4,3,1.3s1.1,2.2,1.1,3.9v5.3l1.7,0.4v2.1h-6.6v-2.1l1.5-0.4v-5.3
		c0-1-0.2-1.6-0.5-2s-0.8-0.6-1.4-0.6c-0.5,0-0.9,0.1-1.3,0.3s-0.6,0.5-0.8,0.9c0,0.1,0,0.3,0,0.4s0,0.2,0,0.3v5.9l1.4,0.4v2.1h-6.2
		v-2.1l1.4-0.4v-5.3c0-0.9-0.2-1.6-0.5-2s-0.8-0.6-1.4-0.6c-0.5,0-0.9,0.1-1.2,0.3s-0.6,0.4-0.9,0.7v6.8l1.5,0.4v2.1h-6.5v-2.1
		l1.7-0.4v-7.9L184.1,246.6z"/>
</g>
<g class="st1">
	<path class="st2" d="M214.8,257.2c-0.1-0.2-0.2-0.4-0.2-0.7s-0.1-0.4-0.2-0.7c-0.4,0.5-0.9,0.8-1.5,1.1s-1.2,0.4-2,0.4
		c-1.2,0-2.2-0.3-3-1s-1.1-1.6-1.1-2.8c0-1.2,0.5-2.1,1.4-2.8s2.4-1,4.2-1h1.7v-1.2c0-0.6-0.2-1.1-0.5-1.4s-0.9-0.5-1.6-0.5
		c-0.4,0-0.7,0-1,0.1s-0.6,0.2-0.7,0.3l-0.2,1.4h-2.6l0-2.8c0.6-0.4,1.3-0.8,2.2-1.1s1.7-0.4,2.6-0.4c1.6,0,2.8,0.4,3.8,1.2
		s1.5,1.9,1.5,3.3v5.2c0,0.2,0,0.4,0,0.6s0,0.3,0,0.5l1,0.1v2.1H214.8z M211.9,254.9c0.5,0,1-0.1,1.4-0.3s0.8-0.5,1-0.8v-1.9h-1.7
		c-0.7,0-1.3,0.2-1.7,0.5s-0.6,0.7-0.6,1.2c0,0.4,0.1,0.8,0.4,1S211.4,254.9,211.9,254.9z"/>
</g>
<g class="st1">
	<path class="st2" d="M219.8,241v-2.1h5.2v15.9l1.7,0.4v2.1h-6.7v-2.1l1.7-0.4v-13.5L219.8,241z"/>
</g>
<g class="st1">
	<path class="st2" d="M227.6,241v-2.1h5.2v15.9l1.7,0.4v2.1h-6.7v-2.1l1.7-0.4v-13.5L227.6,241z"/>
</g>
<g class="st1">
	<path class="st2" d="M249.6,257.2c-0.1-0.2-0.2-0.4-0.2-0.7s-0.1-0.4-0.2-0.7c-0.4,0.5-0.9,0.8-1.5,1.1s-1.2,0.4-2,0.4
		c-1.2,0-2.2-0.3-3-1s-1.1-1.6-1.1-2.8c0-1.2,0.5-2.1,1.4-2.8s2.4-1,4.2-1h1.7v-1.2c0-0.6-0.2-1.1-0.5-1.4s-0.9-0.5-1.6-0.5
		c-0.4,0-0.7,0-1,0.1s-0.6,0.2-0.7,0.3l-0.2,1.4h-2.6l0-2.8c0.6-0.4,1.3-0.8,2.2-1.1s1.7-0.4,2.6-0.4c1.6,0,2.8,0.4,3.8,1.2
		s1.5,1.9,1.5,3.3v5.2c0,0.2,0,0.4,0,0.6s0,0.3,0,0.5l1,0.1v2.1H249.6z M246.6,254.9c0.5,0,1-0.1,1.4-0.3s0.8-0.5,1-0.8v-1.9h-1.7
		c-0.7,0-1.3,0.2-1.7,0.5s-0.6,0.7-0.6,1.2c0,0.4,0.1,0.8,0.4,1S246.1,254.9,246.6,254.9z"/>
</g>
<g class="st1">
	<path class="st2" d="M254.5,246.6v-2.1h5l0.1,1.7c0.4-0.6,0.9-1.1,1.5-1.4s1.3-0.5,2.1-0.5c0.8,0,1.5,0.2,2.1,0.5s1,0.9,1.3,1.6
		c0.4-0.7,0.9-1.2,1.5-1.6s1.4-0.6,2.2-0.6c1.2,0,2.2,0.4,3,1.3s1.1,2.2,1.1,3.9v5.3l1.7,0.4v2.1h-6.6v-2.1l1.5-0.4v-5.3
		c0-1-0.2-1.6-0.5-2s-0.8-0.6-1.4-0.6c-0.5,0-0.9,0.1-1.3,0.3s-0.6,0.5-0.8,0.9c0,0.1,0,0.3,0,0.4s0,0.2,0,0.3v5.9l1.4,0.4v2.1h-6.2
		v-2.1l1.4-0.4v-5.3c0-0.9-0.2-1.6-0.5-2s-0.8-0.6-1.4-0.6c-0.5,0-0.9,0.1-1.2,0.3s-0.6,0.4-0.9,0.7v6.8l1.5,0.4v2.1h-6.5v-2.1
		l1.7-0.4v-7.9L254.5,246.6z"/>
</g>
<g class="st1">
	<path class="st2" d="M276.8,250.7c0-1.9,0.5-3.4,1.6-4.6s2.5-1.8,4.4-1.8c1.9,0,3.3,0.6,4.4,1.8s1.6,2.8,1.6,4.7v0.2
		c0,1.9-0.5,3.5-1.6,4.7s-2.5,1.8-4.4,1.8c-1.9,0-3.4-0.6-4.4-1.8s-1.6-2.8-1.6-4.7V250.7z M280.2,251c0,1.2,0.2,2.1,0.6,2.8
		s1.1,1,2,1c0.9,0,1.5-0.4,1.9-1.1s0.6-1.6,0.6-2.8v-0.2c0-1.1-0.2-2-0.6-2.8s-1.1-1.1-2-1.1s-1.5,0.4-1.9,1.1s-0.6,1.6-0.6,2.8V251
		z"/>
</g>
<g class="st1">
	<path class="st2" d="M298.8,255.6c-0.4,0.6-0.9,1.1-1.5,1.4s-1.3,0.5-2,0.5c-1.3,0-2.4-0.4-3.1-1.3s-1.1-2.2-1.1-4v-5.2l-1.4-0.4
		v-2.1h1.4h3.4v7.7c0,0.9,0.2,1.6,0.5,2s0.8,0.6,1.4,0.6c0.5,0,1-0.1,1.4-0.3s0.7-0.4,1-0.8v-6.8l-1.5-0.4v-2.1h1.5h3.4v10.3
		l1.5,0.4v2.1H299L298.8,255.6z"/>
</g>
<g class="st1">
	<path class="st2" d="M304.8,255.1l1.6-0.4v-7.9l-1.8-0.4v-2.1h5l0.2,1.8c0.4-0.6,0.9-1.2,1.6-1.5s1.3-0.5,2.1-0.5
		c1.3,0,2.3,0.4,3,1.2s1.1,2.1,1.1,3.8v5.5l1.6,0.4v2.1h-6.5v-2.1l1.5-0.4v-5.5c0-0.9-0.2-1.5-0.5-1.8s-0.9-0.5-1.6-0.5
		c-0.5,0-0.9,0.1-1.2,0.3s-0.7,0.4-0.9,0.8v6.8l1.4,0.4v2.1h-6.4V255.1z"/>
</g>
<g class="st1">
	<path class="st2" d="M324.6,241.4v3.1h2.2v2.4h-2.2v6.5c0,0.5,0.1,0.8,0.3,1.1s0.5,0.3,0.8,0.3c0.2,0,0.4,0,0.6,0s0.4-0.1,0.6-0.1
		l0.3,2.5c-0.4,0.1-0.8,0.2-1.1,0.3s-0.8,0.1-1.2,0.1c-1.2,0-2.1-0.3-2.7-1s-1-1.7-1-3.1v-6.5h-1.9v-2.4h1.9v-3.1H324.6z"/>
</g>
<g class="st1">
	<path class="st2" d="M334.3,250.7c0-1.9,0.5-3.4,1.6-4.6s2.5-1.8,4.4-1.8c1.9,0,3.3,0.6,4.4,1.8s1.6,2.8,1.6,4.7v0.2
		c0,1.9-0.5,3.5-1.6,4.7s-2.5,1.8-4.4,1.8c-1.9,0-3.4-0.6-4.4-1.8s-1.6-2.8-1.6-4.7V250.7z M337.8,251c0,1.2,0.2,2.1,0.6,2.8
		s1.1,1,2,1c0.9,0,1.5-0.4,1.9-1.1s0.6-1.6,0.6-2.8v-0.2c0-1.1-0.2-2-0.6-2.8s-1.1-1.1-2-1.1s-1.5,0.4-1.9,1.1s-0.6,1.6-0.6,2.8V251
		z"/>
</g>
<g class="st1">
	<path class="st2" d="M347.5,255.1l1.7-0.4v-7.9h-1.9v-2.4h1.9v-1.4c0-1.4,0.4-2.5,1.2-3.3s2-1.2,3.5-1.2c0.3,0,0.6,0,0.9,0.1
		s0.6,0.1,1,0.2l-0.3,2.5c-0.2,0-0.4-0.1-0.5-0.1s-0.4,0-0.6,0c-0.6,0-1,0.2-1.3,0.5s-0.4,0.7-0.4,1.3v1.4h2.5v2.4h-2.5v7.9l1.7,0.4
		v2.1h-6.7V255.1z"/>
</g>
<g class="st1">
	<path class="st2" d="M371,255.6c-0.4,0.6-0.9,1.1-1.5,1.4s-1.3,0.5-2,0.5c-1.3,0-2.4-0.4-3.1-1.3s-1.1-2.2-1.1-4v-5.2l-1.4-0.4
		v-2.1h1.4h3.4v7.7c0,0.9,0.2,1.6,0.5,2s0.8,0.6,1.4,0.6c0.5,0,1-0.1,1.4-0.3s0.7-0.4,1-0.8v-6.8l-1.5-0.4v-2.1h1.5h3.4v10.3
		l1.5,0.4v2.1h-4.5L371,255.6z"/>
</g>
<g class="st1">
	<path class="st2" d="M377.3,255.1l1.6-0.4v-7.9l-1.8-0.4v-2.1h5l0.2,1.9c0.3-0.7,0.7-1.2,1.1-1.5s1-0.6,1.6-0.6c0.2,0,0.4,0,0.6,0
		s0.4,0.1,0.5,0.1l-0.4,3.1l-1.4,0c-0.5,0-0.9,0.1-1.2,0.3s-0.6,0.5-0.8,0.8v6.2l1.6,0.4v2.1h-6.7V255.1z"/>
</g>
<g class="st1">
	<path class="st2" d="M387.3,255.1l1.7-0.4v-7.9l-1.8-0.4v-2.1h5.2v10.3l1.6,0.4v2.1h-6.7V255.1z M392.4,241.5h-3.4v-2.6h3.4V241.5z
		"/>
</g>
<g class="st1">
	<path class="st2" d="M395.1,255.1l1.6-0.4v-7.9l-1.8-0.4v-2.1h5l0.2,1.8c0.4-0.6,0.9-1.2,1.6-1.5s1.3-0.5,2.1-0.5
		c1.3,0,2.3,0.4,3,1.2s1.1,2.1,1.1,3.8v5.5l1.6,0.4v2.1h-6.5v-2.1l1.5-0.4v-5.5c0-0.9-0.2-1.5-0.5-1.8s-0.9-0.5-1.6-0.5
		c-0.5,0-0.9,0.1-1.2,0.3s-0.7,0.4-0.9,0.8v6.8l1.4,0.4v2.1h-6.4V255.1z"/>
</g>
<g class="st1">
	<path class="st2" d="M416.2,257.4c-1.8,0-3.3-0.6-4.4-1.8s-1.6-2.7-1.6-4.5v-0.5c0-1.9,0.5-3.4,1.6-4.7s2.4-1.8,4.2-1.8
		c1.7,0,3,0.5,4,1.5s1.4,2.4,1.4,4.2v1.9h-7.6l0,0.1c0.1,0.8,0.3,1.5,0.8,2.1s1.2,0.8,2,0.8c0.8,0,1.4-0.1,1.9-0.2s1-0.4,1.6-0.7
		l0.9,2.1c-0.5,0.4-1.2,0.8-2,1S417.3,257.4,416.2,257.4z M415.9,246.9c-0.6,0-1.1,0.2-1.5,0.7s-0.6,1.1-0.7,1.9l0,0.1h4.2v-0.3
		c0-0.7-0.2-1.3-0.5-1.7S416.6,246.9,415.9,246.9z"/>
</g>
<g class="st1">
	<path class="st2" d="M446.9,246.6l-1.3,0.2l-2.6,10.5h-2.9l-2.4-7.5h-0.1l-2.4,7.5h-2.8l-2.7-10.5l-1.3-0.2v-2.1h5.7v2.1l-1.3,0.3
		l1.2,5.8h0.1l2.4-8.1h2.3l2.4,8.1h0.1l1.2-5.8l-1.4-0.3v-2.1h5.7V246.6z"/>
</g>
<g class="st1">
	<path class="st2" d="M448.2,255.1l1.7-0.4v-7.9l-1.8-0.4v-2.1h5.2v10.3l1.6,0.4v2.1h-6.7V255.1z M453.2,241.5h-3.4v-2.6h3.4V241.5z
		"/>
	<path class="st2" d="M455.9,241v-2.1h5.2v15.9l1.7,0.4v2.1h-6.7v-2.1l1.7-0.4v-13.5L455.9,241z"/>
</g>
<g class="st1">
	<path class="st2" d="M463.7,241v-2.1h5.2v15.9l1.7,0.4v2.1h-6.7v-2.1l1.7-0.4v-13.5L463.7,241z"/>
</g>
<g class="st1">
	<path class="st2" d="M141.4,280c0,1.9-0.4,3.4-1.3,4.5s-2.1,1.7-3.7,1.7c-0.7,0-1.4-0.2-1.9-0.5s-1-0.8-1.4-1.3l-0.2,1.6h-3v-15.9
		l-1.8-0.4v-2.1h5.2v6.9c0.4-0.5,0.8-0.9,1.3-1.2s1.1-0.4,1.8-0.4c1.6,0,2.8,0.6,3.7,1.8s1.3,2.8,1.3,4.9V280z M137.9,279.8
		c0-1.2-0.2-2.2-0.5-2.9s-1-1.1-1.9-1.1c-0.5,0-1,0.1-1.3,0.3s-0.7,0.5-0.9,1v5.4c0.2,0.4,0.5,0.7,0.9,0.9s0.8,0.3,1.4,0.3
		c0.9,0,1.5-0.3,1.9-0.9s0.5-1.5,0.5-2.6V279.8z"/>
</g>
<g class="st1">
	<path class="st2" d="M148.9,286.2c-1.8,0-3.3-0.6-4.4-1.8s-1.6-2.7-1.6-4.5v-0.5c0-1.9,0.5-3.4,1.6-4.7s2.4-1.8,4.2-1.8
		c1.7,0,3,0.5,4,1.5s1.4,2.4,1.4,4.2v1.9h-7.6l0,0.1c0.1,0.8,0.3,1.5,0.8,2.1s1.2,0.8,2,0.8c0.8,0,1.4-0.1,1.9-0.2s1-0.4,1.6-0.7
		l0.9,2.1c-0.5,0.4-1.2,0.8-2,1S149.9,286.2,148.9,286.2z M148.6,275.7c-0.6,0-1.1,0.2-1.5,0.7s-0.6,1.1-0.7,1.9l0,0.1h4.2v-0.3
		c0-0.7-0.2-1.3-0.5-1.7S149.3,275.7,148.6,275.7z"/>
</g>
<g class="st1">
	<path class="st2" d="M167.5,283.6c0.6,0,1.1-0.2,1.5-0.5s0.6-0.8,0.6-1.4h3.1l0,0.1c0,1.3-0.4,2.4-1.4,3.2s-2.2,1.3-3.7,1.3
		c-1.9,0-3.3-0.6-4.4-1.8s-1.5-2.7-1.5-4.6v-0.4c0-1.9,0.5-3.4,1.6-4.6s2.5-1.8,4.5-1.8c1,0,1.9,0.2,2.8,0.5s1.5,0.7,2,1.3l0,3.4
		h-2.8l-0.6-2c-0.2-0.1-0.4-0.3-0.6-0.4s-0.5-0.1-0.9-0.1c-1,0-1.7,0.4-2.1,1.1s-0.6,1.6-0.6,2.7v0.4c0,1.1,0.2,2,0.6,2.7
		S166.5,283.6,167.5,283.6z"/>
</g>
<g class="st1">
	<path class="st2" d="M174,279.5c0-1.9,0.5-3.4,1.6-4.6s2.5-1.8,4.4-1.8c1.9,0,3.3,0.6,4.4,1.8s1.6,2.8,1.6,4.7v0.2
		c0,1.9-0.5,3.5-1.6,4.7s-2.5,1.8-4.4,1.8c-1.9,0-3.4-0.6-4.4-1.8s-1.6-2.8-1.6-4.7V279.5z M177.4,279.8c0,1.2,0.2,2.1,0.6,2.8
		s1.1,1,2,1c0.9,0,1.5-0.4,1.9-1.1s0.6-1.6,0.6-2.8v-0.2c0-1.1-0.2-2-0.6-2.8s-1.1-1.1-2-1.1s-1.5,0.4-1.9,1.1s-0.6,1.6-0.6,2.8
		V279.8z"/>
</g>
<g class="st1">
	<path class="st2" d="M186.6,269.8v-2.1h5.2v15.9l1.7,0.4v2.1h-6.7v-2.1l1.7-0.4v-13.5L186.6,269.8z"/>
</g>
<g class="st1">
	<path class="st2" d="M194.5,269.8v-2.1h5.2v15.9l1.7,0.4v2.1h-6.7v-2.1l1.7-0.4v-13.5L194.5,269.8z"/>
</g>
<g class="st1">
	<path class="st2" d="M208.1,286.2c-1.8,0-3.3-0.6-4.4-1.8s-1.6-2.7-1.6-4.5v-0.5c0-1.9,0.5-3.4,1.6-4.7s2.4-1.8,4.2-1.8
		c1.7,0,3,0.5,4,1.5s1.4,2.4,1.4,4.2v1.9h-7.6l0,0.1c0.1,0.8,0.3,1.5,0.8,2.1s1.2,0.8,2,0.8c0.8,0,1.4-0.1,1.9-0.2s1-0.4,1.6-0.7
		l0.9,2.1c-0.5,0.4-1.2,0.8-2,1S209.2,286.2,208.1,286.2z M207.8,275.7c-0.6,0-1.1,0.2-1.5,0.7s-0.6,1.1-0.7,1.9l0,0.1h4.2v-0.3
		c0-0.7-0.2-1.3-0.5-1.7S208.5,275.7,207.8,275.7z"/>
</g>
<g class="st1">
	<path class="st2" d="M220.7,283.6c0.6,0,1.1-0.2,1.5-0.5s0.6-0.8,0.6-1.4h3.1l0,0.1c0,1.3-0.4,2.4-1.4,3.2s-2.2,1.3-3.7,1.3
		c-1.9,0-3.3-0.6-4.4-1.8s-1.5-2.7-1.5-4.6v-0.4c0-1.9,0.5-3.4,1.6-4.6s2.5-1.8,4.5-1.8c1,0,1.9,0.2,2.8,0.5s1.5,0.7,2,1.3l0,3.4
		h-2.8l-0.6-2c-0.2-0.1-0.4-0.3-0.6-0.4s-0.5-0.1-0.9-0.1c-1,0-1.7,0.4-2.1,1.1s-0.6,1.6-0.6,2.7v0.4c0,1.1,0.2,2,0.6,2.7
		S219.8,283.6,220.7,283.6z"/>
</g>
<g class="st1">
	<path class="st2" d="M232.3,270.2v3.1h2.2v2.4h-2.2v6.5c0,0.5,0.1,0.8,0.3,1.1s0.5,0.3,0.8,0.3c0.2,0,0.4,0,0.6,0s0.4-0.1,0.6-0.1
		l0.3,2.5c-0.4,0.1-0.8,0.2-1.1,0.3s-0.8,0.1-1.2,0.1c-1.2,0-2.1-0.3-2.7-1s-1-1.7-1-3.1v-6.5H227v-2.4h1.9v-3.1H232.3z"/>
</g>
<g class="st1">
	<path class="st2" d="M241.8,286.2c-1.8,0-3.3-0.6-4.4-1.8s-1.6-2.7-1.6-4.5v-0.5c0-1.9,0.5-3.4,1.6-4.7s2.4-1.8,4.2-1.8
		c1.7,0,3,0.5,4,1.5s1.4,2.4,1.4,4.2v1.9h-7.6l0,0.1c0.1,0.8,0.3,1.5,0.8,2.1s1.2,0.8,2,0.8c0.8,0,1.4-0.1,1.9-0.2s1-0.4,1.6-0.7
		l0.9,2.1c-0.5,0.4-1.2,0.8-2,1S242.8,286.2,241.8,286.2z M241.5,275.7c-0.6,0-1.1,0.2-1.5,0.7s-0.6,1.1-0.7,1.9l0,0.1h4.2v-0.3
		c0-0.7-0.2-1.3-0.5-1.7S242.2,275.7,241.5,275.7z"/>
</g>
<g class="st1">
	<path class="st2" d="M256.7,284.5c-0.4,0.6-0.9,1-1.4,1.3s-1.2,0.5-1.9,0.5c-1.6,0-2.8-0.6-3.6-1.7s-1.3-2.6-1.3-4.5v-0.2
		c0-2,0.4-3.6,1.3-4.8s2.1-1.8,3.7-1.8c0.6,0,1.2,0.1,1.7,0.4s1,0.7,1.3,1.2v-4.5l-1.8-0.4v-2.1h1.8h3.4v15.9l1.6,0.4v2.1H257
		L256.7,284.5z M251.9,280c0,1.1,0.2,2,0.6,2.6s1,1,1.8,1c0.5,0,0.9-0.1,1.3-0.3s0.7-0.5,0.9-0.9V277c-0.2-0.4-0.5-0.7-0.9-0.9
		s-0.8-0.3-1.3-0.3c-0.8,0-1.4,0.4-1.8,1.1s-0.6,1.7-0.6,2.9V280z"/>
</g>
<g class="st1">
	<path class="st2" d="M268.4,283.9l1.7-0.4v-7.9l-1.8-0.4v-2.1h5.2v10.3l1.6,0.4v2.1h-6.7V283.9z M273.5,270.3h-3.4v-2.6h3.4V270.3z
		"/>
</g>
<g class="st1">
	<path class="st2" d="M276.3,283.9l1.6-0.4v-7.9l-1.8-0.4v-2.1h5l0.2,1.8c0.4-0.6,0.9-1.2,1.6-1.5s1.3-0.5,2.1-0.5
		c1.3,0,2.3,0.4,3,1.2s1.1,2.1,1.1,3.8v5.5l1.6,0.4v2.1h-6.5v-2.1l1.5-0.4v-5.5c0-0.9-0.2-1.5-0.5-1.8s-0.9-0.5-1.6-0.5
		c-0.5,0-0.9,0.1-1.2,0.3s-0.7,0.4-0.9,0.8v6.8l1.4,0.4v2.1h-6.4V283.9z"/>
	<path class="st2" d="M305.7,286c-0.1-0.2-0.2-0.4-0.2-0.7s-0.1-0.4-0.2-0.7c-0.4,0.5-0.9,0.8-1.5,1.1s-1.2,0.4-2,0.4
		c-1.2,0-2.2-0.3-3-1s-1.1-1.6-1.1-2.8c0-1.2,0.5-2.1,1.4-2.8s2.4-1,4.2-1h1.7v-1.2c0-0.6-0.2-1.1-0.5-1.4s-0.9-0.5-1.6-0.5
		c-0.4,0-0.7,0-1,0.1s-0.6,0.2-0.7,0.3l-0.2,1.4h-2.6l0-2.8c0.6-0.4,1.3-0.8,2.2-1.1s1.7-0.4,2.6-0.4c1.6,0,2.8,0.4,3.8,1.2
		c1,0.8,1.5,1.9,1.5,3.3v5.2c0,0.2,0,0.4,0,0.6s0,0.3,0,0.5l1,0.1v2.1H305.7z M302.7,283.7c0.5,0,1-0.1,1.4-0.3s0.8-0.5,1-0.8v-1.9
		h-1.7c-0.7,0-1.3,0.2-1.7,0.5s-0.6,0.7-0.6,1.2c0,0.4,0.1,0.8,0.4,1S302.2,283.7,302.7,283.7z"/>
</g>
<g class="st1">
	<path class="st2" d="M322.6,283.6c0.6,0,1.1-0.2,1.5-0.5s0.6-0.8,0.6-1.4h3.1l0,0.1c0,1.3-0.4,2.4-1.4,3.2s-2.2,1.3-3.7,1.3
		c-1.9,0-3.3-0.6-4.4-1.8s-1.5-2.7-1.5-4.6v-0.4c0-1.9,0.5-3.4,1.6-4.6s2.5-1.8,4.5-1.8c1,0,1.9,0.2,2.8,0.5s1.5,0.7,2,1.3l0,3.4
		h-2.8l-0.6-2c-0.2-0.1-0.4-0.3-0.6-0.4s-0.5-0.1-0.9-0.1c-1,0-1.7,0.4-2.1,1.1s-0.6,1.6-0.6,2.7v0.4c0,1.1,0.2,2,0.6,2.7
		S321.7,283.6,322.6,283.6z"/>
</g>
<g class="st1">
	<path class="st2" d="M338.1,284.4c-0.4,0.6-0.9,1.1-1.5,1.4s-1.3,0.5-2,0.5c-1.3,0-2.4-0.4-3.1-1.3s-1.1-2.2-1.1-4v-5.2l-1.4-0.4
		v-2.1h1.4h3.4v7.7c0,0.9,0.2,1.6,0.5,2s0.8,0.6,1.4,0.6c0.5,0,1-0.1,1.4-0.3s0.7-0.4,1-0.8v-6.8l-1.5-0.4v-2.1h1.5h3.4v10.3
		l1.5,0.4v2.1h-4.5L338.1,284.4z"/>
</g>
<g class="st1">
	<path class="st2" d="M343.3,275.4v-2.1h5l0.2,1.5c0.4-0.5,0.8-1,1.3-1.3s1.1-0.4,1.8-0.4c1.6,0,2.8,0.6,3.7,1.8s1.3,2.8,1.3,4.8
		v0.2c0,1.9-0.4,3.4-1.3,4.5s-2.1,1.7-3.6,1.7c-0.7,0-1.3-0.1-1.8-0.4s-1-0.6-1.3-1.1v3.7l1.7,0.4v2.1h-6.7v-2.1l1.7-0.4v-12.7
		L343.3,275.4z M353.2,279.8c0-1.2-0.2-2.2-0.6-2.9s-1-1.1-1.8-1.1c-0.5,0-1,0.1-1.3,0.3s-0.7,0.5-0.9,0.9v5.6
		c0.2,0.4,0.5,0.6,0.9,0.8s0.8,0.3,1.3,0.3c0.8,0,1.4-0.3,1.8-1s0.6-1.5,0.6-2.6V279.8z"/>
</g>
<g class="st1">
	<path class="st2" d="M364.2,283.9l1.7-0.4v-7.9H364v-2.4h1.9v-1.4c0-1.4,0.4-2.5,1.2-3.3s2-1.2,3.5-1.2c0.3,0,0.6,0,0.9,0.1
		s0.6,0.1,1,0.2l-0.3,2.5c-0.2,0-0.4-0.1-0.5-0.1s-0.4,0-0.6,0c-0.6,0-1,0.2-1.3,0.5s-0.4,0.7-0.4,1.3v1.4h2.5v2.4h-2.5v7.9l1.7,0.4
		v2.1h-6.7V283.9z"/>
</g>
<g class="st1">
	<path class="st2" d="M372.6,279.5c0-1.9,0.5-3.4,1.6-4.6s2.5-1.8,4.4-1.8c1.9,0,3.3,0.6,4.4,1.8s1.6,2.8,1.6,4.7v0.2
		c0,1.9-0.5,3.5-1.6,4.7s-2.5,1.8-4.4,1.8c-1.9,0-3.4-0.6-4.4-1.8s-1.6-2.8-1.6-4.7V279.5z M376.1,279.8c0,1.2,0.2,2.1,0.6,2.8
		s1.1,1,2,1c0.9,0,1.5-0.4,1.9-1.1s0.6-1.6,0.6-2.8v-0.2c0-1.1-0.2-2-0.6-2.8s-1.1-1.1-2-1.1s-1.5,0.4-1.9,1.1s-0.6,1.6-0.6,2.8
		V279.8z"/>
</g>
<g class="st1">
	<path class="st2" d="M385.8,283.9l1.6-0.4v-7.9l-1.8-0.4v-2.1h5l0.2,1.9c0.3-0.7,0.7-1.2,1.1-1.5s1-0.6,1.6-0.6c0.2,0,0.4,0,0.6,0
		s0.4,0.1,0.5,0.1l-0.4,3.1l-1.4,0c-0.5,0-0.9,0.1-1.2,0.3s-0.6,0.5-0.8,0.8v6.2l1.6,0.4v2.1h-6.7V283.9z"/>
</g>
<g class="st1">
	<path class="st2" d="M137.2,314.8c-0.1-0.2-0.2-0.4-0.2-0.7s-0.1-0.4-0.2-0.7c-0.4,0.5-0.9,0.8-1.5,1.1s-1.2,0.4-2,0.4
		c-1.2,0-2.2-0.3-3-1s-1.1-1.6-1.1-2.8c0-1.2,0.5-2.1,1.4-2.8s2.4-1,4.2-1h1.7v-1.2c0-0.6-0.2-1.1-0.5-1.4s-0.9-0.5-1.6-0.5
		c-0.4,0-0.7,0-1,0.1s-0.6,0.2-0.7,0.3l-0.2,1.4h-2.6l0-2.8c0.6-0.4,1.3-0.8,2.2-1.1s1.7-0.4,2.6-0.4c1.6,0,2.8,0.4,3.8,1.2
		s1.5,1.9,1.5,3.3v5.2c0,0.2,0,0.4,0,0.6s0,0.3,0,0.5l1,0.1v2.1H137.2z M134.2,312.5c0.5,0,1-0.1,1.4-0.3s0.8-0.5,1-0.8v-1.9h-1.7
		c-0.7,0-1.3,0.2-1.7,0.5s-0.6,0.7-0.6,1.2c0,0.4,0.1,0.8,0.4,1S133.7,312.5,134.2,312.5z"/>
</g>
<g class="st1">
	<path class="st2" d="M142.3,312.7l1.6-0.4v-7.9l-1.8-0.4v-2.1h5l0.2,1.8c0.4-0.6,0.9-1.2,1.6-1.5s1.3-0.5,2.1-0.5
		c1.3,0,2.3,0.4,3,1.2s1.1,2.1,1.1,3.8v5.5l1.6,0.4v2.1h-6.5v-2.1l1.5-0.4v-5.5c0-0.9-0.2-1.5-0.5-1.8s-0.9-0.5-1.6-0.5
		c-0.5,0-0.9,0.1-1.2,0.3s-0.7,0.4-0.9,0.8v6.8l1.4,0.4v2.1h-6.4V312.7z"/>
</g>
<g class="st1">
	<path class="st2" d="M165.8,314.8c-0.1-0.2-0.2-0.4-0.2-0.7s-0.1-0.4-0.2-0.7c-0.4,0.5-0.9,0.8-1.5,1.1s-1.2,0.4-2,0.4
		c-1.2,0-2.2-0.3-3-1s-1.1-1.6-1.1-2.8c0-1.2,0.5-2.1,1.4-2.8s2.4-1,4.2-1h1.7v-1.2c0-0.6-0.2-1.1-0.5-1.4s-0.9-0.5-1.6-0.5
		c-0.4,0-0.7,0-1,0.1s-0.6,0.2-0.7,0.3l-0.2,1.4h-2.6l0-2.8c0.6-0.4,1.3-0.8,2.2-1.1s1.7-0.4,2.6-0.4c1.6,0,2.8,0.4,3.8,1.2
		s1.5,1.9,1.5,3.3v5.2c0,0.2,0,0.4,0,0.6s0,0.3,0,0.5l1,0.1v2.1H165.8z M162.8,312.5c0.5,0,1-0.1,1.4-0.3s0.8-0.5,1-0.8v-1.9h-1.7
		c-0.7,0-1.3,0.2-1.7,0.5s-0.6,0.7-0.6,1.2c0,0.4,0.1,0.8,0.4,1S162.3,312.5,162.8,312.5z"/>
</g>
<g class="st1">
	<path class="st2" d="M170.7,298.6v-2.1h5.2v15.9l1.7,0.4v2.1h-6.7v-2.1l1.7-0.4v-13.5L170.7,298.6z"/>
</g>
<g class="st1">
	<path class="st2" d="M191.3,304.2l-1.2,0.2l-4.7,12.3c-0.4,0.9-0.9,1.7-1.5,2.3s-1.5,0.9-2.8,0.9c-0.3,0-0.6,0-0.8-0.1
		s-0.6-0.1-0.9-0.2l0.4-2.5c0.1,0,0.2,0,0.3,0s0.2,0,0.3,0c0.6,0,1-0.1,1.3-0.4s0.5-0.6,0.7-1l0.4-1l-4-10.4l-1.2-0.2v-2.1h6.2v2.1
		l-1.4,0.2l1.7,5.1l0.2,0.9l0.1,0l2-6l-1.4-0.2v-2.1h6.2V304.2z"/>
</g>
<g class="st1">
	<path class="st2" d="M202.5,306.5h-2.3l-0.4-1.6c-0.2-0.2-0.5-0.3-0.9-0.5s-0.7-0.2-1.2-0.2c-0.6,0-1.1,0.1-1.4,0.4s-0.5,0.6-0.5,1
		c0,0.4,0.2,0.7,0.5,1s1,0.5,2,0.7c1.6,0.3,2.7,0.8,3.5,1.4s1.1,1.4,1.1,2.5c0,1.1-0.5,2.1-1.5,2.8s-2.3,1.1-3.9,1.1
		c-1,0-1.9-0.1-2.7-0.4s-1.5-0.7-2.2-1.2l0-2.8h2.4l0.5,1.7c0.2,0.2,0.5,0.3,0.8,0.4s0.7,0.1,1.1,0.1c0.7,0,1.2-0.1,1.6-0.4
		s0.5-0.6,0.5-1c0-0.4-0.2-0.7-0.6-1s-1-0.5-2-0.7c-1.5-0.3-2.6-0.8-3.4-1.4s-1.1-1.4-1.1-2.4c0-1.1,0.4-2,1.3-2.7s2.1-1.2,3.7-1.2
		c1,0,1.9,0.1,2.8,0.4s1.6,0.6,2.1,1L202.5,306.5z"/>
</g>
<g class="st1">
	<path class="st2" d="M204.2,312.7l1.7-0.4v-7.9l-1.8-0.4v-2.1h5.2v10.3l1.6,0.4v2.1h-6.7V312.7z M209.3,299.1h-3.4v-2.6h3.4V299.1z
		"/>
</g>
<g class="st1">
	<path class="st2" d="M222.2,306.5h-2.3l-0.4-1.6c-0.2-0.2-0.5-0.3-0.9-0.5s-0.7-0.2-1.2-0.2c-0.6,0-1.1,0.1-1.4,0.4s-0.5,0.6-0.5,1
		c0,0.4,0.2,0.7,0.5,1s1,0.5,2,0.7c1.6,0.3,2.7,0.8,3.5,1.4s1.1,1.4,1.1,2.5c0,1.1-0.5,2.1-1.5,2.8s-2.3,1.1-3.9,1.1
		c-1,0-1.9-0.1-2.7-0.4s-1.5-0.7-2.2-1.2l0-2.8h2.4l0.5,1.7c0.2,0.2,0.5,0.3,0.8,0.4s0.7,0.1,1.1,0.1c0.7,0,1.2-0.1,1.6-0.4
		s0.5-0.6,0.5-1c0-0.4-0.2-0.7-0.6-1s-1-0.5-2-0.7c-1.5-0.3-2.6-0.8-3.4-1.4s-1.1-1.4-1.1-2.4c0-1.1,0.4-2,1.3-2.7s2.1-1.2,3.7-1.2
		c1,0,1.9,0.1,2.8,0.4s1.6,0.6,2.1,1L222.2,306.5z"/>
</g>
<g class="st1">
	<path class="st2" d="M230,312.7l1.7-0.4v-7.9l-1.8-0.4v-2.1h5.2v10.3l1.6,0.4v2.1H230V312.7z M235.1,299.1h-3.4v-2.6h3.4V299.1z"/>
</g>
<g class="st1">
	<path class="st2" d="M237.8,312.7l1.6-0.4v-7.9l-1.8-0.4v-2.1h5l0.2,1.8c0.4-0.6,0.9-1.2,1.6-1.5s1.3-0.5,2.1-0.5
		c1.3,0,2.3,0.4,3,1.2s1.1,2.1,1.1,3.8v5.5l1.6,0.4v2.1h-6.5v-2.1l1.5-0.4v-5.5c0-0.9-0.2-1.5-0.5-1.8s-0.9-0.5-1.6-0.5
		c-0.5,0-0.9,0.1-1.2,0.3s-0.7,0.4-0.9,0.8v6.8l1.4,0.4v2.1h-6.4V312.7z"/>
</g>
<g class="st1">
	<path class="st2" d="M264.2,299v3.1h2.2v2.4h-2.2v6.5c0,0.5,0.1,0.8,0.3,1.1s0.5,0.3,0.8,0.3c0.2,0,0.4,0,0.6,0s0.4-0.1,0.6-0.1
		l0.3,2.5c-0.4,0.1-0.8,0.2-1.1,0.3s-0.8,0.1-1.2,0.1c-1.2,0-2.1-0.3-2.7-1s-1-1.7-1-3.1v-6.5h-1.9v-2.4h1.9V299H264.2z"/>
</g>
<g class="st1">
	<path class="st2" d="M268,312.7l1.7-0.4v-13.5l-1.8-0.4v-2.1h5.2v7.2c0.4-0.6,0.9-1,1.5-1.4s1.2-0.5,1.9-0.5c1.3,0,2.4,0.4,3.1,1.3
		s1.1,2.2,1.1,4.1v5.1l1.6,0.4v2.1h-6.5v-2.1l1.5-0.4v-5.1c0-1-0.2-1.7-0.5-2.1s-0.9-0.6-1.6-0.6c-0.5,0-0.9,0.1-1.2,0.3
		s-0.7,0.4-0.9,0.7v6.9l1.5,0.4v2.1H268V312.7z"/>
</g>
<g class="st1">
	<path class="st2" d="M289.1,315c-1.8,0-3.3-0.6-4.4-1.8s-1.6-2.7-1.6-4.5v-0.5c0-1.9,0.5-3.4,1.6-4.7s2.4-1.8,4.2-1.8
		c1.7,0,3,0.5,4,1.5s1.4,2.4,1.4,4.2v1.9h-7.6l0,0.1c0.1,0.8,0.3,1.5,0.8,2.1s1.2,0.8,2,0.8c0.8,0,1.4-0.1,1.9-0.2s1-0.4,1.6-0.7
		l0.9,2.1c-0.5,0.4-1.2,0.8-2,1S290.2,315,289.1,315z M288.8,304.5c-0.6,0-1.1,0.2-1.5,0.7s-0.6,1.1-0.7,1.9l0,0.1h4.2v-0.3
		c0-0.7-0.2-1.3-0.5-1.7S289.5,304.5,288.8,304.5z"/>
</g>
<g class="st1">
	<path class="st2" d="M301.4,298.6v-2.1h5.2v15.9l1.7,0.4v2.1h-6.7v-2.1l1.7-0.4v-13.5L301.4,298.6z"/>
</g>
<g class="st1">
	<path class="st2" d="M317.4,314.8c-0.1-0.2-0.2-0.4-0.2-0.7s-0.1-0.4-0.2-0.7c-0.4,0.5-0.9,0.8-1.5,1.1s-1.2,0.4-2,0.4
		c-1.2,0-2.2-0.3-3-1s-1.1-1.6-1.1-2.8c0-1.2,0.5-2.1,1.4-2.8s2.4-1,4.2-1h1.7v-1.2c0-0.6-0.2-1.1-0.5-1.4s-0.9-0.5-1.6-0.5
		c-0.4,0-0.7,0-1,0.1s-0.6,0.2-0.7,0.3l-0.2,1.4h-2.6l0-2.8c0.6-0.4,1.3-0.8,2.2-1.1s1.7-0.4,2.6-0.4c1.6,0,2.8,0.4,3.8,1.2
		s1.5,1.9,1.5,3.3v5.2c0,0.2,0,0.4,0,0.6s0,0.3,0,0.5l1,0.1v2.1H317.4z M314.5,312.5c0.5,0,1-0.1,1.4-0.3s0.8-0.5,1-0.8v-1.9h-1.7
		c-0.7,0-1.3,0.2-1.7,0.5s-0.6,0.7-0.6,1.2c0,0.4,0.1,0.8,0.4,1S314,312.5,314.5,312.5z"/>
</g>
<g class="st1">
	<path class="st2" d="M334.6,308.8c0,1.9-0.4,3.4-1.3,4.5s-2.1,1.7-3.7,1.7c-0.7,0-1.4-0.2-1.9-0.5s-1-0.8-1.4-1.3l-0.2,1.6h-3
		v-15.9l-1.8-0.4v-2.1h5.2v6.9c0.4-0.5,0.8-0.9,1.3-1.2s1.1-0.4,1.8-0.4c1.6,0,2.8,0.6,3.7,1.8s1.3,2.8,1.3,4.9V308.8z M331.1,308.6
		c0-1.2-0.2-2.2-0.5-2.9s-1-1.1-1.9-1.1c-0.5,0-1,0.1-1.3,0.3s-0.7,0.5-0.9,1v5.4c0.2,0.4,0.5,0.7,0.9,0.9s0.8,0.3,1.4,0.3
		c0.9,0,1.5-0.3,1.9-0.9s0.5-1.5,0.5-2.6V308.6z"/>
</g>
<g class="st1">
	<path class="st2" d="M339.9,314.8h-3.4v-3h3.4V314.8z"/>
</g>
<g class="st1">
	<path class="st2" d="M164,355.3v4.5h-2.6l-0.1-1.9h-3.1v12l1.8,0.4v2.1h-7.1v-2.1l1.8-0.4v-12h-3.1l-0.1,1.9h-2.6v-4.5H164z"/>
</g>
<g class="st1">
	<path class="st2" d="M165.3,370.3l1.7-0.4v-13.5l-1.8-0.4v-2.1h5.2v7.2c0.4-0.6,0.9-1,1.5-1.4s1.2-0.5,1.9-0.5
		c1.3,0,2.4,0.4,3.1,1.3s1.1,2.2,1.1,4.1v5.1l1.6,0.4v2.1h-6.5v-2.1l1.5-0.4v-5.1c0-1-0.2-1.7-0.5-2.1s-0.9-0.6-1.6-0.6
		c-0.5,0-0.9,0.1-1.2,0.3s-0.7,0.4-0.9,0.7v6.9l1.5,0.4v2.1h-6.5V370.3z"/>
</g>
<g class="st1">
	<path class="st2" d="M180.8,370.3l1.7-0.4v-7.9l-1.8-0.4v-2.1h5.2V370l1.6,0.4v2.1h-6.7V370.3z M185.9,356.7h-3.4v-2.6h3.4V356.7z"
		/>
</g>
<g class="st1">
	<path class="st2" d="M198.8,364.1h-2.3l-0.4-1.6c-0.2-0.2-0.5-0.3-0.9-0.5s-0.7-0.2-1.2-0.2c-0.6,0-1.1,0.1-1.4,0.4s-0.5,0.6-0.5,1
		c0,0.4,0.2,0.7,0.5,1s1,0.5,2,0.7c1.6,0.3,2.7,0.8,3.5,1.4s1.1,1.4,1.1,2.5c0,1.1-0.5,2.1-1.5,2.8s-2.3,1.1-3.9,1.1
		c-1,0-1.9-0.1-2.7-0.4s-1.5-0.7-2.2-1.2l0-2.8h2.4l0.5,1.7c0.2,0.2,0.5,0.3,0.8,0.4s0.7,0.1,1.1,0.1c0.7,0,1.2-0.1,1.6-0.4
		s0.5-0.6,0.5-1c0-0.4-0.2-0.7-0.6-1s-1-0.5-2-0.7c-1.5-0.3-2.6-0.8-3.4-1.4s-1.1-1.4-1.1-2.4c0-1.1,0.4-2,1.3-2.7s2.1-1.2,3.7-1.2
		c1,0,1.9,0.1,2.8,0.4s1.6,0.6,2.1,1L198.8,364.1z"/>
</g>
<g class="st1">
	<path class="st2" d="M211.7,356.6v3.1h2.2v2.4h-2.2v6.5c0,0.5,0.1,0.8,0.3,1.1s0.5,0.3,0.8,0.3c0.2,0,0.4,0,0.6,0s0.4-0.1,0.6-0.1
		l0.3,2.5c-0.4,0.1-0.8,0.2-1.1,0.3s-0.8,0.1-1.2,0.1c-1.2,0-2.1-0.3-2.7-1s-1-1.7-1-3.1v-6.5h-1.9v-2.4h1.9v-3.1H211.7z"/>
</g>
<g class="st1">
	<path class="st2" d="M221.2,372.6c-1.8,0-3.3-0.6-4.4-1.8s-1.6-2.7-1.6-4.5V366c0-1.9,0.5-3.4,1.6-4.7s2.4-1.8,4.2-1.8
		c1.7,0,3,0.5,4,1.5s1.4,2.4,1.4,4.2v1.9h-7.6l0,0.1c0.1,0.8,0.3,1.5,0.8,2.1s1.2,0.8,2,0.8c0.8,0,1.4-0.1,1.9-0.2s1-0.4,1.6-0.7
		l0.9,2.1c-0.5,0.4-1.2,0.8-2,1S222.2,372.6,221.2,372.6z M220.9,362.1c-0.6,0-1.1,0.2-1.5,0.7s-0.6,1.1-0.7,1.9l0,0.1h4.2v-0.3
		c0-0.7-0.2-1.3-0.5-1.7S221.6,362.1,220.9,362.1z"/>
</g>
<g class="st1">
	<path class="st2" d="M237.9,364.1h-2.3l-0.4-1.6c-0.2-0.2-0.5-0.3-0.9-0.5s-0.7-0.2-1.2-0.2c-0.6,0-1.1,0.1-1.4,0.4s-0.5,0.6-0.5,1
		c0,0.4,0.2,0.7,0.5,1s1,0.5,2,0.7c1.6,0.3,2.7,0.8,3.5,1.4s1.1,1.4,1.1,2.5c0,1.1-0.5,2.1-1.5,2.8s-2.3,1.1-3.9,1.1
		c-1,0-1.9-0.1-2.7-0.4s-1.5-0.7-2.2-1.2l0-2.8h2.4l0.5,1.7c0.2,0.2,0.5,0.3,0.8,0.4s0.7,0.1,1.1,0.1c0.7,0,1.2-0.1,1.6-0.4
		s0.5-0.6,0.5-1c0-0.4-0.2-0.7-0.6-1s-1-0.5-2-0.7c-1.5-0.3-2.6-0.8-3.4-1.4s-1.1-1.4-1.1-2.4c0-1.1,0.4-2,1.3-2.7s2.1-1.2,3.7-1.2
		c1,0,1.9,0.1,2.8,0.4s1.6,0.6,2.1,1L237.9,364.1z"/>
</g>
<g class="st1">
	<path class="st2" d="M244.8,356.6v3.1h2.2v2.4h-2.2v6.5c0,0.5,0.1,0.8,0.3,1.1s0.5,0.3,0.8,0.3c0.2,0,0.4,0,0.6,0s0.4-0.1,0.6-0.1
		l0.3,2.5c-0.4,0.1-0.8,0.2-1.1,0.3s-0.8,0.1-1.2,0.1c-1.2,0-2.1-0.3-2.7-1s-1-1.7-1-3.1v-6.5h-1.9v-2.4h1.9v-3.1H244.8z"/>
</g>
<g class="st1">
	<path class="st2" d="M258.7,364.1h-2.3l-0.4-1.6c-0.2-0.2-0.5-0.3-0.9-0.5s-0.7-0.2-1.2-0.2c-0.6,0-1.1,0.1-1.4,0.4s-0.5,0.6-0.5,1
		c0,0.4,0.2,0.7,0.5,1s1,0.5,2,0.7c1.6,0.3,2.7,0.8,3.5,1.4s1.1,1.4,1.1,2.5c0,1.1-0.5,2.1-1.5,2.8s-2.3,1.1-3.9,1.1
		c-1,0-1.9-0.1-2.7-0.4s-1.5-0.7-2.2-1.2l0-2.8h2.4l0.5,1.7c0.2,0.2,0.5,0.3,0.8,0.4s0.7,0.1,1.1,0.1c0.7,0,1.2-0.1,1.6-0.4
		s0.5-0.6,0.5-1c0-0.4-0.2-0.7-0.6-1s-1-0.5-2-0.7c-1.5-0.3-2.6-0.8-3.4-1.4s-1.1-1.4-1.1-2.4c0-1.1,0.4-2,1.3-2.7s2.1-1.2,3.7-1.2
		c1,0,1.9,0.1,2.8,0.4s1.6,0.6,2.1,1L258.7,364.1z"/>
</g>
<g class="st1">
	<path class="st2" d="M266.3,361.8v-2.1h5l0.2,1.5c0.4-0.5,0.8-1,1.3-1.3s1.1-0.4,1.8-0.4c1.6,0,2.8,0.6,3.7,1.8s1.3,2.8,1.3,4.8
		v0.2c0,1.9-0.4,3.4-1.3,4.5s-2.1,1.7-3.6,1.7c-0.7,0-1.3-0.1-1.8-0.4s-1-0.6-1.3-1.1v3.7l1.7,0.4v2.1h-6.7v-2.1l1.7-0.4v-12.7
		L266.3,361.8z M276.1,366.2c0-1.2-0.2-2.2-0.6-2.9s-1-1.1-1.8-1.1c-0.5,0-1,0.1-1.3,0.3s-0.7,0.5-0.9,0.9v5.6
		c0.2,0.4,0.5,0.6,0.9,0.8s0.8,0.3,1.3,0.3c0.8,0,1.4-0.3,1.8-1s0.6-1.5,0.6-2.6V366.2z"/>
</g>
<g class="st1">
	<path class="st2" d="M280.9,370.3l1.6-0.4v-7.9l-1.8-0.4v-2.1h5l0.2,1.9c0.3-0.7,0.7-1.2,1.1-1.5s1-0.6,1.6-0.6c0.2,0,0.4,0,0.6,0
		s0.4,0.1,0.5,0.1l-0.4,3.1l-1.4,0c-0.5,0-0.9,0.1-1.2,0.3s-0.6,0.5-0.8,0.8v6.2l1.6,0.4v2.1h-6.7V370.3z"/>
</g>
<g class="st1">
	<path class="st2" d="M290.9,370.3l1.7-0.4v-7.9l-1.8-0.4v-2.1h5.2V370l1.6,0.4v2.1h-6.7V370.3z M296,356.7h-3.4v-2.6h3.4V356.7z"/>
</g>
<g class="st1">
	<path class="st2" d="M298.6,361.8v-2.1h5l0.1,1.7c0.4-0.6,0.9-1.1,1.5-1.4s1.3-0.5,2.1-0.5c0.8,0,1.5,0.2,2.1,0.5s1,0.9,1.3,1.6
		c0.4-0.7,0.9-1.2,1.5-1.6s1.4-0.6,2.2-0.6c1.2,0,2.2,0.4,3,1.3s1.1,2.2,1.1,3.9v5.3l1.7,0.4v2.1h-6.6v-2.1l1.5-0.4v-5.3
		c0-1-0.2-1.6-0.5-2s-0.8-0.6-1.4-0.6c-0.5,0-0.9,0.1-1.3,0.3s-0.6,0.5-0.8,0.9c0,0.1,0,0.3,0,0.4s0,0.2,0,0.3v5.9l1.4,0.4v2.1h-6.2
		v-2.1l1.4-0.4v-5.3c0-0.9-0.2-1.6-0.5-2s-0.8-0.6-1.4-0.6c-0.5,0-0.9,0.1-1.2,0.3s-0.6,0.4-0.9,0.7v6.8l1.5,0.4v2.1h-6.5v-2.1
		l1.7-0.4v-7.9L298.6,361.8z"/>
</g>
<g class="st1">
	<path class="st2" d="M329.3,372.4c-0.1-0.2-0.2-0.4-0.2-0.7s-0.1-0.4-0.2-0.7c-0.4,0.5-0.9,0.8-1.5,1.1s-1.2,0.4-2,0.4
		c-1.2,0-2.2-0.3-3-1s-1.1-1.6-1.1-2.8c0-1.2,0.5-2.1,1.4-2.8s2.4-1,4.2-1h1.7v-1.2c0-0.6-0.2-1.1-0.5-1.4s-0.9-0.5-1.6-0.5
		c-0.4,0-0.7,0-1,0.1s-0.6,0.2-0.7,0.3l-0.2,1.4h-2.6l0-2.8c0.6-0.4,1.3-0.8,2.2-1.1s1.7-0.4,2.6-0.4c1.6,0,2.8,0.4,3.8,1.2
		s1.5,1.9,1.5,3.3v5.2c0,0.2,0,0.4,0,0.6s0,0.3,0,0.5l1,0.1v2.1H329.3z M326.4,370.1c0.5,0,1-0.1,1.4-0.3s0.8-0.5,1-0.8V367H327
		c-0.7,0-1.3,0.2-1.7,0.5s-0.6,0.7-0.6,1.2c0,0.4,0.1,0.8,0.4,1S325.9,370.1,326.4,370.1z"/>
</g>
<g class="st1">
	<path class="st2" d="M334.6,370.3l1.6-0.4v-7.9l-1.8-0.4v-2.1h5l0.2,1.9c0.3-0.7,0.7-1.2,1.1-1.5s1-0.6,1.6-0.6c0.2,0,0.4,0,0.6,0
		s0.4,0.1,0.5,0.1l-0.4,3.1l-1.4,0c-0.5,0-0.9,0.1-1.2,0.3s-0.6,0.5-0.8,0.8v6.2l1.6,0.4v2.1h-6.7V370.3z"/>
</g>
<g class="st1">
	<path class="st2" d="M344.7,370.3l1.7-0.4v-7.9l-1.8-0.4v-2.1h5.2V370l1.6,0.4v2.1h-6.7V370.3z M349.7,356.7h-3.4v-2.6h3.4V356.7z"
		/>
</g>
<g class="st1">
	<path class="st2" d="M352.4,356.2v-2.1h5.2V370l1.7,0.4v2.1h-6.7v-2.1l1.7-0.4v-13.5L352.4,356.2z"/>
</g>
<g class="st1">
	<path class="st2" d="M373,361.8l-1.2,0.2l-4.7,12.3c-0.4,0.9-0.9,1.7-1.5,2.3s-1.5,0.9-2.8,0.9c-0.3,0-0.6,0-0.8-0.1
		s-0.6-0.1-0.9-0.2l0.4-2.5c0.1,0,0.2,0,0.3,0s0.2,0,0.3,0c0.6,0,1-0.1,1.3-0.4s0.5-0.6,0.7-1l0.4-1l-4-10.4l-1.2-0.2v-2.1h6.2v2.1
		l-1.4,0.2l1.7,5.1l0.2,0.9l0.1,0l2-6l-1.4-0.2v-2.1h6.2V361.8z"/>
</g>
<g class="st1">
	<path class="st2" d="M380.1,370.3l1.7-0.4v-7.9h-1.9v-2.4h1.9v-1.4c0-1.4,0.4-2.5,1.2-3.3s2-1.2,3.5-1.2c0.3,0,0.6,0,0.9,0.1
		s0.6,0.1,1,0.2l-0.3,2.5c-0.2,0-0.4-0.1-0.5-0.1s-0.4,0-0.6,0c-0.6,0-1,0.2-1.3,0.5s-0.4,0.7-0.4,1.3v1.4h2.5v2.4h-2.5v7.9l1.7,0.4
		v2.1h-6.7V370.3z"/>
</g>
<g class="st1">
	<path class="st2" d="M388.6,365.9c0-1.9,0.5-3.4,1.6-4.6s2.5-1.8,4.4-1.8c1.9,0,3.3,0.6,4.4,1.8s1.6,2.8,1.6,4.7v0.2
		c0,1.9-0.5,3.5-1.6,4.7s-2.5,1.8-4.4,1.8c-1.9,0-3.4-0.6-4.4-1.8s-1.6-2.8-1.6-4.7V365.9z M392,366.2c0,1.2,0.2,2.1,0.6,2.8
		s1.1,1,2,1c0.9,0,1.5-0.4,1.9-1.1s0.6-1.6,0.6-2.8v-0.2c0-1.1-0.2-2-0.6-2.8s-1.1-1.1-2-1.1s-1.5,0.4-1.9,1.1s-0.6,1.6-0.6,2.8
		V366.2z"/>
</g>
<g class="st1">
	<path class="st2" d="M401.7,370.3l1.6-0.4v-7.9l-1.8-0.4v-2.1h5l0.2,1.9c0.3-0.7,0.7-1.2,1.1-1.5s1-0.6,1.6-0.6c0.2,0,0.4,0,0.6,0
		s0.4,0.1,0.5,0.1l-0.4,3.1l-1.4,0c-0.5,0-0.9,0.1-1.2,0.3s-0.6,0.5-0.8,0.8v6.2l1.6,0.4v2.1h-6.7V370.3z"/>
</g>
<g class="st1">
	<path class="st2" d="M135.1,398.8c0.6,0,1.1-0.2,1.5-0.5s0.6-0.8,0.6-1.4h3.1l0,0.1c0,1.3-0.4,2.4-1.4,3.2s-2.2,1.3-3.7,1.3
		c-1.9,0-3.3-0.6-4.4-1.8s-1.5-2.7-1.5-4.6v-0.4c0-1.9,0.5-3.4,1.6-4.6s2.5-1.8,4.5-1.8c1,0,1.9,0.2,2.8,0.5s1.5,0.7,2,1.3l0,3.4
		h-2.8l-0.6-2c-0.2-0.1-0.4-0.3-0.6-0.4s-0.5-0.1-0.9-0.1c-1,0-1.7,0.4-2.1,1.1s-0.6,1.6-0.6,2.7v0.4c0,1.1,0.2,2,0.6,2.7
		S134.1,398.8,135.1,398.8z"/>
</g>
<g class="st1">
	<path class="st2" d="M141.3,399.1l1.7-0.4v-13.5l-1.8-0.4v-2.1h5.2v7.2c0.4-0.6,0.9-1,1.5-1.4s1.2-0.5,1.9-0.5
		c1.3,0,2.4,0.4,3.1,1.3s1.1,2.2,1.1,4.1v5.1l1.6,0.4v2.1h-6.5v-2.1l1.5-0.4v-5.1c0-1-0.2-1.7-0.5-2.1s-0.9-0.6-1.6-0.6
		c-0.5,0-0.9,0.1-1.2,0.3s-0.7,0.4-0.9,0.7v6.9l1.5,0.4v2.1h-6.5V399.1z"/>
</g>
<g class="st1">
	<path class="st2" d="M156.6,385v-2.1h5.2v15.9l1.7,0.4v2.1h-6.7v-2.1l1.7-0.4v-13.5L156.6,385z"/>
</g>
<g class="st1">
	<path class="st2" d="M172.7,401.2c-0.1-0.2-0.2-0.4-0.2-0.7s-0.1-0.4-0.2-0.7c-0.4,0.5-0.9,0.8-1.5,1.1s-1.2,0.4-2,0.4
		c-1.2,0-2.2-0.3-3-1s-1.1-1.6-1.1-2.8c0-1.2,0.5-2.1,1.4-2.8s2.4-1,4.2-1h1.7v-1.2c0-0.6-0.2-1.1-0.5-1.4s-0.9-0.5-1.6-0.5
		c-0.4,0-0.7,0-1,0.1s-0.6,0.2-0.7,0.3l-0.2,1.4h-2.6l0-2.8c0.6-0.4,1.3-0.8,2.2-1.1s1.7-0.4,2.6-0.4c1.6,0,2.8,0.4,3.8,1.2
		s1.5,1.9,1.5,3.3v5.2c0,0.2,0,0.4,0,0.6s0,0.3,0,0.5l1,0.1v2.1H172.7z M169.7,398.9c0.5,0,1-0.1,1.4-0.3s0.8-0.5,1-0.8v-1.9h-1.7
		c-0.7,0-1.3,0.2-1.7,0.5s-0.6,0.7-0.6,1.2c0,0.4,0.1,0.8,0.4,1S169.2,398.9,169.7,398.9z"/>
</g>
<g class="st1">
	<path class="st2" d="M177.6,390.6v-2.1h5l0.1,1.7c0.4-0.6,0.9-1.1,1.5-1.4s1.3-0.5,2.1-0.5c0.8,0,1.5,0.2,2.1,0.5s1,0.9,1.3,1.6
		c0.4-0.7,0.9-1.2,1.5-1.6s1.4-0.6,2.2-0.6c1.2,0,2.2,0.4,3,1.3s1.1,2.2,1.1,3.9v5.3l1.7,0.4v2.1h-6.6v-2.1l1.5-0.4v-5.3
		c0-1-0.2-1.6-0.5-2s-0.8-0.6-1.4-0.6c-0.5,0-0.9,0.1-1.3,0.3s-0.6,0.5-0.8,0.9c0,0.1,0,0.3,0,0.4s0,0.2,0,0.3v5.9l1.4,0.4v2.1h-6.2
		v-2.1l1.4-0.4v-5.3c0-0.9-0.2-1.6-0.5-2s-0.8-0.6-1.4-0.6c-0.5,0-0.9,0.1-1.2,0.3s-0.6,0.4-0.9,0.7v6.8l1.5,0.4v2.1h-6.5v-2.1
		l1.7-0.4v-7.9L177.6,390.6z"/>
</g>
<g class="st1">
	<path class="st2" d="M212.7,390.6l-1.2,0.2l-4.7,12.3c-0.4,0.9-0.9,1.7-1.5,2.3s-1.5,0.9-2.8,0.9c-0.3,0-0.6,0-0.8-0.1
		s-0.6-0.1-0.9-0.2l0.4-2.5c0.1,0,0.2,0,0.3,0s0.2,0,0.3,0c0.6,0,1-0.1,1.3-0.4s0.5-0.6,0.7-1l0.4-1l-4-10.4l-1.2-0.2v-2.1h6.2v2.1
		l-1.4,0.2l1.7,5.1l0.2,0.9l0.1,0l2-6l-1.4-0.2v-2.1h6.2V390.6z"/>
</g>
<g class="st1">
	<path class="st2" d="M221.7,399.7c-0.4,0.6-0.9,1-1.4,1.3s-1.2,0.5-1.9,0.5c-1.6,0-2.8-0.6-3.6-1.7s-1.3-2.6-1.3-4.5V395
		c0-2,0.4-3.6,1.3-4.8s2.1-1.8,3.7-1.8c0.6,0,1.2,0.1,1.7,0.4s1,0.7,1.3,1.2v-4.5l-1.8-0.4v-2.1h1.8h3.4v15.9l1.6,0.4v2.1H222
		L221.7,399.7z M217,395.2c0,1.1,0.2,2,0.6,2.6s1,1,1.8,1c0.5,0,0.9-0.1,1.3-0.3s0.7-0.5,0.9-0.9v-5.4c-0.2-0.4-0.5-0.7-0.9-0.9
		s-0.8-0.3-1.3-0.3c-0.8,0-1.4,0.4-1.8,1.1s-0.6,1.7-0.6,2.9V395.2z"/>
</g>
<g class="st1">
	<path class="st2" d="M227.8,399.1l1.7-0.4v-7.9l-1.8-0.4v-2.1h5.2v10.3l1.6,0.4v2.1h-6.7V399.1z M232.8,385.5h-3.4v-2.6h3.4V385.5z
		"/>
</g>
<g class="st1">
	<path class="st2" d="M243.6,401.2c-0.1-0.2-0.2-0.4-0.2-0.7s-0.1-0.4-0.2-0.7c-0.4,0.5-0.9,0.8-1.5,1.1s-1.2,0.4-2,0.4
		c-1.2,0-2.2-0.3-3-1s-1.1-1.6-1.1-2.8c0-1.2,0.5-2.1,1.4-2.8s2.4-1,4.2-1h1.7v-1.2c0-0.6-0.2-1.1-0.5-1.4s-0.9-0.5-1.6-0.5
		c-0.4,0-0.7,0-1,0.1s-0.6,0.2-0.7,0.3l-0.2,1.4h-2.6l0-2.8c0.6-0.4,1.3-0.8,2.2-1.1s1.7-0.4,2.6-0.4c1.6,0,2.8,0.4,3.8,1.2
		s1.5,1.9,1.5,3.3v5.2c0,0.2,0,0.4,0,0.6s0,0.3,0,0.5l1,0.1v2.1H243.6z M240.7,398.9c0.5,0,1-0.1,1.4-0.3s0.8-0.5,1-0.8v-1.9h-1.7
		c-0.7,0-1.3,0.2-1.7,0.5s-0.6,0.7-0.6,1.2c0,0.4,0.1,0.8,0.4,1S240.2,398.9,240.7,398.9z"/>
</g>
<g class="st1">
	<path class="st2" d="M262.7,401.2c-0.1-0.2-0.2-0.4-0.2-0.7s-0.1-0.4-0.2-0.7c-0.4,0.5-0.9,0.8-1.5,1.1s-1.2,0.4-2,0.4
		c-1.2,0-2.2-0.3-3-1s-1.1-1.6-1.1-2.8c0-1.2,0.5-2.1,1.4-2.8s2.4-1,4.2-1h1.7v-1.2c0-0.6-0.2-1.1-0.5-1.4s-0.9-0.5-1.6-0.5
		c-0.4,0-0.7,0-1,0.1s-0.6,0.2-0.7,0.3l-0.2,1.4h-2.6l0-2.8c0.6-0.4,1.3-0.8,2.2-1.1s1.7-0.4,2.6-0.4c1.6,0,2.8,0.4,3.8,1.2
		s1.5,1.9,1.5,3.3v5.2c0,0.2,0,0.4,0,0.6s0,0.3,0,0.5l1,0.1v2.1H262.7z M259.7,398.9c0.5,0,1-0.1,1.4-0.3s0.8-0.5,1-0.8v-1.9h-1.7
		c-0.7,0-1.3,0.2-1.7,0.5s-0.6,0.7-0.6,1.2c0,0.4,0.1,0.8,0.4,1S259.2,398.9,259.7,398.9z"/>
</g>
<g class="st1">
	<path class="st2" d="M267.8,399.1l1.6-0.4v-7.9l-1.8-0.4v-2.1h5l0.2,1.8c0.4-0.6,0.9-1.2,1.6-1.5s1.3-0.5,2.1-0.5
		c1.3,0,2.3,0.4,3,1.2s1.1,2.1,1.1,3.8v5.5l1.6,0.4v2.1h-6.5v-2.1l1.5-0.4v-5.5c0-0.9-0.2-1.5-0.5-1.8s-0.9-0.5-1.6-0.5
		c-0.5,0-0.9,0.1-1.2,0.3s-0.7,0.4-0.9,0.8v6.8l1.4,0.4v2.1h-6.4V399.1z"/>
</g>
<g class="st1">
	<path class="st2" d="M291.2,399.7c-0.4,0.6-0.9,1-1.4,1.3s-1.2,0.5-1.9,0.5c-1.6,0-2.8-0.6-3.6-1.7s-1.3-2.6-1.3-4.5V395
		c0-2,0.4-3.6,1.3-4.8s2.1-1.8,3.7-1.8c0.6,0,1.2,0.1,1.7,0.4s1,0.7,1.3,1.2v-4.5l-1.8-0.4v-2.1h1.8h3.4v15.9l1.6,0.4v2.1h-4.6
		L291.2,399.7z M286.4,395.2c0,1.1,0.2,2,0.6,2.6s1,1,1.8,1c0.5,0,0.9-0.1,1.3-0.3s0.7-0.5,0.9-0.9v-5.4c-0.2-0.4-0.5-0.7-0.9-0.9
		s-0.8-0.3-1.3-0.3c-0.8,0-1.4,0.4-1.8,1.1s-0.6,1.7-0.6,2.9V395.2z"/>
</g>
<g class="st1">
	<path class="st2" d="M303.2,395c0-2,0.4-3.6,1.3-4.8s2.1-1.8,3.7-1.8c0.7,0,1.3,0.2,1.9,0.5s1,0.8,1.4,1.4l0.2-1.6h3v12.3
		c0,1.7-0.5,3-1.6,4s-2.5,1.5-4.3,1.5c-0.6,0-1.3-0.1-2-0.3s-1.4-0.4-2-0.7l0.6-2.4c0.5,0.2,1.1,0.4,1.6,0.6s1.1,0.2,1.7,0.2
		c0.8,0,1.5-0.3,1.9-0.8s0.6-1.2,0.6-2.1V400c-0.4,0.5-0.8,0.8-1.3,1.1s-1.1,0.4-1.7,0.4c-1.6,0-2.8-0.6-3.6-1.7s-1.3-2.7-1.3-4.5
		V395z M306.7,395.2c0,1.1,0.2,2,0.6,2.6s1,1,1.8,1c0.5,0,1-0.1,1.3-0.3s0.7-0.5,0.9-0.8v-5.5c-0.2-0.4-0.5-0.7-0.9-0.9
		s-0.8-0.3-1.3-0.3c-0.8,0-1.4,0.4-1.8,1.1s-0.6,1.7-0.6,2.9V395.2z"/>
</g>
<g class="st1">
	<path class="st2" d="M316.6,394.7c0-1.9,0.5-3.4,1.6-4.6s2.5-1.8,4.4-1.8c1.9,0,3.3,0.6,4.4,1.8s1.6,2.8,1.6,4.7v0.2
		c0,1.9-0.5,3.5-1.6,4.7s-2.5,1.8-4.4,1.8c-1.9,0-3.4-0.6-4.4-1.8s-1.6-2.8-1.6-4.7V394.7z M320.1,395c0,1.2,0.2,2.1,0.6,2.8
		s1.1,1,2,1c0.9,0,1.5-0.4,1.9-1.1s0.6-1.6,0.6-2.8v-0.2c0-1.1-0.2-2-0.6-2.8s-1.1-1.1-2-1.1s-1.5,0.4-1.9,1.1s-0.6,1.6-0.6,2.8V395
		z"/>
</g>
<g class="st1">
	<path class="st2" d="M329.6,399.1l1.6-0.4v-7.9l-1.8-0.4v-2.1h5l0.2,1.8c0.4-0.6,0.9-1.2,1.6-1.5s1.3-0.5,2.1-0.5
		c1.3,0,2.3,0.4,3,1.2s1.1,2.1,1.1,3.8v5.5l1.6,0.4v2.1h-6.5v-2.1l1.5-0.4v-5.5c0-0.9-0.2-1.5-0.5-1.8s-0.9-0.5-1.6-0.5
		c-0.5,0-0.9,0.1-1.2,0.3s-0.7,0.4-0.9,0.8v6.8l1.4,0.4v2.1h-6.4V399.1z"/>
</g>
<g class="st1">
	<path class="st2" d="M344.6,394.7c0-1.9,0.5-3.4,1.6-4.6s2.5-1.8,4.4-1.8c1.9,0,3.3,0.6,4.4,1.8s1.6,2.8,1.6,4.7v0.2
		c0,1.9-0.5,3.5-1.6,4.7s-2.5,1.8-4.4,1.8c-1.9,0-3.4-0.6-4.4-1.8s-1.6-2.8-1.6-4.7V394.7z M348,395c0,1.2,0.2,2.1,0.6,2.8
		s1.1,1,2,1c0.9,0,1.5-0.4,1.9-1.1s0.6-1.6,0.6-2.8v-0.2c0-1.1-0.2-2-0.6-2.8s-1.1-1.1-2-1.1s-1.5,0.4-1.9,1.1s-0.6,1.6-0.6,2.8V395
		z"/>
</g>
<g class="st1">
	<path class="st2" d="M357.8,399.1l1.6-0.4v-7.9l-1.8-0.4v-2.1h5l0.2,1.9c0.3-0.7,0.7-1.2,1.1-1.5s1-0.6,1.6-0.6c0.2,0,0.4,0,0.6,0
		s0.4,0.1,0.5,0.1l-0.4,3.1l-1.4,0c-0.5,0-0.9,0.1-1.2,0.3s-0.6,0.5-0.8,0.8v6.2l1.6,0.4v2.1h-6.7V399.1z"/>
</g>
<g class="st1">
	<path class="st2" d="M368,399.1l1.6-0.4v-7.9l-1.8-0.4v-2.1h5l0.2,1.9c0.3-0.7,0.7-1.2,1.1-1.5s1-0.6,1.6-0.6c0.2,0,0.4,0,0.6,0
		s0.4,0.1,0.5,0.1l-0.4,3.1l-1.4,0c-0.5,0-0.9,0.1-1.2,0.3s-0.6,0.5-0.8,0.8v6.2l1.6,0.4v2.1H368V399.1z"/>
</g>
<g class="st1">
	<path class="st2" d="M377,399.1l1.7-0.4v-13.5l-1.8-0.4v-2.1h5.2v7.2c0.4-0.6,0.9-1,1.5-1.4s1.2-0.5,1.9-0.5c1.3,0,2.4,0.4,3.1,1.3
		s1.1,2.2,1.1,4.1v5.1l1.6,0.4v2.1h-6.5v-2.1l1.5-0.4v-5.1c0-1-0.2-1.7-0.5-2.1s-0.9-0.6-1.6-0.6c-0.5,0-0.9,0.1-1.2,0.3
		s-0.7,0.4-0.9,0.7v6.9l1.5,0.4v2.1H377V399.1z"/>
</g>
<g class="st1">
	<path class="st2" d="M398.1,401.4c-1.8,0-3.3-0.6-4.4-1.8s-1.6-2.7-1.6-4.5v-0.5c0-1.9,0.5-3.4,1.6-4.7s2.4-1.8,4.2-1.8
		c1.7,0,3,0.5,4,1.5s1.4,2.4,1.4,4.2v1.9h-7.6l0,0.1c0.1,0.8,0.3,1.5,0.8,2.1s1.2,0.8,2,0.8c0.8,0,1.4-0.1,1.9-0.2s1-0.4,1.6-0.7
		l0.9,2.1c-0.5,0.4-1.2,0.8-2,1S399.2,401.4,398.1,401.4z M397.8,390.9c-0.6,0-1.1,0.2-1.5,0.7s-0.6,1.1-0.7,1.9l0,0.1h4.2v-0.3
		c0-0.7-0.2-1.3-0.5-1.7S398.5,390.9,397.8,390.9z"/>
</g>
<g class="st1">
	<path class="st2" d="M412.7,401.2c-0.1-0.2-0.2-0.4-0.2-0.7s-0.1-0.4-0.2-0.7c-0.4,0.5-0.9,0.8-1.5,1.1s-1.2,0.4-2,0.4
		c-1.2,0-2.2-0.3-3-1s-1.1-1.6-1.1-2.8c0-1.2,0.5-2.1,1.4-2.8s2.4-1,4.2-1h1.7v-1.2c0-0.6-0.2-1.1-0.5-1.4s-0.9-0.5-1.6-0.5
		c-0.4,0-0.7,0-1,0.1s-0.6,0.2-0.7,0.3l-0.2,1.4h-2.6l0-2.8c0.6-0.4,1.3-0.8,2.2-1.1s1.7-0.4,2.6-0.4c1.6,0,2.8,0.4,3.8,1.2
		s1.5,1.9,1.5,3.3v5.2c0,0.2,0,0.4,0,0.6s0,0.3,0,0.5l1,0.1v2.1H412.7z M409.7,398.9c0.5,0,1-0.1,1.4-0.3s0.8-0.5,1-0.8v-1.9h-1.7
		c-0.7,0-1.3,0.2-1.7,0.5s-0.6,0.7-0.6,1.2c0,0.4,0.1,0.8,0.4,1S409.2,398.9,409.7,398.9z"/>
</g>
<g class="st1">
	<path class="st2" d="M422.2,401.2h-3.4v-3h3.4V401.2z"/>
</g>
</svg>
