<svg id="Layer_1" data-name="Layer 1" xmlns="http://www.w3.org/2000/svg" viewBox="0 0 611.8 611.8"><defs><style>.cls-1{fill:#f5faf8;stroke:#a967aa;stroke-linecap:round;stroke-linejoin:round;stroke-width:11.8px;}.cls-2{font-size:32px;fill:#a967aa;font-family:RobotoSlab-Bold, Roboto Slab;font-weight:700;}.cls-3{letter-spacing:-0.04em;}.cls-4{letter-spacing:0.01em;}.cls-5{letter-spacing:0.01em;}.cls-6{letter-spacing:-0.02em;}.cls-7{letter-spacing:-0.06em;}.cls-8{letter-spacing:-0.02em;}.cls-9{letter-spacing:-0.01em;}.cls-10{font-size:24px;}.cls-11{letter-spacing:0em;}.cls-12{letter-spacing:0em;}.cls-13{letter-spacing:0.01em;}.cls-14{letter-spacing:0.01em;}.cls-15{letter-spacing:0.01em;}.cls-16{letter-spacing:-0.02em;}.cls-17{letter-spacing:-0.01em;}.cls-18{letter-spacing:0em;}.cls-19{letter-spacing:-0.03em;}.cls-20{letter-spacing:-0.02em;}.cls-21{letter-spacing:-0.01em;}.cls-22{letter-spacing:0.01em;}.cls-23{letter-spacing:0.01em;}.cls-24{letter-spacing:-0.02em;}.cls-25{letter-spacing:0.01em;}.cls-26{letter-spacing:0em;}.cls-27{letter-spacing:-0.01em;}.cls-28{letter-spacing:-0.02em;}.cls-29{letter-spacing:0.01em;}.cls-30{letter-spacing:-0.02em;}.cls-31{letter-spacing:-0.01em;}.cls-32{letter-spacing:0em;}.cls-33{letter-spacing:-0.02em;}.cls-34{letter-spacing:0em;}.cls-35{letter-spacing:0em;}.cls-36{letter-spacing:-0.03em;}.cls-37{letter-spacing:-0.01em;}.cls-38{letter-spacing:-0.02em;}.cls-39{letter-spacing:0em;}.cls-40{letter-spacing:-0.02em;}.cls-41{letter-spacing:-0.01em;}.cls-42{letter-spacing:-0.01em;}.cls-43{letter-spacing:-0.01em;}.cls-44{letter-spacing:0em;}.cls-45{letter-spacing:-0.02em;}.cls-46{letter-spacing:0em;}.cls-47{letter-spacing:-0.01em;}.cls-48{letter-spacing:-0.02em;}.cls-49{letter-spacing:0.01em;}.cls-50{letter-spacing:0.01em;}.cls-51{letter-spacing:-0.02em;}.cls-52{letter-spacing:-0.01em;}.cls-53{letter-spacing:-0.01em;}.cls-54{letter-spacing:-0.01em;}.cls-55{letter-spacing:-0.02em;}.cls-56{letter-spacing:0.01em;}.cls-57{letter-spacing:0em;}.cls-58{letter-spacing:-0.02em;}.cls-59{letter-spacing:-0.01em;}.cls-60{letter-spacing:0.01em;}.cls-61{letter-spacing:-0.03em;}.cls-62{letter-spacing:-0.01em;}.cls-63{letter-spacing:0.01em;}.cls-64{letter-spacing:0em;}.cls-65{letter-spacing:-0.01em;}.cls-66{letter-spacing:0em;}.cls-67{letter-spacing:-0.01em;}.cls-68{letter-spacing:-0.02em;}.cls-69{letter-spacing:0em;}.cls-70{letter-spacing:-0.02em;}.cls-71{letter-spacing:-0.02em;}.cls-72{letter-spacing:-0.01em;}.cls-73{letter-spacing:0.01em;}</style></defs><title>std web mockupsasfd</title><rect class="cls-1" x="5.9" y="5.9" width="600" height="600" rx="300" ry="300"/><text class="cls-2" transform="translate(227.83 190)"><tspan class="cls-3">U</tspan><tspan class="cls-4" x="22.94" y="0">r</tspan><tspan class="cls-5" x="36.73" y="0">i</tspan><tspan class="cls-6" x="47.24" y="0">n</tspan><tspan x="66.95" y="0">e </tspan><tspan class="cls-7" x="91.84" y="0">T</tspan><tspan class="cls-8" x="111.56" y="0">e</tspan><tspan class="cls-9" x="128.13" y="0">s</tspan><tspan x="144.2" y="0">t</tspan><tspan class="cls-10"><tspan x="-79.47" y="67.2">A </tspan><tspan class="cls-11" x="-56.35" y="67.2">s</tspan><tspan class="cls-12" x="-44.11" y="67.2">m</tspan><tspan class="cls-13" x="-21.8" y="67.2">a</tspan><tspan class="cls-14" x="-8.45" y="67.2">l</tspan><tspan x="-0.59" y="67.2">l </tspan><tspan class="cls-15" x="12.95" y="67.2">a</tspan><tspan class="cls-16" x="26.31" y="67.2">m</tspan><tspan class="cls-17" x="48.26" y="67.2">o</tspan><tspan class="cls-18" x="61.36" y="67.2">u</tspan><tspan class="cls-19" x="76.42" y="67.2">n</tspan><tspan x="90.94" y="67.2">t </tspan><tspan class="cls-20" x="105.78" y="67.2">o</tspan><tspan x="118.79" y="67.2">f </tspan><tspan class="cls-21" x="133.6" y="67.2">u</tspan><tspan class="cls-22" x="148.43" y="67.2">r</tspan><tspan class="cls-23" x="158.82" y="67.2">i</tspan><tspan class="cls-24" x="166.75" y="67.2">n</tspan><tspan x="181.59" y="67.2">e </tspan><tspan class="cls-25" x="200.26" y="67.2">w</tspan><tspan class="cls-23" x="219.71" y="67.2">il</tspan><tspan x="235.5" y="67.2">l </tspan><tspan class="cls-26" x="-99.47" y="96">b</tspan><tspan x="-85.74" y="96">e </tspan><tspan class="cls-27" x="-67.07" y="96">c</tspan><tspan class="cls-28" x="-54.58" y="96">o</tspan><tspan class="cls-29" x="-41.61" y="96">l</tspan><tspan class="cls-30" x="-33.75" y="96">l</tspan><tspan class="cls-31" x="-26.5" y="96">e</tspan><tspan class="cls-32" x="-13.84" y="96">c</tspan><tspan class="cls-33" x="-1.3" y="96">t</tspan><tspan class="cls-34" x="7.16" y="96">e</tspan><tspan x="19.88" y="96">d </tspan><tspan class="cls-23" x="39.96" y="96">i</tspan><tspan x="47.9" y="96">n a </tspan><tspan class="cls-35" x="88.08" y="96">c</tspan><tspan class="cls-36" x="100.68" y="96">u</tspan><tspan x="115.03" y="96">p </tspan><tspan class="cls-37" x="135.44" y="96">f</tspan><tspan class="cls-38" x="144.07" y="96">o</tspan><tspan x="156.95" y="96">r </tspan><tspan class="cls-13" x="-99.47" y="124.8">a</tspan><tspan class="cls-39" x="-86.11" y="124.8">n</tspan><tspan class="cls-13" x="-70.89" y="124.8">a</tspan><tspan class="cls-40" x="-57.53" y="124.8">l</tspan><tspan class="cls-41" x="-50.4" y="124.8">y</tspan><tspan class="cls-42" x="-36.42" y="124.8">s</tspan><tspan class="cls-43" x="-24.24" y="124.8">i</tspan><tspan x="-16.71" y="124.8">s </tspan><tspan class="cls-23" x="1.53" y="124.8">i</tspan><tspan x="9.46" y="124.8">n </tspan><tspan class="cls-44" x="30.58" y="124.8">t</tspan><tspan class="cls-45" x="39.64" y="124.8">h</tspan><tspan x="54.5" y="124.8">e </tspan><tspan class="cls-46" x="73.16" y="124.8">l</tspan><tspan class="cls-47" x="80.79" y="124.8">a</tspan><tspan class="cls-48" x="93.73" y="124.8">b</tspan><tspan x="107.13" y="124.8">.</tspan><tspan class="cls-49" x="-79.47" y="182.4">T</tspan><tspan class="cls-50" x="-63.08" y="182.4">h</tspan><tspan class="cls-43" x="-47.67" y="182.4">i</tspan><tspan x="-40.14" y="182.4">s </tspan><tspan class="cls-51" x="-21.91" y="182.4">t</tspan><tspan class="cls-52" x="-13.45" y="182.4">e</tspan><tspan class="cls-53" x="-0.97" y="182.4">s</tspan><tspan class="cls-54" x="11.14" y="182.4">t</tspan><tspan x="19.75" y="182.4">s </tspan><tspan class="cls-55" x="37.98" y="182.4">p</tspan><tspan class="cls-22" x="52.05" y="182.4">r</tspan><tspan class="cls-56" x="62.45" y="182.4">i</tspan><tspan class="cls-12" x="70.39" y="182.4">m</tspan><tspan class="cls-57" x="92.7" y="182.4">a</tspan><tspan class="cls-22" x="105.82" y="182.4">r</tspan><tspan class="cls-23" x="116.21" y="182.4">i</tspan><tspan class="cls-40" x="124.15" y="182.4">l</tspan><tspan x="131.28" y="182.4">y </tspan><tspan class="cls-37" x="151.37" y="182.4">f</tspan><tspan class="cls-58" x="160" y="182.4">o</tspan><tspan x="172.88" y="182.4">r </tspan><tspan class="cls-59" x="-99.47" y="211.2">c</tspan><tspan class="cls-60" x="-87.04" y="211.2">h</tspan><tspan class="cls-46" x="-71.57" y="211.2">l</tspan><tspan class="cls-15" x="-63.95" y="211.2">a</tspan><tspan class="cls-61" x="-50.58" y="211.2">m</tspan><tspan class="cls-62" x="-28.96" y="211.2">y</tspan><tspan class="cls-63" x="-15.08" y="211.2">d</tspan><tspan class="cls-64" x="-0.71" y="211.2">i</tspan><tspan x="6.99" y="211.2">a </tspan><tspan class="cls-13" x="26.06" y="211.2">a</tspan><tspan class="cls-65" x="39.41" y="211.2">n</tspan><tspan x="54.38" y="211.2">d </tspan><tspan class="cls-66" x="74.46" y="211.2">g</tspan><tspan class="cls-67" x="88.08" y="211.2">o</tspan><tspan class="cls-68" x="101.19" y="211.2">n</tspan><tspan class="cls-38" x="116.05" y="211.2">o</tspan><tspan class="cls-69" x="128.93" y="211.2">r</tspan><tspan class="cls-70" x="139.14" y="211.2">r</tspan><tspan class="cls-71" x="148.65" y="211.2">h</tspan><tspan class="cls-72" x="163.51" y="211.2">e</tspan><tspan class="cls-73" x="176.01" y="211.2">a</tspan><tspan x="189.41" y="211.2">.</tspan></tspan></text></svg>